<svg xmlns="http://www.w3.org/2000/svg" xmlns:xlink="http://www.w3.org/1999/xlink" width="500" zoomAndPan="magnify" viewBox="0 0 375 374.999991" height="500" preserveAspectRatio="xMidYMid meet" version="1.0"><defs><clipPath id="a96d79de5b"><path d="M 38 128.589844 L 337 128.589844 L 337 246 L 38 246 Z M 38 128.589844 " clip-rule="nonzero"/></clipPath></defs><g clip-path="url(#a96d79de5b)"><path fill="#ffffff" d="M 47.261719 137.671875 C 46.375 142.644531 44.839844 151.089844 43.847656 156.445312 C 40.710938 173.386719 37.742188 192.636719 38.199219 193.09375 C 38.441406 193.335938 43.589844 193.53125 49.636719 193.53125 C 62.0625 193.53125 62.101562 193.507812 62.589844 185.1875 C 62.8125 181.4375 62.859375 181.394531 66.109375 181.664062 C 69.242188 181.929688 69.417969 182.128906 69.652344 185.652344 C 70.210938 194.03125 69.398438 193.53125 82.410156 193.53125 C 95.402344 193.53125 95.09375 193.742188 93.097656 186.222656 C 92.609375 184.378906 90.90625 175.984375 89.320312 167.570312 C 87.730469 159.15625 85.84375 149.5625 85.132812 146.246094 C 84.417969 142.933594 83.351562 137.613281 82.761719 134.425781 L 81.6875 128.628906 L 48.875 128.628906 Z M 105.117188 129.914062 C 105.117188 130.625 107.898438 139.488281 111.296875 149.617188 L 117.476562 168.035156 L 117.78125 180.089844 C 117.945312 186.71875 118.089844 192.453125 118.09375 192.835938 C 118.101562 193.21875 122.238281 193.53125 127.292969 193.53125 L 136.480469 193.53125 L 136.871094 180.785156 L 137.257812 168.035156 L 143.917969 148.644531 C 147.578125 137.980469 150.570312 129.101562 150.570312 128.910156 C 150.570312 128.722656 146.320312 128.683594 141.121094 128.832031 L 131.667969 129.09375 L 130.011719 135.585938 C 129.097656 139.152344 128.339844 143.039062 128.332031 144.214844 C 128.289062 148.382812 126.75 145.3125 125.535156 138.640625 C 123.644531 128.261719 124.074219 128.628906 113.898438 128.628906 C 107.03125 128.628906 105.117188 128.910156 105.117188 129.914062 Z M 167.960938 138.113281 C 167.101562 143.351562 165.539062 152.4375 164.484375 158.300781 C 163.429688 164.164062 162.339844 170.421875 162.058594 172.207031 C 161.777344 173.992188 160.957031 178.582031 160.234375 182.40625 C 157.957031 194.46875 157.085938 193.53125 170.542969 193.53125 C 179.023438 193.53125 182.273438 193.21875 182.554688 192.375 C 182.957031 191.152344 183.871094 184.648438 183.929688 182.578125 C 183.984375 180.820312 189.929688 181.539062 190.160156 183.332031 C 190.261719 184.097656 190.601562 186.707031 190.921875 189.128906 L 191.5 193.53125 L 203.613281 193.53125 C 215.714844 193.53125 215.722656 193.53125 215.167969 191.445312 C 214.863281 190.296875 213.523438 183.9375 212.191406 177.308594 C 210.859375 170.675781 208.953125 161.289062 207.953125 156.445312 C 206.398438 148.925781 203.792969 135.164062 203.03125 130.484375 C 202.84375 129.320312 200.105469 129.054688 186.164062 128.84375 L 169.519531 128.589844 Z M 231.277344 161.082031 L 231.277344 193.53125 L 248.28125 193.53125 C 257.636719 193.53125 265.460938 193.359375 265.675781 193.148438 C 265.886719 192.941406 265.921875 189.8125 265.753906 186.195312 L 265.445312 179.625 L 253.539062 179.625 L 253.539062 128.628906 L 231.277344 128.628906 Z M 290.644531 128.980469 C 290.644531 129.398438 288.242188 143.382812 285.054688 161.546875 C 280.277344 188.742188 279.738281 192.179688 280.132812 192.835938 C 280.359375 193.21875 285.707031 193.53125 292.007812 193.53125 L 303.46875 193.53125 L 304.246094 187.738281 C 305.003906 182.085938 305.097656 181.933594 307.984375 181.65625 C 310.765625 181.386719 310.980469 181.585938 311.527344 184.902344 C 311.84375 186.84375 312.316406 189.582031 312.578125 190.984375 L 313.054688 193.53125 L 324.574219 193.53125 C 330.914062 193.53125 336.097656 193.167969 336.097656 192.71875 C 336.097656 192.269531 335.5 189.039062 334.765625 185.535156 C 334.035156 182.027344 332.289062 173.113281 330.886719 165.71875 C 329.480469 158.324219 327.257812 147.058594 325.945312 140.683594 L 323.554688 129.09375 L 307.097656 128.839844 C 298.050781 128.703125 290.644531 128.765625 290.644531 128.980469 Z M 67.554688 163.167969 L 68.203125 169.425781 L 65.789062 169.425781 C 62.960938 169.425781 62.960938 169.433594 64.488281 157.898438 C 65.507812 150.179688 65.652344 149.796875 66.25 153.199219 C 66.613281 155.242188 67.199219 159.726562 67.554688 163.167969 Z M 310.054688 166.875 C 310.117188 169.125 309.785156 169.425781 307.242188 169.425781 C 304.722656 169.425781 304.417969 169.160156 304.847656 167.339844 C 305.117188 166.191406 305.871094 161.914062 306.523438 157.835938 L 307.707031 150.417969 L 308.84375 157.371094 C 309.472656 161.199219 310.015625 165.472656 310.054688 166.875 Z M 188.125 158.929688 C 188.488281 162.335938 188.964844 166.09375 189.179688 167.273438 C 189.515625 169.136719 189.191406 169.425781 186.769531 169.425781 C 184.351562 169.425781 183.964844 169.085938 183.964844 166.953125 C 183.964844 162.925781 185.953125 152.738281 186.738281 152.738281 C 187.136719 152.738281 187.757812 155.523438 188.125 158.929688 Z M 95.972656 201.472656 C 90.425781 203.109375 88.671875 205.011719 87.964844 210.160156 C 87.085938 216.5625 89 220.4375 95.054688 224.511719 C 97.769531 226.34375 100.453125 227.835938 101.019531 227.835938 C 103.015625 227.835938 105.261719 231.359375 104.957031 234.015625 C 104.460938 238.335938 101.921875 237.351562 101.585938 232.703125 L 101.300781 228.765625 L 88.191406 228.765625 L 88.613281 233.871094 C 88.910156 237.445312 89.652344 239.628906 91.082031 241.152344 C 96.746094 247.179688 113.4375 246.734375 117.269531 240.453125 C 120.375 235.359375 119.085938 225.949219 114.753906 222.113281 C 113.792969 221.261719 110.5 219.15625 107.4375 217.4375 C 103.074219 214.988281 101.871094 213.839844 101.871094 212.113281 C 101.871094 208.628906 104.023438 208.75 104.359375 212.25 L 104.65625 215.320312 L 117.578125 215.320312 L 117.300781 210.683594 C 117.148438 208.136719 116.378906 205.335938 115.597656 204.460938 C 112.65625 201.1875 102.289062 199.609375 95.972656 201.472656 Z M 183.503906 200.941406 C 173.042969 203.578125 171.914062 205.726562 171.910156 223.09375 C 171.90625 238.148438 172.941406 241.316406 178.640625 243.722656 C 183.003906 245.5625 194.832031 245.328125 198.5625 243.324219 C 203.644531 240.59375 204.375 237.964844 204.375 222.390625 C 204.375 208.890625 204.308594 208.433594 202.023438 205.71875 C 198.679688 201.742188 189.609375 199.402344 183.503906 200.941406 Z M 263.277344 201.003906 C 255.019531 202.898438 253.539062 204.683594 253.539062 212.734375 C 253.539062 219.160156 254.796875 221.304688 260.539062 224.667969 C 262.8125 225.996094 264.417969 227.5 264.105469 228 C 263.792969 228.503906 261.394531 228.777344 258.769531 228.609375 L 254.003906 228.300781 L 254.027344 233.636719 C 254.046875 238.070312 254.4375 239.359375 256.371094 241.289062 C 259.746094 244.664062 267.730469 246.167969 274.609375 244.726562 C 281.875 243.203125 283.515625 241.332031 283.921875 234.117188 C 284.363281 226.296875 282.511719 222.921875 275.800781 219.308594 C 267.457031 214.816406 266.527344 214.039062 266.527344 211.589844 C 266.527344 209.246094 269.207031 208.191406 269.414062 210.453125 C 269.472656 211.089844 269.617188 212.027344 269.738281 212.539062 C 269.855469 213.050781 270.015625 213.988281 270.09375 214.625 C 270.191406 215.429688 272.226562 215.785156 276.730469 215.785156 L 283.222656 215.785156 L 283.222656 213.117188 C 283.222656 207.011719 282.148438 204.621094 278.578125 202.800781 C 274.761719 200.851562 267.597656 200.011719 263.277344 201.003906 Z M 136.425781 201.691406 L 131.09375 201.96875 L 131.09375 244.527344 L 145.007812 244.527344 L 145.007812 235.640625 C 145.007812 228.945312 145.292969 226.851562 146.164062 227.140625 C 146.953125 227.402344 147.410156 230.246094 147.59375 236.023438 L 147.859375 244.527344 L 161.703125 244.527344 L 161.703125 223.269531 C 161.703125 199.199219 162.484375 201.195312 153.28125 201.726562 L 147.863281 202.039062 L 147.59375 208.917969 C 147.238281 218.074219 145.546875 218.246094 145.199219 209.160156 C 144.894531 201.101562 145.058594 201.242188 136.425781 201.691406 Z M 214.566406 201.722656 C 214.0625 201.894531 213.652344 204.082031 213.652344 206.589844 L 213.652344 211.148438 L 222 211.148438 L 222 244.527344 L 236.796875 244.527344 L 237.304688 211.613281 L 241.710938 211.328125 L 246.117188 211.046875 L 246.117188 201.964844 L 230.800781 201.6875 C 222.375 201.535156 215.070312 201.550781 214.566406 201.722656 Z M 189.53125 223.277344 C 189.53125 234.054688 189.265625 237.175781 188.371094 236.878906 C 187.53125 236.597656 187.144531 232.761719 186.957031 222.894531 C 186.734375 211.203125 186.898438 209.292969 188.117188 209.292969 C 189.324219 209.292969 189.53125 211.355469 189.53125 223.277344 Z M 40.128906 217.851562 C 39.5 220.730469 39.808594 225.285156 40.679688 226.007812 C 41.386719 226.597656 48.589844 226.855469 59.785156 226.699219 L 77.753906 226.445312 L 77.753906 218.101562 L 58.96875 217.851562 C 48.636719 217.710938 40.160156 217.710938 40.128906 217.851562 Z M 294.535156 222.042969 L 294.816406 226.445312 L 313.769531 226.699219 C 334.652344 226.976562 334.203125 227.097656 334.226562 221.117188 L 334.242188 217.636719 L 294.253906 217.636719 Z M 270.050781 233.816406 C 269.875 235.589844 269.253906 236.644531 268.378906 236.644531 C 267.371094 236.644531 266.910156 235.386719 266.699219 232.046875 L 266.40625 227.445312 L 268.367188 229.214844 C 269.71875 230.4375 270.238281 231.867188 270.050781 233.816406 Z M 270.050781 233.816406 " fill-opacity="1" fill-rule="evenodd"/><path fill="#ffffff" d="M 47.261719 137.671875 C 46.375 142.644531 44.839844 151.089844 43.847656 156.445312 C 40.710938 173.386719 37.742188 192.636719 38.199219 193.09375 C 38.441406 193.335938 43.589844 193.53125 49.636719 193.53125 C 62.0625 193.53125 62.101562 193.507812 62.589844 185.1875 C 62.8125 181.4375 62.859375 181.394531 66.109375 181.664062 C 69.242188 181.929688 69.417969 182.128906 69.652344 185.652344 C 70.210938 194.03125 69.398438 193.53125 82.410156 193.53125 C 95.402344 193.53125 95.09375 193.742188 93.097656 186.222656 C 92.609375 184.378906 90.90625 175.984375 89.320312 167.570312 C 87.730469 159.15625 85.84375 149.5625 85.132812 146.246094 C 84.417969 142.933594 83.351562 137.613281 82.761719 134.425781 L 81.6875 128.628906 L 48.875 128.628906 Z M 105.117188 129.914062 C 105.117188 130.625 107.898438 139.488281 111.296875 149.617188 L 117.476562 168.035156 L 117.78125 180.089844 C 117.945312 186.71875 118.089844 192.453125 118.09375 192.835938 C 118.101562 193.21875 122.238281 193.53125 127.292969 193.53125 L 136.480469 193.53125 L 136.871094 180.785156 L 137.257812 168.035156 L 143.917969 148.644531 C 147.578125 137.980469 150.570312 129.101562 150.570312 128.910156 C 150.570312 128.722656 146.320312 128.683594 141.121094 128.832031 L 131.667969 129.09375 L 130.011719 135.585938 C 129.097656 139.152344 128.339844 143.039062 128.332031 144.214844 C 128.289062 148.382812 126.75 145.3125 125.535156 138.640625 C 123.644531 128.261719 124.074219 128.628906 113.898438 128.628906 C 107.03125 128.628906 105.117188 128.910156 105.117188 129.914062 Z M 167.960938 138.113281 C 167.101562 143.351562 165.539062 152.4375 164.484375 158.300781 C 163.429688 164.164062 162.339844 170.421875 162.058594 172.207031 C 161.777344 173.992188 160.957031 178.582031 160.234375 182.40625 C 157.957031 194.46875 157.085938 193.53125 170.542969 193.53125 C 179.023438 193.53125 182.273438 193.21875 182.554688 192.375 C 182.957031 191.152344 183.871094 184.648438 183.929688 182.578125 C 183.984375 180.820312 189.929688 181.539062 190.160156 183.332031 C 190.261719 184.097656 190.601562 186.707031 190.921875 189.128906 L 191.5 193.53125 L 203.613281 193.53125 C 215.714844 193.53125 215.722656 193.53125 215.167969 191.445312 C 214.863281 190.296875 213.523438 183.9375 212.191406 177.308594 C 210.859375 170.675781 208.953125 161.289062 207.953125 156.445312 C 206.398438 148.925781 203.792969 135.164062 203.03125 130.484375 C 202.84375 129.320312 200.105469 129.054688 186.164062 128.84375 L 169.519531 128.589844 Z M 231.277344 161.082031 L 231.277344 193.53125 L 248.28125 193.53125 C 257.636719 193.53125 265.460938 193.359375 265.675781 193.148438 C 265.886719 192.941406 265.921875 189.8125 265.753906 186.195312 L 265.445312 179.625 L 253.539062 179.625 L 253.539062 128.628906 L 231.277344 128.628906 Z M 290.644531 128.980469 C 290.644531 129.398438 288.242188 143.382812 285.054688 161.546875 C 280.277344 188.742188 279.738281 192.179688 280.132812 192.835938 C 280.359375 193.21875 285.707031 193.53125 292.007812 193.53125 L 303.46875 193.53125 L 304.246094 187.738281 C 305.003906 182.085938 305.097656 181.933594 307.984375 181.65625 C 310.765625 181.386719 310.980469 181.585938 311.527344 184.902344 C 311.84375 186.84375 312.316406 189.582031 312.578125 190.984375 L 313.054688 193.53125 L 324.574219 193.53125 C 330.914062 193.53125 336.097656 193.167969 336.097656 192.71875 C 336.097656 192.269531 335.5 189.039062 334.765625 185.535156 C 334.035156 182.027344 332.289062 173.113281 330.886719 165.71875 C 329.480469 158.324219 327.257812 147.058594 325.945312 140.683594 L 323.554688 129.09375 L 307.097656 128.839844 C 298.050781 128.703125 290.644531 128.765625 290.644531 128.980469 Z M 67.554688 163.167969 L 68.203125 169.425781 L 65.789062 169.425781 C 62.960938 169.425781 62.960938 169.433594 64.488281 157.898438 C 65.507812 150.179688 65.652344 149.796875 66.25 153.199219 C 66.613281 155.242188 67.199219 159.726562 67.554688 163.167969 Z M 310.054688 166.875 C 310.117188 169.125 309.785156 169.425781 307.242188 169.425781 C 304.722656 169.425781 304.417969 169.160156 304.847656 167.339844 C 305.117188 166.191406 305.871094 161.914062 306.523438 157.835938 L 307.707031 150.417969 L 308.84375 157.371094 C 309.472656 161.199219 310.015625 165.472656 310.054688 166.875 Z M 188.125 158.929688 C 188.488281 162.335938 188.964844 166.09375 189.179688 167.273438 C 189.515625 169.136719 189.191406 169.425781 186.769531 169.425781 C 184.351562 169.425781 183.964844 169.085938 183.964844 166.953125 C 183.964844 162.925781 185.953125 152.738281 186.738281 152.738281 C 187.136719 152.738281 187.757812 155.523438 188.125 158.929688 Z M 95.972656 201.472656 C 90.425781 203.109375 88.671875 205.011719 87.964844 210.160156 C 87.085938 216.5625 89 220.4375 95.054688 224.511719 C 97.769531 226.34375 100.453125 227.835938 101.019531 227.835938 C 103.015625 227.835938 105.261719 231.359375 104.957031 234.015625 C 104.460938 238.335938 101.921875 237.351562 101.585938 232.703125 L 101.300781 228.765625 L 88.191406 228.765625 L 88.613281 233.871094 C 88.910156 237.445312 89.652344 239.628906 91.082031 241.152344 C 96.746094 247.179688 113.4375 246.734375 117.269531 240.453125 C 120.375 235.359375 119.085938 225.949219 114.753906 222.113281 C 113.792969 221.261719 110.5 219.15625 107.4375 217.4375 C 103.074219 214.988281 101.871094 213.839844 101.871094 212.113281 C 101.871094 208.628906 104.023438 208.75 104.359375 212.25 L 104.65625 215.320312 L 117.578125 215.320312 L 117.300781 210.683594 C 117.148438 208.136719 116.378906 205.335938 115.597656 204.460938 C 112.65625 201.1875 102.289062 199.609375 95.972656 201.472656 Z M 183.503906 200.941406 C 173.042969 203.578125 171.914062 205.726562 171.910156 223.09375 C 171.90625 238.148438 172.941406 241.316406 178.640625 243.722656 C 183.003906 245.5625 194.832031 245.328125 198.5625 243.324219 C 203.644531 240.59375 204.375 237.964844 204.375 222.390625 C 204.375 208.890625 204.308594 208.433594 202.023438 205.71875 C 198.679688 201.742188 189.609375 199.402344 183.503906 200.941406 Z M 263.277344 201.003906 C 255.019531 202.898438 253.539062 204.683594 253.539062 212.734375 C 253.539062 219.160156 254.796875 221.304688 260.539062 224.667969 C 262.8125 225.996094 264.417969 227.5 264.105469 228 C 263.792969 228.503906 261.394531 228.777344 258.769531 228.609375 L 254.003906 228.300781 L 254.027344 233.636719 C 254.046875 238.070312 254.4375 239.359375 256.371094 241.289062 C 259.746094 244.664062 267.730469 246.167969 274.609375 244.726562 C 281.875 243.203125 283.515625 241.332031 283.921875 234.117188 C 284.363281 226.296875 282.511719 222.921875 275.800781 219.308594 C 267.457031 214.816406 266.527344 214.039062 266.527344 211.589844 C 266.527344 209.246094 269.207031 208.191406 269.414062 210.453125 C 269.472656 211.089844 269.617188 212.027344 269.738281 212.539062 C 269.855469 213.050781 270.015625 213.988281 270.09375 214.625 C 270.191406 215.429688 272.226562 215.785156 276.730469 215.785156 L 283.222656 215.785156 L 283.222656 213.117188 C 283.222656 207.011719 282.148438 204.621094 278.578125 202.800781 C 274.761719 200.851562 267.597656 200.011719 263.277344 201.003906 Z M 136.425781 201.691406 L 131.09375 201.96875 L 131.09375 244.527344 L 145.007812 244.527344 L 145.007812 235.640625 C 145.007812 228.945312 145.292969 226.851562 146.164062 227.140625 C 146.953125 227.402344 147.410156 230.246094 147.59375 236.023438 L 147.859375 244.527344 L 161.703125 244.527344 L 161.703125 223.269531 C 161.703125 199.199219 162.484375 201.195312 153.28125 201.726562 L 147.863281 202.039062 L 147.59375 208.917969 C 147.238281 218.074219 145.546875 218.246094 145.199219 209.160156 C 144.894531 201.101562 145.058594 201.242188 136.425781 201.691406 Z M 214.566406 201.722656 C 214.0625 201.894531 213.652344 204.082031 213.652344 206.589844 L 213.652344 211.148438 L 222 211.148438 L 222 244.527344 L 236.796875 244.527344 L 237.304688 211.613281 L 241.710938 211.328125 L 246.117188 211.046875 L 246.117188 201.964844 L 230.800781 201.6875 C 222.375 201.535156 215.070312 201.550781 214.566406 201.722656 Z M 189.53125 223.277344 C 189.53125 234.054688 189.265625 237.175781 188.371094 236.878906 C 187.53125 236.597656 187.144531 232.761719 186.957031 222.894531 C 186.734375 211.203125 186.898438 209.292969 188.117188 209.292969 C 189.324219 209.292969 189.53125 211.355469 189.53125 223.277344 Z M 40.128906 217.851562 C 39.5 220.730469 39.808594 225.285156 40.679688 226.007812 C 41.386719 226.597656 48.589844 226.855469 59.785156 226.699219 L 77.753906 226.445312 L 77.753906 218.101562 L 58.96875 217.851562 C 48.636719 217.710938 40.160156 217.710938 40.128906 217.851562 Z M 294.535156 222.042969 L 294.816406 226.445312 L 313.769531 226.699219 C 334.652344 226.976562 334.203125 227.097656 334.226562 221.117188 L 334.242188 217.636719 L 294.253906 217.636719 Z M 270.050781 233.816406 C 269.875 235.589844 269.253906 236.644531 268.378906 236.644531 C 267.371094 236.644531 266.910156 235.386719 266.699219 232.046875 L 266.40625 227.445312 L 268.367188 229.214844 C 269.71875 230.4375 270.238281 231.867188 270.050781 233.816406 Z M 270.050781 233.816406 " fill-opacity="1" fill-rule="evenodd"/><path fill="#ffffff" d="M 47.261719 137.671875 C 46.375 142.644531 44.839844 151.089844 43.847656 156.445312 C 40.710938 173.386719 37.742188 192.636719 38.199219 193.09375 C 38.441406 193.335938 43.589844 193.53125 49.636719 193.53125 C 62.0625 193.53125 62.101562 193.507812 62.589844 185.1875 C 62.8125 181.4375 62.859375 181.394531 66.109375 181.664062 C 69.242188 181.929688 69.417969 182.128906 69.652344 185.652344 C 70.210938 194.03125 69.398438 193.53125 82.410156 193.53125 C 95.402344 193.53125 95.09375 193.742188 93.097656 186.222656 C 92.609375 184.378906 90.90625 175.984375 89.320312 167.570312 C 87.730469 159.15625 85.84375 149.5625 85.132812 146.246094 C 84.417969 142.933594 83.351562 137.613281 82.761719 134.425781 L 81.6875 128.628906 L 48.875 128.628906 Z M 105.117188 129.914062 C 105.117188 130.625 107.898438 139.488281 111.296875 149.617188 L 117.476562 168.035156 L 117.78125 180.089844 C 117.945312 186.71875 118.089844 192.453125 118.09375 192.835938 C 118.101562 193.21875 122.238281 193.53125 127.292969 193.53125 L 136.480469 193.53125 L 136.871094 180.785156 L 137.257812 168.035156 L 143.917969 148.644531 C 147.578125 137.980469 150.570312 129.101562 150.570312 128.910156 C 150.570312 128.722656 146.320312 128.683594 141.121094 128.832031 L 131.667969 129.09375 L 130.011719 135.585938 C 129.097656 139.152344 128.339844 143.039062 128.332031 144.214844 C 128.289062 148.382812 126.75 145.3125 125.535156 138.640625 C 123.644531 128.261719 124.074219 128.628906 113.898438 128.628906 C 107.03125 128.628906 105.117188 128.910156 105.117188 129.914062 Z M 167.960938 138.113281 C 167.101562 143.351562 165.539062 152.4375 164.484375 158.300781 C 163.429688 164.164062 162.339844 170.421875 162.058594 172.207031 C 161.777344 173.992188 160.957031 178.582031 160.234375 182.40625 C 157.957031 194.46875 157.085938 193.53125 170.542969 193.53125 C 179.023438 193.53125 182.273438 193.21875 182.554688 192.375 C 182.957031 191.152344 183.871094 184.648438 183.929688 182.578125 C 183.984375 180.820312 189.929688 181.539062 190.160156 183.332031 C 190.261719 184.097656 190.601562 186.707031 190.921875 189.128906 L 191.5 193.53125 L 203.613281 193.53125 C 215.714844 193.53125 215.722656 193.53125 215.167969 191.445312 C 214.863281 190.296875 213.523438 183.9375 212.191406 177.308594 C 210.859375 170.675781 208.953125 161.289062 207.953125 156.445312 C 206.398438 148.925781 203.792969 135.164062 203.03125 130.484375 C 202.84375 129.320312 200.105469 129.054688 186.164062 128.84375 L 169.519531 128.589844 Z M 231.277344 161.082031 L 231.277344 193.53125 L 248.28125 193.53125 C 257.636719 193.53125 265.460938 193.359375 265.675781 193.148438 C 265.886719 192.941406 265.921875 189.8125 265.753906 186.195312 L 265.445312 179.625 L 253.539062 179.625 L 253.539062 128.628906 L 231.277344 128.628906 Z M 290.644531 128.980469 C 290.644531 129.398438 288.242188 143.382812 285.054688 161.546875 C 280.277344 188.742188 279.738281 192.179688 280.132812 192.835938 C 280.359375 193.21875 285.707031 193.53125 292.007812 193.53125 L 303.46875 193.53125 L 304.246094 187.738281 C 305.003906 182.085938 305.097656 181.933594 307.984375 181.65625 C 310.765625 181.386719 310.980469 181.585938 311.527344 184.902344 C 311.84375 186.84375 312.316406 189.582031 312.578125 190.984375 L 313.054688 193.53125 L 324.574219 193.53125 C 330.914062 193.53125 336.097656 193.167969 336.097656 192.71875 C 336.097656 192.269531 335.5 189.039062 334.765625 185.535156 C 334.035156 182.027344 332.289062 173.113281 330.886719 165.71875 C 329.480469 158.324219 327.257812 147.058594 325.945312 140.683594 L 323.554688 129.09375 L 307.097656 128.839844 C 298.050781 128.703125 290.644531 128.765625 290.644531 128.980469 Z M 67.554688 163.167969 L 68.203125 169.425781 L 65.789062 169.425781 C 62.960938 169.425781 62.960938 169.433594 64.488281 157.898438 C 65.507812 150.179688 65.652344 149.796875 66.25 153.199219 C 66.613281 155.242188 67.199219 159.726562 67.554688 163.167969 Z M 310.054688 166.875 C 310.117188 169.125 309.785156 169.425781 307.242188 169.425781 C 304.722656 169.425781 304.417969 169.160156 304.847656 167.339844 C 305.117188 166.191406 305.871094 161.914062 306.523438 157.835938 L 307.707031 150.417969 L 308.84375 157.371094 C 309.472656 161.199219 310.015625 165.472656 310.054688 166.875 Z M 188.125 158.929688 C 188.488281 162.335938 188.964844 166.09375 189.179688 167.273438 C 189.515625 169.136719 189.191406 169.425781 186.769531 169.425781 C 184.351562 169.425781 183.964844 169.085938 183.964844 166.953125 C 183.964844 162.925781 185.953125 152.738281 186.738281 152.738281 C 187.136719 152.738281 187.757812 155.523438 188.125 158.929688 Z M 95.972656 201.472656 C 90.425781 203.109375 88.671875 205.011719 87.964844 210.160156 C 87.085938 216.5625 89 220.4375 95.054688 224.511719 C 97.769531 226.34375 100.453125 227.835938 101.019531 227.835938 C 103.015625 227.835938 105.261719 231.359375 104.957031 234.015625 C 104.460938 238.335938 101.921875 237.351562 101.585938 232.703125 L 101.300781 228.765625 L 88.191406 228.765625 L 88.613281 233.871094 C 88.910156 237.445312 89.652344 239.628906 91.082031 241.152344 C 96.746094 247.179688 113.4375 246.734375 117.269531 240.453125 C 120.375 235.359375 119.085938 225.949219 114.753906 222.113281 C 113.792969 221.261719 110.5 219.15625 107.4375 217.4375 C 103.074219 214.988281 101.871094 213.839844 101.871094 212.113281 C 101.871094 208.628906 104.023438 208.75 104.359375 212.25 L 104.65625 215.320312 L 117.578125 215.320312 L 117.300781 210.683594 C 117.148438 208.136719 116.378906 205.335938 115.597656 204.460938 C 112.65625 201.1875 102.289062 199.609375 95.972656 201.472656 Z M 183.503906 200.941406 C 173.042969 203.578125 171.914062 205.726562 171.910156 223.09375 C 171.90625 238.148438 172.941406 241.316406 178.640625 243.722656 C 183.003906 245.5625 194.832031 245.328125 198.5625 243.324219 C 203.644531 240.59375 204.375 237.964844 204.375 222.390625 C 204.375 208.890625 204.308594 208.433594 202.023438 205.71875 C 198.679688 201.742188 189.609375 199.402344 183.503906 200.941406 Z M 263.277344 201.003906 C 255.019531 202.898438 253.539062 204.683594 253.539062 212.734375 C 253.539062 219.160156 254.796875 221.304688 260.539062 224.667969 C 262.8125 225.996094 264.417969 227.5 264.105469 228 C 263.792969 228.503906 261.394531 228.777344 258.769531 228.609375 L 254.003906 228.300781 L 254.027344 233.636719 C 254.046875 238.070312 254.4375 239.359375 256.371094 241.289062 C 259.746094 244.664062 267.730469 246.167969 274.609375 244.726562 C 281.875 243.203125 283.515625 241.332031 283.921875 234.117188 C 284.363281 226.296875 282.511719 222.921875 275.800781 219.308594 C 267.457031 214.816406 266.527344 214.039062 266.527344 211.589844 C 266.527344 209.246094 269.207031 208.191406 269.414062 210.453125 C 269.472656 211.089844 269.617188 212.027344 269.738281 212.539062 C 269.855469 213.050781 270.015625 213.988281 270.09375 214.625 C 270.191406 215.429688 272.226562 215.785156 276.730469 215.785156 L 283.222656 215.785156 L 283.222656 213.117188 C 283.222656 207.011719 282.148438 204.621094 278.578125 202.800781 C 274.761719 200.851562 267.597656 200.011719 263.277344 201.003906 Z M 136.425781 201.691406 L 131.09375 201.96875 L 131.09375 244.527344 L 145.007812 244.527344 L 145.007812 235.640625 C 145.007812 228.945312 145.292969 226.851562 146.164062 227.140625 C 146.953125 227.402344 147.410156 230.246094 147.59375 236.023438 L 147.859375 244.527344 L 161.703125 244.527344 L 161.703125 223.269531 C 161.703125 199.199219 162.484375 201.195312 153.28125 201.726562 L 147.863281 202.039062 L 147.59375 208.917969 C 147.238281 218.074219 145.546875 218.246094 145.199219 209.160156 C 144.894531 201.101562 145.058594 201.242188 136.425781 201.691406 Z M 214.566406 201.722656 C 214.0625 201.894531 213.652344 204.082031 213.652344 206.589844 L 213.652344 211.148438 L 222 211.148438 L 222 244.527344 L 236.796875 244.527344 L 237.304688 211.613281 L 241.710938 211.328125 L 246.117188 211.046875 L 246.117188 201.964844 L 230.800781 201.6875 C 222.375 201.535156 215.070312 201.550781 214.566406 201.722656 Z M 189.53125 223.277344 C 189.53125 234.054688 189.265625 237.175781 188.371094 236.878906 C 187.53125 236.597656 187.144531 232.761719 186.957031 222.894531 C 186.734375 211.203125 186.898438 209.292969 188.117188 209.292969 C 189.324219 209.292969 189.53125 211.355469 189.53125 223.277344 Z M 40.128906 217.851562 C 39.5 220.730469 39.808594 225.285156 40.679688 226.007812 C 41.386719 226.597656 48.589844 226.855469 59.785156 226.699219 L 77.753906 226.445312 L 77.753906 218.101562 L 58.96875 217.851562 C 48.636719 217.710938 40.160156 217.710938 40.128906 217.851562 Z M 294.535156 222.042969 L 294.816406 226.445312 L 313.769531 226.699219 C 334.652344 226.976562 334.203125 227.097656 334.226562 221.117188 L 334.242188 217.636719 L 294.253906 217.636719 Z M 270.050781 233.816406 C 269.875 235.589844 269.253906 236.644531 268.378906 236.644531 C 267.371094 236.644531 266.910156 235.386719 266.699219 232.046875 L 266.40625 227.445312 L 268.367188 229.214844 C 269.71875 230.4375 270.238281 231.867188 270.050781 233.816406 Z M 270.050781 233.816406 " fill-opacity="1" fill-rule="evenodd"/><path fill="#ffffff" d="M 47.261719 137.671875 C 46.375 142.644531 44.839844 151.089844 43.847656 156.445312 C 40.710938 173.386719 37.742188 192.636719 38.199219 193.09375 C 38.441406 193.335938 43.589844 193.53125 49.636719 193.53125 C 62.0625 193.53125 62.101562 193.507812 62.589844 185.1875 C 62.8125 181.4375 62.859375 181.394531 66.109375 181.664062 C 69.242188 181.929688 69.417969 182.128906 69.652344 185.652344 C 70.210938 194.03125 69.398438 193.53125 82.410156 193.53125 C 95.402344 193.53125 95.09375 193.742188 93.097656 186.222656 C 92.609375 184.378906 90.90625 175.984375 89.320312 167.570312 C 87.730469 159.15625 85.84375 149.5625 85.132812 146.246094 C 84.417969 142.933594 83.351562 137.613281 82.761719 134.425781 L 81.6875 128.628906 L 48.875 128.628906 Z M 105.117188 129.914062 C 105.117188 130.625 107.898438 139.488281 111.296875 149.617188 L 117.476562 168.035156 L 117.78125 180.089844 C 117.945312 186.71875 118.089844 192.453125 118.09375 192.835938 C 118.101562 193.21875 122.238281 193.53125 127.292969 193.53125 L 136.480469 193.53125 L 136.871094 180.785156 L 137.257812 168.035156 L 143.917969 148.644531 C 147.578125 137.980469 150.570312 129.101562 150.570312 128.910156 C 150.570312 128.722656 146.320312 128.683594 141.121094 128.832031 L 131.667969 129.09375 L 130.011719 135.585938 C 129.097656 139.152344 128.339844 143.039062 128.332031 144.214844 C 128.289062 148.382812 126.75 145.3125 125.535156 138.640625 C 123.644531 128.261719 124.074219 128.628906 113.898438 128.628906 C 107.03125 128.628906 105.117188 128.910156 105.117188 129.914062 Z M 167.960938 138.113281 C 167.101562 143.351562 165.539062 152.4375 164.484375 158.300781 C 163.429688 164.164062 162.339844 170.421875 162.058594 172.207031 C 161.777344 173.992188 160.957031 178.582031 160.234375 182.40625 C 157.957031 194.46875 157.085938 193.53125 170.542969 193.53125 C 179.023438 193.53125 182.273438 193.21875 182.554688 192.375 C 182.957031 191.152344 183.871094 184.648438 183.929688 182.578125 C 183.984375 180.820312 189.929688 181.539062 190.160156 183.332031 C 190.261719 184.097656 190.601562 186.707031 190.921875 189.128906 L 191.5 193.53125 L 203.613281 193.53125 C 215.714844 193.53125 215.722656 193.53125 215.167969 191.445312 C 214.863281 190.296875 213.523438 183.9375 212.191406 177.308594 C 210.859375 170.675781 208.953125 161.289062 207.953125 156.445312 C 206.398438 148.925781 203.792969 135.164062 203.03125 130.484375 C 202.84375 129.320312 200.105469 129.054688 186.164062 128.84375 L 169.519531 128.589844 Z M 231.277344 161.082031 L 231.277344 193.53125 L 248.28125 193.53125 C 257.636719 193.53125 265.460938 193.359375 265.675781 193.148438 C 265.886719 192.941406 265.921875 189.8125 265.753906 186.195312 L 265.445312 179.625 L 253.539062 179.625 L 253.539062 128.628906 L 231.277344 128.628906 Z M 290.644531 128.980469 C 290.644531 129.398438 288.242188 143.382812 285.054688 161.546875 C 280.277344 188.742188 279.738281 192.179688 280.132812 192.835938 C 280.359375 193.21875 285.707031 193.53125 292.007812 193.53125 L 303.46875 193.53125 L 304.246094 187.738281 C 305.003906 182.085938 305.097656 181.933594 307.984375 181.65625 C 310.765625 181.386719 310.980469 181.585938 311.527344 184.902344 C 311.84375 186.84375 312.316406 189.582031 312.578125 190.984375 L 313.054688 193.53125 L 324.574219 193.53125 C 330.914062 193.53125 336.097656 193.167969 336.097656 192.71875 C 336.097656 192.269531 335.5 189.039062 334.765625 185.535156 C 334.035156 182.027344 332.289062 173.113281 330.886719 165.71875 C 329.480469 158.324219 327.257812 147.058594 325.945312 140.683594 L 323.554688 129.09375 L 307.097656 128.839844 C 298.050781 128.703125 290.644531 128.765625 290.644531 128.980469 Z M 67.554688 163.167969 L 68.203125 169.425781 L 65.789062 169.425781 C 62.960938 169.425781 62.960938 169.433594 64.488281 157.898438 C 65.507812 150.179688 65.652344 149.796875 66.25 153.199219 C 66.613281 155.242188 67.199219 159.726562 67.554688 163.167969 Z M 310.054688 166.875 C 310.117188 169.125 309.785156 169.425781 307.242188 169.425781 C 304.722656 169.425781 304.417969 169.160156 304.847656 167.339844 C 305.117188 166.191406 305.871094 161.914062 306.523438 157.835938 L 307.707031 150.417969 L 308.84375 157.371094 C 309.472656 161.199219 310.015625 165.472656 310.054688 166.875 Z M 188.125 158.929688 C 188.488281 162.335938 188.964844 166.09375 189.179688 167.273438 C 189.515625 169.136719 189.191406 169.425781 186.769531 169.425781 C 184.351562 169.425781 183.964844 169.085938 183.964844 166.953125 C 183.964844 162.925781 185.953125 152.738281 186.738281 152.738281 C 187.136719 152.738281 187.757812 155.523438 188.125 158.929688 Z M 95.972656 201.472656 C 90.425781 203.109375 88.671875 205.011719 87.964844 210.160156 C 87.085938 216.5625 89 220.4375 95.054688 224.511719 C 97.769531 226.34375 100.453125 227.835938 101.019531 227.835938 C 103.015625 227.835938 105.261719 231.359375 104.957031 234.015625 C 104.460938 238.335938 101.921875 237.351562 101.585938 232.703125 L 101.300781 228.765625 L 88.191406 228.765625 L 88.613281 233.871094 C 88.910156 237.445312 89.652344 239.628906 91.082031 241.152344 C 96.746094 247.179688 113.4375 246.734375 117.269531 240.453125 C 120.375 235.359375 119.085938 225.949219 114.753906 222.113281 C 113.792969 221.261719 110.5 219.15625 107.4375 217.4375 C 103.074219 214.988281 101.871094 213.839844 101.871094 212.113281 C 101.871094 208.628906 104.023438 208.75 104.359375 212.25 L 104.65625 215.320312 L 117.578125 215.320312 L 117.300781 210.683594 C 117.148438 208.136719 116.378906 205.335938 115.597656 204.460938 C 112.65625 201.1875 102.289062 199.609375 95.972656 201.472656 Z M 183.503906 200.941406 C 173.042969 203.578125 171.914062 205.726562 171.910156 223.09375 C 171.90625 238.148438 172.941406 241.316406 178.640625 243.722656 C 183.003906 245.5625 194.832031 245.328125 198.5625 243.324219 C 203.644531 240.59375 204.375 237.964844 204.375 222.390625 C 204.375 208.890625 204.308594 208.433594 202.023438 205.71875 C 198.679688 201.742188 189.609375 199.402344 183.503906 200.941406 Z M 263.277344 201.003906 C 255.019531 202.898438 253.539062 204.683594 253.539062 212.734375 C 253.539062 219.160156 254.796875 221.304688 260.539062 224.667969 C 262.8125 225.996094 264.417969 227.5 264.105469 228 C 263.792969 228.503906 261.394531 228.777344 258.769531 228.609375 L 254.003906 228.300781 L 254.027344 233.636719 C 254.046875 238.070312 254.4375 239.359375 256.371094 241.289062 C 259.746094 244.664062 267.730469 246.167969 274.609375 244.726562 C 281.875 243.203125 283.515625 241.332031 283.921875 234.117188 C 284.363281 226.296875 282.511719 222.921875 275.800781 219.308594 C 267.457031 214.816406 266.527344 214.039062 266.527344 211.589844 C 266.527344 209.246094 269.207031 208.191406 269.414062 210.453125 C 269.472656 211.089844 269.617188 212.027344 269.738281 212.539062 C 269.855469 213.050781 270.015625 213.988281 270.09375 214.625 C 270.191406 215.429688 272.226562 215.785156 276.730469 215.785156 L 283.222656 215.785156 L 283.222656 213.117188 C 283.222656 207.011719 282.148438 204.621094 278.578125 202.800781 C 274.761719 200.851562 267.597656 200.011719 263.277344 201.003906 Z M 136.425781 201.691406 L 131.09375 201.96875 L 131.09375 244.527344 L 145.007812 244.527344 L 145.007812 235.640625 C 145.007812 228.945312 145.292969 226.851562 146.164062 227.140625 C 146.953125 227.402344 147.410156 230.246094 147.59375 236.023438 L 147.859375 244.527344 L 161.703125 244.527344 L 161.703125 223.269531 C 161.703125 199.199219 162.484375 201.195312 153.28125 201.726562 L 147.863281 202.039062 L 147.59375 208.917969 C 147.238281 218.074219 145.546875 218.246094 145.199219 209.160156 C 144.894531 201.101562 145.058594 201.242188 136.425781 201.691406 Z M 214.566406 201.722656 C 214.0625 201.894531 213.652344 204.082031 213.652344 206.589844 L 213.652344 211.148438 L 222 211.148438 L 222 244.527344 L 236.796875 244.527344 L 237.304688 211.613281 L 241.710938 211.328125 L 246.117188 211.046875 L 246.117188 201.964844 L 230.800781 201.6875 C 222.375 201.535156 215.070312 201.550781 214.566406 201.722656 Z M 189.53125 223.277344 C 189.53125 234.054688 189.265625 237.175781 188.371094 236.878906 C 187.53125 236.597656 187.144531 232.761719 186.957031 222.894531 C 186.734375 211.203125 186.898438 209.292969 188.117188 209.292969 C 189.324219 209.292969 189.53125 211.355469 189.53125 223.277344 Z M 40.128906 217.851562 C 39.5 220.730469 39.808594 225.285156 40.679688 226.007812 C 41.386719 226.597656 48.589844 226.855469 59.785156 226.699219 L 77.753906 226.445312 L 77.753906 218.101562 L 58.96875 217.851562 C 48.636719 217.710938 40.160156 217.710938 40.128906 217.851562 Z M 294.535156 222.042969 L 294.816406 226.445312 L 313.769531 226.699219 C 334.652344 226.976562 334.203125 227.097656 334.226562 221.117188 L 334.242188 217.636719 L 294.253906 217.636719 Z M 270.050781 233.816406 C 269.875 235.589844 269.253906 236.644531 268.378906 236.644531 C 267.371094 236.644531 266.910156 235.386719 266.699219 232.046875 L 266.40625 227.445312 L 268.367188 229.214844 C 269.71875 230.4375 270.238281 231.867188 270.050781 233.816406 Z M 270.050781 233.816406 " fill-opacity="1" fill-rule="evenodd"/><path fill="#ffffff" d="M 47.261719 137.671875 C 46.375 142.644531 44.839844 151.089844 43.847656 156.445312 C 40.710938 173.386719 37.742188 192.636719 38.199219 193.09375 C 38.441406 193.335938 43.589844 193.53125 49.636719 193.53125 C 62.0625 193.53125 62.101562 193.507812 62.589844 185.1875 C 62.8125 181.4375 62.859375 181.394531 66.109375 181.664062 C 69.242188 181.929688 69.417969 182.128906 69.652344 185.652344 C 70.210938 194.03125 69.398438 193.53125 82.410156 193.53125 C 95.402344 193.53125 95.09375 193.742188 93.097656 186.222656 C 92.609375 184.378906 90.90625 175.984375 89.320312 167.570312 C 87.730469 159.15625 85.84375 149.5625 85.132812 146.246094 C 84.417969 142.933594 83.351562 137.613281 82.761719 134.425781 L 81.6875 128.628906 L 48.875 128.628906 Z M 105.117188 129.914062 C 105.117188 130.625 107.898438 139.488281 111.296875 149.617188 L 117.476562 168.035156 L 117.78125 180.089844 C 117.945312 186.71875 118.089844 192.453125 118.09375 192.835938 C 118.101562 193.21875 122.238281 193.53125 127.292969 193.53125 L 136.480469 193.53125 L 136.871094 180.785156 L 137.257812 168.035156 L 143.917969 148.644531 C 147.578125 137.980469 150.570312 129.101562 150.570312 128.910156 C 150.570312 128.722656 146.320312 128.683594 141.121094 128.832031 L 131.667969 129.09375 L 130.011719 135.585938 C 129.097656 139.152344 128.339844 143.039062 128.332031 144.214844 C 128.289062 148.382812 126.75 145.3125 125.535156 138.640625 C 123.644531 128.261719 124.074219 128.628906 113.898438 128.628906 C 107.03125 128.628906 105.117188 128.910156 105.117188 129.914062 Z M 167.960938 138.113281 C 167.101562 143.351562 165.539062 152.4375 164.484375 158.300781 C 163.429688 164.164062 162.339844 170.421875 162.058594 172.207031 C 161.777344 173.992188 160.957031 178.582031 160.234375 182.40625 C 157.957031 194.46875 157.085938 193.53125 170.542969 193.53125 C 179.023438 193.53125 182.273438 193.21875 182.554688 192.375 C 182.957031 191.152344 183.871094 184.648438 183.929688 182.578125 C 183.984375 180.820312 189.929688 181.539062 190.160156 183.332031 C 190.261719 184.097656 190.601562 186.707031 190.921875 189.128906 L 191.5 193.53125 L 203.613281 193.53125 C 215.714844 193.53125 215.722656 193.53125 215.167969 191.445312 C 214.863281 190.296875 213.523438 183.9375 212.191406 177.308594 C 210.859375 170.675781 208.953125 161.289062 207.953125 156.445312 C 206.398438 148.925781 203.792969 135.164062 203.03125 130.484375 C 202.84375 129.320312 200.105469 129.054688 186.164062 128.84375 L 169.519531 128.589844 Z M 231.277344 161.082031 L 231.277344 193.53125 L 248.28125 193.53125 C 257.636719 193.53125 265.460938 193.359375 265.675781 193.148438 C 265.886719 192.941406 265.921875 189.8125 265.753906 186.195312 L 265.445312 179.625 L 253.539062 179.625 L 253.539062 128.628906 L 231.277344 128.628906 Z M 290.644531 128.980469 C 290.644531 129.398438 288.242188 143.382812 285.054688 161.546875 C 280.277344 188.742188 279.738281 192.179688 280.132812 192.835938 C 280.359375 193.21875 285.707031 193.53125 292.007812 193.53125 L 303.46875 193.53125 L 304.246094 187.738281 C 305.003906 182.085938 305.097656 181.933594 307.984375 181.65625 C 310.765625 181.386719 310.980469 181.585938 311.527344 184.902344 C 311.84375 186.84375 312.316406 189.582031 312.578125 190.984375 L 313.054688 193.53125 L 324.574219 193.53125 C 330.914062 193.53125 336.097656 193.167969 336.097656 192.71875 C 336.097656 192.269531 335.5 189.039062 334.765625 185.535156 C 334.035156 182.027344 332.289062 173.113281 330.886719 165.71875 C 329.480469 158.324219 327.257812 147.058594 325.945312 140.683594 L 323.554688 129.09375 L 307.097656 128.839844 C 298.050781 128.703125 290.644531 128.765625 290.644531 128.980469 Z M 67.554688 163.167969 L 68.203125 169.425781 L 65.789062 169.425781 C 62.960938 169.425781 62.960938 169.433594 64.488281 157.898438 C 65.507812 150.179688 65.652344 149.796875 66.25 153.199219 C 66.613281 155.242188 67.199219 159.726562 67.554688 163.167969 Z M 310.054688 166.875 C 310.117188 169.125 309.785156 169.425781 307.242188 169.425781 C 304.722656 169.425781 304.417969 169.160156 304.847656 167.339844 C 305.117188 166.191406 305.871094 161.914062 306.523438 157.835938 L 307.707031 150.417969 L 308.84375 157.371094 C 309.472656 161.199219 310.015625 165.472656 310.054688 166.875 Z M 188.125 158.929688 C 188.488281 162.335938 188.964844 166.09375 189.179688 167.273438 C 189.515625 169.136719 189.191406 169.425781 186.769531 169.425781 C 184.351562 169.425781 183.964844 169.085938 183.964844 166.953125 C 183.964844 162.925781 185.953125 152.738281 186.738281 152.738281 C 187.136719 152.738281 187.757812 155.523438 188.125 158.929688 Z M 95.972656 201.472656 C 90.425781 203.109375 88.671875 205.011719 87.964844 210.160156 C 87.085938 216.5625 89 220.4375 95.054688 224.511719 C 97.769531 226.34375 100.453125 227.835938 101.019531 227.835938 C 103.015625 227.835938 105.261719 231.359375 104.957031 234.015625 C 104.460938 238.335938 101.921875 237.351562 101.585938 232.703125 L 101.300781 228.765625 L 88.191406 228.765625 L 88.613281 233.871094 C 88.910156 237.445312 89.652344 239.628906 91.082031 241.152344 C 96.746094 247.179688 113.4375 246.734375 117.269531 240.453125 C 120.375 235.359375 119.085938 225.949219 114.753906 222.113281 C 113.792969 221.261719 110.5 219.15625 107.4375 217.4375 C 103.074219 214.988281 101.871094 213.839844 101.871094 212.113281 C 101.871094 208.628906 104.023438 208.75 104.359375 212.25 L 104.65625 215.320312 L 117.578125 215.320312 L 117.300781 210.683594 C 117.148438 208.136719 116.378906 205.335938 115.597656 204.460938 C 112.65625 201.1875 102.289062 199.609375 95.972656 201.472656 Z M 183.503906 200.941406 C 173.042969 203.578125 171.914062 205.726562 171.910156 223.09375 C 171.90625 238.148438 172.941406 241.316406 178.640625 243.722656 C 183.003906 245.5625 194.832031 245.328125 198.5625 243.324219 C 203.644531 240.59375 204.375 237.964844 204.375 222.390625 C 204.375 208.890625 204.308594 208.433594 202.023438 205.71875 C 198.679688 201.742188 189.609375 199.402344 183.503906 200.941406 Z M 263.277344 201.003906 C 255.019531 202.898438 253.539062 204.683594 253.539062 212.734375 C 253.539062 219.160156 254.796875 221.304688 260.539062 224.667969 C 262.8125 225.996094 264.417969 227.5 264.105469 228 C 263.792969 228.503906 261.394531 228.777344 258.769531 228.609375 L 254.003906 228.300781 L 254.027344 233.636719 C 254.046875 238.070312 254.4375 239.359375 256.371094 241.289062 C 259.746094 244.664062 267.730469 246.167969 274.609375 244.726562 C 281.875 243.203125 283.515625 241.332031 283.921875 234.117188 C 284.363281 226.296875 282.511719 222.921875 275.800781 219.308594 C 267.457031 214.816406 266.527344 214.039062 266.527344 211.589844 C 266.527344 209.246094 269.207031 208.191406 269.414062 210.453125 C 269.472656 211.089844 269.617188 212.027344 269.738281 212.539062 C 269.855469 213.050781 270.015625 213.988281 270.09375 214.625 C 270.191406 215.429688 272.226562 215.785156 276.730469 215.785156 L 283.222656 215.785156 L 283.222656 213.117188 C 283.222656 207.011719 282.148438 204.621094 278.578125 202.800781 C 274.761719 200.851562 267.597656 200.011719 263.277344 201.003906 Z M 136.425781 201.691406 L 131.09375 201.96875 L 131.09375 244.527344 L 145.007812 244.527344 L 145.007812 235.640625 C 145.007812 228.945312 145.292969 226.851562 146.164062 227.140625 C 146.953125 227.402344 147.410156 230.246094 147.59375 236.023438 L 147.859375 244.527344 L 161.703125 244.527344 L 161.703125 223.269531 C 161.703125 199.199219 162.484375 201.195312 153.28125 201.726562 L 147.863281 202.039062 L 147.59375 208.917969 C 147.238281 218.074219 145.546875 218.246094 145.199219 209.160156 C 144.894531 201.101562 145.058594 201.242188 136.425781 201.691406 Z M 214.566406 201.722656 C 214.0625 201.894531 213.652344 204.082031 213.652344 206.589844 L 213.652344 211.148438 L 222 211.148438 L 222 244.527344 L 236.796875 244.527344 L 237.304688 211.613281 L 241.710938 211.328125 L 246.117188 211.046875 L 246.117188 201.964844 L 230.800781 201.6875 C 222.375 201.535156 215.070312 201.550781 214.566406 201.722656 Z M 189.53125 223.277344 C 189.53125 234.054688 189.265625 237.175781 188.371094 236.878906 C 187.53125 236.597656 187.144531 232.761719 186.957031 222.894531 C 186.734375 211.203125 186.898438 209.292969 188.117188 209.292969 C 189.324219 209.292969 189.53125 211.355469 189.53125 223.277344 Z M 40.128906 217.851562 C 39.5 220.730469 39.808594 225.285156 40.679688 226.007812 C 41.386719 226.597656 48.589844 226.855469 59.785156 226.699219 L 77.753906 226.445312 L 77.753906 218.101562 L 58.96875 217.851562 C 48.636719 217.710938 40.160156 217.710938 40.128906 217.851562 Z M 294.535156 222.042969 L 294.816406 226.445312 L 313.769531 226.699219 C 334.652344 226.976562 334.203125 227.097656 334.226562 221.117188 L 334.242188 217.636719 L 294.253906 217.636719 Z M 270.050781 233.816406 C 269.875 235.589844 269.253906 236.644531 268.378906 236.644531 C 267.371094 236.644531 266.910156 235.386719 266.699219 232.046875 L 266.40625 227.445312 L 268.367188 229.214844 C 269.71875 230.4375 270.238281 231.867188 270.050781 233.816406 Z M 270.050781 233.816406 " fill-opacity="1" fill-rule="evenodd"/><path fill="#ffffff" d="M 47.261719 137.671875 C 46.375 142.644531 44.839844 151.089844 43.847656 156.445312 C 40.710938 173.386719 37.742188 192.636719 38.199219 193.09375 C 38.441406 193.335938 43.589844 193.53125 49.636719 193.53125 C 62.0625 193.53125 62.101562 193.507812 62.589844 185.1875 C 62.8125 181.4375 62.859375 181.394531 66.109375 181.664062 C 69.242188 181.929688 69.417969 182.128906 69.652344 185.652344 C 70.210938 194.03125 69.398438 193.53125 82.410156 193.53125 C 95.402344 193.53125 95.09375 193.742188 93.097656 186.222656 C 92.609375 184.378906 90.90625 175.984375 89.320312 167.570312 C 87.730469 159.15625 85.84375 149.5625 85.132812 146.246094 C 84.417969 142.933594 83.351562 137.613281 82.761719 134.425781 L 81.6875 128.628906 L 48.875 128.628906 Z M 105.117188 129.914062 C 105.117188 130.625 107.898438 139.488281 111.296875 149.617188 L 117.476562 168.035156 L 117.78125 180.089844 C 117.945312 186.71875 118.089844 192.453125 118.09375 192.835938 C 118.101562 193.21875 122.238281 193.53125 127.292969 193.53125 L 136.480469 193.53125 L 136.871094 180.785156 L 137.257812 168.035156 L 143.917969 148.644531 C 147.578125 137.980469 150.570312 129.101562 150.570312 128.910156 C 150.570312 128.722656 146.320312 128.683594 141.121094 128.832031 L 131.667969 129.09375 L 130.011719 135.585938 C 129.097656 139.152344 128.339844 143.039062 128.332031 144.214844 C 128.289062 148.382812 126.75 145.3125 125.535156 138.640625 C 123.644531 128.261719 124.074219 128.628906 113.898438 128.628906 C 107.03125 128.628906 105.117188 128.910156 105.117188 129.914062 Z M 167.960938 138.113281 C 167.101562 143.351562 165.539062 152.4375 164.484375 158.300781 C 163.429688 164.164062 162.339844 170.421875 162.058594 172.207031 C 161.777344 173.992188 160.957031 178.582031 160.234375 182.40625 C 157.957031 194.46875 157.085938 193.53125 170.542969 193.53125 C 179.023438 193.53125 182.273438 193.21875 182.554688 192.375 C 182.957031 191.152344 183.871094 184.648438 183.929688 182.578125 C 183.984375 180.820312 189.929688 181.539062 190.160156 183.332031 C 190.261719 184.097656 190.601562 186.707031 190.921875 189.128906 L 191.5 193.53125 L 203.613281 193.53125 C 215.714844 193.53125 215.722656 193.53125 215.167969 191.445312 C 214.863281 190.296875 213.523438 183.9375 212.191406 177.308594 C 210.859375 170.675781 208.953125 161.289062 207.953125 156.445312 C 206.398438 148.925781 203.792969 135.164062 203.03125 130.484375 C 202.84375 129.320312 200.105469 129.054688 186.164062 128.84375 L 169.519531 128.589844 Z M 231.277344 161.082031 L 231.277344 193.53125 L 248.28125 193.53125 C 257.636719 193.53125 265.460938 193.359375 265.675781 193.148438 C 265.886719 192.941406 265.921875 189.8125 265.753906 186.195312 L 265.445312 179.625 L 253.539062 179.625 L 253.539062 128.628906 L 231.277344 128.628906 Z M 290.644531 128.980469 C 290.644531 129.398438 288.242188 143.382812 285.054688 161.546875 C 280.277344 188.742188 279.738281 192.179688 280.132812 192.835938 C 280.359375 193.21875 285.707031 193.53125 292.007812 193.53125 L 303.46875 193.53125 L 304.246094 187.738281 C 305.003906 182.085938 305.097656 181.933594 307.984375 181.65625 C 310.765625 181.386719 310.980469 181.585938 311.527344 184.902344 C 311.84375 186.84375 312.316406 189.582031 312.578125 190.984375 L 313.054688 193.53125 L 324.574219 193.53125 C 330.914062 193.53125 336.097656 193.167969 336.097656 192.71875 C 336.097656 192.269531 335.5 189.039062 334.765625 185.535156 C 334.035156 182.027344 332.289062 173.113281 330.886719 165.71875 C 329.480469 158.324219 327.257812 147.058594 325.945312 140.683594 L 323.554688 129.09375 L 307.097656 128.839844 C 298.050781 128.703125 290.644531 128.765625 290.644531 128.980469 Z M 67.554688 163.167969 L 68.203125 169.425781 L 65.789062 169.425781 C 62.960938 169.425781 62.960938 169.433594 64.488281 157.898438 C 65.507812 150.179688 65.652344 149.796875 66.25 153.199219 C 66.613281 155.242188 67.199219 159.726562 67.554688 163.167969 Z M 310.054688 166.875 C 310.117188 169.125 309.785156 169.425781 307.242188 169.425781 C 304.722656 169.425781 304.417969 169.160156 304.847656 167.339844 C 305.117188 166.191406 305.871094 161.914062 306.523438 157.835938 L 307.707031 150.417969 L 308.84375 157.371094 C 309.472656 161.199219 310.015625 165.472656 310.054688 166.875 Z M 188.125 158.929688 C 188.488281 162.335938 188.964844 166.09375 189.179688 167.273438 C 189.515625 169.136719 189.191406 169.425781 186.769531 169.425781 C 184.351562 169.425781 183.964844 169.085938 183.964844 166.953125 C 183.964844 162.925781 185.953125 152.738281 186.738281 152.738281 C 187.136719 152.738281 187.757812 155.523438 188.125 158.929688 Z M 95.972656 201.472656 C 90.425781 203.109375 88.671875 205.011719 87.964844 210.160156 C 87.085938 216.5625 89 220.4375 95.054688 224.511719 C 97.769531 226.34375 100.453125 227.835938 101.019531 227.835938 C 103.015625 227.835938 105.261719 231.359375 104.957031 234.015625 C 104.460938 238.335938 101.921875 237.351562 101.585938 232.703125 L 101.300781 228.765625 L 88.191406 228.765625 L 88.613281 233.871094 C 88.910156 237.445312 89.652344 239.628906 91.082031 241.152344 C 96.746094 247.179688 113.4375 246.734375 117.269531 240.453125 C 120.375 235.359375 119.085938 225.949219 114.753906 222.113281 C 113.792969 221.261719 110.5 219.15625 107.4375 217.4375 C 103.074219 214.988281 101.871094 213.839844 101.871094 212.113281 C 101.871094 208.628906 104.023438 208.75 104.359375 212.25 L 104.65625 215.320312 L 117.578125 215.320312 L 117.300781 210.683594 C 117.148438 208.136719 116.378906 205.335938 115.597656 204.460938 C 112.65625 201.1875 102.289062 199.609375 95.972656 201.472656 Z M 183.503906 200.941406 C 173.042969 203.578125 171.914062 205.726562 171.910156 223.09375 C 171.90625 238.148438 172.941406 241.316406 178.640625 243.722656 C 183.003906 245.5625 194.832031 245.328125 198.5625 243.324219 C 203.644531 240.59375 204.375 237.964844 204.375 222.390625 C 204.375 208.890625 204.308594 208.433594 202.023438 205.71875 C 198.679688 201.742188 189.609375 199.402344 183.503906 200.941406 Z M 263.277344 201.003906 C 255.019531 202.898438 253.539062 204.683594 253.539062 212.734375 C 253.539062 219.160156 254.796875 221.304688 260.539062 224.667969 C 262.8125 225.996094 264.417969 227.5 264.105469 228 C 263.792969 228.503906 261.394531 228.777344 258.769531 228.609375 L 254.003906 228.300781 L 254.027344 233.636719 C 254.046875 238.070312 254.4375 239.359375 256.371094 241.289062 C 259.746094 244.664062 267.730469 246.167969 274.609375 244.726562 C 281.875 243.203125 283.515625 241.332031 283.921875 234.117188 C 284.363281 226.296875 282.511719 222.921875 275.800781 219.308594 C 267.457031 214.816406 266.527344 214.039062 266.527344 211.589844 C 266.527344 209.246094 269.207031 208.191406 269.414062 210.453125 C 269.472656 211.089844 269.617188 212.027344 269.738281 212.539062 C 269.855469 213.050781 270.015625 213.988281 270.09375 214.625 C 270.191406 215.429688 272.226562 215.785156 276.730469 215.785156 L 283.222656 215.785156 L 283.222656 213.117188 C 283.222656 207.011719 282.148438 204.621094 278.578125 202.800781 C 274.761719 200.851562 267.597656 200.011719 263.277344 201.003906 Z M 136.425781 201.691406 L 131.09375 201.96875 L 131.09375 244.527344 L 145.007812 244.527344 L 145.007812 235.640625 C 145.007812 228.945312 145.292969 226.851562 146.164062 227.140625 C 146.953125 227.402344 147.410156 230.246094 147.59375 236.023438 L 147.859375 244.527344 L 161.703125 244.527344 L 161.703125 223.269531 C 161.703125 199.199219 162.484375 201.195312 153.28125 201.726562 L 147.863281 202.039062 L 147.59375 208.917969 C 147.238281 218.074219 145.546875 218.246094 145.199219 209.160156 C 144.894531 201.101562 145.058594 201.242188 136.425781 201.691406 Z M 214.566406 201.722656 C 214.0625 201.894531 213.652344 204.082031 213.652344 206.589844 L 213.652344 211.148438 L 222 211.148438 L 222 244.527344 L 236.796875 244.527344 L 237.304688 211.613281 L 241.710938 211.328125 L 246.117188 211.046875 L 246.117188 201.964844 L 230.800781 201.6875 C 222.375 201.535156 215.070312 201.550781 214.566406 201.722656 Z M 189.53125 223.277344 C 189.53125 234.054688 189.265625 237.175781 188.371094 236.878906 C 187.53125 236.597656 187.144531 232.761719 186.957031 222.894531 C 186.734375 211.203125 186.898438 209.292969 188.117188 209.292969 C 189.324219 209.292969 189.53125 211.355469 189.53125 223.277344 Z M 40.128906 217.851562 C 39.5 220.730469 39.808594 225.285156 40.679688 226.007812 C 41.386719 226.597656 48.589844 226.855469 59.785156 226.699219 L 77.753906 226.445312 L 77.753906 218.101562 L 58.96875 217.851562 C 48.636719 217.710938 40.160156 217.710938 40.128906 217.851562 Z M 294.535156 222.042969 L 294.816406 226.445312 L 313.769531 226.699219 C 334.652344 226.976562 334.203125 227.097656 334.226562 221.117188 L 334.242188 217.636719 L 294.253906 217.636719 Z M 270.050781 233.816406 C 269.875 235.589844 269.253906 236.644531 268.378906 236.644531 C 267.371094 236.644531 266.910156 235.386719 266.699219 232.046875 L 266.40625 227.445312 L 268.367188 229.214844 C 269.71875 230.4375 270.238281 231.867188 270.050781 233.816406 Z M 270.050781 233.816406 " fill-opacity="1" fill-rule="evenodd"/><path fill="#ffffff" d="M 47.261719 137.671875 C 46.375 142.644531 44.839844 151.089844 43.847656 156.445312 C 40.710938 173.386719 37.742188 192.636719 38.199219 193.09375 C 38.441406 193.335938 43.589844 193.53125 49.636719 193.53125 C 62.0625 193.53125 62.101562 193.507812 62.589844 185.1875 C 62.8125 181.4375 62.859375 181.394531 66.109375 181.664062 C 69.242188 181.929688 69.417969 182.128906 69.652344 185.652344 C 70.210938 194.03125 69.398438 193.53125 82.410156 193.53125 C 95.402344 193.53125 95.09375 193.742188 93.097656 186.222656 C 92.609375 184.378906 90.90625 175.984375 89.320312 167.570312 C 87.730469 159.15625 85.84375 149.5625 85.132812 146.246094 C 84.417969 142.933594 83.351562 137.613281 82.761719 134.425781 L 81.6875 128.628906 L 48.875 128.628906 Z M 105.117188 129.914062 C 105.117188 130.625 107.898438 139.488281 111.296875 149.617188 L 117.476562 168.035156 L 117.78125 180.089844 C 117.945312 186.71875 118.089844 192.453125 118.09375 192.835938 C 118.101562 193.21875 122.238281 193.53125 127.292969 193.53125 L 136.480469 193.53125 L 136.871094 180.785156 L 137.257812 168.035156 L 143.917969 148.644531 C 147.578125 137.980469 150.570312 129.101562 150.570312 128.910156 C 150.570312 128.722656 146.320312 128.683594 141.121094 128.832031 L 131.667969 129.09375 L 130.011719 135.585938 C 129.097656 139.152344 128.339844 143.039062 128.332031 144.214844 C 128.289062 148.382812 126.75 145.3125 125.535156 138.640625 C 123.644531 128.261719 124.074219 128.628906 113.898438 128.628906 C 107.03125 128.628906 105.117188 128.910156 105.117188 129.914062 Z M 167.960938 138.113281 C 167.101562 143.351562 165.539062 152.4375 164.484375 158.300781 C 163.429688 164.164062 162.339844 170.421875 162.058594 172.207031 C 161.777344 173.992188 160.957031 178.582031 160.234375 182.40625 C 157.957031 194.46875 157.085938 193.53125 170.542969 193.53125 C 179.023438 193.53125 182.273438 193.21875 182.554688 192.375 C 182.957031 191.152344 183.871094 184.648438 183.929688 182.578125 C 183.984375 180.820312 189.929688 181.539062 190.160156 183.332031 C 190.261719 184.097656 190.601562 186.707031 190.921875 189.128906 L 191.5 193.53125 L 203.613281 193.53125 C 215.714844 193.53125 215.722656 193.53125 215.167969 191.445312 C 214.863281 190.296875 213.523438 183.9375 212.191406 177.308594 C 210.859375 170.675781 208.953125 161.289062 207.953125 156.445312 C 206.398438 148.925781 203.792969 135.164062 203.03125 130.484375 C 202.84375 129.320312 200.105469 129.054688 186.164062 128.84375 L 169.519531 128.589844 Z M 231.277344 161.082031 L 231.277344 193.53125 L 248.28125 193.53125 C 257.636719 193.53125 265.460938 193.359375 265.675781 193.148438 C 265.886719 192.941406 265.921875 189.8125 265.753906 186.195312 L 265.445312 179.625 L 253.539062 179.625 L 253.539062 128.628906 L 231.277344 128.628906 Z M 290.644531 128.980469 C 290.644531 129.398438 288.242188 143.382812 285.054688 161.546875 C 280.277344 188.742188 279.738281 192.179688 280.132812 192.835938 C 280.359375 193.21875 285.707031 193.53125 292.007812 193.53125 L 303.46875 193.53125 L 304.246094 187.738281 C 305.003906 182.085938 305.097656 181.933594 307.984375 181.65625 C 310.765625 181.386719 310.980469 181.585938 311.527344 184.902344 C 311.84375 186.84375 312.316406 189.582031 312.578125 190.984375 L 313.054688 193.53125 L 324.574219 193.53125 C 330.914062 193.53125 336.097656 193.167969 336.097656 192.71875 C 336.097656 192.269531 335.5 189.039062 334.765625 185.535156 C 334.035156 182.027344 332.289062 173.113281 330.886719 165.71875 C 329.480469 158.324219 327.257812 147.058594 325.945312 140.683594 L 323.554688 129.09375 L 307.097656 128.839844 C 298.050781 128.703125 290.644531 128.765625 290.644531 128.980469 Z M 67.554688 163.167969 L 68.203125 169.425781 L 65.789062 169.425781 C 62.960938 169.425781 62.960938 169.433594 64.488281 157.898438 C 65.507812 150.179688 65.652344 149.796875 66.25 153.199219 C 66.613281 155.242188 67.199219 159.726562 67.554688 163.167969 Z M 310.054688 166.875 C 310.117188 169.125 309.785156 169.425781 307.242188 169.425781 C 304.722656 169.425781 304.417969 169.160156 304.847656 167.339844 C 305.117188 166.191406 305.871094 161.914062 306.523438 157.835938 L 307.707031 150.417969 L 308.84375 157.371094 C 309.472656 161.199219 310.015625 165.472656 310.054688 166.875 Z M 188.125 158.929688 C 188.488281 162.335938 188.964844 166.09375 189.179688 167.273438 C 189.515625 169.136719 189.191406 169.425781 186.769531 169.425781 C 184.351562 169.425781 183.964844 169.085938 183.964844 166.953125 C 183.964844 162.925781 185.953125 152.738281 186.738281 152.738281 C 187.136719 152.738281 187.757812 155.523438 188.125 158.929688 Z M 95.972656 201.472656 C 90.425781 203.109375 88.671875 205.011719 87.964844 210.160156 C 87.085938 216.5625 89 220.4375 95.054688 224.511719 C 97.769531 226.34375 100.453125 227.835938 101.019531 227.835938 C 103.015625 227.835938 105.261719 231.359375 104.957031 234.015625 C 104.460938 238.335938 101.921875 237.351562 101.585938 232.703125 L 101.300781 228.765625 L 88.191406 228.765625 L 88.613281 233.871094 C 88.910156 237.445312 89.652344 239.628906 91.082031 241.152344 C 96.746094 247.179688 113.4375 246.734375 117.269531 240.453125 C 120.375 235.359375 119.085938 225.949219 114.753906 222.113281 C 113.792969 221.261719 110.5 219.15625 107.4375 217.4375 C 103.074219 214.988281 101.871094 213.839844 101.871094 212.113281 C 101.871094 208.628906 104.023438 208.75 104.359375 212.25 L 104.65625 215.320312 L 117.578125 215.320312 L 117.300781 210.683594 C 117.148438 208.136719 116.378906 205.335938 115.597656 204.460938 C 112.65625 201.1875 102.289062 199.609375 95.972656 201.472656 Z M 183.503906 200.941406 C 173.042969 203.578125 171.914062 205.726562 171.910156 223.09375 C 171.90625 238.148438 172.941406 241.316406 178.640625 243.722656 C 183.003906 245.5625 194.832031 245.328125 198.5625 243.324219 C 203.644531 240.59375 204.375 237.964844 204.375 222.390625 C 204.375 208.890625 204.308594 208.433594 202.023438 205.71875 C 198.679688 201.742188 189.609375 199.402344 183.503906 200.941406 Z M 263.277344 201.003906 C 255.019531 202.898438 253.539062 204.683594 253.539062 212.734375 C 253.539062 219.160156 254.796875 221.304688 260.539062 224.667969 C 262.8125 225.996094 264.417969 227.5 264.105469 228 C 263.792969 228.503906 261.394531 228.777344 258.769531 228.609375 L 254.003906 228.300781 L 254.027344 233.636719 C 254.046875 238.070312 254.4375 239.359375 256.371094 241.289062 C 259.746094 244.664062 267.730469 246.167969 274.609375 244.726562 C 281.875 243.203125 283.515625 241.332031 283.921875 234.117188 C 284.363281 226.296875 282.511719 222.921875 275.800781 219.308594 C 267.457031 214.816406 266.527344 214.039062 266.527344 211.589844 C 266.527344 209.246094 269.207031 208.191406 269.414062 210.453125 C 269.472656 211.089844 269.617188 212.027344 269.738281 212.539062 C 269.855469 213.050781 270.015625 213.988281 270.09375 214.625 C 270.191406 215.429688 272.226562 215.785156 276.730469 215.785156 L 283.222656 215.785156 L 283.222656 213.117188 C 283.222656 207.011719 282.148438 204.621094 278.578125 202.800781 C 274.761719 200.851562 267.597656 200.011719 263.277344 201.003906 Z M 136.425781 201.691406 L 131.09375 201.96875 L 131.09375 244.527344 L 145.007812 244.527344 L 145.007812 235.640625 C 145.007812 228.945312 145.292969 226.851562 146.164062 227.140625 C 146.953125 227.402344 147.410156 230.246094 147.59375 236.023438 L 147.859375 244.527344 L 161.703125 244.527344 L 161.703125 223.269531 C 161.703125 199.199219 162.484375 201.195312 153.28125 201.726562 L 147.863281 202.039062 L 147.59375 208.917969 C 147.238281 218.074219 145.546875 218.246094 145.199219 209.160156 C 144.894531 201.101562 145.058594 201.242188 136.425781 201.691406 Z M 214.566406 201.722656 C 214.0625 201.894531 213.652344 204.082031 213.652344 206.589844 L 213.652344 211.148438 L 222 211.148438 L 222 244.527344 L 236.796875 244.527344 L 237.304688 211.613281 L 241.710938 211.328125 L 246.117188 211.046875 L 246.117188 201.964844 L 230.800781 201.6875 C 222.375 201.535156 215.070312 201.550781 214.566406 201.722656 Z M 189.53125 223.277344 C 189.53125 234.054688 189.265625 237.175781 188.371094 236.878906 C 187.53125 236.597656 187.144531 232.761719 186.957031 222.894531 C 186.734375 211.203125 186.898438 209.292969 188.117188 209.292969 C 189.324219 209.292969 189.53125 211.355469 189.53125 223.277344 Z M 40.128906 217.851562 C 39.5 220.730469 39.808594 225.285156 40.679688 226.007812 C 41.386719 226.597656 48.589844 226.855469 59.785156 226.699219 L 77.753906 226.445312 L 77.753906 218.101562 L 58.96875 217.851562 C 48.636719 217.710938 40.160156 217.710938 40.128906 217.851562 Z M 294.535156 222.042969 L 294.816406 226.445312 L 313.769531 226.699219 C 334.652344 226.976562 334.203125 227.097656 334.226562 221.117188 L 334.242188 217.636719 L 294.253906 217.636719 Z M 270.050781 233.816406 C 269.875 235.589844 269.253906 236.644531 268.378906 236.644531 C 267.371094 236.644531 266.910156 235.386719 266.699219 232.046875 L 266.40625 227.445312 L 268.367188 229.214844 C 269.71875 230.4375 270.238281 231.867188 270.050781 233.816406 Z M 270.050781 233.816406 " fill-opacity="1" fill-rule="evenodd"/><path fill="#ffffff" d="M 47.261719 137.671875 C 46.375 142.644531 44.839844 151.089844 43.847656 156.445312 C 40.710938 173.386719 37.742188 192.636719 38.199219 193.09375 C 38.441406 193.335938 43.589844 193.53125 49.636719 193.53125 C 62.0625 193.53125 62.101562 193.507812 62.589844 185.1875 C 62.8125 181.4375 62.859375 181.394531 66.109375 181.664062 C 69.242188 181.929688 69.417969 182.128906 69.652344 185.652344 C 70.210938 194.03125 69.398438 193.53125 82.410156 193.53125 C 95.402344 193.53125 95.09375 193.742188 93.097656 186.222656 C 92.609375 184.378906 90.90625 175.984375 89.320312 167.570312 C 87.730469 159.15625 85.84375 149.5625 85.132812 146.246094 C 84.417969 142.933594 83.351562 137.613281 82.761719 134.425781 L 81.6875 128.628906 L 48.875 128.628906 Z M 105.117188 129.914062 C 105.117188 130.625 107.898438 139.488281 111.296875 149.617188 L 117.476562 168.035156 L 117.78125 180.089844 C 117.945312 186.71875 118.089844 192.453125 118.09375 192.835938 C 118.101562 193.21875 122.238281 193.53125 127.292969 193.53125 L 136.480469 193.53125 L 136.871094 180.785156 L 137.257812 168.035156 L 143.917969 148.644531 C 147.578125 137.980469 150.570312 129.101562 150.570312 128.910156 C 150.570312 128.722656 146.320312 128.683594 141.121094 128.832031 L 131.667969 129.09375 L 130.011719 135.585938 C 129.097656 139.152344 128.339844 143.039062 128.332031 144.214844 C 128.289062 148.382812 126.75 145.3125 125.535156 138.640625 C 123.644531 128.261719 124.074219 128.628906 113.898438 128.628906 C 107.03125 128.628906 105.117188 128.910156 105.117188 129.914062 Z M 167.960938 138.113281 C 167.101562 143.351562 165.539062 152.4375 164.484375 158.300781 C 163.429688 164.164062 162.339844 170.421875 162.058594 172.207031 C 161.777344 173.992188 160.957031 178.582031 160.234375 182.40625 C 157.957031 194.46875 157.085938 193.53125 170.542969 193.53125 C 179.023438 193.53125 182.273438 193.21875 182.554688 192.375 C 182.957031 191.152344 183.871094 184.648438 183.929688 182.578125 C 183.984375 180.820312 189.929688 181.539062 190.160156 183.332031 C 190.261719 184.097656 190.601562 186.707031 190.921875 189.128906 L 191.5 193.53125 L 203.613281 193.53125 C 215.714844 193.53125 215.722656 193.53125 215.167969 191.445312 C 214.863281 190.296875 213.523438 183.9375 212.191406 177.308594 C 210.859375 170.675781 208.953125 161.289062 207.953125 156.445312 C 206.398438 148.925781 203.792969 135.164062 203.03125 130.484375 C 202.84375 129.320312 200.105469 129.054688 186.164062 128.84375 L 169.519531 128.589844 Z M 231.277344 161.082031 L 231.277344 193.53125 L 248.28125 193.53125 C 257.636719 193.53125 265.460938 193.359375 265.675781 193.148438 C 265.886719 192.941406 265.921875 189.8125 265.753906 186.195312 L 265.445312 179.625 L 253.539062 179.625 L 253.539062 128.628906 L 231.277344 128.628906 Z M 290.644531 128.980469 C 290.644531 129.398438 288.242188 143.382812 285.054688 161.546875 C 280.277344 188.742188 279.738281 192.179688 280.132812 192.835938 C 280.359375 193.21875 285.707031 193.53125 292.007812 193.53125 L 303.46875 193.53125 L 304.246094 187.738281 C 305.003906 182.085938 305.097656 181.933594 307.984375 181.65625 C 310.765625 181.386719 310.980469 181.585938 311.527344 184.902344 C 311.84375 186.84375 312.316406 189.582031 312.578125 190.984375 L 313.054688 193.53125 L 324.574219 193.53125 C 330.914062 193.53125 336.097656 193.167969 336.097656 192.71875 C 336.097656 192.269531 335.5 189.039062 334.765625 185.535156 C 334.035156 182.027344 332.289062 173.113281 330.886719 165.71875 C 329.480469 158.324219 327.257812 147.058594 325.945312 140.683594 L 323.554688 129.09375 L 307.097656 128.839844 C 298.050781 128.703125 290.644531 128.765625 290.644531 128.980469 Z M 67.554688 163.167969 L 68.203125 169.425781 L 65.789062 169.425781 C 62.960938 169.425781 62.960938 169.433594 64.488281 157.898438 C 65.507812 150.179688 65.652344 149.796875 66.25 153.199219 C 66.613281 155.242188 67.199219 159.726562 67.554688 163.167969 Z M 310.054688 166.875 C 310.117188 169.125 309.785156 169.425781 307.242188 169.425781 C 304.722656 169.425781 304.417969 169.160156 304.847656 167.339844 C 305.117188 166.191406 305.871094 161.914062 306.523438 157.835938 L 307.707031 150.417969 L 308.84375 157.371094 C 309.472656 161.199219 310.015625 165.472656 310.054688 166.875 Z M 188.125 158.929688 C 188.488281 162.335938 188.964844 166.09375 189.179688 167.273438 C 189.515625 169.136719 189.191406 169.425781 186.769531 169.425781 C 184.351562 169.425781 183.964844 169.085938 183.964844 166.953125 C 183.964844 162.925781 185.953125 152.738281 186.738281 152.738281 C 187.136719 152.738281 187.757812 155.523438 188.125 158.929688 Z M 95.972656 201.472656 C 90.425781 203.109375 88.671875 205.011719 87.964844 210.160156 C 87.085938 216.5625 89 220.4375 95.054688 224.511719 C 97.769531 226.34375 100.453125 227.835938 101.019531 227.835938 C 103.015625 227.835938 105.261719 231.359375 104.957031 234.015625 C 104.460938 238.335938 101.921875 237.351562 101.585938 232.703125 L 101.300781 228.765625 L 88.191406 228.765625 L 88.613281 233.871094 C 88.910156 237.445312 89.652344 239.628906 91.082031 241.152344 C 96.746094 247.179688 113.4375 246.734375 117.269531 240.453125 C 120.375 235.359375 119.085938 225.949219 114.753906 222.113281 C 113.792969 221.261719 110.5 219.15625 107.4375 217.4375 C 103.074219 214.988281 101.871094 213.839844 101.871094 212.113281 C 101.871094 208.628906 104.023438 208.75 104.359375 212.25 L 104.65625 215.320312 L 117.578125 215.320312 L 117.300781 210.683594 C 117.148438 208.136719 116.378906 205.335938 115.597656 204.460938 C 112.65625 201.1875 102.289062 199.609375 95.972656 201.472656 Z M 183.503906 200.941406 C 173.042969 203.578125 171.914062 205.726562 171.910156 223.09375 C 171.90625 238.148438 172.941406 241.316406 178.640625 243.722656 C 183.003906 245.5625 194.832031 245.328125 198.5625 243.324219 C 203.644531 240.59375 204.375 237.964844 204.375 222.390625 C 204.375 208.890625 204.308594 208.433594 202.023438 205.71875 C 198.679688 201.742188 189.609375 199.402344 183.503906 200.941406 Z M 263.277344 201.003906 C 255.019531 202.898438 253.539062 204.683594 253.539062 212.734375 C 253.539062 219.160156 254.796875 221.304688 260.539062 224.667969 C 262.8125 225.996094 264.417969 227.5 264.105469 228 C 263.792969 228.503906 261.394531 228.777344 258.769531 228.609375 L 254.003906 228.300781 L 254.027344 233.636719 C 254.046875 238.070312 254.4375 239.359375 256.371094 241.289062 C 259.746094 244.664062 267.730469 246.167969 274.609375 244.726562 C 281.875 243.203125 283.515625 241.332031 283.921875 234.117188 C 284.363281 226.296875 282.511719 222.921875 275.800781 219.308594 C 267.457031 214.816406 266.527344 214.039062 266.527344 211.589844 C 266.527344 209.246094 269.207031 208.191406 269.414062 210.453125 C 269.472656 211.089844 269.617188 212.027344 269.738281 212.539062 C 269.855469 213.050781 270.015625 213.988281 270.09375 214.625 C 270.191406 215.429688 272.226562 215.785156 276.730469 215.785156 L 283.222656 215.785156 L 283.222656 213.117188 C 283.222656 207.011719 282.148438 204.621094 278.578125 202.800781 C 274.761719 200.851562 267.597656 200.011719 263.277344 201.003906 Z M 136.425781 201.691406 L 131.09375 201.96875 L 131.09375 244.527344 L 145.007812 244.527344 L 145.007812 235.640625 C 145.007812 228.945312 145.292969 226.851562 146.164062 227.140625 C 146.953125 227.402344 147.410156 230.246094 147.59375 236.023438 L 147.859375 244.527344 L 161.703125 244.527344 L 161.703125 223.269531 C 161.703125 199.199219 162.484375 201.195312 153.28125 201.726562 L 147.863281 202.039062 L 147.59375 208.917969 C 147.238281 218.074219 145.546875 218.246094 145.199219 209.160156 C 144.894531 201.101562 145.058594 201.242188 136.425781 201.691406 Z M 214.566406 201.722656 C 214.0625 201.894531 213.652344 204.082031 213.652344 206.589844 L 213.652344 211.148438 L 222 211.148438 L 222 244.527344 L 236.796875 244.527344 L 237.304688 211.613281 L 241.710938 211.328125 L 246.117188 211.046875 L 246.117188 201.964844 L 230.800781 201.6875 C 222.375 201.535156 215.070312 201.550781 214.566406 201.722656 Z M 189.53125 223.277344 C 189.53125 234.054688 189.265625 237.175781 188.371094 236.878906 C 187.53125 236.597656 187.144531 232.761719 186.957031 222.894531 C 186.734375 211.203125 186.898438 209.292969 188.117188 209.292969 C 189.324219 209.292969 189.53125 211.355469 189.53125 223.277344 Z M 40.128906 217.851562 C 39.5 220.730469 39.808594 225.285156 40.679688 226.007812 C 41.386719 226.597656 48.589844 226.855469 59.785156 226.699219 L 77.753906 226.445312 L 77.753906 218.101562 L 58.96875 217.851562 C 48.636719 217.710938 40.160156 217.710938 40.128906 217.851562 Z M 294.535156 222.042969 L 294.816406 226.445312 L 313.769531 226.699219 C 334.652344 226.976562 334.203125 227.097656 334.226562 221.117188 L 334.242188 217.636719 L 294.253906 217.636719 Z M 270.050781 233.816406 C 269.875 235.589844 269.253906 236.644531 268.378906 236.644531 C 267.371094 236.644531 266.910156 235.386719 266.699219 232.046875 L 266.40625 227.445312 L 268.367188 229.214844 C 269.71875 230.4375 270.238281 231.867188 270.050781 233.816406 Z M 270.050781 233.816406 " fill-opacity="1" fill-rule="evenodd"/></g></svg>