<svg xmlns="http://www.w3.org/2000/svg" xmlns:xlink="http://www.w3.org/1999/xlink" width="500" zoomAndPan="magnify" viewBox="0 0 375 374.999991" height="500" preserveAspectRatio="xMidYMid meet" version="1.0"><defs><filter x="0%" y="0%" width="100%" height="100%" id="397cf416a3"><feColorMatrix values="0 0 0 0 1 0 0 0 0 1 0 0 0 0 1 0 0 0 1 0" color-interpolation-filters="sRGB"/></filter><g/><mask id="c7cf363728"><g filter="url(#397cf416a3)"><rect x="-37.5" width="450" fill="#000000" y="-37.499999" height="449.999989" fill-opacity="0.18"/></g></mask><clipPath id="31683fc155"><path d="M 83 1.195312 L 146 1.195312 L 146 145.566406 L 83 145.566406 Z M 83 1.195312 " clip-rule="nonzero"/></clipPath><clipPath id="9d42bbe64d"><path d="M 0.820312 21 L 63 21 L 63 126 L 0.820312 126 Z M 0.820312 21 " clip-rule="nonzero"/></clipPath><clipPath id="a210eab5f3"><path d="M 166 21 L 228.179688 21 L 228.179688 126 L 166 126 Z M 166 21 " clip-rule="nonzero"/></clipPath><clipPath id="5ede455726"><rect x="0" width="229" y="0" height="146"/></clipPath></defs><g mask="url(#c7cf363728)"><g transform="matrix(1, 0, 0, 1, 73, 114)"><g clip-path="url(#5ede455726)"><g clip-path="url(#31683fc155)"><path fill="#ffffff" d="M 138.433594 1.71875 C 137.386719 1.398438 136.253906 1.195312 135.164062 1.195312 C 130.726562 1.195312 126.769531 4.0625 125.355469 8.257812 L 84.027344 132.25 C 83.664062 133.300781 83.503906 134.390625 83.503906 135.519531 C 83.503906 141.210938 88.183594 145.851562 93.835938 145.851562 C 98.273438 145.851562 102.230469 142.984375 103.644531 138.789062 L 144.972656 14.796875 C 145.335938 13.75 145.496094 12.617188 145.496094 11.527344 C 145.496094 7.089844 142.632812 3.132812 138.433594 1.71875 " fill-opacity="1" fill-rule="nonzero"/></g><g clip-path="url(#9d42bbe64d)"><path fill="#ffffff" d="M 59.808594 24.886719 C 57.871094 22.949219 55.25 21.859375 52.503906 21.859375 C 49.761719 21.859375 47.136719 22.949219 45.199219 24.886719 L 3.867188 66.21875 C 1.933594 68.15625 0.84375 70.777344 0.84375 73.523438 C 0.84375 76.269531 1.933594 78.890625 3.867188 80.828125 L 45.199219 122.160156 C 47.136719 124.015625 49.71875 125.066406 52.382812 125.066406 C 58.035156 125.066406 62.714844 120.382812 62.714844 114.734375 C 62.714844 112.070312 61.667969 109.484375 59.808594 107.546875 L 25.785156 73.523438 L 59.808594 39.5 C 61.746094 37.5625 62.835938 34.9375 62.835938 32.195312 C 62.835938 29.449219 61.746094 26.824219 59.808594 24.886719 " fill-opacity="1" fill-rule="nonzero"/></g><g clip-path="url(#a210eab5f3)"><path fill="#ffffff" d="M 225.132812 66.21875 L 183.800781 24.886719 C 181.863281 23.03125 179.28125 21.980469 176.617188 21.980469 C 170.964844 21.980469 166.285156 26.664062 166.285156 32.316406 C 166.285156 34.976562 167.332031 37.5625 169.191406 39.5 L 203.214844 73.523438 L 169.191406 107.546875 C 167.171875 109.484375 166.042969 112.191406 166.042969 114.976562 C 166.042969 120.664062 170.683594 125.308594 176.375 125.308594 C 179.160156 125.308594 181.863281 124.175781 183.800781 122.160156 L 225.132812 80.828125 C 227.066406 78.890625 228.15625 76.269531 228.15625 73.523438 C 228.15625 70.777344 227.066406 68.15625 225.132812 66.21875 " fill-opacity="1" fill-rule="nonzero"/></g></g></g></g><g fill="#ffffff" fill-opacity="1"><g transform="translate(65.637819, 191.56548)"><g><path d="M 30.1875 0 L 3 0 L 3 -4.453125 L 11.6875 -7.859375 L 11.6875 -71.65625 L 3 -71.65625 L 3 -77.859375 C 5.6875 -79.160156 8.804688 -79.8125 12.359375 -79.8125 C 15.910156 -79.8125 18.304688 -78.96875 19.546875 -77.28125 C 20.785156 -75.59375 21.40625 -73.023438 21.40625 -69.578125 L 21.40625 -7.859375 L 30.1875 -4.453125 Z M 30.1875 0 "/></g></g></g><g fill="#ffffff" fill-opacity="1"><g transform="translate(98.720276, 191.56548)"><g><path d="M 31.125 1.03125 C 23.332031 1.03125 17.003906 -1.1875 12.140625 -5.625 C 7.285156 -10.070312 4.859375 -16.566406 4.859375 -25.109375 C 4.859375 -33.660156 7.335938 -40.4375 12.296875 -45.4375 C 17.265625 -50.4375 23.054688 -52.9375 29.671875 -52.9375 C 45.390625 -52.9375 53.25 -43.628906 53.25 -25.015625 L 14.890625 -25.015625 L 14.890625 -24.5 C 14.890625 -19.601562 16.613281 -15.46875 20.0625 -12.09375 C 23.507812 -8.71875 28.195312 -7.03125 34.125 -7.03125 C 36.664062 -7.03125 39.070312 -7.320312 41.34375 -7.90625 C 43.625 -8.488281 45.28125 -9.09375 46.3125 -9.71875 L 47.765625 -10.546875 L 50.765625 -5.171875 C 50.554688 -5.035156 50.257812 -4.8125 49.875 -4.5 C 49.5 -4.1875 48.691406 -3.6875 47.453125 -3 C 46.210938 -2.3125 44.867188 -1.691406 43.421875 -1.140625 C 39.765625 0.304688 35.664062 1.03125 31.125 1.03125 Z M 43.625 -31.640625 C 43.28125 -35.910156 41.882812 -39.164062 39.4375 -41.40625 C 36.988281 -43.644531 33.816406 -44.765625 29.921875 -44.765625 C 26.035156 -44.765625 22.816406 -43.675781 20.265625 -41.5 C 17.710938 -39.332031 16.054688 -36.046875 15.296875 -31.640625 Z M 43.625 -31.640625 "/></g></g></g><g fill="#ffffff" fill-opacity="1"><g transform="translate(156.09766, 191.56548)"><g><path d="M 19.328125 -22.640625 C 19.328125 -16.710938 20.222656 -12.679688 22.015625 -10.546875 C 23.804688 -8.410156 26.53125 -7.34375 30.1875 -7.34375 C 33.84375 -7.34375 36.84375 -7.894531 39.1875 -9 L 41.25 -3.828125 C 40.976562 -3.484375 40.582031 -3.035156 40.0625 -2.484375 C 39.539062 -1.929688 38.242188 -1.1875 36.171875 -0.25 C 34.109375 0.675781 31.835938 1.140625 29.359375 1.140625 C 23.085938 1.140625 18.226562 -0.632812 14.78125 -4.1875 C 11.332031 -7.738281 9.609375 -12.925781 9.609375 -19.75 L 9.609375 -43.53125 L 4.140625 -43.53125 L 4.140625 -49.625 L 14.0625 -59.546875 L 19.328125 -59.546875 L 19.328125 -51.703125 L 36.703125 -51.703125 L 36.703125 -43.53125 L 19.328125 -43.53125 Z M 19.328125 -22.640625 "/></g></g></g><g fill="#d9d9d9" fill-opacity="1"><g transform="translate(181.367453, 255.596578)"><g><path d="M 41.15625 0 L 5.265625 0 L 5.265625 -4.546875 L 14.6875 -7.96875 L 14.6875 -65.03125 L 5.265625 -68.4375 L 5.265625 -73 L 35.5625 -73 C 44.800781 -73 51.625 -70.304688 56.03125 -64.921875 C 58.519531 -61.890625 59.765625 -58.171875 59.765625 -53.765625 C 59.765625 -47.285156 57.554688 -42.359375 53.140625 -38.984375 C 61.273438 -36.015625 65.34375 -30.015625 65.34375 -20.984375 C 65.34375 -17.265625 64.582031 -13.988281 63.0625 -11.15625 C 61.550781 -8.332031 59.554688 -6.128906 57.078125 -4.546875 C 52.242188 -1.515625 46.9375 0 41.15625 0 Z M 25.125 -7.75 L 36.296875 -7.75 C 42.628906 -7.75 47.363281 -8.710938 50.5 -10.640625 C 53.632812 -12.578125 55.203125 -15.921875 55.203125 -20.671875 C 55.203125 -25.429688 53.859375 -28.84375 51.171875 -30.90625 C 48.484375 -32.976562 45.039062 -34.015625 40.84375 -34.015625 L 25.125 -34.015625 Z M 25.234375 -40.84375 L 35.25 -40.84375 C 44.832031 -40.84375 49.625 -45.113281 49.625 -53.65625 C 49.625 -58.070312 48.035156 -61.101562 44.859375 -62.75 C 41.691406 -64.40625 36.972656 -65.234375 30.703125 -65.234375 L 25.234375 -65.234375 Z M 25.234375 -40.84375 "/></g></g></g><g fill="#d9d9d9" fill-opacity="1"><g transform="translate(251.97782, 255.596578)"><g><path d="M 31.125 1.03125 C 23.332031 1.03125 17.003906 -1.1875 12.140625 -5.625 C 7.285156 -10.070312 4.859375 -16.566406 4.859375 -25.109375 C 4.859375 -33.660156 7.335938 -40.4375 12.296875 -45.4375 C 17.265625 -50.4375 23.054688 -52.9375 29.671875 -52.9375 C 45.390625 -52.9375 53.25 -43.628906 53.25 -25.015625 L 14.890625 -25.015625 L 14.890625 -24.5 C 14.890625 -19.601562 16.613281 -15.46875 20.0625 -12.09375 C 23.507812 -8.71875 28.195312 -7.03125 34.125 -7.03125 C 36.664062 -7.03125 39.070312 -7.320312 41.34375 -7.90625 C 43.625 -8.488281 45.28125 -9.09375 46.3125 -9.71875 L 47.765625 -10.546875 L 50.765625 -5.171875 C 50.554688 -5.035156 50.257812 -4.8125 49.875 -4.5 C 49.5 -4.1875 48.691406 -3.6875 47.453125 -3 C 46.210938 -2.3125 44.867188 -1.691406 43.421875 -1.140625 C 39.765625 0.304688 35.664062 1.03125 31.125 1.03125 Z M 43.625 -31.640625 C 43.28125 -35.910156 41.882812 -39.164062 39.4375 -41.40625 C 36.988281 -43.644531 33.816406 -44.765625 29.921875 -44.765625 C 26.035156 -44.765625 22.816406 -43.675781 20.265625 -41.5 C 17.710938 -39.332031 16.054688 -36.046875 15.296875 -31.640625 Z M 43.625 -31.640625 "/></g></g></g><path stroke-linecap="butt" transform="matrix(1.130891, 0.115594, -0.115594, 1.130891, 174.309324, 181.435301)" fill="none" stroke-linejoin="miter" d="M -0.00138997 3.000276 L 13.09648 2.998224 " stroke="#ffffff" stroke-width="6" stroke-opacity="1" stroke-miterlimit="4"/></svg>