<svg xmlns="http://www.w3.org/2000/svg" xmlns:xlink="http://www.w3.org/1999/xlink" width="500" zoomAndPan="magnify" viewBox="0 0 375 374.999991" height="500" preserveAspectRatio="xMidYMid meet" version="1.0"><defs><clipPath id="1171de63c9"><path d="M 117.613281 93.75 L 257.113281 93.75 L 257.113281 281 L 117.613281 281 Z M 117.613281 93.75 " clip-rule="nonzero"/></clipPath></defs><g clip-path="url(#1171de63c9)"><path fill="#ffffff" d="M 217.871094 94.128906 C 217.796875 94.3125 217.628906 94.378906 217.386719 94.316406 C 216.320312 94.035156 212.382812 94.984375 206.226562 97 C 205.050781 97.386719 204.28125 97.746094 203.757812 98.160156 C 203.488281 98.371094 202.773438 98.746094 202.171875 98.992188 C 201.160156 99.40625 200.125 100.144531 200.121094 100.457031 C 200.117188 100.53125 199.894531 100.8125 199.625 101.078125 C 199.328125 101.375 199.132812 101.761719 199.128906 102.066406 C 199.128906 102.34375 198.96875 102.773438 198.773438 103.019531 C 198.582031 103.269531 198.421875 103.554688 198.421875 103.652344 C 198.417969 103.753906 198.265625 104.117188 198.082031 104.464844 C 197.898438 104.808594 197.402344 106.101562 196.980469 107.339844 C 196.558594 108.574219 195.847656 110.355469 195.402344 111.296875 C 193.867188 114.535156 193.351562 115.714844 192.222656 118.582031 C 191.234375 121.09375 190.589844 122.820312 189.035156 127.128906 C 188.835938 127.675781 187.59375 131.359375 186.269531 135.316406 C 184.945312 139.273438 183.8125 142.632812 183.757812 142.78125 C 183.699219 142.929688 183.507812 142.363281 183.328125 141.523438 C 183.152344 140.679688 182.6875 139.019531 182.296875 137.835938 C 181.910156 136.648438 181.453125 135.191406 181.285156 134.597656 C 181.117188 134.003906 180.871094 133.234375 180.742188 132.886719 C 180.609375 132.539062 180.257812 131.488281 179.960938 130.546875 C 178.316406 125.371094 177.914062 124.128906 177.773438 123.800781 C 177.542969 123.265625 177.046875 121.75 176.804688 120.832031 C 176.6875 120.386719 176.492188 119.847656 176.371094 119.632812 C 176.25 119.417969 176.125 119.074219 176.09375 118.871094 C 176.0625 118.667969 175.984375 118.445312 175.914062 118.378906 C 175.847656 118.308594 175.789062 118.074219 175.789062 117.855469 C 175.789062 117.636719 175.671875 117.179688 175.53125 116.835938 C 175.269531 116.214844 174.699219 113.992188 173.640625 109.507812 C 172.996094 106.773438 172.859375 106.4375 172.394531 106.4375 C 171.875 106.4375 171.601562 106.910156 171.714844 107.609375 C 171.808594 108.1875 171.78125 108.238281 171.371094 108.238281 C 170.960938 108.238281 170.933594 108.1875 171.039062 107.628906 C 171.105469 107.269531 171.074219 106.972656 170.964844 106.902344 C 170.625 106.691406 169.445312 106.664062 168.25 106.835938 C 167.605469 106.929688 166.796875 107.039062 166.453125 107.085938 C 166.105469 107.132812 165.703125 107.207031 165.550781 107.253906 C 165.402344 107.296875 164.878906 107.375 164.386719 107.425781 C 163.894531 107.476562 163.289062 107.558594 163.039062 107.609375 C 162.792969 107.65625 161.410156 107.777344 159.964844 107.875 C 158.519531 107.972656 157.140625 108.125 156.898438 108.21875 C 156.414062 108.402344 155.933594 109.039062 155.761719 109.726562 C 155.660156 110.132812 155.546875 110.179688 154.441406 110.257812 C 152.515625 110.394531 151.75 111.140625 151.375 113.242188 C 151.226562 114.054688 150.992188 114.609375 150.550781 115.191406 C 150.210938 115.636719 149.929688 116.179688 149.929688 116.394531 C 149.929688 116.609375 149.804688 117.191406 149.65625 117.683594 C 149.503906 118.179688 149.390625 118.605469 149.398438 118.632812 C 149.4375 118.734375 148.988281 120.792969 148.730469 121.703125 C 148.582031 122.234375 148.433594 122.839844 148.40625 123.054688 C 148.375 123.265625 148.214844 124.089844 148.046875 124.882812 C 147.875 125.671875 147.722656 126.480469 147.699219 126.679688 C 147.675781 126.878906 147.609375 127.160156 147.550781 127.308594 C 147.492188 127.457031 147.382812 128.066406 147.308594 128.660156 C 147.234375 129.253906 147.160156 129.777344 147.148438 129.828125 C 146.933594 130.519531 146.675781 131.855469 146.609375 132.617188 C 146.582031 132.914062 146.519531 133.277344 146.46875 133.425781 C 146.199219 134.203125 145.84375 136.023438 145.917969 136.222656 C 145.96875 136.351562 145.929688 136.605469 145.835938 136.785156 C 145.738281 136.96875 145.605469 137.519531 145.542969 138.015625 C 145.398438 139.085938 145.175781 140.054688 144.738281 141.503906 C 144.636719 141.839844 144.601562 142.1875 144.65625 142.277344 C 144.710938 142.367188 144.679688 142.535156 144.585938 142.65625 C 144.492188 142.773438 144.410156 142.996094 144.402344 143.144531 C 144.394531 143.292969 144.265625 143.921875 144.109375 144.539062 C 143.957031 145.160156 143.839844 145.726562 143.855469 145.800781 C 143.871094 145.871094 143.789062 146.160156 143.675781 146.4375 C 143.5625 146.714844 143.46875 147.175781 143.46875 147.460938 C 143.46875 147.746094 143.382812 148.03125 143.28125 148.09375 C 143.175781 148.160156 143.140625 148.359375 143.199219 148.539062 C 143.253906 148.722656 143.222656 148.917969 143.128906 148.976562 C 143.03125 149.039062 142.898438 149.550781 142.828125 150.117188 C 142.757812 150.683594 142.539062 151.554688 142.34375 152.046875 C 141.742188 153.5625 141.0625 156.339844 140.214844 160.773438 C 140.015625 161.8125 139.820312 162.824219 139.78125 163.023438 C 139.503906 164.386719 139.105469 166.238281 138.640625 168.328125 C 138.347656 169.660156 138.171875 170.796875 138.257812 170.847656 C 138.34375 170.902344 138.292969 171.429688 138.148438 172.023438 C 138.003906 172.613281 137.734375 173.949219 137.554688 174.988281 C 137.113281 177.496094 136.425781 180.597656 135.726562 183.207031 C 135.410156 184.375 135.15625 185.453125 135.15625 185.601562 C 135.15625 185.75 135.101562 185.953125 135.03125 186.054688 C 134.960938 186.152344 134.796875 186.757812 134.667969 187.402344 C 134.539062 188.046875 134.367188 188.660156 134.28125 188.769531 C 134.195312 188.878906 134.054688 189.324219 133.96875 189.761719 C 133.75 190.835938 132.109375 196.40625 131.773438 197.207031 C 131.640625 197.523438 130.058594 202.300781 129.921875 202.785156 C 129.894531 202.882812 129.828125 203.085938 129.773438 203.234375 C 129.714844 203.382812 129.390625 204.394531 129.046875 205.484375 C 128.707031 206.574219 127.9375 208.765625 127.339844 210.355469 C 126.742188 211.945312 125.96875 214.09375 125.621094 215.125 C 125.269531 216.15625 124.609375 217.890625 124.148438 218.976562 C 122.992188 221.707031 121.746094 225.242188 121.480469 226.535156 C 121.359375 227.128906 121.160156 227.804688 121.035156 228.035156 C 120.910156 228.269531 120.859375 228.671875 120.921875 228.933594 C 120.992188 229.242188 120.976562 229.328125 120.871094 229.175781 C 120.757812 229 120.679688 229.097656 120.597656 229.511719 C 120.429688 230.359375 120.453125 230.621094 120.691406 230.476562 C 120.820312 230.394531 120.847656 230.425781 120.765625 230.558594 C 120.695312 230.675781 120.570312 230.726562 120.488281 230.675781 C 120.40625 230.625 120.25 231.101562 120.136719 231.738281 C 119.90625 233.078125 119.367188 234.84375 118.863281 235.933594 C 118.667969 236.355469 118.507812 236.800781 118.507812 236.933594 C 118.507812 237.0625 118.4375 237.246094 118.351562 237.339844 C 118.265625 237.433594 118.113281 237.753906 118.011719 238.050781 C 117.910156 238.347656 117.765625 238.75 117.691406 238.949219 C 117.359375 239.847656 118.152344 238.671875 118.96875 237.058594 C 119.882812 235.257812 120.710938 233.816406 122.277344 231.300781 C 123.464844 229.402344 126.585938 223.289062 126.585938 222.867188 C 126.585938 222.699219 126.660156 222.480469 126.75 222.386719 C 126.835938 222.292969 127.152344 221.609375 127.449219 220.867188 C 127.746094 220.125 128.59375 218.261719 129.332031 216.730469 C 131.152344 212.9375 132.867188 209.214844 133.140625 208.453125 C 133.265625 208.105469 133.664062 207.179688 134.027344 206.394531 C 134.390625 205.609375 134.851562 204.558594 135.050781 204.054688 C 135.253906 203.554688 135.492188 203.003906 135.582031 202.832031 C 135.675781 202.65625 136.074219 201.6875 136.476562 200.671875 C 136.875 199.65625 137.273438 198.664062 137.359375 198.46875 C 137.824219 197.402344 138.980469 194.550781 139.316406 193.640625 C 139.84375 192.207031 140.21875 191.511719 140.40625 191.625 C 140.539062 191.707031 141.671875 188.90625 141.671875 188.496094 C 141.671875 188.414062 142.042969 187.425781 142.492188 186.300781 C 143.820312 183.003906 144.09375 182.265625 144.917969 179.847656 C 145.238281 178.90625 145.691406 177.570312 145.929688 176.878906 C 146.167969 176.183594 146.597656 174.890625 146.882812 174 C 147.167969 173.109375 147.691406 171.570312 148.046875 170.582031 C 148.398438 169.589844 148.8125 168.375 148.96875 167.882812 C 149.121094 167.386719 149.558594 166.210938 149.941406 165.273438 C 150.324219 164.332031 151.007812 162.511719 151.464844 161.222656 C 151.917969 159.9375 152.527344 158.230469 152.816406 157.433594 C 153.105469 156.632812 153.34375 155.859375 153.34375 155.714844 C 153.34375 155.570312 153.414062 155.371094 153.5 155.277344 C 153.585938 155.183594 153.882812 154.417969 154.15625 153.578125 C 154.878906 151.359375 155.765625 149.039062 156.605469 147.191406 C 157.007812 146.300781 157.484375 145.246094 157.660156 144.851562 C 157.839844 144.457031 158.121094 143.769531 158.289062 143.324219 C 158.453125 142.878906 158.753906 142.148438 158.953125 141.703125 C 159.96875 139.433594 161.429688 135.035156 161.875 132.910156 C 161.945312 132.574219 162.367188 131.359375 162.808594 130.210938 C 163.253906 129.058594 163.738281 127.714844 163.886719 127.21875 C 164.15625 126.328125 164.476562 125.769531 164.476562 126.191406 C 164.476562 126.394531 165.136719 127.832031 167.328125 132.394531 C 169.410156 136.730469 169.921875 137.855469 170.492188 139.363281 C 171.878906 143.007812 172.269531 143.972656 172.496094 144.308594 C 172.628906 144.503906 172.738281 144.804688 172.738281 144.980469 C 172.738281 145.15625 172.796875 145.300781 172.871094 145.300781 C 172.945312 145.304688 173.207031 145.800781 173.457031 146.40625 C 173.703125 147.011719 174.589844 148.894531 175.429688 150.585938 C 176.695312 153.140625 177.066406 153.734375 177.585938 154.0625 C 178.730469 154.777344 179.542969 155.832031 179.523438 156.574219 C 179.515625 156.871094 179.585938 157.253906 179.683594 157.429688 C 179.847656 157.71875 179.902344 157.707031 180.410156 157.28125 C 180.710938 157.023438 181.085938 156.816406 181.238281 156.816406 C 181.390625 156.816406 181.570312 156.722656 181.640625 156.613281 C 181.722656 156.480469 181.84375 156.554688 181.988281 156.824219 C 182.207031 157.230469 182.21875 157.222656 182.5625 156.441406 C 184.90625 151.167969 191.6875 137.75 193.628906 134.542969 C 194.484375 133.128906 195.183594 131.9375 195.183594 131.890625 C 195.183594 131.847656 195.546875 131.242188 195.992188 130.546875 C 196.4375 129.855469 196.800781 129.242188 196.800781 129.183594 C 196.800781 129.128906 197.003906 128.820312 197.25 128.496094 C 197.496094 128.171875 197.699219 127.855469 197.699219 127.792969 C 197.699219 127.730469 198.292969 126.726562 199.015625 125.5625 C 199.742188 124.394531 201.007812 122.347656 201.824219 121.011719 C 202.644531 119.675781 203.96875 117.621094 204.769531 116.445312 C 206.425781 114.003906 206.175781 113.921875 206.859375 117.144531 C 207.394531 119.65625 209.234375 127.625 209.539062 128.75 C 209.730469 129.453125 210.128906 131.183594 210.992188 135.046875 C 211.3125 136.480469 212.082031 139.71875 212.703125 142.242188 C 213.859375 146.921875 214.097656 147.894531 215.664062 154.207031 C 216.15625 156.1875 216.589844 157.96875 216.628906 158.164062 C 216.667969 158.363281 216.789062 158.753906 216.894531 159.03125 C 217.375 160.277344 217.378906 160.273438 213.882812 161.644531 C 210.414062 163.007812 198.523438 167.109375 188.449219 170.421875 C 176.980469 174.195312 164.585938 178.480469 160.707031 180.019531 C 158.851562 180.757812 157.179688 181.277344 155.410156 181.664062 C 154.914062 181.773438 154.433594 181.9375 154.339844 182.023438 C 154.121094 182.230469 154.308594 182.226562 155.230469 182.003906 C 155.625 181.90625 156.554688 181.785156 157.292969 181.734375 C 158.035156 181.679688 158.785156 181.589844 158.960938 181.535156 C 159.136719 181.480469 159.542969 181.410156 159.859375 181.378906 C 161.308594 181.238281 163.703125 180.855469 166.09375 180.378906 C 170.765625 179.453125 172.445312 179.148438 173.996094 178.953125 C 176.179688 178.679688 177.714844 178.410156 178.8125 178.101562 C 179.691406 177.855469 183.023438 177.109375 185.847656 176.527344 C 186.488281 176.394531 187.699219 176.109375 188.539062 175.894531 C 189.378906 175.679688 190.1875 175.472656 190.335938 175.433594 C 190.484375 175.398438 192.585938 174.96875 195.003906 174.480469 C 202.761719 172.910156 202.347656 172.941406 202.390625 173.902344 C 202.402344 174.203125 202.425781 174.507812 202.445312 174.582031 C 202.476562 174.722656 202.699219 175.984375 202.828125 176.789062 C 202.867188 177.035156 202.976562 177.5 203.070312 177.820312 C 203.164062 178.144531 203.195312 178.40625 203.140625 178.40625 C 203.085938 178.40625 203.132812 178.515625 203.242188 178.648438 C 203.351562 178.78125 203.402344 178.929688 203.351562 178.980469 C 203.277344 179.050781 203.757812 181.617188 204.058594 182.753906 C 204.101562 182.917969 204.1875 183.445312 204.253906 183.921875 C 204.320312 184.402344 204.445312 185.035156 204.527344 185.332031 C 204.613281 185.628906 204.816406 186.5625 204.976562 187.402344 C 205.136719 188.242188 205.378906 189.417969 205.511719 190.011719 C 205.648438 190.605469 205.925781 191.902344 206.128906 192.890625 C 206.335938 193.878906 206.621094 195.257812 206.769531 195.949219 C 206.914062 196.640625 207.242188 198.585938 207.496094 200.265625 C 208.03125 203.824219 208.296875 205.292969 209.121094 209.351562 C 209.453125 210.984375 209.808594 213.050781 209.914062 213.941406 C 210.019531 214.832031 210.140625 215.722656 210.183594 215.917969 C 210.222656 216.117188 210.300781 216.601562 210.351562 217 C 210.746094 220.03125 212.871094 232.023438 213.410156 234.269531 C 215.027344 241.015625 215.359375 242.539062 215.554688 244.078125 C 215.613281 244.523438 215.773438 245.292969 215.917969 245.785156 C 216.058594 246.28125 216.328125 247.210938 216.511719 247.855469 C 216.695312 248.5 216.957031 249.226562 217.09375 249.472656 C 217.226562 249.722656 217.394531 250.34375 217.46875 250.859375 C 217.617188 251.957031 219.027344 254.914062 219.320312 254.746094 C 219.429688 254.683594 219.464844 254.691406 219.402344 254.761719 C 219.257812 254.925781 220.667969 259.109375 222.199219 263.058594 C 222.429688 263.652344 222.667969 264.433594 222.730469 264.792969 C 222.796875 265.15625 222.964844 265.550781 223.113281 265.671875 C 223.257812 265.792969 223.375 265.988281 223.375 266.105469 C 223.375 266.226562 223.609375 266.761719 223.890625 267.296875 C 224.175781 267.835938 224.59375 268.945312 224.824219 269.761719 C 225.050781 270.578125 225.296875 271.246094 225.367188 271.246094 C 225.441406 271.246094 225.457031 271.40625 225.402344 271.605469 C 225.351562 271.800781 225.394531 271.964844 225.5 271.964844 C 225.601562 271.964844 225.6875 272.105469 225.691406 272.277344 C 225.691406 272.453125 225.898438 273.445312 226.15625 274.484375 C 226.410156 275.523438 226.703125 276.816406 226.808594 277.363281 C 227.226562 279.507812 227.308594 279.621094 227.210938 277.902344 C 227.15625 276.960938 227.078125 275.949219 227.035156 275.652344 C 226.992188 275.355469 226.957031 274.75 226.957031 274.300781 C 226.953125 273.859375 226.878906 272.847656 226.789062 272.054688 C 226.699219 271.261719 226.578125 269.644531 226.523438 268.457031 C 226.339844 264.554688 225.9375 260.675781 225.433594 257.929688 C 224.976562 255.441406 224.835938 254.5625 224.714844 253.382812 C 224.652344 252.769531 224.574219 252.222656 224.539062 252.167969 C 224.507812 252.113281 224.429688 251.625 224.371094 251.085938 C 224.308594 250.546875 224.179688 249.617188 224.078125 249.023438 C 223.679688 246.640625 223.546875 245.710938 223.378906 244.078125 C 223.210938 242.445312 222.925781 239.96875 222.761719 238.730469 C 222.71875 238.410156 222.644531 238.003906 222.59375 237.828125 C 222.546875 237.652344 222.453125 236.945312 222.390625 236.25 C 222.332031 235.558594 222.25 234.871094 222.207031 234.722656 C 222.144531 234.484375 222.023438 233.433594 221.671875 230.042969 C 221.625 229.597656 221.464844 227.9375 221.316406 226.355469 C 221.164062 224.773438 221.003906 223.3125 220.957031 223.109375 C 220.914062 222.910156 220.746094 221.453125 220.589844 219.871094 C 220.433594 218.292969 220.277344 216.796875 220.246094 216.550781 C 220.214844 216.300781 220.132812 215.492188 220.066406 214.75 C 219.933594 213.238281 219.773438 211.988281 219.261719 208.453125 C 218.929688 206.15625 218.859375 205.5625 218.605469 202.964844 C 218.550781 202.371094 218.386719 200.953125 218.242188 199.816406 C 218.097656 198.679688 217.863281 196.777344 217.714844 195.589844 C 217.441406 193.371094 217.101562 191.324219 216.644531 189.113281 C 216.207031 186.984375 216.03125 185.765625 215.921875 183.984375 C 215.773438 181.644531 215.34375 177.894531 215.023438 176.15625 C 214.605469 173.878906 214.226562 171.160156 214.3125 171.019531 C 214.355469 170.949219 215.101562 170.839844 215.964844 170.773438 C 216.832031 170.707031 217.824219 170.613281 218.167969 170.570312 C 221.144531 170.175781 222.789062 170.164062 222.832031 170.535156 C 222.902344 171.144531 223.773438 173.1875 223.921875 173.09375 C 224.003906 173.042969 224.128906 173.097656 224.199219 173.214844 C 224.28125 173.34375 224.253906 173.375 224.121094 173.296875 C 223.894531 173.15625 223.855469 173.363281 224.023438 173.804688 C 224.085938 173.960938 224.253906 174.089844 224.402344 174.089844 C 224.566406 174.089844 224.632812 174.191406 224.570312 174.355469 C 224.472656 174.605469 224.859375 175.605469 225.820312 177.597656 L 226.253906 178.496094 L 226.164062 177.570312 C 226.113281 177.058594 226.019531 176.492188 225.953125 176.308594 C 225.875 176.089844 225.898438 176.039062 226.019531 176.15625 C 226.117188 176.257812 226.324219 176.742188 226.484375 177.238281 C 226.925781 178.628906 227.316406 179.484375 227.507812 179.484375 C 227.605469 179.484375 227.6875 179.679688 227.6875 179.917969 C 227.6875 180.15625 227.84375 180.664062 228.035156 181.042969 C 228.226562 181.425781 228.578125 182.261719 228.816406 182.90625 C 229.058594 183.546875 229.3125 184.234375 229.386719 184.433594 C 229.664062 185.167969 229.6875 184.324219 229.421875 183.128906 C 228.953125 181.019531 228.417969 176.980469 228.226562 174.089844 C 228.125 172.554688 227.992188 170.914062 227.929688 170.445312 C 227.820312 169.597656 227.824219 169.589844 228.335938 169.578125 C 228.621094 169.574219 229.097656 169.539062 229.390625 169.503906 C 230.121094 169.414062 231.324219 169.28125 232.625 169.144531 C 233.21875 169.082031 233.984375 169 234.332031 168.964844 C 234.675781 168.925781 235.445312 168.847656 236.035156 168.785156 C 236.628906 168.726562 237.597656 168.601562 238.191406 168.507812 C 239.25 168.34375 240.445312 168.222656 242.769531 168.046875 C 243.414062 168 244.460938 167.886719 245.105469 167.796875 C 245.746094 167.710938 247.265625 167.628906 248.476562 167.617188 C 250.195312 167.601562 250.738281 167.652344 250.945312 167.859375 C 251.136719 168.054688 251.640625 168.121094 252.871094 168.117188 C 254.789062 168.109375 255.175781 168.039062 255.054688 167.726562 C 255.003906 167.597656 255.230469 167.398438 255.605469 167.253906 C 256.265625 166.992188 256.382812 166.75 256.023438 166.386719 C 255.855469 166.21875 255.871094 166.171875 256.101562 166.171875 C 256.59375 166.171875 256.65625 165.808594 256.238281 165.363281 C 255.738281 164.832031 255.875 164.589844 256.613281 164.695312 C 257.042969 164.761719 257.160156 164.71875 257.097656 164.53125 C 257.042969 164.371094 256.738281 164.28125 256.238281 164.28125 C 255.25 164.28125 255.121094 163.933594 256.003906 163.648438 C 257.019531 163.320312 257.054688 163.269531 256.5625 162.859375 C 256.316406 162.652344 255.941406 162.160156 255.726562 161.765625 C 255.347656 161.050781 254.800781 159.183594 254.800781 158.589844 C 254.800781 158.421875 254.597656 158.121094 254.351562 157.929688 C 253.929688 157.59375 253.902344 157.476562 253.902344 155.800781 C 253.902344 154.824219 253.804688 153.703125 253.691406 153.308594 C 253.574219 152.914062 253.472656 152.511719 253.464844 152.414062 C 253.460938 152.320312 253.214844 152.117188 252.917969 151.964844 C 252.625 151.8125 252.300781 151.59375 252.199219 151.480469 C 252.101562 151.367188 251.695312 151.238281 251.300781 151.191406 C 250.625 151.117188 247.34375 151.332031 246.363281 151.515625 C 246.113281 151.5625 245.46875 151.671875 244.925781 151.761719 C 244.382812 151.847656 243.453125 152.09375 242.859375 152.308594 C 242.265625 152.519531 241.632812 152.710938 241.449219 152.730469 C 241.269531 152.75 240.945312 152.976562 240.734375 153.230469 C 240.308594 153.734375 239.585938 153.988281 236.125 154.84375 C 234.890625 155.148438 233.761719 155.433594 233.613281 155.476562 C 233.21875 155.59375 227.839844 156.992188 227.417969 157.089844 C 226.011719 157.40625 226.128906 157.460938 225.988281 156.421875 C 225.914062 155.894531 225.824219 155.101562 225.785156 154.65625 C 225.742188 154.210938 225.632812 153.320312 225.535156 152.679688 C 225.4375 152.035156 225.273438 150.660156 225.171875 149.621094 C 225.066406 148.582031 224.90625 147.125 224.8125 146.382812 C 224.722656 145.640625 224.519531 143.859375 224.367188 142.421875 C 224.214844 140.988281 224.011719 139.289062 223.917969 138.644531 C 223.828125 138 223.707031 137.152344 223.65625 136.753906 C 223.601562 136.359375 223.363281 134.78125 223.125 133.246094 C 222.886719 131.714844 222.644531 129.242188 222.582031 127.757812 C 222.519531 126.273438 222.398438 124.617188 222.316406 124.070312 C 222.234375 123.527344 222.078125 122.515625 221.972656 121.824219 C 221.867188 121.128906 221.695312 119.792969 221.585938 118.855469 C 221.328125 116.628906 221.082031 114.945312 220.765625 113.277344 C 220.625 112.535156 220.472656 111.5625 220.429688 111.117188 C 220.386719 110.671875 220.265625 109.878906 220.160156 109.355469 C 220.054688 108.832031 219.925781 107.902344 219.871094 107.285156 C 219.820312 106.671875 219.738281 106.046875 219.695312 105.898438 C 219.574219 105.496094 219.105469 100.191406 218.964844 97.671875 C 218.859375 95.796875 218.886719 95.40625 219.136719 95.023438 C 219.417969 94.589844 219.414062 94.570312 218.992188 94.460938 C 218.75 94.402344 218.511719 94.238281 218.457031 94.097656 C 218.328125 93.761719 218.003906 93.777344 217.871094 94.128906 Z M 217.691406 98.96875 C 217.75 99.113281 217.714844 99.277344 217.621094 99.335938 C 217.527344 99.394531 217.449219 99.277344 217.449219 99.074219 C 217.449219 98.640625 217.550781 98.59375 217.691406 98.96875 Z M 200.839844 100.320312 C 200.777344 100.421875 200.652344 100.503906 200.558594 100.503906 C 200.46875 100.503906 200.390625 100.421875 200.390625 100.320312 C 200.390625 100.222656 200.515625 100.140625 200.671875 100.140625 C 200.824219 100.140625 200.902344 100.222656 200.839844 100.320312 Z M 153.015625 112.414062 C 152.886719 112.542969 152.804688 112.554688 152.804688 112.441406 C 152.804688 112.203125 153.015625 111.988281 153.136719 112.109375 C 153.1875 112.160156 153.132812 112.296875 153.015625 112.414062 Z M 223.515625 141.570312 C 223.6875 143.324219 223.789062 144.761719 223.734375 144.761719 C 223.585938 144.761719 223 139.886719 222.921875 138.015625 C 222.855469 136.527344 222.867188 136.476562 223.023438 137.386719 C 223.121094 137.929688 223.339844 139.8125 223.515625 141.570312 Z M 223.859375 145.335938 C 223.800781 145.480469 223.757812 145.4375 223.75 145.226562 C 223.742188 145.035156 223.785156 144.929688 223.84375 144.992188 C 223.902344 145.050781 223.910156 145.207031 223.859375 145.335938 Z M 224.039062 146.234375 C 223.980469 146.378906 223.9375 146.335938 223.929688 146.125 C 223.921875 145.9375 223.964844 145.832031 224.023438 145.890625 C 224.082031 145.949219 224.089844 146.105469 224.039062 146.234375 Z M 224.234375 147.84375 C 224.191406 147.980469 224.109375 147.898438 224.046875 147.65625 C 223.96875 147.355469 223.992188 147.285156 224.125 147.417969 C 224.230469 147.523438 224.28125 147.714844 224.234375 147.84375 Z M 224.417969 149.507812 C 224.429688 149.851562 224.523438 150.644531 224.625 151.269531 C 224.832031 152.542969 224.863281 153.148438 224.710938 152.996094 C 224.613281 152.898438 224.109375 149.644531 224.101562 149.023438 C 224.089844 148.414062 224.394531 148.882812 224.417969 149.507812 Z M 241.332031 153.398438 C 241.332031 153.496094 241.207031 153.578125 241.054688 153.578125 C 240.898438 153.578125 240.824219 153.496094 240.882812 153.398438 C 240.945312 153.300781 241.070312 153.21875 241.164062 153.21875 C 241.257812 153.21875 241.332031 153.300781 241.332031 153.398438 Z M 216.636719 192.941406 C 216.921875 194.84375 216.984375 195.8125 216.8125 195.636719 C 216.679688 195.503906 216.199219 192.335938 216.195312 191.554688 C 216.191406 190.523438 216.347656 191.019531 216.636719 192.941406 Z M 217.03125 196.445312 C 216.980469 196.566406 216.941406 196.464844 216.941406 196.21875 C 216.941406 195.972656 216.980469 195.871094 217.03125 195.992188 C 217.082031 196.117188 217.082031 196.320312 217.03125 196.445312 Z M 227.238281 280.0625 C 227.296875 280.160156 227.382812 280.238281 227.425781 280.238281 C 227.472656 280.238281 227.507812 280.160156 227.507812 280.0625 C 227.507812 279.960938 227.421875 279.878906 227.316406 279.878906 C 227.210938 279.878906 227.175781 279.960938 227.238281 280.0625 Z M 227.238281 280.0625 " fill-opacity="1" fill-rule="evenodd"/></g></svg>