<svg xmlns="http://www.w3.org/2000/svg" xmlns:xlink="http://www.w3.org/1999/xlink" width="500" zoomAndPan="magnify" viewBox="0 0 375 374.999991" height="500" preserveAspectRatio="xMidYMid meet" version="1.0"><defs><filter x="0%" y="0%" width="100%" height="100%" id="d71c6ea188"><feColorMatrix values="0 0 0 0 1 0 0 0 0 1 0 0 0 0 1 0 0 0 1 0" color-interpolation-filters="sRGB"/></filter><g/><mask id="3ac1bfa4a6"><g filter="url(#d71c6ea188)"><rect x="-37.5" width="450" fill="#000000" y="-37.499999" height="449.999989" fill-opacity="0.18"/></g></mask><clipPath id="058c3e0405"><path d="M 1.324219 0 L 160.960938 0 L 160.960938 176.640625 L 1.324219 176.640625 Z M 1.324219 0 " clip-rule="nonzero"/></clipPath><clipPath id="c9e43dab37"><rect x="0" width="161" y="0" height="177"/></clipPath><mask id="55786b7b5e"><g filter="url(#d71c6ea188)"><rect x="-37.5" width="450" fill="#000000" y="-37.499999" height="449.999989" fill-opacity="0.18"/></g></mask><clipPath id="6d13653616"><path d="M 0.671875 0.773438 L 23.664062 0.773438 L 23.664062 23.765625 L 0.671875 23.765625 Z M 0.671875 0.773438 " clip-rule="nonzero"/></clipPath><clipPath id="cd4d96f6e2"><path d="M 12.167969 0.773438 C 5.816406 0.773438 0.671875 5.921875 0.671875 12.269531 C 0.671875 18.621094 5.816406 23.765625 12.167969 23.765625 C 18.515625 23.765625 23.664062 18.621094 23.664062 12.269531 C 23.664062 5.921875 18.515625 0.773438 12.167969 0.773438 Z M 12.167969 0.773438 " clip-rule="nonzero"/></clipPath><clipPath id="efeabd2754"><rect x="0" width="24" y="0" height="24"/></clipPath></defs><g mask="url(#3ac1bfa4a6)"><g transform="matrix(1, 0, 0, 1, 116, 102)"><g clip-path="url(#c9e43dab37)"><g clip-path="url(#058c3e0405)"><path fill="#d9d9d9" d="M 147.710938 111.292969 L 40.835938 172.996094 C 23.207031 183.171875 1.171875 170.449219 1.171875 150.09375 L 1.171875 26.6875 C 1.171875 6.332031 23.210938 -6.390625 40.835938 3.785156 L 147.710938 65.492188 C 165.339844 75.667969 165.339844 101.113281 147.710938 111.292969 Z M 147.710938 111.292969 " fill-opacity="1" fill-rule="nonzero"/></g></g></g></g><g fill="#ffffff" fill-opacity="1"><g transform="translate(132.137661, 189.346351)"><g><path d="M 20.859375 -26.1875 C 22.421875 -26.1875 23.75 -26.382812 24.84375 -26.78125 C 25.945312 -27.175781 26.847656 -27.722656 27.546875 -28.421875 C 28.253906 -29.128906 28.765625 -29.953125 29.078125 -30.890625 C 29.390625 -31.828125 29.546875 -32.835938 29.546875 -33.921875 C 29.546875 -36.097656 28.835938 -37.796875 27.421875 -39.015625 C 26.015625 -40.234375 23.828125 -40.84375 20.859375 -40.84375 L 16.25 -40.84375 L 16.25 -26.1875 Z M 45.234375 0 L 34.84375 0 C 32.925781 0 31.546875 -0.722656 30.703125 -2.171875 L 22.5 -16.53125 C 22.113281 -17.132812 21.679688 -17.578125 21.203125 -17.859375 C 20.734375 -18.140625 20.054688 -18.28125 19.171875 -18.28125 L 16.25 -18.28125 L 16.25 0 L 4.78125 0 L 4.78125 -49.4375 L 20.859375 -49.4375 C 24.441406 -49.4375 27.492188 -49.066406 30.015625 -48.328125 C 32.535156 -47.597656 34.59375 -46.578125 36.1875 -45.265625 C 37.78125 -43.953125 38.9375 -42.398438 39.65625 -40.609375 C 40.382812 -38.828125 40.75 -36.882812 40.75 -34.78125 C 40.75 -33.175781 40.53125 -31.660156 40.09375 -30.234375 C 39.664062 -28.804688 39.035156 -27.488281 38.203125 -26.28125 C 37.367188 -25.070312 36.332031 -23.988281 35.09375 -23.03125 C 33.863281 -22.082031 32.445312 -21.304688 30.84375 -20.703125 C 31.59375 -20.316406 32.289062 -19.832031 32.9375 -19.25 C 33.59375 -18.675781 34.179688 -17.992188 34.703125 -17.203125 Z M 45.234375 0 "/></g></g></g><g fill="#ffffff" fill-opacity="1"><g transform="translate(173.696317, 189.346351)"><g><path d="M 16.3125 -40.609375 L 16.3125 -29.078125 L 31.859375 -29.078125 L 31.859375 -20.59375 L 16.3125 -20.59375 L 16.3125 -8.828125 L 36.609375 -8.828125 L 36.609375 0 L 4.78125 0 L 4.78125 -49.4375 L 36.609375 -49.4375 L 36.609375 -40.609375 Z M 16.3125 -40.609375 "/></g></g></g><g fill="#ffffff" fill-opacity="1"><g transform="translate(209.521506, 189.346351)"><g><path d="M 38.109375 -12.796875 C 38.378906 -12.796875 38.648438 -12.742188 38.921875 -12.640625 C 39.191406 -12.535156 39.453125 -12.359375 39.703125 -12.109375 L 44.25 -7.328125 C 42.257812 -4.722656 39.765625 -2.757812 36.765625 -1.4375 C 33.765625 -0.113281 30.21875 0.546875 26.125 0.546875 C 22.375 0.546875 19.007812 -0.09375 16.03125 -1.375 C 13.050781 -2.65625 10.523438 -4.421875 8.453125 -6.671875 C 6.390625 -8.921875 4.800781 -11.585938 3.6875 -14.671875 C 2.582031 -17.765625 2.03125 -21.117188 2.03125 -24.734375 C 2.03125 -28.421875 2.628906 -31.804688 3.828125 -34.890625 C 5.023438 -37.984375 6.707031 -40.648438 8.875 -42.890625 C 11.050781 -45.128906 13.65625 -46.867188 16.6875 -48.109375 C 19.71875 -49.359375 23.054688 -49.984375 26.703125 -49.984375 C 28.554688 -49.984375 30.300781 -49.816406 31.9375 -49.484375 C 33.582031 -49.160156 35.117188 -48.707031 36.546875 -48.125 C 37.972656 -47.550781 39.285156 -46.859375 40.484375 -46.046875 C 41.679688 -45.234375 42.742188 -44.347656 43.671875 -43.390625 L 39.796875 -38.203125 C 39.546875 -37.890625 39.25 -37.601562 38.90625 -37.34375 C 38.570312 -37.082031 38.101562 -36.953125 37.5 -36.953125 C 37.082031 -36.953125 36.691406 -37.039062 36.328125 -37.21875 C 35.972656 -37.40625 35.59375 -37.625 35.1875 -37.875 C 34.78125 -38.132812 34.332031 -38.414062 33.84375 -38.71875 C 33.351562 -39.03125 32.773438 -39.316406 32.109375 -39.578125 C 31.441406 -39.835938 30.660156 -40.054688 29.765625 -40.234375 C 28.878906 -40.421875 27.835938 -40.515625 26.640625 -40.515625 C 24.734375 -40.515625 22.992188 -40.160156 21.421875 -39.453125 C 19.847656 -38.753906 18.488281 -37.734375 17.34375 -36.390625 C 16.207031 -35.046875 15.328125 -33.394531 14.703125 -31.4375 C 14.085938 -29.476562 13.78125 -27.242188 13.78125 -24.734375 C 13.78125 -22.203125 14.125 -19.953125 14.8125 -17.984375 C 15.5 -16.015625 16.4375 -14.359375 17.625 -13.015625 C 18.8125 -11.671875 20.195312 -10.644531 21.78125 -9.9375 C 23.363281 -9.238281 25.0625 -8.890625 26.875 -8.890625 C 27.914062 -8.890625 28.863281 -8.9375 29.71875 -9.03125 C 30.582031 -9.132812 31.382812 -9.304688 32.125 -9.546875 C 32.875 -9.785156 33.578125 -10.101562 34.234375 -10.5 C 34.890625 -10.894531 35.554688 -11.398438 36.234375 -12.015625 C 36.503906 -12.234375 36.796875 -12.414062 37.109375 -12.5625 C 37.429688 -12.71875 37.765625 -12.796875 38.109375 -12.796875 Z M 38.109375 -12.796875 "/></g></g></g><g fill="#ffffff" fill-opacity="1"><g transform="translate(135.641567, 241.096347)"><g><path d="M 49.125 -49.4375 L 29.3125 0 L 18.9375 0 L -0.875 -49.4375 L 8.34375 -49.4375 C 9.34375 -49.4375 10.144531 -49.203125 10.75 -48.734375 C 11.363281 -48.273438 11.828125 -47.679688 12.140625 -46.953125 L 21.71875 -20.5 C 22.164062 -19.34375 22.601562 -18.078125 23.03125 -16.703125 C 23.46875 -15.335938 23.878906 -13.910156 24.265625 -12.421875 C 24.578125 -13.910156 24.929688 -15.335938 25.328125 -16.703125 C 25.722656 -18.078125 26.144531 -19.34375 26.59375 -20.5 L 36.09375 -46.953125 C 36.34375 -47.585938 36.789062 -48.160156 37.4375 -48.671875 C 38.082031 -49.179688 38.878906 -49.4375 39.828125 -49.4375 Z M 49.125 -49.4375 "/></g></g></g><g fill="#ffffff" fill-opacity="1"><g transform="translate(180.830289, 241.096347)"><g><path d="M 16.3125 0 L 4.78125 0 L 4.78125 -49.4375 L 16.3125 -49.4375 Z M 16.3125 0 "/></g></g></g><g fill="#ffffff" fill-opacity="1"><g transform="translate(198.878342, 241.096347)"><g><path d="M 49.640625 -24.734375 C 49.640625 -21.160156 49.019531 -17.863281 47.78125 -14.84375 C 46.550781 -11.820312 44.816406 -9.207031 42.578125 -7 C 40.335938 -4.800781 37.640625 -3.082031 34.484375 -1.84375 C 31.328125 -0.613281 27.828125 0 23.984375 0 L 4.78125 0 L 4.78125 -49.4375 L 23.984375 -49.4375 C 27.828125 -49.4375 31.328125 -48.8125 34.484375 -47.5625 C 37.640625 -46.320312 40.335938 -44.601562 42.578125 -42.40625 C 44.816406 -40.21875 46.550781 -37.613281 47.78125 -34.59375 C 49.019531 -31.570312 49.640625 -28.285156 49.640625 -24.734375 Z M 37.90625 -24.734375 C 37.90625 -27.179688 37.585938 -29.382812 36.953125 -31.34375 C 36.316406 -33.3125 35.40625 -34.976562 34.21875 -36.34375 C 33.03125 -37.71875 31.578125 -38.769531 29.859375 -39.5 C 28.140625 -40.238281 26.179688 -40.609375 23.984375 -40.609375 L 16.3125 -40.609375 L 16.3125 -8.828125 L 23.984375 -8.828125 C 26.179688 -8.828125 28.140625 -9.191406 29.859375 -9.921875 C 31.578125 -10.660156 33.03125 -11.710938 34.21875 -13.078125 C 35.40625 -14.441406 36.316406 -16.109375 36.953125 -18.078125 C 37.585938 -20.046875 37.90625 -22.265625 37.90625 -24.734375 Z M 37.90625 -24.734375 "/></g></g></g><g mask="url(#55786b7b5e)"><g transform="matrix(1, 0, 0, 1, 93, 89)"><g clip-path="url(#efeabd2754)"><g clip-path="url(#6d13653616)"><g clip-path="url(#cd4d96f6e2)"><path fill="#d9d9d9" d="M 0.671875 0.773438 L 23.664062 0.773438 L 23.664062 23.765625 L 0.671875 23.765625 Z M 0.671875 0.773438 " fill-opacity="1" fill-rule="nonzero"/></g></g></g></g></g></svg>