<svg width="250" height="250" viewBox="0 0 250 250" fill="none" xmlns="http://www.w3.org/2000/svg">
<g clip-path="url(#clip0_681_5680)">
<path fill-rule="evenodd" clip-rule="evenodd" d="M122.246 19.1964C117.323 20.0936 115.674 20.6733 109.64 23.6297C103.07 26.8479 99.1005 29.6968 94.2486 34.6756C92.0056 36.9771 91.6721 37.4248 90.5853 39.5922C89.1706 42.4127 88.3916 44.6614 87.5274 48.4191C86.3893 53.3678 86.1399 55.5892 86.149 60.6992C86.1596 66.5472 86.7439 70.5869 88.2024 74.8941C91.1149 83.4943 93.3819 86.9189 101.832 95.4816C104.498 98.1835 105.518 99.0684 106.78 99.7748C108.382 100.672 109.401 101.76 110.999 104.282C111.836 105.601 111.864 105.886 111.414 108.522C110.684 112.804 109.517 114.528 106.583 115.66C104.044 116.639 102.56 116.936 99.0603 117.17C97.3198 117.286 95.842 117.435 95.7764 117.501C95.5236 117.755 96.6134 118.366 97.8033 118.637C98.928 118.894 98.9912 118.936 98.4656 119.081C98.117 119.178 97.4384 119.122 96.7706 118.943C96.1579 118.778 93.9882 118.396 91.949 118.094C87.1336 117.38 83.2139 117.453 80.1033 118.314C77.7806 118.957 73.7556 120.603 71.1897 121.959C69.5039 122.85 69.3395 122.895 68.5414 122.687C65.8471 121.986 63.6274 121.567 61.7124 121.396C60.5219 121.291 58.7276 121.095 57.7253 120.962C56.6172 120.814 54.2677 120.758 51.7331 120.819C47.6395 120.918 47.4783 120.94 42.9024 121.996C37.2916 123.292 33.9819 124.277 32.4151 125.117C31.4526 125.633 31.1552 125.936 30.7054 126.858C30.1757 127.944 29.4624 128.889 29.7086 128.178C32.767 119.348 33.2164 117.496 33.4113 112.921C33.5484 109.703 33.3196 107.231 32.4897 102.966L31.9331 100.106L32.1592 93.5381C32.3596 87.7102 32.4584 86.5718 33.0363 83.4326C34.0637 77.8517 35.1776 75.2284 37.1281 73.7966C39.4111 72.1208 40.9848 70.7133 42.0037 69.4364C42.584 68.7093 43.095 68.0748 43.1395 68.0261C43.1838 67.9775 43.2202 68.0862 43.2202 68.2676C43.2202 68.4489 42.7912 69.1803 42.2668 69.8926C41.3067 71.1968 41.0988 71.9464 41.5677 72.4153C42.0446 72.8922 42.8499 72.6703 44.3598 71.6462C45.1897 71.0833 46.5499 70.2267 47.3825 69.7428C49.9961 68.2239 49.8668 67.1335 46.6158 63.2716C45.6488 62.1231 45.0626 61.2928 45.3128 61.4267C45.5632 61.5608 46.4933 62.5481 47.3798 63.6212C48.2662 64.6941 49.2073 65.6581 49.4709 65.7631C50.5463 66.1917 50.9906 65.4943 51.1969 63.0536L51.3247 61.5426L50.073 60.1674C49.3844 59.4112 47.9662 57.99 46.9211 57.0093C45.8762 56.0286 44.6874 54.8983 44.2795 54.4975C43.5891 53.8189 43.5783 53.789 44.1223 54.0627C44.4437 54.2246 45.938 55.5216 47.4429 56.9453C50.1577 59.5138 50.7384 59.8578 51.2723 59.2146C51.7755 58.6085 51.1666 55.0689 50.3658 53.9441C50.0115 53.4466 47.5584 51.5167 45.4141 50.0487C45.0749 49.8163 45.0889 49.8114 45.5175 50.0138C46.5213 50.4873 47.4713 49.7733 47.1564 48.7818C46.9139 48.0172 39.1492 43.4034 37.6918 43.1578C37.4115 43.1106 36.8276 42.9146 36.3944 42.7225C35.0571 42.129 34.1217 42.3053 33.1789 43.3282C32.9336 43.5945 32.0179 44.0758 31.1439 44.3979C21.8579 47.8214 19.5596 51.1841 19.0622 62.0763C18.9028 65.5608 18.7414 66.8612 18.031 70.382C17.2567 74.2208 17.0276 74.9623 15.1853 79.5981C14.0834 82.3712 13.0156 85.1642 12.8122 85.8051C12.609 86.446 11.8937 88.3528 11.223 90.0424C7.59352 99.1839 6.23929 103.747 4.33886 113.242C2.8128 120.864 2.67848 121.889 2.67234 125.953C2.66725 129.332 2.74628 130.226 3.36683 133.792C4.1878 138.511 4.19247 140.786 3.38738 144.054C2.9592 145.793 2.92594 146.201 3.1323 147.184C3.2628 147.806 3.6306 148.679 3.94988 149.123C4.85009 150.375 7.03929 151.992 8.02064 152.13C8.48039 152.195 10.3198 152.028 12.1084 151.761C17.413 150.967 18.0923 150.941 20.0234 151.464C20.9543 151.716 23.0984 152.582 24.788 153.389C30.2982 156.019 36.2164 156.994 46.6497 156.99C48.9001 156.989 52.6959 157.099 55.0846 157.233C58.4539 157.423 60.4255 157.418 63.877 157.214C69.9285 156.855 71.1401 157.012 74.2583 158.564C75.5401 159.201 77.1132 160.074 77.7541 160.504C79.4338 161.63 80.0459 161.856 80.7497 161.611C81.3232 161.411 81.3367 161.37 81.2624 160.046C81.2189 159.274 81.2685 158.738 81.3768 158.805C81.4819 158.87 81.5681 159.275 81.5687 159.705C81.5694 160.135 81.7643 161.822 82.0018 163.453C82.8035 168.96 85.4569 175.726 88.5242 180.085C89.905 182.046 92.074 184.12 93.4346 184.779C95.4687 185.765 99.9586 186.418 104.873 186.445C106.726 186.455 106.844 186.48 106.356 186.758C106.038 186.94 105.224 187.064 104.319 187.069C102.189 187.079 96.8728 186.324 94.4914 185.671C91.634 184.889 91.5588 184.878 91.1937 185.181C90.7234 185.571 90.9406 186.601 92.2639 190.254C92.8759 191.944 93.5446 194.184 93.7499 195.233C94.4764 198.944 94.4829 204.343 93.7713 212.818C93.595 214.915 93.3359 218.466 93.195 220.708C92.9495 224.62 92.9556 224.802 93.3446 225.233C94.2558 226.242 97.8795 227.588 102.966 228.806C105.478 229.408 111.941 230.241 116.102 230.501C120.553 230.778 130.845 230.78 135.378 230.504C145.686 229.877 156.391 227.361 158.244 225.129C158.49 224.832 158.496 224.099 158.282 220.492C158.142 218.136 157.873 214.539 157.685 212.5C157.481 210.288 157.337 206.528 157.326 203.178C157.306 196.465 157.532 194.927 159.222 190.261C160.543 186.613 160.761 185.573 160.289 185.181C159.924 184.878 159.849 184.889 156.991 185.671C154.61 186.324 149.293 187.079 147.164 187.069C146.259 187.064 145.445 186.94 145.127 186.758C144.638 186.479 144.746 186.455 146.526 186.448C149.303 186.437 153.679 186.051 155.402 185.665C158.481 184.975 160.413 183.586 162.7 180.419C166.566 175.064 169.219 167.744 169.838 160.725C169.912 159.895 170.057 159.073 170.16 158.898C170.278 158.7 170.3 158.952 170.217 159.566C169.882 162.066 170.967 162.356 173.729 160.504C174.37 160.074 175.943 159.201 177.224 158.564C180.343 157.012 181.554 156.855 187.606 157.214C191.057 157.418 193.029 157.423 196.398 157.233C198.787 157.099 202.583 156.989 204.833 156.99C215.266 156.994 221.185 156.019 226.695 153.389C228.384 152.582 230.528 151.716 231.459 151.464C233.389 150.942 234.074 150.967 239.342 151.756C243.584 152.391 243.892 152.351 245.663 150.941C247.39 149.565 248.043 148.649 248.353 147.172C248.557 146.2 248.521 145.78 248.076 143.949C247.355 140.985 247.389 137.476 248.179 133.263C248.888 129.482 249.081 125.86 248.746 122.653C248.296 118.347 245.728 105.682 244.496 101.695C243.897 99.7559 241.427 92.9655 239.641 88.3475C239.168 87.1239 238.31 84.8358 237.734 83.2627C237.158 81.6896 236.155 79.1021 235.506 77.5129C234.53 75.1231 234.175 73.8769 233.456 70.3095C232.717 66.6426 232.56 65.3922 232.411 61.9703C232.096 54.7422 230.938 51.1449 228.106 48.5987C226.585 47.2311 224.264 45.9233 221.293 44.7606C219.896 44.2133 218.561 43.5623 218.327 43.3133C217.4 42.3263 216.275 42.114 215.148 42.7136C214.799 42.8994 214.24 43.0968 213.907 43.1523C213.236 43.264 210.848 44.4725 207.969 46.1578C204.529 48.1714 204.043 48.6297 204.343 49.5758C204.511 50.1057 205.312 50.3218 205.965 50.0138C206.393 49.8119 206.408 49.8165 206.07 50.0487C203.336 51.9284 201.317 53.6106 200.915 54.3432C200.287 55.49 199.808 58.7297 200.198 59.1992C200.742 59.8544 201.309 59.5292 203.927 57.061C208.113 53.1146 208.304 53.3691 204.2 57.4235C201.69 59.9025 200.404 61.3269 200.301 61.7417C200.115 62.4922 200.499 65.1517 200.855 65.5809C200.996 65.7508 201.365 65.8898 201.676 65.8898C202.132 65.8898 202.574 65.4856 203.994 63.7712C204.959 62.6059 205.942 61.5487 206.18 61.4214C206.417 61.2943 205.958 61.9642 205.16 62.91C202.648 65.8841 201.98 67.2737 202.461 68.5258C202.533 68.7129 203.271 69.2612 204.103 69.7443C204.934 70.2275 206.293 71.0833 207.123 71.6462C208.773 72.765 209.548 72.9182 210.035 72.2214C210.416 71.6786 210.32 71.3881 209.307 70.0212C208.876 69.4386 208.459 68.7235 208.382 68.4322C208.247 67.9278 208.264 67.9326 208.723 68.5381C209.806 69.9629 211.449 71.5468 213.463 73.1061C215.066 74.3466 215.737 75.0195 216.176 75.8275C217.127 77.5748 217.782 79.7627 218.464 83.4746C219.035 86.5828 219.131 87.7102 219.329 93.6441L219.551 100.318L219.006 103.072C217.901 108.656 217.756 112.895 218.515 117.434C218.813 119.217 221.104 126.566 221.756 127.831C221.962 128.229 221.985 128.409 221.823 128.355C221.688 128.31 221.275 127.703 220.905 127.007C220.344 125.951 220.04 125.638 219.068 125.117C217.501 124.277 214.191 123.292 208.58 121.996C204.005 120.94 203.843 120.918 199.75 120.819C197.215 120.758 194.866 120.814 193.757 120.962C192.755 121.095 190.961 121.29 189.77 121.396C188.58 121.501 186.381 121.88 184.885 122.236L182.163 122.884L179.376 121.517C173.496 118.633 170.712 117.809 166.313 117.653C163.715 117.561 162.67 117.629 159.534 118.094C157.495 118.396 155.317 118.781 154.694 118.948C154.009 119.132 153.382 119.184 153.105 119.079C152.71 118.93 152.777 118.875 153.602 118.668C154.742 118.382 155.552 117.989 155.658 117.669C155.744 117.408 153.902 117.163 151.823 117.158C148.76 117.152 143.782 115.6 142.462 114.24C141.429 113.177 140.564 111.238 140.167 109.094C139.579 105.921 139.644 105.532 141.103 103.426C142.889 100.849 142.953 100.786 144.945 99.6093C146.35 98.7792 147.338 97.9297 149.583 95.6203C158.213 86.7447 160.452 83.3661 163.321 74.8941C165.574 68.2383 166.054 58.5934 164.513 50.9449C163.455 45.6951 162.767 43.4629 161.252 40.3602C159.654 37.0883 159.116 36.3968 155.398 32.8354C151.52 29.1208 147.897 26.6138 142.573 23.9621C134.815 20.0977 132.055 19.2809 126.377 19.1701C124.396 19.1316 122.537 19.1434 122.246 19.1964ZM37.7096 46.9578C38.0603 47.615 38.3473 48.4731 38.3473 48.8646C38.3473 49.2559 38.4406 49.5763 38.5543 49.5763C38.9571 49.5763 39.4571 48.5345 39.3187 47.9835C39.1783 47.4235 37.6577 45.7627 37.2859 45.7627C37.1681 45.7627 37.3588 46.3004 37.7096 46.9578ZM213.141 46.6049C212.121 47.625 211.901 48.3246 212.376 49.0481C212.841 49.7581 213.135 49.714 213.135 48.9345C213.135 48.5818 213.423 47.7237 213.774 47.0278C214.125 46.332 214.316 45.7627 214.198 45.7627C214.08 45.7627 213.604 46.1417 213.141 46.6049ZM37.288 52.3038C37.288 52.5282 37.616 53.1992 38.017 53.7949C38.4344 54.4153 38.8069 55.2854 38.8889 55.8314C39.1418 57.5184 39.4734 57.204 39.3677 55.3775C39.26 53.5189 38.8901 52.7244 37.8923 52.2083C37.3289 51.917 37.288 51.9235 37.288 52.3038ZM213.537 52.2324C212.62 52.7167 212.228 53.5475 212.12 55.2362C212.004 57.0381 212.286 57.2625 212.662 55.6674C212.806 55.0557 213.215 54.1396 213.571 53.6318C213.927 53.1239 214.189 52.5358 214.153 52.3246C214.095 51.9792 214.033 51.9699 213.537 52.2324ZM42.0359 60.1388C42.1198 60.2744 42.3175 60.9803 42.4755 61.7074C42.6611 62.5612 42.7683 62.8044 42.7785 62.3941C42.7988 61.5699 42.4232 60.2256 42.1202 60.0386C41.9757 59.9492 41.9429 59.9881 42.0359 60.1388ZM209.107 60.3875C208.98 60.6237 208.836 61.315 208.785 61.9235L208.694 63.0297L208.971 61.8485C209.123 61.1989 209.309 60.5076 209.384 60.3125C209.574 59.8172 209.385 59.8684 209.107 60.3875ZM21.8259 71.6176C22.0802 72.0928 25.3052 76.4199 25.6889 76.8008C25.8064 76.9174 25.509 76.25 25.0281 75.3178C24.1317 73.5799 22.7473 71.7803 21.999 71.3797C21.6132 71.1733 21.5988 71.1932 21.8259 71.6176ZM228.481 72.339C227.881 72.9729 226.983 74.2839 226.486 75.2521C225.988 76.2206 225.676 76.9174 225.794 76.8008C226.17 76.4271 229.4 72.0972 229.648 71.6337C230.056 70.8718 229.618 71.1367 228.481 72.339ZM112.606 102.705C113.249 103.362 116.555 104.385 119.234 104.755C122.417 105.194 129.077 105.193 132.249 104.753C134.997 104.371 138.357 103.335 138.918 102.696C139.29 102.271 139.289 102.264 138.877 102.429C137.706 102.901 135.573 103.392 132.921 103.799C131.302 104.047 129.572 104.342 129.075 104.456C128.578 104.568 127.078 104.661 125.741 104.661C124.405 104.661 122.905 104.568 122.407 104.456C121.911 104.342 120.18 104.047 118.562 103.799C115.936 103.396 113.851 102.918 112.606 102.436L112.182 102.272L112.606 102.705ZM115.89 111.5C115.89 111.572 116.138 112.416 116.441 113.376C117.732 117.461 119.561 120.805 121.526 122.669L122.53 123.623L121.776 122.564C120.462 120.719 118.042 116.293 117.027 113.877C116.078 111.619 115.89 111.226 115.89 111.5ZM134.853 112.975C133.788 115.723 131.486 120.017 129.711 122.564L128.973 123.623L129.867 122.775C131.133 121.574 132.515 119.582 133.378 117.714C134.173 115.994 135.681 111.67 135.537 111.525C135.488 111.477 135.181 112.13 134.853 112.975ZM52.0694 123.962C49.9821 124.166 46.5573 124.831 45.127 125.311L44.1736 125.631L45.127 125.539C50.2721 125.046 52.3437 124.956 56.5124 125.045C59.1088 125.1 61.2052 125.118 61.1708 125.083C61.0624 124.975 55.8694 123.983 54.8728 123.88C54.3484 123.826 53.087 123.863 52.0694 123.962ZM194.597 124.183C189.626 125.066 189.707 125.106 196.45 125.106C200.33 125.106 203.468 125.21 204.841 125.385C206.046 125.539 207.077 125.62 207.132 125.566C207.285 125.413 202.847 124.413 200.953 124.174C197.732 123.767 196.937 123.768 194.597 124.183ZM103.941 128.079L103.327 128.837L103.941 128.69C104.279 128.609 104.835 128.401 105.177 128.228C105.83 127.899 106.114 127.907 110.628 128.389C111.87 128.521 113.253 128.599 113.7 128.563C114.997 128.456 109.382 127.524 106.78 127.415L104.555 127.321L103.941 128.079ZM142.373 127.563C141.615 127.662 140.09 127.933 138.983 128.165L136.97 128.586L139.356 128.477C140.669 128.416 142.29 128.277 142.958 128.168C144.649 127.891 145.686 127.917 146.356 128.254C146.67 128.412 147.204 128.609 147.542 128.69L148.156 128.837L147.542 128.099C146.938 127.374 146.9 127.361 145.339 127.373C144.465 127.379 143.13 127.465 142.373 127.563ZM73.7596 144.703C74.1791 145.228 75.5471 147.306 76.7997 149.321C78.052 151.336 79.113 152.949 79.1575 152.904C79.202 152.86 79.0467 152.267 78.8124 151.586C78.0575 149.392 75.8062 146.178 73.8234 144.464L72.9967 143.75L73.7596 144.703ZM176.667 145.499C174.949 147.321 173.357 149.727 172.726 151.458C172.454 152.203 172.272 152.851 172.321 152.9C172.37 152.95 173.292 151.578 174.369 149.853C175.446 148.128 176.74 146.12 177.245 145.392C177.751 144.664 178.131 144.068 178.091 144.068C178.05 144.068 177.41 144.712 176.667 145.499ZM123.517 183.679C123.226 183.773 122.147 184.118 121.12 184.445C120.093 184.773 119.206 185.118 119.148 185.211C118.975 185.491 121.207 185.399 122.418 185.077C123.834 184.7 124.602 184.212 124.441 183.792C124.306 183.44 124.271 183.436 123.517 183.679ZM127.042 183.792C126.763 184.52 129.592 185.49 131.568 185.343L132.521 185.272L131.674 184.89C131.208 184.681 130.174 184.327 129.377 184.106C128.58 183.884 127.757 183.649 127.548 183.582C127.315 183.508 127.12 183.589 127.042 183.792ZM104.661 203.649C104.661 203.949 105.795 207.678 106.29 209.004C107.42 212.035 108.39 213.693 109.464 214.432L110.462 215.118L109.652 213.65C107.693 210.096 106.119 206.972 105.496 205.403C104.859 203.797 104.661 203.38 104.661 203.649ZM146.189 204.921C145.676 206.334 143.944 209.835 142.134 213.116L141.035 215.109L142.026 214.427C142.807 213.889 143.195 213.39 143.86 212.068C144.324 211.145 144.928 209.792 145.203 209.061C145.836 207.378 146.871 203.792 146.757 203.678C146.709 203.631 146.454 204.19 146.189 204.921Z" fill="#33353A"/>
</g>
<defs>
<clipPath id="clip0_681_5680">
<rect width="250" height="211.864" fill="white" transform="translate(0 19.0679)"/>
</clipPath>
</defs>
</svg>
