<svg width="250" height="250" viewBox="0 0 250 250" fill="none" xmlns="http://www.w3.org/2000/svg">
<g clip-path="url(#clip0_820_5690)">
<path fill-rule="evenodd" clip-rule="evenodd" d="M122.246 19.1964C117.323 20.0936 115.675 20.6733 109.64 23.6297C103.07 26.8479 99.1008 29.6968 94.2488 34.6756C92.0058 36.9771 91.6724 37.4248 90.5855 39.5922C89.1709 42.4127 88.3919 44.6614 87.5277 48.4191C86.3895 53.3678 86.1402 55.5892 86.1493 60.6992C86.1599 66.5472 86.7442 70.5869 88.2027 74.8941C91.1152 83.4943 93.3821 86.9189 101.832 95.4816C104.499 98.1835 105.518 99.0684 106.78 99.7748C108.382 100.672 109.401 101.76 111 104.282C111.836 105.601 111.864 105.886 111.415 108.522C110.684 112.804 109.517 114.528 106.583 115.66C104.044 116.639 102.56 116.936 99.0605 117.17C97.32 117.286 95.8423 117.435 95.7766 117.501C95.5238 117.755 96.6137 118.366 97.8035 118.637C98.9283 118.894 98.9914 118.936 98.4658 119.081C98.1173 119.178 97.4387 119.122 96.7709 118.943C96.1582 118.778 93.9885 118.396 91.9493 118.094C87.1338 117.38 83.2141 117.453 80.1035 118.314C77.7808 118.957 73.7558 120.603 71.1899 121.959C69.5041 122.85 69.3397 122.895 68.5416 122.687C65.8474 121.986 63.6277 121.567 61.7126 121.396C60.5222 121.291 58.7279 121.095 57.7255 120.962C56.6175 120.814 54.2679 120.758 51.7334 120.819C47.6397 120.918 47.4785 120.94 42.9027 121.996C37.2919 123.292 33.9821 124.277 32.4154 125.117C31.4529 125.633 31.1554 125.936 30.7056 126.858C30.176 127.944 29.4626 128.889 29.7088 128.178C32.7673 119.348 33.2166 117.496 33.4116 112.921C33.5486 109.703 33.3198 107.231 32.49 102.966L31.9334 100.106L32.1594 93.5381C32.3599 87.7102 32.4586 86.5718 33.0366 83.4326C34.0639 77.8517 35.1779 75.2284 37.1283 73.7966C39.4114 72.1208 40.9851 70.7133 42.0039 69.4364C42.5842 68.7093 43.0953 68.0748 43.1397 68.0261C43.184 67.9775 43.2205 68.0862 43.2205 68.2676C43.2205 68.4489 42.7914 69.1803 42.2671 69.8926C41.3069 71.1968 41.0991 71.9464 41.5679 72.4153C42.0448 72.8922 42.8501 72.6703 44.3601 71.6462C45.19 71.0833 46.5501 70.2267 47.3828 69.7428C49.9963 68.2239 49.8671 67.1335 46.616 63.2716C45.6491 62.1231 45.0628 61.2928 45.313 61.4267C45.5635 61.5608 46.4936 62.5481 47.38 63.6212C48.2664 64.6941 49.2075 65.658 49.4711 65.7631C50.5465 66.1917 50.9908 65.4943 51.1972 63.0536L51.3249 61.5426L50.0732 60.1674C49.3847 59.4112 47.9664 57.99 46.9213 57.0093C45.8764 56.0286 44.6876 54.8983 44.2798 54.4975C43.5893 53.8189 43.5785 53.789 44.1226 54.0627C44.444 54.2246 45.9383 55.5216 47.4431 56.9453C50.158 59.5138 50.7387 59.8578 51.2726 59.2146C51.7758 58.6085 51.1669 55.0689 50.366 53.9441C50.0118 53.4466 47.5586 51.5167 45.4143 50.0487C45.0751 49.8163 45.0891 49.8114 45.5177 50.0138C46.5215 50.4873 47.4715 49.7733 47.1567 48.7818C46.9141 48.0172 39.1495 43.4034 37.6921 43.1578C37.4118 43.1106 36.8279 42.9146 36.3946 42.7225C35.0573 42.129 34.1219 42.3053 33.1791 43.3282C32.9338 43.5945 32.0181 44.0758 31.1442 44.3979C21.8582 47.8214 19.5599 51.1841 19.0624 62.0763C18.9031 65.5608 18.7416 66.8612 18.0313 70.382C17.2569 74.2208 17.0279 74.9623 15.1855 79.5981C14.0836 82.3712 13.0158 85.1642 12.8124 85.8051C12.6092 86.446 11.894 88.3528 11.2232 90.0424C7.59377 99.1839 6.23953 103.747 4.33911 113.242C2.81305 120.864 2.67873 121.889 2.67258 125.953C2.6675 129.332 2.74652 130.226 3.36707 133.792C4.18805 138.511 4.19271 140.786 3.38762 144.054C2.95945 145.793 2.92618 146.201 3.13254 147.184C3.26305 147.806 3.63084 148.679 3.95012 149.123C4.85034 150.375 7.03953 151.992 8.02089 152.13C8.48063 152.195 10.32 152.028 12.1086 151.761C17.4133 150.967 18.0925 150.941 20.0236 151.464C20.9546 151.716 23.0986 152.582 24.7883 153.389C30.2984 156.019 36.2166 156.994 46.6499 156.99C48.9003 156.989 52.6961 157.099 55.0849 157.233C58.4541 157.423 60.4258 157.418 63.8772 157.214C69.9287 156.855 71.1404 157.012 74.2586 158.564C75.5404 159.201 77.1135 160.074 77.7544 160.504C79.434 161.63 80.0461 161.856 80.7499 161.611C81.3234 161.411 81.337 161.37 81.2626 160.046C81.2192 159.274 81.2688 158.738 81.377 158.805C81.4821 158.87 81.5683 159.275 81.569 159.705C81.5696 160.135 81.7645 161.822 82.002 163.453C82.8037 168.96 85.4571 175.726 88.5245 180.085C89.9052 182.046 92.0743 184.12 93.4349 184.779C95.469 185.765 99.9588 186.418 104.873 186.445C106.726 186.455 106.844 186.48 106.356 186.758C106.038 186.94 105.224 187.064 104.319 187.069C102.19 187.079 96.873 186.324 94.4916 185.671C91.6342 184.889 91.559 184.878 91.194 185.181C90.7236 185.571 90.9408 186.601 92.2641 190.254C92.8762 191.944 93.5448 194.184 93.7501 195.233C94.4766 198.944 94.4832 204.343 93.7715 212.818C93.5952 214.915 93.3361 218.466 93.1952 220.708C92.9497 224.62 92.9558 224.802 93.3448 225.233C94.2561 226.242 97.8798 227.588 102.966 228.806C105.478 229.408 111.942 230.241 116.102 230.501C120.553 230.778 130.845 230.78 135.378 230.504C145.686 229.877 156.392 227.361 158.244 225.129C158.49 224.832 158.496 224.099 158.282 220.492C158.142 218.136 157.873 214.539 157.686 212.5C157.481 210.288 157.337 206.528 157.327 203.178C157.306 196.465 157.532 194.927 159.222 190.261C160.543 186.613 160.762 185.573 160.289 185.181C159.924 184.878 159.849 184.889 156.992 185.671C154.61 186.324 149.294 187.079 147.164 187.069C146.259 187.064 145.445 186.94 145.127 186.758C144.638 186.479 144.747 186.455 146.527 186.448C149.303 186.437 153.68 186.051 155.403 185.665C158.482 184.975 160.414 183.586 162.7 180.419C166.566 175.064 169.219 167.744 169.839 160.725C169.912 159.895 170.057 159.073 170.161 158.898C170.279 158.7 170.3 158.952 170.217 159.566C169.882 162.066 170.967 162.356 173.729 160.504C174.37 160.074 175.943 159.201 177.225 158.564C180.343 157.012 181.555 156.855 187.606 157.214C191.058 157.418 193.029 157.423 196.398 157.233C198.787 157.099 202.583 156.989 204.833 156.99C215.267 156.994 221.185 156.019 226.695 153.389C228.385 152.582 230.529 151.716 231.46 151.464C233.389 150.942 234.074 150.967 239.342 151.756C243.584 152.391 243.893 152.351 245.663 150.941C247.39 149.565 248.044 148.649 248.353 147.172C248.557 146.2 248.521 145.78 248.076 143.949C247.355 140.985 247.389 137.476 248.179 133.263C248.888 129.482 249.081 125.86 248.747 122.653C248.297 118.347 245.728 105.682 244.496 101.695C243.897 99.7559 241.427 92.9655 239.641 88.3475C239.168 87.1239 238.31 84.8358 237.734 83.2627C237.158 81.6896 236.155 79.1021 235.506 77.5129C234.53 75.1231 234.175 73.8769 233.456 70.3095C232.717 66.6426 232.561 65.3922 232.412 61.9703C232.097 54.7422 230.938 51.1449 228.106 48.5987C226.585 47.2311 224.264 45.9233 221.294 44.7606C219.896 44.2133 218.561 43.5623 218.327 43.3133C217.401 42.3263 216.276 42.114 215.148 42.7136C214.799 42.8994 214.24 43.0968 213.907 43.1523C213.236 43.264 210.849 44.4725 207.969 46.1578C204.529 48.1714 204.043 48.6297 204.343 49.5758C204.511 50.1057 205.312 50.3218 205.966 50.0138C206.394 49.8119 206.408 49.8165 206.07 50.0487C203.336 51.9284 201.317 53.6106 200.915 54.3432C200.287 55.49 199.808 58.7297 200.198 59.1992C200.742 59.8544 201.309 59.5292 203.927 57.061C208.113 53.1146 208.304 53.3691 204.2 57.4235C201.69 59.9025 200.404 61.3269 200.301 61.7417C200.115 62.4922 200.499 65.1517 200.855 65.5809C200.996 65.7508 201.365 65.8898 201.676 65.8898C202.132 65.8898 202.575 65.4856 203.994 63.7712C204.959 62.6059 205.942 61.5487 206.18 61.4214C206.417 61.2943 205.959 61.9642 205.16 62.91C202.648 65.8841 201.981 67.2737 202.461 68.5258C202.533 68.7129 203.272 69.2612 204.103 69.7443C204.934 70.2275 206.293 71.0833 207.123 71.6462C208.773 72.765 209.548 72.9182 210.036 72.2214C210.416 71.6786 210.32 71.3881 209.308 70.0212C208.876 69.4386 208.46 68.7235 208.382 68.4322C208.248 67.9278 208.264 67.9326 208.724 68.5381C209.806 69.9629 211.45 71.5468 213.463 73.1061C215.066 74.3466 215.737 75.0195 216.176 75.8275C217.127 77.5748 217.782 79.7627 218.464 83.4746C219.035 86.5828 219.131 87.7102 219.329 93.6441L219.551 100.318L219.006 103.072C217.902 108.656 217.757 112.895 218.515 117.434C218.813 119.217 221.105 126.566 221.757 127.831C221.962 128.229 221.985 128.409 221.823 128.355C221.688 128.31 221.275 127.703 220.905 127.007C220.345 125.951 220.04 125.638 219.068 125.117C217.501 124.277 214.191 123.292 208.581 121.996C204.005 120.94 203.844 120.918 199.75 120.819C197.215 120.758 194.866 120.814 193.758 120.962C192.755 121.095 190.961 121.29 189.771 121.396C188.58 121.501 186.381 121.88 184.885 122.236L182.164 122.884L179.376 121.517C173.497 118.633 170.712 117.809 166.314 117.653C163.715 117.561 162.67 117.629 159.534 118.094C157.495 118.396 155.317 118.781 154.695 118.948C154.009 119.132 153.383 119.184 153.106 119.079C152.71 118.93 152.777 118.875 153.602 118.668C154.742 118.382 155.552 117.989 155.658 117.669C155.744 117.408 153.903 117.163 151.823 117.158C148.761 117.152 143.783 115.6 142.462 114.24C141.429 113.177 140.565 111.238 140.167 109.094C139.58 105.921 139.644 105.532 141.104 103.426C142.89 100.849 142.953 100.786 144.945 99.6093C146.35 98.7792 147.338 97.9297 149.584 95.6203C158.213 86.7447 160.453 83.3661 163.321 74.8941C165.575 68.2384 166.055 58.5934 164.513 50.9449C163.455 45.6951 162.767 43.4629 161.252 40.3602C159.654 37.0883 159.116 36.3968 155.398 32.8354C151.52 29.1208 147.897 26.6138 142.573 23.9621C134.816 20.0977 132.055 19.2809 126.377 19.1701C124.396 19.1316 122.537 19.1434 122.246 19.1964ZM37.7099 46.9578C38.0605 47.615 38.3476 48.4731 38.3476 48.8646C38.3476 49.2559 38.4408 49.5763 38.5546 49.5763C38.9573 49.5763 39.4573 48.5345 39.319 47.9835C39.1785 47.4235 37.658 45.7627 37.2861 45.7627C37.1683 45.7627 37.359 46.3004 37.7099 46.9578ZM213.141 46.6049C212.121 47.625 211.902 48.3246 212.376 49.0481C212.841 49.7581 213.136 49.714 213.136 48.9345C213.136 48.5818 213.423 47.7237 213.774 47.0278C214.126 46.332 214.316 45.7627 214.198 45.7627C214.08 45.7627 213.604 46.1417 213.141 46.6049ZM37.2883 52.3038C37.2883 52.5282 37.6162 53.1992 38.0173 53.7949C38.4347 54.4153 38.8071 55.2854 38.8891 55.8314C39.1421 57.5184 39.4736 57.204 39.3679 55.3775C39.2603 53.5189 38.8904 52.7244 37.8925 52.2083C37.3292 51.9169 37.2883 51.9235 37.2883 52.3038ZM213.537 52.2324C212.62 52.7167 212.228 53.5475 212.12 55.2362C212.004 57.0381 212.286 57.2625 212.662 55.6674C212.806 55.0557 213.215 54.1396 213.571 53.6318C213.927 53.1239 214.189 52.5358 214.154 52.3246C214.096 51.9792 214.034 51.9699 213.537 52.2324ZM42.0361 60.1388C42.12 60.2744 42.3177 60.9803 42.4758 61.7074C42.6614 62.5612 42.7686 62.8044 42.7787 62.3941C42.7991 61.5699 42.4234 60.2256 42.1205 60.0386C41.976 59.9492 41.9431 59.9881 42.0361 60.1388ZM209.107 60.3875C208.981 60.6237 208.836 61.315 208.785 61.9235L208.694 63.0297L208.971 61.8485C209.124 61.1989 209.31 60.5076 209.384 60.3125C209.575 59.8172 209.385 59.8684 209.107 60.3875ZM21.8262 71.6176C22.0804 72.0928 25.3054 76.4199 25.6891 76.8009C25.8067 76.9174 25.5092 76.25 25.0283 75.3178C24.1319 73.5799 22.7476 71.7803 21.9993 71.3797C21.6135 71.1733 21.5991 71.1932 21.8262 71.6176ZM228.481 72.339C227.881 72.9729 226.984 74.2839 226.486 75.2521C225.988 76.2206 225.677 76.9174 225.794 76.8009C226.171 76.4271 229.401 72.0972 229.649 71.6337C230.056 70.8718 229.618 71.1367 228.481 72.339ZM112.606 102.705C113.249 103.362 116.555 104.385 119.234 104.755C122.417 105.194 129.078 105.193 132.249 104.753C134.997 104.371 138.358 103.335 138.918 102.696C139.29 102.271 139.289 102.264 138.877 102.429C137.706 102.901 135.573 103.392 132.921 103.799C131.303 104.047 129.572 104.342 129.076 104.456C128.579 104.568 127.078 104.661 125.742 104.661C124.405 104.661 122.905 104.568 122.408 104.456C121.911 104.342 120.181 104.047 118.562 103.799C115.937 103.396 113.851 102.918 112.606 102.436L112.182 102.272L112.606 102.705ZM115.89 111.5C115.89 111.572 116.138 112.416 116.441 113.376C117.732 117.461 119.561 120.805 121.526 122.669L122.53 123.623L121.776 122.564C120.462 120.719 118.042 116.293 117.027 113.877C116.078 111.619 115.89 111.226 115.89 111.5ZM134.854 112.975C133.788 115.723 131.486 120.017 129.712 122.564L128.973 123.623L129.867 122.775C131.133 121.574 132.515 119.582 133.378 117.714C134.173 115.994 135.681 111.67 135.537 111.525C135.489 111.477 135.181 112.13 134.854 112.975ZM52.0696 123.962C49.9823 124.166 46.5575 124.831 45.1272 125.311L44.1739 125.631L45.1272 125.539C50.2724 125.046 52.344 124.956 56.5126 125.045C59.109 125.1 61.2054 125.118 61.1711 125.083C61.0626 124.975 55.8696 123.983 54.873 123.88C54.3486 123.826 53.0872 123.863 52.0696 123.962ZM194.598 124.183C189.626 125.066 189.707 125.106 196.45 125.106C200.33 125.106 203.468 125.21 204.841 125.385C206.047 125.539 207.078 125.62 207.132 125.566C207.285 125.413 202.847 124.413 200.954 124.174C197.732 123.767 196.937 123.768 194.598 124.183ZM103.941 128.079L103.327 128.837L103.941 128.69C104.279 128.609 104.835 128.401 105.177 128.228C105.83 127.899 106.114 127.907 110.628 128.389C111.87 128.521 113.253 128.599 113.7 128.563C114.997 128.456 109.382 127.524 106.78 127.415L104.555 127.321L103.941 128.079ZM142.373 127.563C141.616 127.662 140.09 127.933 138.983 128.165L136.97 128.586L139.357 128.477C140.669 128.416 142.29 128.277 142.958 128.168C144.649 127.891 145.687 127.917 146.356 128.254C146.671 128.412 147.204 128.609 147.542 128.69L148.156 128.837L147.542 128.099C146.939 127.374 146.901 127.361 145.339 127.373C144.465 127.379 143.13 127.465 142.373 127.563ZM73.7599 144.703C74.1794 145.228 75.5474 147.306 76.7999 149.321C78.0522 151.336 79.1133 152.949 79.1577 152.904C79.2022 152.86 79.0469 152.267 78.8126 151.586C78.0577 149.392 75.8065 146.178 73.8236 144.464L72.9969 143.75L73.7599 144.703ZM176.668 145.499C174.949 147.321 173.358 149.727 172.726 151.458C172.454 152.203 172.272 152.851 172.322 152.9C172.371 152.95 173.292 151.578 174.369 149.853C175.446 148.128 176.741 146.12 177.246 145.392C177.751 144.664 178.131 144.068 178.091 144.068C178.051 144.068 177.41 144.712 176.668 145.499ZM123.517 183.679C123.226 183.773 122.147 184.118 121.12 184.445C120.093 184.773 119.206 185.118 119.148 185.211C118.975 185.491 121.208 185.399 122.418 185.077C123.834 184.7 124.602 184.212 124.441 183.792C124.306 183.44 124.272 183.436 123.517 183.679ZM127.042 183.792C126.763 184.52 129.592 185.49 131.568 185.343L132.521 185.272L131.674 184.89C131.208 184.681 130.174 184.327 129.377 184.106C128.58 183.884 127.757 183.649 127.548 183.582C127.316 183.508 127.12 183.589 127.042 183.792ZM104.661 203.649C104.661 203.949 105.795 207.678 106.29 209.004C107.421 212.035 108.39 213.693 109.464 214.432L110.462 215.118L109.653 213.65C107.693 210.096 106.119 206.972 105.496 205.403C104.86 203.797 104.661 203.38 104.661 203.649ZM146.189 204.921C145.676 206.334 143.944 209.835 142.134 213.116L141.035 215.109L142.026 214.427C142.808 213.889 143.195 213.39 143.86 212.068C144.324 211.145 144.929 209.792 145.204 209.061C145.837 207.378 146.872 203.792 146.757 203.678C146.71 203.631 146.454 204.19 146.189 204.921Z" fill="#808080"/>
</g>
<defs>
<clipPath id="clip0_820_5690">
<rect width="250" height="211.864" fill="white" transform="translate(0 19.0679)"/>
</clipPath>
</defs>
</svg>
