<svg xmlns="http://www.w3.org/2000/svg" xmlns:xlink="http://www.w3.org/1999/xlink" width="1920" zoomAndPan="magnify" viewBox="0 0 1440 764.999999" height="1020" preserveAspectRatio="xMidYMid meet" version="1.0"><defs><clipPath id="d7c9dbfd98"><path d="M 94.703125 82 L 1344.953125 82 L 1344.953125 688 L 94.703125 688 Z M 94.703125 82 " clip-rule="nonzero"/></clipPath></defs><g clip-path="url(#d7c9dbfd98)"><path fill="#c49102" d="M 681.761719 82.71875 C 601.746094 83.839844 570.390625 88.601562 548.328125 102.980469 C 534.175781 112.203125 523.75 129.082031 519.0625 150.367188 C 517.277344 158.46875 516.675781 179.972656 518.164062 182.519531 C 518.835938 183.667969 519.660156 184.496094 520.421875 184.789062 C 520.96875 185 520.828125 185.253906 519.429688 186.554688 C 515.226562 190.46875 515.355469 194.84375 519.816406 199.339844 C 520.945312 200.476562 522.511719 202.121094 523.296875 202.992188 C 524.082031 203.863281 524.96875 204.683594 525.261719 204.808594 C 525.589844 204.945312 525.648438 205.109375 525.414062 205.21875 C 512.152344 211.703125 495.996094 226.929688 485.664062 242.675781 C 451.714844 294.417969 461.28125 374.257812 506.050781 412.828125 C 518.972656 423.957031 529.058594 429.625 552.5625 438.953125 C 568.699219 445.355469 572.101562 447.3125 576.386719 452.652344 C 583.683594 461.746094 586.898438 480.722656 586.199219 510.535156 C 585.941406 521.363281 585.027344 543.328125 584.757812 545.015625 C 584.492188 546.699219 583.894531 557.027344 583.5 566.8125 C 582.75 585.324219 576.734375 674.640625 576.199219 675.171875 C 576.136719 675.238281 467.808594 675.996094 335.480469 676.851562 C 203.148438 677.710938 94.839844 678.425781 94.792969 678.441406 C 94.742188 678.457031 94.703125 680.476562 94.703125 682.925781 L 94.703125 687.375 L 116.230469 687.183594 C 128.070312 687.074219 237.207031 686.355469 358.753906 685.582031 C 571.953125 684.226562 581.714844 684.128906 581.714844 683.433594 C 581.714844 683.257812 581.921875 683.117188 582.171875 683.117188 C 583.796875 683.117188 584.324219 680.796875 584.980469 670.792969 C 585.265625 666.429688 585.503906 664.59375 585.71875 665.078125 C 586.503906 666.839844 589.378906 667.519531 591.34375 666.414062 C 593.820312 665.011719 593.539062 666.949219 596.550781 630.769531 C 601.917969 566.386719 606.433594 531.210938 611.324219 515.671875 L 612.320312 512.5 L 612.753906 514.453125 C 614.894531 524.121094 615.570312 546.914062 615.03125 591.285156 C 614.285156 653.011719 615.398438 664.992188 621.917969 665.535156 C 626.496094 665.914062 628.003906 662.609375 630.105469 647.5625 C 631.808594 635.378906 633.382812 620.289062 637.289062 578.78125 C 641.972656 528.988281 646.617188 506.5625 653.96875 498.207031 C 655.652344 496.296875 656.417969 496.203125 657.589844 497.761719 C 664.066406 506.398438 667.917969 534.558594 667.351562 569.132812 C 667.121094 582.960938 666.996094 585.65625 665.503906 609.511719 C 662.164062 662.960938 664.171875 680.257812 673.726562 680.257812 C 683.0625 680.257812 686.800781 657.457031 688.722656 588.785156 C 690.226562 535.054688 691.890625 518.175781 697.160156 503.15625 C 703.890625 483.988281 711.5625 487.34375 717.800781 512.195312 C 723.453125 534.714844 724.691406 559.078125 722.855469 611.296875 C 721.199219 658.273438 724.894531 679.183594 734.835938 679.183594 C 745.097656 679.183594 749.234375 657.21875 753.230469 581.460938 C 756.023438 528.59375 759.304688 509.855469 768.113281 496.527344 C 777.164062 482.828125 786.199219 489.59375 792.164062 514.535156 C 795.742188 529.523438 797.011719 545.195312 796.714844 570.742188 C 796.519531 587.1875 796.28125 592.351562 794.507812 618.085938 C 792.300781 650.113281 792.109375 662.140625 793.753906 666.035156 C 795.597656 670.402344 800.917969 670.039062 802.90625 665.40625 C 805.898438 658.417969 808.800781 631.980469 812.535156 577.707031 C 815.964844 527.808594 818.171875 512.101562 822.914062 503.835938 C 824.488281 501.089844 825.578125 501.636719 827.976562 506.382812 C 835.390625 521.074219 838.453125 547.824219 839.519531 607.1875 C 840.324219 652.003906 842.085938 662.75 848.628906 662.75 C 853.355469 662.75 855.257812 657.78125 857.1875 640.417969 C 859.085938 623.367188 859.621094 610.105469 860.246094 565.023438 C 860.816406 523.902344 861.011719 518.6875 862.445312 506.425781 C 863.152344 500.382812 863.394531 500.054688 864.144531 504.152344 C 867.230469 520.902344 868.894531 541.292969 870.960938 587.535156 C 873.992188 655.257812 876.515625 671.082031 884.136719 670.191406 L 885.339844 670.050781 L 885.550781 676.316406 C 885.664062 679.761719 885.71875 683.183594 885.671875 683.921875 C 885.625 684.65625 885.722656 685.257812 885.886719 685.257812 C 886.054688 685.257812 886.089844 685.421875 885.96875 685.617188 C 885.847656 685.8125 885.929688 685.976562 886.148438 685.976562 C 886.367188 685.976562 886.449219 686.136719 886.324219 686.332031 C 886.203125 686.527344 886.335938 686.6875 886.621094 686.6875 C 886.910156 686.6875 887.230469 686.921875 887.339844 687.207031 C 887.738281 688.246094 906.625 688.25 957.964844 687.230469 C 962.78125 687.132812 972.992188 686.964844 980.652344 686.863281 C 1003.691406 686.546875 1059.667969 685.726562 1077.664062 685.441406 C 1093.734375 685.183594 1111.011719 684.929688 1137.871094 684.546875 C 1162.519531 684.195312 1177.886719 683.964844 1198.078125 683.640625 C 1204.464844 683.535156 1226.253906 683.222656 1246.496094 682.941406 C 1266.734375 682.660156 1287.558594 682.34375 1292.765625 682.238281 C 1297.976562 682.136719 1310.757812 681.964844 1321.175781 681.859375 C 1331.589844 681.75 1341.277344 681.578125 1342.699219 681.46875 L 1345.292969 681.269531 L 1345.292969 672.660156 L 1333.234375 672.902344 C 1326.597656 673.035156 1234.269531 674.421875 1128.046875 675.980469 C 1021.828125 677.539062 925.753906 678.964844 914.554688 679.148438 C 903.351562 679.328125 894.117188 679.410156 894.03125 679.324219 C 893.945312 679.242188 893.746094 675.117188 893.59375 670.160156 C 893.4375 665.199219 893.0625 656.300781 892.757812 650.382812 C 892.269531 640.804688 892.265625 638.753906 892.734375 631.625 C 895.132812 595.332031 897.007812 492.535156 895.515625 479.089844 C 894.496094 469.890625 893.296875 466.109375 890.972656 464.757812 C 887.824219 462.9375 884.382812 465 882.976562 469.554688 C 879.496094 480.820312 877.84375 518.40625 879.304688 553.054688 C 880.011719 569.90625 881.457031 598.097656 882.71875 619.695312 C 883.820312 638.570312 883.933594 644.714844 883.199219 645.449219 C 883.050781 645.597656 882.929688 645.328125 882.929688 644.851562 C 882.929688 644.382812 882.695312 641.738281 882.40625 638.988281 C 881.214844 627.542969 880.199219 610.929688 879.003906 583.425781 C 875.550781 504.070312 871.117188 480.746094 860.609375 486.695312 C 854.25 490.300781 852.554688 506.125 852.03125 566.8125 C 851.726562 601.726562 850.179688 637.738281 848.980469 637.738281 C 848.53125 637.738281 848.394531 633.746094 847.1875 585.210938 C 846.335938 550.984375 844.128906 529.671875 839.851562 514.402344 C 834.890625 496.671875 827.027344 489.390625 819.246094 495.332031 C 812.070312 500.808594 808.425781 517.933594 805.472656 560.023438 C 805.21875 563.636719 805.175781 563.15625 804.945312 554.125 C 804.273438 527.796875 800.605469 507.425781 794.226562 494.636719 C 783.277344 472.675781 763.488281 478.425781 754.304688 506.246094 C 749.261719 521.511719 747.246094 537.714844 745.003906 581.105469 C 742.523438 629.097656 739.96875 652.847656 735.84375 666.324219 L 734.910156 669.363281 L 734.257812 667.464844 C 730.925781 657.777344 730.117188 641.234375 731.25 605.550781 C 731.925781 584.175781 731.851562 554.015625 731.101562 544.835938 C 729.304688 522.800781 726.230469 507.347656 721.414062 496.136719 C 712.316406 474.957031 695.773438 478.265625 688.414062 502.734375 C 683.589844 518.769531 681.996094 535.398438 680.695312 583.425781 C 679.5625 625.050781 677.988281 647.269531 675.105469 662.214844 C 674.027344 667.789062 673.777344 668.171875 673.257812 665 C 671.734375 655.640625 671.808594 640.003906 673.507812 613.261719 C 676.394531 567.851562 676.394531 547.230469 673.511719 523.933594 C 670.535156 499.894531 664.878906 488.382812 656.039062 488.382812 C 642.34375 488.382812 635.125 512.273438 629.050781 577.707031 C 626.886719 601.019531 625.347656 616.800781 624.328125 626.125 L 623.347656 635.058594 L 623.070312 629.878906 C 622.917969 627.027344 622.964844 609.261719 623.175781 590.394531 C 623.992188 516.910156 622.117188 500.886719 612.679688 500.886719 C 603.949219 500.886719 598.664062 522.359375 592.636719 582.355469 C 591.957031 589.136719 591.328125 595.328125 591.234375 596.109375 C 590.410156 603.445312 591.796875 566.683594 593.15625 545.21875 C 595.46875 508.703125 604.949219 486.984375 622.421875 478.175781 C 637.480469 470.582031 648.871094 469.6875 737.683594 469.089844 C 798.707031 468.679688 817.28125 468.277344 837.195312 466.929688 C 865.644531 465.007812 887.566406 460.914062 898.265625 455.519531 C 910.835938 449.1875 909 439.523438 894.453125 435.464844 C 891.8125 434.722656 892.167969 434.75 899.507812 435.859375 C 959.75 444.945312 1016.566406 409.636719 1032.441406 353.242188 C 1045.527344 306.765625 1028.507812 250.8125 991.910156 219.984375 C 987.261719 216.066406 974.609375 208.605469 972.617188 208.605469 C 972.117188 208.605469 972.210938 207.707031 974.089844 194.851562 C 979.773438 155.917969 973.464844 139.972656 942.601562 115.195312 C 913.8125 92.082031 899.148438 87.074219 854.167969 84.992188 C 812.027344 83.042969 733.074219 82 681.761719 82.71875 M 797.535156 91.375 C 900.351562 94.167969 906.179688 95.519531 940.917969 124.578125 C 956.96875 138 963.316406 146.847656 966.339844 159.996094 C 966.992188 162.835938 967.152344 162.75 964.417969 161.015625 C 944.507812 148.355469 899.398438 145.308594 785.742188 148.945312 C 779.355469 149.148438 760.703125 149.785156 744.292969 150.363281 C 690.074219 152.265625 687.929688 152.308594 649.429688 152.148438 C 585.792969 151.886719 564.085938 151.953125 559.027344 152.441406 C 542.546875 154.015625 533.292969 156.960938 527.21875 162.5625 L 525.621094 164.035156 L 525.621094 162.871094 C 525.621094 147.734375 537.09375 122.316406 547.820312 113.699219 C 567.457031 97.921875 595.464844 92.796875 671.582031 91.058594 C 688.605469 90.667969 780.0625 90.898438 797.535156 91.375 M 892.757812 156.097656 C 923.910156 157.285156 945.589844 160.761719 956.714844 166.355469 C 967.554688 171.804688 968.625 176.460938 962.425781 191.1875 C 960.929688 194.746094 961.1875 194.59375 958.5625 193.433594 C 950.414062 189.828125 937.714844 188.832031 892.578125 188.246094 C 801.363281 187.066406 798.652344 187.019531 761.265625 185.910156 C 729.328125 184.96875 700.726562 183.875 649.246094 181.625 C 576.222656 178.4375 562.230469 178.128906 545.628906 179.335938 C 537.816406 179.902344 529.886719 181.289062 526.1875 182.734375 C 525.722656 182.917969 525.582031 182.871094 525.75 182.601562 C 525.886719 182.382812 526.316406 180.945312 526.703125 179.414062 C 529.679688 167.632812 537.960938 162.894531 559.386719 160.707031 C 565.644531 160.066406 594.753906 159.902344 627.453125 160.320312 C 667.761719 160.839844 691.074219 160.488281 744.113281 158.578125 C 783.484375 157.15625 803.925781 156.546875 831.476562 155.964844 C 844.222656 155.695312 884.507812 155.78125 892.757812 156.097656 M 594.402344 187.539062 C 599.707031 187.742188 620.609375 188.617188 640.851562 189.496094 C 748.242188 194.144531 787.519531 195.277344 869.351562 196.101562 C 935.679688 196.765625 947.414062 197.554688 957.269531 202.007812 C 959.75 203.125 960.457031 203.292969 962.277344 203.1875 L 964.398438 203.070312 L 964.398438 204.171875 C 964.398438 205.683594 964.269531 205.738281 962.058594 205.164062 C 947.703125 201.414062 928.746094 200.605469 846.128906 200.222656 C 801.886719 200.015625 776.859375 199.714844 725.714844 198.773438 C 709.894531 198.484375 679.425781 198.082031 658.003906 197.886719 C 612.078125 197.46875 599.007812 196.917969 584.753906 194.8125 C 575.109375 193.386719 561.230469 193.804688 551.523438 195.8125 C 540.914062 198.007812 530.226562 197.011719 526.070312 193.441406 L 525.128906 192.628906 L 526.070312 192.015625 C 532.988281 187.484375 554.835938 186.050781 594.402344 187.539062 M 591.1875 204.554688 C 603.15625 207.085938 615.574219 212.433594 626.808594 219.894531 C 632.171875 223.453125 632.90625 224.214844 628.808594 221.964844 C 616.5625 215.246094 601.398438 208.773438 589.199219 205.046875 C 586.558594 204.246094 584.234375 203.515625 584.039062 203.433594 C 583.210938 203.089844 587.210938 203.714844 591.1875 204.554688 M 558.3125 205.769531 C 577.675781 208.613281 597.523438 214.824219 615.980469 223.824219 C 624.320312 227.886719 625.84375 228.722656 639.066406 236.476562 C 643.980469 239.355469 649.074219 242.3125 650.390625 243.042969 C 654.925781 245.570312 663.359375 259.707031 668.507812 273.40625 C 673.117188 285.679688 676.421875 303 675.171875 308.316406 C 674.8125 309.84375 674.628906 312.460938 674.621094 316.070312 C 674.621094 320.195312 674.511719 321.511719 674.171875 321.496094 C 673.925781 321.484375 670.796875 320.640625 667.210938 319.621094 L 660.703125 317.765625 L 660.53125 311.871094 C 658.734375 249.667969 591.222656 208.984375 543.121094 241.105469 C 491.171875 275.800781 487.738281 365.859375 536.875 404.957031 C 563.867188 426.429688 602.800781 427.5625 633.449219 407.757812 C 637.007812 405.457031 636.742188 405.480469 636.742188 407.46875 C 636.742188 411.566406 640.335938 414.261719 647.832031 415.777344 L 651.144531 416.445312 L 642.246094 416.679688 C 602.089844 417.738281 578.824219 426.019531 584.539062 437.210938 C 589.472656 446.875 630.578125 451.148438 695.699219 448.765625 C 722.191406 447.800781 748.539062 446.523438 781.453125 444.617188 C 855 440.363281 869.964844 440.003906 884.71875 442.136719 C 891.304688 443.089844 898.59375 445.378906 897.710938 446.214844 C 892.882812 450.816406 869.488281 455.953125 843.269531 458.164062 C 821.214844 460.027344 804.03125 460.429688 710.886719 461.246094 C 662.203125 461.667969 652.945312 462.042969 640.242188 464.109375 C 618.179688 467.6875 603.984375 477.382812 595.902344 494.378906 L 594.335938 497.6875 L 594.117188 490.441406 C 593.078125 455.179688 585.644531 442.894531 559.027344 432.46875 C 540.050781 425.035156 532.917969 421.664062 524.011719 415.917969 C 495.753906 397.675781 478.640625 367.863281 474.347656 329.378906 C 468.113281 273.507812 497.609375 221.515625 544.191406 206.277344 C 548.320312 204.925781 551.722656 204.804688 558.3125 205.769531 M 667.648438 206.113281 C 684.75 206.304688 711.519531 206.699219 727.144531 206.992188 C 768.445312 207.757812 808.09375 208.21875 866.136719 208.617188 C 932.980469 209.082031 943.335938 209.574219 958.546875 213.035156 C 979.6875 217.839844 995.5625 230.566406 1009.753906 254.097656 C 1043.160156 309.5 1030.929688 377.238281 981.609375 409.921875 C 923.761719 448.253906 842.046875 425.917969 822.25 366.359375 C 816.894531 350.25 816.125 330.875 820.464844 321.339844 C 821.449219 319.175781 823.90625 312.503906 825.921875 306.507812 C 831.105469 291.109375 832.914062 286.679688 835.6875 282.582031 C 849.953125 261.511719 872.316406 244.441406 896.023438 236.519531 L 900.261719 235.105469 L 904.550781 235.441406 C 970.246094 240.574219 1015.304688 311.425781 981 355.652344 C 955.0625 389.089844 901.492188 377.183594 892.898438 336.074219 C 886.75 306.671875 915.835938 279.832031 937.929688 294.523438 C 950.640625 302.972656 950.671875 322.296875 937.980469 325.957031 C 931.316406 327.882812 925.945312 324.878906 919.847656 315.800781 C 915.398438 309.183594 911.976562 308.171875 909.710938 312.816406 C 908.210938 315.886719 912.046875 327.96875 917.101562 336.089844 C 933.652344 362.667969 969.894531 338.207031 960.660156 306.691406 C 952.003906 277.140625 915.644531 270.53125 888.875 293.636719 C 865.886719 313.484375 861.105469 347.601562 877.730469 373.148438 C 902.074219 410.558594 959.246094 409.84375 996.566406 371.664062 C 1030.753906 336.699219 1034.203125 288.78125 1004.988281 254.8125 C 980.578125 226.429688 942.484375 215.632812 902.566406 225.777344 C 898.714844 226.753906 896.25 227.1875 894.519531 227.1875 C 876.589844 227.1875 855.597656 237.691406 843.679688 252.628906 L 842.140625 254.554688 L 840.910156 253.390625 C 835.523438 248.3125 820.933594 246.691406 793.246094 248.09375 C 785.742188 248.472656 773.246094 248.96875 766.089844 249.175781 C 762.058594 249.289062 758.042969 249.453125 757.160156 249.542969 C 752.789062 249.980469 707.957031 250.132812 701.238281 249.730469 C 684.210938 248.71875 674.625 246.554688 662.773438 241.054688 C 659.742188 239.652344 659.601562 239.527344 655.925781 235.09375 C 646.898438 224.210938 635.367188 214.589844 623.351562 207.925781 L 619.429688 205.75 L 627.996094 205.753906 C 632.707031 205.753906 650.554688 205.917969 667.648438 206.113281 M 936.660156 230.40625 C 989.835938 233.851562 1026.21875 278.332031 1014.058594 325.035156 C 1000.074219 378.726562 937.269531 409.746094 897.992188 382.359375 C 873.707031 365.425781 868.863281 328.105469 888.125 306.332031 L 889.390625 304.902344 L 888.296875 307.148438 C 879.148438 325.871094 884.070312 350.21875 900.265625 366.359375 C 931.683594 397.671875 984.097656 384.175781 998.113281 341.167969 C 1011.726562 299.398438 979.894531 248.699219 929.5625 231.992188 L 924.914062 230.453125 L 927.417969 230.316406 C 928.792969 230.246094 930.238281 230.15625 930.628906 230.121094 C 931.023438 230.089844 933.734375 230.21875 936.660156 230.40625 M 585.113281 238.269531 C 616.859375 241.335938 644.242188 266.8125 650.839844 299.417969 C 651.792969 304.136719 652.585938 311.492188 652.398438 313.886719 L 652.285156 315.347656 L 642.816406 312.550781 C 637.609375 311.011719 630.515625 309 627.050781 308.082031 L 620.753906 306.414062 L 620.566406 301.546875 C 619.285156 268.242188 572.820312 253.1875 547.097656 277.742188 C 522.605469 301.121094 527.058594 342.40625 556.433594 364.304688 C 596.332031 394.042969 650.097656 375.199219 659.25 328.273438 L 659.636719 326.273438 L 664.359375 327.589844 C 666.957031 328.316406 670.261719 329.195312 671.707031 329.546875 L 674.328125 330.1875 L 674.085938 331.796875 C 672.75 340.714844 667.730469 354.871094 662.636719 364.105469 C 629.632812 423.875 556.164062 430.941406 523.9375 377.4375 C 491.859375 324.179688 519.363281 245.746094 572.605469 238.644531 C 578.496094 237.859375 580.3125 237.808594 585.113281 238.269531 M 671.894531 252.738281 C 685.617188 257.121094 709.613281 258.59375 748.042969 257.410156 C 762.097656 256.980469 769.730469 256.707031 779.308594 256.292969 C 818.785156 254.59375 831.183594 255.125 835.253906 258.699219 C 836.84375 260.09375 836.910156 261.738281 835.480469 264.011719 C 834.929688 264.882812 833.613281 267.117188 832.554688 268.980469 C 829.21875 274.820312 819.867188 284.777344 814.980469 287.679688 C 810.03125 290.621094 806.957031 290.921875 788.78125 290.265625 C 785.4375 290.148438 781.742188 289.980469 780.558594 289.890625 C 779.382812 289.808594 776.328125 289.648438 773.773438 289.542969 C 771.21875 289.433594 767.679688 289.265625 765.914062 289.167969 C 764.144531 289.074219 759.160156 288.839844 754.835938 288.648438 C 750.511719 288.453125 745.042969 288.207031 742.6875 288.101562 C 712.316406 286.707031 694.601562 289.078125 684.707031 295.859375 C 682.949219 297.066406 683.132812 297.34375 682.292969 292.21875 C 680.398438 280.632812 675.988281 267.761719 669.960938 256.21875 C 668.601562 253.617188 667.605469 251.484375 667.746094 251.492188 C 667.890625 251.496094 669.757812 252.054688 671.894531 252.738281 M 585.394531 274.546875 C 596.765625 276.910156 605.800781 283.433594 609.933594 292.253906 C 612.300781 297.316406 613.367188 305.023438 611.644531 304.609375 C 606.101562 303.269531 594.410156 303.40625 590.175781 304.851562 C 579.191406 308.609375 576.417969 318.644531 584.320312 326.035156 C 593.710938 334.824219 610.359375 330.332031 617.292969 317.140625 C 617.988281 315.8125 618.753906 314.730469 618.988281 314.730469 C 619.976562 314.738281 650.84375 323.476562 651.363281 323.898438 C 652.8125 325.074219 646.394531 341.632812 641.96875 348.136719 C 620.710938 379.394531 570.476562 376.917969 548.105469 343.507812 C 526.175781 310.75 549.757812 267.140625 585.394531 274.546875 M 818.464844 296.507812 C 815.921875 302.167969 813.160156 309.9375 810.71875 318.289062 C 807.933594 327.808594 804.089844 328.945312 769.664062 330.429688 C 736.855469 331.84375 716.367188 330.59375 692.664062 325.742188 C 688.730469 324.9375 685.054688 324.199219 684.496094 324.101562 C 683.539062 323.9375 683.484375 323.84375 683.6875 322.632812 C 683.804688 321.917969 683.902344 318.027344 683.90625 313.980469 L 683.90625 306.621094 L 685.691406 304.867188 C 692.285156 298.386719 702.277344 295.859375 722.640625 295.53125 C 734.339844 295.34375 740.226562 295.519531 767.699219 296.871094 C 806.46875 298.78125 810.109375 298.664062 816.828125 295.332031 C 819.6875 293.914062 819.644531 293.878906 818.464844 296.507812 M 606.40625 312.265625 C 610.265625 312.769531 610.296875 312.820312 608.527344 315.429688 C 603.941406 322.179688 594.171875 324.363281 589.6875 319.644531 C 584.757812 314.449219 593.539062 310.574219 606.40625 312.265625 M 951.523438 327.085938 C 946.417969 338.988281 933.425781 342.914062 926.375 334.679688 C 924.710938 332.738281 924.757812 332.476562 926.621094 333.273438 C 934.894531 336.820312 945.984375 333.820312 951.148438 326.648438 C 952.289062 325.050781 952.359375 325.132812 951.523438 327.085938 M 686.761719 333.144531 C 707.316406 337.78125 730.835938 339.695312 758.765625 338.988281 C 784.597656 338.34375 800.960938 336.9375 806.136719 334.929688 C 806.640625 334.730469 806.625 335.152344 805.992188 338.742188 C 804.1875 349.054688 804.972656 361.636719 807.902344 369.246094 C 810.207031 375.214844 810.644531 376.882812 810.015625 377.28125 C 807.574219 378.851562 799.53125 379.679688 775.558594 380.835938 C 717.824219 383.621094 672.589844 389.625 649.429688 397.574219 L 645.496094 398.921875 L 650.703125 393.71875 C 666.511719 377.898438 677.34375 357.878906 681.773438 336.257812 C 682.222656 334.046875 682.625 332.238281 682.667969 332.238281 C 682.707031 332.238281 684.550781 332.644531 686.761719 333.144531 M 822.882812 387.621094 C 826.128906 393.082031 830.847656 399.101562 836.28125 404.722656 C 839.464844 408.019531 839.496094 408.070312 838.269531 407.859375 C 835.414062 407.367188 806.492188 407.199219 791.457031 407.589844 C 775.066406 408.015625 769.898438 408.199219 739.472656 409.4375 C 699.152344 411.078125 667.617188 410.667969 653.714844 408.324219 C 646.757812 407.148438 646.796875 407.222656 652.160156 405.46875 C 676.332031 397.570312 720.445312 391.722656 775.917969 389.058594 C 809.875 387.429688 814.910156 386.460938 817.699219 380.996094 L 818.4375 379.546875 L 820.074219 382.601562 C 820.976562 384.28125 822.238281 386.539062 822.882812 387.621094 M 833.960938 415.875 C 839.335938 416.191406 843.808594 416.800781 841.464844 416.894531 C 841.164062 416.90625 838.1875 417.15625 834.855469 417.441406 C 818.714844 418.828125 785.320312 419.273438 749.476562 418.570312 C 732.605469 418.242188 730.117188 417.894531 741.792969 417.503906 C 745.625 417.375 754.949219 417.027344 762.515625 416.722656 C 792.933594 415.511719 821.914062 415.167969 833.960938 415.875 M 863.347656 424.445312 C 871.792969 428.714844 878.867188 431.355469 888.828125 433.945312 C 890.597656 434.402344 891.480469 434.691406 890.792969 434.585938 C 872.851562 431.785156 857.707031 431.976562 790.386719 435.859375 C 747.542969 438.328125 724.757812 439.464844 696.058594 440.558594 C 648.167969 442.390625 606.320312 439.933594 594.402344 434.597656 L 592.613281 433.796875 L 595.296875 432.535156 C 611.285156 425.003906 635.875 423.519531 708.742188 425.667969 C 796.441406 428.257812 843.710938 427.222656 855.0625 422.46875 C 856.140625 422.015625 857.164062 421.628906 857.335938 421.605469 C 857.507812 421.582031 860.214844 422.859375 863.347656 424.445312 M 887.886719 523.042969 C 887.699219 535.71875 887.511719 546.570312 887.464844 547.160156 C 886.824219 555.144531 886.839844 511.761719 887.480469 500.351562 C 888.046875 490.273438 888.226562 500.183594 887.886719 523.042969 " fill-opacity="1" fill-rule="evenodd"/></g></svg>