<svg xmlns="http://www.w3.org/2000/svg" width="1180" height="1000" viewBox="0 0 1180 1000" version="1.1"><path d="M 577 0.607 C 553.764 4.842, 545.984 7.578, 517.500 21.532 C 486.490 36.722, 467.755 50.169, 444.854 73.669 C 434.267 84.532, 432.693 86.645, 427.563 96.875 C 420.886 110.188, 417.209 120.802, 413.130 138.538 C 407.758 161.896, 406.581 172.381, 406.624 196.500 C 406.674 224.103, 409.432 243.170, 416.316 263.500 C 430.063 304.093, 440.763 320.257, 480.647 360.673 C 493.233 373.426, 498.046 377.603, 504 380.937 C 511.564 385.173, 516.371 390.306, 523.918 402.211 C 527.866 408.438, 527.997 409.784, 525.876 422.224 C 522.429 442.437, 516.922 450.571, 503.070 455.913 C 491.086 460.534, 484.085 461.940, 467.565 463.041 C 459.350 463.589, 452.375 464.293, 452.065 464.605 C 450.872 465.803, 456.016 468.686, 461.632 469.967 C 466.941 471.178, 467.239 471.378, 464.758 472.064 C 463.113 472.519, 459.910 472.258, 456.758 471.411 C 453.866 470.634, 443.625 468.831, 434 467.404 C 411.271 464.035, 392.770 464.378, 378.088 468.442 C 367.125 471.477, 348.127 479.246, 336.016 485.646 C 328.059 489.851, 327.283 490.064, 323.516 489.084 C 310.799 485.774, 300.322 483.794, 291.283 482.991 C 285.664 482.492, 277.195 481.568, 272.464 480.939 C 267.234 480.243, 256.144 479.980, 244.181 480.268 C 224.859 480.733, 224.098 480.835, 202.500 485.823 C 176.017 491.939, 160.395 496.587, 153 500.551 C 148.457 502.987, 147.053 504.417, 144.930 508.770 C 142.430 513.897, 139.063 518.354, 140.225 515 C 154.661 473.321, 156.782 464.581, 157.702 442.987 C 158.349 427.798, 157.269 416.131, 153.352 396 L 150.725 382.500 151.792 351.500 C 152.738 323.992, 153.204 318.619, 155.932 303.802 C 160.781 277.460, 166.039 265.078, 175.245 258.320 C 186.021 250.410, 193.449 243.767, 198.258 237.740 C 200.997 234.308, 203.409 231.313, 203.619 231.083 C 203.828 230.854, 204 231.367, 204 232.223 C 204 233.079, 201.975 236.531, 199.500 239.893 C 194.968 246.049, 193.987 249.587, 196.200 251.800 C 198.451 254.051, 202.252 253.004, 209.379 248.170 C 213.296 245.513, 219.716 241.470, 223.646 239.186 C 235.982 232.017, 235.372 226.870, 220.027 208.642 C 215.463 203.221, 212.696 199.302, 213.877 199.934 C 215.059 200.567, 219.449 205.227, 223.633 210.292 C 227.817 215.356, 232.259 219.906, 233.503 220.402 C 238.579 222.425, 240.676 219.133, 241.650 207.613 L 242.253 200.481 236.345 193.990 C 233.095 190.421, 226.401 183.713, 221.468 179.084 C 216.536 174.455, 210.925 169.120, 209 167.228 C 205.741 164.025, 205.690 163.884, 208.258 165.176 C 209.775 165.940, 216.828 172.062, 223.931 178.782 C 236.745 190.905, 239.486 192.529, 242.006 189.493 C 244.381 186.632, 241.507 169.925, 237.727 164.616 C 236.055 162.268, 224.476 153.159, 214.355 146.230 C 212.754 145.133, 212.820 145.110, 214.843 146.065 C 219.581 148.300, 224.065 144.930, 222.579 140.250 C 221.434 136.641, 184.785 114.864, 177.906 113.705 C 176.583 113.482, 173.827 112.557, 171.782 111.650 C 165.470 108.849, 161.055 109.681, 156.605 114.509 C 155.447 115.766, 151.125 118.038, 147 119.558 C 103.170 135.717, 92.322 151.589, 89.974 203 C 89.222 219.447, 88.460 225.585, 85.107 242.203 C 81.452 260.322, 80.371 263.822, 71.675 285.703 C 66.474 298.792, 61.434 311.975, 60.474 315 C 59.515 318.025, 56.139 327.025, 52.973 335 C 35.842 378.148, 29.450 399.688, 20.480 444.500 C 13.277 480.480, 12.643 485.318, 12.614 504.500 C 12.590 520.448, 12.963 524.666, 15.892 541.500 C 19.767 563.772, 19.789 574.510, 15.989 589.936 C 13.968 598.141, 13.811 600.068, 14.785 604.709 C 15.401 607.645, 17.137 611.763, 18.644 613.859 C 22.893 619.769, 33.226 627.404, 37.858 628.054 C 40.028 628.359, 48.710 627.574, 57.152 626.311 C 82.190 622.563, 85.396 622.442, 94.511 624.911 C 98.905 626.101, 109.025 630.189, 117 633.996 C 143.008 646.408, 170.942 651.010, 220.187 650.994 C 230.809 650.990, 248.725 651.506, 260 652.140 C 275.903 653.035, 285.209 653.014, 301.500 652.048 C 330.063 650.355, 335.782 651.099, 350.500 658.420 C 356.550 661.429, 363.975 665.551, 367 667.578 C 374.928 672.892, 377.817 673.960, 381.139 672.802 C 383.846 671.858, 383.910 671.665, 383.559 665.419 C 383.354 661.773, 383.588 659.245, 384.099 659.561 C 384.595 659.868, 385.002 661.779, 385.005 663.809 C 385.008 665.839, 385.928 673.800, 387.049 681.500 C 390.833 707.493, 403.357 739.429, 417.835 760 C 424.352 769.259, 434.590 779.047, 441.012 782.158 C 450.613 786.809, 471.805 789.894, 495 790.020 C 503.748 790.067, 504.302 790.184, 502 791.500 C 500.499 792.358, 496.658 792.943, 492.385 792.965 C 482.335 793.015, 457.240 789.447, 446 786.369 C 432.513 782.677, 432.158 782.624, 430.435 784.054 C 428.215 785.897, 429.240 790.757, 435.486 808 C 438.375 815.975, 441.531 826.550, 442.500 831.500 C 445.929 849.017, 445.960 874.498, 442.601 914.500 C 441.769 924.400, 440.546 941.158, 439.881 951.741 C 438.722 970.207, 438.751 971.067, 440.587 973.100 C 444.888 977.863, 461.992 984.215, 486 989.964 C 497.857 992.804, 528.364 996.739, 548 997.963 C 569.011 999.272, 617.589 999.281, 638.984 997.980 C 687.637 995.021, 738.168 983.142, 746.911 972.608 C 748.074 971.206, 748.102 967.746, 747.090 950.722 C 746.429 939.600, 745.162 922.625, 744.275 913 C 743.312 902.560, 742.629 884.810, 742.581 869 C 742.484 837.316, 743.550 830.056, 751.527 808.031 C 757.763 790.811, 758.794 785.904, 756.565 784.054 C 754.842 782.624, 754.487 782.677, 741 786.369 C 729.760 789.447, 704.665 793.015, 694.615 792.965 C 690.342 792.943, 686.501 792.358, 685 791.500 C 682.693 790.181, 683.204 790.068, 691.605 790.035 C 704.709 789.984, 725.367 788.162, 733.500 786.339 C 748.033 783.082, 757.152 776.527, 767.943 761.578 C 786.190 736.304, 798.714 701.751, 801.638 668.622 C 801.984 664.705, 802.668 660.825, 803.158 660 C 803.714 659.065, 803.815 660.252, 803.426 663.151 C 801.844 674.953, 806.964 676.321, 820 667.580 C 823.025 665.551, 830.450 661.429, 836.500 658.420 C 851.218 651.099, 856.937 650.355, 885.500 652.048 C 901.791 653.014, 911.097 653.035, 927 652.140 C 938.275 651.506, 956.191 650.990, 966.813 650.994 C 1016.058 651.010, 1043.992 646.408, 1070 633.996 C 1077.975 630.189, 1088.095 626.101, 1092.489 624.911 C 1101.595 622.445, 1104.828 622.565, 1129.693 626.288 C 1149.716 629.287, 1151.173 629.099, 1159.529 622.441 C 1167.679 615.947, 1170.765 611.623, 1172.227 604.653 C 1173.189 600.066, 1173.018 598.080, 1170.917 589.439 C 1167.515 575.451, 1167.675 558.885, 1171.404 539 C 1174.750 521.155, 1175.664 504.059, 1174.083 488.922 C 1171.960 468.599, 1159.837 408.820, 1154.022 390 C 1151.194 380.848, 1139.536 348.797, 1131.107 327 C 1128.874 321.225, 1124.822 310.425, 1122.104 303 C 1119.385 295.575, 1114.653 283.362, 1111.588 275.861 C 1106.980 264.581, 1105.306 258.699, 1101.913 241.861 C 1098.425 224.553, 1097.686 218.651, 1096.982 202.500 C 1095.496 168.383, 1090.029 151.404, 1076.662 139.386 C 1069.482 132.931, 1058.526 126.758, 1044.505 121.270 C 1037.908 118.687, 1031.608 115.614, 1030.505 114.439 C 1026.130 109.780, 1020.821 108.778, 1015.500 111.608 C 1013.850 112.485, 1011.213 113.417, 1009.641 113.679 C 1006.475 114.206, 995.205 119.910, 981.613 127.865 C 965.376 137.369, 963.082 139.532, 964.499 143.998 C 965.293 146.499, 969.074 147.519, 972.157 146.065 C 974.177 145.112, 974.245 145.134, 972.652 146.230 C 959.745 155.102, 950.215 163.042, 948.320 166.500 C 945.354 171.913, 943.095 187.204, 944.934 189.420 C 947.501 192.513, 950.178 190.978, 962.535 179.328 C 982.292 160.701, 983.196 161.902, 963.823 181.039 C 951.976 192.740, 945.907 199.463, 945.421 201.421 C 944.543 204.963, 946.354 217.516, 948.035 219.542 C 948.700 220.344, 950.444 221, 951.909 221 C 954.064 221, 956.152 219.092, 962.852 211 C 967.405 205.500, 972.048 200.510, 973.169 199.909 C 974.290 199.309, 972.124 202.471, 968.354 206.935 C 956.500 220.973, 953.348 227.532, 955.616 233.442 C 955.955 234.325, 959.442 236.913, 963.366 239.193 C 967.290 241.474, 973.704 245.513, 977.621 248.170 C 985.407 253.451, 989.065 254.174, 991.368 250.885 C 993.162 248.323, 992.709 246.952, 987.931 240.500 C 985.895 237.750, 983.929 234.375, 983.563 233 C 982.928 230.619, 983.005 230.642, 985.175 233.500 C 990.284 240.225, 998.042 247.701, 1007.547 255.061 C 1015.111 260.916, 1018.277 264.092, 1020.352 267.906 C 1024.841 276.153, 1027.930 286.480, 1031.149 304 C 1033.845 318.671, 1034.298 323.992, 1035.232 352 L 1036.282 383.500 1033.710 396.500 C 1028.495 422.854, 1027.811 442.866, 1031.392 464.289 C 1032.798 472.703, 1043.613 507.391, 1046.691 513.361 C 1047.661 515.242, 1047.769 516.090, 1047.005 515.835 C 1046.367 515.622, 1044.417 512.760, 1042.672 509.474 C 1040.026 504.490, 1038.589 503.011, 1034 500.551 C 1026.605 496.587, 1010.983 491.939, 984.500 485.823 C 962.902 480.835, 962.141 480.733, 942.819 480.268 C 930.856 479.980, 919.766 480.243, 914.536 480.939 C 909.805 481.568, 901.336 482.491, 895.717 482.989 C 890.098 483.487, 879.720 485.272, 872.656 486.955 L 859.812 490.014 846.656 483.561 C 818.903 469.946, 805.761 466.059, 785 465.323 C 772.735 464.889, 767.802 465.210, 753 467.404 C 743.375 468.831, 733.096 470.644, 730.158 471.433 C 726.922 472.302, 723.965 472.547, 722.658 472.054 C 720.792 471.350, 721.109 471.088, 725 470.114 C 730.384 468.765, 734.205 466.908, 734.704 465.396 C 735.111 464.165, 726.420 463.008, 716.603 462.987 C 702.149 462.956, 678.653 455.632, 672.421 449.215 C 667.545 444.195, 663.465 435.045, 661.589 424.922 C 658.815 409.949, 659.119 408.111, 666.009 398.170 C 674.438 386.008, 674.739 385.709, 684.140 380.156 C 690.773 376.238, 695.436 372.228, 706.034 361.328 C 746.767 319.435, 757.336 303.488, 770.876 263.500 C 781.512 232.085, 783.777 186.561, 776.500 150.460 C 771.506 125.681, 768.260 115.145, 761.109 100.500 C 753.568 85.057, 751.029 81.793, 733.480 64.983 C 715.175 47.450, 698.073 35.617, 672.946 23.101 C 636.329 4.861, 623.298 1.006, 596.500 0.483 C 587.150 0.301, 578.375 0.357, 577 0.607 M 177.990 131.641 C 179.645 134.743, 181 138.793, 181 140.641 C 181 142.488, 181.440 144, 181.977 144 C 183.878 144, 186.238 139.083, 185.585 136.482 C 184.922 133.839, 177.745 126, 175.990 126 C 175.434 126, 176.334 128.538, 177.990 131.641 M 1006.025 129.975 C 1001.210 134.790, 1000.175 138.092, 1002.413 141.507 C 1004.608 144.858, 1006 144.650, 1006 140.971 C 1006 139.306, 1007.356 135.256, 1009.014 131.971 C 1010.672 128.687, 1011.572 126, 1011.014 126 C 1010.456 126, 1008.211 127.789, 1006.025 129.975 M 176 156.874 C 176 157.933, 177.548 161.100, 179.441 163.912 C 181.411 166.840, 183.169 170.947, 183.556 173.524 C 184.750 181.487, 186.315 180.003, 185.816 171.382 C 185.308 162.609, 183.562 158.859, 178.852 156.423 C 176.193 155.048, 176 155.079, 176 156.874 M 1007.893 156.537 C 1003.566 158.823, 1001.716 162.744, 1001.205 170.715 C 1000.659 179.220, 1001.990 180.279, 1003.763 172.750 C 1004.443 169.863, 1006.374 165.539, 1008.055 163.142 C 1009.736 160.745, 1010.973 157.969, 1010.805 156.972 C 1010.531 155.342, 1010.238 155.298, 1007.893 156.537 M 198.410 193.855 C 198.806 194.495, 199.739 197.827, 200.485 201.259 C 201.361 205.289, 201.867 206.437, 201.915 204.500 C 202.011 200.610, 200.238 194.265, 198.808 193.382 C 198.126 192.960, 197.971 193.144, 198.410 193.855 M 986.985 195.029 C 986.388 196.144, 985.705 199.407, 985.467 202.279 L 985.035 207.500 986.344 201.925 C 987.063 198.859, 987.941 195.596, 988.294 194.675 C 989.192 192.337, 988.296 192.579, 986.985 195.029 M 103.019 248.035 C 104.219 250.278, 119.441 270.702, 121.252 272.500 C 121.807 273.050, 120.403 269.900, 118.133 265.500 C 113.902 257.297, 107.368 248.803, 103.836 246.912 C 102.015 245.938, 101.947 246.032, 103.019 248.035 M 1078.430 251.440 C 1075.600 254.432, 1071.362 260.620, 1069.013 265.190 C 1066.663 269.761, 1065.193 273.050, 1065.748 272.500 C 1067.525 270.736, 1082.770 250.299, 1083.941 248.111 C 1085.865 244.515, 1083.797 245.765, 1078.430 251.440 M 531.500 394.767 C 534.534 397.870, 550.141 402.696, 562.784 404.442 C 577.807 406.516, 609.246 406.512, 624.216 404.433 C 637.187 402.632, 653.048 397.739, 655.692 394.723 C 657.448 392.720, 657.443 392.684, 655.500 393.467 C 649.972 395.694, 639.906 398.008, 627.386 399.929 C 619.748 401.100, 611.581 402.496, 609.236 403.030 C 606.890 403.563, 599.809 404, 593.500 404 C 587.191 404, 580.110 403.563, 577.764 403.030 C 575.419 402.496, 567.252 401.100, 559.614 399.929 C 547.220 398.027, 537.375 395.775, 531.500 393.497 L 529.500 392.722 531.500 394.767 M 547 436.282 C 547 436.620, 548.171 440.603, 549.602 445.134 C 555.694 464.417, 564.328 480.199, 573.601 489 L 578.343 493.500 574.781 488.500 C 568.580 479.796, 557.159 458.904, 552.366 447.500 C 547.887 436.841, 547 434.987, 547 436.282 M 636.508 443.244 C 631.481 456.214, 620.613 476.480, 612.238 488.500 L 608.754 493.500 612.971 489.500 C 618.947 483.831, 625.470 474.429, 629.544 465.610 C 633.295 457.492, 640.415 437.081, 639.733 436.400 C 639.506 436.173, 638.055 439.253, 636.508 443.244 M 245.768 495.102 C 235.916 496.064, 219.751 499.204, 213 501.467 L 208.500 502.976 213 502.544 C 237.285 500.215, 247.063 499.791, 266.739 500.212 C 278.994 500.474, 288.889 500.556, 288.727 500.394 C 288.215 499.882, 263.704 495.199, 259 494.714 C 256.525 494.458, 250.571 494.633, 245.768 495.102 M 918.500 496.145 C 895.035 500.310, 895.417 500.500, 927.243 500.500 C 945.559 500.500, 960.370 500.993, 966.848 501.818 C 972.540 502.544, 977.406 502.927, 977.662 502.671 C 978.385 501.948, 957.438 497.228, 948.500 496.099 C 933.294 494.180, 929.541 494.186, 918.500 496.145 M 490.603 514.533 L 487.705 518.112 490.603 517.416 C 492.196 517.033, 494.821 516.053, 496.436 515.238 C 499.518 513.683, 500.857 513.722, 522.163 515.994 C 528.028 516.619, 534.553 516.989, 536.663 516.816 C 542.786 516.312, 516.282 511.915, 504 511.397 L 493.500 510.954 490.603 514.533 M 672 512.099 C 668.425 512.565, 661.225 513.842, 656 514.937 L 646.500 516.928 657.763 516.410 C 663.958 516.124, 671.608 515.468, 674.763 514.951 C 682.744 513.644, 687.640 513.769, 690.800 515.360 C 692.285 516.107, 694.804 517.033, 696.397 517.416 L 699.295 518.112 696.397 514.628 C 693.550 511.205, 693.370 511.145, 686 511.199 C 681.875 511.229, 675.575 511.634, 672 512.099 M 348.146 593 C 350.126 595.475, 356.583 605.283, 362.495 614.795 C 368.406 624.308, 373.414 631.919, 373.624 631.709 C 373.834 631.500, 373.101 628.699, 371.995 625.486 C 368.432 615.130, 357.806 599.962, 348.447 591.872 L 344.545 588.500 348.146 593 M 833.871 596.755 C 825.761 605.354, 818.248 616.713, 815.266 624.884 C 813.984 628.396, 813.125 631.458, 813.357 631.690 C 813.589 631.922, 817.938 625.449, 823.021 617.306 C 828.105 609.163, 834.215 599.688, 836.599 596.250 C 838.983 592.813, 840.778 590, 840.588 590 C 840.398 590, 837.375 593.040, 833.871 596.755 M 583 776.964 C 581.625 777.407, 576.534 779.035, 571.687 780.582 C 566.840 782.129, 562.651 783.756, 562.378 784.198 C 561.563 785.517, 572.100 785.083, 577.813 783.562 C 584.497 781.783, 588.122 779.481, 587.361 777.498 C 586.723 775.836, 586.561 775.816, 583 776.964 M 599.639 777.498 C 598.321 780.934, 611.673 785.511, 621 784.820 L 625.500 784.486 621.500 782.683 C 619.300 781.692, 614.421 780.024, 610.659 778.979 C 606.896 777.933, 603.012 776.821, 602.027 776.509 C 600.929 776.160, 600.006 776.542, 599.639 777.498 M 494 871.221 C 494 872.639, 499.354 890.240, 501.689 896.500 C 507.025 910.804, 511.602 918.630, 516.670 922.117 L 521.380 925.358 517.560 918.429 C 508.312 901.655, 500.880 886.909, 497.942 879.500 C 494.937 871.923, 494 869.954, 494 871.221 M 690.011 877.226 C 687.592 883.898, 679.417 900.420, 670.874 915.907 L 665.684 925.314 670.362 922.095 C 674.051 919.557, 675.881 917.203, 679.021 910.959 C 681.210 906.604, 684.063 900.219, 685.360 896.770 C 688.348 888.823, 693.233 871.899, 692.694 871.360 C 692.469 871.136, 691.262 873.775, 690.011 877.226" stroke="none" fill="#fffcfc" fill-rule="evenodd"/><path d="" stroke="none" fill="#fcfcfc" fill-rule="evenodd"/></svg>