<svg width="500" height="388" viewBox="0 0 500 388" fill="none" xmlns="http://www.w3.org/2000/svg">
<path d="M423.548 32.4152C391.182 17.272 356.575 6.2666 320.394 0C315.95 8.03356 310.759 18.8389 307.18 27.4344C268.719 21.6504 230.611 21.6504 192.857 27.4344C189.279 18.8389 183.97 8.03356 179.487 0C143.267 6.2666 108.62 17.3125 76.254 32.4954C10.9717 131.146 -6.72523 227.345 2.12326 322.179C45.4219 354.513 87.3835 374.156 128.637 387.009C138.823 372.99 147.907 358.089 155.733 342.383C140.828 336.72 126.553 329.731 113.064 321.617C116.643 318.966 120.143 316.194 123.525 313.342C205.796 351.823 295.185 351.823 376.474 313.342C379.895 316.194 383.395 318.966 386.934 321.617C373.406 329.771 359.091 336.76 344.187 342.424C352.012 358.089 361.058 373.031 371.282 387.049C412.576 374.195 454.576 354.554 497.875 322.179C508.257 212.243 480.139 116.926 423.548 32.4152ZM166.941 263.857C142.244 263.857 121.991 240.801 121.991 212.724C121.991 184.648 141.812 161.552 166.941 161.552C192.071 161.552 212.324 184.607 211.892 212.724C211.931 240.801 192.071 263.857 166.941 263.857ZM333.057 263.857C308.36 263.857 288.107 240.801 288.107 212.724C288.107 184.648 307.927 161.552 333.057 161.552C358.187 161.552 378.44 184.607 378.008 212.724C378.008 240.801 358.187 263.857 333.057 263.857Z" fill="white"/>
</svg>
