<svg xmlns="http://www.w3.org/2000/svg" width="1081" height="1000" viewBox="0 0 1081 1000" version="1.1"><path d="M 900.141 16.601 C 898.465 19.131, 896.336 23.518, 895.409 26.351 C 893.022 33.642, 890.082 39.241, 878.817 57.944 C 862.507 85.023, 846.477 106.229, 811.876 146.500 C 805.163 154.313, 784.421 177.374, 775.478 186.967 C 763.029 200.322, 757 210.445, 757 217.992 C 757 227.694, 767.942 232.697, 806.494 240.625 C 815.847 242.548, 823.847 244.464, 824.272 244.883 C 825.127 245.725, 810.393 268.037, 792.777 292.576 C 786.490 301.334, 777.664 313.675, 773.164 320 C 768.664 326.325, 761.948 335.250, 758.241 339.834 C 747.997 352.498, 741.788 362.614, 741.319 367.400 C 740.478 375.986, 744.879 379.281, 760.046 381.421 C 774.019 383.392, 791.139 387.100, 790.785 388.078 C 789.557 391.476, 769.139 414.877, 750.142 434.659 C 726.883 458.879, 707.934 480.122, 706.685 483.378 C 705.287 487.023, 705.974 495.448, 707.919 498.500 C 713.333 506.997, 713.019 506.858, 729.314 507.983 C 737.461 508.545, 749.836 509.665, 756.814 510.471 C 763.791 511.277, 776.925 512.647, 786 513.515 C 807.037 515.527, 833.667 519.375, 846.500 522.257 L 856.500 524.503 856.482 528.502 C 856.472 530.701, 856.142 534.645, 855.749 537.267 C 854.819 543.466, 856.987 545.995, 863.250 546.012 C 865.587 546.018, 875.375 547.363, 885 549 C 894.625 550.637, 903.983 551.982, 905.795 551.988 C 907.950 551.996, 909.941 552.850, 911.545 554.455 C 913.721 556.630, 914 557.773, 914 564.516 C 914 571.416, 913.452 573.533, 908.099 587.311 C 901.522 604.238, 898.130 614.679, 895.411 626.361 C 892.842 637.401, 893.131 637.530, 915.988 635.514 C 932.247 634.080, 933.478 630.901, 928.061 604.340 C 926.473 596.551, 924.183 588.001, 922.974 585.340 C 921.764 582.678, 920.626 578.700, 920.445 576.500 C 920.264 574.300, 919.425 567.775, 918.580 562 C 917.736 556.225, 916.741 545.313, 916.369 537.750 L 915.692 524 920.096 523.994 C 922.518 523.991, 927.200 523.546, 930.500 523.004 C 948.646 520.028, 989.686 517.206, 1040.883 515.413 C 1064.841 514.574, 1064.369 514.837, 1063.849 502.635 C 1063.537 495.331, 1063.012 493.462, 1058.895 484.983 C 1056.362 479.767, 1051.614 471.900, 1048.344 467.500 C 1045.073 463.100, 1040.425 456.575, 1038.015 453 C 1032.190 444.359, 1026.097 436.758, 1009.154 417 C 1001.372 407.925, 995.152 400.058, 995.330 399.518 C 995.509 398.977, 998.952 397.983, 1002.983 397.308 C 1009.333 396.245, 1022.194 393.016, 1032.662 389.857 C 1034.401 389.332, 1037.041 387.687, 1038.527 386.201 C 1041.070 383.660, 1041.201 383.086, 1040.740 376.500 C 1040.113 367.521, 1037.276 360.202, 1030.734 350.684 C 1025.010 342.356, 1008.028 317.669, 986.584 286.500 C 975.361 270.189, 964 251.082, 964 248.520 C 964 248.234, 967.712 247.999, 972.250 247.998 C 990.191 247.993, 1031.040 242.514, 1035.649 239.494 C 1038.883 237.375, 1041 232.264, 1041 226.574 C 1041 220.218, 1036.176 213.500, 1006.203 178.115 C 990.166 159.181, 964.114 122.949, 947.703 96.753 C 933.600 74.242, 919.463 45.453, 911.976 24 C 910.153 18.775, 908.232 13.938, 907.708 13.250 C 905.860 10.826, 903.180 12.013, 900.141 16.601 M 897.462 70.109 C 873.577 86.829, 853 104.715, 853 108.758 C 853 112.410, 855.612 111.408, 862.293 105.193 C 870.553 97.509, 886.920 84.514, 898.083 76.779 C 904.970 72.006, 907.011 70.073, 906.790 68.532 C 906.318 65.255, 903.785 65.683, 897.462 70.109 M 892.335 94.849 C 871.752 108.501, 847 129.198, 847 132.758 C 847 136.142, 852.740 132.836, 865.366 122.178 C 874.612 114.374, 891.758 101.633, 900 96.443 C 905.957 92.691, 909 89.947, 909 88.326 C 909 85.287, 903.515 87.434, 892.335 94.849 M 894.214 112.472 C 885.924 115.061, 847 146.589, 847 150.716 C 847 154.188, 852.631 150.911, 866.556 139.336 C 872.160 134.677, 880.692 127.858, 885.515 124.183 C 890.338 120.507, 895.402 116.037, 896.770 114.250 C 898.137 112.463, 899.086 111.030, 898.878 111.067 C 898.670 111.104, 896.571 111.736, 894.214 112.472 M 864 244.389 C 850.991 249.841, 819.450 266.757, 814.750 270.803 C 813.788 271.632, 813 272.915, 813 273.655 C 813 275.919, 817.199 275.120, 823.500 271.657 C 826.800 269.843, 834.465 265.621, 840.533 262.274 C 846.601 258.928, 856.276 254.087, 862.033 251.518 C 867.790 248.948, 873.615 245.756, 874.977 244.423 L 877.455 242 873.477 242.042 C 871.290 242.066, 867.025 243.122, 864 244.389 M 872.500 260.869 C 864.435 264.095, 845.706 272.636, 835.500 277.743 C 828.508 281.241, 815 289.822, 815 290.765 C 815 292.674, 825.698 288.952, 839.843 282.121 C 849.004 277.697, 862.797 271.231, 870.493 267.753 C 879.627 263.625, 884.601 260.834, 884.816 259.715 C 885.312 257.139, 880.758 257.566, 872.500 260.869 M 873 282.371 C 862.886 285.424, 844.936 294.614, 831.250 303.747 C 825.063 307.877, 820 311.412, 820 311.603 C 820 313.390, 868.504 290.166, 877.500 284.071 C 884.322 279.450, 883.592 279.174, 873 282.371 M 805.690 394.423 C 801.944 395.757, 797.782 397.568, 796.440 398.447 C 793.796 400.180, 793.105 404, 795.436 404 C 796.634 404, 805.400 400.939, 815.821 396.882 C 818.876 395.693, 818.319 392.584, 814.991 392.249 C 813.621 392.111, 809.435 393.089, 805.690 394.423 M 833.601 402.073 C 827.607 403.681, 817.932 406.536, 812.101 408.418 C 806.271 410.300, 797.225 413.039, 792 414.505 C 782.286 417.231, 779.602 418.548, 780.570 420.113 C 782.223 422.788, 792.289 420.697, 821 411.714 C 828.975 409.219, 839.100 406.439, 843.500 405.537 C 852.116 403.770, 855.689 401.680, 853 399.979 C 850.516 398.409, 845.077 398.996, 833.601 402.073 M 867.500 409.946 C 829.981 419.390, 785.526 432.346, 777.892 436.062 L 771.500 439.174 779.500 438.651 C 785.403 438.265, 794.315 436.138, 813.500 430.534 C 827.800 426.357, 852.859 419.589, 869.187 415.494 C 885.515 411.398, 900.272 407.197, 901.981 406.158 L 905.089 404.268 901.919 403.634 C 896.863 402.623, 895.878 402.803, 867.500 409.946 M 317.341 405.138 C 314.794 408.319, 313.067 413.276, 310.072 426 C 308.324 433.425, 305.125 445.575, 302.962 453 C 300.799 460.425, 297.870 471.675, 296.453 478 C 287.475 518.082, 277.623 552.040, 265.265 585.500 C 260.593 598.150, 254.301 616.150, 251.282 625.500 C 244.190 647.470, 234.055 673.346, 228.540 683.568 C 226.146 688.005, 220.770 697.074, 216.593 703.722 C 208.756 716.196, 207.889 718.746, 210.570 721.427 C 213.155 724.012, 216.197 724.216, 225.576 722.435 C 233.121 721.002, 238.189 720.840, 258.364 721.388 L 282.227 722.036 290.864 729.836 C 295.614 734.125, 302.875 740.365, 307 743.703 C 311.125 747.041, 315.600 750.958, 316.945 752.408 L 319.389 755.043 313.954 760.772 C 299.734 775.759, 287.070 788.505, 282.841 792.087 C 278.320 795.917, 277.870 796.063, 267.594 797.037 C 261.771 797.588, 239.567 798.216, 218.253 798.431 C 196.939 798.647, 178.907 798.863, 178.183 798.911 C 176.314 799.037, 177.764 803.132, 180.311 804.924 C 181.425 805.708, 185.523 809.101, 189.418 812.465 C 193.313 815.829, 200.277 821.403, 204.893 824.852 L 213.286 831.123 227.393 830.016 C 235.152 829.408, 255.225 828.664, 272 828.364 L 302.500 827.818 292.499 837.659 C 286.998 843.071, 279.938 849.873, 276.809 852.773 C 273.680 855.673, 270.831 858.957, 270.477 860.072 C 269.718 862.464, 272.365 867, 274.521 867 C 275.332 867, 282.634 870.773, 290.748 875.385 C 298.861 879.997, 316.075 888.971, 329 895.328 C 341.925 901.685, 359.250 910.550, 367.500 915.030 C 375.750 919.509, 386.325 924.755, 391 926.688 C 395.675 928.621, 405.800 933.249, 413.500 936.972 C 444.298 951.864, 453.649 955.267, 482.500 962.080 C 491.850 964.288, 506.250 968.062, 514.500 970.467 C 522.750 972.872, 538.500 977.414, 549.500 980.562 C 560.500 983.709, 573.325 987.451, 578 988.878 L 586.500 991.472 623.500 991.443 C 658.160 991.416, 661.702 991.245, 679.500 988.733 C 689.950 987.257, 700.666 985.312, 703.313 984.410 C 707.164 983.097, 710.987 979.995, 722.444 968.884 C 738.829 952.996, 759.042 931.070, 766.799 920.773 C 778.830 904.801, 799.492 865.349, 813.292 832 C 817.957 820.725, 824.339 806.100, 827.474 799.500 C 837.092 779.248, 843.921 763.295, 851.017 744.500 C 854.754 734.600, 859.359 722.900, 861.250 718.500 C 865.862 707.769, 870.454 693.599, 879.398 662.500 C 883.510 648.200, 889.867 627.725, 893.524 617 C 897.181 606.275, 901.412 593.450, 902.926 588.500 C 904.441 583.550, 906.877 576.211, 908.340 572.190 C 911.265 564.153, 911.652 560.203, 909.750 557.810 C 907.975 555.576, 896.701 553.286, 881 551.970 C 835.029 548.116, 806.732 542.578, 751 526.530 C 710.080 514.747, 662.059 501.727, 625.493 492.501 C 567.456 477.858, 545.527 471.398, 501.500 455.972 C 450.410 438.072, 400.804 423.031, 353.500 411.099 C 326.474 404.282, 319.011 403.052, 317.341 405.138 M 326.319 426.500 C 321.595 438.505, 317.586 450.770, 314.961 461.248 C 313.273 467.987, 309.883 480.347, 307.428 488.716 C 304.973 497.084, 301.592 509.684, 299.914 516.716 C 286.239 574.024, 271.229 622.808, 254.022 665.861 C 246.222 685.381, 242.299 696.429, 242.669 697.841 C 244.221 703.779, 246.851 699.130, 258.975 669.016 C 276.865 624.580, 290.111 581.815, 304.045 523.500 C 305.753 516.350, 309.120 503.750, 311.525 495.500 C 321.731 460.501, 328.333 432.472, 327.779 426.500 L 327.500 423.500 326.319 426.500 M 344.865 431.338 C 347.947 435.051, 361.296 440.069, 382 445.296 C 407.250 451.672, 442.279 462.653, 489.500 478.997 C 534.382 494.531, 554.549 501.058, 577.500 507.477 C 632.645 522.901, 663.706 532.142, 693.500 541.990 C 726.583 552.925, 755.912 561.275, 783 567.473 C 790.975 569.297, 806.478 573.094, 817.450 575.909 C 835.266 580.481, 837.562 580.866, 838.914 579.514 C 840.244 578.185, 840.250 577.827, 838.964 576.584 C 837.585 575.251, 811.957 568.432, 773.500 559.165 C 745.028 552.305, 728.004 547.365, 692 535.515 C 673.025 529.270, 640.400 519.360, 619.500 513.493 C 558.789 496.450, 542.846 491.552, 501.500 477.235 C 445.702 457.914, 410.608 446.930, 378 438.581 C 339.963 428.841, 343.421 429.597, 344.865 431.338 M 864.355 521.518 C 862.903 525.302, 865.604 525.943, 891.704 528.007 C 904.931 529.054, 907 528.770, 907 525.912 C 907 523.539, 905.759 523.276, 888.500 521.997 C 880.800 521.427, 872.370 520.687, 869.767 520.353 C 865.816 519.847, 864.922 520.040, 864.355 521.518 M 592.113 576.074 C 573.077 579.427, 545.761 593.130, 523.500 610.495 C 511.078 620.185, 501.604 631.004, 503.703 633.103 C 504.728 634.128, 506.560 632.735, 522.530 618.788 C 544.195 599.868, 577.237 583.200, 596.657 581.395 C 606.236 580.505, 608.408 581.690, 607.758 587.455 C 607.080 593.472, 603.126 601.448, 597.139 608.877 C 591.651 615.688, 591.024 617.412, 593.668 618.426 C 595.742 619.222, 603.070 611.629, 607.716 603.870 C 611.900 596.882, 614.784 586.120, 613.466 582.416 C 611.346 576.462, 603.366 574.092, 592.113 576.074 M 375.752 579.086 C 372.590 579.549, 369.103 580.410, 368.002 580.999 C 365.499 582.339, 365.313 586.008, 367.750 585.978 C 372.799 585.916, 387.102 583.160, 388.531 581.974 C 390.058 580.707, 390.048 580.509, 388.399 579.303 C 386.437 577.868, 384.316 577.832, 375.752 579.086 M 144 582.569 C 126.197 587.728, 109.794 598.317, 102.435 609.400 C 97.419 616.955, 94.355 626.886, 93.068 639.762 C 91.890 651.542, 92.197 654.242, 96.049 666 C 100.610 679.921, 107.935 688.735, 119.404 694.102 C 126.589 697.464, 138.491 700, 147.088 700 L 153 700 153.177 705.250 C 153.275 708.138, 153.426 712.477, 153.513 714.893 C 153.716 720.544, 155.933 722.383, 161.500 721.519 C 169.243 720.318, 169.893 719.301, 170.215 707.884 L 170.500 697.769 177.770 695.924 C 195.115 691.525, 212.308 678.536, 218.784 664.940 C 223.169 655.734, 226.002 643.982, 225.987 635.062 C 225.953 615.901, 212.209 594.385, 194.746 586.155 C 180.578 579.477, 159.751 578.005, 144 582.569 M 405.332 585.578 C 404.334 588.179, 406.991 589.686, 417.406 592.428 C 427.539 595.095, 431.356 595.091, 430.328 592.412 C 429.496 590.245, 425.414 588.404, 416.263 586.067 C 406.545 583.586, 406.104 583.566, 405.332 585.578 M 770 588.142 C 763.043 589.292, 754.224 593.440, 746.415 599.236 C 732.226 609.768, 724.167 630.704, 727.989 647.109 C 729.857 655.129, 735.448 665.094, 741.507 671.202 C 751.175 680.947, 761.748 685, 777.500 685 C 792.020 685, 803.855 681.076, 814.849 672.616 C 822.803 666.496, 826.807 661.702, 830.181 654.260 C 841.441 629.427, 835.841 606.629, 816 596.532 C 809.449 593.199, 799.174 589.247, 794 588.071 C 788.631 586.851, 777.618 586.884, 770 588.142 M 148.500 591.662 C 135.649 594.414, 128 599.058, 128 604.109 C 128 605.121, 131.410 609.673, 135.579 614.225 C 139.747 618.776, 145.260 625.381, 147.829 628.902 C 152.194 634.885, 181.535 667.554, 187.364 672.921 C 189.768 675.135, 190.215 675.223, 192.595 673.949 C 196.680 671.763, 204.983 661.184, 208.644 653.500 C 212.972 644.417, 214.335 637.075, 213.014 629.954 C 210.533 616.579, 198.254 599.506, 187.916 595.059 C 176.669 590.221, 161.382 588.904, 148.500 591.662 M 863.790 599.250 C 861.576 605.005, 859.219 614.167, 857.552 623.500 C 853.909 643.883, 847.975 666.488, 842.393 681.243 C 839.843 687.984, 832.020 705.650, 825.008 720.500 C 817.996 735.350, 809.883 753.125, 806.978 760 C 800.506 775.314, 783.385 809.781, 773.198 828 C 766.284 840.366, 761.852 849.272, 748.562 877.500 C 742.131 891.159, 730.867 910.815, 723.831 920.656 C 717.563 929.423, 716.395 933.369, 720.231 932.820 C 725.259 932.100, 746.171 897.355, 759.447 867.665 C 763.422 858.774, 770.069 845.425, 774.218 838 C 786.125 816.689, 807.058 774.827, 813.473 759.500 C 816.695 751.800, 823.122 737.625, 827.755 728 C 850.125 681.521, 856.089 663.832, 863.326 622.500 C 866.720 603.115, 868.495 590, 867.724 590 C 867.517 590, 865.747 594.163, 863.790 599.250 M 767.068 594.592 C 757.287 597.221, 746.056 605.180, 740.718 613.265 C 734.730 622.333, 732.679 629.570, 733.221 639.722 C 733.829 651.139, 736.812 657.894, 745.017 666.439 C 752.216 673.936, 759.209 677.448, 770.187 679.081 C 786.507 681.508, 802.524 676.276, 816.297 664.017 C 830.341 651.516, 834.549 623.586, 824.393 610.271 C 820.725 605.462, 812.618 600.448, 804.500 597.967 C 800.650 596.791, 796.022 595.192, 794.216 594.414 C 789.914 592.562, 774.238 592.664, 767.068 594.592 M 148.309 597.445 C 141.770 598.929, 135.378 601.580, 134.358 603.229 C 134.023 603.772, 135.337 605.804, 137.278 607.745 L 140.807 611.274 143.839 609.115 C 150.459 604.401, 163.033 604.385, 170.632 609.081 C 177.304 613.205, 184.089 627.799, 184.352 638.590 C 184.507 644.985, 183.009 648.324, 180.427 647.334 C 179.439 646.955, 179 645.153, 179 641.482 C 179 635.149, 176.257 625.821, 172.520 619.444 C 169.366 614.062, 163.905 611.056, 157.218 611.022 C 152.033 610.995, 146 613.343, 146 615.387 C 146 619.535, 187.266 667.021, 190.836 666.982 C 194.245 666.945, 202.787 654.520, 206.068 644.829 C 208.891 636.486, 208.247 630.159, 203.572 620.313 C 198.547 609.732, 189.716 601.043, 181.500 598.597 C 173.466 596.205, 156.380 595.612, 148.309 597.445 M 788.527 605.237 C 786.587 608.117, 785 611.267, 785 612.237 C 785 614.836, 787.983 614.391, 791.195 611.313 C 793.838 608.781, 794 608.746, 794 610.702 C 794 613.718, 797.166 617.257, 799.176 616.486 C 801.138 615.733, 806 608.676, 806 606.580 C 806 604.248, 804.101 603.704, 801.625 605.326 C 799.434 606.761, 799.286 606.681, 798.104 603.412 C 796.182 598.095, 792.918 598.716, 788.527 605.237 M 436.513 602.978 C 436.181 603.516, 438.292 606.329, 441.204 609.228 C 444.117 612.128, 447.318 616.052, 448.318 617.949 C 449.752 620.670, 450.329 621.092, 451.053 619.949 C 453.461 616.142, 451.224 610.160, 445.516 605.148 C 442.006 602.067, 437.716 601.032, 436.513 602.978 M 657.500 612.369 C 649.501 616.409, 640.270 624.507, 626.550 639.522 C 616.835 650.153, 615.272 653, 619.150 653 C 620.601 653, 626.371 647.862, 636.900 637.195 C 648.724 625.216, 653.986 620.616, 658.640 618.195 C 666.429 614.142, 671.666 613.938, 675.275 617.548 C 681.375 623.648, 682.079 643.084, 677.104 668 C 675.401 676.525, 674.006 684.752, 674.004 686.281 C 674 689.140, 676.404 690.999, 678.014 689.383 C 678.498 688.897, 680.370 681.300, 682.173 672.500 C 685.063 658.397, 685.455 654.603, 685.476 640.500 C 685.498 625.752, 685.313 624.087, 683.115 619.222 C 680.132 612.621, 676.261 609.763, 669.592 609.236 C 665.286 608.896, 663.420 609.380, 657.500 612.369 M 116.597 613.490 C 112.767 617.622, 108.251 627.119, 106.955 633.765 C 106.238 637.445, 105.932 644.135, 106.213 649.981 C 106.628 658.594, 107.122 660.805, 109.883 666.414 C 117.341 681.564, 134.145 689.286, 156.097 687.652 C 164.201 687.048, 174.478 683.803, 175.332 681.578 C 175.976 679.898, 174.267 677.371, 166.483 668.500 C 163.105 664.650, 158.132 658.350, 155.431 654.500 C 142.369 635.881, 124.692 613.441, 121.917 611.956 C 119.426 610.622, 119.192 610.690, 116.597 613.490 M 746.885 615.352 C 745.531 618.325, 746.447 624.296, 748.521 626.017 C 749.328 626.687, 751.202 627.003, 752.685 626.720 C 754.208 626.429, 756.354 626.841, 757.615 627.667 C 759.583 628.957, 760.203 628.946, 762.853 627.576 C 766.193 625.849, 767.802 622.402, 766.074 620.674 C 765.242 619.842, 764.453 619.860, 763.036 620.745 C 761.314 621.821, 761.091 621.618, 760.811 618.720 C 760.395 614.417, 756.597 613.596, 754.849 617.432 C 753.268 620.902, 752.191 620.663, 751.813 616.758 C 751.414 612.628, 748.505 611.798, 746.885 615.352 M 118.645 620.143 C 113.425 628.125, 112.500 632.019, 112.500 646 C 112.500 659.246, 112.558 659.604, 115.599 665 C 119.214 671.416, 126.274 677.222, 133.500 679.722 C 137.089 680.964, 141.745 681.458, 150 681.476 C 161.852 681.501, 167 680.729, 167 678.927 C 167 678.357, 164.412 674.864, 161.250 671.164 C 158.088 667.465, 151.035 658.251, 145.577 650.689 C 138.779 641.269, 135.399 637.343, 134.843 638.220 C 134.396 638.924, 134.024 641.862, 134.015 644.750 L 134 650 137.378 650 C 143.289 650, 143.824 652.096, 139.952 660.100 C 136.970 666.264, 136.272 667.056, 134.054 666.796 C 132.274 666.586, 130.311 664.745, 127.344 660.500 C 122.476 653.538, 122.033 651.281, 125.370 650.443 C 127.365 649.942, 127.837 649.032, 128.361 644.674 C 128.703 641.828, 128.987 637.071, 128.991 634.103 C 129 628.752, 128.062 626.955, 120.922 618.643 C 120.517 618.172, 119.493 618.847, 118.645 620.143 M 786.970 623.569 C 785.478 627.050, 784.593 628.014, 783.256 627.614 C 773.034 624.564, 769 624.529, 769 627.490 C 769 629.195, 771.280 630.371, 777.750 632.004 C 780.087 632.594, 782 633.499, 782 634.014 C 782 634.530, 781.102 636.425, 780.004 638.226 C 777.827 641.796, 777.398 645.510, 779.044 646.527 C 780.618 647.500, 782.879 645.171, 785.629 639.745 C 788.005 635.057, 788.229 634.894, 791.301 635.628 C 797.350 637.073, 800.500 636.697, 800.500 634.528 C 800.500 633.110, 799.237 632.080, 796 630.857 C 793.266 629.825, 791.640 628.636, 791.857 627.829 C 792.053 627.098, 792.450 624.813, 792.739 622.750 C 793.206 619.409, 793.027 619, 791.096 619 C 789.475 619, 788.435 620.152, 786.970 623.569 M 808.091 632.390 C 806.364 634.471, 802 646.061, 802 648.567 C 802 651.425, 803.561 652.623, 809.283 654.153 C 812.903 655.122, 814.261 655.139, 815.171 654.229 C 816.690 652.710, 813.942 649.453, 810.386 648.561 C 807.601 647.862, 808.090 646, 811.059 646 C 813.127 646, 813.831 642.632, 812 641.500 C 811.450 641.160, 811 640.230, 811 639.432 C 811 638.264, 812.064 638.108, 816.479 638.627 C 821.091 639.169, 822.062 639.001, 822.612 637.568 C 823.483 635.299, 821.837 633.824, 816.731 632.296 C 811.274 630.664, 809.508 630.683, 808.091 632.390 M 589.369 636.443 C 577.350 638.941, 566.953 643.615, 564.253 647.736 C 561.899 651.329, 563.930 654.641, 570.176 657.398 C 574.878 659.473, 575.124 659.737, 572.921 660.345 C 571.589 660.712, 562.625 661.687, 553 662.510 C 529.022 664.563, 526 665.346, 526 669.508 C 526 672.404, 530.486 675.982, 537.296 678.520 C 539.934 679.503, 541.734 680.614, 541.296 680.989 C 540.858 681.364, 536.900 682.679, 532.500 683.912 C 523.608 686.403, 520 688.311, 520 690.523 C 520 692.821, 523.896 692.341, 537.186 688.404 C 551.471 684.173, 553.691 683.247, 554.482 681.187 C 555.371 678.869, 552.940 677.056, 546.788 675.449 C 543.744 674.654, 539.509 673.261, 537.377 672.353 L 533.500 670.701 536.500 669.862 C 538.150 669.400, 546.055 668.578, 554.066 668.036 C 574.013 666.686, 586 664.115, 588.955 660.554 C 591.058 658.020, 588.489 656.136, 580.712 654.509 C 573.815 653.066, 570 651.500, 570 650.113 C 570 648.200, 584.070 643.015, 593.896 641.307 C 601.419 639.999, 604.598 639.008, 605.396 637.722 C 606.249 636.347, 606.159 635.726, 605 634.987 C 602.985 633.702, 602.218 633.774, 589.369 636.443 M 449.278 638.250 C 448.746 638.938, 447.730 641.645, 447.021 644.266 C 446.311 646.888, 444.441 651.066, 442.865 653.551 C 441.289 656.036, 440 658.729, 440 659.535 C 440 662.232, 443.823 661.038, 446.818 657.405 C 450.196 653.307, 454.359 641.706, 453.463 638.885 C 452.779 636.728, 450.700 636.412, 449.278 638.250 M 605.005 643.497 C 598.943 647.969, 598.344 650.637, 602.163 656.154 C 604.567 659.628, 604.480 661.211, 601.750 663.713 C 598.120 667.039, 591.613 669.884, 582.849 671.977 C 572.390 674.475, 571.284 675.807, 575.500 680.818 C 576.875 682.452, 578 684.462, 578 685.286 C 578 687.465, 572.250 689.432, 557 692.469 C 535.896 696.671, 530 698.754, 530 702.004 C 530 703.481, 533.617 704.096, 536.302 703.075 C 537.713 702.539, 546.655 700.464, 556.172 698.464 C 573.963 694.726, 579.113 693.113, 582.213 690.307 C 584.396 688.332, 584.527 683.734, 582.491 680.626 C 581 678.350, 581.048 678.308, 586.461 677.096 C 594.043 675.399, 603.283 670.581, 606.938 666.418 C 610.532 662.324, 610.889 658.400, 608 654.727 C 605.259 651.242, 605.483 649.737, 609.058 647.625 C 611.217 646.350, 612.025 645.187, 611.808 643.670 C 611.369 640.607, 609.003 640.547, 605.005 643.497 M 768.223 653.557 C 765.626 655.375, 765.221 660.109, 767.500 662 C 769.657 663.790, 769.356 664.873, 766.500 665.589 C 763.603 666.317, 763.380 667.237, 765.571 669.429 C 767.579 671.437, 771.922 671.444, 774.777 669.443 C 777.663 667.422, 777.583 665.453, 774.449 661.344 L 771.898 658 774.327 658 C 777.842 658, 779.514 655.657, 777.463 653.606 C 775.424 651.567, 771.096 651.544, 768.223 653.557 M 414.503 674.143 C 407.440 678.220, 406.043 679.472, 406.015 681.750 C 405.989 683.875, 409.957 683.140, 416.054 679.890 C 422.827 676.281, 425.483 673.700, 424.653 671.537 C 423.785 669.277, 422.252 669.670, 414.503 674.143 M 394.973 700.250 C 393.695 703.067, 393.037 706.757, 393.022 711.193 C 393.003 717.013, 393.294 718.093, 395.250 719.467 L 397.500 721.048 398.179 713.274 C 398.552 708.998, 399.579 703.793, 400.461 701.706 C 402.248 697.475, 401.842 696, 398.892 696 C 397.520 696, 396.303 697.320, 394.973 700.250 M 637.355 701.447 C 632.975 703.353, 626.344 709.557, 623.495 714.416 C 621.614 717.625, 620.035 718.878, 616.128 720.264 C 601.358 725.502, 600.688 744.306, 615.045 750.640 C 617.220 751.600, 619 752.702, 619 753.089 C 619 754.181, 612.321 759.783, 608.923 761.540 C 607.245 762.408, 606.048 763.653, 606.263 764.309 C 606.944 766.383, 611.901 766.224, 615.478 764.014 C 620.733 760.766, 627.844 752.293, 629.039 747.854 C 630.573 742.158, 629.907 734.957, 627.722 733.602 C 625.194 732.036, 624.034 734.283, 624.015 740.781 C 623.997 747.058, 622.761 747.930, 617.452 745.410 C 607.372 740.627, 608.343 727.288, 618.910 725.384 C 624.180 724.434, 625.846 723.304, 627.377 719.641 C 629.145 715.409, 634.515 709.302, 638.099 707.449 C 639.640 706.652, 643.320 706, 646.276 706 C 650.727 706, 652.058 706.433, 654.017 708.518 C 655.318 709.903, 658.623 711.702, 661.362 712.515 C 674.242 716.340, 675.992 723.086, 666.129 730.898 C 661.617 734.472, 661.245 735.949, 663.500 741.346 C 665.513 746.163, 665.391 750.336, 663.180 752.337 C 659.778 755.415, 645.749 756.696, 641.704 754.297 C 641.266 754.037, 642.279 751.396, 643.954 748.428 C 647.476 742.186, 647.771 740, 645.089 740 C 639.682 740, 633.683 754.651, 634.201 766.592 C 634.467 772.734, 634.722 773.500, 636.500 773.500 C 638.234 773.500, 638.602 772.578, 639.265 766.568 C 640.111 758.915, 640.477 758.077, 642.217 759.817 C 644.147 761.747, 657.812 761.269, 662.579 759.104 C 670.496 755.508, 672.635 749.885, 669.483 740.952 L 667.966 736.652 671.353 733.861 C 677.476 728.814, 679.618 721.029, 676.528 715.054 C 675.043 712.182, 666.262 707, 662.880 707 C 661.931 707, 659.881 705.942, 658.327 704.649 C 656.772 703.355, 654.517 701.780, 653.316 701.149 C 650.359 699.594, 641.221 699.765, 637.355 701.447 M 256.808 725.525 C 256.519 725.814, 208.632 726.093, 150.391 726.146 C 88.566 726.202, 43.772 726.622, 42.750 727.156 C 41.704 727.703, 41 729.222, 41 730.934 C 41 733.201, 41.819 734.287, 44.932 736.148 C 49.669 738.981, 73 759.756, 73 761.141 C 73 762.186, 68.090 767.672, 53.262 783.196 C 47.954 788.753, 44 793.738, 44 794.874 C 44 797.806, 46.716 800.002, 50.321 799.985 C 57.669 799.952, 89.223 797.916, 98 796.909 C 103.225 796.309, 126.625 795.653, 150 795.451 C 173.375 795.249, 210.163 794.684, 231.752 794.195 C 266.050 793.419, 271.234 793.099, 272.830 791.654 C 273.835 790.744, 275.228 790, 275.926 790 C 276.624 790, 280.188 787.149, 283.847 783.665 C 287.506 780.181, 292.734 775.656, 295.464 773.611 C 303.410 767.659, 312 759.177, 312 757.283 C 312 756.323, 309.113 752.775, 305.584 749.400 C 299.052 743.150, 280.281 728.240, 276.316 726.151 C 274.170 725.020, 257.837 724.497, 256.808 725.525 M 404 740.022 C 404 747.192, 419.875 758.333, 431.366 759.227 L 437.232 759.684 434.866 757.767 C 433.565 756.713, 429.800 754.575, 426.500 753.015 C 418.348 749.162, 412.277 744.583, 409.836 740.446 C 407.195 735.970, 404 735.738, 404 740.022 M 98.569 753.101 C 94.913 757.445, 87.683 772.730, 88.399 774.598 C 89.648 777.852, 92.602 775.289, 96.901 767.225 C 99.321 762.684, 101.474 759.141, 101.685 759.352 C 101.896 759.563, 102.530 762.602, 103.094 766.105 C 103.659 769.609, 104.838 773.268, 105.715 774.238 C 107.449 776.153, 110.525 776.578, 111.480 775.033 C 111.809 774.501, 113.327 774.315, 114.855 774.621 C 116.382 774.926, 119.559 774.657, 121.915 774.023 C 125.517 773.053, 126.473 773.118, 127.928 774.435 C 130.594 776.848, 133.266 776.320, 137.729 772.500 C 142.488 768.426, 143.084 768.303, 144.796 771.044 C 145.816 772.678, 146.970 773.042, 150.549 772.857 C 153.011 772.729, 155.559 773.159, 156.212 773.812 C 159.051 776.651, 164.118 774.865, 170.695 768.706 L 173.890 765.714 174.505 768.607 C 174.843 770.198, 175.476 772.175, 175.912 773 C 176.850 774.775, 180.610 775.523, 182.305 774.271 C 184.074 772.965, 203.854 773.478, 208.602 774.954 C 212.057 776.027, 213.556 775.981, 218.102 774.667 C 221.071 773.808, 224.972 773.150, 226.771 773.205 C 228.570 773.260, 232.559 772.032, 235.634 770.476 C 240.610 767.959, 241.572 767.779, 244.363 768.844 C 247.167 769.914, 247.689 769.812, 249.277 767.877 C 251.175 765.565, 251.087 765.446, 245.242 762.429 C 243.292 761.423, 237.672 762.801, 232.486 765.559 C 229.784 766.995, 226.981 767.811, 225.913 767.472 C 224.889 767.147, 221.553 767.669, 218.499 768.632 C 213.797 770.114, 212.414 770.190, 209.476 769.128 C 207.500 768.413, 200.447 767.793, 193.094 767.686 L 180.182 767.500 179.639 764.161 C 178.366 756.322, 174.688 756.124, 167.370 763.500 C 161.522 769.395, 160.594 769.764, 157.500 767.424 C 156.157 766.408, 154.350 766.104, 152 766.499 C 149.014 767.001, 148.353 766.750, 147.500 764.793 C 145.760 760.803, 141.737 761.279, 136.514 766.094 L 131.939 770.311 129.930 768.156 C 127.528 765.577, 125.924 765.471, 121.773 767.617 C 118.720 769.196, 118.601 769.172, 116.740 766.617 C 114.717 763.841, 112.144 763.256, 110.255 765.145 C 109.042 766.358, 108.794 765.681, 107.469 757.518 C 106.135 749.299, 103.054 747.770, 98.569 753.101 M 515.103 751.686 C 513.648 752.768, 513.644 753.025, 515.066 754.470 C 517.244 756.682, 535.594 757.825, 539.954 756.019 C 542.369 755.019, 542.792 754.454, 541.916 753.398 C 540.516 751.712, 536.872 751.126, 525.603 750.773 C 519.868 750.594, 516.136 750.919, 515.103 751.686 M 487 762.188 C 485.625 762.772, 480.536 763.355, 475.690 763.485 C 466.155 763.739, 463.854 764.711, 466.507 767.364 C 467.741 768.598, 470.053 769, 475.912 769 C 484.508 769, 491.563 767.276, 495.438 764.228 L 497.980 762.228 495.740 761.628 C 492.590 760.783, 489.903 760.956, 487 762.188 M 564.314 766.624 C 563.971 767.518, 564.675 771.199, 565.879 774.804 C 567.083 778.410, 568.538 784.541, 569.112 788.430 C 570.458 797.537, 571.235 800.249, 572.636 800.714 C 574.670 801.389, 575.724 795.767, 574.932 788.469 C 573.372 774.096, 566.708 760.386, 564.314 766.624 M 744 779.150 C 739.875 781.418, 724.735 789.962, 710.356 798.137 C 695.976 806.312, 683.993 813, 683.727 813 C 683.461 813, 687.463 805.969, 692.621 797.376 C 697.780 788.783, 702 781.413, 702 780.999 C 702 780.584, 701.302 779.666, 700.450 778.958 C 698.322 777.192, 697.489 778.155, 689.174 792 C 685.375 798.325, 679.956 807.284, 677.133 811.910 C 671.826 820.605, 670.962 823.894, 673.447 825.956 C 675.541 827.694, 726.077 831.529, 729.750 830.229 C 731.313 829.675, 731.390 826.359, 729.862 825.415 C 728.429 824.529, 725.798 824.341, 702.893 823.488 C 692.659 823.106, 683.712 822.440, 683.012 822.007 C 681.567 821.114, 687.411 817.558, 725.500 796.152 C 754.524 779.841, 755 779.531, 755 776.953 C 755 774.017, 752.386 774.540, 744 779.150 M 354.516 785.906 C 353.595 791.359, 355.177 793.458, 359.443 792.442 C 365.051 791.105, 375.630 791.448, 377.535 793.028 C 379.226 794.431, 379.232 794.351, 377.660 791.311 C 374.612 785.415, 369.046 783.511, 362.324 786.067 C 359.833 787.014, 359.278 786.832, 357.369 784.438 L 355.219 781.742 354.516 785.906 M 313.250 794.040 C 309.838 795.398, 310.551 797.549, 314.838 798.833 C 317.616 799.666, 319.204 800.964, 320.588 803.535 C 321.640 805.488, 323.443 807.324, 324.595 807.613 C 325.760 807.906, 330.610 806.607, 335.518 804.688 L 344.345 801.236 338.420 800.549 C 334.825 800.131, 331.367 800.290, 329.624 800.953 C 327.225 801.865, 326.532 801.753, 325.408 800.272 C 324.669 799.297, 324.049 798.173, 324.032 797.773 C 323.990 796.825, 320.051 794.355, 317.500 793.677 C 316.400 793.385, 314.488 793.548, 313.250 794.040 M 156.384 797.982 C 154.478 798.752, 154.198 799.920, 153.560 809.764 C 152.822 821.153, 153.399 827.256, 155.368 828.891 C 157.232 830.437, 168.735 830.665, 170.216 829.185 C 171.097 828.305, 171.611 823.626, 171.852 814.283 C 172.197 800.966, 172.152 800.622, 169.852 798.854 C 167.340 796.921, 160.159 796.456, 156.384 797.982 M 595 808.542 C 583.959 810.548, 579.490 812.427, 573.414 817.618 C 566.115 823.854, 560.839 834.541, 557.922 849 C 552.833 874.226, 559.773 894.903, 577.257 906.606 C 588.686 914.256, 596.623 916.508, 612 916.464 C 638.632 916.388, 654.132 908.556, 662.700 890.848 C 667.166 881.619, 668.503 874.971, 668.402 862.500 C 668.305 850.621, 666.430 843.147, 661.261 834.038 C 657.964 828.228, 650.626 820.564, 645.500 817.576 C 638.932 813.747, 627.176 809.978, 617.032 808.449 C 605.809 806.757, 604.803 806.761, 595 808.542 M 224 809.983 C 224 812.162, 227.452 814.142, 242.224 820.438 C 251.379 824.341, 254.254 824.633, 254.816 821.719 C 255.068 820.410, 253.664 819.301, 249.327 817.382 C 246.122 815.964, 240.191 813.273, 236.146 811.402 C 227.602 807.449, 224 807.029, 224 809.983 M 594.500 814.442 C 586.982 816.217, 575.675 822.236, 573.161 825.799 C 565.742 836.319, 561.554 852.171, 562.277 867 C 563.262 887.208, 572.398 900.005, 591.492 907.918 C 600.151 911.507, 616.940 912.041, 629.243 909.118 C 644.620 905.465, 651.799 900.300, 657.312 888.921 C 669.824 863.099, 660.955 830.652, 638.585 820.411 C 625.625 814.477, 605.748 811.786, 594.500 814.442 M 281.499 831.939 C 278.881 833.002, 228.847 835.753, 189 837.025 C 171.675 837.578, 150.249 838.473, 141.388 839.013 C 122.482 840.164, 68.207 840.465, 59.398 839.467 C 53.390 838.786, 53.262 838.823, 51.077 841.891 C 48.478 845.542, 29.571 862.301, 19.500 869.881 C 15.650 872.779, 12.171 875.737, 11.768 876.454 C 10.512 878.692, 15.226 884.306, 22.014 888.656 C 25.581 890.941, 34.381 896.669, 41.568 901.385 L 54.637 909.958 66.461 908.878 C 77.919 907.830, 94.701 908.227, 153.500 910.936 C 176.738 912.007, 289.138 911.036, 290.750 909.751 C 293.665 907.428, 293.219 906.864, 266.885 879.609 L 258.271 870.692 265.865 861.596 C 270.042 856.593, 277.181 848.894, 281.730 844.487 C 290.210 836.270, 291.445 833.844, 288.066 832.035 C 285.820 830.833, 284.279 830.811, 281.499 831.939 M 585.473 832.044 C 584.767 833.186, 585.619 834.444, 591.256 840.578 C 596 845.740, 603.115 854.858, 608.057 862.106 L 611.879 867.712 608.190 871.302 C 606.160 873.277, 600.225 878.200, 595 882.243 C 585.263 889.776, 582.402 894, 587.037 894 C 589.169 894, 602.316 884.374, 610.770 876.623 C 613.119 874.469, 615.189 872.886, 615.370 873.104 C 617.916 876.168, 626.554 890.127, 628.018 893.542 C 630.180 898.586, 632.419 900.009, 634.663 897.765 C 636.008 896.421, 635.931 895.781, 633.955 891.878 C 632.737 889.470, 629.018 883.285, 625.692 878.134 L 619.645 868.769 631.322 857.316 C 637.745 851.017, 643 845.049, 643 844.054 C 643 843.059, 642.305 841.668, 641.456 840.963 C 640.160 839.888, 639.644 840.063, 638.256 842.045 C 636.013 845.248, 618.108 862.431, 616.658 862.773 C 616.021 862.923, 614.873 862.023, 614.107 860.773 C 611.369 856.303, 599.019 840.414, 594.658 835.750 C 590.399 831.195, 586.876 829.773, 585.473 832.044 M 293.879 849.750 C 294.401 850.712, 296.104 852.702, 297.664 854.172 C 300.925 857.244, 334.082 877.480, 344.500 882.755 C 353.521 887.324, 438.182 921.271, 461 929.469 C 514.346 948.636, 551.048 958.901, 581.016 963.035 C 589.532 964.210, 600.325 965.749, 605 966.455 C 609.675 967.161, 614.063 967.524, 614.750 967.262 C 616.181 966.717, 616.440 963.390, 615.115 962.571 C 614.190 962, 604.453 960.466, 580 957.039 C 540.565 951.512, 491.281 935.923, 407 902.316 C 346.263 878.097, 349.635 879.629, 326 865.509 C 297.868 848.703, 291.658 845.656, 293.879 849.750 M 397.028 854.072 C 393.387 855.724, 392.151 855.884, 390.374 854.932 C 387.093 853.177, 386 854.557, 386 860.452 C 386 867.334, 387.609 868.004, 393.107 863.411 C 398.475 858.926, 399.564 858.385, 405 857.500 C 407.475 857.097, 410.369 856.311, 411.430 855.752 C 413.312 854.762, 413.313 854.702, 411.489 853.368 C 408.798 851.401, 402.211 851.721, 397.028 854.072 M 85.241 856.250 C 83.397 858.546, 79.276 867.422, 76.624 874.810 C 73.911 882.367, 73.191 889, 75.084 889 C 75.680 889, 78.038 884.950, 80.325 880 C 82.611 875.050, 84.807 871, 85.204 871 C 85.600 871, 86.054 875.163, 86.212 880.250 C 86.496 889.360, 86.538 889.500, 88.987 889.500 C 90.725 889.500, 91.878 888.656, 92.818 886.695 C 93.746 884.757, 94.524 884.180, 95.331 884.829 C 98.781 887.603, 108.374 887.146, 107.800 884.236 C 107.451 882.465, 105.626 881.357, 101.686 880.524 C 99.718 880.109, 98.555 879.023, 97.821 876.917 C 97.072 874.769, 95.943 873.739, 93.885 873.327 C 91.021 872.754, 91 872.697, 91 865.446 C 91 860.140, 90.570 857.713, 89.429 856.571 C 87.531 854.673, 86.567 854.599, 85.241 856.250 M 170.991 863.204 C 163.158 871.417, 154.801 883.576, 155.176 886.215 C 155.761 890.339, 158.362 888.629, 164.979 879.770 C 168.566 874.968, 172.336 870.243, 173.357 869.270 C 175.147 867.565, 175.191 867.591, 174.563 870 C 174.204 871.375, 171.844 876.629, 169.319 881.675 C 162.819 894.666, 164.412 896.756, 176.406 890.971 C 179.913 889.280, 183.407 888.219, 184.318 888.568 C 185.223 888.916, 187.489 888.243, 189.408 887.057 L 192.867 884.919 193.184 888.209 C 193.654 893.097, 197.071 893.239, 200.004 888.493 C 201.638 885.850, 202.677 885.070, 203.869 885.591 C 209.303 887.969, 211.362 887.320, 218.169 881.082 C 221.820 877.737, 224.997 875, 225.230 875 C 225.463 875, 225.199 877.217, 224.644 879.927 C 223.482 885.599, 224.424 887.495, 228.782 888.259 C 230.277 888.522, 233.607 889.557, 236.183 890.559 C 239.998 892.044, 241.343 892.165, 243.433 891.212 C 247.166 889.511, 246.640 887.343, 242.297 886.528 C 236.379 885.418, 231 882.259, 231 879.894 C 231 878.758, 231.750 875.013, 232.667 871.571 C 235.860 859.589, 232.457 858.953, 221.975 869.574 C 217.864 873.739, 213.263 878.045, 211.751 879.141 L 209.002 881.135 208.026 878.567 C 206.914 875.643, 204.479 875.276, 201.240 877.545 C 199.544 878.732, 198.565 878.837, 196.998 877.999 C 195.449 877.170, 194.308 877.267, 192.231 878.406 C 190.729 879.229, 188.600 880.320, 187.500 880.832 C 185.106 881.944, 175 884.936, 175 884.532 C 175 884.376, 176.174 881.605, 177.609 878.374 C 180.669 871.483, 181.905 861.795, 180.015 859.518 C 177.945 857.024, 176.210 857.733, 170.991 863.204 M 156.604 917.155 C 155.634 918.540, 155.400 919.880, 155.951 920.908 C 156.421 921.787, 156.971 933.080, 157.172 946.003 C 157.505 967.327, 157.734 969.926, 159.647 974.101 C 162.130 979.519, 164.607 980.526, 168.951 977.884 L 172.056 975.995 171.877 946.748 C 171.772 929.647, 171.294 916.981, 170.726 916.250 C 170.147 915.504, 167.406 915, 163.934 915 C 159.108 915, 157.856 915.368, 156.604 917.155 M 680.276 937.809 C 658.140 956.787, 639.763 968.056, 607 982.744 C 604.803 983.729, 605.228 983.871, 610.500 983.914 C 617.689 983.973, 627.986 980.050, 643.100 971.493 C 653.339 965.695, 672.896 951.870, 681.476 944.365 C 684.220 941.964, 686.701 940, 686.988 940 C 687.275 940, 688.545 942.668, 689.809 945.928 C 694.039 956.837, 702.565 968, 706.666 968 C 709.610 968, 709.159 964.918, 705.645 961.029 C 700.584 955.427, 697.759 950.611, 694.481 942 C 691.257 933.528, 690.328 932, 688.403 932 C 687.660 932, 684.002 934.614, 680.276 937.809" stroke="none" fill="#fffcfc" fill-rule="evenodd"/><path d="" stroke="none" fill="#fcfcfc" fill-rule="evenodd"/></svg>