<svg width="20" height="20" viewBox="0 0 24 25" fill="none" xmlns="http://www.w3.org/2000/svg">
<path d="M20 4.51465H4C2.897 4.51465 2 5.41165 2 6.51465V18.5146C2 19.6176 2.897 20.5146 4 20.5146H20C21.103 20.5146 22 19.6176 22 18.5146V6.51465C22 5.41165 21.103 4.51465 20 4.51465ZM20 6.51465V7.02565L12 13.2486L4 7.02665V6.51465H20ZM4 18.5146V9.55865L11.386 15.3036C11.5611 15.4412 11.7773 15.516 12 15.516C12.2227 15.516 12.4389 15.4412 12.614 15.3036L20 9.55865L20.002 18.5146H4Z" fill="white"/>
</svg>
