<svg width="250" height="250" viewBox="0 0 250 250" fill="none" xmlns="http://www.w3.org/2000/svg">
<path fill-rule="evenodd" clip-rule="evenodd" d="M208.173 13.2056C207.786 13.7907 207.293 14.8052 207.079 15.4604C206.527 17.1466 205.847 18.4415 203.242 22.7668C199.47 29.0293 195.763 33.9336 187.761 43.247C186.208 45.0539 181.411 50.3871 179.343 52.6057C176.464 55.6942 175.07 58.0354 175.07 59.7807C175.07 62.0245 177.6 63.1815 186.516 65.015C188.679 65.4597 190.529 65.9028 190.627 65.9997C190.825 66.1945 187.418 71.3545 183.344 77.0296C181.89 79.055 179.848 81.9091 178.808 83.3718C177.767 84.8346 176.214 86.8987 175.357 87.9588C172.987 90.8876 171.552 93.2271 171.443 94.3339C171.249 96.3196 172.266 97.0816 175.774 97.5765C179.006 98.0323 182.965 98.8899 182.883 99.1161C182.599 99.9019 177.877 105.314 173.484 109.889C168.105 115.49 163.722 120.403 163.433 121.156C163.11 121.999 163.269 123.947 163.719 124.653C164.971 126.618 164.898 126.586 168.667 126.846C170.551 126.976 173.413 127.235 175.027 127.422C176.64 127.608 179.678 127.925 181.776 128.126C186.642 128.591 192.8 129.481 195.768 130.147L198.081 130.667L198.077 131.592C198.074 132.1 197.998 133.012 197.907 133.619C197.692 135.052 198.193 135.637 199.642 135.641C200.182 135.642 202.446 135.953 204.672 136.332C206.898 136.711 209.062 137.022 209.481 137.023C209.979 137.025 210.44 137.222 210.811 137.594C211.314 138.097 211.379 138.361 211.379 139.92C211.379 141.516 211.252 142.006 210.014 145.192C208.493 149.107 207.708 151.521 207.08 154.223C206.485 156.776 206.552 156.806 211.838 156.34C215.598 156.008 215.883 155.273 214.63 149.13C214.263 147.329 213.734 145.352 213.454 144.736C213.174 144.121 212.911 143.201 212.869 142.692C212.827 142.183 212.633 140.674 212.438 139.339C212.243 138.003 212.012 135.479 211.926 133.73L211.77 130.55L212.788 130.549C213.348 130.548 214.431 130.445 215.194 130.32C219.391 129.632 228.882 128.979 240.722 128.564C246.263 128.37 246.154 128.431 246.034 125.609C245.962 123.92 245.84 123.488 244.888 121.527C244.302 120.321 243.204 118.501 242.448 117.484C241.691 116.466 240.617 114.957 240.059 114.13C238.712 112.132 237.303 110.374 233.385 105.805C231.585 103.706 230.146 101.887 230.188 101.762C230.229 101.637 231.025 101.407 231.957 101.251C233.426 101.005 236.4 100.258 238.821 99.5275C239.223 99.4061 239.834 99.0256 240.178 98.682C240.766 98.0943 240.796 97.9616 240.689 96.4385C240.544 94.3619 239.888 92.6693 238.375 90.468C237.052 88.5421 233.124 82.8328 228.165 75.6244C225.569 71.8522 222.942 67.4334 222.942 66.8409C222.942 66.7747 223.8 66.7204 224.85 66.7201C228.999 66.719 238.446 65.4519 239.512 64.7534C240.26 64.2634 240.749 63.0814 240.749 61.7655C240.749 60.2955 239.634 58.7419 232.702 50.5585C228.993 46.1797 222.968 37.8004 219.173 31.7421C215.911 26.536 212.642 19.8781 210.91 14.9167C210.489 13.7083 210.045 12.5897 209.923 12.4306C209.496 11.87 208.876 12.1445 208.173 13.2056ZM207.554 25.5802C202.03 29.447 197.271 33.5835 197.271 34.5185C197.271 35.3631 197.875 35.1313 199.42 33.694C201.331 31.9169 205.116 28.9116 207.697 27.1228C209.29 26.0189 209.762 25.5719 209.711 25.2155C209.602 24.4576 209.016 24.5566 207.554 25.5802ZM206.368 31.3018C201.608 34.459 195.884 39.2456 195.884 40.0689C195.884 40.8515 197.211 40.0869 200.131 37.6221C202.269 35.8173 206.235 32.8707 208.141 31.6704C209.518 30.8027 210.222 30.1681 210.222 29.7932C210.222 29.0904 208.954 29.5869 206.368 31.3018ZM206.803 35.3774C204.885 35.9761 195.884 43.2675 195.884 44.222C195.884 45.0249 197.186 44.2671 200.406 41.5902C201.702 40.5127 203.676 38.9357 204.791 38.0858C205.906 37.2356 207.077 36.2019 207.394 35.7886C207.71 35.3753 207.929 35.0439 207.881 35.0525C207.833 35.061 207.348 35.2072 206.803 35.3774ZM199.815 65.8855C196.807 67.1464 189.512 71.0585 188.425 71.9942C188.203 72.1859 188.021 72.4826 188.021 72.6538C188.021 73.1773 188.992 72.9926 190.449 72.1917C191.212 71.7722 192.985 70.7958 194.388 70.0217C195.791 69.2479 198.029 68.1283 199.36 67.5342C200.692 66.9398 202.039 66.2016 202.354 65.8934L202.927 65.333L202.007 65.3427C201.501 65.3483 200.515 65.5925 199.815 65.8855ZM201.781 69.6968C199.916 70.4428 195.584 72.4181 193.224 73.5992C191.607 74.4082 188.483 76.3927 188.483 76.6107C188.483 77.0522 190.957 76.1915 194.228 74.6117C196.347 73.5885 199.537 72.0932 201.317 71.2888C203.429 70.3341 204.58 69.6887 204.629 69.4299C204.744 68.8341 203.691 68.9329 201.781 69.6968ZM201.897 74.6695C199.558 75.3755 195.406 77.5009 192.241 79.6131C190.81 80.5682 189.639 81.3857 189.639 81.4299C189.639 81.8432 200.857 76.4722 202.937 75.0626C204.515 73.994 204.346 73.9301 201.897 74.6695ZM186.33 100.583C185.464 100.892 184.501 101.311 184.191 101.514C183.579 101.915 183.419 102.798 183.959 102.798C184.236 102.798 186.263 102.09 188.673 101.152C189.379 100.877 189.251 100.158 188.481 100.081C188.164 100.049 187.196 100.275 186.33 100.583ZM192.785 102.353C191.399 102.725 189.161 103.385 187.813 103.82C186.464 104.255 184.372 104.889 183.164 105.228C180.917 105.858 180.297 106.163 180.521 106.525C180.903 107.143 183.231 106.66 189.871 104.582C191.715 104.005 194.057 103.362 195.074 103.154C197.067 102.745 197.893 102.262 197.271 101.868C196.697 101.505 195.439 101.641 192.785 102.353ZM200.625 104.173C191.948 106.358 181.667 109.354 179.901 110.213L178.423 110.933L180.273 110.812C181.638 110.723 183.699 110.231 188.136 108.935C191.443 107.969 197.239 106.404 201.015 105.456C204.791 104.509 208.204 103.538 208.599 103.297L209.318 102.86L208.585 102.714C207.415 102.48 207.188 102.521 200.625 104.173ZM73.3908 103.061C72.8018 103.797 72.4024 104.944 71.7097 107.886C71.3055 109.603 70.5656 112.413 70.0654 114.13C69.5652 115.848 68.8878 118.449 68.5601 119.912C66.4838 129.182 64.2053 137.035 61.3473 144.773C60.2668 147.699 58.8117 151.862 58.1135 154.024C56.4734 159.105 54.1295 165.089 52.854 167.453C52.3004 168.479 51.0571 170.577 50.0911 172.114C48.2786 174.999 48.0781 175.589 48.6982 176.209C49.296 176.807 49.9995 176.854 52.1686 176.442C53.9135 176.111 55.0855 176.073 59.7514 176.2L65.2701 176.35L67.2675 178.154C68.3661 179.145 70.0453 180.589 70.9993 181.361C71.9532 182.132 72.9882 183.038 73.2992 183.374L73.8644 183.983L72.6075 185.308C69.3189 188.774 66.3901 191.722 65.4121 192.55C64.3665 193.436 64.2624 193.47 61.8859 193.695C60.5393 193.822 55.4042 193.968 50.475 194.017C45.5458 194.067 41.3755 194.117 41.2081 194.128C40.7759 194.157 41.1112 195.105 41.7002 195.519C41.9579 195.7 42.9056 196.485 43.8064 197.263C44.7072 198.041 46.3177 199.33 47.3853 200.128L49.3263 201.578L52.5888 201.322C54.3832 201.181 59.0254 201.009 62.9049 200.94L69.9586 200.814L67.6457 203.089C66.3735 204.341 64.7407 205.914 64.0171 206.585C63.2934 207.256 62.6346 208.015 62.5527 208.273C62.3772 208.826 62.9893 209.875 63.4879 209.875C63.6755 209.875 65.3642 210.748 67.2407 211.814C69.117 212.881 73.098 214.956 76.0872 216.426C79.0763 217.897 83.083 219.947 84.9909 220.983C86.8989 222.019 89.3446 223.232 90.4257 223.679C91.5069 224.126 93.8485 225.196 95.6292 226.057C102.752 229.501 104.914 230.288 111.587 231.864C113.749 232.375 117.079 233.247 118.987 233.804C120.895 234.36 124.538 235.41 127.082 236.138C129.626 236.866 132.592 237.731 133.673 238.061L135.639 238.661L144.195 238.655C152.211 238.648 153.03 238.609 157.146 238.028C159.563 237.687 162.041 237.237 162.654 237.028C163.544 236.725 164.428 236.007 167.078 233.438C170.867 229.763 175.542 224.692 177.336 222.311C180.118 218.617 184.897 209.493 188.088 201.781C189.167 199.173 190.643 195.791 191.368 194.265C193.592 189.581 195.172 185.892 196.813 181.545C197.677 179.255 198.742 176.549 199.179 175.532C200.246 173.05 201.308 169.773 203.376 162.581C204.327 159.274 205.797 154.539 206.643 152.058C207.489 149.578 208.467 146.612 208.818 145.467C209.168 144.322 209.731 142.625 210.07 141.695C210.746 139.836 210.836 138.923 210.396 138.37C209.985 137.853 207.378 137.323 203.747 137.019C193.115 136.128 186.571 134.847 173.682 131.135C164.219 128.41 153.113 125.399 144.656 123.266C131.234 119.879 126.163 118.385 115.981 114.818C104.165 110.678 92.6931 107.2 81.7532 104.44C75.503 102.864 73.777 102.579 73.3908 103.061ZM75.4671 108.002C74.3746 110.778 73.4475 113.615 72.8404 116.038C72.45 117.596 71.666 120.455 71.0983 122.39C70.5305 124.326 69.7486 127.24 69.3605 128.866C66.1979 142.119 62.7266 153.401 58.7472 163.358C56.9433 167.873 56.036 170.428 56.1216 170.754C56.4805 172.127 57.0888 171.052 59.8927 164.088C64.03 153.811 67.0934 143.921 70.3159 130.435C70.7109 128.781 71.4895 125.867 72.0457 123.959C74.4061 115.865 75.9329 109.383 75.8048 108.002L75.7402 107.308L75.4671 108.002ZM79.7562 109.121C80.469 109.979 83.5562 111.14 88.3443 112.349C94.1838 113.823 102.285 116.363 113.206 120.143C123.585 123.735 128.249 125.245 133.557 126.729C146.31 130.296 153.494 132.433 160.384 134.711C168.035 137.24 174.818 139.171 181.083 140.604C182.927 141.026 186.512 141.904 189.05 142.555C193.17 143.613 193.701 143.702 194.014 143.389C194.321 143.082 194.323 142.999 194.025 142.711C193.706 142.403 187.779 140.826 178.885 138.683C172.301 137.096 168.364 135.954 160.037 133.213C155.649 131.769 148.104 129.477 143.27 128.12C129.23 124.179 125.543 123.046 115.981 119.735C103.077 115.267 94.9604 112.727 87.4193 110.796C78.6225 108.543 79.4222 108.718 79.7562 109.121ZM199.897 129.976C199.561 130.851 200.186 131 206.222 131.477C209.281 131.719 209.76 131.654 209.76 130.993C209.76 130.444 209.473 130.383 205.481 130.087C203.7 129.955 201.751 129.784 201.149 129.707C200.235 129.59 200.028 129.635 199.897 129.976ZM136.937 142.593C132.534 143.369 126.217 146.538 121.069 150.554C118.196 152.795 116.005 155.297 116.49 155.782C116.727 156.019 117.151 155.697 120.844 152.472C125.855 148.096 133.496 144.241 137.987 143.824C140.203 143.618 140.705 143.892 140.555 145.225C140.398 146.617 139.484 148.462 138.099 150.18C136.83 151.755 136.685 152.154 137.296 152.388C137.776 152.572 139.471 150.816 140.545 149.022C141.513 147.406 142.18 144.917 141.875 144.06C141.385 142.683 139.539 142.135 136.937 142.593ZM86.8994 143.29C86.1681 143.397 85.3617 143.596 85.107 143.732C84.5282 144.042 84.4852 144.891 85.0488 144.884C86.2164 144.87 89.5242 144.232 89.8547 143.958C90.2079 143.665 90.2056 143.619 89.8242 143.34C89.3704 143.008 88.8799 143 86.8994 143.29ZM33.3027 144.095C29.1854 145.289 25.392 147.737 23.6901 150.301C22.53 152.048 21.8214 154.345 21.5238 157.322C21.2513 160.047 21.3223 160.671 22.2132 163.39C23.268 166.61 24.962 168.648 27.6144 169.889C29.2761 170.667 32.0286 171.253 34.0168 171.253H35.3841L35.425 172.468C35.4477 173.135 35.4826 174.139 35.5027 174.698C35.5497 176.005 36.0624 176.43 37.3499 176.23C39.1406 175.952 39.2909 175.717 39.3654 173.077L39.4313 170.737L41.1126 170.311C45.1239 169.293 49.1001 166.29 50.5978 163.145C51.6119 161.016 52.2671 158.298 52.2636 156.235C52.2557 151.804 49.0772 146.828 45.0386 144.925C41.762 143.38 36.9454 143.04 33.3027 144.095ZM93.7402 144.791C93.5094 145.393 94.1239 145.741 96.5326 146.376C98.876 146.992 99.7588 146.991 99.521 146.372C99.3286 145.871 98.3846 145.445 96.2682 144.904C94.0208 144.331 93.9188 144.326 93.7402 144.791ZM178.076 145.384C176.467 145.65 174.428 146.61 172.622 147.95C169.34 150.386 167.476 155.228 168.36 159.021C168.792 160.876 170.085 163.181 171.487 164.593C173.722 166.847 176.168 167.784 179.811 167.784C183.169 167.784 185.906 166.877 188.448 164.92C190.288 163.505 191.214 162.396 191.994 160.675C194.598 154.932 193.303 149.66 188.714 147.325C187.199 146.554 184.823 145.64 183.626 145.368C182.385 145.086 179.838 145.093 178.076 145.384ZM34.3434 146.198C31.3714 146.835 29.6024 147.909 29.6024 149.077C29.6024 149.311 30.391 150.364 31.3552 151.416C32.3191 152.469 33.5941 153.996 34.1882 154.811C35.1977 156.194 41.9833 163.75 43.3314 164.991C43.8873 165.503 43.9907 165.523 44.5411 165.229C45.4859 164.723 47.4061 162.277 48.2527 160.5C49.2537 158.399 49.5689 156.701 49.2634 155.054C48.6896 151.961 45.8499 148.012 43.459 146.984C40.858 145.865 37.3226 145.561 34.3434 146.198ZM199.767 147.953C199.255 149.284 198.71 151.403 198.324 153.561C197.481 158.275 196.109 163.503 194.818 166.916C194.228 168.475 192.419 172.56 190.798 175.994C189.176 179.429 187.3 183.54 186.628 185.129C185.131 188.671 181.172 196.642 178.816 200.856C177.217 203.716 176.192 205.775 173.118 212.303C171.631 215.462 169.026 220.008 167.399 222.284C165.949 224.311 165.679 225.224 166.566 225.097C167.729 224.931 172.565 216.895 175.635 210.029C176.555 207.973 178.092 204.885 179.052 203.168C181.805 198.24 186.646 188.558 188.13 185.014C188.875 183.233 190.361 179.955 191.433 177.729C196.606 166.98 197.986 162.889 199.659 153.33C200.444 148.847 200.855 145.814 200.676 145.814C200.629 145.814 200.219 146.777 199.767 147.953ZM177.398 146.876C175.136 147.484 172.539 149.325 171.304 151.194C169.919 153.292 169.445 154.965 169.57 157.313C169.711 159.953 170.401 161.516 172.298 163.492C173.963 165.226 175.58 166.038 178.119 166.416C181.894 166.977 185.598 165.767 188.783 162.932C192.031 160.041 193.004 153.581 190.655 150.502C189.807 149.39 187.932 148.23 186.055 147.657C185.164 147.385 184.094 147.015 183.676 146.835C182.682 146.407 179.056 146.43 177.398 146.876ZM34.2992 147.536C32.787 147.879 31.3087 148.492 31.0728 148.873C30.9953 148.999 31.2992 149.469 31.7481 149.918L32.5643 150.734L33.2655 150.235C34.7964 149.145 37.7044 149.141 39.4618 150.227C41.0048 151.181 42.574 154.556 42.6348 157.051C42.6706 158.53 42.3242 159.302 41.7271 159.074C41.4986 158.986 41.397 158.569 41.397 157.72C41.397 156.256 40.7627 154.098 39.8984 152.623C39.169 151.379 37.9061 150.684 36.3596 150.676C35.1605 150.669 33.7652 151.213 33.7652 151.685C33.7652 152.645 43.3087 163.626 44.1343 163.617C44.9227 163.609 46.8982 160.735 47.657 158.494C48.3099 156.565 48.1609 155.101 47.0798 152.824C45.9176 150.377 43.8753 148.368 41.9752 147.802C40.1172 147.249 36.1658 147.112 34.2992 147.536ZM182.361 149.338C181.912 150.004 181.545 150.732 181.545 150.957C181.545 151.558 182.235 151.455 182.978 150.743C183.589 150.157 183.626 150.149 183.626 150.602C183.626 151.299 184.359 152.118 184.824 151.939C185.277 151.765 186.402 150.133 186.402 149.648C186.402 149.109 185.963 148.983 185.39 149.358C184.883 149.69 184.849 149.672 184.576 148.916C184.131 147.686 183.376 147.83 182.361 149.338ZM100.951 148.815C100.875 148.94 101.363 149.59 102.036 150.261C102.71 150.932 103.45 151.839 103.682 152.278C104.013 152.907 104.147 153.005 104.314 152.74C104.871 151.86 104.354 150.476 103.033 149.317C102.222 148.605 101.23 148.365 100.951 148.815ZM152.058 150.987C150.209 151.922 148.074 153.794 144.901 157.267C142.654 159.725 142.293 160.384 143.189 160.384C143.525 160.384 144.859 159.196 147.294 156.729C150.029 153.958 151.246 152.895 152.322 152.335C154.123 151.397 155.335 151.35 156.169 152.185C157.58 153.596 157.743 158.091 156.592 163.853C156.198 165.824 155.876 167.727 155.875 168.081C155.874 168.742 156.43 169.172 156.803 168.798C156.915 168.686 157.348 166.929 157.765 164.894C158.433 161.632 158.524 160.755 158.528 157.493C158.534 154.082 158.491 153.697 157.982 152.572C157.293 151.046 156.397 150.385 154.855 150.263C153.859 150.184 153.428 150.296 152.058 150.987ZM26.9653 151.246C26.0795 152.202 25.0351 154.398 24.7354 155.935C24.5696 156.787 24.4988 158.334 24.5638 159.686C24.6598 161.678 24.774 162.189 25.4125 163.486C27.1373 166.99 31.0235 168.776 36.1003 168.398C37.9745 168.258 40.3513 167.508 40.5488 166.993C40.6977 166.605 40.3025 166.02 38.5023 163.969C37.7211 163.078 36.571 161.621 35.9463 160.731C32.9255 156.425 28.8374 151.235 28.1956 150.892C27.6195 150.583 27.5654 150.599 26.9653 151.246ZM172.73 151.677C172.417 152.365 172.629 153.746 173.109 154.144C173.295 154.299 173.729 154.372 174.072 154.306C174.424 154.239 174.92 154.334 175.212 154.525C175.667 154.824 175.81 154.821 176.423 154.504C177.196 154.105 177.568 153.308 177.168 152.908C176.976 152.716 176.793 152.72 176.466 152.924C176.067 153.173 176.016 153.126 175.951 152.456C175.855 151.461 174.976 151.271 174.572 152.158C174.206 152.961 173.957 152.905 173.87 152.002C173.778 151.047 173.105 150.855 172.73 151.677ZM27.4389 152.785C26.2317 154.631 26.0178 155.532 26.0178 158.765C26.0178 161.828 26.0312 161.911 26.7345 163.159C27.5705 164.643 29.2032 165.986 30.8744 166.564C31.7044 166.851 32.7812 166.965 34.6903 166.969C37.4313 166.975 38.6218 166.797 38.6218 166.38C38.6218 166.248 38.0233 165.44 37.292 164.585C36.5608 163.729 34.9297 161.598 33.6674 159.849C32.0952 157.671 31.3136 156.763 31.185 156.966C31.0816 157.129 30.9956 157.808 30.9935 158.476L30.99 159.69H31.7712C33.1383 159.69 33.262 160.175 32.3665 162.026C31.6769 163.451 31.5155 163.635 31.0025 163.574C30.5908 163.526 30.1369 163.1 29.4507 162.118C28.3249 160.508 28.2224 159.986 28.9942 159.793C29.4556 159.677 29.5647 159.466 29.6859 158.458C29.765 157.8 29.8307 156.7 29.8316 156.014C29.8337 154.776 29.6167 154.361 27.9655 152.438C27.8718 152.329 27.635 152.485 27.4389 152.785ZM182.001 153.577C181.656 154.382 181.451 154.605 181.142 154.513C178.778 153.808 177.845 153.799 177.845 154.484C177.845 154.879 178.372 155.151 179.868 155.528C180.409 155.665 180.851 155.874 180.851 155.993C180.851 156.112 180.644 156.551 180.39 156.967C179.886 157.793 179.787 158.652 180.168 158.887C180.532 159.112 181.055 158.573 181.691 157.318C182.24 156.234 182.292 156.197 183.002 156.366C184.401 156.7 185.13 156.614 185.13 156.112C185.13 155.784 184.838 155.546 184.089 155.263C183.457 155.024 183.081 154.749 183.131 154.563C183.176 154.394 183.268 153.865 183.335 153.388C183.443 152.615 183.401 152.521 182.955 152.521C182.58 152.521 182.339 152.787 182.001 153.577ZM186.885 155.617C186.486 156.099 185.477 158.779 185.477 159.359C185.477 160.02 185.838 160.297 187.161 160.651C187.998 160.875 188.312 160.879 188.523 160.668C188.874 160.317 188.238 159.564 187.416 159.357C186.772 159.196 186.885 158.765 187.572 158.765C188.05 158.765 188.213 157.986 187.789 157.724C187.662 157.646 187.558 157.431 187.558 157.246C187.558 156.976 187.804 156.94 188.825 157.06C189.892 157.185 190.116 157.146 190.243 156.815C190.445 156.29 190.064 155.949 188.883 155.596C187.621 155.218 187.213 155.223 186.885 155.617ZM136.302 156.555C133.522 157.132 131.118 158.213 130.493 159.166C129.949 159.997 130.419 160.763 131.863 161.401C132.951 161.881 133.008 161.942 132.498 162.083C132.19 162.167 130.117 162.393 127.891 162.583C122.346 163.058 121.647 163.239 121.647 164.202C121.647 164.871 122.684 165.699 124.259 166.286C124.869 166.513 125.286 166.77 125.184 166.857C125.083 166.944 124.168 167.248 123.15 167.533C121.094 168.109 120.259 168.55 120.259 169.062C120.259 169.593 121.16 169.482 124.234 168.572C127.537 167.593 128.051 167.379 128.234 166.903C128.439 166.367 127.877 165.947 126.454 165.576C125.75 165.392 124.771 165.07 124.278 164.86L123.381 164.478L124.075 164.284C124.457 164.177 126.285 163.987 128.138 163.861C132.751 163.549 135.523 162.954 136.206 162.131C136.693 161.545 136.098 161.109 134.3 160.733C132.705 160.399 131.823 160.037 131.823 159.716C131.823 159.274 135.077 158.075 137.349 157.68C139.089 157.377 139.824 157.148 140.009 156.851C140.206 156.533 140.185 156.389 139.917 156.218C139.451 155.921 139.274 155.938 136.302 156.555ZM103.904 156.973C103.78 157.132 103.546 157.758 103.382 158.364C103.217 158.97 102.785 159.937 102.42 160.511C102.056 161.086 101.758 161.709 101.758 161.895C101.758 162.519 102.642 162.243 103.335 161.403C104.116 160.455 105.079 157.772 104.871 157.12C104.713 156.621 104.232 156.548 103.904 156.973ZM139.918 158.186C138.516 159.22 138.378 159.837 139.261 161.113C139.817 161.917 139.797 162.283 139.165 162.861C138.326 163.631 136.821 164.289 134.794 164.773C132.375 165.35 132.12 165.658 133.095 166.817C133.413 167.195 133.673 167.66 133.673 167.851C133.673 168.355 132.343 168.809 128.816 169.512C123.935 170.484 122.572 170.965 122.572 171.717C122.572 172.058 123.408 172.201 124.029 171.965C124.356 171.841 126.424 171.361 128.625 170.898C132.739 170.034 133.93 169.661 134.647 169.012C135.152 168.555 135.182 167.492 134.711 166.773C134.367 166.246 134.378 166.237 135.629 165.956C137.383 165.564 139.52 164.45 140.365 163.487C141.196 162.54 141.279 161.633 140.611 160.783C139.977 159.977 140.029 159.629 140.855 159.141C141.355 158.846 141.542 158.577 141.491 158.226C141.39 157.518 140.843 157.504 139.918 158.186ZM177.665 160.513C177.064 160.933 176.971 162.028 177.498 162.465C177.997 162.879 177.927 163.13 177.267 163.295C176.597 163.464 176.545 163.676 177.052 164.183C177.516 164.648 178.521 164.649 179.181 164.187C179.848 163.719 179.83 163.264 179.105 162.314L178.515 161.54H179.077C179.89 161.54 180.276 160.998 179.802 160.524C179.33 160.052 178.33 160.047 177.665 160.513ZM95.8612 165.274C94.2278 166.216 93.9047 166.506 93.8982 167.033C93.8922 167.524 94.8099 167.354 96.2199 166.603C97.7863 165.768 98.4005 165.171 98.2086 164.671C98.0078 164.148 97.6533 164.239 95.8612 165.274ZM91.3445 171.311C91.049 171.963 90.8968 172.816 90.8933 173.842C90.889 175.188 90.9563 175.438 91.4086 175.756L91.929 176.121L92.086 174.323C92.1722 173.334 92.4098 172.131 92.6137 171.648C93.027 170.669 92.9331 170.328 92.2509 170.328C91.9336 170.328 91.6521 170.634 91.3445 171.311ZM147.4 171.588C146.387 172.029 144.853 173.464 144.194 174.587C143.759 175.33 143.394 175.619 142.49 175.94C139.075 177.151 138.92 181.5 142.24 182.965C142.743 183.187 143.155 183.442 143.155 183.531C143.155 183.784 141.61 185.079 140.824 185.486C140.436 185.686 140.159 185.974 140.209 186.126C140.367 186.606 141.513 186.569 142.34 186.058C143.555 185.307 145.2 183.347 145.476 182.321C145.831 181.003 145.677 179.338 145.172 179.024C144.587 178.662 144.319 179.182 144.314 180.685C144.31 182.136 144.024 182.338 142.797 181.755C140.466 180.649 140.69 177.564 143.134 177.124C144.353 176.904 144.738 176.643 145.092 175.796C145.501 174.817 146.743 173.405 147.572 172.976C147.928 172.792 148.779 172.641 149.463 172.641C150.492 172.641 150.8 172.741 151.253 173.223C151.554 173.544 152.318 173.96 152.952 174.148C155.93 175.032 156.335 176.592 154.054 178.399C153.011 179.226 152.925 179.567 153.446 180.815C153.912 181.929 153.883 182.895 153.372 183.357C152.585 184.069 149.341 184.365 148.405 183.811C148.304 183.75 148.538 183.14 148.926 182.453C149.74 181.01 149.808 180.504 149.188 180.504C147.938 180.504 146.55 183.892 146.67 186.654C146.732 188.074 146.791 188.252 147.202 188.252C147.603 188.252 147.688 188.038 147.841 186.648C148.037 184.879 148.122 184.685 148.524 185.087C148.97 185.534 152.131 185.423 153.233 184.922C155.064 184.091 155.559 182.79 154.83 180.724L154.479 179.73L155.262 179.084C156.678 177.917 157.174 176.117 156.459 174.735C156.116 174.071 154.085 172.872 153.303 172.872C153.083 172.872 152.609 172.628 152.25 172.329C151.89 172.029 151.369 171.665 151.091 171.519C150.407 171.16 148.294 171.199 147.4 171.588ZM59.3915 177.157C59.3247 177.223 48.25 177.288 34.7807 177.3C20.4826 177.313 10.1232 177.41 9.88687 177.534C9.64496 177.66 9.48215 178.012 9.48215 178.407C9.48215 178.932 9.67156 179.183 10.3915 179.613C11.487 180.268 16.8827 185.073 16.8827 185.393C16.8827 185.635 15.7472 186.904 12.318 190.494C11.0904 191.779 10.176 192.932 10.176 193.195C10.176 193.873 10.8041 194.381 11.6378 194.377C13.3371 194.369 20.6346 193.898 22.6644 193.665C23.8728 193.527 29.2844 193.375 34.6903 193.328C40.0962 193.281 48.604 193.151 53.5969 193.038C61.5289 192.858 62.7278 192.784 63.0969 192.45C63.3293 192.24 63.6514 192.068 63.8129 192.068C63.9743 192.068 64.7985 191.408 65.6447 190.602C66.4909 189.797 67.7 188.75 68.3314 188.277C70.169 186.901 72.1556 184.939 72.1556 184.501C72.1556 184.279 71.4879 183.459 70.6718 182.678C69.1612 181.233 64.82 177.784 63.9031 177.301C63.4068 177.04 59.6295 176.919 59.3915 177.157ZM93.4322 180.509C93.4322 182.167 97.1036 184.744 99.7611 184.951L101.118 185.056L100.57 184.613C100.27 184.369 99.3989 183.875 98.6357 183.514C96.7504 182.623 95.3464 181.564 94.7819 180.607C94.1711 179.572 93.4322 179.518 93.4322 180.509ZM22.796 183.534C21.9505 184.539 20.2784 188.074 20.444 188.506C20.7328 189.258 21.416 188.665 22.4102 186.8C22.9699 185.75 23.4678 184.931 23.5166 184.98C23.5654 185.028 23.712 185.731 23.8425 186.541C23.9731 187.352 24.2458 188.198 24.4486 188.422C24.8496 188.865 25.561 188.963 25.7819 188.606C25.858 188.483 26.209 188.44 26.5624 188.511C26.9155 188.581 27.6503 188.519 28.1951 188.373C29.0282 188.148 29.2493 188.163 29.5858 188.468C30.2023 189.026 30.8203 188.904 31.8524 188.02C32.953 187.078 33.0908 187.05 33.4868 187.684C33.7227 188.061 33.9896 188.146 34.8173 188.103C35.3866 188.073 35.9759 188.173 36.1269 188.324C36.7835 188.98 37.9553 188.567 39.4764 187.143L40.2153 186.451L40.3575 187.12C40.4357 187.488 40.5821 187.945 40.6829 188.136C40.8998 188.546 41.7694 188.719 42.1614 188.43C42.5705 188.128 47.145 188.246 48.243 188.588C49.0421 188.836 49.3887 188.825 50.4401 188.521C51.1267 188.323 52.0289 188.171 52.4449 188.183C52.861 188.196 53.7835 187.912 54.4946 187.552C55.6454 186.97 55.8679 186.929 56.5134 187.175C57.1618 187.422 57.2826 187.399 57.6498 186.951C58.0888 186.416 58.0684 186.389 56.7167 185.691C56.2657 185.459 54.966 185.777 53.7666 186.415C53.1417 186.747 52.4935 186.936 52.2465 186.857C52.0097 186.782 51.2382 186.903 50.5319 187.126C49.4445 187.469 49.1246 187.486 48.4451 187.24C47.9882 187.075 46.357 186.932 44.6565 186.907L41.6704 186.864L41.5448 186.092C41.2504 184.279 40.3998 184.233 38.7074 185.939C37.355 187.302 37.1403 187.388 36.4248 186.846C36.1142 186.611 35.6963 186.541 35.1528 186.632C34.4623 186.749 34.3094 186.691 34.1121 186.238C33.7097 185.315 32.7793 185.425 31.5714 186.539L30.5134 187.514L30.0488 187.016C29.4933 186.419 29.1223 186.395 28.1623 186.891C27.4563 187.256 27.4287 187.251 26.9983 186.66C26.5305 186.018 25.9354 185.882 25.4986 186.319C25.218 186.6 25.1607 186.443 24.8543 184.555C24.5457 182.655 23.8332 182.301 22.796 183.534ZM119.127 183.207C118.79 183.457 118.789 183.516 119.118 183.851C119.622 184.362 123.866 184.626 124.874 184.209C125.432 183.978 125.53 183.847 125.328 183.603C125.004 183.213 124.161 183.077 121.555 182.996C120.229 182.954 119.366 183.029 119.127 183.207ZM112.627 185.635C112.309 185.771 111.132 185.905 110.012 185.935C107.807 185.994 107.274 186.219 107.888 186.833C108.173 187.118 108.708 187.211 110.063 187.211C112.051 187.211 113.683 186.812 114.579 186.107L115.167 185.645L114.649 185.506C113.92 185.311 113.299 185.351 112.627 185.635ZM130.508 186.661C130.428 186.868 130.591 187.719 130.87 188.553C131.148 189.387 131.484 190.805 131.617 191.704C131.929 193.811 132.108 194.438 132.432 194.545C132.903 194.701 133.146 193.401 132.963 191.713C132.602 188.389 131.061 185.219 130.508 186.661ZM172.063 189.558C171.109 190.083 167.608 192.059 164.282 193.949C160.957 195.84 158.185 197.387 158.124 197.387C158.062 197.387 158.988 195.761 160.181 193.773C161.374 191.786 162.35 190.082 162.35 189.986C162.35 189.89 162.188 189.678 161.991 189.514C161.499 189.105 161.307 189.328 159.384 192.53C158.505 193.993 157.252 196.065 156.599 197.135C155.372 199.145 155.172 199.906 155.747 200.383C156.231 200.785 167.918 201.672 168.768 201.371C169.129 201.243 169.147 200.476 168.793 200.258C168.462 200.053 167.854 200.009 162.556 199.812C160.19 199.724 158.12 199.57 157.959 199.47C157.624 199.263 158.976 198.441 167.785 193.49C174.497 189.718 174.607 189.646 174.607 189.05C174.607 188.371 174.003 188.492 172.063 189.558ZM81.9882 191.121C81.7752 192.382 82.141 192.867 83.1276 192.632C84.4246 192.323 86.8711 192.402 87.3117 192.768C87.7028 193.092 87.7042 193.074 87.3406 192.371C86.6357 191.007 85.3485 190.567 83.7939 191.158C83.2178 191.377 83.0895 191.335 82.648 190.781L82.1507 190.158L81.9882 191.121ZM72.4447 193.002C71.6556 193.316 71.8205 193.813 72.8119 194.11C73.4544 194.303 73.8217 194.603 74.1417 195.198C74.385 195.649 74.802 196.074 75.0684 196.141C75.3378 196.209 76.4595 195.908 77.5946 195.464L79.6359 194.666L78.2657 194.507C77.4343 194.41 76.6346 194.447 76.2315 194.601C75.6766 194.811 75.5164 194.786 75.2564 194.443C75.0855 194.218 74.9421 193.958 74.9382 193.865C74.9285 193.646 74.0175 193.075 73.4276 192.918C73.1732 192.85 72.731 192.888 72.4447 193.002ZM36.1667 193.913C35.7259 194.092 35.6612 194.362 35.5136 196.638C35.3429 199.272 35.4764 200.684 35.9317 201.062C36.3628 201.419 39.0231 201.472 39.3656 201.13C39.5693 200.926 39.6882 199.844 39.7439 197.683C39.8237 194.604 39.8133 194.524 39.2814 194.115C38.7005 193.668 37.0397 193.561 36.1667 193.913ZM137.604 196.356C135.051 196.82 134.017 197.254 132.612 198.455C130.924 199.897 129.704 202.368 129.029 205.712C127.852 211.546 129.457 216.328 133.501 219.035C136.144 220.804 137.98 221.325 141.536 221.314C147.695 221.297 151.28 219.486 153.261 215.39C154.294 213.256 154.603 211.719 154.58 208.834C154.557 206.087 154.124 204.359 152.928 202.252C152.166 200.908 150.469 199.136 149.283 198.445C147.764 197.559 145.046 196.688 142.7 196.334C140.104 195.943 139.871 195.944 137.604 196.356ZM51.8041 196.689C51.8041 197.193 52.6024 197.651 56.0187 199.107C58.1359 200.009 58.8008 200.077 58.9308 199.403C58.9891 199.1 58.6644 198.844 57.6614 198.4C56.9202 198.072 55.5485 197.45 54.613 197.017C52.6371 196.103 51.8041 196.006 51.8041 196.689ZM137.489 197.72C135.75 198.131 133.135 199.523 132.554 200.347C130.838 202.78 129.869 206.446 130.036 209.875C130.264 214.549 132.377 217.508 136.793 219.338C138.796 220.168 142.678 220.292 145.524 219.616C149.08 218.771 150.74 217.576 152.015 214.945C154.909 208.973 152.858 201.469 147.684 199.101C144.687 197.728 140.09 197.106 137.489 197.72ZM65.1017 201.767C64.4963 202.012 52.925 202.649 43.7097 202.943C39.703 203.071 34.7479 203.278 32.6986 203.403C28.3263 203.669 15.7742 203.738 13.737 203.508C12.3476 203.35 12.318 203.359 11.8126 204.068C11.2116 204.913 6.839 208.788 4.5099 210.541C3.61952 211.212 2.81495 211.896 2.72174 212.061C2.43127 212.579 3.52147 213.877 5.09131 214.883C5.91624 215.412 7.95139 216.737 9.61351 217.827L12.6359 219.81L15.3705 219.56C18.0203 219.318 21.9014 219.41 35.4997 220.036C40.8739 220.284 66.8684 220.059 67.2412 219.762C67.9153 219.225 67.8122 219.094 61.722 212.791L59.7298 210.729L61.4861 208.625C62.4521 207.468 64.1031 205.688 65.1551 204.669C67.1163 202.768 67.4019 202.207 66.6205 201.789C66.101 201.511 65.7446 201.506 65.1017 201.767ZM135.401 201.791C135.238 202.055 135.435 202.346 136.738 203.765C137.836 204.958 139.481 207.067 140.624 208.743L141.508 210.04L140.655 210.87C140.185 211.327 138.813 212.465 137.604 213.4C135.352 215.142 134.691 216.119 135.763 216.119C136.256 216.119 139.296 213.893 141.251 212.101C141.795 211.602 142.273 211.236 142.315 211.287C142.904 211.995 144.902 215.224 145.24 216.013C145.74 217.18 146.258 217.509 146.777 216.99C147.088 216.679 147.07 216.531 146.613 215.629C146.332 215.072 145.472 213.641 144.702 212.45L143.304 210.284L146.004 207.635C147.49 206.179 148.705 204.799 148.705 204.568C148.705 204.338 148.544 204.017 148.348 203.854C148.048 203.605 147.929 203.645 147.608 204.104C147.089 204.845 142.948 208.818 142.613 208.898C142.466 208.932 142.2 208.724 142.023 208.435C141.39 207.401 138.534 203.727 137.525 202.648C136.54 201.595 135.725 201.266 135.401 201.791ZM67.9648 205.886C68.0855 206.108 68.4794 206.568 68.8402 206.908C69.5943 207.619 77.2625 212.299 79.6718 213.519C81.7581 214.575 101.337 222.426 106.614 224.322C118.952 228.755 127.44 231.129 134.37 232.085C136.34 232.357 138.836 232.713 139.917 232.876C140.998 233.039 142.013 233.123 142.172 233.062C142.503 232.936 142.563 232.167 142.256 231.978C142.042 231.845 139.79 231.491 134.135 230.698C125.015 229.42 113.617 225.815 94.126 218.043C80.0795 212.441 80.8594 212.796 75.3933 209.53C68.8873 205.644 67.4512 204.939 67.9648 205.886ZM91.8198 206.885C90.9778 207.267 90.6919 207.304 90.2809 207.084C89.5222 206.678 89.2694 206.997 89.2694 208.361C89.2694 209.952 89.6415 210.107 90.913 209.045C92.1544 208.008 92.4063 207.883 93.6635 207.678C94.2359 207.585 94.9051 207.403 95.1505 207.274C95.5858 207.045 95.586 207.031 95.1642 206.722C94.5418 206.268 93.0185 206.342 91.8198 206.885ZM19.7136 207.389C19.2872 207.92 18.3341 209.973 17.7208 211.681C17.0934 213.429 16.9269 214.963 17.3647 214.963C17.5025 214.963 18.0478 214.026 18.5767 212.882C19.1054 211.737 19.6133 210.8 19.7051 210.8C19.7967 210.8 19.9017 211.763 19.9382 212.939C20.0039 215.046 20.0136 215.079 20.58 215.079C20.9819 215.079 21.2486 214.883 21.466 214.43C21.6806 213.982 21.8605 213.848 22.0471 213.998C22.845 214.64 25.0636 214.534 24.9308 213.861C24.8501 213.452 24.428 213.195 23.5168 213.003C23.0617 212.907 22.7927 212.656 22.623 212.169C22.4498 211.672 22.1887 211.434 21.7127 211.338C21.0504 211.206 21.0455 211.193 21.0455 209.516C21.0455 208.289 20.9461 207.727 20.6822 207.463C20.2433 207.024 20.0203 207.007 19.7136 207.389ZM39.5448 208.997C37.7333 210.897 35.8006 213.709 35.8873 214.319C36.0226 215.273 36.6241 214.877 38.1544 212.828C38.984 211.718 39.8559 210.625 40.092 210.4C40.506 210.006 40.5161 210.012 40.3709 210.569C40.2879 210.887 39.7421 212.102 39.1581 213.269C37.6549 216.273 38.0233 216.757 40.7971 215.419C41.6082 215.028 42.4162 214.782 42.6269 214.863C42.8362 214.944 43.3603 214.788 43.8041 214.514L44.604 214.019L44.6773 214.78C44.786 215.91 45.5763 215.943 46.2546 214.846C46.6325 214.234 46.8728 214.054 47.1484 214.175C48.4051 214.725 48.8813 214.574 50.4556 213.132C51.2999 212.358 52.0346 211.725 52.0885 211.725C52.1424 211.725 52.0814 212.238 51.953 212.865C51.6843 214.176 51.9021 214.615 52.91 214.792C53.2557 214.852 54.0259 215.092 54.6216 215.324C55.5039 215.667 55.8149 215.695 56.2983 215.475C57.1616 215.081 57.04 214.58 56.0356 214.391C54.6669 214.135 53.4229 213.404 53.4229 212.857C53.4229 212.594 53.5964 211.728 53.8085 210.932C54.5469 208.161 53.7599 208.014 51.3358 210.47C50.385 211.434 49.321 212.429 48.9713 212.683L48.3355 213.144L48.1098 212.55C47.8526 211.874 47.2895 211.789 46.5404 212.314C46.1482 212.588 45.9218 212.613 45.5594 212.419C45.2012 212.227 44.9373 212.25 44.4569 212.513C44.1096 212.703 43.6172 212.956 43.3628 213.074C42.8092 213.331 40.472 214.023 40.472 213.93C40.472 213.894 40.7435 213.253 41.0754 212.506C41.783 210.912 42.0689 208.671 41.6318 208.145C41.1531 207.568 40.7518 207.732 39.5448 208.997ZM36.2176 221.474C35.9933 221.795 35.9391 222.105 36.0666 222.342C36.1753 222.546 36.3025 225.157 36.3489 228.146C36.426 233.077 36.4789 233.679 36.9213 234.644C37.4956 235.897 38.0684 236.13 39.073 235.519L39.7911 235.082L39.7497 228.318C39.7254 224.363 39.6149 221.434 39.4835 221.265C39.3496 221.092 38.7157 220.976 37.9128 220.976C36.7967 220.976 36.5071 221.061 36.2176 221.474ZM157.326 226.251C152.206 230.64 147.956 233.246 140.379 236.643C139.871 236.871 139.97 236.904 141.189 236.913C142.852 236.927 145.233 236.02 148.728 234.041C151.096 232.7 155.619 229.503 157.603 227.767C158.238 227.212 158.812 226.758 158.878 226.758C158.944 226.758 159.238 227.375 159.531 228.129C160.509 230.651 162.481 233.233 163.429 233.233C164.11 233.233 164.006 232.52 163.193 231.621C162.022 230.325 161.369 229.212 160.611 227.22C159.865 225.261 159.651 224.907 159.205 224.907C159.034 224.907 158.188 225.512 157.326 226.251Z" fill="#6F4524"/>
</svg>
