<svg width="1440" height="800" viewBox="0 0 1440 800" fill="none" xmlns="http://www.w3.org/2000/svg">
<path fill-rule="evenodd" clip-rule="evenodd" d="M0 0H1440V800H0V0ZM943 116L945.04 117.01C951.08 120.15 956.34 124.01 961 129V131C963.23 130.86 965.46 130.71 967.69 130.56C968.009 130.541 968.328 130.52 968.649 130.499C969.012 130.475 969.378 130.451 969.75 130.43C974.08 130.14 978.42 129.8 982.75 129.44C984.763 129.285 986.785 129.149 988.798 129.014L988.833 129.012L988.872 129.009L989 129H997V128.906C1001.91 129.384 1005.72 131.098 1010.16 134.8C1016.67 140.89 1019.02 146.09 1020 155C1019.99 157.7 1019.92 160.32 1019.75 163C1019.73 163.347 1019.72 163.697 1019.71 164.05L1019.69 164.605L1019.68 164.701L1019.67 165.04C1019.37 170.01 1018.14 173.59 1016 178C1022.08 179.39 1025.83 178.42 1031.56 176.19C1032.86 175.704 1034.17 175.224 1035.46 174.745L1035.48 174.738L1036.86 174.23C1038.32 173.7 1038.32 173.7 1039.8 173.15C1044.74 171.378 1049.71 169.745 1054.69 168.111L1056.28 167.59C1064.73 164.81 1073.16 162.03 1081.44 158.75C1094.87 153.66 1108.67 149.5 1123.12 149.31L1123.74 149.295L1125.62 149.25C1129.74 149.34 1131.49 149.59 1134.79 152.24C1135.52 153.15 1136.25 154.06 1137 155C1137.74 155.79 1138.48 156.58 1139.24 157.39C1142.48 161.17 1144.78 163.87 1145.75 168.81C1145.64 169.699 1145.59 170.181 1145.51 170.658C1145.41 171.223 1145.28 171.781 1145 173C1144.79 174 1144.58 175 1144.36 176.04C1141.19 188.35 1134.16 195.83 1124 203C1123.51 203.358 1123.01 203.716 1122.51 204.077C1121.94 204.492 1121.36 204.912 1120.77 205.34C1112.93 211 1104.97 216.52 1097 222C1097.58 225.58 1098.52 228.36 1100.25 231.54C1100.43 231.884 1100.62 232.227 1100.8 232.571C1100.93 232.818 1101.07 233.067 1101.2 233.317C1101.33 233.559 1101.46 233.803 1101.59 234.05C1101.83 234.476 1102.06 234.901 1102.29 235.329L1102.33 235.399L1102.6 235.883L1102.77 236.198L1103 236.62C1103.92 238.32 1104.84 240.02 1105.75 241.73L1106.1 242.38L1106.43 242.972L1106.75 243.569L1106.98 243.99C1109.73 249.41 1109.52 255.06 1109 261L1109 261.003C1108.5 262.145 1108.26 262.688 1108 263.218C1107.76 263.698 1107.5 264.167 1107 265.06C1106.52 265.992 1106.29 266.457 1106.16 266.95C1106.04 267.442 1106.02 267.962 1106 269C1107.85 272.52 1110.3 275.504 1112.8 278.543L1112.82 278.563L1113.53 279.427L1113.74 279.685L1114 280C1115.34 281.96 1116.66 283.94 1117.94 285.94L1117.95 285.949C1118.79 287.25 1118.79 287.253 1119.65 288.59C1122.7 294.04 1122.48 299.89 1122 306C1119.34 313.041 1111.57 317.657 1105.04 321.535C1104.23 322.013 1103.45 322.481 1102.69 322.94C1102.27 323.201 1101.84 323.459 1101.42 323.72L1101.41 323.724L1101.05 323.946L1100.64 324.197C1100.42 324.33 1100.2 324.464 1099.98 324.6C1091.32 329.88 1082.53 334.95 1073.71 339.97C1063.28 345.31 1063.28 345.31 1056 354C1056.57 354.536 1057.14 355.077 1057.71 355.626C1057.97 355.875 1058.23 356.127 1058.5 356.38C1060.07 358.025 1060.65 358.637 1060.87 359.36C1061 359.788 1061 360.255 1061 361C1061.29 361.119 1061.57 361.24 1061.86 361.363L1061.89 361.371C1062.15 361.483 1062.42 361.597 1062.69 361.71C1069.44 365.48 1076.29 372.73 1079 380C1079.95 386.51 1080.06 392.21 1076.44 397.88C1071.09 404.74 1064.58 410.37 1058 416C1057.5 416.44 1057 416.88 1056.48 417.33C1044.44 427.84 1031 436.49 1017.29 444.64C1013.31 447.01 1009.34 449.41 1005.38 451.81L1005.05 452.008C1004.9 452.094 1004.75 452.181 1004.61 452.269L1004.13 452.555L1004.06 452.599L1003.97 452.651C1003.71 452.807 1003.45 452.964 1003.19 453.12C998.22 456.13 993.58 459.44 989 463C989.563 463.494 989.848 463.744 990.134 463.994L990.526 464.336L991.31 465.02C998.28 471.21 1004.33 477.57 1010 485L1010.46 485.52L1010.49 485.558C1010.89 486.02 1011.3 486.482 1011.72 486.96C1014.2 490.909 1013.63 495.707 1013.09 500.214C1013.06 500.477 1013.03 500.739 1013 501C1012 504.22 1010.62 507.06 1009 510C1008.81 510.392 1008.62 510.782 1008.42 511.174L1007.86 512.327C1007.66 512.735 1007.46 513.145 1007.25 513.56L1006 516C1010.91 515.13 1015.64 514.21 1020.31 512.44C1027.24 510.02 1034.48 509.77 1041.75 510.25C1046.05 512.562 1048.47 515.775 1051.34 519.591L1051.71 520.08C1053.83 522.78 1056.06 524.93 1058.56 527.25C1062.1 531.18 1062.62 534.25 1062.81 539.5C1062.41 546.18 1061.21 550.8 1057 556L1056.97 556.039C1056.17 557.041 1056.15 557.063 1055.32 558.092L1055.31 558.11L1055.3 558.12C1049.49 564.537 1042.24 569.162 1035 573.78L1034.95 573.813C1033.97 574.437 1032.99 575.062 1032.02 575.69C1026.76 579.096 1021.71 582.763 1016.64 586.435L1015.82 587.03C1008.24 592.53 1000.65 597.98 992.82 603.13C985.93 607.69 979.18 612.46 972.43 617.23C957.85 627.53 942.99 637.33 927.78 646.7C923.07 649.63 918.44 652.69 913.83 655.79C913.18 656.22 912.53 656.65 911.86 657.1C908.6 659.29 905.34 661.49 902.08 663.69C879.8 678.74 879.8 678.74 867.56 682.44L865.33 683.17C860.91 684.58 856.63 685.47 852 686C850.95 686.15 849.9 686.3 848.82 686.45C843.8 686.83 840.33 686.83 835.97 684.12C831.74 680.24 828.54 676.67 827.62 670.88C827.58 665.76 829.37 662.3 832 658C831.283 657.622 830.882 657.41 830.455 657.279C829.912 657.113 829.328 657.078 828 657C825.44 658.07 823.11 659.19 820.69 660.5C819.242 661.249 817.805 661.988 816.367 662.726L816.36 662.73C815.266 663.297 815.26 663.3 814.167 663.871L814.15 663.88C797.71 672.42 778.36 680.53 759.5 675.06C752.34 671.66 745.96 664.26 743 657C743.4 651.71 744.81 647.1 746.69 642.19C746.95 641.49 747.21 640.8 747.48 640.08C749.72 634.34 752.53 629.11 756 624C747.8 627.49 739.73 631.08 731.81 635.19C725.09 638.65 718.34 641.1 711 643C710.37 643.18 709.75 643.35 709.1 643.53C705.877 644.252 702.631 644.25 699.357 644.248C699.015 644.248 698.672 644.247 698.329 644.248L698.028 644.249L697.75 644.25H697.748L696.876 644.271L695.26 644.31C688.48 644.36 682.82 643.33 677.44 638.88C676.23 637.45 676.23 637.45 675 636C674.571 635.53 674.146 635.064 673.716 634.59C673.516 634.369 673.314 634.146 673.11 633.92C668.08 628.1 668.08 628.1 667.75 623.75C667.92 623.236 668.092 622.722 668.264 622.206L668.519 621.444C668.679 620.966 668.84 620.485 669 620C669.077 619.728 669.156 619.456 669.234 619.185L669.459 618.411L669.464 618.394C669.605 617.908 669.748 617.418 669.89 616.92C673.709 605.132 681.71 600.486 691.907 594.565L692.88 594C694.65 592.95 696.43 591.89 698.21 590.84C699.05 590.34 699.89 589.85 700.75 589.34C706.323 586.024 711.752 582.47 717.185 578.913L717.191 578.909L718.58 578C727.52 572.16 736.5 566.42 745.7 560.97C749.53 558.68 753.3 556.3 757.05 553.88C765.01 548.8 773 543.75 781.12 538.94C785 536.64 788.78 534.21 792.56 531.75C798.53 527.88 804.61 524.24 810.75 520.66C816.64 517.23 822.44 513.68 828.23 510.09C830.19 508.88 832.16 507.68 834.14 506.48C845.17 499.77 856.1 492.93 867 486C867.275 485.826 867.548 485.651 867.822 485.476C868.176 485.249 868.533 485.021 868.9 484.79C871.94 482.86 874.97 480.93 878 479L876 477C872.89 478.45 869.79 479.91 866.69 481.38C865.85 481.77 865 482.16 864.13 482.57C857.16 485.86 850.35 489.42 843.53 493.03C837.8 496.06 832.05 499.05 826.28 502L825.468 502.415L825.443 502.428L825.286 502.508L824.647 502.835C824.38 502.972 824.111 503.11 823.84 503.25C821.635 504.38 819.429 505.505 817.221 506.632L814.05 508.25C804.27 513.25 794.52 518.29 784.81 523.42C780 525.95 775.19 528.46 770.36 530.94C754.39 539.12 754.39 539.12 738.68 547.79C731.723 551.771 724.611 555.456 717.501 559.141C716.537 559.64 715.573 560.14 714.61 560.64C683.46 576.84 652.9 594.01 622.67 611.84C620.24 613.27 617.81 614.7 615.38 616.12C604.15 622.72 592.93 629.33 581.94 636.31C581.626 636.508 581.314 636.707 581.001 636.906L580.988 636.914L580.917 636.959C580.499 637.224 580.079 637.49 579.65 637.76L570.71 643.46L570.708 643.461C547.484 658.258 539.88 663.102 531.859 663.94C527.955 664.347 523.952 663.805 518 663C512.11 661.37 509.61 658.55 505.89 654.01C502.86 650.79 499.2 648.42 495 647C491.599 647.51 488.912 649.029 485.978 650.687L485.975 650.689L485.46 650.98L484.527 651.507L484.449 651.552L483.701 651.975C483.206 652.255 482.707 652.537 482.2 652.82C481.714 653.098 481.228 653.374 480.74 653.651L480.652 653.7L479.797 654.186L479.206 654.523L478.81 654.75C475.54 656.6 472.27 658.45 469 660.29C467.12 661.36 465.24 662.44 463.37 663.53L463.318 663.56L463.27 663.588L463.226 663.614L462.488 664.039L461.01 664.89C460.789 665.021 460.568 665.15 460.347 665.279L459.93 665.522C459.626 665.699 459.32 665.877 459.01 666.06C452.44 669.13 443.53 669.08 436.69 666.94C432.4 665.08 429.45 661.94 427 658L426.993 657.977L426.963 657.875L426.956 657.854C426.819 657.39 426.711 657.029 426.624 656.727C426.496 656.284 426.411 655.97 426.336 655.654C426.233 655.22 426.149 654.782 426 654H424C423.936 652.89 423.878 651.896 423.829 651H424V644H423.738C423.804 643.391 423.906 642.858 424.051 642.337C424.351 641.258 424.835 640.23 425.56 638.69C431.31 632.36 437.19 627.15 444.25 622.31L444.775 621.947L445.136 621.697L445.798 621.238C446.155 620.991 446.514 620.742 446.88 620.49C455 614.91 463.3 609.64 471.68 604.45C473.916 603.055 476.136 601.637 478.361 600.217L479.39 599.56C484.79 596.12 490.22 592.76 495.69 589.44C496.495 588.948 496.859 588.725 497.27 588.474C497.609 588.267 497.981 588.042 498.66 587.63C508.79 581.48 519.03 575.52 529.28 569.58C535.2 566.14 541.1 562.66 546.99 559.18L548.453 558.324L551.085 556.782C551.786 556.371 552.487 555.961 553.19 555.55C566.92 547.52 580.48 539.23 593.95 530.77C599.01 527.61 604.09 524.48 609.19 521.38C609.656 521.092 610.125 520.804 610.598 520.514L611.5 519.96C612.99 519.06 614.47 518.15 615.96 517.24C622.48 513.27 628.98 509.29 635.43 505.19C643.92 499.79 652.45 494.5 661.15 489.43C664.92 487.24 668.65 484.99 672.31 482.62C683.174 475.62 694.345 469.079 705.508 462.544L705.522 462.536L708.905 460.554L710.346 459.709C711.061 459.29 711.776 458.87 712.49 458.45C716.47 456.11 720.42 453.75 724.32 451.29C727.18 449.49 730.07 447.83 733.06 446.25C737.56 443.83 741.95 441.27 746.31 438.62C751.2 435.67 756.1 432.76 761.06 429.94C761.64 429.61 762.22 429.28 762.81 428.94C765.621 427.345 768.442 425.75 771.263 424.155L771.29 424.14C778.21 420.22 785.06 416.18 791.88 412.06C798.73 407.93 805.63 403.91 812.63 400.01C816.89 397.63 821.1 395.18 825.27 392.64C828.38 390.772 831.513 388.927 834.642 387.084L834.851 386.961L834.915 386.924L836.06 386.25C836.488 386 836.92 385.747 837.355 385.49C837.651 385.315 837.95 385.138 838.25 384.96C842.03 382.74 845.81 380.52 849.59 378.31L850.877 377.555L851.86 376.98L856.12 374.49C860.8 371.74 865.41 368.9 870 366C864.07 366.46 860.09 368.25 855 371.25C854.23 371.69 853.46 372.13 852.67 372.58L847.66 375.46C843.842 377.67 840.003 379.833 836.161 381.999L836.137 382.013L835.791 382.208L835.553 382.342L833.5 383.5L827.62 386.83C822.61 389.66 817.59 392.46 812.56 395.25C801.02 401.65 789.52 408.13 778.06 414.69C769.22 419.75 760.35 424.74 751.46 429.71C744.31 433.7 737.18 437.72 730.06 441.75C723.35 445.55 716.63 449.33 709.88 453.06C700.76 458.11 691.71 463.28 682.67 468.47L669.5 476L669.477 476.013L669.439 476.035L668.201 476.74L666.87 477.5C662.53 479.98 658.2 482.46 653.86 484.93C643.36 490.91 632.9 496.96 622.47 503.06C617.14 506.17 611.8 509.27 606.44 512.31C599.94 516.01 593.52 519.85 587.12 523.72C574.13 531.56 561.09 539.33 548 547C539.92 551.74 531.84 556.48 523.81 561.31C503.39 573.59 482.84 585.65 461.95 597.13C457.7 599.48 453.48 601.88 449.29 604.34L449.287 604.342C429.32 616 423.168 619.591 416.824 619.972C414 620.141 411.137 619.675 407 619C399.65 616.88 394.99 611.84 390.5 605.88C388.71 602.45 388.95 601.61 390 598C391.229 595.611 391.23 595.61 392.747 593.194L392.75 593.19L393.56 591.89L394.39 590.56C394.92 589.71 395.45 588.87 396 588C396.225 587.608 396.448 587.216 396.672 586.822L396.702 586.77L396.715 586.746C396.895 586.43 397.076 586.112 397.26 585.79C400.39 580.37 404.32 575.84 410 573C409.69 572.48 409.38 571.97 409.06 571.44C407.745 568.411 407.407 565.505 407.03 562.26L407 562H406C404.1 551.04 406.81 544.34 412.79 535.16C413.472 534.135 413.833 533.592 413.999 532.995C414.187 532.322 414.127 531.579 414 530L413.524 529.895L412.732 529.72C412.377 529.642 412.019 529.562 411.66 529.48C401.533 527.128 397.792 526.259 395.036 524.12C393.421 522.867 392.145 521.178 390.12 518.5C388.26 515.1 387.82 513.72 388.79 509.93C390.33 506.78 392.06 503.91 394 501C394.38 500.33 394.76 499.66 395.15 498.96C399.99 490.971 409.048 486.156 417.366 481.735C418.742 481.003 420.097 480.282 421.41 479.56C427.125 476.408 432.724 473.057 438.328 469.703L438.331 469.701L438.334 469.699L438.338 469.697L438.341 469.695L438.345 469.692L440.02 468.69C445.44 465.47 450.91 462.39 456.46 459.4C459.87 457.52 463.19 455.53 466.5 453.5C471.63 450.39 476.81 447.41 482.1 444.57C493.17 438.58 504.03 432.23 514.85 425.81C522.25 421.42 529.71 417.18 537.23 412.99C546.268 407.936 555.21 402.71 564.16 397.481L564.175 397.472L564.194 397.461L564.88 397.06C573.62 391.95 582.4 386.93 591.24 381.99C598.84 377.72 606.39 373.36 613.93 368.98C620.7 365.05 627.48 361.14 634.31 357.31C634.97 356.94 635.63 356.57 636.31 356.19C636.668 355.989 637.03 355.787 637.394 355.584L637.479 355.537C637.738 355.392 637.998 355.247 638.26 355.1C646.87 350.27 655.42 345.35 663.9 340.31C674.5 334.02 685.19 327.93 696 322C704.54 317.31 713.06 312.63 721.38 307.56C727.83 303.64 734.41 299.98 741.04 296.37C747.52 292.83 753.95 289.21 760.38 285.56C768.04 281.21 775.75 276.94 783.5 272.75C790.23 269.11 796.86 265.36 803.38 261.36C808.5 258.25 813.74 255.37 819 252.5L819.003 252.499L819.005 252.497C830.811 246.881 836.577 244.138 841.659 240.452C846.509 236.933 850.737 232.556 858.998 224.002L859 224C851.25 225.42 844.37 228.07 837.12 231.12C836.684 231.306 836.243 231.491 835.793 231.681L835.25 231.91C811.33 241.91 787.9 252.98 764.61 264.37C757.08 268.04 749.52 271.63 741.88 275.06C714.39 287.49 687.41 301.13 660.56 314.88C659.78 315.28 659 315.68 658.19 316.09C648.91 320.83 639.77 325.76 630.7 330.91C625.43 333.9 620.09 336.76 614.75 339.62C613.66 340.21 612.56 340.8 611.44 341.4C606.89 343.85 602.334 346.288 597.781 348.724L597.168 349.051L597.122 349.075L597.022 349.129L593.88 350.81C592.962 351.303 592.046 351.792 591.131 352.281L588.53 353.67C587.34 354.31 586.16 354.94 584.97 355.57C576.16 360.29 567.37 365.06 558.6 369.86C553.17 372.83 547.73 375.75 542.25 378.62C536.65 381.57 531.09 384.6 525.56 387.69C514.702 393.758 503.739 399.636 492.776 405.512C490.714 406.618 488.651 407.723 486.59 408.83C475.23 414.93 463.88 421.03 452.62 427.31C446.77 430.58 440.89 433.8 435 437C428.24 440.68 421.48 444.38 414.75 448.12C413.66 448.73 413.66 448.73 412.55 449.35C408.85 451.4 405.16 453.47 401.48 455.56L401.476 455.562C374.083 471.055 367.245 474.923 360.096 475.623C357.718 475.855 355.305 475.737 352.09 475.58C348.197 474.496 345.577 471.748 342.873 468.912L342.446 468.465C342.298 468.31 342.149 468.155 342 468C341.776 467.81 341.55 467.62 341.322 467.428L341.283 467.395L340.981 467.141C340.723 466.924 340.462 466.704 340.2 466.48C337.27 463.94 335.6 461.77 334.88 458C334.74 454.67 335.27 452.3 337.41 449.61C352.09 434.75 372.44 424.62 391.03 415.52C394.749 413.622 398.349 411.541 401.961 409.451L401.963 409.45L402.43 409.18C407.14 406.45 411.93 403.9 416.75 401.38C421.27 399.01 425.73 396.63 430.06 393.94C434.762 391.043 439.654 388.64 444.598 386.213L444.97 386.03C450.13 383.48 455.08 380.66 460.02 377.71C463.21 375.88 466.45 374.24 469.75 372.62C480.52 367.31 490.85 361.3 501.15 355.14C510.28 349.69 519.42 344.6 528.98 339.98C532.14 338.45 535.27 336.89 538.4 335.32C539.09 334.98 539.77 334.63 540.48 334.28C548.41 330.3 556.3 326.25 564.19 322.19L564.776 321.889C564.999 321.775 565.222 321.659 565.447 321.543C565.792 321.365 566.139 321.185 566.49 321C575.58 316.33 584.65 311.63 593.69 306.88C603.28 301.83 612.96 296.96 622.7 292.19C631.98 287.62 641.07 282.73 650.15 277.78C656.35 274.41 662.58 271.14 668.91 268.03C682.3 261.42 695.53 254.49 708.5 247.08C712.6 244.75 716.76 242.58 721 240.5C729.231 236.445 737.172 231.906 745.136 227.354L746.7 226.46C757.67 220.18 768.63 214 780.02 208.49C783.08 207.04 783.08 207.04 786 205L785 203C784.756 203.113 784.512 203.225 784.268 203.337C783.77 203.566 783.272 203.794 782.77 204.023C782.316 204.23 781.86 204.439 781.4 204.65C772.6 208.66 763.79 212.54 754.81 216.12C740.674 221.823 726.844 228.216 713.001 234.614L712.08 235.04C710.792 235.635 709.505 236.225 708.214 236.817L707.905 236.959L706.16 237.76C686.32 246.85 666.77 256.51 647.24 266.26C645.28 267.23 643.32 268.21 641.36 269.19C627.01 276.34 612.77 283.65 598.73 291.4C592.63 294.77 586.45 297.95 580.25 301.12C572.04 305.35 563.89 309.65 555.84 314.18C549.38 317.81 542.85 321.31 536.31 324.81C527.83 329.35 519.42 333.99 511.06 338.75C503.39 343.12 495.67 347.33 487.84 351.41C480.3 355.35 472.86 359.46 465.44 363.63C462.84 365.09 460.24 366.54 457.64 367.99C439.55 378.11 421.79 388.76 404.19 399.69L404.161 399.708L404.132 399.727L404.103 399.744C401.592 401.296 399.081 402.848 396.57 404.41C394.81 405.5 393.05 406.6 391.3 407.7C388.62 409.37 385.94 411.03 383.25 412.69C382.62 413.084 381.99 413.484 381.35 413.89L380.83 414.22C372.56 419.28 364.58 421.15 355 419C348.94 416.39 344.13 412.16 340 407C339.583 405.714 339.404 405.163 339.277 404.601C339.182 404.178 339.116 403.75 339 403H337C336.6 398.84 336.95 396.1 339.48 392.7C345.74 385.69 353.19 380.14 361 375L361.133 374.911L361.234 374.844C361.756 374.496 362.28 374.147 362.82 373.79C372.06 367.67 381.46 361.89 391.03 356.32C396.1 353.37 401.1 350.29 406.08 347.19C410.11 344.69 414.15 342.19 418.19 339.69C419.09 339.13 419.99 338.57 420.91 338C426.76 334.38 432.63 330.77 438.5 327.19C439.24 326.74 439.98 326.28 440.74 325.82C444.03 323.81 447.32 321.81 450.62 319.82C456.83 316.06 462.76 312.12 468.56 307.76C470.97 306.02 473.43 304.49 476 303C465.967 303.688 456.24 308.773 447.055 313.574C444.752 314.779 442.482 315.965 440.25 317.06C439.845 317.26 439.441 317.457 439.034 317.656C438.606 317.865 438.176 318.075 437.74 318.29C425.18 324.42 412.68 330.66 400.2 336.94C397.78 338.15 395.36 339.36 392.95 340.58C391.943 341.087 390.939 341.59 389.937 342.094C389.317 342.405 388.699 342.717 388.08 343.03C387.27 343.43 386.46 343.84 385.63 344.26C380.79 346.69 375.95 349.13 371.11 351.58C368.03 353.14 364.95 354.69 361.87 356.23C361.155 356.595 360.438 356.958 359.72 357.32C359.003 357.682 358.285 358.045 357.57 358.41C343.34 365.65 328.92 372.88 312.56 370.5C305.39 367.48 298.41 362.12 295 355C294.43 349.85 295.67 347.22 298.56 343C298.859 342.551 299.161 342.102 299.465 341.649L299.539 341.538L299.547 341.527L300.106 340.695C300.26 340.464 300.415 340.233 300.57 340C306.86 332.24 314.53 328.42 323.44 324.12C324.71 323.5 325.98 322.88 327.25 322.25C329.74 321.03 332.22 319.81 334.71 318.6C338.59 316.71 342.45 314.8 346.31 312.88C346.91 312.58 347.5 312.28 348.11 311.97C361.92 305.04 375.64 298.03 388.81 289.94C392.47 287.72 396.19 285.67 399.96 283.64C411.36 277.5 422.58 271.11 433.66 264.4C440.75 260.12 447.93 256.05 455.16 252.03C458.12 250.37 461.06 248.69 464 247C475.31 240.53 486.67 234.16 498.12 227.94C505.15 224.12 512.13 220.25 519.06 216.25C523.427 213.739 527.827 211.281 532.228 208.822L532.339 208.761L535.38 207.06L536.97 206.172C537.396 205.934 537.81 205.702 538.67 205.22C539.526 204.74 540.38 204.261 541.234 203.784C542.516 203.068 543.796 202.354 545.08 201.64C556.87 195.03 568.64 188.37 580.36 181.64C590.52 175.82 600.69 170.01 610.96 164.39C615.13 162.09 619.18 159.66 623.2 157.12C625.982 155.387 628.866 153.852 631.761 152.31L632.311 152.017L632.85 151.73C635.12 150.48 637.32 149.21 639.52 147.86C655.435 138.265 679.151 128.4 698.931 129.466C700.653 129.558 702.345 129.734 704 130C707.18 131.28 709.55 133.13 712.12 135.38C712.81 135.96 713.49 136.55 714.2 137.15C717.08 140.1 717.92 142.28 718.38 146.38C717.91 150.82 716.93 152.63 714 156C711.92 157.44 709.82 158.71 707.61 159.92C707.294 160.135 706.977 160.346 706.656 160.561L706.625 160.582L706.284 160.81L706 161V163C706.55 162.81 707.1 162.62 707.67 162.42C708.565 162.111 709.46 161.805 710.355 161.5L711.123 161.239L712.911 160.631C713.774 160.337 714.637 160.044 715.5 159.75L718.13 158.84C723.56 157 729.01 155.46 734.58 154.12C740.46 152.7 746.22 151.07 751.98 149.24L752.027 149.225C752.554 149.057 752.829 148.969 753.104 148.883C753.244 148.839 753.384 148.795 753.559 148.741L754.097 148.573L754.27 148.52C757.36 147.54 760.44 146.56 763.52 145.56C779.78 140.291 784.495 138.764 788.933 139.344C790.746 139.582 792.512 140.171 795 141V143C795.397 143.16 795.795 143.32 796.197 143.482L796.786 143.719L797.19 143.88C798.92 144.57 800.63 145.31 802.31 146.12C809.981 148.618 817.319 146.118 824.624 143.628L824.672 143.612C825.655 143.277 826.637 142.942 827.62 142.62L831.88 141.27C842.2 137.97 852.46 134.51 862.72 131.04C870.73 128.34 878.73 125.84 886.94 123.84C891.46 122.73 895.86 121.41 900.27 119.93L900.273 119.928L900.282 119.926L900.285 119.925L900.289 119.923C922.447 112.506 929.206 110.243 934.903 111.82C937.402 112.511 939.698 113.942 943 116ZM423.738 644H423V651H423.829C423.638 647.526 423.573 645.526 423.738 644ZM997 128.906V128H989V129C989.542 128.961 990.084 128.926 990.631 128.89C991.073 128.861 991.519 128.831 991.97 128.8C993.792 128.728 995.451 128.756 997 128.906ZM976 131V132H981V131H976ZM966 132V133H971V132H966ZM879 356L878 360H876L877 362L878 360L881 359L880 356H879ZM1031 511V512H1036V511H1031ZM935 113H925V114H935V113Z" fill="#FBFDFD"/>
</svg>
