<svg width="500" height="498" viewBox="0 0 500 498" fill="none" xmlns="http://www.w3.org/2000/svg">
<path fill-rule="evenodd" clip-rule="evenodd" d="M208.333 497.222C90.2778 476.389 0 373.611 0 250C0 112.5 112.5 0 250 0C387.5 0 500 112.5 500 250C500 373.611 409.722 476.389 291.667 497.222L291 496.689V495.833H291.667V319.444H347.222L358.333 250H291.667V201.389C291.667 181.944 298.611 166.667 329.167 166.667H361.111V102.778C343.056 100 323.611 97.2222 305.556 97.2222C248.611 97.2222 208.333 131.944 208.333 194.444V250H145.833V319.444H208.333V495.833H209V496.689L208.333 497.222Z" fill="white"/>
</svg>
