<svg width="15" height="15" viewBox="0 0 15 15" fill="none" xmlns="http://www.w3.org/2000/svg">
<path fill-rule="evenodd" clip-rule="evenodd" d="M6.25 14.9167C2.70833 14.2917 0 11.2083 0 7.5C0 3.375 3.375 0 7.5 0C11.625 0 15 3.375 15 7.5C15 11.2083 12.2917 14.2917 8.75 14.9167L8.73 14.9007V14.875H8.75V9.58333H10.4167L10.75 7.5H8.75V6.04167C8.75 5.45833 8.95833 5 9.875 5H10.8333V3.08333C10.2917 3 9.70833 2.91667 9.16667 2.91667C7.45833 2.91667 6.25 3.95833 6.25 5.83333V7.5H4.375V9.58333H6.25V14.875H6.27V14.9007L6.25 14.9167Z" fill="white"/>
</svg>
