<svg width="32" height="32" viewBox="0 0 32 32" fill="none" xmlns="http://www.w3.org/2000/svg">
<path d="M8.02501 9.75C9.53051 9.74925 11.036 9.74825 12.5415 9.748C12.5638 9.748 12.5863 9.74775 12.609 9.74775C13.0933 9.74775 13.5775 9.7475 14.0615 9.7475C14.299 9.7475 14.5365 9.74725 14.7738 9.74725C14.7975 9.74725 14.821 9.74725 14.8455 9.74725C15.6113 9.747 16.3773 9.74675 17.1433 9.74625C17.9303 9.74575 18.7175 9.7455 19.5045 9.74525C19.6155 9.74525 19.7268 9.74525 19.8378 9.74525C19.8708 9.74525 19.8708 9.74525 19.9043 9.74525C20.2565 9.74525 20.6088 9.745 20.961 9.74475C21.315 9.74425 21.669 9.74425 22.023 9.74425C22.2335 9.74425 22.444 9.74425 22.6543 9.744C22.8113 9.74375 22.9685 9.74375 23.1255 9.744C23.189 9.744 23.2525 9.744 23.3163 9.74375C23.4025 9.7435 23.4888 9.74375 23.5753 9.74375C23.6 9.74375 23.6248 9.7435 23.6503 9.7435C23.7818 9.744 23.9005 9.756 24.028 9.789C24.086 9.8025 24.1405 9.80375 24.2 9.8C24.2 9.8165 24.2 9.833 24.2 9.85C24.2255 9.856 24.2513 9.862 24.2778 9.86825C24.3118 9.87675 24.3458 9.88525 24.3798 9.89375C24.3965 9.89775 24.4133 9.9015 24.4308 9.90575C24.5435 9.93425 24.6138 9.97325 24.7 10.05C24.7448 10.0807 24.7895 10.1115 24.8345 10.1422C25.0068 10.267 25.1508 10.4117 25.2 10.625C25.2165 10.625 25.233 10.625 25.25 10.625C25.2668 10.662 25.2835 10.699 25.3 10.736C25.3093 10.7565 25.3185 10.777 25.328 10.7982C25.35 10.85 25.35 10.85 25.35 10.875C25.3673 10.897 25.3673 10.897 25.3848 10.9192C25.548 11.146 25.5278 11.4972 25.4865 11.7615C25.4555 11.8917 25.4555 11.8917 25.425 11.95C25.3723 11.9822 25.3723 11.9822 25.325 12C25.3308 12.0145 25.3363 12.0287 25.3423 12.0437C25.35 12.1 25.35 12.1 25.3155 12.15C25.3023 12.1665 25.2888 12.183 25.275 12.2C25.272 12.2155 25.2693 12.2307 25.2663 12.2467C25.2443 12.319 25.2048 12.3517 25.15 12.403C25.0778 12.4692 25.0778 12.4692 25.025 12.55C25.0085 12.55 24.992 12.55 24.975 12.55C24.9693 12.5635 24.9638 12.5767 24.9578 12.5905C24.874 12.7425 24.7968 12.8107 24.638 12.8732C24.545 12.9127 24.4605 12.9657 24.3743 13.0182C24.1738 13.104 23.9288 13.0787 23.7148 13.0782C23.6805 13.0782 23.646 13.0782 23.6118 13.0785C23.5403 13.0785 23.4688 13.0785 23.3973 13.0782C23.3053 13.078 23.2135 13.0782 23.1218 13.0782C23.051 13.0785 22.9803 13.0785 22.9095 13.0782C22.8755 13.0782 22.8418 13.0782 22.8078 13.0785C22.7608 13.0785 22.7138 13.0782 22.6665 13.0782C22.6398 13.0782 22.613 13.0782 22.5853 13.0782C22.525 13.075 22.525 13.075 22.5 13.05C22.4648 13.0475 22.4293 13.0467 22.3938 13.0467C22.371 13.0467 22.3485 13.0465 22.325 13.0465C22.3003 13.0467 22.2755 13.0467 22.25 13.047C22.2248 13.047 22.1993 13.047 22.1733 13.047C21.9485 13.048 21.7243 13.0567 21.4998 13.0682C21.4748 13.0695 21.4498 13.0707 21.4238 13.072C21.4018 13.0732 21.3795 13.0742 21.3568 13.0755C21.3 13.075 21.3 13.075 21.225 13.05C21.175 13.0577 21.125 13.0662 21.075 13.075C21.016 13.077 20.9568 13.0777 20.8978 13.0775C20.8808 13.0775 20.8635 13.0772 20.846 13.0772C20.8093 13.0772 20.7725 13.077 20.7358 13.077C20.6778 13.0765 20.6198 13.0765 20.5615 13.0762C20.4385 13.076 20.3153 13.0755 20.1923 13.075C20.049 13.0745 19.906 13.074 19.7628 13.0735C19.7055 13.0735 19.6483 13.0732 19.5908 13.0727C19.556 13.0727 19.521 13.0727 19.486 13.0725C19.4555 13.0725 19.425 13.0722 19.3935 13.0722C19.3273 13.0672 19.3273 13.0672 19.3 13.1C19.237 13.3805 19.2293 13.6742 19.264 13.9595C19.275 14.05 19.275 14.05 19.25 14.1C19.2438 14.2037 19.2438 14.2037 19.275 14.3C19.2775 14.3582 19.2783 14.4167 19.278 14.475C19.2783 14.5065 19.2783 14.538 19.2783 14.5702C19.275 14.65 19.275 14.65 19.25 14.7C19.2423 14.8162 19.2423 14.8162 19.275 14.925C19.2783 14.979 19.2795 15.0332 19.2798 15.0875C19.28 15.1167 19.2805 15.1457 19.2808 15.1757C19.2763 15.2522 19.2675 15.3115 19.2503 15.3845C19.217 15.5467 19.2163 15.707 19.2148 15.872C19.2143 15.9045 19.2138 15.9367 19.2133 15.9702C19.212 16.0555 19.211 16.1408 19.21 16.226C19.209 16.3133 19.2078 16.4005 19.2065 16.488C19.204 16.6585 19.202 16.8293 19.2 17C19.1753 17 19.1505 17 19.125 17C19.1268 17.0233 19.1288 17.0462 19.1305 17.07C19.1443 17.2617 19.152 17.452 19.1508 17.6442C19.1505 17.675 19.1505 17.675 19.1503 17.7065C19.1495 17.7913 19.1488 17.8758 19.1475 17.9605C19.1468 18.0233 19.1465 18.086 19.146 18.149C19.1458 18.168 19.1453 18.1873 19.145 18.207C19.1445 18.302 19.146 18.344 19.2 18.425C19.2073 18.4755 19.2073 18.4755 19.2085 18.5328C19.2098 18.5638 19.2098 18.5638 19.2108 18.5955C19.2115 18.6173 19.212 18.6388 19.2125 18.661C19.2135 18.7035 19.215 18.7463 19.2165 18.789C19.2168 18.8077 19.2173 18.8268 19.2178 18.8463C19.2258 18.9065 19.247 18.9465 19.275 19C19.2815 19.0503 19.286 19.101 19.289 19.1515C19.294 19.2332 19.299 19.297 19.325 19.375C19.3273 19.4165 19.3283 19.4583 19.328 19.5C19.3283 19.5218 19.3283 19.5433 19.3283 19.5655C19.325 19.625 19.325 19.625 19.3 19.7C19.3165 19.7 19.333 19.7 19.35 19.7C19.386 19.8463 19.4075 19.9853 19.4165 20.1355C19.4223 20.2008 19.4223 20.2008 19.4498 20.2598C19.4813 20.3415 19.4855 20.4143 19.4905 20.5015C19.4925 20.5317 19.4943 20.562 19.4963 20.593C19.501 20.699 19.4985 20.801 19.4875 20.9062C19.4853 20.9285 19.4828 20.9508 19.4805 20.9738C19.4788 20.9908 19.4768 21.0075 19.475 21.025C19.4998 21.0168 19.5245 21.0085 19.55 21C19.575 21.1687 19.575 21.1687 19.575 21.225C19.5928 21.2692 19.5928 21.2692 19.6108 21.3145C19.6528 21.4237 19.6675 21.5278 19.678 21.6438C19.689 21.7743 19.689 21.7743 19.714 21.9025C19.7273 21.9595 19.7153 21.9945 19.7 22.05C19.7083 22.0583 19.7165 22.0665 19.725 22.075C19.729 22.1298 19.732 22.1842 19.7345 22.239C19.7438 22.3853 19.7665 22.4917 19.825 22.625C19.8773 22.7705 19.8855 22.9117 19.8938 23.065C19.8988 23.1497 19.8988 23.1497 19.914 23.2322C19.925 23.3 19.9185 23.3355 19.9 23.4C19.9083 23.4165 19.9165 23.433 19.925 23.45C19.9565 23.671 19.9745 23.9062 19.925 24.125C19.941 24.128 19.957 24.1313 19.9735 24.1345C19.9905 24.1395 20.0075 24.1448 20.025 24.15C20.0603 24.2203 20.0568 24.284 20.061 24.3625C20.0693 24.494 20.0863 24.6173 20.115 24.7455C20.129 24.822 20.125 24.8975 20.125 24.975C20.1333 24.9978 20.1415 25.0205 20.15 25.0437C20.1813 25.1455 20.1765 25.2347 20.172 25.3403C20.1685 25.4047 20.1685 25.4047 20.225 25.45C20.3203 25.814 20.354 26.1923 20.3825 26.5663C20.392 26.6873 20.4035 26.8055 20.425 26.925C20.4418 27.0942 20.4078 27.2498 20.3695 27.4143C20.3528 27.4875 20.34 27.5603 20.328 27.6345C20.2983 27.7863 20.219 27.8955 20.1235 28.014C20.084 28.0637 20.0563 28.1073 20.0265 28.1625C19.909 28.3745 19.7108 28.4862 19.4985 28.586C19.4235 28.6225 19.4235 28.6225 19.3613 28.6785C19.293 28.7303 19.2563 28.7397 19.172 28.7453C19.1508 28.747 19.1295 28.7488 19.1075 28.7505C19.05 28.75 19.05 28.75 18.975 28.725C18.975 28.7415 18.975 28.758 18.975 28.775C18.865 28.7787 18.7553 28.7808 18.6453 28.7828C18.6148 28.7838 18.584 28.785 18.5525 28.786C18.3295 28.789 18.1495 28.7513 17.95 28.65C17.9335 28.6335 17.917 28.617 17.9 28.6C17.826 28.5725 17.7515 28.5475 17.6763 28.5235C17.586 28.4932 17.5545 28.4818 17.5 28.4C17.5 28.3752 17.5 28.3505 17.5 28.325C17.485 28.3243 17.4698 28.3235 17.4543 28.3228C17.387 28.3147 17.3363 28.3045 17.275 28.275C17.2248 28.197 17.2015 28.1135 17.175 28.025C17.141 27.954 17.1053 27.8848 17.0675 27.8155C17.004 27.6955 16.9645 27.614 16.975 27.475C16.9585 27.4585 16.942 27.442 16.925 27.425C16.9183 27.377 16.9118 27.3293 16.907 27.281C16.9003 27.228 16.8893 27.1792 16.8758 27.1275C16.833 26.94 16.8315 26.7467 16.822 26.5555C16.8118 26.3867 16.791 26.255 16.725 26.1C16.7095 26.0233 16.7095 26.0233 16.7 25.947C16.6963 25.9172 16.6925 25.8878 16.6885 25.8575C16.6865 25.8407 16.6843 25.8242 16.6823 25.8072C16.6705 25.7145 16.6575 25.6217 16.6448 25.529C16.6298 25.4195 16.6148 25.3098 16.6 25.2C16.5918 25.2 16.5835 25.2 16.575 25.2C16.575 25.0598 16.575 24.9195 16.575 24.775C16.5585 24.775 16.542 24.775 16.525 24.775C16.5313 24.7528 16.5375 24.7308 16.5438 24.7078C16.562 24.584 16.5153 24.48 16.4763 24.364C16.441 24.2445 16.425 24.1258 16.4098 24.0023C16.4015 23.9268 16.4015 23.9268 16.3855 23.8598C16.3743 23.7955 16.378 23.7455 16.3875 23.6813C16.3928 23.646 16.397 23.6105 16.4 23.575C16.3918 23.5668 16.3835 23.5585 16.375 23.55C16.3723 23.498 16.3703 23.4458 16.3688 23.3938C16.3588 23.2285 16.318 23.0997 16.2535 22.9482C16.2175 22.8555 16.2075 22.7738 16.2 22.675C16.1918 22.6667 16.1835 22.6585 16.175 22.65C16.1743 22.5618 16.1768 22.4738 16.179 22.3855C16.175 22.301 16.1615 22.2725 16.125 22.2C16.1195 22.136 16.1158 22.0735 16.114 22.0095C16.1078 21.8653 16.0898 21.74 16.0425 21.6027C16.0178 21.5282 16.0093 21.4528 16 21.375C15.991 21.318 15.991 21.318 15.975 21.275C15.9585 21.2668 15.942 21.2585 15.925 21.25C15.9295 21.264 15.9343 21.2782 15.9388 21.2928C15.9518 21.3588 15.9438 21.4003 15.928 21.4655C15.9035 21.5767 15.89 21.6858 15.8813 21.7993C15.875 21.85 15.875 21.85 15.85 21.9C15.8453 21.9643 15.8418 22.028 15.839 22.0922C15.8253 22.361 15.7938 22.6258 15.7375 22.8893C15.7183 22.9827 15.7025 23.077 15.6865 23.1712C15.675 23.225 15.675 23.225 15.65 23.25C15.6448 23.3205 15.6405 23.3905 15.6375 23.461C15.6283 23.6683 15.6283 23.6683 15.6 23.725C15.595 23.8035 15.5913 23.8817 15.5893 23.9602C15.5833 24.0892 15.5833 24.0893 15.5383 24.1485C15.4783 24.2295 15.4813 24.3173 15.4735 24.4155C15.4695 24.4565 15.4658 24.4975 15.4618 24.5385C15.4588 24.5677 15.4588 24.5677 15.456 24.5977C15.4493 24.6575 15.4375 24.715 15.4235 24.7735C15.3968 24.8928 15.3928 25.0113 15.3875 25.1328C15.3765 25.3822 15.3453 25.6198 15.286 25.8625C15.2518 26.0035 15.2378 26.1405 15.2303 26.2855C15.225 26.35 15.225 26.35 15.2 26.4C15.1955 26.4552 15.192 26.5103 15.189 26.5655C15.1803 26.7013 15.1633 26.82 15.125 26.95C15.1165 26.9837 15.1083 27.0177 15.1 27.0515C15.0918 27.0845 15.0835 27.1173 15.075 27.15C15.071 27.1665 15.0668 27.1828 15.0625 27.1998C15.0425 27.2747 15.0308 27.3193 14.975 27.375C14.975 27.408 14.975 27.441 14.975 27.475C14.9635 27.5273 14.951 27.5795 14.9375 27.6313C14.9305 27.6583 14.9235 27.6853 14.9165 27.713C14.9083 27.7438 14.9083 27.7437 14.9 27.775C14.8753 27.775 14.8505 27.775 14.825 27.775C14.828 27.7992 14.8313 27.8235 14.8345 27.8485C14.8355 27.9783 14.758 28.0802 14.675 28.175C14.6585 28.175 14.642 28.175 14.625 28.175C14.6165 28.196 14.6165 28.196 14.6078 28.2173C14.4963 28.4137 14.272 28.533 14.073 28.626C14.0218 28.6505 14.0218 28.6505 13.9643 28.6885C13.6273 28.88 13.0315 28.8065 12.6708 28.7083C12.5353 28.6653 12.4338 28.5895 12.325 28.5C12.2868 28.4757 12.2483 28.4517 12.2095 28.428C12.0385 28.3148 11.9065 28.1635 11.825 27.975C11.8133 27.9563 11.8018 27.9375 11.7898 27.9182C11.6875 27.7428 11.6238 27.551 11.6 27.35C11.5865 27.32 11.5733 27.2903 11.5595 27.2595C11.5033 27.1193 11.5253 26.9708 11.55 26.825C11.5583 26.8055 11.5668 26.7863 11.5753 26.7663C11.602 26.695 11.607 26.6405 11.6085 26.5648C11.6093 26.5395 11.61 26.5143 11.6108 26.4883C11.612 26.4355 11.613 26.3828 11.6143 26.33C11.615 26.3048 11.6158 26.2795 11.6165 26.2538C11.6168 26.2308 11.6173 26.208 11.6178 26.1842C11.625 26.125 11.625 26.125 11.675 26.05C11.6825 25.9853 11.6878 25.9228 11.6905 25.8577C11.692 25.8315 11.692 25.8315 11.6935 25.8048C11.696 25.7615 11.698 25.7183 11.7 25.675C11.7083 25.675 11.7165 25.675 11.725 25.675C11.728 25.6508 11.731 25.6267 11.7343 25.6018C11.8023 25.0728 11.8023 25.0728 11.85 25.025C11.8558 24.9788 11.86 24.9323 11.8635 24.8857C11.8655 24.8577 11.8678 24.8295 11.87 24.8008C11.8733 24.7563 11.8733 24.7563 11.8765 24.711C11.8788 24.6813 11.881 24.6515 11.8835 24.621C11.889 24.5473 11.8945 24.4738 11.9 24.4C11.9165 24.4 11.933 24.4 11.95 24.4C11.9495 24.3843 11.9488 24.3685 11.9483 24.3523C11.9458 24.2303 11.9528 24.1285 11.9873 24.0105C12.012 23.8932 12.013 23.772 12.0188 23.6525C12.025 23.575 12.025 23.575 12.05 23.55C12.0553 23.509 12.0593 23.4678 12.0625 23.4265C12.0723 23.3055 12.0723 23.3055 12.1 23.25C12.1045 23.2133 12.108 23.1765 12.1108 23.1398C12.1125 23.1173 12.1143 23.0947 12.1163 23.0715C12.118 23.0475 12.12 23.0233 12.122 22.9985C12.1373 22.8158 12.1568 22.6353 12.189 22.4548C12.1923 22.4368 12.1955 22.419 12.1988 22.4005C12.2215 22.2785 12.2215 22.2785 12.25 22.25C12.2548 22.1965 12.258 22.1427 12.261 22.089C12.2693 21.9595 12.285 21.838 12.313 21.7115C12.3345 21.6005 12.3418 21.4878 12.35 21.375C12.3665 21.375 12.383 21.375 12.4 21.375C12.3993 21.327 12.3993 21.327 12.3985 21.278C12.3985 21.126 12.4018 20.97 12.45 20.825C12.4575 20.7607 12.4628 20.6965 12.468 20.632C12.475 20.575 12.475 20.575 12.5 20.525C12.507 20.479 12.5128 20.433 12.518 20.387C12.5228 20.3455 12.5228 20.3455 12.5278 20.3033C12.5325 20.26 12.5325 20.26 12.5375 20.2155C12.544 20.1587 12.5505 20.1018 12.557 20.0448C12.5613 20.0068 12.5613 20.0068 12.5658 19.968C12.5735 19.9102 12.5845 19.856 12.6 19.8C12.5835 19.7917 12.567 19.7835 12.55 19.775C12.5665 19.7668 12.583 19.7585 12.6 19.75C12.6155 19.682 12.6283 19.6155 12.639 19.547C12.6423 19.5283 12.6453 19.5095 12.6485 19.4902C12.6815 19.292 12.705 19.0955 12.718 18.8948C12.725 18.825 12.725 18.825 12.75 18.775C12.7518 18.7108 12.75 18.647 12.7485 18.5828C12.7498 18.5168 12.7548 18.455 12.7623 18.3895C12.778 18.2375 12.779 18.0863 12.7793 17.9335C12.7793 17.9038 12.7793 17.8738 12.7795 17.8433C12.7795 17.7805 12.7798 17.7178 12.7798 17.655C12.7798 17.5603 12.7803 17.4655 12.7805 17.3705C12.7813 17.088 12.7813 16.8113 12.7333 16.532C12.7263 16.4625 12.728 16.4123 12.7375 16.3442C12.7568 16.252 12.7568 16.252 12.725 16.175C12.7225 16.1163 12.7218 16.0572 12.722 15.9985C12.7218 15.9672 12.7218 15.936 12.7218 15.9037C12.725 15.825 12.725 15.825 12.75 15.775C12.7548 15.7077 12.7523 15.6425 12.75 15.575C12.7418 15.5667 12.7335 15.5585 12.725 15.55C12.7205 15.4207 12.7318 15.303 12.75 15.175C12.7593 15.0462 12.7593 15.0462 12.725 14.925C12.7213 14.829 12.7258 14.7372 12.739 14.6422C12.758 14.5545 12.758 14.5545 12.725 14.5C12.7223 14.4575 12.7208 14.4147 12.7203 14.372C12.7198 14.3452 12.7195 14.3185 12.719 14.291C12.7188 14.262 12.7183 14.2332 12.718 14.2032C12.7175 14.1737 12.717 14.144 12.7165 14.1135C12.715 14.0182 12.7138 13.9232 12.7125 13.828C12.7108 13.7032 12.709 13.5782 12.707 13.4532C12.7065 13.41 12.7065 13.41 12.706 13.366C12.7055 13.339 12.7053 13.3122 12.7048 13.2845C12.7045 13.261 12.704 13.2372 12.7038 13.213C12.7003 13.1552 12.6913 13.1052 12.675 13.05C12.6578 13.054 12.6403 13.0582 12.6223 13.0622C12.544 13.076 12.4715 13.078 12.3923 13.078C12.3445 13.078 12.3445 13.078 12.2958 13.078C12.2608 13.078 12.2255 13.078 12.1905 13.0777C12.1535 13.0777 12.1163 13.0777 12.0793 13.0777C11.9788 13.0777 11.878 13.0777 11.7775 13.0775C11.6723 13.0775 11.567 13.0772 11.4618 13.0772C11.2625 13.0772 11.0633 13.077 10.864 13.0767C10.6373 13.0765 10.4108 13.0765 10.184 13.0762C9.73701 13.076 9.29001 13.0755 8.84276 13.075C8.74876 13.075 8.65476 13.0755 8.56076 13.0762C8.48251 13.077 8.40426 13.0772 8.32601 13.0777C8.28476 13.078 8.24351 13.0782 8.20226 13.0787C8.14276 13.0795 8.08301 13.0797 8.02351 13.08C7.99601 13.0802 7.99601 13.0802 7.96776 13.0807C7.87301 13.0807 7.80626 13.0747 7.72501 13.025C7.68776 13.0157 7.68776 13.0157 7.65001 13.0062C7.47626 12.9592 7.28576 12.869 7.15001 12.75C7.15001 12.7335 7.15001 12.717 7.15001 12.7C7.13226 12.6957 7.11451 12.6912 7.09601 12.6867C6.99401 12.634 6.94926 12.5557 6.88751 12.461C6.87551 12.443 6.86351 12.4247 6.85101 12.4062C6.62501 12.0642 6.62501 12.0642 6.62501 11.95C6.60851 11.95 6.59201 11.95 6.57501 11.95C6.47151 11.8337 6.49251 11.6975 6.49701 11.5515C6.50326 11.337 6.50326 11.337 6.47501 11.125C6.49151 11.125 6.50801 11.125 6.52501 11.125C6.52801 11.1115 6.53126 11.0982 6.53451 11.0845C6.55301 11.0135 6.57626 10.9445 6.60001 10.875C6.61651 10.875 6.63301 10.875 6.65001 10.875C6.65376 10.8532 6.65376 10.8532 6.65776 10.8312C6.67751 10.7665 6.70926 10.7287 6.75001 10.675C6.76001 10.6467 6.76001 10.6467 6.77026 10.6182C6.80676 10.5347 6.85626 10.4767 6.91551 10.4077C6.99626 10.327 6.99626 10.327 7.02501 10.225C7.04151 10.225 7.05801 10.225 7.07501 10.225C7.08326 10.2085 7.09151 10.192 7.10001 10.175C7.14276 10.1517 7.14276 10.1517 7.19526 10.128C7.26076 10.0972 7.29776 10.0775 7.34701 10.0235C7.42051 9.95625 7.49851 9.94175 7.59401 9.91775C7.65426 9.90325 7.65426 9.90325 7.70001 9.85C7.75476 9.83475 7.81001 9.82125 7.86551 9.8095C7.89526 9.80275 7.92501 9.79625 7.95576 9.78975C7.97851 9.78475 8.00151 9.78 8.02501 9.775C8.02501 9.76675 8.02501 9.7585 8.02501 9.75ZM8.00001 10.875C7.99176 10.8997 7.98351 10.9245 7.97501 10.95C7.93376 10.9417 7.89251 10.9335 7.85001 10.925C7.84801 10.9487 7.84576 10.9725 7.84376 10.997C7.83751 11.0227 7.83126 11.0485 7.82501 11.075C7.79201 11.092 7.75851 11.1087 7.72501 11.125C7.64376 11.2435 7.61426 11.3302 7.60001 11.475C7.59176 11.4915 7.58351 11.508 7.57501 11.525C7.59151 11.5332 7.60801 11.5415 7.62501 11.55C7.64876 11.632 7.65251 11.6675 7.62501 11.75C7.64401 11.7607 7.66326 11.7717 7.68276 11.7827C7.75001 11.825 7.75001 11.825 7.78476 11.861C8.00926 12.079 8.33476 12.042 8.62226 12.0392C8.67501 12.0392 8.72776 12.0392 8.78051 12.0392C8.92326 12.0392 9.06576 12.0385 9.20826 12.0378C9.35751 12.037 9.50651 12.0367 9.65576 12.0367C9.93801 12.0362 10.2203 12.0352 10.5025 12.034C10.824 12.0325 11.1455 12.032 11.467 12.0312C12.128 12.03 12.789 12.0277 13.45 12.025C13.45 12.0415 13.45 12.058 13.45 12.075C13.4773 12.0812 13.5048 12.0875 13.5328 12.0937C13.6608 12.137 13.6788 12.1837 13.7385 12.3C13.7883 12.4172 13.788 12.5335 13.7905 12.6595C13.784 12.9382 13.784 12.9382 13.8515 13.202C13.895 13.2905 13.8533 13.3852 13.8328 13.478C13.824 13.5597 13.838 13.5797 13.875 13.65C13.8943 13.8715 13.8718 14.092 13.8405 14.3112C13.8293 14.3935 13.8235 14.4452 13.85 14.525C13.8533 14.6095 13.853 14.6857 13.836 14.7687C13.8195 14.8287 13.8195 14.8287 13.85 14.9C13.8518 14.9725 13.8523 15.0445 13.8515 15.117C13.8513 15.162 13.8513 15.207 13.851 15.2522C13.8508 15.2757 13.8505 15.2995 13.8505 15.3237C13.8475 15.7832 13.8538 16.241 13.875 16.7C13.8585 16.7083 13.842 16.7165 13.825 16.725C13.8498 16.725 13.8745 16.725 13.9 16.725C13.9018 16.9103 13.903 17.0955 13.904 17.2808C13.9043 17.3668 13.9048 17.4527 13.9058 17.5387C13.9098 17.9542 13.8953 18.356 13.833 18.767C13.822 18.8457 13.816 18.924 13.811 19.003C13.7953 19.2353 13.7588 19.462 13.7095 19.689C13.6735 19.8612 13.667 20.0245 13.675 20.2C13.6503 20.2 13.6255 20.2 13.6 20.2C13.6043 20.2178 13.6085 20.2353 13.613 20.2535C13.6445 20.441 13.6118 20.67 13.55 20.85C13.5335 20.8665 13.517 20.883 13.5 20.9C13.5008 20.9503 13.5018 21.0005 13.5055 21.0507C13.5 21.1 13.5 21.1 13.4625 21.1333C13.4033 21.1993 13.4198 21.2587 13.4235 21.3453C13.428 21.5197 13.418 21.6905 13.4015 21.864C13.3995 21.8872 13.3973 21.9105 13.395 21.9342C13.383 22.0568 13.3685 22.1783 13.35 22.3C13.3253 22.3 13.3005 22.3 13.275 22.3C13.2755 22.3153 13.2763 22.3307 13.2768 22.3465C13.2773 22.3667 13.2778 22.387 13.278 22.4078C13.2788 22.4278 13.2793 22.4478 13.28 22.4685C13.275 22.525 13.275 22.525 13.225 22.6C13.2253 22.654 13.2253 22.654 13.236 22.711C13.2458 22.7725 13.2525 22.8152 13.2368 22.876C13.2208 22.9245 13.2208 22.9245 13.2383 22.9705C13.2558 23.0513 13.2335 23.1155 13.214 23.1953C13.1843 23.3177 13.1745 23.4243 13.175 23.55C13.1603 23.63 13.1603 23.63 13.1405 23.7063C13.1343 23.7318 13.1278 23.757 13.1213 23.7833C13.1 23.85 13.1 23.85 13.05 23.925C13.0465 24.006 13.05 24.0857 13.053 24.167C13.0498 24.2542 13.0283 24.318 13 24.4C12.994 24.4685 12.994 24.4685 12.997 24.5345C12.9973 24.5563 12.9978 24.578 12.9983 24.6005C12.9988 24.617 12.9995 24.6333 13 24.65C12.9835 24.65 12.967 24.65 12.95 24.65C12.9485 24.6678 12.947 24.6855 12.9455 24.7038C12.9433 24.7268 12.9413 24.7498 12.939 24.7735C12.936 24.8078 12.936 24.8078 12.933 24.8428C12.925 24.9 12.925 24.9 12.9 24.925C12.896 24.9893 12.893 25.053 12.8905 25.1173C12.8843 25.2572 12.8703 25.3883 12.8375 25.525C12.8005 25.6798 12.7883 25.829 12.7823 25.9872C12.7773 26.1208 12.7773 26.1208 12.75 26.175C12.7455 26.2295 12.742 26.2843 12.739 26.339C12.7325 26.4408 12.7255 26.5373 12.7 26.636C12.6275 26.9318 12.6315 27.182 12.7765 27.4485C12.8205 27.5243 12.8205 27.5243 12.875 27.575C12.9503 27.5888 13.0255 27.5972 13.1013 27.606C13.1865 27.628 13.2193 27.6585 13.275 27.725C13.5548 27.6493 13.7523 27.5697 13.925 27.325C13.934 27.2917 13.9425 27.2585 13.95 27.225C13.9665 27.2168 13.983 27.2085 14 27.2C14.0293 27.1122 14.0328 27.029 14.0375 26.9375C14.0465 26.7603 14.0465 26.7603 14.075 26.675C14.078 26.6365 14.08 26.5977 14.0813 26.559C14.082 26.5362 14.0828 26.5138 14.0838 26.4902C14.0853 26.443 14.0865 26.3958 14.088 26.3482C14.093 26.2153 14.1098 26.1028 14.15 25.975C14.1688 25.8905 14.185 25.8055 14.2015 25.7203C14.2103 25.6763 14.2188 25.632 14.2275 25.588C14.233 25.559 14.233 25.559 14.2388 25.5295C14.246 25.4948 14.254 25.46 14.2635 25.4258C14.277 25.3663 14.2795 25.3103 14.2813 25.249C14.282 25.2248 14.2828 25.2003 14.2838 25.1753C14.2853 25.1248 14.2865 25.0743 14.288 25.0238C14.297 24.7598 14.3303 24.4893 14.45 24.25C14.4518 24.1908 14.452 24.1313 14.4515 24.072C14.4513 24.0238 14.4513 24.0238 14.451 23.9747C14.4505 23.95 14.4503 23.9255 14.45 23.9C14.4665 23.9 14.483 23.9 14.5 23.9C14.5005 23.886 14.501 23.8717 14.5015 23.8572C14.504 23.7922 14.5068 23.7275 14.5095 23.6625C14.5105 23.6293 14.5105 23.6293 14.5118 23.5953C14.5178 23.4563 14.5388 23.3343 14.575 23.2C14.5805 23.1558 14.5848 23.1115 14.5875 23.0673C14.6 22.909 14.6233 22.7523 14.6635 22.5985C14.6973 22.469 14.7055 22.344 14.711 22.211C14.7208 21.9775 14.7525 21.7495 14.814 21.5238C14.8295 21.4558 14.8338 21.3883 14.839 21.3188C14.8413 21.2917 14.8433 21.2648 14.8455 21.237C14.847 21.2165 14.8485 21.196 14.85 21.175C14.8665 21.175 14.883 21.175 14.9 21.175C14.9015 21.1438 14.903 21.1123 14.9045 21.08C14.9068 21.0388 14.9088 20.9975 14.911 20.9563C14.9125 20.9253 14.9125 20.9253 14.914 20.8938C14.915 20.8737 14.916 20.8538 14.917 20.8333C14.918 20.8147 14.919 20.7965 14.9198 20.7778C14.925 20.7245 14.9363 20.6765 14.95 20.625C14.9625 20.5443 14.9738 20.4633 14.985 20.3823C14.9998 20.301 15.0238 20.228 15.05 20.15C15.089 19.9565 15.1073 19.7615 15.1188 19.5645C15.125 19.5 15.125 19.5 15.15 19.45C15.152 19.4062 15.1538 19.3625 15.1548 19.3185C15.1618 19.0687 15.2145 18.843 15.2848 18.604C15.3 18.5498 15.3138 18.4952 15.327 18.4405C15.3575 18.3202 15.3858 18.2498 15.4923 18.1827C15.5113 18.172 15.5303 18.1613 15.55 18.15C15.55 18.1335 15.55 18.117 15.55 18.1C15.5665 18.0918 15.583 18.0835 15.6 18.075C15.6248 18.0585 15.6495 18.042 15.675 18.025C15.7493 17.983 15.8163 17.9655 15.9 17.95C15.9165 17.9418 15.933 17.9335 15.95 17.925C16.0708 17.918 16.1625 17.931 16.275 17.975C16.275 17.9915 16.275 18.008 16.275 18.025C16.3555 18.083 16.3555 18.083 16.45 18.1C16.45 18.1165 16.45 18.133 16.45 18.15C16.5078 18.2157 16.541 18.247 16.625 18.275C16.6385 18.3215 16.6515 18.3682 16.6615 18.4155C16.6758 18.4788 16.6953 18.5385 16.7155 18.6C16.741 18.6818 16.7535 18.749 16.75 18.8345C16.75 18.938 16.7658 18.947 16.825 19.025C16.8355 19.0833 16.8405 19.1405 16.8448 19.1995C16.8473 19.2517 16.8473 19.2517 16.875 19.3C16.8765 19.3535 16.8765 19.4073 16.8758 19.4607C16.8755 19.493 16.875 19.5253 16.8748 19.5585C16.8743 19.6097 16.8735 19.661 16.8725 19.7122C16.8718 19.7618 16.8715 19.8112 16.871 19.8608C16.8703 19.9052 16.8703 19.9053 16.8698 19.9508C16.8693 20.0297 16.8693 20.0297 16.925 20.1C16.9768 20.272 16.9845 20.4515 16.9938 20.6298C16.9923 20.6975 16.9923 20.6975 17.025 20.725C17.033 20.7765 17.0378 20.828 17.043 20.8798C17.0455 20.9255 17.0455 20.9255 17.075 20.95C17.0748 21.0048 17.0735 21.0595 17.072 21.114C17.0703 21.265 17.0703 21.265 17.1125 21.4078C17.153 21.5075 17.155 21.5728 17.1478 21.678C17.145 21.7312 17.145 21.7312 17.2 21.775C17.2 21.825 17.2 21.875 17.2 21.925C17.2083 21.9482 17.2165 21.9715 17.225 21.9952C17.2575 22.0985 17.2543 22.1927 17.25 22.3C17.2665 22.3 17.283 22.3 17.3 22.3C17.3013 22.328 17.3025 22.3562 17.3038 22.385C17.313 22.5782 17.3238 22.7625 17.375 22.95C17.3585 22.95 17.342 22.95 17.325 22.95C17.325 22.983 17.325 23.016 17.325 23.05C17.3415 23.05 17.358 23.05 17.375 23.05C17.3585 23.0913 17.342 23.1325 17.325 23.175C17.358 23.1585 17.391 23.142 17.425 23.125C17.4168 23.2323 17.4085 23.3395 17.4 23.45C17.4165 23.45 17.433 23.45 17.45 23.45C17.452 23.4783 17.452 23.4783 17.4543 23.507C17.4605 23.5925 17.467 23.6783 17.4735 23.764C17.4755 23.7935 17.4778 23.8233 17.48 23.8535C17.4908 23.995 17.504 24.1348 17.525 24.275C17.526 24.3333 17.5263 24.3918 17.525 24.45C17.5415 24.45 17.558 24.45 17.575 24.45C17.6 24.6405 17.6 24.6405 17.6 24.725C17.6165 24.725 17.633 24.725 17.65 24.725C17.6773 24.9123 17.7013 25.097 17.711 25.286C17.728 25.5725 17.7828 25.853 17.875 26.125C17.8585 26.1333 17.842 26.1415 17.825 26.15C17.8415 26.15 17.858 26.15 17.875 26.15C17.879 26.1925 17.879 26.1925 17.883 26.236C17.893 26.342 17.9033 26.4482 17.9135 26.5543C17.918 26.6 17.9225 26.6458 17.9265 26.6915C17.9328 26.7575 17.9393 26.8238 17.9458 26.8898C17.9475 26.91 17.9495 26.93 17.9513 26.9508C17.967 27.105 17.9868 27.2868 18.1 27.4C18.1165 27.4175 18.133 27.435 18.15 27.453C18.1948 27.5058 18.1948 27.5058 18.25 27.5C18.2583 27.5247 18.2665 27.5495 18.275 27.575C18.3333 27.623 18.3333 27.623 18.4048 27.6672C18.4283 27.6828 18.4518 27.6982 18.476 27.7143C18.5783 27.7635 18.6528 27.765 18.7603 27.7307C18.7785 27.7222 18.7968 27.7135 18.8155 27.7048C18.8348 27.6958 18.854 27.6865 18.874 27.6773C18.928 27.6503 18.928 27.6502 18.9828 27.6063C19.025 27.575 19.025 27.575 19.125 27.575C19.159 27.509 19.192 27.443 19.225 27.3765C19.2345 27.3582 19.244 27.3398 19.254 27.3208C19.367 27.0895 19.323 26.8748 19.289 26.6265C19.2858 26.6005 19.2823 26.5745 19.2788 26.5478C19.2658 26.42 19.2658 26.42 19.225 26.3C19.2205 26.2413 19.217 26.1823 19.214 26.1235C19.2073 26.0007 19.1943 25.8855 19.1635 25.7668C19.139 25.646 19.1293 25.5233 19.1175 25.4008C19.1163 25.305 19.1163 25.305 19.075 25.225C19.0233 25.0518 19.0158 24.8798 19.0108 24.7005C19.0058 24.568 18.9843 24.453 18.95 24.325C18.9443 24.2797 18.9393 24.2345 18.936 24.189C18.9358 24.112 18.9358 24.112 18.9 24.05C18.8928 23.983 18.8888 23.916 18.8845 23.849C18.8778 23.7753 18.8778 23.7753 18.8508 23.71C18.812 23.5823 18.8075 23.4532 18.7985 23.3203C18.7945 23.2663 18.7908 23.2123 18.7865 23.1583C18.785 23.1345 18.7833 23.1108 18.7818 23.0863C18.7768 23.0218 18.7768 23.0218 18.75 22.95C18.7475 22.9152 18.7463 22.8805 18.7455 22.8458C18.745 22.8255 18.7445 22.8053 18.7438 22.7843C18.7428 22.7423 18.742 22.7 18.7415 22.6578C18.7378 22.5503 18.729 22.4718 18.675 22.3777C18.6048 22.2522 18.61 22.1267 18.6095 21.986C18.6073 21.8212 18.5968 21.6838 18.55 21.525C18.545 21.4383 18.55 21.352 18.5543 21.2653C18.56 21.1667 18.56 21.1667 18.515 21.0835C18.5018 21.0725 18.4885 21.0615 18.475 21.05C18.4038 20.8635 18.3925 20.6703 18.3828 20.473C18.3735 20.3553 18.3528 20.2423 18.3288 20.1267C18.3078 20.0225 18.2935 19.9195 18.2833 19.8135C18.2693 19.6335 18.2693 19.6335 18.1845 19.478C18.111 19.3815 18.1148 19.3282 18.123 19.2107C18.1275 19.15 18.1275 19.15 18.1128 19.092C18.0998 19.0238 18.0975 18.9628 18.0985 18.8933C18.0988 18.869 18.0988 18.8448 18.099 18.8198C18.0995 18.782 18.0995 18.782 18.1 18.7438C18.1008 18.6935 18.1013 18.6435 18.1015 18.5933C18.102 18.5603 18.102 18.5603 18.1025 18.5262C18.1058 18.4753 18.1058 18.4753 18.075 18.45C18.0728 18.4025 18.072 18.3548 18.0723 18.3073C18.0723 18.2768 18.0723 18.246 18.0723 18.2148C18.0723 18.181 18.0725 18.1475 18.0725 18.114C18.0725 18.0798 18.0728 18.0457 18.0728 18.0115C18.0728 17.9215 18.073 17.8315 18.0733 17.7413C18.0735 17.6495 18.0738 17.5578 18.0738 17.4658C18.074 17.2855 18.0745 17.1052 18.075 16.925C18.0833 16.925 18.0915 16.925 18.1 16.925C18.1273 16.5382 18.129 16.1515 18.1283 15.764C18.128 15.6757 18.1283 15.5872 18.1283 15.499C18.1285 15.414 18.1285 15.3292 18.1283 15.2442C18.1285 15.1967 18.1285 15.1967 18.1285 15.1482C18.1285 15.1192 18.1283 15.0903 18.1283 15.0602C18.1283 15.0347 18.1283 15.009 18.1283 14.9827C18.1315 14.926 18.1315 14.926 18.1 14.9C18.0993 14.8647 18.1003 14.8297 18.1023 14.7945C18.1038 14.7627 18.1038 14.7627 18.1055 14.7302C18.1068 14.7077 18.108 14.6855 18.1095 14.6625C18.111 14.629 18.111 14.629 18.1128 14.5947C18.1218 14.4282 18.1218 14.4282 18.15 14.4C18.1455 14.331 18.137 14.2627 18.129 14.194C18.1253 14.1277 18.1338 14.0882 18.15 14.025C18.1523 13.963 18.1533 13.901 18.153 13.839C18.1533 13.7905 18.1533 13.7905 18.1533 13.7407C18.1505 13.6647 18.141 13.5987 18.125 13.525C18.1345 13.4765 18.1345 13.4765 18.15 13.425C18.1815 13.2715 18.1885 13.1277 18.15 12.975C18.136 12.685 18.1513 12.4007 18.35 12.175C18.3755 12.143 18.3755 12.143 18.4015 12.1105C18.5008 12.0287 18.5685 12.0325 18.6933 12.0345C18.7153 12.0342 18.7373 12.0342 18.7598 12.034C18.8335 12.0337 18.907 12.0342 18.9805 12.0347C19.0335 12.0345 19.0863 12.0345 19.139 12.0343C19.2525 12.034 19.3663 12.034 19.4798 12.0345C19.6595 12.035 19.839 12.0347 20.0188 12.0343C20.335 12.0337 20.6515 12.034 20.968 12.0343C21.4445 12.0347 21.9208 12.0345 22.3973 12.0337C22.576 12.0335 22.7545 12.0335 22.933 12.034C23.0443 12.0342 23.1553 12.034 23.2663 12.0337C23.3178 12.0337 23.3693 12.034 23.421 12.0343C23.4913 12.0345 23.5615 12.0345 23.6318 12.0343C23.6625 12.0345 23.6625 12.0345 23.6938 12.0347C23.8105 12.0337 23.8798 12.0167 23.975 11.95C24.0168 11.949 24.0583 11.949 24.1 11.95C24.1783 11.9082 24.1783 11.9082 24.197 11.8422C24.225 11.775 24.225 11.775 24.2905 11.7202C24.368 11.6287 24.3613 11.5712 24.3568 11.4552C24.353 11.399 24.353 11.399 24.325 11.35C24.3265 11.3267 24.328 11.3035 24.3298 11.2797C24.3238 11.1792 24.2913 11.1487 24.225 11.075C24.2065 11.0425 24.2065 11.0425 24.1875 11.0095C24.1455 10.943 24.1173 10.915 24.05 10.875C23.9635 10.8595 23.9635 10.8595 23.8703 10.8562C23.839 10.8542 23.8078 10.8525 23.7755 10.8505C23.7505 10.8502 23.7258 10.8502 23.7 10.85C23.6918 10.8582 23.6835 10.8665 23.675 10.875C23.6293 10.8775 23.5835 10.8782 23.5375 10.8782C23.5098 10.8782 23.4818 10.8785 23.453 10.8785C23.4238 10.8782 23.3943 10.8782 23.364 10.878C23.3348 10.8782 23.3055 10.8782 23.2753 10.8785C23.2475 10.8785 23.2195 10.8782 23.1908 10.8782C23.165 10.8782 23.1393 10.8782 23.1128 10.8782C23.05 10.875 23.05 10.875 23 10.85C22.9568 10.8475 22.9135 10.8467 22.8703 10.8467C22.8318 10.8467 22.8318 10.8467 22.7925 10.8465C22.7655 10.8467 22.7388 10.8467 22.711 10.847C22.6705 10.8467 22.6705 10.8467 22.6293 10.8465C22.6035 10.8465 22.578 10.8467 22.5515 10.8467C22.5278 10.8467 22.5043 10.8467 22.4798 10.8467C22.4255 10.8437 22.4255 10.8437 22.4 10.875C22.3375 10.878 22.3375 10.878 22.275 10.875C22.2668 10.8667 22.2585 10.8585 22.25 10.85C22.1805 10.8475 22.1118 10.8465 22.0423 10.847C22.0133 10.8467 22.0133 10.8467 21.9838 10.8465C21.9555 10.8467 21.9555 10.8467 21.9268 10.8467C21.9098 10.8467 21.8925 10.8467 21.875 10.8467C21.8223 10.8502 21.776 10.862 21.725 10.875C21.663 10.875 21.6093 10.8697 21.5485 10.861C21.4405 10.8482 21.3415 10.8547 21.234 10.8687C21.172 10.8752 21.1123 10.8777 21.05 10.875C21.0418 10.8667 21.0335 10.8585 21.025 10.85C20.9625 10.8457 20.9625 10.8457 20.9 10.85C20.8918 10.8582 20.8835 10.8665 20.875 10.875C20.808 10.876 20.7418 10.8762 20.675 10.875C20.6198 10.875 20.5645 10.8755 20.5095 10.8765C20.425 10.875 20.425 10.875 20.4 10.85C20.366 10.8475 20.332 10.8467 20.298 10.8467C20.2773 10.8467 20.2565 10.8465 20.235 10.8465C20.2133 10.8467 20.1913 10.8467 20.1688 10.847C20.1473 10.8467 20.1258 10.8467 20.1035 10.8465C19.9985 10.8467 19.9028 10.8515 19.8 10.875C19.7605 10.8772 19.7208 10.8782 19.6813 10.878C19.6618 10.8782 19.6423 10.8782 19.6223 10.8782C19.575 10.875 19.575 10.875 19.55 10.85C19.493 10.8475 19.436 10.8467 19.379 10.8467C19.3618 10.8467 19.3448 10.8467 19.327 10.8465C19.2908 10.8465 19.2545 10.8467 19.2183 10.8467C19.1628 10.8467 19.107 10.8467 19.0515 10.8465C19.0163 10.8465 18.9813 10.8467 18.946 10.8467C18.914 10.8467 18.8818 10.8467 18.8485 10.8467C18.7778 10.8415 18.7778 10.8415 18.75 10.875C18.669 10.8795 18.603 10.8695 18.525 10.85C18.4593 10.8457 18.4593 10.8457 18.4 10.85C18.3918 10.8582 18.3835 10.8665 18.375 10.875C18.3375 10.8775 18.3 10.8782 18.2625 10.878C18.232 10.8782 18.232 10.8782 18.2008 10.8782C18.15 10.875 18.15 10.875 18.125 10.85C18.0565 10.8475 17.9888 10.8465 17.9203 10.847C17.892 10.8467 17.892 10.8467 17.863 10.8465C17.7555 10.8467 17.6563 10.8572 17.55 10.875C17.5335 10.8667 17.517 10.8585 17.5 10.85C17.4358 10.8475 17.3723 10.8465 17.308 10.8467C17.2888 10.8467 17.2695 10.8467 17.2495 10.8465C17.2088 10.8465 17.1678 10.8467 17.1268 10.8467C17.065 10.8467 17.0033 10.8467 16.9418 10.8465C16.7535 10.8465 16.568 10.8477 16.381 10.872C16.3168 10.8755 16.2628 10.8637 16.2 10.85C16.1023 10.8465 16.019 10.8497 15.925 10.875C15.9168 10.8667 15.9085 10.8585 15.9 10.85C15.857 10.8475 15.814 10.8467 15.771 10.8467C15.7298 10.8467 15.7298 10.8467 15.6875 10.8465C15.6575 10.8465 15.6275 10.8467 15.5965 10.8467C15.5505 10.8467 15.5505 10.8467 15.5035 10.8465C15.4218 10.8465 15.34 10.8467 15.258 10.8467C15.1753 10.847 15.0925 10.8467 15.0095 10.8465C14.9465 10.8465 14.8833 10.8467 14.82 10.8467C14.7903 10.8467 14.7605 10.8465 14.7298 10.8465C14.688 10.8467 14.688 10.8467 14.6453 10.8467C14.6085 10.8467 14.6085 10.8467 14.571 10.8467C14.499 10.8482 14.499 10.8482 14.4253 10.8642C14.3428 10.876 14.2815 10.8655 14.2 10.85C14.149 10.8477 14.098 10.8467 14.0468 10.8467C14.0173 10.8467 13.9875 10.8465 13.9568 10.8465C13.9093 10.8465 13.9093 10.8465 13.8608 10.8467C13.828 10.8467 13.795 10.8467 13.7613 10.8465C13.692 10.8465 13.6225 10.8465 13.5533 10.8467C13.4645 10.847 13.376 10.8467 13.2873 10.8467C13.2023 10.8465 13.1175 10.8465 13.0325 10.8467C13.0008 10.8467 12.969 10.8465 12.9363 10.8465C12.9068 10.8465 12.877 10.8467 12.8468 10.8467C12.8208 10.8467 12.7948 10.8467 12.768 10.8467C12.7075 10.8497 12.658 10.859 12.6 10.875C12.5603 10.875 12.5203 10.8737 12.4805 10.871C12.4575 10.8697 12.4345 10.8685 12.4108 10.867C12.3868 10.8655 12.3625 10.864 12.3375 10.8625C12.1608 10.8527 11.9918 10.85 11.8153 10.8702C11.7203 10.8772 11.6288 10.8675 11.5345 10.8562C11.4685 10.8482 11.4685 10.8482 11.375 10.85C11.3248 10.8497 11.2743 10.8495 11.224 10.849C11.1645 10.849 11.1048 10.8487 11.0453 10.8485C11.015 10.8482 10.9848 10.848 10.9533 10.8477C10.9245 10.8477 10.8958 10.8477 10.866 10.8475C10.8398 10.8475 10.8133 10.8472 10.786 10.8472C10.7263 10.843 10.7263 10.843 10.7 10.875C10.648 10.8775 10.5958 10.8782 10.5438 10.878C10.501 10.8782 10.501 10.8782 10.4575 10.8782C10.375 10.875 10.375 10.875 10.3108 10.8615C10.2395 10.848 10.181 10.8537 10.1095 10.8625C10.0248 10.8727 9.98176 10.8772 9.90001 10.85C9.85001 10.858 9.80001 10.8662 9.75001 10.875C9.73751 10.8625 9.73751 10.8625 9.72501 10.85C9.63751 10.8457 9.63751 10.8457 9.55001 10.85C9.54176 10.8582 9.53351 10.8665 9.52501 10.875C9.43751 10.878 9.43751 10.878 9.35001 10.875C9.33751 10.8625 9.33751 10.8625 9.32501 10.85C9.26776 10.8475 9.21051 10.8467 9.15326 10.8467C9.12701 10.8467 9.12701 10.8467 9.10001 10.8465C9.04276 10.8465 8.98551 10.8467 8.92801 10.847C8.90876 10.847 8.88951 10.847 8.86976 10.847C8.57926 10.8472 8.28976 10.8535 8.00001 10.875ZM23.25 10.85C23.25 10.8582 23.25 10.8665 23.25 10.875C23.3738 10.875 23.4975 10.875 23.625 10.875C23.625 10.8667 23.625 10.8585 23.625 10.85C23.5013 10.85 23.3775 10.85 23.25 10.85ZM25.35 11C25.375 11.05 25.375 11.05 25.375 11.05L25.35 11ZM19.1 17.275C19.125 17.325 19.125 17.325 19.125 17.325L19.1 17.275ZM19.075 17.325C19.1 17.375 19.1 17.375 19.1 17.375L19.075 17.325ZM19.075 17.525C19.075 17.6158 19.075 17.7065 19.075 17.8C19.0833 17.8 19.0915 17.8 19.1 17.8C19.1 17.7092 19.1 17.6185 19.1 17.525C19.0918 17.525 19.0835 17.525 19.075 17.525ZM19.075 18.025C19.075 18.091 19.075 18.157 19.075 18.225C19.0915 18.2168 19.108 18.2085 19.125 18.2C19.1168 18.1423 19.1085 18.0845 19.1 18.025C19.0918 18.025 19.0835 18.025 19.075 18.025ZM19.5 21.125C19.525 21.175 19.525 21.175 19.525 21.175L19.5 21.125ZM17.325 23.3C17.3415 23.333 17.358 23.366 17.375 23.4C17.375 23.3752 17.375 23.3505 17.375 23.325C17.3585 23.3168 17.342 23.3085 17.325 23.3ZM12.8 25.325C12.825 25.4 12.825 25.4 12.825 25.4L12.8 25.325ZM17.775 26C17.7833 26.0413 17.7915 26.0825 17.8 26.125C17.8083 26.092 17.8165 26.059 17.825 26.025C17.8085 26.0168 17.792 26.0085 17.775 26Z" fill="#F9F9F9"/>
<path d="M17.25 3.45001C17.2938 3.47401 17.3375 3.49801 17.3813 3.52201C17.4125 3.53951 17.4438 3.55726 17.475 3.57501C17.475 3.59151 17.475 3.60801 17.475 3.62501C17.4998 3.63326 17.5245 3.64151 17.55 3.65001C17.55 3.66651 17.55 3.68301 17.55 3.70001C17.5713 3.70601 17.5713 3.70601 17.593 3.71201C17.7433 3.75751 17.9008 3.81126 17.9813 3.95626C17.9875 3.97076 17.9938 3.98526 18 4.00001C18.0248 4.00826 18.0495 4.01651 18.075 4.02501C18.1008 4.06626 18.1258 4.10801 18.15 4.15001C18.1665 4.15826 18.183 4.16651 18.2 4.17501C18.2 4.19151 18.2 4.20801 18.2 4.22501C18.2165 4.22501 18.233 4.22501 18.25 4.22501C18.2843 4.26426 18.2843 4.26426 18.322 4.31726C18.3653 4.37776 18.4078 4.43351 18.4578 4.48901C18.5115 4.56676 18.5178 4.63201 18.525 4.72501C18.5415 4.72501 18.558 4.72501 18.575 4.72501C18.5895 4.75076 18.6038 4.77651 18.6188 4.80301C18.6525 4.86251 18.6873 4.91726 18.7265 4.97351C18.8565 5.17876 18.8878 5.41376 18.925 5.65001C18.9415 5.65001 18.958 5.65001 18.975 5.65001C19.0623 5.98176 19.0623 5.98176 19.0365 6.07251C19.022 6.13826 19.0338 6.18176 19.05 6.24701C19.081 6.39226 19.077 6.47801 19.0015 6.60951C18.9845 6.63101 18.9675 6.65276 18.95 6.67501C18.9335 6.67501 18.917 6.67501 18.9 6.67501C18.8965 6.69326 18.893 6.71126 18.8893 6.73001C18.8805 6.77326 18.871 6.81626 18.8608 6.85901C18.8305 6.98901 18.8225 7.09551 18.8453 7.22726C18.85 7.27501 18.85 7.27501 18.825 7.35001C18.7898 7.36601 18.7898 7.36601 18.7538 7.38251C18.6565 7.43501 18.6355 7.48026 18.5905 7.57976C18.578 7.60676 18.5655 7.63401 18.5525 7.66201C18.5435 7.68276 18.5343 7.70351 18.525 7.72501C18.5003 7.72501 18.4755 7.72501 18.45 7.72501C18.43 7.80726 18.4225 7.84276 18.45 7.92501C18.425 8.00301 18.425 8.00301 18.375 8.07501C18.2828 8.09701 18.2828 8.09701 18.2 8.10001C18.1918 8.12476 18.1835 8.14951 18.175 8.17501C18.1585 8.17501 18.142 8.17501 18.125 8.17501C18.123 8.18901 18.121 8.20276 18.1188 8.21726C18.086 8.31826 18.0313 8.38351 17.9375 8.43276C17.875 8.45001 17.875 8.45001 17.775 8.45001C17.7668 8.49126 17.7585 8.53251 17.75 8.57501C17.717 8.57501 17.684 8.57501 17.65 8.57501C17.65 8.59976 17.65 8.62451 17.65 8.65001C17.5218 8.72451 17.4275 8.76526 17.275 8.75001C17.2585 8.74176 17.242 8.73351 17.225 8.72501C17.2333 8.75801 17.2415 8.79101 17.25 8.82501C17.217 8.83326 17.184 8.84151 17.15 8.85001C17.15 8.86651 17.15 8.88301 17.15 8.90001C17.0565 8.98976 16.975 8.98401 16.8513 8.98501C16.7733 9.00026 16.7485 9.01701 16.6868 9.06251C16.563 9.14176 16.4558 9.14151 16.312 9.13801C16.2875 9.13801 16.263 9.13776 16.2378 9.13776C16.16 9.13726 16.0825 9.13576 16.0048 9.13451C15.952 9.13401 15.8995 9.13351 15.8468 9.13326C15.7508 9.13251 15.6548 9.13151 15.5585 9.12976C15.5298 9.12926 15.5298 9.12926 15.5005 9.12876C15.45 9.12501 15.45 9.12501 15.375 9.10001C15.375 9.08351 15.375 9.06701 15.375 9.05001C15.3468 9.04226 15.3183 9.03451 15.289 9.02651C15.2 9.00001 15.2 9.00001 15.175 8.97501C15.1468 8.97751 15.1183 8.98026 15.089 8.98276C14.947 8.98551 14.8335 8.91201 14.725 8.82501C14.7168 8.80026 14.7085 8.77551 14.7 8.75001C14.686 8.74976 14.6723 8.74926 14.6578 8.74901C14.498 8.73901 14.4038 8.69176 14.275 8.60001C14.2543 8.58676 14.2338 8.57376 14.2125 8.56026C14.0933 8.48401 14.0933 8.48401 14.05 8.45001C14.05 8.43351 14.05 8.41701 14.05 8.40001C14.0335 8.40001 14.017 8.40001 14 8.40001C14 8.38351 14 8.36701 14 8.35001C13.986 8.34376 13.9723 8.33751 13.9578 8.33126C13.8488 8.27226 13.776 8.21351 13.725 8.10001C13.7085 8.09176 13.692 8.08351 13.675 8.07501C13.651 8.03401 13.651 8.03401 13.6265 7.98276C13.6178 7.96476 13.609 7.94701 13.6 7.92851C13.5788 7.88276 13.558 7.83676 13.5375 7.79051C13.4965 7.71876 13.474 7.70601 13.4 7.67501C13.35 7.60001 13.35 7.60001 13.3265 7.52501C13.3065 7.45126 13.3065 7.45126 13.2633 7.41401C13.1458 7.29451 13.137 7.08151 13.1135 6.92401C13.101 6.85601 13.0835 6.79501 13.061 6.72976C13.017 6.59326 13.0115 6.45776 13.0053 6.31526C13 6.22576 12.989 6.13876 12.975 6.05001C12.9833 6.05001 12.9915 6.05001 13 6.05001C13.0165 5.88501 13.033 5.72001 13.05 5.55001C13.0665 5.55001 13.083 5.55001 13.1 5.55001C13.0918 5.52526 13.0835 5.50051 13.075 5.47501C13.0863 5.41051 13.0993 5.34926 13.1155 5.28601C13.1203 5.26801 13.1248 5.25026 13.1293 5.23201C13.1678 5.08801 13.2168 4.95001 13.3 4.82501C13.3248 4.81251 13.3248 4.81251 13.35 4.80001C13.3495 4.77626 13.349 4.75251 13.3485 4.72801C13.35 4.65001 13.35 4.65001 13.375 4.60001C13.3915 4.60001 13.408 4.60001 13.425 4.60001C13.425 4.58351 13.425 4.56701 13.425 4.55001C13.4498 4.53751 13.4498 4.53751 13.475 4.52501C13.4833 4.50026 13.4915 4.47551 13.5 4.45001C13.5165 4.45001 13.533 4.45001 13.55 4.45001C13.5583 4.42526 13.5665 4.40051 13.575 4.37501C13.6095 4.29051 13.646 4.25451 13.722 4.20476C13.7958 4.15251 13.84 4.11026 13.8813 4.02976C13.925 3.95001 13.925 3.95001 13.9765 3.93276C13.9925 3.93026 14.0085 3.92776 14.025 3.92501C14.067 3.87701 14.0965 3.83201 14.125 3.77501C14.2038 3.72251 14.2765 3.68351 14.3655 3.65151C14.4328 3.62801 14.4328 3.62801 14.475 3.55001C14.523 3.52976 14.523 3.52976 14.5798 3.51401C14.6893 3.48076 14.7778 3.43501 14.875 3.37501C14.875 3.35851 14.875 3.34201 14.875 3.32501C14.9303 3.31301 14.9855 3.30101 15.0405 3.28901C15.0713 3.28251 15.102 3.27576 15.1338 3.26876C15.214 3.25226 15.2943 3.23851 15.375 3.22501C15.4083 3.21676 15.4418 3.20851 15.475 3.20001C16.052 3.10451 16.7393 3.15401 17.25 3.45001ZM15.5113 4.36201C15.4138 4.42251 15.3083 4.43526 15.1963 4.45401C15.1133 4.47851 15.0825 4.51226 15.025 4.57501C14.9993 4.58476 14.9735 4.59451 14.947 4.60476C14.8278 4.65051 14.7448 4.73951 14.6535 4.82601C14.6 4.87501 14.6 4.87501 14.55 4.90001C14.5335 4.96326 14.5335 4.96326 14.525 5.02501C14.5003 5.03326 14.4755 5.04151 14.45 5.05001C14.45 5.06651 14.45 5.08301 14.45 5.10001C14.4128 5.11251 14.4128 5.11251 14.375 5.12501C14.3193 5.23651 14.2818 5.35226 14.244 5.47076C14.225 5.52501 14.225 5.52501 14.1845 5.60626C14.142 5.72176 14.1363 5.82801 14.1303 5.95026C14.1258 6.01276 14.1153 6.06476 14.1 6.12501C14.1098 6.19201 14.1098 6.19201 14.125 6.25001C14.1003 6.26251 14.1003 6.26251 14.075 6.27501C14.0833 6.29976 14.0915 6.32451 14.1 6.35001C14.1165 6.35001 14.133 6.35001 14.15 6.35001C14.1483 6.39876 14.1468 6.44776 14.145 6.49651C14.1508 6.55826 14.1715 6.59551 14.2 6.65001C14.2078 6.68476 14.2145 6.71951 14.2203 6.75476C14.262 6.95251 14.3803 7.11251 14.4943 7.27626C14.525 7.32501 14.525 7.32501 14.55 7.40001C14.588 7.43576 14.588 7.43576 14.636 7.46876C14.654 7.48176 14.672 7.49476 14.6905 7.50801C14.71 7.52201 14.7298 7.53576 14.75 7.55001C14.7708 7.56451 14.7915 7.57926 14.8128 7.59426C14.8553 7.62401 14.8978 7.65376 14.9403 7.68326C14.9923 7.71951 15.043 7.75726 15.0938 7.79526C15.1733 7.84876 15.2348 7.87126 15.325 7.90001C15.3533 7.91101 15.3818 7.92176 15.411 7.93301C15.455 7.95001 15.455 7.95001 15.5 7.96726C15.5295 7.97876 15.5588 7.99001 15.589 8.00176C15.6823 8.02701 15.732 8.02051 15.825 8.00001C15.9745 7.99351 16.1223 7.99376 16.2703 8.01726C16.3893 8.03301 16.4678 8.00176 16.575 7.95001C16.5833 7.93351 16.5915 7.91701 16.6 7.90001C16.6498 7.88276 16.6998 7.86601 16.75 7.85001C16.7748 7.83351 16.7995 7.81701 16.825 7.80001C16.8583 7.79151 16.8915 7.78301 16.925 7.77501C16.9795 7.75501 16.9795 7.75501 17.025 7.72501C17.0333 7.70026 17.0415 7.67551 17.05 7.65001C17.0938 7.62476 17.1378 7.59976 17.1825 7.57601C17.2365 7.54301 17.2635 7.50126 17.3 7.45001C17.3213 7.43751 17.3423 7.42526 17.364 7.41251C17.4298 7.37201 17.4483 7.34576 17.475 7.27501C17.4915 7.27501 17.508 7.27501 17.525 7.27501C17.527 7.26051 17.529 7.24626 17.5313 7.23126C17.55 7.17501 17.55 7.17501 17.5985 7.12976C17.6668 7.05726 17.6768 6.99651 17.7 6.90001C17.7118 6.85926 17.7238 6.81876 17.736 6.77801C17.7415 6.75901 17.7473 6.74001 17.753 6.72051C17.775 6.65001 17.775 6.65001 17.7938 6.60351C17.8593 6.43376 17.8613 6.27401 17.8595 6.09376C17.8598 6.05026 17.8598 6.05026 17.8603 6.00601C17.8603 5.97826 17.86 5.95026 17.86 5.92151C17.8598 5.88376 17.8598 5.88376 17.8598 5.84526C17.8485 5.76401 17.8203 5.71776 17.775 5.65001C17.7563 5.60351 17.7385 5.55676 17.722 5.50951C17.7095 5.47401 17.7095 5.47401 17.6968 5.43801C17.681 5.39226 17.6653 5.34601 17.65 5.30001C17.6335 5.30001 17.617 5.30001 17.6 5.30001C17.5975 5.28151 17.5948 5.26276 17.5923 5.24376C17.5738 5.17001 17.5513 5.13051 17.5 5.07501C17.4835 5.07501 17.467 5.07501 17.45 5.07501C17.4523 5.05626 17.4545 5.03751 17.457 5.01826C17.457 4.94676 17.457 4.94676 17.4018 4.90226C17.3708 4.88101 17.3708 4.88101 17.339 4.85951C17.2273 4.78201 17.2273 4.78201 17.2 4.70001C17.1495 4.64026 17.1005 4.60976 17.0298 4.57801C16.9563 4.54351 16.915 4.51576 16.853 4.45951C16.733 4.36801 16.599 4.35001 16.45 4.35001C16.4375 4.31276 16.4375 4.31276 16.425 4.27501C16.1655 4.17501 15.7345 4.20426 15.5113 4.36201ZM18.475 7.62501C18.475 7.70001 18.475 7.70001 18.475 7.70001V7.62501ZM17.05 7.65001C17.075 7.70001 17.075 7.70001 17.075 7.70001L17.05 7.65001ZM18.4 7.75001C18.3628 7.79951 18.3628 7.79951 18.325 7.85001C18.358 7.83351 18.391 7.81701 18.425 7.80001C18.4168 7.78351 18.4085 7.76701 18.4 7.75001Z" fill="#F9F9F9"/>
<path d="M9.96761 12.0222C10.0059 12.0222 10.0441 12.0222 10.0824 12.0222C10.1851 12.0222 10.2876 12.0224 10.3904 12.0224C10.4981 12.0227 10.6059 12.0227 10.7136 12.0227C10.9171 12.0227 11.1206 12.0229 11.3244 12.0232C11.5561 12.0234 11.7881 12.0237 12.0201 12.0237C12.4966 12.0239 12.9734 12.0244 13.4501 12.0249C13.4501 12.0414 13.4501 12.0579 13.4501 12.0749C13.4769 12.0767 13.5036 12.0782 13.5314 12.0797C13.6251 12.0999 13.6251 12.0999 13.6814 12.1532C13.7864 12.3257 13.8116 12.4582 13.8156 12.6579C13.8169 12.7024 13.8184 12.7472 13.8196 12.7919C13.8204 12.8139 13.8209 12.8357 13.8216 12.8582C13.8261 12.9469 13.8374 13.0344 13.8499 13.1224C13.8501 13.1749 13.8501 13.1749 13.8001 13.2499C13.7589 13.2417 13.7176 13.2334 13.6751 13.2249C13.6501 13.1499 13.6501 13.1499 13.6641 13.0749C13.6841 12.9957 13.6841 12.9957 13.6251 12.9249C13.6194 12.8747 13.6194 12.8747 13.6204 12.8187C13.6206 12.7989 13.6209 12.7792 13.6211 12.7587C13.6251 12.6999 13.6251 12.6999 13.6454 12.6062C13.6594 12.5207 13.6594 12.5207 13.5939 12.4562C13.5596 12.4284 13.5596 12.4284 13.5251 12.3999C13.5049 12.3777 13.5049 12.3777 13.4844 12.3547C13.4481 12.3169 13.4481 12.3169 13.3751 12.3249C13.3756 12.3397 13.3761 12.3542 13.3766 12.3694C13.3786 12.4357 13.3799 12.5022 13.3814 12.5687C13.3821 12.5917 13.3829 12.6147 13.3839 12.6384C13.3861 12.8069 13.3861 12.8069 13.3341 12.8909C13.2569 12.9354 13.2129 12.9364 13.1251 12.9249C13.0571 12.8994 13.0571 12.8994 12.9906 12.8657C12.9061 12.8244 12.8299 12.7919 12.7376 12.7734C12.6501 12.7499 12.6501 12.7499 12.6001 12.6969C12.5919 12.6814 12.5836 12.6659 12.5751 12.6499C12.5174 12.6582 12.4596 12.6664 12.4001 12.6749C12.3966 12.6909 12.3934 12.7069 12.3899 12.7234C12.3834 12.7544 12.3834 12.7544 12.3766 12.7859C12.3721 12.8064 12.3679 12.8272 12.3634 12.8484C12.3501 12.8999 12.3501 12.8999 12.3251 12.9249C12.2469 12.9334 12.2121 12.9342 12.1484 12.8859C12.1031 12.8442 12.1031 12.8442 12.0484 12.8532C11.9976 12.8722 11.9976 12.8722 11.9641 12.9157C11.9251 12.9499 11.9251 12.9499 11.8671 12.9532C11.7661 12.9107 11.7056 12.8439 11.6501 12.7499C11.6349 12.6372 11.6366 12.5952 11.7001 12.4999C11.7594 12.4874 11.7594 12.4874 11.8251 12.4999C11.8829 12.5624 11.8829 12.5624 11.9251 12.6249C11.9126 12.4794 11.9126 12.4794 11.8579 12.3454C11.8251 12.2749 11.8251 12.2749 11.8454 12.2032C11.8551 12.1857 11.8649 12.1682 11.8751 12.1499C11.9021 12.1632 11.9021 12.1632 11.9296 12.1767C12.0101 12.2034 12.0454 12.2017 12.1251 12.1749C12.1581 12.1502 12.1911 12.1254 12.2251 12.0999C11.2434 12.0917 10.2616 12.0834 9.25011 12.0749C9.25011 12.0667 9.25011 12.0584 9.25011 12.0499C9.48961 12.0277 9.72736 12.0214 9.96761 12.0222Z" fill="#ECECEC"/>
<path d="M16.5835 23.867C16.665 23.8768 16.6995 23.9028 16.764 23.9533C16.8817 24.0408 17.0025 24.1033 17.1357 24.1635C17.231 24.2178 17.2657 24.2723 17.3 24.375C17.3047 24.464 17.3047 24.464 17.3 24.55C17.25 24.6 17.25 24.6 17.1797 24.6078C17.1 24.6 17.1 24.6 17.0375 24.561C16.9565 24.5145 16.9132 24.5275 16.825 24.55C16.8295 24.6585 16.8295 24.6585 16.875 24.75C16.8845 24.854 16.8847 24.9488 16.8485 25.047C16.8175 25.15 16.8327 25.2348 16.8477 25.3403C16.8485 25.36 16.8492 25.3798 16.85 25.4C16.8335 25.4165 16.817 25.433 16.8 25.45C16.722 25.4408 16.722 25.4408 16.65 25.425C16.6335 25.3508 16.617 25.2765 16.6 25.2C16.5917 25.2 16.5835 25.2 16.575 25.2C16.575 25.0598 16.575 24.9195 16.575 24.775C16.5585 24.775 16.542 24.775 16.525 24.775C16.5312 24.7528 16.5375 24.7308 16.5437 24.7078C16.5627 24.582 16.514 24.4738 16.475 24.3558C16.4347 24.2263 16.4087 24.1088 16.4452 23.9765C16.4842 23.909 16.5042 23.8778 16.5835 23.867Z" fill="#ECECEC"/>
<path d="M18.4752 9.74332C18.507 9.74357 18.507 9.74357 18.5395 9.74357C18.562 9.74357 18.5845 9.74357 18.6077 9.74332C18.6835 9.74332 18.7592 9.74332 18.835 9.74357C18.8892 9.74357 18.9435 9.74332 18.9975 9.74332C19.145 9.74307 19.2925 9.74307 19.44 9.74332C19.5942 9.74332 19.7482 9.74332 19.9025 9.74332C20.1615 9.74307 20.4205 9.74332 20.6797 9.74357C20.9792 9.74382 21.2787 9.74357 21.5782 9.74332C21.8352 9.74307 22.0922 9.74307 22.3492 9.74332C22.5027 9.74332 22.6562 9.74332 22.8097 9.74307C22.9542 9.74307 23.0987 9.74307 23.2432 9.74332C23.2962 9.74357 23.3492 9.74357 23.4022 9.74332C23.4747 9.74332 23.5472 9.74332 23.6195 9.74357C23.6405 9.74357 23.6615 9.74332 23.683 9.74332C23.8062 9.74407 23.908 9.76057 24.025 9.80007C24.025 9.80832 24.025 9.81657 24.025 9.82507C22.2595 9.82507 20.494 9.82507 18.675 9.82507C18.6997 9.86207 18.6997 9.86207 18.725 9.90007C18.7085 9.93307 18.692 9.96607 18.675 10.0001C18.6172 10.0063 18.6172 10.0063 18.55 10.0001C18.5032 9.95457 18.5032 9.95457 18.475 9.90007C18.4832 9.87532 18.4915 9.85057 18.5 9.82507C18.4257 9.81682 18.3515 9.80857 18.275 9.80007C18.3402 9.73457 18.3862 9.74382 18.4752 9.74332Z" fill="#ECECEC"/>
<path d="M8.025 9.75C9.7575 9.75 11.49 9.75 13.275 9.75C13.2832 9.7665 13.2915 9.783 13.3 9.8C13.0472 9.82175 12.7965 9.8285 12.543 9.82775C12.5035 9.82775 12.4642 9.82775 12.4247 9.82775C12.3187 9.82775 12.2127 9.82775 12.1067 9.8275C11.9955 9.8275 11.8845 9.82725 11.7732 9.82725C11.5632 9.82725 11.3532 9.827 11.1432 9.82675C10.904 9.8265 10.6647 9.8265 10.4252 9.82625C9.9335 9.826 9.44175 9.8255 8.95 9.825C8.94175 9.84975 8.9335 9.8745 8.925 9.9C8.86725 9.9 8.8095 9.9 8.75 9.9C8.7375 9.86275 8.7375 9.86275 8.725 9.825C8.46925 9.825 8.2135 9.825 7.95 9.825C7.95 9.84975 7.95 9.8745 7.95 9.9C7.90875 9.9 7.8675 9.9 7.825 9.9C7.825 9.87525 7.825 9.8505 7.825 9.825C7.891 9.8085 7.957 9.792 8.025 9.775C8.025 9.76675 8.025 9.7585 8.025 9.75Z" fill="#ECECEC"/>
<path d="M13.1656 27.6063C13.2501 27.65 13.2501 27.65 13.2751 27.725C13.2954 27.7163 13.3159 27.7075 13.3371 27.6985C13.3641 27.6873 13.3909 27.6758 13.4186 27.664C13.4454 27.6528 13.4721 27.6415 13.4996 27.6298C13.6216 27.5818 13.6216 27.5818 13.6751 27.575C13.7409 27.641 13.7306 27.674 13.7329 27.7658C13.7396 27.8708 13.7484 27.9383 13.8109 28.0235C13.8904 28.132 13.8991 28.2423 13.9136 28.3738C13.9246 28.448 13.9466 28.506 13.9751 28.575C13.9686 28.6438 13.9686 28.6438 13.9501 28.7C13.8899 28.73 13.8514 28.7275 13.7844 28.7265C13.7536 28.7263 13.7536 28.7263 13.7224 28.726C13.7069 28.7255 13.6911 28.7253 13.6751 28.725C13.6586 28.6838 13.6419 28.6425 13.6251 28.6C13.5879 28.6123 13.5879 28.6123 13.5501 28.625C13.5196 28.6875 13.5196 28.6875 13.5001 28.75C13.4281 28.7548 13.4281 28.7548 13.3501 28.75C13.3001 28.675 13.3001 28.675 13.2984 28.614C13.3321 28.5328 13.3791 28.513 13.4556 28.474C13.5149 28.442 13.5549 28.3998 13.6001 28.35C13.6191 28.3345 13.6381 28.319 13.6579 28.3033C13.7061 28.2525 13.7061 28.2525 13.7046 28.1828C13.6681 28.0808 13.6121 28.013 13.5424 27.9313C13.4984 27.8728 13.4766 27.8175 13.4501 27.75C13.4336 27.7418 13.4169 27.7335 13.4001 27.725C13.3916 27.7415 13.3836 27.758 13.3751 27.775C13.1329 27.75 13.1329 27.75 13.0251 27.7C13.0031 27.6468 13.0031 27.6468 13.0001 27.6C13.0751 27.575 13.0751 27.575 13.1656 27.6063Z" fill="#EAEAEA"/>
<path d="M7.34999 11.2C7.41874 11.2215 7.44899 11.249 7.49999 11.3C7.52699 11.3605 7.54824 11.4163 7.56099 11.4813C7.56549 11.4958 7.57024 11.51 7.57499 11.525C7.59974 11.5333 7.62449 11.5415 7.64999 11.55C7.66549 11.6078 7.66549 11.6078 7.67499 11.675C7.65849 11.6998 7.64199 11.7245 7.62499 11.75C7.60074 11.7548 7.57649 11.7593 7.55149 11.764C7.47099 11.7918 7.47099 11.7918 7.44849 11.8588C7.42999 11.9223 7.41349 11.9853 7.39999 12.05C7.34224 12.0655 7.34224 12.0655 7.27499 12.075C7.19999 12.025 7.19999 12.025 7.18799 11.9798C7.18574 11.9618 7.18349 11.9435 7.18124 11.925C7.15249 11.7735 7.06524 11.6713 6.97499 11.55C6.87424 11.401 6.87424 11.401 6.87649 11.3155C6.89999 11.275 6.89999 11.275 6.97499 11.25C6.99149 11.2583 7.00799 11.2665 7.02499 11.275C7.16824 11.2845 7.22699 11.2753 7.34999 11.2Z" fill="#ECECEC"/>
<path d="M18.55 12.025C20.3155 12.025 22.081 12.025 23.9 12.025C23.8918 12.0415 23.8835 12.058 23.875 12.075C23.6198 12.0805 23.3645 12.085 23.1095 12.089C23.089 12.0895 23.0688 12.0897 23.048 12.09C22.0745 12.105 21.1015 12.0972 20.128 12.089C20.109 12.089 20.0898 12.0887 20.07 12.0885C19.5718 12.0845 19.0733 12.08 18.575 12.075C18.5668 12.0585 18.5585 12.042 18.55 12.025Z" fill="#F1F1F1"/>
<path d="M13.15 18.8C13.2385 18.8135 13.2385 18.8135 13.275 18.85C13.2822 18.9315 13.2862 19.0132 13.2905 19.095C13.2992 19.1697 13.3142 19.2107 13.35 19.275C13.35 19.3375 13.35 19.3375 13.325 19.4C13.237 19.472 13.163 19.5117 13.05 19.525C13.0005 19.4672 12.951 19.4095 12.9 19.35C12.7972 19.364 12.7972 19.364 12.7562 19.439C12.746 19.4592 12.7357 19.4792 12.725 19.5C12.7002 19.4917 12.6755 19.4835 12.65 19.475C12.6747 19.376 12.6995 19.277 12.725 19.175C12.7992 19.1875 12.7992 19.1875 12.875 19.2C12.9782 19.14 13.052 19.0447 13.0827 18.9297C13.0885 18.9035 13.0942 18.877 13.1 18.85C13.1165 18.8335 13.133 18.817 13.15 18.8Z" fill="#ECECEC"/>
<path d="M13.3598 15.39C13.425 15.4 13.425 15.4 13.4745 15.4485C13.4965 15.4795 13.4965 15.4795 13.5188 15.511C13.5335 15.5315 13.5485 15.5522 13.5638 15.5735C13.5758 15.5905 13.5878 15.6075 13.6 15.625C13.6083 15.6332 13.6165 15.6415 13.625 15.65C13.6375 15.7157 13.6375 15.7157 13.625 15.8C13.5553 15.8955 13.4763 15.9622 13.3703 16.014C13.2815 16.0595 13.2493 16.115 13.2 16.2C13.1588 16.1917 13.1175 16.1835 13.075 16.175C13.064 16.0865 13.0805 16.0327 13.1218 15.9562C13.195 15.819 13.218 15.6797 13.2375 15.5265C13.2525 15.4347 13.2663 15.4057 13.3598 15.39Z" fill="#ECECEC"/>
<path d="M19.675 10.25C19.7535 10.2562 19.7945 10.271 19.8577 10.3187C19.9 10.375 19.9 10.375 19.9102 10.434C19.8957 10.5277 19.852 10.5545 19.7797 10.614C19.687 10.689 19.687 10.689 19.6155 10.7822C19.575 10.825 19.575 10.825 19.492 10.831C19.4605 10.828 19.4292 10.825 19.397 10.822C19.3495 10.818 19.3495 10.818 19.3012 10.8137C19.2762 10.8092 19.251 10.8047 19.225 10.8C19.1925 10.7347 19.1865 10.6717 19.175 10.6C19.1697 10.581 19.1647 10.5617 19.1595 10.5422C19.1562 10.5282 19.1532 10.5142 19.15 10.5C19.1582 10.4917 19.1665 10.4835 19.175 10.475C19.2657 10.484 19.344 10.4977 19.4297 10.5297C19.4972 10.5562 19.4972 10.5562 19.5525 10.5335C19.6042 10.5035 19.6042 10.5035 19.6197 10.4467C19.623 10.4267 19.6262 10.4065 19.6297 10.386C19.6485 10.2765 19.6485 10.2765 19.675 10.25Z" fill="#ECECEC"/>
<path d="M9.8544 9.84511C9.8834 9.84536 9.91215 9.84536 9.94215 9.84561C9.9719 9.84611 10.0019 9.84636 10.0329 9.84686C10.0784 9.84711 10.0784 9.84711 10.1251 9.84761C10.2001 9.84811 10.2749 9.84886 10.3499 9.85011C10.4784 10.0734 10.4784 10.0734 10.4749 10.2251C10.4419 10.2334 10.4089 10.2416 10.3749 10.2501C10.3629 10.2291 10.3629 10.2291 10.3504 10.2081C10.3394 10.1899 10.3284 10.1719 10.3171 10.1531C10.3064 10.1351 10.2956 10.1171 10.2846 10.0986C10.2496 10.0434 10.2496 10.0434 10.1749 10.0001C10.0731 9.99161 10.0366 9.99211 9.9499 10.0501C9.8864 10.0584 9.8234 10.0611 9.7594 10.0639C9.6889 10.0771 9.66815 10.0936 9.6249 10.1501C9.60065 10.1951 9.60065 10.1951 9.5829 10.2421C9.5719 10.2696 9.56115 10.2969 9.5499 10.3251C9.52515 10.3169 9.5004 10.3086 9.4749 10.3001C9.48565 10.1989 9.50315 10.1026 9.53115 10.0046C9.53665 9.98586 9.5419 9.96711 9.54715 9.94786C9.61065 9.83836 9.74015 9.84386 9.8544 9.84511Z" fill="#ECECEC"/>
<path d="M13.4296 9.74384C13.4523 9.74384 13.4753 9.74384 13.4988 9.74409C13.5378 9.74384 13.5378 9.74384 13.5781 9.74384C13.6068 9.74384 13.6356 9.74409 13.6653 9.74434C13.6956 9.74434 13.7258 9.74434 13.7568 9.74434C13.8401 9.74434 13.9231 9.74459 14.0061 9.74484C14.0928 9.74534 14.1796 9.74534 14.2663 9.74534C14.4306 9.74559 14.5951 9.74584 14.7593 9.74634C14.9463 9.74684 15.1333 9.74734 15.3206 9.74759C15.7053 9.74809 16.0901 9.74884 16.4751 9.75009C16.4873 9.77484 16.4873 9.77484 16.5001 9.80009C15.8021 9.81484 15.1043 9.82759 14.4063 9.82809C14.3673 9.82809 14.3673 9.82809 14.3278 9.82834C13.9928 9.82909 13.6596 9.82009 13.3251 9.80009C13.3751 9.75009 13.3751 9.75009 13.4296 9.74384Z" fill="#EDEDED"/>
<path d="M16.975 27.45C16.9915 27.45 17.008 27.45 17.025 27.45C17.0333 27.4665 17.0415 27.483 17.05 27.5C17.065 27.4948 17.08 27.4898 17.0953 27.4845C17.15 27.475 17.15 27.475 17.225 27.525C17.21 27.6298 17.1858 27.7253 17.15 27.825C17.1718 27.827 17.1935 27.829 17.2158 27.8313C17.314 27.8533 17.3675 27.8905 17.447 27.9515C17.471 27.97 17.4953 27.9883 17.52 28.0073C17.5383 28.0213 17.5563 28.0355 17.575 28.05C17.5668 28.0913 17.5585 28.1325 17.55 28.175C17.5088 28.1833 17.4675 28.1915 17.425 28.2C17.425 28.2165 17.425 28.233 17.425 28.25C17.3508 28.2623 17.3508 28.2623 17.275 28.275C17.2688 28.2588 17.2623 28.2425 17.2558 28.2255C17.2003 28.0848 17.141 27.9493 17.0675 27.8165C16.998 27.6868 16.959 27.5978 16.975 27.45Z" fill="#EDEDED"/>
<path d="M11.075 12.175C11.1312 12.1765 11.1312 12.1765 11.2 12.2C11.2315 12.2362 11.2627 12.2725 11.2915 12.3107C11.344 12.3725 11.406 12.4082 11.475 12.45C11.4668 12.4747 11.4585 12.4995 11.45 12.525C11.2165 12.547 11.0703 12.504 10.875 12.375C10.9085 12.2747 10.9623 12.2547 11.05 12.2C11.0583 12.1917 11.0665 12.1835 11.075 12.175Z" fill="#ECECEC"/>
<path d="M16.55 9.75C17.1027 9.75 17.6555 9.75 18.225 9.75C18.2375 9.77475 18.2375 9.77475 18.25 9.8C17.9062 9.82325 17.563 9.82775 17.2187 9.828C17.1972 9.82825 17.176 9.82825 17.1537 9.82825C17.0915 9.8285 17.0292 9.8285 16.9667 9.82825C16.9482 9.82825 16.9297 9.8285 16.9107 9.8285C16.7805 9.828 16.6542 9.816 16.525 9.8C16.5332 9.7835 16.5415 9.767 16.55 9.75Z" fill="#ECECEC"/>
<path d="M13.25 27.9C13.339 27.9355 13.3732 27.9742 13.4187 28.0577C13.4295 28.0767 13.4402 28.0957 13.4512 28.1152C13.478 28.1822 13.4825 28.2285 13.475 28.3C13.4345 28.347 13.4345 28.347 13.375 28.375C13.2985 28.375 13.2985 28.375 13.225 28.35C13.1652 28.2902 13.1505 28.2477 13.1485 28.1637C13.1602 27.992 13.1602 27.992 13.2137 27.93C13.2257 27.92 13.2377 27.9102 13.25 27.9Z" fill="#ECECEC"/>
<path d="M9.1 10.275C9.19225 10.28 9.21975 10.294 9.28275 10.364C9.30375 10.3942 9.30375 10.3942 9.325 10.425C9.2995 10.4887 9.274 10.5525 9.247 10.6155C9.22075 10.6762 9.22075 10.6762 9.225 10.75C9.2415 10.75 9.258 10.75 9.275 10.75C9.275 10.7665 9.275 10.783 9.275 10.8C9.226 10.8012 9.177 10.8022 9.128 10.803C9.08725 10.804 9.08725 10.804 9.0455 10.805C8.975 10.8 8.975 10.8 8.925 10.75C8.96625 10.7417 9.0075 10.7335 9.05 10.725C9.0515 10.6945 9.053 10.6642 9.0545 10.633C9.05675 10.5932 9.05875 10.5537 9.061 10.514C9.062 10.494 9.063 10.474 9.064 10.4532C9.07225 10.3027 9.07225 10.3027 9.1 10.275Z" fill="#ECECEC"/>
<path d="M22.25 9.74999C22.4555 9.74874 22.6613 9.74799 22.8668 9.74749C22.9623 9.74724 23.0578 9.74674 23.1533 9.74624C23.2455 9.74574 23.3378 9.74549 23.43 9.74524C23.465 9.74524 23.5 9.74499 23.5353 9.74474C23.5845 9.74424 23.634 9.74424 23.6833 9.74424C23.7113 9.74424 23.7393 9.74399 23.7683 9.74399C23.861 9.75074 23.9368 9.77174 24.025 9.79999C24.025 9.80824 24.025 9.81649 24.025 9.82499C23.4248 9.83074 22.825 9.81449 22.225 9.79999C22.2333 9.78349 22.2415 9.76699 22.25 9.74999Z" fill="#EEEEEE"/>
<path d="M12.7 26.525C12.6988 26.5417 12.6978 26.5585 12.6965 26.5757C12.6915 26.653 12.6873 26.7305 12.6828 26.8077C12.681 26.8342 12.6793 26.8605 12.6773 26.8875C12.6678 27.0722 12.6905 27.225 12.75 27.4C12.7335 27.4165 12.717 27.433 12.7 27.45C12.6345 27.4405 12.6345 27.4405 12.575 27.425C12.5785 27.3672 12.5823 27.3092 12.586 27.2515C12.588 27.2192 12.59 27.1872 12.592 27.154C12.6 27.075 12.6 27.075 12.625 27.05C12.626 26.9917 12.626 26.9332 12.625 26.875C12.6003 26.8667 12.5755 26.8585 12.55 26.85C12.5445 26.814 12.5393 26.7782 12.5345 26.7422C12.5315 26.7222 12.5285 26.7022 12.5255 26.6815C12.525 26.625 12.525 26.625 12.575 26.55C12.65 26.525 12.65 26.525 12.7 26.525Z" fill="#ECECEC"/>
<path d="M10.375 12.1C10.452 12.1045 10.4912 12.118 10.5512 12.1668C10.5665 12.184 10.5815 12.201 10.597 12.2188C10.6123 12.2358 10.6277 12.2525 10.6435 12.27C10.675 12.325 10.675 12.325 10.6675 12.3943C10.6617 12.4125 10.656 12.431 10.65 12.45C10.5615 12.4725 10.5157 12.4823 10.4312 12.4438C10.375 12.4 10.375 12.4 10.325 12.325C10.3188 12.236 10.3188 12.236 10.325 12.15C10.3415 12.1335 10.358 12.117 10.375 12.1Z" fill="#ECECEC"/>
<path d="M15.225 25.7C15.275 25.75 15.275 25.75 15.2798 25.829C15.275 25.9245 15.2645 26.0165 15.25 26.111C15.2453 26.1418 15.2408 26.1728 15.236 26.2045C15.2323 26.2278 15.2288 26.251 15.225 26.275C15.0813 26.1845 15.0813 26.1845 15.025 26.1C15.0155 26.0405 15.0155 26.0405 15.025 25.975C15.057 25.9323 15.0905 25.8908 15.125 25.85C15.142 25.8085 15.1588 25.7668 15.175 25.725C15.1915 25.7168 15.208 25.7085 15.225 25.7Z" fill="#ECECEC"/>
<path d="M19.7641 22.9062C19.8251 22.925 19.8251 22.925 19.8751 22.975C19.8918 23.0392 19.8918 23.0392 19.9046 23.114C19.9113 23.1512 19.9113 23.1512 19.9183 23.1892C19.9216 23.2192 19.9216 23.2192 19.9251 23.25C19.9001 23.275 19.9001 23.275 19.8313 23.289C19.7501 23.275 19.7501 23.275 19.7123 23.2347C19.6618 23.158 19.6283 23.094 19.6126 23.0032C19.6331 22.9162 19.6791 22.898 19.7641 22.9062Z" fill="#ECECEC"/>
<path d="M20.25 26.45C20.325 26.475 20.325 26.475 20.375 26.55C20.476 27.0695 20.476 27.0695 20.375 27.25C20.3585 27.2335 20.342 27.217 20.325 27.2C20.33 27.1358 20.33 27.1358 20.3423 27.0578C20.3558 26.95 20.3558 26.95 20.325 26.8493C20.3023 26.8218 20.279 26.7948 20.2555 26.7683C20.2005 26.6903 20.1925 26.5938 20.2 26.5C20.2165 26.4835 20.233 26.467 20.25 26.45Z" fill="#ECECEC"/>
<path d="M7.60001 12.5C7.70576 12.5125 7.75676 12.5717 7.82976 12.6452C7.85176 12.6672 7.87376 12.689 7.89651 12.7115C7.97201 12.8012 7.97201 12.8012 7.97501 12.875C7.95026 12.9122 7.95026 12.9122 7.92501 12.95C7.87026 12.95 7.87026 12.95 7.80001 12.925C7.75026 12.8627 7.71326 12.7945 7.67501 12.725C7.66001 12.7022 7.64501 12.6797 7.62976 12.6562C7.60001 12.6 7.60001 12.6 7.60001 12.5Z" fill="#ECECEC"/>
<path d="M15.6 4.04999C15.7857 4.06249 15.7857 4.06249 15.858 4.12524C15.9437 4.18899 15.999 4.18749 16.1047 4.18899C16.198 4.19074 16.198 4.19074 16.275 4.19999C16.2997 4.23724 16.2997 4.23724 16.325 4.27499C16.2235 4.27924 16.122 4.28199 16.0202 4.28449C15.9915 4.28574 15.9627 4.28699 15.9332 4.28824C15.726 4.29174 15.726 4.29174 15.6512 4.24349C15.616 4.20399 15.616 4.20399 15.575 4.12499C15.5832 4.10024 15.5915 4.07549 15.6 4.04999Z" fill="#DBDBDB"/>
<path d="M15.725 3.175C16.1505 3.171 16.5355 3.201 16.95 3.3C16.95 3.30825 16.95 3.3165 16.95 3.325C16.5178 3.36425 16.5178 3.36425 16.325 3.3C16.3168 3.2835 16.3085 3.267 16.3 3.25C16.2418 3.23825 16.2418 3.23825 16.1718 3.23425C16.146 3.232 16.12 3.23 16.0935 3.22775C16.0663 3.22575 16.039 3.224 16.011 3.222C15.9838 3.21975 15.9563 3.2175 15.9283 3.21525C15.8605 3.21 15.7928 3.205 15.725 3.2C15.725 3.19175 15.725 3.1835 15.725 3.175Z" fill="#B0B0B0"/>
<path d="M19.2 9.85001C19.3155 9.85001 19.431 9.85001 19.55 9.85001C19.55 9.92426 19.55 9.99851 19.55 10.075C19.45 10.1 19.45 10.1 19.3982 10.0795C19.3812 10.0688 19.3642 10.058 19.347 10.047C19.3297 10.0365 19.3127 10.026 19.295 10.0155C19.25 9.97501 19.25 9.97501 19.2 9.85001Z" fill="#ECECEC"/>
<path d="M7.03906 12.3734C7.06931 12.3742 7.06931 12.3742 7.10006 12.3749C7.12631 12.4744 7.12106 12.5494 7.10006 12.6499C7.11906 12.6484 7.13806 12.6469 7.15781 12.6454C7.22506 12.6499 7.22506 12.6499 7.26706 12.6797C7.30631 12.7337 7.32806 12.7874 7.35006 12.8499C7.27581 12.8219 7.21656 12.7944 7.15006 12.7499C7.15006 12.7334 7.15006 12.7169 7.15006 12.6999C7.12206 12.6922 7.12206 12.6922 7.09381 12.6844C7.00306 12.6392 6.97131 12.5889 6.92506 12.4999C6.93231 12.4092 6.94556 12.3757 7.03906 12.3734Z" fill="#ECECEC"/>
<path d="M18.8 5.375C18.8165 5.375 18.833 5.375 18.85 5.375C18.8627 5.40675 18.875 5.4385 18.8875 5.47025C18.898 5.49675 18.898 5.49675 18.9085 5.524C18.925 5.575 18.925 5.575 18.925 5.65C18.9415 5.65 18.958 5.65 18.975 5.65C19.0005 5.82225 18.996 5.9775 18.975 6.15C18.9667 6.15 18.9585 6.15 18.95 6.15C18.9417 6.02625 18.9335 5.9025 18.925 5.775C18.892 5.76675 18.859 5.7585 18.825 5.75C18.8157 5.711 18.807 5.672 18.7985 5.63275C18.7935 5.611 18.7885 5.58925 18.7835 5.567C18.7745 5.496 18.7822 5.44375 18.8 5.375Z" fill="#ECECEC"/>
<path d="M15.225 18.7C15.2415 18.7 15.258 18.7 15.275 18.7C15.2855 18.7558 15.2953 18.8115 15.3048 18.8673C15.3103 18.8983 15.3158 18.9293 15.3215 18.9613C15.3255 19.0615 15.3103 19.0968 15.25 19.175C15.2175 19.2093 15.1845 19.243 15.15 19.275C15.1378 19.0733 15.1738 18.8945 15.225 18.7Z" fill="#ECECEC"/>
<path d="M23.6469 12.2547C23.6644 12.2614 23.6819 12.2682 23.6999 12.2749C23.7084 12.3162 23.7164 12.3574 23.7249 12.3999C23.6571 12.4652 23.6276 12.4749 23.5314 12.4797C23.4911 12.4774 23.4911 12.4774 23.4499 12.4749C23.4416 12.4419 23.4336 12.4089 23.4249 12.3749C23.5574 12.2489 23.5574 12.2489 23.6469 12.2547Z" fill="#ECECEC"/>
<path d="M19.175 16.025C19.1833 16.025 19.1915 16.025 19.2 16.025C19.2 16.3467 19.2 16.6685 19.2 17C19.1753 17 19.1505 17 19.125 17C19.125 16.8432 19.125 16.6865 19.125 16.525C19.1333 16.525 19.1415 16.525 19.15 16.525C19.1497 16.493 19.1495 16.4612 19.149 16.4282C19.149 16.3865 19.1488 16.3447 19.1485 16.303C19.1483 16.282 19.148 16.261 19.1477 16.2392C19.1477 16.2192 19.1477 16.199 19.1475 16.1782C19.1475 16.1597 19.1473 16.1412 19.1473 16.122C19.15 16.075 19.15 16.075 19.175 16.025Z" fill="#ECECEC"/>
<path d="M12.8 17.3C12.8595 17.3895 12.859 17.4567 12.8612 17.5602C12.8617 17.5782 12.8622 17.5962 12.863 17.6147C12.864 17.6527 12.865 17.691 12.8657 17.729C12.8672 17.7872 12.869 17.8455 12.8707 17.9037C12.8717 17.9407 12.8727 17.9777 12.8737 18.0147C12.8742 18.0322 12.8747 18.0497 12.8752 18.0677C12.877 18.1445 12.8745 18.2012 12.85 18.275C12.8252 18.2667 12.8005 18.2585 12.775 18.25C12.7832 17.9365 12.7915 17.623 12.8 17.3Z" fill="#ECECEC"/>
<path d="M12.9703 18.6203C12.9883 18.6301 13.0063 18.6398 13.0251 18.6501C13.0203 18.7078 13.0203 18.7078 13.0001 18.7751C12.9438 18.8218 12.9438 18.8218 12.8751 18.8501C12.8048 18.8423 12.8048 18.8423 12.7501 18.8251C12.7563 18.7316 12.7598 18.6886 12.8313 18.6251C12.9001 18.6001 12.9001 18.6001 12.9703 18.6203Z" fill="#ECECEC"/>
<path d="M16.975 27.45C16.9915 27.45 17.008 27.45 17.025 27.45C17.0333 27.4665 17.0415 27.483 17.05 27.5C17.065 27.4948 17.08 27.4898 17.0953 27.4845C17.15 27.475 17.15 27.475 17.225 27.525C17.21 27.6298 17.1858 27.7253 17.15 27.825C17.091 27.7713 17.0605 27.7208 17.025 27.65C17.0085 27.6418 16.992 27.6335 16.975 27.625C16.975 27.5673 16.975 27.5095 16.975 27.45Z" fill="#E8E8E8"/>
<path d="M9.55 10.6C9.60775 10.5922 9.60775 10.5922 9.675 10.6C9.74325 10.6822 9.759 10.7445 9.75 10.85C9.61425 10.838 9.61425 10.838 9.5515 10.7812C9.518 10.7102 9.5275 10.6737 9.55 10.6Z" fill="#ECECEC"/>
<path d="M18.975 6.25C19.0018 6.3305 19 6.39075 19 6.475C19.0068 6.492 19.0135 6.509 19.0203 6.5265C19.0218 6.5425 19.0235 6.5585 19.025 6.575C18.964 6.64375 18.964 6.64375 18.9 6.7C18.8835 6.69175 18.867 6.6835 18.85 6.675C18.8395 6.53925 18.871 6.4235 18.925 6.3C18.9415 6.2835 18.958 6.267 18.975 6.25Z" fill="#ECECEC"/>
<path d="M13.775 19.225C13.7757 19.274 13.7762 19.323 13.7765 19.372C13.7767 19.3993 13.7772 19.4265 13.7775 19.4545C13.775 19.525 13.775 19.525 13.75 19.575C13.689 19.5595 13.689 19.5595 13.625 19.525C13.5985 19.4548 13.5985 19.4548 13.6 19.375C13.6967 19.225 13.6967 19.225 13.775 19.225Z" fill="#ECECEC"/>
<path d="M23.375 9.75001C23.4505 9.74876 23.526 9.74776 23.6015 9.74701C23.6227 9.74651 23.644 9.74601 23.6657 9.74551C23.7957 9.74451 23.9017 9.75751 24.025 9.80001C24.025 9.80826 24.025 9.81651 24.025 9.82501C23.8105 9.82501 23.596 9.82501 23.375 9.82501C23.375 9.80026 23.375 9.77551 23.375 9.75001Z" fill="#ECECEC"/>
<path d="M13.05 5.75C13.0583 5.75 13.0665 5.75 13.075 5.75C13.075 6.0305 13.075 6.311 13.075 6.6C13.0195 6.51675 13.0168 6.47925 13.011 6.38125C13.0033 6.2695 12.9925 6.1605 12.975 6.05C12.9833 6.05 12.9915 6.05 13 6.05C13.0165 5.951 13.033 5.852 13.05 5.75Z" fill="#EDEDED"/>
<path d="M19.275 22.325C19.308 22.3415 19.341 22.358 19.375 22.375C19.375 22.4905 19.375 22.606 19.375 22.725C19.342 22.7333 19.309 22.7415 19.275 22.75C19.255 22.69 19.249 22.6548 19.2625 22.5923C19.2782 22.507 19.263 22.435 19.25 22.35C19.2583 22.3418 19.2665 22.3335 19.275 22.325Z" fill="#ECECEC"/>
<path d="M17.775 3.79999C17.794 3.81174 17.8132 3.82374 17.8328 3.83599C17.899 3.87749 17.899 3.87749 17.975 3.89999C17.9833 3.93324 17.9918 3.96674 18 3.99999C18.0247 4.00824 18.0495 4.01649 18.075 4.02499C18.0998 4.06224 18.0998 4.06224 18.125 4.09999C18.1168 4.12474 18.1085 4.14949 18.1 4.17499C17.9995 4.10774 17.9215 4.04874 17.85 3.94999C17.798 3.91874 17.798 3.91874 17.75 3.89999C17.7583 3.86699 17.7665 3.83399 17.775 3.79999Z" fill="#ECECEC"/>
<path d="M16.5 18.85C16.55 18.9 16.55 18.9 16.555 18.9573C16.5545 18.9813 16.554 19.005 16.5535 19.0295C16.553 19.0568 16.5522 19.0838 16.5517 19.1115C16.551 19.1408 16.5502 19.17 16.5495 19.2003C16.5487 19.23 16.5482 19.26 16.5475 19.2908C16.5455 19.3865 16.543 19.4823 16.5405 19.578C16.5392 19.643 16.5377 19.7078 16.5362 19.7725C16.5327 19.9318 16.529 20.0908 16.525 20.25C16.5167 20.25 16.5085 20.25 16.5 20.25C16.4957 20.0548 16.4917 19.8593 16.488 19.664C16.4865 19.5975 16.4852 19.5308 16.4837 19.4643C16.4817 19.369 16.4797 19.2735 16.478 19.1783C16.4772 19.1483 16.4767 19.1183 16.476 19.0875C16.4755 19.06 16.475 19.0325 16.4745 19.004C16.474 18.9798 16.4735 18.9553 16.473 18.9303C16.475 18.875 16.475 18.875 16.5 18.85Z" fill="#ECECEC"/>
<path d="M13.8047 18.2594C13.8197 18.2646 13.8347 18.2696 13.8499 18.2749C13.8657 18.3594 13.8657 18.3594 13.8749 18.4499C13.8584 18.4664 13.8419 18.4831 13.8249 18.4999C13.7384 18.4504 13.7384 18.4504 13.6499 18.3999C13.6577 18.3531 13.6577 18.3531 13.6749 18.2999C13.7499 18.2499 13.7499 18.2499 13.8047 18.2594Z" fill="#ECECEC"/>
<path d="M14.775 21.6C14.7997 21.6083 14.8245 21.6165 14.85 21.625C14.864 21.7865 14.8157 21.9038 14.75 22.05C14.7335 22.0418 14.717 22.0335 14.7 22.025C14.7247 21.8848 14.7495 21.7445 14.775 21.6Z" fill="#ECECEC"/>
<path d="M13.1641 27.6031C13.2501 27.6501 13.2501 27.6501 13.2861 27.7171C13.2928 27.7459 13.2928 27.7459 13.3001 27.7751C13.2146 27.7644 13.1321 27.7521 13.0501 27.7251C13.0093 27.6594 13.0093 27.6594 13.0001 27.6001C13.0751 27.5751 13.0751 27.5751 13.1641 27.6031Z" fill="#ECECEC"/>
<path d="M19.25 26.45C19.347 26.472 19.347 26.472 19.375 26.5C19.38 26.549 19.38 26.549 19.3813 26.6095C19.382 26.6293 19.3825 26.649 19.3833 26.6693C19.3733 26.7368 19.3518 26.7578 19.3 26.8C19.2425 26.5648 19.2425 26.5648 19.25 26.45Z" fill="#ECECEC"/>
<path d="M7.075 10.175C7.0915 10.208 7.108 10.241 7.125 10.275C7.036 10.4022 6.94875 10.5057 6.825 10.6C6.84 10.5077 6.88 10.4557 6.939 10.3845C7.00525 10.3135 7.00525 10.3135 7.025 10.225C7.0415 10.225 7.058 10.225 7.075 10.225C7.075 10.2085 7.075 10.192 7.075 10.175Z" fill="#ECECEC"/>
<path d="M13.575 28.575C13.6235 28.5923 13.6235 28.5923 13.675 28.625C13.6937 28.6905 13.6937 28.6905 13.7 28.75C13.6252 28.7718 13.559 28.7778 13.4812 28.7765C13.4612 28.7763 13.4412 28.776 13.4207 28.776C13.4055 28.7755 13.3905 28.7753 13.375 28.775C13.375 28.7668 13.375 28.7585 13.375 28.75C13.4162 28.75 13.4575 28.75 13.5 28.75C13.5077 28.7258 13.5155 28.7015 13.5235 28.6765C13.55 28.6 13.55 28.6 13.575 28.575Z" fill="#FAFAFA"/>
<path d="M18.85 7.22499C18.8417 7.26624 18.8335 7.30749 18.825 7.34999C18.7672 7.36649 18.7095 7.38299 18.65 7.39999C18.6417 7.38349 18.6335 7.36699 18.625 7.34999C18.6497 7.34999 18.6745 7.34999 18.7 7.34999C18.7 7.33349 18.7 7.31699 18.7 7.29999C18.6835 7.29999 18.667 7.29999 18.65 7.29999C18.6582 7.27524 18.6665 7.25049 18.675 7.22499C18.7417 7.19174 18.7792 7.20824 18.85 7.22499Z" fill="#EDEDED"/>
<path d="M14.575 22.925C14.5833 22.925 14.5915 22.925 14.6 22.925C14.626 23.1432 14.6218 23.335 14.575 23.55C14.525 23.5 14.525 23.5 14.5193 23.4422C14.5195 23.42 14.52 23.3977 14.5203 23.375C14.5205 23.3527 14.5208 23.3307 14.5208 23.3077C14.525 23.25 14.525 23.25 14.55 23.2C14.5558 23.1532 14.5603 23.1062 14.564 23.0595C14.5663 23.0342 14.5683 23.0092 14.5705 22.9835C14.572 22.9642 14.5735 22.9447 14.575 22.925Z" fill="#ECECEC"/>
<path d="M23.4 9.85001C23.4577 9.85001 23.5155 9.85001 23.575 9.85001C23.5832 9.86651 23.5915 9.88301 23.6 9.90001C23.5752 9.93301 23.5505 9.96601 23.525 10C23.4837 9.99176 23.4425 9.98351 23.4 9.97501C23.4 9.93376 23.4 9.89251 23.4 9.85001Z" fill="#ECECEC"/>
<path d="M20.075 10.65C20.1123 10.6747 20.1123 10.6747 20.15 10.7C20.15 10.7165 20.15 10.733 20.15 10.75C20.2325 10.75 20.315 10.75 20.4 10.75C20.4083 10.7665 20.4165 10.783 20.425 10.8C20.3013 10.8 20.1775 10.8 20.05 10.8C20.05 10.675 20.05 10.675 20.075 10.65Z" fill="#ECECEC"/>
<path d="M17.425 23.125C17.425 23.2158 17.425 23.3065 17.425 23.4C17.3625 23.3577 17.3625 23.3577 17.3 23.3C17.2875 23.2345 17.2875 23.2345 17.3 23.175C17.375 23.125 17.375 23.125 17.425 23.125Z" fill="#ECECEC"/>
<path d="M14.5 10.875C14.7888 10.875 15.0775 10.875 15.375 10.875C15.375 10.8833 15.375 10.8915 15.375 10.9C15.0863 10.9 14.7975 10.9 14.5 10.9C14.5 10.8918 14.5 10.8835 14.5 10.875Z" fill="#010101"/>
<path d="M18.725 22.375C18.7498 22.3915 18.7745 22.408 18.8 22.425C18.7973 22.4662 18.794 22.5072 18.7905 22.5485C18.789 22.5712 18.7873 22.5942 18.7853 22.6177C18.782 22.6367 18.7785 22.6555 18.775 22.675C18.7503 22.6875 18.7503 22.6875 18.725 22.7C18.7235 22.6847 18.722 22.6692 18.7205 22.6535C18.7183 22.6332 18.7163 22.613 18.714 22.5922C18.712 22.5722 18.71 22.5522 18.708 22.5315C18.7013 22.471 18.7013 22.471 18.675 22.4C18.6915 22.3917 18.708 22.3835 18.725 22.375Z" fill="#F0F0F0"/>
<path d="M16.475 18.575C16.4998 18.575 16.5245 18.575 16.55 18.575C16.5848 18.6448 16.5815 18.698 16.575 18.775C16.5503 18.7915 16.5255 18.808 16.5 18.825C16.475 18.8 16.475 18.8 16.4725 18.7483C16.4728 18.7278 16.4733 18.7073 16.4735 18.686C16.4738 18.6653 16.474 18.6445 16.474 18.6233C16.4745 18.6075 16.4748 18.5915 16.475 18.575Z" fill="#ECECEC"/>
<path d="M8.47501 10.875C8.75551 10.875 9.03601 10.875 9.32501 10.875C9.32501 10.8833 9.32501 10.8915 9.32501 10.9C9.04451 10.9 8.76401 10.9 8.47501 10.9C8.47501 10.8918 8.47501 10.8835 8.47501 10.875Z" fill="black"/>
<path d="M15.35 3.25001C15.35 3.26651 15.35 3.28301 15.35 3.30001C15.3748 3.30826 15.3995 3.31651 15.425 3.32501C15.2848 3.32501 15.1445 3.32501 15 3.32501C15.0903 3.23476 15.2275 3.24626 15.35 3.25001Z" fill="#F1F1F1"/>
<path d="M7.075 10.975C7.117 10.9823 7.1585 10.9905 7.2 11C7.20825 11.033 7.2165 11.066 7.225 11.1C7.18375 11.1083 7.1425 11.1165 7.1 11.125C7.0835 11.0838 7.067 11.0425 7.05 11C7.05825 10.9918 7.0665 10.9835 7.075 10.975Z" fill="#ECECEC"/>
<path d="M13.4 10.875C13.664 10.875 13.928 10.875 14.2 10.875C14.2 10.8833 14.2 10.8915 14.2 10.9C13.936 10.9 13.672 10.9 13.4 10.9C13.4 10.8918 13.4 10.8835 13.4 10.875Z" fill="#010101"/>
<path d="M15.525 23.6C15.5415 23.6083 15.558 23.6165 15.575 23.625C15.5668 23.6663 15.5585 23.7075 15.55 23.75C15.517 23.7583 15.484 23.7665 15.45 23.775C15.4418 23.7338 15.4335 23.6925 15.425 23.65C15.472 23.6235 15.472 23.6235 15.525 23.6Z" fill="#ECECEC"/>
<path d="M14.7 22.225C14.7485 22.2438 14.7485 22.2438 14.8 22.275C14.8188 22.328 14.8188 22.328 14.825 22.375C14.7755 22.3998 14.7755 22.3998 14.725 22.425C14.7 22.4 14.7 22.4 14.6985 22.311C14.699 22.2825 14.6995 22.2543 14.7 22.225Z" fill="#ECECEC"/>
<path d="M18.375 7.82501C18.3997 7.84976 18.4245 7.87451 18.45 7.90001C18.4417 7.92476 18.4335 7.94951 18.425 7.97501C18.3837 7.97501 18.3425 7.97501 18.3 7.97501C18.2917 7.95026 18.2835 7.92551 18.275 7.90001C18.3 7.85001 18.3 7.85001 18.375 7.82501Z" fill="#ECECEC"/>
<path d="M18.4 20.775C18.4165 20.775 18.433 20.775 18.45 20.775C18.5142 20.8712 18.5137 20.9357 18.525 21.05C18.5002 21.05 18.4755 21.05 18.45 21.05C18.4335 20.9592 18.417 20.8685 18.4 20.775Z" fill="#E3E3E3"/>
<path d="M12.475 11.975C12.706 11.975 12.937 11.975 13.175 11.975C13.175 11.9833 13.175 11.9915 13.175 12C12.944 12 12.713 12 12.475 12C12.475 11.9918 12.475 11.9835 12.475 11.975Z" fill="#ECECEC"/>
<path d="M22.525 12.35C22.558 12.3665 22.591 12.383 22.625 12.4C22.6085 12.433 22.592 12.466 22.575 12.5C22.542 12.4918 22.509 12.4835 22.475 12.475C22.497 12.378 22.497 12.378 22.525 12.35Z" fill="#ECECEC"/>
<path d="M12.7 10.875C12.9062 10.875 13.1125 10.875 13.325 10.875C13.325 10.8833 13.325 10.8915 13.325 10.9C13.1187 10.9 12.9125 10.9 12.7 10.9C12.7 10.8918 12.7 10.8835 12.7 10.875Z" fill="#010101"/>
<path d="M19.025 10.875C19.1982 10.875 19.3715 10.875 19.55 10.875C19.55 10.8833 19.55 10.8915 19.55 10.9C19.3767 10.9 19.2035 10.9 19.025 10.9C19.025 10.8918 19.025 10.8835 19.025 10.875Z" fill="#010101"/>
<path d="M22.575 10.875C22.7152 10.875 22.8555 10.875 23 10.875C23 10.8833 23 10.8915 23 10.9C22.8597 10.9 22.7195 10.9 22.575 10.9C22.575 10.8918 22.575 10.8835 22.575 10.875Z" fill="#010101"/>
<path d="M21.825 10.875C21.9652 10.875 22.1055 10.875 22.25 10.875C22.25 10.8833 22.25 10.8915 22.25 10.9C22.1097 10.9 21.9695 10.9 21.825 10.9C21.825 10.8918 21.825 10.8835 21.825 10.875Z" fill="#020202"/>
<path d="M22.075 11.975C22.207 11.975 22.339 11.975 22.475 11.975C22.475 11.9833 22.475 11.9915 22.475 12C22.343 12 22.211 12 22.075 12C22.075 11.9918 22.075 11.9835 22.075 11.975Z" fill="#F9F9F9"/>
<path d="M8.425 11.975C8.54875 11.975 8.6725 11.975 8.8 11.975C8.8 11.9833 8.8 11.9915 8.8 12C8.67625 12 8.5525 12 8.425 12C8.425 11.9918 8.425 11.9835 8.425 11.975Z" fill="#FAFAFA"/>
<path d="M11.025 10.875C11.1405 10.875 11.256 10.875 11.375 10.875C11.375 10.8833 11.375 10.8915 11.375 10.9C11.2595 10.9 11.144 10.9 11.025 10.9C11.025 10.8918 11.025 10.8835 11.025 10.875Z" fill="black"/>
<path d="M15.575 10.875C15.6822 10.875 15.7895 10.875 15.9 10.875C15.9 10.8833 15.9 10.8915 15.9 10.9C15.7927 10.9 15.6855 10.9 15.575 10.9C15.575 10.8918 15.575 10.8835 15.575 10.875Z" fill="black"/>
<path d="M22.2 13.05C22.299 13.05 22.398 13.05 22.5 13.05C22.5 13.0582 22.5 13.0665 22.5 13.075C22.401 13.075 22.302 13.075 22.2 13.075C22.2 13.0667 22.2 13.0585 22.2 13.05Z" fill="#030303"/>
<path d="M20.1 10.875C20.199 10.875 20.298 10.875 20.4 10.875C20.4 10.8833 20.4 10.8915 20.4 10.9C20.301 10.9 20.202 10.9 20.1 10.9C20.1 10.8918 20.1 10.8835 20.1 10.875Z" fill="black"/>
<path d="M21.925 13.05C22.0075 13.05 22.09 13.05 22.175 13.05C22.175 13.0582 22.175 13.0665 22.175 13.075C22.0925 13.075 22.01 13.075 21.925 13.075C21.925 13.0667 21.925 13.0585 21.925 13.05Z" fill="#1A1A1A"/>
<path d="M18.55 28.8C18.6243 28.8 18.6985 28.8 18.775 28.8C18.775 28.8082 18.775 28.8165 18.775 28.825C18.7008 28.825 18.6265 28.825 18.55 28.825C18.55 28.8167 18.55 28.8085 18.55 28.8Z" fill="black"/>
<path d="M19.9 11.975C19.9742 11.975 20.0485 11.975 20.125 11.975C20.125 11.9833 20.125 11.9915 20.125 12C20.0507 12 19.9765 12 19.9 12C19.9 11.9918 19.9 11.9835 19.9 11.975Z" fill="#F2F2F2"/>
<path d="M9.25 11.975C9.32425 11.975 9.3985 11.975 9.475 11.975C9.475 11.9833 9.475 11.9915 9.475 12C9.40075 12 9.3265 12 9.25 12C9.25 11.9918 9.25 11.9835 9.25 11.975Z" fill="#ECECEC"/>
<path d="M18.95 11.975C19.016 11.975 19.082 11.975 19.15 11.975C19.15 11.9833 19.15 11.9915 19.15 12C19.084 12 19.018 12 18.95 12C18.95 11.9918 18.95 11.9835 18.95 11.975Z" fill="#ECECEC"/>
<path d="M11.925 11.975C11.991 11.975 12.057 11.975 12.125 11.975C12.125 11.9833 12.125 11.9915 12.125 12C12.059 12 11.993 12 11.925 12C11.925 11.9918 11.925 11.9835 11.925 11.975Z" fill="#F6F6F6"/>
<path d="M12.05 10.875C12.116 10.875 12.182 10.875 12.25 10.875C12.25 10.8833 12.25 10.8915 12.25 10.9C12.184 10.9 12.118 10.9 12.05 10.9C12.05 10.8918 12.05 10.8835 12.05 10.875Z" fill="black"/>
<path d="M19.95 24C19.9747 24.0125 19.9747 24.0125 20 24.025C20 24.0498 20 24.0745 20 24.1C19.9835 24.1 19.967 24.1 19.95 24.1C19.95 24.067 19.95 24.034 19.95 24Z" fill="#F0F0F0"/>
<path d="M23.15 11.975C23.2077 11.975 23.2655 11.975 23.325 11.975C23.325 11.9833 23.325 11.9915 23.325 12C23.2672 12 23.2095 12 23.15 12C23.15 11.9918 23.15 11.9835 23.15 11.975Z" fill="#F8F8F8"/>
<path d="M10.075 11.975C10.1327 11.975 10.1905 11.975 10.25 11.975C10.25 11.9833 10.25 11.9915 10.25 12C10.1922 12 10.1345 12 10.075 12C10.075 11.9918 10.075 11.9835 10.075 11.975Z" fill="#F6F6F6"/>
<path d="M9.55 10.875C9.60775 10.875 9.6655 10.875 9.725 10.875C9.725 10.8833 9.725 10.8915 9.725 10.9C9.66725 10.9 9.6095 10.9 9.55 10.9C9.55 10.8918 9.55 10.8835 9.55 10.875Z" fill="black"/>
<path d="M23.4 11.975C23.4495 11.975 23.499 11.975 23.55 11.975C23.55 11.9833 23.55 11.9915 23.55 12C23.5005 12 23.451 12 23.4 12C23.4 11.9918 23.4 11.9835 23.4 11.975Z" fill="#F7F7F7"/>
<path d="M22.675 11.975C22.7245 11.975 22.774 11.975 22.825 11.975C22.825 11.9833 22.825 11.9915 22.825 12C22.7755 12 22.726 12 22.675 12C22.675 11.9918 22.675 11.9835 22.675 11.975Z" fill="#F7F7F7"/>
<path d="M20.575 11.975C20.6245 11.975 20.674 11.975 20.725 11.975C20.725 11.9833 20.725 11.9915 20.725 12C20.6755 12 20.626 12 20.575 12C20.575 11.9918 20.575 11.9835 20.575 11.975Z" fill="#FAFAFA"/>
<path d="M18.6 11.975C18.6495 11.975 18.699 11.975 18.75 11.975C18.75 11.9833 18.75 11.9915 18.75 12C18.7005 12 18.651 12 18.6 12C18.6 11.9918 18.6 11.9835 18.6 11.975Z" fill="#ECECEC"/>
<path d="M11 11.975C11.0495 11.975 11.099 11.975 11.15 11.975C11.15 11.9833 11.15 11.9915 11.15 12C11.1005 12 11.051 12 11 12C11 11.9918 11 11.9835 11 11.975Z" fill="#FAFAFA"/>
<path d="M11.475 10.875C11.5245 10.875 11.574 10.875 11.625 10.875C11.625 10.8833 11.625 10.8915 11.625 10.9C11.5755 10.9 11.526 10.9 11.475 10.9C11.475 10.8918 11.475 10.8835 11.475 10.875Z" fill="#010101"/>
<path d="M20.175 11.975C20.2163 11.975 20.2575 11.975 20.3 11.975C20.3 11.9833 20.3 11.9915 20.3 12C20.2588 12 20.2175 12 20.175 12C20.175 11.9918 20.175 11.9835 20.175 11.975Z" fill="#FAFAFA"/>
<path d="M19.2 11.975C19.2412 11.975 19.2825 11.975 19.325 11.975C19.325 11.9833 19.325 11.9915 19.325 12C19.2837 12 19.2425 12 19.2 12C19.2 11.9918 19.2 11.9835 19.2 11.975Z" fill="#FAFAFA"/>
<path d="M9.64999 11.975C9.69124 11.975 9.73249 11.975 9.77499 11.975C9.77499 11.9833 9.77499 11.9915 9.77499 12C9.73374 12 9.69249 12 9.64999 12C9.64999 11.9918 9.64999 11.9835 9.64999 11.975Z" fill="#F4F4F4"/>
<path d="M23.7 10.875C23.7412 10.875 23.7825 10.875 23.825 10.875C23.825 10.8833 23.825 10.8915 23.825 10.9C23.7837 10.9 23.7425 10.9 23.7 10.9C23.7 10.8918 23.7 10.8835 23.7 10.875Z" fill="#020202"/>
<path d="M20.9 10.875C20.9412 10.875 20.9825 10.875 21.025 10.875C21.025 10.8833 21.025 10.8915 21.025 10.9C20.9837 10.9 20.9425 10.9 20.9 10.9C20.9 10.8918 20.9 10.8835 20.9 10.875Z" fill="black"/>
<path d="M17.975 10.875C18.0163 10.875 18.0575 10.875 18.1 10.875C18.1 10.8833 18.1 10.8915 18.1 10.9C18.0588 10.9 18.0175 10.9 17.975 10.9C17.975 10.8918 17.975 10.8835 17.975 10.875Z" fill="#010101"/>
<path d="M17.35 10.875C17.3913 10.875 17.4325 10.875 17.475 10.875C17.475 10.8833 17.475 10.8915 17.475 10.9C17.4338 10.9 17.3925 10.9 17.35 10.9C17.35 10.8918 17.35 10.8835 17.35 10.875Z" fill="#020202"/>
<path d="M19.075 25.45C19.1 25.55 19.1 25.55 19.1 25.55L19.075 25.45Z" fill="#ECECEC"/>
<path d="M13.25 22.6C13.275 22.7 13.275 22.7 13.275 22.7L13.25 22.6Z" fill="#ECECEC"/>
<path d="M18.55 21.725C18.575 21.825 18.575 21.825 18.575 21.825L18.55 21.725Z" fill="#FAFAFA"/>
<path d="M13.225 11.975C13.325 12 13.325 12 13.325 12L13.225 11.975Z" fill="#ECECEC"/>
<path d="M11.775 11.975C11.875 12 11.875 12 11.875 12L11.775 11.975Z" fill="#F6F6F6"/>
<path d="M11.375 11.975C11.475 12 11.475 12 11.475 12L11.375 11.975Z" fill="#F6F6F6"/>
<path d="M8.825 11.975C8.925 12 8.925 12 8.925 12L8.825 11.975Z" fill="#FAFAFA"/>
<path d="M8.27499 11.975C8.37499 12 8.37499 12 8.37499 12L8.27499 11.975Z" fill="#FAFAFA"/>
<path d="M16.9 10.875C17 10.9 17 10.9 17 10.9L16.9 10.875Z" fill="black"/>
<path d="M16.2 10.875C16.3 10.9 16.3 10.9 16.3 10.9L16.2 10.875Z" fill="black"/>
<path d="M16.025 10.875C16.125 10.9 16.125 10.9 16.125 10.9L16.025 10.875Z" fill="#020202"/>
<path d="M10.9 10.875C11 10.9 11 10.9 11 10.9L10.9 10.875Z" fill="#030303"/>
<path d="M10.25 10.875C10.35 10.9 10.35 10.9 10.35 10.9L10.25 10.875Z" fill="#010101"/>
<path d="M14.9 20.625C14.9083 20.6415 14.9165 20.658 14.925 20.675C14.9085 20.6667 14.892 20.6585 14.875 20.65C14.8833 20.6418 14.8915 20.6335 14.9 20.625Z" fill="#ECECEC"/>
<path d="M23.675 11.975C23.75 12 23.75 12 23.75 12L23.675 11.975Z" fill="#ECECEC"/>
<path d="M22.95 11.975C23.025 12 23.025 12 23.025 12L22.95 11.975Z" fill="#FAFAFA"/>
<path d="M22.5 11.975C22.575 12 22.575 12 22.575 12L22.5 11.975Z" fill="#FAFAFA"/>
<path d="M21.6 11.975C21.675 12 21.675 12 21.675 12L21.6 11.975Z" fill="#FAFAFA"/>
<path d="M20.875 11.975C20.95 12 20.95 12 20.95 12L20.875 11.975Z" fill="#FAFAFA"/>
<path d="M12.275 11.975C12.35 12 12.35 12 12.35 12L12.275 11.975Z" fill="#F5F5F5"/>
<path d="M8.97501 11.975C9.05001 12 9.05001 12 9.05001 12L8.97501 11.975Z" fill="#ECECEC"/>
<path d="M21.45 10.875C21.525 10.9 21.525 10.9 21.525 10.9L21.45 10.875Z" fill="#010101"/>
<path d="M19.925 10.875C20 10.9 20 10.9 20 10.9L19.925 10.875Z" fill="#010101"/>
<path d="M18.4 10.875C18.475 10.9 18.475 10.9 18.475 10.9L18.4 10.875Z" fill="#010101"/>
<path d="M18.85 28.775C18.9 28.8 18.9 28.8 18.9 28.8L18.85 28.775Z" fill="#030303"/>
<path d="M18.475 28.775C18.525 28.8 18.525 28.8 18.525 28.8L18.475 28.775Z" fill="#030303"/>
<path d="M18.375 28.775C18.425 28.8 18.425 28.8 18.425 28.8L18.375 28.775Z" fill="#030303"/>
<path d="M19.25 26.925C19.3 26.95 19.3 26.95 19.3 26.95L19.25 26.925Z" fill="#FAFAFA"/>
<path d="M22.85 11.975C22.9 12 22.9 12 22.9 12L22.85 11.975Z" fill="#FAFAFA"/>
<path d="M21.825 11.975C21.875 12 21.875 12 21.875 12L21.825 11.975Z" fill="#FAFAFA"/>
<path d="M21.25 11.975C21.3 12 21.3 12 21.3 12L21.25 11.975Z" fill="#ECECEC"/>
<path d="M21 11.975C21.05 12 21.05 12 21.05 12L21 11.975Z" fill="#FAFAFA"/>
<path d="M20.8 11.975C20.85 12 20.85 12 20.85 12L20.8 11.975Z" fill="#F3F3F3"/>
<path d="M20.325 11.975C20.375 12 20.375 12 20.375 12L20.325 11.975Z" fill="#FAFAFA"/>
<path d="M19.75 11.975C19.8 12 19.8 12 19.8 12L19.75 11.975Z" fill="#F3F3F3"/>
<path d="M19.65 11.975C19.7 12 19.7 12 19.7 12L19.65 11.975Z" fill="#F3F3F3"/>
<path d="M18.825 11.975C18.875 12 18.875 12 18.875 12L18.825 11.975Z" fill="#ECECEC"/>
<path d="M12.4 11.975C12.45 12 12.45 12 12.45 12L12.4 11.975Z" fill="#ECECEC"/>
<path d="M10.9 11.975C10.95 12 10.95 12 10.95 12L10.9 11.975Z" fill="#ECECEC"/>
<path d="M10.775 11.975C10.825 12 10.825 12 10.825 12L10.775 11.975Z" fill="#FAFAFA"/>
<path d="M10.7 11.975C10.75 12 10.75 12 10.75 12L10.7 11.975Z" fill="#F3F3F3"/>
<path d="M9.575 11.975C9.625 12 9.625 12 9.625 12L9.575 11.975Z" fill="#ECECEC"/>
<path d="M9.14999 11.975C9.19999 12 9.19999 12 9.19999 12L9.14999 11.975Z" fill="#ECECEC"/>
<path d="M21.375 10.875C21.425 10.9 21.425 10.9 21.425 10.9L21.375 10.875Z" fill="#010101"/>
<path d="M10.15 10.875C10.2 10.9 10.2 10.9 10.2 10.9L10.15 10.875Z" fill="black"/>
<path d="M9.89999 10.875C9.94999 10.9 9.94999 10.9 9.94999 10.9L9.89999 10.875Z" fill="black"/>
<path d="M6.72501 10.55C6.77501 10.575 6.77501 10.575 6.77501 10.575L6.72501 10.55Z" fill="#FAFAFA"/>
<path d="M16.375 4.29999C16.425 4.32499 16.425 4.32499 16.425 4.32499L16.375 4.29999Z" fill="#030303"/>
<path d="M16.325 4.27499C16.375 4.29999 16.375 4.29999 16.375 4.29999L16.325 4.27499Z" fill="#030303"/>
<path d="M15.725 4.27499C15.775 4.29999 15.775 4.29999 15.775 4.29999L15.725 4.27499Z" fill="black"/>
</svg>
