<svg width="131" height="33" viewBox="0 0 131 33" fill="none" xmlns="http://www.w3.org/2000/svg">
<path d="M117.769 0.00978415C117.802 0.00946566 117.836 0.00914717 117.87 0.00881903C117.98 0.00791967 118.09 0.00773308 118.2 0.00763107C118.276 0.00732626 118.353 0.00700723 118.43 0.00667463C118.59 0.00610709 118.751 0.00593113 118.912 0.00598733C119.117 0.00599696 119.322 0.00470259 119.528 0.00306925C119.686 0.00201301 119.845 0.0018226 120.003 0.00187271C120.079 0.00176105 120.154 0.001343 120.23 0.000608425C120.336 -0.000324541 120.442 -4.66809e-05 120.548 0.000523596C120.639 0.000320899 120.639 0.000320899 120.731 0.000114106C120.986 0.0365418 121.124 0.142152 121.281 0.343081C121.38 0.515652 121.393 0.610145 121.393 0.806894C121.394 0.868619 121.395 0.930343 121.395 0.993938C121.395 1.06211 121.394 1.13027 121.394 1.19844C121.394 1.27111 121.394 1.34378 121.395 1.41645C121.396 1.616 121.395 1.81554 121.395 2.0151C121.395 2.23036 121.395 2.44561 121.396 2.66087C121.397 3.08247 121.397 3.50407 121.397 3.92568C121.396 4.26823 121.396 4.61079 121.397 4.95334C121.397 5.00207 121.397 5.0508 121.397 5.101C121.397 5.19998 121.397 5.29896 121.397 5.39795C121.398 6.32631 121.397 7.25467 121.397 8.18304C121.396 9.03296 121.397 9.88287 121.398 10.7328C121.399 11.6051 121.4 12.4773 121.4 13.3496C121.399 13.4482 121.399 13.5468 121.399 13.6454C121.399 13.7181 121.399 13.7181 121.399 13.7924C121.399 14.1347 121.4 14.477 121.4 14.8192C121.401 15.2362 121.401 15.6531 121.4 16.07C121.4 16.2828 121.399 16.4956 121.4 16.7085C121.401 16.9031 121.401 17.0978 121.4 17.2924C121.399 17.363 121.4 17.4336 121.4 17.5041C121.401 17.5998 121.4 17.6954 121.399 17.7911C121.399 17.8443 121.399 17.8975 121.399 17.9523C121.369 18.0883 121.369 18.0883 121.259 18.1974C121.106 18.2947 120.953 18.3545 120.78 18.4054C120.729 18.4206 120.729 18.4206 120.676 18.4362C120.222 18.5589 119.752 18.5591 119.283 18.5625C119.371 18.8076 119.468 19.0307 119.594 19.2588C119.755 19.5513 119.9 19.849 120.042 20.1508C120.19 20.4659 120.343 20.775 120.511 21.0803C120.684 21.4011 120.838 21.7312 120.993 22.0613C121.203 22.5488 121.203 22.5488 121.512 22.972C121.724 22.9979 121.885 22.9442 122.084 22.874C122.61 22.7066 123.139 22.598 123.693 22.6401C123.725 22.6424 123.757 22.6447 123.791 22.6471C124.241 22.682 124.666 22.7528 125.099 22.8818C125.262 22.9259 125.422 22.9513 125.589 22.972C126.097 21.9986 126.097 21.9986 126.59 21.0183C126.664 20.8692 126.739 20.7204 126.813 20.5716C126.844 20.5093 126.876 20.4469 126.907 20.3846C127.076 20.0464 127.245 19.7082 127.414 19.37C127.434 19.3296 127.454 19.2892 127.475 19.2476C127.513 19.1722 127.551 19.0972 127.591 19.0227C127.68 18.8533 127.723 18.7578 127.723 18.5625C127.697 18.5618 127.67 18.5611 127.643 18.5604C126.676 18.5319 126.676 18.5319 126.301 18.3728C126.261 18.3564 126.222 18.3399 126.181 18.323C126.045 18.2641 125.911 18.202 125.779 18.1357C125.774 15.9012 125.769 13.6668 125.767 11.4323C125.767 11.1685 125.766 10.9048 125.766 10.641C125.766 10.5623 125.766 10.5623 125.766 10.4819C125.765 9.63151 125.763 8.7811 125.761 7.93068C125.758 7.0582 125.757 6.18573 125.757 5.31326C125.756 4.7748 125.755 4.23636 125.753 3.69791C125.752 3.32877 125.752 2.95965 125.752 2.59051C125.752 2.37747 125.752 2.16445 125.751 1.95141C125.75 1.75631 125.75 1.56125 125.75 1.36615C125.75 1.29563 125.75 1.22511 125.749 1.15459C125.742 0.451869 125.742 0.451869 126.016 0.165801C126.223 0.0235016 126.39 0.00563326 126.638 0.00515388C126.687 0.00477999 126.687 0.00477999 126.737 0.00439856C126.843 0.00377629 126.95 0.00418565 127.056 0.0046677C127.131 0.00457179 127.205 0.00443367 127.28 0.00425531C127.436 0.00404608 127.591 0.00434895 127.747 0.00501497C127.947 0.00582601 128.146 0.00535804 128.345 0.00450681C128.499 0.00399218 128.653 0.00415669 128.807 0.00452499C128.88 0.00461967 128.954 0.00450417 129.027 0.00417229C129.13 0.00380991 129.233 0.00436326 129.336 0.00515388C129.423 0.00532363 129.423 0.00532363 129.513 0.00549681C129.721 0.0299186 129.828 0.0770089 129.966 0.238287C130.213 0.610106 130.174 1.02616 130.17 1.45435C130.17 1.5428 130.171 1.63125 130.171 1.7197C130.172 1.96225 130.171 2.20478 130.17 2.44733C130.169 2.70914 130.17 2.97095 130.17 3.23276C130.171 3.74561 130.17 4.25845 130.169 4.7713C130.167 5.36911 130.167 5.96692 130.167 6.56473C130.167 7.66437 130.166 8.76402 130.164 9.86366C130.162 10.8658 130.161 11.8678 130.161 12.8699C130.161 12.9177 130.161 12.9177 130.161 12.9664C130.161 13.0627 130.161 13.1589 130.161 13.2552C130.161 13.3831 130.161 13.511 130.161 13.6389C130.161 13.6705 130.161 13.7021 130.161 13.7346C130.161 14.7536 130.16 15.7726 130.159 16.7917C130.159 17.1487 130.159 17.5057 130.158 17.8628C130.158 18.4297 130.158 18.9966 130.156 19.5635C130.156 19.8223 130.156 20.0812 130.156 20.34C130.156 20.5776 130.155 20.8152 130.154 21.0528C130.154 21.1381 130.154 21.2234 130.154 21.3087C130.155 21.7582 130.14 22.2027 130.098 22.6505C130.095 22.6911 130.091 22.7317 130.087 22.7736C129.99 23.7309 129.628 24.605 128.956 25.2952C128.925 25.329 128.894 25.3627 128.862 25.3975C128.181 26.1237 127.018 26.499 126.037 26.5321C125.899 26.5335 125.761 26.5334 125.623 26.5326C125.548 26.5325 125.548 26.5325 125.472 26.5324C125.314 26.5322 125.155 26.5316 124.997 26.531C124.889 26.5307 124.781 26.5305 124.673 26.5303C124.409 26.5298 124.146 26.529 123.882 26.528C123.916 26.2969 123.982 26.1145 124.09 25.9087C124.106 25.8766 124.122 25.8446 124.139 25.8115C124.239 25.6149 124.344 25.4207 124.45 25.2273C124.474 25.1835 124.498 25.1397 124.522 25.0946C124.569 25.0087 124.616 24.9232 124.664 24.8381C124.805 24.5794 124.858 24.4045 124.831 24.1099C124.78 24.104 124.729 24.0982 124.677 24.0921C124.511 24.0721 124.349 24.0431 124.185 24.0121C123.585 23.9128 123.047 23.9867 122.46 24.1099C122.365 24.1262 122.27 24.1422 122.176 24.1573C122.151 24.4161 122.234 24.5822 122.359 24.8004C122.6 25.2356 122.813 25.6821 123.024 26.1326C123.087 26.2653 123.153 26.3967 123.219 26.528C122.905 26.5304 122.591 26.5321 122.278 26.5332C122.171 26.5337 122.065 26.5343 121.958 26.5352C121.804 26.5363 121.65 26.5369 121.496 26.5373C121.449 26.5378 121.402 26.5383 121.354 26.5388C120.234 26.5389 119.082 26.1879 118.24 25.4375C118.203 25.4067 118.165 25.376 118.127 25.3443C117.345 24.6894 116.997 23.5827 116.899 22.5956C116.862 22.1231 116.858 21.6532 116.859 21.1796C116.858 21.0908 116.858 21.002 116.858 20.9133C116.858 20.671 116.858 20.4287 116.858 20.1864C116.857 19.9244 116.857 19.6625 116.857 19.4006C116.856 18.8289 116.856 18.2573 116.856 17.6856C116.856 17.3286 116.855 16.9716 116.855 16.6146C116.855 15.6259 116.854 14.6372 116.854 13.6485C116.854 13.5847 116.854 13.5209 116.854 13.4571C116.854 13.3931 116.854 13.3291 116.854 13.2652C116.854 13.1369 116.854 13.0086 116.854 12.8803C116.854 12.8485 116.854 12.8166 116.854 12.7839C116.854 11.7508 116.853 10.7178 116.852 9.6848C116.851 8.59166 116.85 7.49853 116.85 6.4054C116.85 5.80983 116.85 5.21426 116.849 4.61869C116.848 4.11206 116.848 3.60543 116.848 3.09879C116.848 2.84025 116.848 2.58171 116.848 2.32316C116.847 2.08664 116.847 1.85012 116.848 1.61359C116.848 1.5279 116.848 1.44221 116.847 1.35653C116.847 1.24027 116.847 1.12405 116.848 1.00779C116.847 0.974345 116.847 0.940899 116.846 0.90644C116.849 0.619775 116.935 0.437381 117.123 0.225069C117.339 0.0354951 117.481 0.0115139 117.769 0.00978415Z" fill="white"/>
<path d="M116.213 29.5032C116.258 29.5032 116.304 29.5032 116.35 29.5032C116.428 29.5029 116.428 29.5029 116.507 29.5026C116.593 29.5029 116.593 29.5029 116.681 29.5033C116.742 29.5032 116.802 29.5031 116.865 29.503C117.034 29.5027 117.203 29.5029 117.372 29.5033C117.553 29.5036 117.735 29.5034 117.917 29.5032C118.274 29.503 118.631 29.5033 118.987 29.5037C119.402 29.5042 119.817 29.5042 120.232 29.5042C120.972 29.5041 121.712 29.5046 122.452 29.5053C123.171 29.5059 123.889 29.5063 124.608 29.5062C124.653 29.5062 124.697 29.5062 124.742 29.5062C124.787 29.5062 124.831 29.5062 124.876 29.5062C125.694 29.5062 126.511 29.5065 127.328 29.5069C127.618 29.507 127.907 29.5071 128.197 29.5071C128.549 29.5071 128.902 29.5074 129.254 29.5078C129.434 29.508 129.614 29.5082 129.795 29.5081C129.989 29.508 130.184 29.5083 130.379 29.5087C130.465 29.5086 130.465 29.5086 130.553 29.5085C130.631 29.5087 130.631 29.5087 130.71 29.5089C130.777 29.509 130.777 29.509 130.846 29.509C130.947 29.515 130.947 29.515 130.995 29.5624C130.999 29.6555 131 29.7488 131 29.842C131 29.9018 131 29.9616 131 30.0232C131 30.089 130.999 30.1547 130.999 30.2205C130.999 30.2874 130.999 30.3543 130.999 30.4212C130.999 30.5976 130.998 30.774 130.998 30.9504C130.997 31.1303 130.997 31.3101 130.997 31.49C130.996 31.8432 130.996 32.1964 130.995 32.5495C129.093 32.5506 127.191 32.5514 125.289 32.5519C125.065 32.552 124.84 32.5521 124.616 32.5521C124.571 32.5521 124.527 32.5522 124.481 32.5522C123.757 32.5524 123.033 32.5527 122.309 32.5532C121.566 32.5536 120.824 32.5539 120.082 32.554C119.623 32.5541 119.165 32.5543 118.706 32.5546C118.393 32.5549 118.079 32.555 117.765 32.5549C117.583 32.5549 117.402 32.5549 117.22 32.5552C117.024 32.5554 116.828 32.5554 116.632 32.5552C116.545 32.5554 116.545 32.5554 116.456 32.5556C116.404 32.5556 116.352 32.5555 116.298 32.5554C116.253 32.5554 116.208 32.5554 116.161 32.5554C116.059 32.5495 116.059 32.5495 116.012 32.5021C116.007 32.4124 116.005 32.3226 116.005 32.2327C116.005 32.1751 116.004 32.1175 116.004 32.0582C116.004 31.9948 116.004 31.9315 116.004 31.8681C116.004 31.8036 116.003 31.739 116.003 31.6745C116.003 31.539 116.003 31.4035 116.003 31.268C116.003 31.0942 116.002 30.9203 116.002 30.7465C116.001 30.6131 116.001 30.4798 116.001 30.3464C116.001 30.2823 116.001 30.2182 116 30.1541C116 30.0645 116 29.9749 116 29.8854C116 29.8343 116 29.7833 116 29.7307C116.015 29.5722 116.053 29.521 116.213 29.5032Z" fill="white"/>
<path d="M11.6268 5.06505V7.97174C11.6268 8.26241 11.4524 8.43681 11.1617 8.43681H3.95311V14.2793H9.41769C9.70836 14.2793 9.88276 14.4537 9.88276 14.7443V17.651C9.88276 17.9708 9.70836 18.1161 9.41769 18.1161H3.95311V27.3885C3.95311 27.6791 3.7787 27.8535 3.48803 27.8535H0.465071C0.145335 27.8535 0 27.6791 0 27.3885V5.06505C0 4.77438 0.145335 4.59998 0.465071 4.59998H11.1617C11.4524 4.59998 11.6268 4.77438 11.6268 5.06505ZM25.3309 8.78562V15.878C25.3309 17.8254 24.6043 19.1044 23.2091 19.7148L25.2147 27.3303C25.3019 27.6791 25.1275 27.8535 24.8077 27.8535H21.7848C21.4941 27.8535 21.3488 27.7082 21.2906 27.4466L19.3431 20.0636H17.3375V27.3885C17.3375 27.6791 17.1631 27.8535 16.8725 27.8535H13.8495C13.5588 27.8535 13.3844 27.6791 13.3844 27.3885V5.06505C13.3844 4.77438 13.5588 4.59998 13.8495 4.59998H21.1453C23.8776 4.59998 25.3309 6.05332 25.3309 8.78562ZM17.3375 16.2268H20.2152C20.9709 16.2268 21.3778 15.8198 21.3778 15.0641V9.59949C21.3778 8.84375 20.9709 8.43681 20.2152 8.43681H17.3375V16.2268ZM40.7791 27.8535H37.698C37.4364 27.8535 37.2911 27.7082 37.2329 27.4466L36.4191 23.2028H31.2452L30.4603 27.4466C30.4022 27.7082 30.2569 27.8535 29.9953 27.8535H26.8851C26.5654 27.8535 26.42 27.6791 26.5072 27.3594L31.3324 5.00691C31.3905 4.71624 31.5649 4.59998 31.8265 4.59998H35.8668C36.1284 4.59998 36.3028 4.71624 36.3609 5.00691L41.1861 27.3594C41.2442 27.6791 41.1279 27.8535 40.7791 27.8535ZM35.6924 19.8311L33.8321 9.68669L31.9718 19.8311H35.6924ZM40.7751 4.59998H51.4717C51.7914 4.59998 51.9368 4.77438 51.9368 5.06505V7.97174C51.9368 8.26241 51.7914 8.43681 51.4717 8.43681H48.0999V27.3885C48.0999 27.7082 47.9546 27.8535 47.6349 27.8535H44.6119C44.3212 27.8535 44.1468 27.7082 44.1468 27.3885V8.43681H40.7751C40.4844 8.43681 40.31 8.26241 40.31 7.97174V5.06505C40.31 4.77438 40.4844 4.59998 40.7751 4.59998ZM64.9937 5.06505V7.97174C64.9937 8.26241 64.8774 8.46588 64.5286 8.46588H57.2617V14.2793H62.8137C63.1044 14.2793 63.2788 14.4537 63.2788 14.7734V17.651C63.2788 17.9708 63.1044 18.1452 62.8137 18.1452H57.2617V24.0167H64.5286C64.8774 24.0167 64.9937 24.162 64.9937 24.4818V27.3885C64.9937 27.6791 64.8774 27.8535 64.5286 27.8535H53.8318C53.5701 27.8535 53.3957 27.6791 53.3957 27.3885V5.06505C53.3957 4.77438 53.5701 4.59998 53.8318 4.59998H64.5286C64.8774 4.59998 64.9937 4.77438 64.9937 5.06505ZM78.9822 8.78562V15.878C78.9822 17.8254 78.2555 19.1044 76.8603 19.7148L78.8659 27.3303C78.9531 27.6791 78.7787 27.8535 78.459 27.8535H75.436C75.1453 27.8535 75 27.7082 74.9419 27.4466L72.9944 20.0636H70.9888V27.3885C70.9888 27.6791 70.8144 27.8535 70.5237 27.8535H67.5007C67.2101 27.8535 67.0357 27.6791 67.0357 27.3885V5.06505C67.0357 4.77438 67.2101 4.59998 67.5007 4.59998H74.7965C77.5288 4.59998 78.9822 6.05332 78.9822 8.78562ZM70.9888 16.2268H73.8664C74.6221 16.2268 75.0291 15.8198 75.0291 15.0641V9.59949C75.0291 8.84375 74.6221 8.43681 73.8664 8.43681H70.9888V16.2268ZM90.2238 4.59998H93.2468C93.5375 4.59998 93.7119 4.77438 93.7119 5.06505V27.3885C93.7119 27.6791 93.5375 27.8535 93.2468 27.8535H90.3692C90.1076 27.8535 89.9332 27.7373 89.846 27.4757L85.3987 15.0641H85.2534V27.3885C85.2534 27.6791 85.108 27.8535 84.7883 27.8535H81.7653C81.4747 27.8535 81.3003 27.6791 81.3003 27.3885V5.06505C81.3003 4.77438 81.4747 4.59998 81.7653 4.59998H84.643C84.9046 4.59998 85.079 4.71624 85.1662 4.97785L89.5843 17.3313H89.7587V5.06505C89.7587 4.77438 89.9041 4.59998 90.2238 4.59998ZM96.512 4.59998H99.5349C99.8256 4.59998 100 4.77438 100 5.06505V27.3885C100 27.6791 99.8256 27.8535 99.5349 27.8535H96.512C96.1922 27.8535 96.0469 27.6791 96.0469 27.3885V5.06505C96.0469 4.77438 96.1922 4.59998 96.512 4.59998Z" fill="white"/>
</svg>
