<svg width="1200" height="2585" viewBox="0 0 1200 2585" fill="none" xmlns="http://www.w3.org/2000/svg">
<path fill-rule="evenodd" clip-rule="evenodd" d="M88.0452 14.2795C79.8194 24.1892 77.6323 264.76 79.5968 940.892L82.2581 1854.13L109.423 1912.2C171.658 2045.26 276.494 2100.56 466.935 2100.79C518.835 2100.86 561.29 2098.8 561.29 2096.21C561.29 2093.63 542.787 2054.11 520.161 2008.39C481.703 1930.66 480.145 1924.46 496.142 1912.7C534.407 1884.59 680.197 1886.91 709.374 1916.09C717.484 1924.2 709.79 1948.2 679.5 2009.26C657.068 2054.5 638.71 2094.08 638.71 2097.23C638.71 2100.37 689.874 2101.07 752.419 2098.78C841.248 2095.52 878.71 2089.7 923.623 2072.18C999.058 2042.74 1063.85 1978.22 1094.58 1901.95L1117.74 1844.45L1120.4 936.054C1122.37 263.502 1120.18 24.1892 1111.95 14.2795C1097.11 -3.61407 813.194 -5.19156 795.484 12.5181C786.668 21.3343 783.871 193.651 783.871 728.889V1433.65L810.484 1444C825.116 1449.7 862.132 1456.73 892.742 1459.62C923.352 1462.51 948.387 1466.5 948.387 1468.48C948.387 1472.4 773.7 1823.24 769.365 1828.03C767.903 1829.65 730.703 1823.68 686.69 1814.75C618.59 1800.96 597.165 1800.31 542.855 1810.39C423.658 1832.5 441.697 1846.83 342.087 1650.91C293.381 1555.1 255.532 1473.45 257.981 1469.45C260.429 1465.46 276.629 1462.2 293.981 1462.2C311.323 1462.2 348.087 1455.5 375.658 1447.3L425.806 1432.42V728.27C425.806 193.515 423.01 21.3343 414.194 12.5181C396.455 -5.22059 102.91 -3.63342 88.0452 14.2795ZM0 2463.81V2584.78H600H1200V2463.81V2342.84H600H0V2463.81Z" fill="#C49102"/>
<path fill-rule="evenodd" clip-rule="evenodd" d="M88.0453 14.2795C79.8195 24.1892 77.6324 264.76 79.5969 940.892L82.2581 1854.13L109.423 1912.2C171.658 2045.26 276.494 2100.56 466.936 2100.79C518.836 2100.86 561.29 2098.8 561.29 2096.21C561.29 2093.63 542.787 2054.1 520.161 2008.39C481.703 1930.66 480.145 1924.46 496.142 1912.7C534.407 1884.59 680.197 1886.91 709.374 1916.09C717.484 1924.2 709.79 1948.2 679.5 2009.26C657.068 2054.5 638.71 2094.08 638.71 2097.23C638.71 2100.37 689.874 2101.07 752.419 2098.78C841.248 2095.52 878.71 2089.7 923.623 2072.18C999.058 2042.74 1063.85 1978.22 1094.58 1901.95L1117.74 1844.45L1120.4 936.054C1122.37 263.502 1120.18 24.1892 1111.95 14.2795C1097.11 -3.61407 813.194 -5.19156 795.484 12.5181C786.668 21.3342 783.871 193.65 783.871 728.889V1433.65L810.484 1444C825.116 1449.7 862.132 1456.73 892.742 1459.62C923.352 1462.51 948.387 1466.5 948.387 1468.48C948.387 1472.4 773.7 1823.24 769.365 1828.03C767.903 1829.65 730.703 1823.68 686.69 1814.75C618.59 1800.96 597.165 1800.31 542.855 1810.39C423.658 1832.5 441.697 1846.83 342.087 1650.9C293.381 1555.1 255.532 1473.45 257.981 1469.45C260.429 1465.46 276.629 1462.2 293.981 1462.2C311.323 1462.2 348.087 1455.5 375.658 1447.3L425.806 1432.42V728.27C425.806 193.515 423.01 21.3342 414.194 12.5181C396.455 -5.22059 102.91 -3.63342 88.0453 14.2795ZM297.581 2350.09C463.906 2351.58 736.084 2351.58 902.419 2350.09C1068.75 2348.61 932.661 2347.39 600 2347.39C267.339 2347.39 131.255 2348.61 297.581 2350.09Z" fill="#94700C"/>
<path fill-rule="evenodd" clip-rule="evenodd" d="M88.0453 14.2795C79.8195 24.1892 77.6324 264.76 79.5969 940.892L82.2581 1854.13L109.423 1912.2C171.658 2045.26 276.494 2100.56 466.936 2100.79C518.836 2100.86 561.29 2098.8 561.29 2096.21C561.29 2093.63 542.787 2054.11 520.161 2008.39C481.703 1930.66 480.145 1924.46 496.142 1912.7C534.407 1884.59 680.197 1886.91 709.374 1916.09C717.484 1924.2 709.79 1948.2 679.5 2009.26C657.068 2054.5 638.71 2094.08 638.71 2097.23C638.71 2100.37 689.874 2101.07 752.419 2098.78C841.248 2095.52 878.71 2089.7 923.623 2072.18C999.058 2042.74 1063.85 1978.22 1094.58 1901.95L1117.74 1844.45L1120.4 936.054C1122.37 263.502 1120.18 24.1892 1111.95 14.2795C1097.11 -3.61407 813.194 -5.19156 795.484 12.5181C786.668 21.3343 783.871 193.651 783.871 728.889V1433.65L810.484 1444C825.116 1449.7 862.132 1456.73 892.742 1459.62C923.352 1462.51 948.387 1466.5 948.387 1468.48C948.387 1472.4 773.7 1823.24 769.365 1828.03C767.903 1829.65 730.703 1823.68 686.69 1814.75C618.59 1800.96 597.165 1800.31 542.855 1810.39C423.658 1832.5 441.697 1846.83 342.087 1650.91C293.381 1555.1 255.532 1473.45 257.981 1469.45C260.429 1465.46 276.629 1462.2 293.981 1462.2C311.323 1462.2 348.087 1455.5 375.658 1447.3L425.806 1432.42V728.27C425.806 193.515 423.01 21.3343 414.194 12.5181C396.455 -5.22059 102.91 -3.63342 88.0453 14.2795Z" fill="#152517"/>
</svg>
