<svg width="68" height="147" viewBox="0 0 68 147" fill="none" xmlns="http://www.w3.org/2000/svg">
<path fill-rule="evenodd" clip-rule="evenodd" d="M4.98923 0.80917C4.5231 1.37072 4.39916 15.0031 4.51049 53.3172L4.66129 105.067L6.20062 108.358C9.72729 115.898 15.668 119.032 26.4597 119.045C29.4007 119.049 31.8065 118.932 31.8065 118.785C31.8065 118.639 30.7579 116.399 29.4758 113.809C27.2965 109.404 27.2082 109.053 28.1147 108.386C30.283 106.793 38.5445 106.925 40.1979 108.578C40.6574 109.038 40.2215 110.398 38.505 113.858C37.2338 116.422 36.1936 118.665 36.1936 118.843C36.1936 119.021 39.0929 119.061 42.6371 118.931C47.6707 118.746 49.7936 118.416 52.3386 117.424C56.6133 115.755 60.2847 112.099 62.0264 107.777L63.3387 104.519L63.4895 53.043C63.6008 14.9318 63.4769 1.37072 63.0108 0.80917C62.1696 -0.204797 46.081 -0.294188 45.0774 0.70936C44.5778 1.20894 44.4194 10.9735 44.4194 41.3037V81.24L45.9274 81.8268C46.7566 82.1498 48.8542 82.5479 50.5887 82.7119C52.3233 82.8758 53.7419 83.1018 53.7419 83.2136C53.7419 83.4357 43.843 103.317 43.5973 103.588C43.5145 103.68 41.4065 103.342 38.9124 102.836C35.0534 102.055 33.8393 102.017 30.7618 102.589C24.0073 103.842 25.0295 104.654 19.3849 93.5513C16.6249 88.1223 14.4802 83.4955 14.6189 83.269C14.7576 83.0425 15.6756 82.8577 16.6589 82.8577C17.6416 82.8577 19.7249 82.4783 21.2873 82.0138L24.129 81.1704V41.2686C24.129 10.9658 23.9706 1.20894 23.471 0.70936C22.4658 -0.295833 5.83155 -0.205894 4.98923 0.80917ZM0 139.616V146.471H34H68V139.616V132.761H34H0V139.616Z" fill="white"/>
<path fill-rule="evenodd" clip-rule="evenodd" d="M4.98929 0.80917C4.52316 1.37072 4.39922 15.0031 4.51055 53.3172L4.66135 105.067L6.20068 108.358C9.72735 115.898 15.668 119.032 26.4597 119.045C29.4007 119.049 31.8065 118.932 31.8065 118.785C31.8065 118.639 30.758 116.399 29.4759 113.809C27.2966 109.404 27.2083 109.053 28.1148 108.386C30.2831 106.793 38.5445 106.925 40.1979 108.578C40.6575 109.038 40.2215 110.398 38.5051 113.858C37.2339 116.422 36.1936 118.665 36.1936 118.843C36.1936 119.021 39.0929 119.061 42.6372 118.931C47.6708 118.746 49.7936 118.416 52.3387 117.424C56.6134 115.755 60.2848 112.099 62.0265 107.777L63.3388 104.519L63.4896 53.043C63.6009 14.9318 63.477 1.37072 63.0108 0.80917C62.1696 -0.204797 46.081 -0.294188 45.0775 0.70936C44.5779 1.20894 44.4194 10.9735 44.4194 41.3037V81.24L45.9275 81.8268C46.7566 82.1498 48.8542 82.5479 50.5888 82.7119C52.3233 82.8758 53.742 83.1018 53.742 83.2136C53.742 83.4357 43.8431 103.317 43.5974 103.588C43.5146 103.68 41.4066 103.342 38.9125 102.836C35.0535 102.055 33.8394 102.017 30.7618 102.589C24.0073 103.842 25.0295 104.654 19.385 93.5513C16.625 88.1223 14.4802 83.4955 14.619 83.269C14.7577 83.0425 15.6757 82.8577 16.659 82.8577C17.6417 82.8577 19.725 82.4783 21.2873 82.0138L24.1291 81.1704V41.2686C24.1291 10.9658 23.9706 1.20894 23.471 0.70936C22.4658 -0.295833 5.83161 -0.205894 4.98929 0.80917ZM16.863 133.172C26.2881 133.256 41.7115 133.256 51.1372 133.172C60.5628 133.088 52.8509 133.019 34.0001 133.019C15.1493 133.019 7.43783 133.088 16.863 133.172Z" fill="#94700C"/>
<path fill-rule="evenodd" clip-rule="evenodd" d="M4.98929 0.80917C4.52316 1.37072 4.39922 15.0031 4.51055 53.3172L4.66135 105.067L6.20068 108.358C9.72735 115.898 15.668 119.032 26.4597 119.045C29.4007 119.049 31.8065 118.932 31.8065 118.785C31.8065 118.639 30.758 116.399 29.4759 113.809C27.2966 109.404 27.2083 109.053 28.1148 108.386C30.2831 106.793 38.5445 106.925 40.1979 108.578C40.6575 109.038 40.2215 110.398 38.5051 113.858C37.2339 116.422 36.1936 118.665 36.1936 118.843C36.1936 119.021 39.0929 119.061 42.6372 118.931C47.6708 118.746 49.7936 118.416 52.3387 117.424C56.6134 115.756 60.2848 112.099 62.0265 107.777L63.3388 104.519L63.4896 53.043C63.6009 14.9318 63.477 1.37072 63.0108 0.80917C62.1696 -0.204797 46.081 -0.294188 45.0775 0.70936C44.5779 1.20894 44.4194 10.9735 44.4194 41.3037V81.24L45.9275 81.8268C46.7566 82.1498 48.8542 82.5479 50.5888 82.7119C52.3233 82.8758 53.742 83.1018 53.742 83.2136C53.742 83.4357 43.8431 103.317 43.5974 103.588C43.5146 103.68 41.4066 103.342 38.9125 102.836C35.0535 102.055 33.8394 102.017 30.7618 102.589C24.0073 103.842 25.0295 104.654 19.385 93.5513C16.625 88.1223 14.4802 83.4955 14.619 83.269C14.7577 83.0426 15.6757 82.8577 16.659 82.8577C17.6417 82.8577 19.725 82.4783 21.2873 82.0138L24.1291 81.1704V41.2686C24.1291 10.9658 23.9706 1.20894 23.471 0.70936C22.4658 -0.295833 5.83161 -0.205894 4.98929 0.80917Z" fill="white"/>
</svg>
