<svg xmlns="http://www.w3.org/2000/svg" width="1000" height="1000" viewBox="0 0 1000 1000" version="1.1"><path d="M 516.500 13.133 C 463.521 19.557, 457.873 20.555, 443.090 26.108 C 429.544 31.196, 398.095 47.697, 387.157 55.455 C 376.093 63.302, 364.391 74.966, 354.833 87.672 C 339.209 108.444, 335.289 117.535, 329.451 146.536 C 323.758 174.815, 323.012 181.603, 323.006 205.188 C 322.997 238.489, 326.711 263.906, 337.007 301 C 345.537 331.730, 360.116 363.878, 373.281 380.987 C 376.461 385.119, 382.714 393.563, 387.176 399.752 C 393.203 408.109, 399.251 414.733, 410.689 425.503 C 423.871 437.915, 427.331 440.615, 434.721 444.251 C 446.863 450.227, 447.512 451.327, 447.451 465.829 C 447.407 476.605, 447.155 478.113, 444.172 485.500 C 440.302 495.084, 436.468 501.375, 428.667 510.945 C 420.001 521.577, 413.550 526.117, 392.500 536.404 C 345.282 559.477, 320.184 575.956, 308.479 591.570 C 302.380 599.707, 299.527 608.420, 296.060 629.500 C 290.838 661.241, 290.539 666.212, 291.993 696.923 C 292.711 712.090, 293.035 732.150, 292.713 741.500 C 292.391 750.850, 291.603 772.900, 290.962 790.500 C 290.320 808.100, 289.998 826.887, 290.246 832.250 C 290.648 840.959, 291.081 842.774, 294.302 849.250 C 298.145 856.976, 307.845 868.505, 313.382 871.927 C 315.227 873.067, 318.258 873.989, 320.118 873.976 C 325.586 873.938, 343.089 868.873, 346 866.487 C 346.825 865.810, 349.975 864.462, 353 863.491 C 356.025 862.520, 363.828 859.755, 370.340 857.347 C 376.852 854.939, 384.277 852.484, 386.840 851.893 C 391.653 850.782, 413.486 848.059, 420.442 847.702 C 424.171 847.511, 424.589 847.149, 428.182 841 C 430.272 837.425, 433.833 829.775, 436.097 824 C 442.768 806.980, 448.699 793.522, 457.030 776.500 C 468.952 752.143, 476.057 736.359, 484.488 715.500 C 488.712 705.050, 496.591 687.500, 501.996 676.500 C 512.897 654.318, 516.446 646.731, 525.067 627.176 C 532.432 610.469, 541.254 594.390, 553.949 574.530 C 569.994 549.431, 574.964 543.672, 584.043 539.659 C 596.104 534.327, 606.679 527.174, 613.445 519.770 C 625.191 506.915, 627.623 502.456, 626.953 495 C 626.879 494.175, 627.339 490.875, 627.975 487.668 C 630.613 474.368, 625.203 455.030, 616.695 447.343 L 612.714 443.746 603.107 444.252 C 591.093 444.885, 587.002 446.318, 573.394 454.660 C 557.118 464.637, 556.283 465, 549.635 465 C 544.653 465, 542.634 464.408, 537.150 461.341 C 527.868 456.151, 523.446 456.183, 518.019 461.481 C 512.795 466.582, 511.262 471.332, 513.130 476.622 C 514.065 479.269, 514.500 485.441, 514.500 496.064 L 514.500 511.629 517.450 515.510 C 519.711 518.485, 520.497 520.724, 520.813 525.094 C 521.332 532.264, 518.927 537.025, 505.455 555.500 C 496.601 567.643, 477.371 596.289, 421.754 680.188 C 409.244 699.059, 390.431 726.875, 379.948 742 C 361.254 768.972, 342.748 797.128, 333.941 811.998 C 329.972 818.698, 329.467 819.206, 329.186 816.772 C 327.702 803.908, 350.393 764.889, 370.001 746.586 L 375.266 741.671 375.094 708.586 C 374.999 690.389, 374.497 670.539, 373.977 664.476 C 372.695 649.531, 374.465 639.505, 379.445 633.500 L 381.104 631.500 380.588 633.500 C 378.561 641.373, 378.035 646.528, 377.922 659.620 C 377.729 682.180, 381.170 715.091, 384.092 718.610 C 385.681 720.525, 388.373 720.350, 390.314 718.205 C 391.208 717.218, 396.159 709.632, 401.316 701.347 C 406.474 693.062, 413.569 682.507, 417.083 677.892 C 420.597 673.276, 427.978 662.195, 433.486 653.268 C 443.822 636.514, 467.630 600.945, 478.513 586 C 481.917 581.325, 485.981 575.250, 487.545 572.500 C 489.108 569.750, 492.935 563.675, 496.048 559 C 509.299 539.099, 512.127 530.862, 512.357 511.500 C 512.469 502.094, 512.097 498.342, 510.635 494.145 C 509.118 489.789, 508.872 486.992, 509.318 479.145 C 509.955 467.958, 511.066 463.587, 515.203 456 C 518.657 449.667, 518.873 449.486, 525.326 447.528 C 529.494 446.262, 531.129 446.250, 537.326 447.441 C 541.272 448.199, 546.879 449.760, 549.787 450.910 C 552.695 452.059, 555.940 453, 556.999 453 C 558.058 453, 561.629 450.587, 564.934 447.638 C 572.394 440.981, 577.313 439.382, 586.789 440.534 C 598.911 442.006, 602.711 441.475, 611.466 437.081 C 619.958 432.820, 639.955 417.069, 645.817 410.025 C 649.812 405.223, 679.586 346.786, 684.974 333.170 C 695.816 305.772, 707.478 265.838, 709.408 249.500 C 709.733 246.750, 710.945 236.850, 712.101 227.500 C 713.637 215.082, 714.224 204.436, 714.276 188 C 714.402 148.752, 710.707 134.567, 692.159 103.102 C 688.398 96.721, 683.423 88.125, 681.105 84 C 676.048 75.002, 661.068 57.616, 652.807 51.158 C 630.732 33.900, 599.640 20.589, 569.464 15.477 C 552.547 12.611, 529.289 11.582, 516.500 13.133 M 526.500 33.758 C 518.647 34.287, 482.372 40.148, 475.388 42.016 C 471.476 43.062, 464.276 45.670, 459.388 47.810 C 454.499 49.950, 447.575 52.641, 444 53.790 C 426.460 59.427, 408.455 68.821, 396.858 78.387 C 389.238 84.672, 386.592 87.799, 373.662 105.798 C 360.955 123.485, 358.213 130.629, 352.519 160.884 C 349.498 176.934, 349.418 181.422, 351.906 195.057 C 352.954 200.801, 354.329 211.350, 354.961 218.500 C 356.892 240.327, 360.744 254.572, 368.582 268.869 C 375.445 281.387, 377.027 282.948, 386.718 286.763 C 404.528 293.775, 408.931 294.947, 429.500 298.157 C 450.330 301.408, 450.791 301.435, 486.500 301.447 C 528.110 301.462, 571.255 299.739, 586.740 297.445 C 614.315 293.360, 657.468 274.170, 672.884 259.137 C 679.030 253.143, 679.865 251.842, 681.504 245.711 C 683.124 239.649, 683.250 236.169, 682.680 213.211 C 682.329 199.070, 681.386 182.325, 680.584 176 C 679.783 169.675, 678.914 162.700, 678.655 160.500 C 678.395 158.300, 676.398 151.550, 674.217 145.500 C 672.036 139.450, 669.688 131.974, 668.998 128.887 C 667.944 124.173, 666.232 121.373, 658.296 111.387 C 653.100 104.849, 643.908 92.638, 637.870 84.250 C 631.831 75.862, 626.545 69, 626.124 69 C 625.702 69, 621.147 66.300, 616 63 C 610.853 59.700, 606.228 57, 605.721 57 C 605.215 57, 600.458 54.563, 595.150 51.584 C 589.649 48.496, 582.061 45.220, 577.500 43.964 C 573.100 42.752, 565.872 40.482, 561.439 38.919 C 551.108 35.277, 536.340 33.095, 526.500 33.758 M 503.290 53.965 C 499.473 56.292, 496.143 62.365, 495.644 67.913 C 495.397 70.648, 494.269 73.069, 492.075 75.568 C 486.792 81.585, 485.708 86.601, 488.517 92.033 C 490.429 95.730, 494.751 98, 499.878 98 L 503.855 98 503.290 103.750 C 502.979 106.912, 502.674 109.571, 502.612 109.658 C 502.550 109.745, 496.875 111.018, 490 112.488 C 462.676 118.330, 413.944 131.295, 391.733 138.630 C 373.685 144.591, 371.809 146.464, 378.657 151.688 C 381.710 154.016, 383.486 154.533, 389.407 154.814 C 393.308 154.999, 399.200 154.713, 402.500 154.178 C 405.800 153.643, 408.624 153.320, 408.775 153.461 C 408.926 153.602, 408.091 155.918, 406.918 158.608 C 402.628 168.450, 391.004 199.273, 388.937 206.287 C 387.768 210.254, 385.470 216.337, 383.829 219.805 C 380.628 226.569, 380.677 226.904, 385.500 231.292 C 391.760 236.988, 408.250 241.639, 418.715 240.662 C 437.892 238.871, 448.295 230.981, 446.134 219.867 C 445.667 217.465, 442.260 208.300, 438.562 199.500 C 433.305 186.991, 421 153.258, 421 151.358 C 421 151.161, 421.788 150.989, 422.750 150.975 C 424.797 150.945, 439.502 147.244, 463.873 140.623 C 477.556 136.906, 498.427 132, 500.555 132 C 501.558 132, 499.460 165.088, 496.433 197 C 493.046 232.706, 488.240 275.093, 487.494 275.840 C 487.287 276.046, 478.646 276.751, 468.290 277.406 C 457.935 278.061, 448.908 278.939, 448.231 279.357 C 446.284 280.561, 446.791 283.455, 449.373 285.881 C 452.382 288.708, 463.609 290.624, 485.289 292.011 C 503.651 293.185, 521.633 292.132, 537.134 288.973 C 542.751 287.828, 554.468 286.086, 563.173 285.101 C 580.479 283.143, 583.369 281.957, 582.797 277.052 L 582.500 274.500 559.850 274.231 L 537.201 273.963 535.652 265.231 C 533.111 250.909, 532.170 243.178, 528.501 206.500 C 526.575 187.250, 524.096 163.625, 522.992 154 C 521.887 144.375, 520.805 134.810, 520.586 132.745 C 520.248 129.550, 520.510 128.919, 522.345 128.509 C 523.530 128.245, 532.150 126.644, 541.500 124.953 C 550.850 123.261, 566.773 120.090, 576.884 117.906 C 586.995 115.722, 595.443 114.110, 595.657 114.324 C 595.871 114.538, 594.448 118.449, 592.494 123.014 C 587.663 134.301, 579.464 156.259, 575.329 168.983 C 573.456 174.748, 571.040 180.961, 569.962 182.790 C 567.417 187.103, 567.432 187.196, 571.250 191.004 C 586.502 206.214, 624.725 204.743, 632.361 188.651 C 634.634 183.861, 633.631 179.776, 625.202 159.500 C 619.077 144.767, 608 114.172, 608 111.988 C 608 111.578, 610.980 110.495, 614.622 109.580 C 632.492 105.091, 638.150 96.050, 626.354 90.832 C 622.222 89.005, 620.511 88.843, 611.590 89.434 C 596.735 90.419, 560.891 96.810, 521.250 105.542 C 519.315 105.969, 519 105.627, 519 103.101 C 519 101.485, 518.752 99.517, 518.448 98.726 C 518.057 97.706, 519.410 96.737, 523.102 95.394 C 526.050 94.321, 529.176 92.329, 530.312 90.798 C 534.006 85.823, 532.040 74.697, 526.990 71.994 C 525.572 71.236, 525 69.900, 525 67.351 C 525 56.376, 512.240 48.508, 503.290 53.965 M 590.470 99.931 C 587.401 100.667, 573.690 110, 575.677 110 C 576.270 110, 579.904 109.289, 583.753 108.420 C 589.522 107.117, 591.424 106.151, 594.579 102.920 C 598.245 99.164, 598.303 99.004, 595.953 99.102 C 594.604 99.159, 592.136 99.532, 590.470 99.931 M 559.500 105.410 C 554.880 106.555, 540.287 115.621, 541.351 116.684 C 541.602 116.935, 545.648 116.378, 550.342 115.446 C 558.249 113.875, 559.249 113.392, 563.935 108.875 C 569.574 103.440, 569.061 103.039, 559.500 105.410 M 526.889 112.369 C 520.919 113.833, 519.155 115.360, 519.762 118.535 C 520.512 122.457, 523.161 121.165, 533.450 111.859 C 534.656 110.769, 532.835 110.910, 526.889 112.369 M 498.465 119.057 C 498.106 119.638, 495.717 121.470, 493.156 123.128 L 488.500 126.142 492.500 125.493 C 497.833 124.627, 504.961 118, 500.559 118 C 499.766 118, 498.824 118.476, 498.465 119.057 M 599.974 125.500 C 594.532 137.829, 580 177.737, 580 180.352 C 580 181.853, 622.063 179.270, 623.662 177.671 C 623.848 177.486, 621.229 170.621, 617.844 162.417 C 614.458 154.213, 609.549 141.425, 606.934 134 L 602.181 120.500 599.974 125.500 M 468.459 128.088 C 461.891 132.287, 461.095 133.053, 463.903 132.475 C 466.900 131.857, 479.376 123, 477.248 123 C 476.792 123, 472.837 125.290, 468.459 128.088 M 442.500 132.099 C 440.850 132.604, 437.475 134.837, 435 137.062 L 430.500 141.106 434 140.422 C 435.925 140.046, 438.400 138.783, 439.500 137.615 C 440.600 136.447, 442.850 134.495, 444.500 133.278 C 447.712 130.907, 447.262 130.641, 442.500 132.099 M 416.854 139.178 C 414.849 139.712, 412.183 141.241, 410.930 142.575 L 408.651 145 411.261 145 C 415.270 145, 418.480 143.442, 420.348 140.591 C 422.198 137.768, 422.178 137.760, 416.854 139.178 M 412.974 164.500 C 407.532 176.829, 393 216.737, 393 219.352 C 393 220.853, 435.063 218.270, 436.662 216.671 C 436.848 216.486, 434.229 209.621, 430.844 201.417 C 427.458 193.213, 422.549 180.425, 419.934 173 L 415.181 159.500 412.974 164.500 M 601.500 191.578 C 597.587 193.915, 597.561 193.967, 600.303 193.984 C 601.845 193.993, 604.762 192.875, 606.785 191.500 C 610.182 189.192, 610.274 189.007, 607.982 189.094 C 606.617 189.146, 603.700 190.264, 601.500 191.578 M 589 190.883 C 589 192.447, 592.888 192.840, 594.086 191.397 C 595.036 190.252, 594.682 190, 592.122 190 C 590.405 190, 589 190.398, 589 190.883 M 414.500 230.578 C 410.587 232.915, 410.561 232.967, 413.303 232.984 C 414.845 232.993, 417.762 231.875, 419.785 230.500 C 423.182 228.192, 423.274 228.007, 420.982 228.094 C 419.617 228.146, 416.700 229.264, 414.500 230.578 M 402 229.883 C 402 231.447, 405.888 231.840, 407.086 230.397 C 408.036 229.252, 407.682 229, 405.122 229 C 403.405 229, 402 229.398, 402 229.883 M 511.500 232.861 C 509.850 233.880, 507.744 235.566, 506.820 236.609 C 505.009 238.650, 502.691 244.025, 503.341 244.674 C 503.639 244.973, 517.981 235.699, 520.971 233.273 C 521.771 232.624, 518.611 231.031, 516.500 231.019 C 515.400 231.013, 513.150 231.841, 511.500 232.861 M 513.557 247.049 C 508.088 250.322, 503.250 253, 502.807 253 C 502.363 253, 502 254.125, 502 255.500 C 502 258.824, 503.333 258.655, 508.866 254.626 C 511.415 252.770, 516.041 249.829, 519.147 248.089 C 523.636 245.574, 524.688 244.524, 524.280 242.963 C 523.998 241.883, 523.707 241.022, 523.633 241.049 C 523.560 241.076, 519.026 243.776, 513.557 247.049 M 515 258.031 C 504.894 262.810, 504.506 263.111, 504.655 266.070 C 504.741 267.761, 505.053 269.386, 505.349 269.682 C 505.645 269.978, 509.355 267.687, 513.595 264.591 C 517.834 261.495, 522.359 258.697, 523.651 258.373 C 525.297 257.960, 526 257.068, 526 255.392 C 526 254.076, 525.888 253.015, 525.750 253.033 C 525.612 253.051, 520.775 255.300, 515 258.031 M 517.203 269.836 C 510.398 273.321, 509.030 275, 512.995 275 C 515.147 275, 523.641 269.378, 524.374 267.469 C 524.684 266.661, 524.839 266.022, 524.719 266.049 C 524.598 266.077, 521.216 267.781, 517.203 269.836 M 456.432 449.739 C 456.781 452.114, 464.234 455.758, 471.500 457.105 C 477.724 458.259, 494.160 457.655, 501.481 456.004 C 504.841 455.246, 508.685 452.351, 507.674 451.340 C 507.418 451.084, 460.951 448, 457.352 448 C 456.706 448, 456.292 448.782, 456.432 449.739 M 599.771 463.542 C 589.819 466.274, 584.999 468.551, 580 472.884 L 576.500 475.917 579.963 474.967 C 587.430 472.919, 612.877 462.610, 612.394 461.828 C 611.632 460.596, 609.403 460.899, 599.771 463.542 M 466.500 466.549 C 462.731 468.290, 458.365 471.699, 459.040 472.373 C 459.720 473.053, 475.939 466.709, 475.973 465.750 C 476.017 464.525, 469.735 465.054, 466.500 466.549 M 486.852 467.514 C 484.295 468.846, 477.608 471.766, 471.991 474.003 C 459.415 479.014, 454 481.734, 454 483.041 C 454 483.591, 455.760 483.143, 457.912 482.045 C 460.063 480.948, 465.125 478.726, 469.162 477.108 C 481.035 472.349, 495.664 465.141, 493.500 465.116 C 492.400 465.103, 489.408 466.183, 486.852 467.514 M 491.500 473.617 C 482.835 477.508, 462.797 486.231, 456.750 488.745 C 454.688 489.602, 453 490.910, 453 491.652 C 453 493.401, 452.804 493.441, 459.629 490.284 C 462.858 488.790, 473.374 484.377, 482.997 480.478 C 494.968 475.627, 500.597 472.853, 500.820 471.694 C 501.266 469.380, 500.656 469.505, 491.500 473.617 M 608 477.673 C 589.895 484.973, 587.390 486.161, 584 489.055 L 580.500 492.044 583.500 491.413 C 585.150 491.066, 590.100 489.230, 594.500 487.332 C 598.900 485.434, 605.982 482.445, 610.238 480.690 C 615.708 478.435, 617.980 476.987, 617.988 475.750 C 618.003 473.582, 618.279 473.529, 608 477.673 M 484.500 486.042 C 476.800 489.180, 467.207 493.094, 463.182 494.740 C 458.673 496.584, 456.441 497.955, 457.367 498.311 C 458.986 498.932, 481.604 492.410, 489 489.189 C 493.084 487.411, 499.967 481.511, 498.927 480.679 C 498.692 480.491, 492.200 482.905, 484.500 486.042 M 609 490.365 C 603.255 493.228, 594 498.864, 594 499.499 C 594 499.627, 597.028 498.892, 600.728 497.866 C 604.429 496.840, 608.940 496, 610.753 496 C 613.410 496, 614.248 495.479, 615.070 493.316 C 615.631 491.839, 615.958 489.842, 615.795 488.878 C 615.534 487.324, 614.761 487.493, 609 490.365 M 618.335 518.097 C 615.848 518.817, 613.506 521.383, 607.402 530.075 C 599.269 541.658, 597.009 543.528, 589.855 544.589 C 581.733 545.794, 570.976 554.066, 565.598 563.243 C 562.020 569.349, 544.144 607.358, 537.025 624 C 526.547 648.493, 523.800 654.372, 516.935 667 C 513.197 673.875, 508.351 684, 506.165 689.500 C 503.980 695, 499.626 705.125, 496.490 712 C 484.398 738.511, 482.037 744.069, 475.251 762 C 464.413 790.634, 450.848 820.081, 445.868 825.785 C 439.897 832.623, 443.630 843, 452.061 843 C 454.089 843, 457.559 842.361, 459.771 841.581 C 466.758 839.115, 542.296 826.525, 559.500 824.958 C 588.578 822.309, 660.799 823.465, 665.473 826.654 C 668.734 828.879, 674.745 828.346, 677.505 825.586 C 681.610 821.481, 681.627 818.808, 677.644 803.046 C 673.045 784.840, 671.456 775.337, 669.945 757 C 668.268 736.639, 668.341 696.150, 670.080 682 L 671.494 670.500 672.132 698.500 C 672.938 733.896, 675.352 761.048, 679.956 786.500 C 683.773 807.606, 690.981 829.353, 696.600 836.720 C 699.720 840.811, 698.788 840.893, 688.281 837.451 C 673.566 832.632, 642.524 830.810, 612 832.975 C 604.575 833.502, 588.600 834.620, 576.500 835.461 C 564.400 836.301, 539.650 838.531, 521.500 840.416 C 503.350 842.300, 484.900 844.130, 480.500 844.481 C 457.937 846.284, 441.593 848.359, 433.500 850.448 C 428.550 851.726, 423.150 852.568, 421.500 852.318 C 419.850 852.068, 410.625 853.211, 401 854.856 C 382.085 858.091, 362.940 863.996, 344.387 872.317 C 338.949 874.756, 330.940 878.230, 326.589 880.036 C 315.150 884.786, 310.732 887.482, 306.024 892.590 C 300.909 898.138, 299.680 900.986, 295.273 917.500 C 288.258 943.789, 289.401 952.059, 303.406 976.350 C 308.671 985.482, 319.627 993.232, 324.583 991.330 C 326.824 990.470, 327.353 986.468, 325.583 983.767 C 322.830 979.565, 321.715 970.586, 323.021 963.138 C 324.711 953.506, 335.347 932.245, 339.750 929.697 C 343.781 927.364, 343.822 927.810, 339.970 932.114 C 334.244 938.514, 327.940 951.402, 326.451 959.756 C 324.291 971.868, 327.349 983.235, 334.116 988.251 C 336.550 990.056, 336.941 990.082, 339.757 988.625 C 343.607 986.635, 344.780 983.208, 345.556 971.691 C 345.896 966.636, 346.645 960.963, 347.220 959.084 C 349.373 952.046, 363.018 940.260, 371.470 938.138 C 378.707 936.321, 391.312 930.167, 406.512 921.029 L 419.857 913.007 429.678 913.973 C 435.080 914.504, 450.750 915.409, 464.500 915.984 C 478.250 916.558, 500.300 917.913, 513.500 918.995 C 526.700 920.077, 543.800 920.980, 551.500 921.003 C 568.896 921.053, 596.743 923.310, 612.192 925.922 C 631.923 929.258, 648.352 930.417, 676.500 930.459 C 700.282 930.495, 704.275 930.271, 710 928.579 C 720.590 925.450, 734.352 919.537, 740.422 915.508 C 746.758 911.302, 757.336 899.052, 764.318 887.833 C 769.668 879.237, 777.382 860.086, 779.420 850.339 C 783.583 830.435, 785.391 793.555, 784.045 756 C 783.483 740.325, 782.548 711.750, 781.966 692.500 C 781.384 673.250, 780.481 653.613, 779.957 648.862 C 778.710 637.535, 772.561 611.973, 769.675 606.117 C 765.272 597.182, 757.883 584.564, 754.304 579.871 C 749.024 572.948, 724.555 555.360, 713.112 550.264 C 710.026 548.889, 703.216 545.832, 697.981 543.470 C 688.066 538.998, 678.731 536.662, 666 535.467 C 661.875 535.080, 655.628 533.880, 652.117 532.800 C 642.917 529.971, 631.158 524.164, 629.911 521.833 C 629.056 520.236, 622.998 516.701, 621.782 517.090 C 621.627 517.140, 620.076 517.593, 618.335 518.097 M 324.335 910.250 C 318.571 916.689, 312.229 932.638, 310.518 945 C 310.089 948.097, 311.132 945.914, 313.862 938 C 319.133 922.722, 320.268 920.194, 323.910 915.612 C 325.609 913.474, 327 910.887, 327 909.862 C 327 907.489, 326.777 907.521, 324.335 910.250" stroke="none" fill="#fffcfc" fill-rule="evenodd"/><path d="" stroke="none" fill="#fcfcfc" fill-rule="evenodd"/></svg>