<svg width="250" height="250" viewBox="0 0 250 250" fill="none" xmlns="http://www.w3.org/2000/svg">
<path fill-rule="evenodd" clip-rule="evenodd" d="M129.125 3.28326C115.88 4.88926 114.468 5.13876 110.772 6.52701C107.386 7.79901 99.5237 11.9243 96.7892 13.8638C94.0232 15.8255 91.0977 18.7415 88.7082 21.918C84.8022 27.111 83.8222 29.3838 82.3627 36.634C80.9394 43.7038 80.753 45.4008 80.7515 51.297C80.7492 59.6223 81.6777 65.9765 84.2517 75.25C86.3842 82.9325 90.029 90.9695 93.3202 95.2468C94.1152 96.2798 95.6785 98.3908 96.794 99.938C98.3007 102.027 99.8127 103.683 102.672 106.376C105.968 109.479 106.833 110.154 108.68 111.063C111.716 112.557 111.878 112.832 111.863 116.457C111.852 119.151 111.789 119.528 111.043 121.375C110.075 123.771 109.117 125.344 107.167 127.736C105 130.394 103.387 131.529 98.125 134.101C86.3205 139.869 80.046 143.989 77.1197 147.893C75.595 149.927 74.8817 152.105 74.015 157.375C72.7095 165.31 72.6347 166.553 72.9982 174.231C73.1777 178.022 73.2587 183.038 73.1782 185.375C73.0977 187.712 72.9007 193.225 72.7405 197.625C72.58 202.025 72.4995 206.722 72.5615 208.062C72.662 210.24 72.7702 210.693 73.5755 212.312C74.5362 214.244 76.9612 217.126 78.3454 217.982C78.8067 218.267 79.5645 218.497 80.0295 218.494C81.3965 218.484 85.7722 217.218 86.5 216.622C86.7062 216.452 87.4937 216.116 88.25 215.873C89.0062 215.63 90.957 214.939 92.585 214.337C94.213 213.735 96.0692 213.121 96.71 212.973C97.9132 212.695 103.371 212.015 105.11 211.926C106.043 211.878 106.147 211.787 107.045 210.25C107.568 209.356 108.458 207.444 109.024 206C110.692 201.745 112.175 198.38 114.257 194.125C117.238 188.036 119.014 184.09 121.122 178.875C122.178 176.262 124.148 171.875 125.499 169.125C128.224 163.579 129.111 161.683 131.267 156.794C133.108 152.617 135.313 148.598 138.487 143.633C142.498 137.358 143.741 135.918 146.011 134.915C149.026 133.582 151.67 131.794 153.361 129.943C156.298 126.729 156.906 125.614 156.738 123.75C156.72 123.544 156.835 122.719 156.994 121.917C157.653 118.592 156.301 113.758 154.174 111.836L153.178 110.937L150.777 111.063C147.773 111.221 146.75 111.58 143.348 113.665C139.279 116.159 139.071 116.25 137.409 116.25C136.163 116.25 135.658 116.102 134.287 115.335C131.967 114.038 130.861 114.046 129.505 115.37C128.199 116.646 127.815 117.833 128.282 119.156C128.516 119.817 128.625 121.36 128.625 124.016V127.907L129.362 128.878C129.928 129.621 130.124 130.181 130.203 131.273C130.333 133.066 129.732 134.256 126.364 138.875C124.15 141.911 119.343 149.072 105.438 170.047C102.311 174.765 97.6077 181.719 94.987 185.5C90.3135 192.243 85.687 199.282 83.4852 202.999C82.493 204.674 82.3667 204.801 82.2965 204.193C81.9255 200.977 87.5982 191.222 92.5002 186.646L93.8165 185.418L93.7735 177.146C93.7497 172.597 93.6242 167.635 93.4942 166.119C93.1737 162.383 93.6162 159.876 94.8612 158.375L95.276 157.875L95.147 158.375C94.6402 160.343 94.5087 161.632 94.4805 164.905C94.4322 170.545 95.2925 178.773 96.023 179.652C96.4202 180.131 97.0932 180.088 97.5785 179.551C97.802 179.305 99.0397 177.408 100.329 175.337C101.618 173.266 103.392 170.627 104.271 169.473C105.149 168.319 106.994 165.549 108.371 163.317C110.955 159.128 116.907 150.236 119.628 146.5C120.479 145.331 121.495 143.812 121.886 143.125C122.277 142.438 123.234 140.919 124.012 139.75C127.325 134.775 128.032 132.716 128.089 127.875C128.117 125.524 128.024 124.586 127.659 123.536C127.279 122.447 127.218 121.748 127.329 119.786C127.489 116.99 127.766 115.897 128.801 114C129.664 112.417 129.718 112.372 131.331 111.882C132.373 111.566 132.782 111.563 134.331 111.86C135.318 112.05 136.72 112.44 137.447 112.728C138.174 113.015 138.985 113.25 139.25 113.25C139.514 113.25 140.407 112.647 141.233 111.91C143.098 110.245 144.328 109.846 146.697 110.134C149.728 110.502 150.678 110.369 152.866 109.27C154.989 108.205 159.989 104.267 161.454 102.506C162.453 101.306 169.896 86.6965 171.243 83.2925C173.954 76.443 176.869 66.4595 177.352 62.375C177.433 61.6875 177.736 59.2125 178.025 56.875C178.409 53.7705 178.556 51.109 178.569 47C178.6 37.188 177.677 33.6418 173.04 25.7755C172.099 24.1803 170.856 22.0313 170.276 21C169.012 18.7505 165.267 14.404 163.202 12.7895C157.683 8.47501 149.91 5.14726 142.366 3.86926C138.137 3.15276 132.322 2.89551 129.125 3.28326ZM131.625 8.43951C129.662 8.57176 120.593 10.037 118.847 10.504C117.869 10.7655 116.069 11.4175 114.847 11.9525C113.625 12.4875 111.894 13.1603 111 13.4475C106.615 14.8568 102.114 17.2053 99.2145 19.5968C97.3095 21.168 96.6479 21.9498 93.4154 26.4495C90.2387 30.8713 89.5532 32.6573 88.1297 40.221C87.3745 44.2335 87.3545 45.3555 87.9765 48.7643C88.2385 50.2003 88.5822 52.8375 88.7402 54.625C89.223 60.0818 90.186 63.643 92.1455 67.2173C93.8612 70.3468 94.2567 70.737 96.6794 71.6908C101.132 73.4438 102.233 73.7368 107.375 74.5393C112.582 75.352 112.698 75.3588 121.625 75.3618C132.027 75.3655 142.814 74.9348 146.685 74.3613C153.579 73.34 164.367 68.5425 168.221 64.7843C169.757 63.2858 169.966 62.9605 170.376 61.4278C170.781 59.9123 170.812 59.0423 170.67 53.3028C170.582 49.7675 170.346 45.5813 170.146 44C169.946 42.4188 169.728 40.675 169.664 40.125C169.599 39.575 169.099 37.8875 168.554 36.375C168.009 34.8625 167.422 32.9935 167.249 32.2218C166.986 31.0433 166.558 30.3433 164.574 27.8468C163.275 26.2123 160.977 23.1595 159.467 21.0625C157.958 18.9655 156.636 17.25 156.531 17.25C156.425 17.25 155.287 16.575 154 15.75C152.713 14.925 151.557 14.25 151.43 14.25C151.304 14.25 150.114 13.6408 148.787 12.896C147.412 12.124 145.515 11.305 144.375 10.991C143.275 10.688 141.468 10.1205 140.36 9.72976C137.777 8.81926 134.085 8.27376 131.625 8.43951ZM125.822 13.4913C124.868 14.073 124.036 15.5913 123.911 16.9783C123.849 17.662 123.567 18.2673 123.019 18.892C121.698 20.3963 121.427 21.6503 122.129 23.0083C122.607 23.9325 123.688 24.5 124.969 24.5H125.964L125.822 25.9375C125.745 26.728 125.668 27.3928 125.653 27.4145C125.637 27.4363 124.219 27.7545 122.5 28.122C115.669 29.5825 103.486 32.8238 97.9332 34.6575C93.4212 36.1478 92.9522 36.616 94.6642 37.922C95.4275 38.504 95.8715 38.6333 97.3517 38.7035C98.327 38.7498 99.8 38.6783 100.625 38.5445C101.45 38.4108 102.156 38.33 102.194 38.3653C102.231 38.4005 102.023 38.9795 101.729 39.652C100.657 42.1125 97.751 49.8183 97.2342 51.5718C96.942 52.5635 96.3675 54.0843 95.9572 54.9513C95.157 56.6423 95.1692 56.726 96.375 57.823C97.94 59.247 102.062 60.4098 104.679 60.1655C109.473 59.7178 112.074 57.7453 111.533 54.9668C111.417 54.3663 110.565 52.075 109.64 49.875C108.326 46.7478 105.25 38.3145 105.25 37.8395C105.25 37.7903 105.447 37.7473 105.687 37.7438C106.199 37.7363 109.875 36.811 115.968 35.1558C119.389 34.2265 124.607 33 125.139 33C125.389 33 124.865 41.272 124.108 49.25C123.261 58.1765 122.06 68.7733 121.873 68.96C121.822 69.0115 119.661 69.1878 117.072 69.3515C114.484 69.5153 112.227 69.7348 112.058 69.8393C111.571 70.1403 111.698 70.8638 112.343 71.4703C113.095 72.177 115.902 72.656 121.322 73.0028C125.913 73.2963 130.408 73.033 134.283 72.2433C135.688 71.957 138.617 71.5215 140.793 71.2753C145.12 70.7858 145.842 70.4893 145.699 69.263L145.625 68.625L139.962 68.5578L134.3 68.4908L133.913 66.3078C133.278 62.7273 133.042 60.7945 132.125 51.625C131.644 46.8125 131.024 40.9063 130.748 38.5C130.472 36.0938 130.201 33.7025 130.146 33.1863C130.062 32.3875 130.127 32.2298 130.586 32.1273C130.882 32.0613 133.037 31.661 135.375 31.2383C137.712 30.8153 141.693 30.0225 144.221 29.4765C146.749 28.9305 148.861 28.5275 148.914 28.581C148.968 28.6345 148.612 29.6123 148.123 30.7535C146.916 33.5753 144.866 39.0648 143.832 42.2458C143.364 43.687 142.76 45.2403 142.49 45.6975C141.854 46.7758 141.858 46.799 142.812 47.751C146.625 51.5535 156.181 51.1858 158.09 47.1628C158.658 45.9653 158.408 44.944 156.3 39.875C154.769 36.1918 152 28.543 152 27.997C152 27.8945 152.745 27.6238 153.655 27.395C158.123 26.2728 159.537 24.0125 156.588 22.708C155.555 22.2513 155.128 22.2108 152.897 22.3585C149.184 22.6048 140.223 24.2025 130.312 26.3855C129.829 26.4923 129.75 26.4068 129.75 25.7753C129.75 25.3713 129.688 24.8793 129.612 24.6815C129.514 24.4265 129.852 24.1843 130.775 23.8485C131.512 23.5803 132.294 23.0823 132.578 22.6995C133.501 21.4558 133.01 18.6743 131.747 17.9985C131.393 17.809 131.25 17.475 131.25 16.8378C131.25 14.094 128.06 12.127 125.822 13.4913ZM147.617 24.9828C146.85 25.1668 143.422 27.5 143.919 27.5C144.067 27.5 144.976 27.3223 145.938 27.105C147.38 26.7793 147.856 26.5378 148.645 25.73C149.561 24.791 149.576 24.751 148.988 24.7755C148.651 24.7898 148.034 24.883 147.617 24.9828ZM139.875 26.3525C138.72 26.6388 135.072 28.9053 135.338 29.171C135.4 29.2338 136.412 29.0945 137.585 28.8615C139.562 28.4688 139.812 28.348 140.984 27.2188C142.393 25.86 142.265 25.7598 139.875 26.3525ZM131.722 28.0923C130.23 28.4583 129.789 28.84 129.94 29.6338C130.128 30.6143 130.79 30.2913 133.362 27.9648C133.664 27.6923 133.209 27.7275 131.722 28.0923ZM124.616 29.7643C124.526 29.9095 123.929 30.3675 123.289 30.782L122.125 31.5355L123.125 31.3733C124.458 31.1568 126.24 29.5 125.14 29.5C124.941 29.5 124.706 29.619 124.616 29.7643ZM149.993 31.375C148.633 34.4573 145 44.4343 145 45.088C145 45.4633 155.516 44.8175 155.915 44.4178C155.962 44.3715 155.307 42.6553 154.461 40.6043C153.614 38.5533 152.387 35.3563 151.733 33.5L150.545 30.125L149.993 31.375ZM117.115 32.022C115.473 33.0718 115.274 33.2633 115.976 33.1188C116.725 32.9643 119.844 30.75 119.312 30.75C119.198 30.75 118.209 31.3225 117.115 32.022ZM110.625 33.0248C110.212 33.151 109.369 33.7093 108.75 34.2655L107.625 35.2765L108.5 35.1055C108.981 35.0115 109.6 34.6958 109.875 34.4038C110.15 34.1118 110.712 33.6238 111.125 33.3195C111.928 32.7268 111.815 32.6603 110.625 33.0248ZM104.213 34.7945C103.712 34.928 103.046 35.3103 102.732 35.6438L102.163 36.25H102.815C103.817 36.25 104.62 35.8605 105.087 35.1478C105.549 34.442 105.544 34.44 104.213 34.7945ZM103.243 41.125C101.883 44.2073 98.25 54.1843 98.25 54.838C98.25 55.2133 108.766 54.5675 109.165 54.1678C109.212 54.1215 108.557 52.4053 107.711 50.3543C106.864 48.3033 105.637 45.1063 104.983 43.25L103.795 39.875L103.243 41.125ZM150.375 47.8945C149.397 48.4788 149.39 48.4918 150.076 48.496C150.461 48.4983 151.19 48.2188 151.696 47.875C152.545 47.298 152.568 47.2518 151.995 47.2735C151.654 47.2865 150.925 47.566 150.375 47.8945ZM147.25 47.7208C147.25 48.1118 148.222 48.21 148.521 47.8493C148.759 47.563 148.67 47.5 148.03 47.5C147.601 47.5 147.25 47.5995 147.25 47.7208ZM103.625 57.6445C102.647 58.2288 102.64 58.2418 103.326 58.246C103.711 58.2483 104.44 57.9688 104.946 57.625C105.795 57.048 105.818 57.0018 105.245 57.0235C104.904 57.0365 104.175 57.316 103.625 57.6445ZM100.5 57.4708C100.5 57.8618 101.472 57.96 101.771 57.5993C102.009 57.313 101.92 57.25 101.28 57.25C100.851 57.25 100.5 57.3495 100.5 57.4708ZM127.875 58.2153C127.462 58.47 126.936 58.8915 126.705 59.1523C126.252 59.6625 125.673 61.0063 125.835 61.1685C125.91 61.2433 129.495 58.9248 130.243 58.3183C130.443 58.156 129.653 57.7578 129.125 57.7548C128.85 57.7533 128.287 57.9603 127.875 58.2153ZM128.389 61.7623C127.022 62.5805 125.812 63.25 125.702 63.25C125.591 63.25 125.5 63.5313 125.5 63.875C125.5 64.706 125.833 64.6638 127.216 63.6565C127.854 63.1925 129.01 62.4573 129.787 62.0223C130.909 61.3935 131.172 61.131 131.07 60.7408C130.999 60.4708 130.927 60.2555 130.908 60.2623C130.89 60.269 129.756 60.944 128.389 61.7623ZM128.75 64.5078C126.223 65.7025 126.126 65.7778 126.164 66.5175C126.185 66.9403 126.263 67.3465 126.337 67.4205C126.411 67.4945 127.339 66.9218 128.399 66.1478C129.458 65.3738 130.59 64.6743 130.913 64.5933C131.324 64.49 131.5 64.267 131.5 63.848C131.5 63.519 131.472 63.2538 131.437 63.2583C131.403 63.2628 130.194 63.825 128.75 64.5078ZM129.301 67.459C127.599 68.3303 127.257 68.75 128.249 68.75C128.787 68.75 130.91 67.3445 131.093 66.8673C131.171 66.6653 131.21 66.5055 131.18 66.5123C131.149 66.5193 130.304 66.9453 129.301 67.459ZM114.108 112.435C114.195 113.029 116.058 113.94 117.875 114.276C119.431 114.565 123.54 114.414 125.37 114.001C126.21 113.812 127.171 113.088 126.918 112.835C126.854 112.771 115.238 112 114.338 112C114.176 112 114.073 112.196 114.108 112.435ZM149.943 115.886C147.455 116.569 146.25 117.138 145 118.221L144.125 118.979L144.991 118.742C146.857 118.23 153.219 115.653 153.098 115.457C152.908 115.149 152.351 115.225 149.943 115.886ZM116.625 116.637C115.683 117.073 114.591 117.925 114.76 118.093C114.93 118.263 118.985 116.677 118.993 116.438C119.004 116.131 117.434 116.264 116.625 116.637ZM121.713 116.879C121.074 117.212 119.402 117.942 117.998 118.501C114.854 119.754 113.5 120.434 113.5 120.76C113.5 120.898 113.94 120.786 114.478 120.511C115.016 120.237 116.281 119.682 117.29 119.277C120.259 118.087 123.916 116.285 123.375 116.279C123.1 116.276 122.352 116.546 121.713 116.879ZM122.875 118.404C120.709 119.377 115.699 121.558 114.187 122.186C113.672 122.401 113.25 122.728 113.25 122.913C113.25 123.35 113.201 123.36 114.907 122.571C115.714 122.198 118.343 121.094 120.749 120.12C123.742 118.907 125.149 118.213 125.205 117.924C125.316 117.345 125.164 117.376 122.875 118.404ZM152 119.418C147.474 121.243 146.847 121.54 146 122.264L145.125 123.011L145.875 122.853C146.287 122.767 147.525 122.308 148.625 121.833C149.725 121.359 151.495 120.611 152.559 120.173C153.927 119.609 154.495 119.247 154.497 118.938C154.501 118.396 154.57 118.382 152 119.418ZM121.125 121.511C119.2 122.295 116.802 123.274 115.795 123.685C114.668 124.146 114.11 124.489 114.342 124.578C114.746 124.733 120.401 123.103 122.25 122.297C123.271 121.853 124.992 120.378 124.732 120.17C124.673 120.123 123.05 120.726 121.125 121.511ZM152.25 122.591C150.814 123.307 148.5 124.716 148.5 124.875C148.5 124.907 149.257 124.723 150.182 124.467C151.107 124.21 152.235 124 152.688 124C153.352 124 153.562 123.87 153.767 123.329C153.908 122.96 153.989 122.461 153.949 122.22C153.883 121.831 153.69 121.873 152.25 122.591ZM154.584 129.524C153.962 129.704 153.376 130.346 151.85 132.519C149.817 135.415 149.252 135.882 147.464 136.147C145.433 136.449 142.744 138.516 141.399 140.811C140.505 142.337 136.036 151.839 134.256 156C131.637 162.123 130.95 163.593 129.234 166.75C128.299 168.469 127.088 171 126.541 172.375C125.995 173.75 124.906 176.281 124.122 178C121.099 184.628 120.509 186.017 118.813 190.5C116.103 197.658 112.712 205.02 111.467 206.446C109.974 208.156 110.907 210.75 113.015 210.75C113.522 210.75 114.39 210.59 114.943 210.395C116.689 209.779 135.574 206.631 139.875 206.24C147.144 205.577 165.2 205.866 166.368 206.663C167.183 207.22 168.686 207.087 169.376 206.396C170.402 205.37 170.407 204.702 169.411 200.762C168.261 196.21 167.864 193.834 167.486 189.25C167.067 184.16 167.085 174.038 167.52 170.5L167.873 167.625L168.033 174.625C168.234 183.474 168.838 190.262 169.989 196.625C170.943 201.902 172.745 207.338 174.15 209.18C174.93 210.203 174.697 210.223 172.07 209.363C168.391 208.158 160.631 207.702 153 208.244C151.144 208.375 147.15 208.655 144.125 208.865C141.1 209.075 134.912 209.633 130.375 210.104C125.837 210.575 121.225 211.033 120.125 211.12C114.484 211.571 110.398 212.09 108.375 212.612C107.137 212.932 105.787 213.142 105.375 213.079C104.962 213.017 102.656 213.303 100.25 213.714C95.5212 214.523 90.735 215.999 86.0967 218.079C84.7372 218.689 82.7349 219.557 81.6472 220.009C78.7874 221.197 77.6829 221.871 76.5059 223.148C75.2272 224.535 74.92 225.247 73.8182 229.375C72.0645 235.947 72.3502 238.015 75.8515 244.087C77.1677 246.37 79.9067 248.308 81.1457 247.833C81.706 247.618 81.8382 246.617 81.3957 245.942C80.7075 244.891 80.4287 242.646 80.7552 240.785C81.1777 238.376 83.8367 233.061 84.9375 232.424C85.9452 231.841 85.9555 231.952 84.9925 233.029C83.561 234.629 81.9849 237.85 81.6127 239.939C81.0727 242.967 81.8372 245.809 83.529 247.063C84.1375 247.514 84.2352 247.52 84.9392 247.156C85.9017 246.659 86.195 245.802 86.389 242.923C86.474 241.659 86.6612 240.241 86.805 239.771C87.3432 238.011 90.7545 235.065 92.8675 234.535C94.6767 234.08 97.828 232.542 101.628 230.257L104.964 228.252L107.419 228.493C108.77 228.626 112.687 228.852 116.125 228.996C119.562 229.139 125.075 229.478 128.375 229.749C131.675 230.019 135.95 230.245 137.875 230.251C142.224 230.263 149.186 230.827 153.048 231.48C157.981 232.314 162.088 232.604 169.125 232.615C175.07 232.624 176.069 232.568 177.5 232.145C180.147 231.362 183.588 229.884 185.105 228.877C186.689 227.826 189.334 224.763 191.079 221.958C192.417 219.809 194.345 215.021 194.855 212.585C195.896 207.609 196.348 198.389 196.011 189C195.871 185.081 195.637 177.938 195.491 173.125C195.346 168.312 195.12 163.403 194.989 162.215C194.677 159.384 193.14 152.993 192.419 151.529C191.318 149.296 189.471 146.141 188.576 144.968C187.256 143.237 181.139 138.84 178.278 137.566C177.506 137.222 175.804 136.458 174.495 135.867C172.016 134.749 169.683 134.165 166.5 133.867C165.469 133.77 163.907 133.47 163.029 133.2C160.729 132.493 157.789 131.041 157.478 130.458C157.264 130.059 155.749 129.175 155.445 129.273C155.407 129.285 155.019 129.398 154.584 129.524ZM81.0837 227.562C79.6427 229.172 78.0572 233.16 77.6295 236.25C77.5222 237.024 77.783 236.479 78.4655 234.5C79.7832 230.68 80.067 230.048 80.9775 228.903C81.4022 228.368 81.75 227.722 81.75 227.465C81.75 226.872 81.6942 226.88 81.0837 227.562Z" fill="#6F4524"/>
</svg>
