<svg width="117" height="116" viewBox="0 0 117 116" fill="none" xmlns="http://www.w3.org/2000/svg">
<mask id="mask0_518_5591" style="mask-type:luminance" maskUnits="userSpaceOnUse" x="0" y="0" width="117" height="116">
<path d="M0.850098 0.199951H116.4V115.8H0.850098V0.199951Z" fill="white"/>
</mask>
<g mask="url(#mask0_518_5591)">
<path d="M113.022 54.8203C111.235 54.8203 109.783 56.2703 109.783 58.0593C109.783 86.3062 86.7972 109.291 58.5487 109.291C30.2987 109.291 7.31748 86.3062 7.31748 58.0593C7.31748 29.8093 30.2987 6.82651 58.5487 6.82651C60.3362 6.82651 61.7878 5.37651 61.7878 3.58745C61.7878 1.79839 60.3362 0.348389 58.5487 0.348389C26.7284 0.348389 0.839355 26.2375 0.839355 58.0593C0.839355 89.8796 26.7284 115.767 58.5487 115.767C90.3737 115.767 116.261 89.8796 116.261 58.0593C116.261 56.2703 114.81 54.8203 113.022 54.8203Z" fill="#C49102"/>
<path d="M58.5484 41.4875C60.3359 41.4875 61.7875 40.0391 61.7875 38.25C61.7875 36.461 60.3359 35.011 58.5484 35.011C45.8375 35.011 35.5 45.35 35.5 58.0594C35.5 70.7672 45.8375 81.1079 58.5484 81.1079C71.2578 81.1079 81.5969 70.7672 81.5969 58.0594C81.5969 56.2704 80.1453 54.8204 78.3578 54.8204C76.5703 54.8204 75.1188 56.2704 75.1188 58.0594C75.1188 67.1969 67.6844 74.6297 58.5484 74.6297C49.4125 74.6297 41.9781 67.1969 41.9781 58.0594C41.9781 48.9219 49.4125 41.4875 58.5484 41.4875Z" fill="#C49102"/>
<path d="M100.675 29.9407L93.4296 28.2094L103.926 17.7141L111.17 19.4438L100.675 29.9407ZM87.114 16.3844L97.614 5.88599L99.2593 12.7672L88.7593 23.2672L87.114 16.3844ZM120.675 16.761C120.358 15.6329 119.453 14.761 118.309 14.4891L105.606 11.4516L102.569 -1.25308C102.297 -2.3937 101.426 -3.29683 100.298 -3.6187C99.1687 -3.92808 97.9577 -3.6187 97.1265 -2.79058L81.253 13.0813C80.453 13.8782 80.1296 15.0313 80.3905 16.1266L83.3827 28.6422L56.2593 55.7672C54.9937 57.0344 54.9937 59.086 56.2593 60.3516C56.8921 60.9813 57.7171 61.2985 58.5483 61.2985C59.378 61.2985 60.2062 60.9813 60.839 60.3516L87.689 33.5001L100.931 36.6657C101.181 36.7251 101.434 36.7532 101.683 36.7532C102.534 36.7532 103.359 36.4188 103.973 35.8047L119.847 19.9344C120.678 19.1032 120.994 17.8907 120.675 16.761Z" fill="#C49102"/>
<path d="M58.5485 18.3906C36.6735 18.3906 18.8813 36.1859 18.8813 58.0594C18.8813 79.9328 36.6735 97.7281 58.5485 97.7281C80.422 97.7281 98.2204 79.9328 98.2204 58.0594C98.2204 56.2703 96.7689 54.8203 94.9798 54.8203C93.1923 54.8203 91.7407 56.2703 91.7407 58.0594C91.7407 76.3609 76.8517 91.25 58.5485 91.25C40.2485 91.25 25.3595 76.3609 25.3595 58.0594C25.3595 39.7578 40.2485 24.8688 58.5485 24.8688C60.336 24.8688 61.7876 23.4188 61.7876 21.6297C61.7876 19.8406 60.336 18.3906 58.5485 18.3906Z" fill="#C49102"/>
</g>
</svg>
