<svg width="400" height="286" viewBox="0 0 400 286" fill="none" xmlns="http://www.w3.org/2000/svg">
<mask id="mask0_815_182" style="mask-type:luminance" maskUnits="userSpaceOnUse" x="0" y="0" width="400" height="286">
<path d="M0 0.40625H399.333V285.406H0V0.40625Z" fill="white"/>
</mask>
<g mask="url(#mask0_815_182)">
<path d="M260.489 29.6876C264.39 30.4011 268.453 31.4584 272.588 32.8386C279.765 26.5886 287.812 22.2605 295.703 20.3751C292.958 18.1407 290.208 15.9063 287.463 13.6876C283.015 16.823 278.328 19.6928 273.797 22.474C272.255 23.4167 270.724 24.3595 269.198 25.3074C268.474 25.7605 266.104 26.9272 262.302 28.797C261.729 29.0782 261.114 29.3803 260.489 29.6876ZM280.302 35.7865C284.005 37.349 287.791 39.1772 291.786 41.323C294.057 40.4897 296.338 39.599 298.635 38.7084C303.005 37.0053 307.495 35.2605 312.021 33.8542C308.818 31.1615 305.495 28.4011 302.099 25.6042C293.995 28.573 286.963 31.8595 280.302 35.7865ZM302.015 47.2761C303.182 48.0053 304.375 48.7657 305.604 49.5626C310.521 48.3074 315.271 46.7605 318.916 45.5365C319.937 45.198 320.953 44.823 321.974 44.4532C322.541 44.2449 323.114 44.0365 323.687 43.8282C322.604 42.8855 321.526 41.948 320.437 41.0105C314.677 44.0313 308.036 45.8699 302.015 47.2761ZM314.989 55.9376C316.682 57.1407 318.463 58.4272 320.401 59.8386C324.786 58.8647 329.026 57.7709 333.026 56.5886C333.844 56.349 334.661 56.0886 335.479 55.823C335.875 55.698 336.271 55.573 336.677 55.448C334.864 53.7813 333.036 52.1251 331.203 50.4845C326.484 53.1303 320.776 54.7345 314.989 55.9376ZM330.286 67.2293C330.599 67.1095 330.927 67.0261 331.265 66.9897C334.896 66.5678 338.791 66.0938 342.687 65.4949C344.078 65.2813 345.453 65.073 346.859 65.0313C345.979 64.1876 345.088 63.349 344.203 62.5105C339.89 64.9115 334.698 66.0053 329.703 66.7865C329.896 66.9324 330.094 67.0834 330.286 67.2293ZM352.703 85.047C353.14 84.823 353.614 84.6772 354.114 84.6199L355.094 84.5105C357.338 84.2553 359.672 83.9897 362.031 83.9897C362.745 83.9897 363.458 84.0157 364.177 84.073C364.588 84.1042 364.974 84.172 365.333 84.2813C361.614 79.948 357.698 75.8074 353.755 71.823C353.521 72.1147 353.239 72.3699 352.911 72.5886C350.297 74.2918 347.12 74.5574 344.318 74.797C343.609 74.8543 342.922 74.9115 342.245 74.9949C341.703 75.0574 341.146 75.1251 340.583 75.1876C341.172 75.6511 341.755 76.1147 342.344 76.5782C343.005 76.573 343.656 76.5626 344.318 76.5626C346.505 76.5626 349.088 76.6511 351.609 77.297C352.89 77.6251 353.797 78.8074 353.791 80.1615C353.791 81.4532 352.948 82.5365 351.703 82.8595C351.286 82.9636 350.859 83.0574 350.422 83.1459C351.187 83.7709 351.943 84.4063 352.703 85.047ZM29.8644 100.172C33.6769 100.427 37.7602 100.719 42.3071 101.068C51.755 93.7293 65.5363 88.1043 80.2498 85.4793C78.781 85.3803 77.2706 85.2449 75.7029 85.099C72.6873 84.823 69.5727 84.5365 66.5779 84.5365C61.8696 84.5365 58.3852 85.2449 55.6144 86.7813C46.7446 91.6876 38.1092 96.1772 29.8644 100.172ZM92.3748 105.24C96.9425 105.609 102.036 106.011 107.219 106.386L107.307 106.339C110.245 104.729 113.156 103.063 116.062 101.391C119.88 99.198 123.828 96.9376 127.802 94.8386C133.187 92.0001 138.854 89.2345 144.844 87.1407C135.333 86.948 126.656 86.7605 118.271 86.5522L110.463 86.3595C103.974 86.2032 97.3227 86.0418 90.6821 85.8543C91.255 86.5157 91.6144 87.3907 91.6821 88.3855C91.8488 90.8386 90.1665 92.9324 87.7706 93.2553C78.6613 94.4897 69.4529 97.5678 60.406 102.417C60.3488 102.448 60.2863 102.474 60.229 102.516C63.8592 102.818 67.4946 103.125 71.1248 103.438C75.5675 101.375 80.2706 99.5418 84.4373 97.9272C86.2029 97.2397 87.906 96.5782 89.5154 95.9272C101.469 91.1043 111.791 88.9532 122.984 88.9532L124.245 88.9584C126.146 88.9897 127.614 90.4428 127.666 92.3438C127.719 94.1876 126.354 95.6824 124.5 95.8126C113.182 96.6043 102.036 100.87 92.3748 105.24ZM127.896 107.677C130.166 107.792 132.443 107.891 134.713 107.99L137.125 108.094C143.208 104.198 149.896 101.141 156.375 98.1824C157.922 97.474 159.448 96.7761 160.943 96.0782C166.969 93.2605 173.286 90.5157 180.073 87.7605C178.083 87.724 171.765 87.6147 171.765 87.6147C171.745 87.823 171.713 88.0209 171.661 88.2188C171.271 89.7501 169.953 90.7397 168.312 90.7397H168.031C153.979 90.7397 140.432 98.7657 128.479 105.849L125.588 107.557C126.354 107.599 127.125 107.641 127.896 107.677ZM234.088 108.24C236.349 108.448 238.802 108.599 241.229 108.599C244.562 108.599 247.458 108.323 250.026 107.755C249.687 104.037 249.604 100.287 249.64 96.724C248.489 97.724 247.297 98.7605 245.969 99.6563L245.562 99.9272C242.146 102.24 238.614 104.625 235.359 107.224C234.932 107.563 234.51 107.901 234.088 108.24ZM161.14 109.026L162.62 108.333C164.666 107.391 166.776 106.406 168.713 105.333C172.323 103.328 175.963 101.214 179.479 99.1668C181.953 97.7293 184.422 96.2865 186.906 94.8751C179.62 97.9845 172.354 101.344 165.177 104.932C162.734 106.156 160.255 107.521 157.807 108.912C158.916 108.953 160.026 108.99 161.14 109.026ZM185.963 109.703C189.568 107.667 193.416 105.875 197.146 104.141C200.765 102.458 204.182 100.87 207.375 99.0834C213.797 95.4897 220.385 91.8022 227.161 88.3282L226.172 88.323C213.557 91.0834 202.047 98.1824 190.911 105.047C189 106.224 187.094 107.396 185.198 108.537C184.609 108.891 184.005 109.266 183.396 109.646C184.25 109.667 185.109 109.688 185.963 109.703ZM362.719 93.7605C371.14 101.365 378.411 108.74 384.734 116.099C384.114 113.261 382.89 110.125 381.068 106.724C377.604 100.255 373.427 94.2188 368.864 88.5261C368.885 88.7136 368.896 88.9011 368.896 89.0834C368.896 91.5886 367.073 93.4793 364.463 93.6772C363.885 93.724 363.302 93.7449 362.719 93.7605ZM277.75 228.057C279.068 236.354 279.021 244.682 278.568 253.568C297.677 226.896 319.276 201.682 340.208 177.25C353.109 162.203 366.427 146.656 379.026 130.927C362.568 109.912 340.479 92.1668 322.974 78.9949L322.547 78.6772C305.161 65.5886 285.536 50.823 264.463 44.7501C264.281 51.4011 263.963 58.1095 263.672 64.6147C263.5 68.2865 263.333 71.9584 263.182 75.6199C263.031 79.4688 263 83.474 262.974 87.3386C262.916 95.7553 262.849 104.453 261.521 112.771C261.13 115.214 258.771 117.276 256.364 117.276C256.328 117.276 256.172 117.276 256.135 117.276C254.344 117.177 252.401 117.136 250.01 117.136C249.469 117.136 248.932 117.141 248.396 117.141C248.354 118.448 247.958 119.74 247.234 120.813C246.187 122.375 244.583 123.328 242.682 123.516C242.536 123.552 242.385 123.573 242.229 123.573C221.969 123.531 202.208 123.266 183.495 122.776C182.453 122.969 181.594 123.089 180.791 123.156C180.739 123.162 180.531 123.167 180.479 123.167C179.791 123.167 179.109 122.984 178.484 122.63C171.885 122.443 165.286 122.193 158.693 121.943C156.943 122.302 155.245 122.49 153.635 122.49C153.047 122.49 152.453 122.464 151.87 122.412C151.172 122.359 150.526 122.078 150 121.625C144.791 121.406 139.583 121.162 134.375 120.901C132.948 121.417 131.739 121.823 130.588 122.151C130.271 122.245 129.943 122.292 129.609 122.292C128.646 122.292 127.698 121.88 127.01 121.167C126.807 120.958 126.635 120.729 126.489 120.49L105.755 119.354C98.7342 122.891 92.9738 124.547 87.656 124.547C85.6352 124.531 84.0415 123.323 83.5206 121.531C83.156 120.281 83.406 119.021 84.156 118.047C78.7654 117.688 73.6821 117.307 68.7446 116.906C65.3331 118.172 62.2967 118.87 59.4842 119.026C59.4477 119.031 59.3227 119.031 59.2863 119.031C57.7602 119.031 56.3279 118.031 55.729 116.537C55.6196 116.261 55.5415 115.984 55.4946 115.708C41.4529 114.307 28.9373 112.615 17.4165 110.547C17.6352 110.859 17.8279 111.193 17.979 111.563C18.5519 112.927 18.531 114.505 17.9477 115.787C17.9425 115.912 17.9425 116.052 17.9373 116.214C17.9269 117.609 17.9113 119.005 17.9425 120.396C17.9946 122.766 18.0363 125.125 18.0779 127.49L18.1873 133.391C18.3852 143.271 18.781 153.313 19.1508 163.031L19.3592 168.349C19.6456 175.896 19.9946 183.443 20.3435 190.99C20.9217 203.568 21.5258 216.552 21.8279 229.38C27.7342 228.901 33.6456 228.448 39.5519 227.99C55.0467 226.797 71.0675 225.568 86.7967 223.88C91.1613 223.417 95.5258 222.943 99.8904 222.464C119.182 220.354 139.13 218.177 158.849 216.958C174.047 216.016 189.239 215.891 202.104 215.891C206.791 215.891 211.484 215.912 216.177 215.927C220.859 215.948 225.536 215.964 230.219 215.964H233.14C237.984 215.953 242.849 215.865 247.724 215.781C252.791 215.688 258.026 215.599 263.182 215.599C267.041 215.599 270.5 215.646 273.75 215.755C275.771 215.755 277.495 216.5 278.693 217.849C279.979 219.292 280.604 221.359 280.364 223.38C280.25 225.359 279.281 227.052 277.75 228.057ZM269.677 285.573C267.739 285.573 265.995 284.886 264.765 283.646C263.562 282.432 262.937 280.776 262.958 278.859C263.015 273.359 263.443 267.688 263.849 262.203C264.672 251.24 265.51 239.922 263.515 229.287C260.208 229.328 256.906 229.349 253.594 229.349C243.521 229.349 233.276 229.167 223.37 228.984C213.479 228.807 203.25 228.62 193.203 228.62C180.323 228.62 169.614 228.917 159.515 229.563C143.198 230.599 126.427 232.484 110.208 234.313C85.354 237.109 59.6613 240.005 34.4477 240.005C26.5987 240.005 18.9842 239.719 11.8227 239.156C9.60396 238.984 7.88 237.427 7.53625 235.287C7.29146 233.792 7.79667 232.37 8.82792 231.417C8.71854 217.896 8.24979 204.156 7.79667 190.859C7.42167 179.75 7.03104 168.255 6.84875 156.943C6.83833 156.5 6.79667 155.578 6.72896 154.276C5.41646 127.734 6.55708 114.089 10.4217 110.031C10.9477 109.484 11.4842 109.13 11.9946 108.912C11.8383 108.781 11.6925 108.646 11.5519 108.495C9.80188 109.234 8.05188 109.958 6.31229 110.656C5.8175 110.849 5.30708 110.948 4.79146 110.948C3.02583 110.948 1.36958 109.766 0.661251 107.995C-0.0106241 106.333 0.343542 104.557 1.58313 103.37C9.93729 95.3647 20.7602 90.3386 31.2238 85.4845C38.1769 82.2605 45.3696 78.922 51.5883 74.7865C55.0258 72.4949 59.4946 71.4324 65.6404 71.4324C68.8383 71.4324 72.0623 71.7084 75.1769 71.974C77.6508 72.1876 79.9842 72.3907 82.0935 72.4324C88.9269 72.573 95.755 72.7501 102.583 72.9324C106.495 73.0417 110.401 73.1407 114.307 73.2397C151.552 74.1511 200.698 75.198 250.557 75.2188C250.599 74.2345 250.64 73.2553 250.666 72.2865C251 60.2084 250.989 48.1095 250.974 36.4115C250.974 35.4584 251.146 34.547 251.479 33.7032C251.109 33.5626 250.771 33.3386 250.479 33.047C249.599 32.1667 249.208 31.0313 249.354 29.7553C249.958 24.3334 261.146 16.2397 278.989 4.948C281.484 3.36466 283.646 2.00008 284.328 1.46362C285.224 0.765707 286.323 0.401123 287.505 0.401123C288.896 0.401123 290.354 0.916747 291.495 1.823C295.562 5.02612 299.646 8.20321 303.729 11.3803C326.224 28.8959 349.484 47.0157 369.401 68.6147C379.969 80.0678 393.114 94.323 397.531 110.854C400 120.083 398.536 135.214 389.495 140.068C377.062 155.63 363.89 171.026 351.151 185.917C325.161 216.307 298.281 247.729 276.422 281.995C275.015 284.203 272.427 285.573 269.677 285.573Z" fill="#C49102"/>
</g>
</svg>
