<svg width="90" height="16" viewBox="0 0 90 16" fill="none" xmlns="http://www.w3.org/2000/svg">
<path fill-rule="evenodd" clip-rule="evenodd" d="M0 0.5V10.5536H0.285589H0.571177V10.7074C0.571177 10.849 0.581634 10.8612 0.702988 10.8612C0.820167 10.8612 0.834798 10.8758 0.834798 10.993C0.834798 11.1143 0.847012 11.1248 0.988576 11.1248C1.12878 11.1248 1.14235 11.1136 1.14235 10.9981C1.14235 10.8746 1.14956 10.8706 1.42794 10.8408C1.70725 10.8109 1.71353 10.8074 1.71353 10.6819V10.5536H1.99635H2.27913L2.29293 10.4108C2.30501 10.2853 2.3239 10.2664 2.44947 10.2543L2.59227 10.2405V9.97968V9.71882H2.87786H3.16344V9.85063V9.98245H3.44903H3.73462V10.1362V10.29H3.94815C4.06564 10.29 4.25347 10.2774 4.36555 10.2621C4.55413 10.2362 4.56942 10.2247 4.56942 10.1083C4.56942 9.99378 4.58326 9.98245 4.7232 9.98245C4.86309 9.98245 4.87698 9.97111 4.87698 9.85674C4.87698 9.73794 4.88959 9.72955 5.10765 9.70336C5.23449 9.68811 5.43225 9.67546 5.54701 9.67528C5.74952 9.67489 5.75571 9.67098 5.75571 9.54308C5.75571 9.42656 5.77065 9.41127 5.88475 9.41127C5.9982 9.41127 6.01542 9.42849 6.02755 9.55406L6.0413 9.69686L6.46968 9.68706L6.89807 9.67726V9.82985V9.98245H7.18365H7.46924V9.85063C7.46924 9.73345 7.48387 9.71882 7.60105 9.71882C7.71823 9.71882 7.73286 9.73345 7.73286 9.85063C7.73286 9.97511 7.74262 9.98245 7.90861 9.98245C8.07373 9.98245 8.08436 9.97462 8.08436 9.85353C8.08436 9.74562 8.104 9.72238 8.20518 9.71074C8.321 9.69743 8.32654 9.68543 8.3391 9.42225L8.35215 9.14765H8.50387C8.6431 9.14765 8.65554 9.15846 8.65554 9.27946C8.65554 9.39075 8.67263 9.41127 8.76538 9.41127C8.85813 9.41127 8.87522 9.39075 8.87522 9.27946V9.14765H9.18278H9.49033V9.27946V9.41127H9.77592H10.0615V9.56505C10.0615 9.71149 10.0688 9.71882 10.2153 9.71882C10.3569 9.71882 10.3691 9.72928 10.3691 9.85063C10.3691 9.96781 10.3837 9.98245 10.5009 9.98245C10.6222 9.98245 10.6327 9.97023 10.6327 9.82867C10.6327 9.68223 10.64 9.67489 10.7865 9.67489C10.9329 9.67489 10.9402 9.68223 10.9402 9.82867C10.9402 9.97023 10.9507 9.98245 11.0721 9.98245C11.1934 9.98245 11.2039 9.99466 11.2039 10.1362V10.29H11.4895H11.775V10.4218V10.5536H12.0579H12.3406L12.3544 10.6964C12.3665 10.822 12.3854 10.8409 12.511 10.853L12.6538 10.8668V11.1495V11.4324H12.7856C12.9028 11.4324 12.9174 11.447 12.9174 11.5642C12.9174 11.6855 12.9296 11.696 13.0712 11.696C13.2176 11.696 13.225 11.7033 13.225 11.8498V12.0035H13.6643H14.1037V11.8777C14.1037 11.7613 14.119 11.7498 14.3076 11.7239C14.6553 11.6762 14.6749 11.6818 14.6749 11.8278C14.6749 11.945 14.6895 11.9596 14.8067 11.9596C14.918 11.9596 14.9385 11.9425 14.9385 11.8498C14.9385 11.7574 14.9591 11.7399 15.0681 11.7399C15.1937 11.7399 15.1987 11.748 15.2271 11.999L15.2564 12.258L15.5368 12.2881L15.8172 12.3181V12.5754V12.8328L15.96 12.8465C16.0856 12.8586 16.1045 12.8775 16.1166 13.0031L16.1304 13.1459H16.6987H17.2671V13.2777C17.2671 13.3943 17.2821 13.4095 17.3963 13.4095C17.5138 13.4095 17.5267 13.4243 17.5391 13.5743C17.5508 13.7158 17.5692 13.7409 17.6695 13.7526C17.777 13.765 17.7887 13.7864 17.8161 14.0224L17.8458 14.2788L18.1277 14.309C18.4029 14.3385 18.4095 14.3422 18.4095 14.4675V14.5958H18.6951H18.9807V14.7276C18.9807 14.8448 18.9953 14.8594 19.1125 14.8594C19.2338 14.8594 19.2443 14.8716 19.2443 15.0132C19.2443 15.1596 19.2516 15.167 19.3981 15.167C19.5445 15.167 19.5518 15.1743 19.5518 15.3208C19.5518 15.4612 19.5629 15.4745 19.6793 15.4745C19.8025 15.4745 19.8079 15.4835 19.8374 15.7382C19.867 15.9928 19.8724 16.0018 19.9955 16.0018C20.1079 16.0018 20.123 15.9861 20.123 15.87C20.123 15.7534 20.138 15.7382 20.2521 15.7382C20.3655 15.7382 20.3827 15.7209 20.3949 15.5954C20.4113 15.4242 20.474 15.4079 20.9452 15.452C21.2627 15.4818 21.2654 15.4831 21.2654 15.6101V15.7382H21.9903H22.7153V15.5844C22.7153 15.4379 22.7226 15.4306 22.8691 15.4306C23.0106 15.4306 23.0228 15.4201 23.0228 15.2988V15.167H23.5721H24.1213V15.2988V15.4306H24.5105C24.7247 15.4306 24.9916 15.4432 25.1037 15.4585C25.2923 15.4844 25.3076 15.4959 25.3076 15.6123V15.7382H25.8787H26.4499V15.5844C26.4499 15.4428 26.4604 15.4306 26.5817 15.4306C26.6989 15.4306 26.7135 15.416 26.7135 15.2988C26.7135 15.1774 26.7257 15.167 26.8673 15.167C27.0138 15.167 27.0211 15.1596 27.0211 15.0132V14.8594H27.4605H27.8998V14.7276V14.5958H28.3989C28.6735 14.5958 28.9882 14.5835 29.0983 14.5684L29.2985 14.5409L29.3284 14.2828C29.3572 14.0341 29.363 14.0246 29.4859 14.0246C29.6023 14.0246 29.6134 14.0113 29.6134 13.8708V13.7171H30.0527H30.4921V13.8774V14.0378L30.8943 14.0092C31.1155 13.9935 31.3725 13.9807 31.4655 13.9807C31.6239 13.9807 31.6344 13.9725 31.6344 13.8489V13.7171H32.0491H32.4637L32.4775 13.8599C32.4895 13.9854 32.5084 14.0043 32.634 14.0164C32.7591 14.0285 32.7768 14.046 32.7768 14.1576V14.2851L33.2052 14.2976C33.6324 14.3102 33.6336 14.3105 33.6471 14.4268L33.6605 14.5433L34.2072 14.5748L34.754 14.6064V14.7329C34.754 14.8512 34.7653 14.8594 34.9297 14.8594C35.0957 14.8594 35.1054 14.8521 35.1054 14.7276V14.5958H35.3691H35.6327V14.7276C35.6327 14.849 35.6449 14.8594 35.7865 14.8594C35.928 14.8594 35.9402 14.849 35.9402 14.7276C35.9402 14.5817 35.9469 14.5799 36.5334 14.5757C36.7846 14.5739 36.7976 14.5684 36.8104 14.4587C36.8221 14.3579 36.849 14.34 37.0252 14.3159C37.3704 14.2686 37.3902 14.2742 37.3902 14.4201C37.3902 14.5372 37.4048 14.5519 37.522 14.5519C37.6423 14.5519 37.6538 14.5647 37.6538 14.6995C37.6538 14.8444 37.658 14.8477 37.8783 14.8738C38.0018 14.8884 38.1896 14.8885 38.2957 14.8739C38.4706 14.8499 38.4886 14.8362 38.4886 14.7261C38.4886 14.6081 38.497 14.6039 38.7961 14.5738C39.0991 14.5434 39.1037 14.5411 39.1037 14.4156C39.1037 14.2994 39.1171 14.2882 39.2575 14.2882C39.399 14.2882 39.4112 14.2778 39.4112 14.1564C39.4112 14.0248 39.4116 14.0246 39.6721 14.0246H39.9329L39.9467 13.8818C39.9588 13.7563 39.9777 13.7374 40.1032 13.7253C40.2273 13.7133 40.246 13.6953 40.246 13.5876C40.246 13.4675 40.2549 13.4627 40.5316 13.4331C40.8109 13.4032 40.8172 13.3997 40.8172 13.2742V13.1459H41.1028C41.3877 13.1459 41.3884 13.1456 41.3884 13.0202C41.3884 12.9014 41.401 12.893 41.6191 12.8668C41.746 12.8516 41.9338 12.8389 42.0365 12.8387C42.2146 12.8383 42.2232 12.8322 42.2232 12.7065V12.5747H42.5308H42.8383V12.7004C42.8383 12.8192 42.8509 12.8276 43.069 12.8538C43.1958 12.869 43.4529 12.8817 43.6402 12.8819L43.9807 12.8823V13.0141C43.9807 13.1354 43.9929 13.1459 44.1344 13.1459H44.2882V13.5573V13.9687L44.4811 13.9952C44.5872 14.0097 44.7737 14.0098 44.8955 13.9954L45.117 13.9692L45.131 14.1397L45.145 14.3102L45.4196 14.3233C45.6782 14.3356 45.6942 14.3426 45.6942 14.4441C45.6942 14.538 45.714 14.5519 45.848 14.5519C45.9895 14.5519 46.0018 14.5414 46.0018 14.4201C46.0018 14.3029 46.0164 14.2882 46.1336 14.2882C46.2496 14.2882 46.2654 14.273 46.2654 14.1615C46.2654 14.0382 46.2728 14.0341 46.5484 14.0045C46.8136 13.9762 46.8322 13.9669 46.8449 13.8567C46.8562 13.7595 46.8834 13.7366 47.0013 13.7253L47.1441 13.7115V13.4287V13.1459H47.4297H47.7153V12.8603V12.5747H47.8691H48.0228V12.2891V12.0035H48.1547C48.2712 12.0035 48.2865 12.0185 48.2865 12.1326C48.2865 12.246 48.3037 12.2632 48.4293 12.2754C48.5548 12.2875 48.5737 12.3063 48.5858 12.4319L48.5996 12.5747H49.0126H49.4257L49.4382 12.1463L49.4508 11.7179L49.7803 11.713C49.9616 11.7103 50.2125 11.7174 50.338 11.7288C50.5458 11.7476 50.5674 11.7598 50.5797 11.8655C50.5912 11.965 50.6167 11.9835 50.7579 11.9952C50.9079 12.0076 50.9227 12.0205 50.9227 12.138C50.9227 12.2522 50.9379 12.2672 51.0545 12.2672C51.1758 12.2672 51.1863 12.2794 51.1863 12.4209C51.1863 12.5674 51.1936 12.5747 51.3401 12.5747C51.4816 12.5747 51.4938 12.5852 51.4938 12.7065C51.4938 12.8237 51.5085 12.8383 51.6257 12.8383C51.747 12.8383 51.7575 12.8505 51.7575 12.9921V13.1459H52.0431H52.3286V13.0141C52.3286 12.8862 52.3348 12.8823 52.5373 12.8819C52.6521 12.8817 52.8498 12.869 52.9767 12.8538C53.1948 12.8276 53.2074 12.8192 53.2074 12.7004C53.2074 12.59 53.2235 12.5747 53.3392 12.5747C53.4564 12.5747 53.471 12.5893 53.471 12.7065C53.471 12.8237 53.4856 12.8383 53.6028 12.8383C53.72 12.8383 53.7346 12.8237 53.7346 12.7065C53.7346 12.5852 53.7468 12.5747 53.8884 12.5747C54.0292 12.5747 54.0422 12.5856 54.0422 12.7038C54.0422 12.8172 54.0594 12.8344 54.185 12.8465C54.3105 12.8586 54.3294 12.8775 54.3415 13.0031C54.3536 13.1287 54.3709 13.1459 54.4843 13.1459C54.5984 13.1459 54.6134 13.1306 54.6134 13.0141V12.8823H54.8989H55.1845V12.7285C55.1845 12.582 55.1919 12.5747 55.3383 12.5747C55.4848 12.5747 55.4921 12.582 55.4921 12.7285V12.8823L55.8326 12.8819C56.0199 12.8817 56.2769 12.869 56.4038 12.8538C56.6218 12.8276 56.6344 12.8192 56.6344 12.7004C56.6344 12.59 56.6505 12.5747 56.7663 12.5747C56.8876 12.5747 56.8981 12.5625 56.8981 12.4209C56.8981 12.2745 56.9054 12.2672 57.0518 12.2672C57.1934 12.2672 57.2056 12.2567 57.2056 12.1353C57.2056 12.014 57.2178 12.0035 57.3594 12.0035C57.5058 12.0035 57.5132 11.9962 57.5132 11.8498C57.5132 11.7082 57.5236 11.696 57.645 11.696C57.761 11.696 57.7768 11.6808 57.7768 11.5693C57.7768 11.4455 57.7832 11.4421 58.0514 11.4203C58.2025 11.408 58.4842 11.4032 58.6775 11.4095C58.8708 11.4158 59.1328 11.4114 59.2597 11.3997C59.4797 11.3793 59.4903 11.3724 59.4903 11.2516C59.4903 11.136 59.5039 11.1248 59.6441 11.1248C59.7857 11.1248 59.7979 11.1143 59.7979 10.993C59.7979 10.8758 59.8125 10.8612 59.9297 10.8612H60.0615V11.1248V11.3884H60.2153C60.35 11.3884 60.3691 11.3748 60.3691 11.2786C60.3691 11.1864 60.3898 11.1687 60.498 11.1687C60.6059 11.1687 60.6291 11.1884 60.6408 11.2896L60.6547 11.4104L61.3662 11.4168L62.0777 11.4232L62.0911 11.285C62.1045 11.1478 62.1066 11.1467 62.3792 11.1337C62.6511 11.1208 62.6538 11.1193 62.6538 10.9909C62.6538 10.8719 62.6665 10.8612 62.8076 10.8612C62.954 10.8612 62.9613 10.8538 62.9613 10.7074C62.9613 10.5666 62.9722 10.5536 63.0904 10.5536C63.2038 10.5536 63.221 10.5364 63.2332 10.4108C63.2496 10.2397 63.3123 10.2234 63.7835 10.2675C64.101 10.2973 64.1037 10.2986 64.1037 10.4256C64.1037 10.5426 64.1169 10.5536 64.2575 10.5536C64.399 10.5536 64.4112 10.5432 64.4112 10.4218C64.4112 10.3046 64.4259 10.29 64.5431 10.29C64.6644 10.29 64.6749 10.2778 64.6749 10.1362C64.6749 9.98978 64.6822 9.98245 64.8286 9.98245C64.9702 9.98245 64.9824 9.9929 64.9824 10.1143C64.9824 10.2314 64.9971 10.2461 65.1142 10.2461C65.2314 10.2461 65.246 10.2314 65.246 10.1143V9.98245H65.6854H66.1248V9.85063C66.1248 9.73345 66.1394 9.71882 66.2566 9.71882C66.3738 9.71882 66.3884 9.73345 66.3884 9.85063C66.3884 9.97199 66.4006 9.98245 66.5422 9.98245C66.6886 9.98245 66.696 9.97511 66.696 9.82867C66.696 9.6871 66.7064 9.67489 66.8278 9.67489C66.9449 9.67489 66.9596 9.66026 66.9596 9.54308C66.9596 9.42172 66.9718 9.41127 67.1134 9.41127H67.2671V9.12568V8.84009H67.5527C67.8382 8.84009 67.8383 8.84013 67.8383 8.9668C67.8383 9.09026 67.8455 9.09427 68.1239 9.12406C68.4032 9.15398 68.4095 9.15745 68.4095 9.28297V9.41127H68.9807H69.5518V9.53798C69.5518 9.66127 69.5594 9.66544 69.8335 9.69479L70.1151 9.72498L70.145 9.98245L70.1749 10.2399L70.4455 10.2681C70.5944 10.2836 70.8447 10.29 71.0018 10.2822L71.2873 10.268L71.3011 10.1252L71.3149 9.98245H71.7514H72.188V9.85661C72.188 9.74022 72.2033 9.72867 72.3919 9.70283C72.504 9.68746 73.0873 9.67489 73.688 9.67489H74.7803V9.82867V9.98245H75.3295H75.8787V10.268V10.5536H76.0325C76.1737 10.5536 76.1863 10.5429 76.1863 10.4234V10.2932L76.6147 10.2806L77.0431 10.268L77.0568 10.1252C77.0703 9.98592 77.0757 9.98245 77.2814 9.98245C77.3973 9.98245 77.5839 9.99501 77.696 10.0104C77.8731 10.0347 77.8998 10.052 77.8998 10.1422C77.8998 10.2283 77.9224 10.2461 78.0316 10.2461C78.1488 10.2461 78.1634 10.2314 78.1634 10.1143C78.1634 9.9929 78.1757 9.98245 78.3172 9.98245C78.458 9.98245 78.471 9.97159 78.471 9.8534C78.471 9.73996 78.4882 9.72273 78.6138 9.71061C78.7394 9.69852 78.7583 9.67963 78.7703 9.55406L78.7841 9.41127H79.3525H79.9209V9.57102V9.73078L80.1234 9.70301C80.2348 9.68776 80.4326 9.68776 80.5628 9.7031C80.7877 9.7295 80.7996 9.73728 80.7996 9.8567C80.7996 9.96711 80.8157 9.98245 80.9315 9.98245H81.0633V10.4218V10.8612H81.5026H81.942V10.993C81.942 11.1102 81.9566 11.1248 82.0738 11.1248C82.191 11.1248 82.2056 11.1102 82.2056 10.993C82.2056 10.8716 82.2178 10.8612 82.3594 10.8612C82.501 10.8612 82.5132 10.8716 82.5132 10.993C82.5132 11.1102 82.5278 11.1248 82.645 11.1248C82.7622 11.1248 82.7768 11.1102 82.7768 10.993C82.7768 10.8716 82.789 10.8612 82.9306 10.8612C83.0721 10.8612 83.0844 10.8716 83.0844 10.993C83.0844 11.1143 83.0966 11.1248 83.2381 11.1248C83.3797 11.1248 83.3919 11.1353 83.3919 11.2566C83.3919 11.3738 83.4065 11.3884 83.5237 11.3884C83.6409 11.3884 83.6555 11.3738 83.6555 11.2566C83.6555 11.1353 83.6677 11.1248 83.8093 11.1248C83.9492 11.1248 83.9631 11.1361 83.9631 11.2506C83.9631 11.367 83.9784 11.3786 84.167 11.4044C84.279 11.4198 84.4656 11.4324 84.5815 11.4324C84.7872 11.4324 84.7927 11.4289 84.8061 11.2896L84.8199 11.1468H85.391H85.9622L85.9764 11.2951L85.9906 11.4434L86.1912 11.4159C86.3016 11.4008 86.4286 11.3884 86.4736 11.3884C86.5315 11.3884 86.5554 11.3564 86.5554 11.2786C86.5554 11.1858 86.5759 11.1687 86.6872 11.1687H86.819V11.4324V11.696H87.0325C87.15 11.696 87.3367 11.7084 87.4475 11.7236C87.6238 11.7477 87.6507 11.7657 87.6624 11.8664C87.6733 11.9608 87.7015 11.984 87.8185 11.9953C87.9516 12.0081 87.9613 11.9999 87.9613 11.8745V11.7399H88.2469H88.5325V11.8717V12.0035H89.2575H89.9824V0.5H43.6402H0ZM70.4306 9.54308C70.4306 9.66026 70.4159 9.67489 70.2988 9.67489C70.1816 9.67489 70.167 9.66026 70.167 9.54308C70.167 9.4259 70.1816 9.41127 70.2988 9.41127C70.4159 9.41127 70.4306 9.4259 70.4306 9.54308Z" fill="#152517"/>
</svg>
