<svg width="500" height="60" viewBox="0 0 500 60" fill="none" xmlns="http://www.w3.org/2000/svg">
<path fill-rule="evenodd" clip-rule="evenodd" d="M0 0C0 61.168 2.38414 36.6394 2.65957 36.6394C2.8877 36.6394 3.07436 36.8468 3.07436 37.1004C3.07436 37.6589 3.75089 37.7121 4.04872 37.1773C4.17855 36.9446 4.37478 37.0657 4.5465 37.4847C4.70247 37.8649 5.12595 38.1763 5.48724 38.1763C6.02896 38.1763 6.04765 38.2433 5.59428 38.5605C5.15459 38.8678 5.00648 38.8678 4.85466 38.5605C4.59998 38.0456 3.56842 38.0736 2.83755 38.6155C2.03367 39.2109 2.09171 39.4058 3.07436 39.4058C3.53064 39.4058 3.90395 39.2662 3.90395 39.0959C3.90395 38.9127 4.24865 38.9441 4.74641 39.1727C5.44202 39.4921 5.66396 39.4792 6.02234 39.0984C6.34837 38.7517 6.50807 38.7326 6.6661 39.0215C6.9154 39.4761 8.88151 39.5444 8.88151 39.0984C8.88151 38.9293 9.13995 38.791 9.45519 38.791C9.77085 38.791 10.157 38.4796 10.313 38.0994C10.4847 37.6805 10.6809 37.5593 10.8107 37.792C11.1695 38.4363 11.7851 38.2205 11.7851 37.4505C11.7851 36.8425 11.9531 36.7485 12.8183 36.8711C13.5956 36.9811 14.1614 36.7722 15.0997 36.0274C16.2221 35.1369 16.3478 35.1025 16.3478 35.6847C16.3478 36.0677 16.6133 36.332 16.9978 36.332C17.4524 36.332 17.5715 36.1528 17.3927 35.736C17.216 35.3235 17.3989 35.0361 17.9871 34.8031C18.5562 34.5771 18.8366 34.5711 18.8366 34.7844C18.8366 34.9593 19.027 35.1025 19.2593 35.1025C19.5032 35.1025 19.5716 34.7773 19.4219 34.334C19.2191 33.7362 19.3207 33.5656 19.8794 33.5656C20.5008 33.5656 20.5211 33.6347 20.0279 34.0798C19.5211 34.5381 19.5608 34.5751 20.3921 34.4161C21.0317 34.2941 21.3254 34.374 21.3254 34.6703C21.3254 34.9079 21.1387 35.1025 20.9106 35.1025C20.6825 35.1025 20.4958 35.2408 20.4958 35.4099C20.4958 35.5789 20.8533 35.7172 21.291 35.7172C21.7282 35.7172 22.1691 35.89 22.2711 36.1015C22.3786 36.3249 22.61 36.3717 22.8241 36.213C23.0381 36.0544 22.975 35.8829 22.6735 35.8033C22.3885 35.7277 22.155 35.4511 22.155 35.1886C22.155 34.8412 22.4528 34.9319 23.2484 35.5218C24.3646 36.3486 26.0972 36.6431 25.7869 35.953C25.5318 35.3859 27.4154 34.7908 28.8116 34.9979C30.0344 35.179 30.5509 34.7143 29.5176 34.3626C29.2326 34.2655 29.4189 34.2634 29.9324 34.3578C30.4936 34.4607 30.8657 34.3881 30.8657 34.1754C30.8657 33.9808 31.0971 33.8788 31.38 33.9489C31.6986 34.0276 31.8442 34.5044 31.7629 35.2039C31.6861 35.8648 31.8168 36.332 32.0781 36.332C32.3241 36.332 32.5307 36.0898 32.5381 35.7941C32.5498 35.313 32.6203 35.3213 33.2006 35.8709C33.8186 36.4559 33.8365 36.4371 33.5694 35.4867C33.4151 34.9374 33.4101 34.4877 33.5586 34.4877C33.9597 34.4877 34.8519 35.2039 35.0784 35.7077C35.1953 35.9671 35.3824 36.0212 35.5338 35.8396C35.6753 35.6699 35.243 35.0963 34.5727 34.5649C33.9028 34.0337 33.3545 33.4531 33.3545 33.2748C33.3545 32.8125 34.1812 32.8715 34.1973 33.3351C34.2056 33.5776 34.4056 33.529 34.7395 33.2035C35.0688 32.8829 35.4749 32.7821 35.8134 32.937C36.2419 33.1335 36.2066 33.249 35.6487 33.4805C35.0008 33.7491 34.9967 33.8164 35.5989 34.2628C35.9615 34.5314 36.258 34.8993 36.258 35.0806C36.258 35.542 36.4335 35.51 38.8111 34.6174C40.3206 34.0506 41.0489 33.919 41.3692 34.1563C41.689 34.3933 41.4974 34.4877 40.6964 34.4877C40.0804 34.4877 39.5764 34.6261 39.5764 34.7951C39.5764 34.9642 39.9497 35.1025 40.406 35.1025C41.321 35.1025 41.5359 35.5866 40.7171 35.8033C40.4155 35.8829 40.3525 36.0544 40.5665 36.213C40.7805 36.3717 41.012 36.3249 41.1194 36.1015C41.3389 35.6465 42.8948 35.5792 42.8948 36.0246C42.8948 36.5361 44.4461 36.3689 44.7269 35.827C44.8705 35.5491 44.8904 35.2494 44.7713 35.1609C44.6519 35.0723 44.554 35.1615 44.554 35.3585C44.554 35.5559 44.1806 35.7172 43.7244 35.7172C43.0926 35.7172 42.8981 35.5156 42.908 34.872C42.9205 34.0725 42.9533 34.0584 43.5145 34.6076C44.072 35.1529 44.1711 35.1579 45.1459 34.6845C46.4413 34.0553 47.4575 34.0365 47.4575 34.6414C47.4575 35.1993 46.7706 35.2553 46.5118 34.7183C46.4102 34.5071 46.1812 34.4346 46.0033 34.5572C45.4727 34.9233 46.6533 35.7172 47.7288 35.7172C48.979 35.7172 49.4108 34.9691 48.5348 34.3199C47.6625 33.6735 47.6981 33.5893 48.7571 33.7946C49.2441 33.889 49.7323 34.2218 49.8426 34.5341C50.0741 35.191 50.1529 35.2067 51.1766 34.8007C51.7548 34.5714 52.0004 34.6205 52.1999 35.006C52.4052 35.4022 52.5716 35.4317 52.9636 35.1412C53.356 34.8504 53.3302 34.7002 52.8466 34.4515C52.3804 34.212 52.3554 34.0952 52.7462 33.9778C53.0312 33.8921 53.2647 33.695 53.2647 33.5401C53.2647 33.1466 51.7071 33.1857 51.5283 33.5832C51.3599 33.9575 49.9463 33.6379 49.9463 33.2254C49.9463 33.0744 50.3665 32.9465 50.8796 32.941C52.1659 32.9275 53.4244 32.1651 53.1224 31.5824C52.9341 31.2187 53.1664 31.1066 54.1071 31.1066C55.1989 31.1066 55.3387 31.2111 55.3387 32.0287C55.3387 32.5359 55.5253 32.9508 55.7535 32.9508C55.9816 32.9508 56.1683 33.2192 56.1683 33.5474C56.1683 33.8757 56.3549 34.2295 56.583 34.334C56.8112 34.4386 56.9978 34.9307 56.9978 35.428C56.9978 36.3379 57.5359 36.6231 58.0622 35.9917C58.2651 35.7486 58.4343 35.7575 58.6562 36.0234C58.8885 36.3019 59.1818 36.3099 59.8234 36.0557C60.3884 35.8316 60.7684 35.8208 60.9376 36.0237C61.3677 36.5392 62.929 36.4002 62.6549 35.8709C62.5238 35.6173 62.5972 35.4099 62.8179 35.4099C63.0389 35.4099 63.2198 35.6173 63.2198 35.8709C63.2198 36.1549 63.6089 36.332 64.2323 36.332C64.7894 36.332 65.3701 36.4823 65.5236 36.6661C65.6767 36.8499 66.1478 36.9332 66.5701 36.8514C67.0144 36.7654 67.8253 37.0132 68.4935 37.4392C69.129 37.844 69.8026 38.1756 69.9897 38.176C70.363 38.1763 71.5157 38.9595 71.5157 39.2124C71.5157 39.2994 71.0968 39.3108 70.5845 39.2377C70.0726 39.1645 69.3231 39.1823 68.9195 39.2773C67.6369 39.5791 68.5922 40.0205 70.5277 40.0205C71.8306 40.0205 72.3051 40.1274 72.0989 40.3746C71.9367 40.5691 72.1478 40.9149 72.5684 41.143C72.9895 41.3708 73.111 41.5574 72.8393 41.5574C72.5676 41.5574 72.3453 41.6957 72.3453 41.8648C72.3453 42.5106 73.9489 42.1648 74.1265 41.4806C74.2256 41.1003 74.3318 41.377 74.3629 42.0953C74.394 42.8136 74.6059 43.4017 74.8341 43.4017C75.0622 43.4017 75.2489 43.2633 75.2489 43.0943C75.2489 42.6507 76.794 42.7153 77.081 43.1711C77.2743 43.4782 77.3714 43.4782 77.5647 43.1717C77.714 42.9344 78.1943 42.86 78.8223 42.9768C79.5557 43.1133 80.0497 42.9852 80.5993 42.5152C81.4969 41.7483 81.8856 41.6911 81.8856 42.3258C81.8856 42.5794 82.0723 42.7869 82.3004 42.7869C82.5285 42.7869 82.7152 42.5794 82.7152 42.3258C82.7152 41.8343 84.211 41.6994 85.087 42.1122C85.3649 42.2428 85.6374 42.7893 85.6926 43.3266C85.7797 44.1737 85.917 44.2801 86.7309 44.1286C87.3311 44.017 87.9337 44.1529 88.4062 44.5061C89.1142 45.0351 89.1134 45.0492 88.388 44.8454C87.5928 44.6223 86.1203 45.4128 86.6288 45.7897C86.7827 45.9034 87.0992 45.793 87.3323 45.5444C87.6529 45.2023 87.8072 45.1857 87.9661 45.4764C88.0976 45.7165 89.0093 45.8607 90.3956 45.8607C92.2501 45.8607 92.6574 45.9615 92.8777 46.4754C93.0515 46.8809 93.5198 47.0969 94.2536 47.1095C95.2877 47.1277 95.3039 47.1479 94.4846 47.3929C93.8135 47.5939 93.6513 47.8463 93.8068 48.4494C93.9587 49.0368 93.8379 49.2418 93.341 49.2418C92.9469 49.2418 92.6703 48.9882 92.6703 48.6271C92.6703 48.2856 92.3936 48.0123 92.0481 48.0123C91.1658 48.0123 91.2774 48.7036 92.2601 49.3273C93.2942 49.9832 94.3295 50.0124 94.3295 49.386C94.3295 49.1269 94.5979 48.8388 94.9256 48.7457C95.2532 48.6526 95.4295 48.3984 95.3167 48.1811C95.0662 47.6973 96.5126 47.3723 97.2907 47.7378C97.701 47.9305 97.5906 48.0043 96.8875 48.0077C96.2898 48.0104 95.9924 48.1592 96.1098 48.3965C96.2981 48.7771 96.4412 48.7912 97.6479 48.5465C97.9901 48.4771 98.1298 48.4786 97.959 48.5493C97.3836 48.7878 97.6412 49.3094 98.2489 49.1367C98.6508 49.0223 98.7736 49.1133 98.6193 49.4112C98.4924 49.6562 98.222 49.8566 98.0183 49.8566C97.2119 49.8566 97.7084 50.471 98.657 50.6474C99.3025 50.7673 99.5858 50.9914 99.4422 51.2681C99.307 51.5296 99.4821 51.7008 99.8849 51.7008C100.252 51.7008 100.551 51.8391 100.551 52.0082C100.551 52.1773 100.271 52.3156 99.9292 52.3156C99.587 52.3156 99.307 52.4539 99.307 52.623C99.307 52.792 99.9603 52.9303 100.759 52.9303C101.557 52.9303 102.211 53.0687 102.211 53.2377C102.211 53.4068 101.733 53.5451 101.149 53.5451C100.547 53.5451 100.198 53.6782 100.344 53.8525C100.485 54.0215 101.121 54.1598 101.756 54.1598C103.394 54.1598 104.434 55.1063 104.087 56.2792C103.935 56.7913 104.005 57.4574 104.243 57.7598C104.579 58.1877 104.677 57.9222 104.687 56.5602C104.694 55.5981 104.511 54.7248 104.281 54.6194C103.737 54.3698 104.83 53.5451 105.707 53.5451C106.478 53.5451 106.61 54.7693 105.84 54.7853C105.555 54.7915 105.788 54.9941 106.359 55.2357C107.495 55.717 108.599 55.8627 107.615 55.4014C107.279 55.244 107.135 55.019 107.294 54.9013C107.674 54.6191 108.847 55.3512 108.847 55.8707C108.847 56.0938 109.238 56.4796 109.717 56.728C110.306 57.0338 110.6 57.5352 110.629 58.2824C110.652 58.8889 110.821 59.3852 111.003 59.3852C111.186 59.3852 111.336 59.2414 111.336 59.0659C111.336 58.8904 111.745 59.0287 112.244 59.3732C113.208 60.0387 114.24 60.2038 114.24 59.6926C114.24 59.5236 114.602 59.3852 115.045 59.3852C115.488 59.3852 115.965 59.5236 116.106 59.6926C116.247 59.8617 116.631 60 116.96 60C117.289 60 117.558 59.8617 117.558 59.6926C117.558 59.5236 117.174 59.3852 116.704 59.3852C115.97 59.3852 115.867 59.2224 115.978 58.2351C116.068 57.4313 116.325 57.0544 116.832 56.9831C117.375 56.9069 117.558 57.0858 117.558 57.6929C117.558 58.3648 117.701 58.4708 118.388 58.3094C119.035 58.1573 119.217 58.2541 119.217 58.7499C119.217 59.298 119.474 59.3852 121.084 59.3852C122.11 59.3852 122.95 59.2469 122.95 59.0779C122.95 58.9088 122.297 58.7705 121.499 58.7705C119.995 58.7705 119.71 58.528 120.515 57.932C120.988 57.5809 122.386 57.9452 123.01 58.5824C123.157 58.7324 123.717 58.5497 124.255 58.1769C125.229 57.5004 125.232 57.5005 125.365 58.1346C125.443 58.5127 125.808 58.7705 126.263 58.7705C126.684 58.7705 127.112 58.9435 127.215 59.1547C127.316 59.3662 127.56 59.4277 127.755 59.2918C127.951 59.1557 127.837 58.903 127.501 58.7303C127.039 58.4927 127.017 58.3783 127.409 58.2606C128.256 58.0058 128 57.5432 126.995 57.5137C126.448 57.4974 126.835 57.3277 127.93 57.1036C128.958 56.8931 130.241 56.5457 130.781 56.3314C131.321 56.1175 132.273 56.0179 132.896 56.1101C133.519 56.2027 134.242 56.1206 134.502 55.9276C134.856 55.6654 135.188 55.7469 135.823 56.2519C136.755 56.9933 138.11 57.1435 138.438 56.542C138.605 56.2346 138.654 56.2346 138.68 56.542C138.699 56.7599 139.259 56.9262 139.975 56.9262C140.92 56.9262 141.207 57.0535 141.116 57.4322C141.049 57.7107 141.228 57.9987 141.513 58.0727C141.797 58.1465 142.031 58.0571 142.031 57.8739C142.031 57.6907 142.311 57.541 142.653 57.541C142.995 57.541 143.275 57.675 143.275 57.8388C143.275 58.0024 143.555 58.0568 143.898 57.9597C144.292 57.8475 144.52 57.9636 144.52 58.2766C144.52 58.5483 144.706 58.7705 144.935 58.7705C145.163 58.7705 145.349 58.5086 145.349 58.1886C145.349 57.8686 145.62 57.5299 145.95 57.4359C146.374 57.3154 146.475 57.4125 146.293 57.7639C146.088 58.1607 146.198 58.2111 146.833 58.011C147.272 57.8727 147.929 57.75 148.294 57.738C148.727 57.7242 148.89 57.5216 148.761 57.158C148.587 56.6646 148.758 56.6222 150.223 56.7959C151.264 56.9191 151.988 56.8657 152.166 56.652C152.322 56.4645 152.999 56.3115 153.67 56.3115C155.083 56.3115 155.353 55.7087 153.956 55.6724C153.443 55.6592 153.257 55.5784 153.542 55.4932C153.827 55.4078 154.06 55.1422 154.06 54.9028C154.06 54.4282 154.101 54.4158 155.927 54.3282C156.611 54.2957 157.3 54.4128 157.459 54.5886C157.635 54.7847 158.098 54.6151 158.655 54.15C159.155 53.7329 159.477 53.5976 159.371 53.8497C158.99 54.7558 160.144 55.1327 162.77 54.9597C164.248 54.8622 165.26 54.916 165.26 55.0924C165.26 55.2556 165.446 55.3893 165.674 55.3893C165.903 55.3893 166.089 55.1819 166.089 54.9283C166.089 54.6747 165.903 54.4672 165.674 54.4672C165.446 54.4672 165.26 54.2597 165.26 54.0062C165.26 53.7526 165.073 53.5451 164.845 53.5451C164.617 53.5451 164.43 53.6834 164.43 53.8525C164.43 54.0215 164.243 54.1598 164.015 54.1598C163.787 54.1598 163.6 53.7449 163.6 53.2377C163.6 52.1653 164.004 52.0657 164.845 52.9303C165.174 53.2684 165.759 53.5451 166.146 53.5451C166.533 53.5451 166.924 53.711 167.016 53.9142C167.145 54.2013 167.25 54.2013 167.49 53.9142C167.659 53.711 167.599 53.5451 167.358 53.5451C166.74 53.5451 166.808 52.4001 167.437 52.2107C167.829 52.0933 167.804 51.9682 167.334 51.7008C166.864 51.4334 166.838 51.3083 167.23 51.1909C167.515 51.1052 167.748 50.822 167.748 50.5617C167.748 50.1824 167.868 50.1624 168.352 50.4602C168.685 50.6643 169.151 50.7424 169.389 50.6333C169.627 50.5241 169.822 50.5989 169.822 50.799C169.822 51.0482 170.247 51.0959 171.17 50.9502C171.912 50.8331 173.638 50.6699 175.007 50.5872C176.376 50.5048 178.09 50.3204 178.816 50.1775C179.809 49.982 180.19 50.0241 180.358 50.3484C180.481 50.5851 180.867 50.7787 181.216 50.7787C181.649 50.7787 181.851 51.0799 181.851 51.7227C181.851 52.8741 182.68 53.5451 184.103 53.5451C184.964 53.5451 185.17 53.6929 185.17 54.3135C185.17 55.2 185.398 55.2642 186.266 54.6209C186.608 54.3673 187.202 54.162 187.584 54.1645C188.142 54.1685 188.167 54.2229 187.709 54.4377C187.395 54.5853 187.271 54.8665 187.435 55.0626C187.657 55.3285 187.876 55.3307 188.298 55.0715C188.609 54.8804 189.244 54.8133 189.71 54.923C190.4 55.085 190.507 55.0183 190.288 54.564C190.075 54.1245 190.196 54.1528 190.857 54.6978C191.836 55.5046 192.221 55.5698 192.221 54.9283C192.221 54.6747 192.455 54.465 192.74 54.4626C193.091 54.4592 193.061 54.3655 192.648 54.1718C192.313 54.0145 192.183 53.7787 192.359 53.6474C192.537 53.5165 192.826 53.5829 193.003 53.795C193.18 54.0071 193.636 54.0919 194.017 53.9837C194.494 53.8479 194.71 53.9468 194.71 54.3012C194.71 54.6762 194.484 54.7629 193.881 54.6209C193.405 54.509 193.051 54.5656 193.051 54.754C193.051 54.9345 193.316 55.082 193.639 55.082C194.655 55.082 195.54 54.7245 195.54 54.3135C195.54 54.0962 195.84 53.8328 196.208 53.7283C196.736 53.5783 196.827 53.6846 196.641 54.2333C196.422 54.8825 196.541 54.9298 198.445 54.9504C199.966 54.967 200.529 54.8499 200.66 54.4894C200.814 54.0664 200.842 54.0689 200.884 54.5081C200.942 55.1136 203.072 55.492 203.523 54.9771C203.751 54.7171 203.938 54.7381 204.213 55.055C204.533 55.4238 204.689 55.4154 205.25 55.0002C205.993 54.4494 206.12 53.8525 205.495 53.8525C205.267 53.8525 205.08 53.6281 205.08 53.3539C205.08 52.9592 205.202 52.9303 205.665 53.215C206.072 53.4652 206.334 53.4753 206.524 53.2475C206.674 53.0677 206.99 53.009 207.227 53.1175C207.517 53.2503 207.503 53.385 207.186 53.5307C206.84 53.6887 206.864 53.9613 207.277 54.5505L207.84 55.3543L208.627 54.6802C209.331 54.0771 209.429 54.063 209.559 54.5441C209.736 55.2006 210.472 55.2624 210.472 54.6209C210.472 53.9035 212.535 54.0563 213.454 54.8416C214.083 55.3789 214.325 55.4355 214.597 55.1097C214.787 54.8819 215.15 54.7909 215.403 54.9071C216.097 55.2249 215.958 54.58 215.213 54.028C214.62 53.5891 214.636 53.5451 215.386 53.5451C215.839 53.5451 216.32 53.372 216.454 53.1609C216.589 52.9497 216.63 53.1572 216.546 53.6219C216.463 54.087 216.555 54.4672 216.752 54.4672C216.948 54.4672 217.109 54.683 217.109 54.9464C217.109 55.2099 217.305 55.3359 217.544 55.2264C217.84 55.0906 217.845 54.9071 217.556 54.6495C216.981 54.1365 218.139 52.9303 219.207 52.9303C220.125 52.9303 220.241 52.6076 219.515 52.0697C219.128 51.7829 219.174 51.7008 219.722 51.7008C220.11 51.7008 220.427 51.8391 220.427 52.0082C220.427 52.4717 221.233 52.3773 221.976 51.8265C222.501 51.4377 222.526 51.2874 222.099 51.0919C221.704 50.9109 221.796 50.791 222.447 50.6379C222.933 50.5236 223.331 50.2838 223.331 50.1056C223.331 49.9064 223.575 49.9313 223.963 50.1701C224.311 50.384 224.726 50.4624 224.884 50.3446C225.043 50.2269 224.899 50.0019 224.563 49.8446C224.228 49.6872 224.14 49.5449 224.368 49.5283C224.596 49.5117 225.249 49.4594 225.82 49.4121C226.39 49.3648 226.97 49.457 227.11 49.6165C227.265 49.7948 228.022 49.7607 229.066 49.5289C230.785 49.1472 231.038 48.6271 229.504 48.6271C229.048 48.6271 228.79 48.4887 228.931 48.3197C229.072 48.1506 229.663 48.0123 230.244 48.0123C230.986 48.0123 231.234 47.8826 231.075 47.5762C230.677 46.8068 232.209 45.8607 233.853 45.8607C234.779 45.8607 235.363 45.7125 235.366 45.4764C235.371 45.2201 235.503 45.2447 235.764 45.5508C236.076 45.916 236.26 45.9313 236.67 45.6277C237.285 45.1718 239.093 45.1162 239.093 45.5533C239.093 45.7224 239.467 45.8607 239.923 45.8607C240.379 45.8607 240.752 45.999 240.752 46.168C240.752 46.3371 240.566 46.4754 240.338 46.4754C240.11 46.4754 239.923 46.8212 239.923 47.2439C239.923 47.8073 240.144 48.0123 240.752 48.0123C241.209 48.0123 241.582 47.874 241.582 47.7049C241.582 47.5359 241.382 47.3976 241.138 47.3976C240.893 47.3976 240.986 47.1802 241.345 46.9147C241.924 46.4852 242.066 46.4828 242.619 46.8925C242.961 47.1461 243.241 47.6705 243.241 48.0578C243.241 48.4684 243.804 49.1265 244.589 49.6356C245.743 50.3834 246.187 50.4858 247.67 50.3456C249.166 50.2042 249.575 50.302 250.677 51.0649C251.378 51.5503 251.952 52.1686 251.952 52.4388C251.952 52.7093 252.139 52.9303 252.367 52.9303C252.595 52.9303 252.782 53.1836 252.782 53.4932C252.782 53.8027 253.236 54.2364 253.792 54.4568C254.659 54.8007 254.903 54.7835 255.508 54.3354C256.034 53.9453 256.093 53.7243 255.742 53.464C255.39 53.2033 255.27 53.2082 255.27 53.4836C255.27 53.6865 255.084 53.8525 254.856 53.8525C254.627 53.8525 254.441 53.645 254.441 53.3914C254.441 53.1378 254.798 52.9303 255.236 52.9303C255.673 52.9303 256.125 52.7576 256.24 52.5461C256.407 52.2387 256.456 52.2387 256.482 52.5461C256.521 52.9989 257.759 53.0736 257.759 52.623C257.759 52.4539 258.039 52.3156 258.381 52.3156C258.724 52.3156 259.004 52.1773 259.004 52.0082C259.004 51.8391 259.563 51.7008 260.248 51.7008C261.216 51.7008 261.492 51.5644 261.492 51.0861C261.492 50.748 261.679 50.4713 261.907 50.4713C262.135 50.4713 262.322 50.6096 262.322 50.7787C262.322 50.9478 262.546 51.0861 262.82 51.0861C263.207 51.0861 263.207 51.004 262.82 50.7172C262.546 50.5144 262.322 50.2377 262.322 50.1025C262.322 49.7189 263.893 49.8139 264.07 50.2079C264.188 50.4698 264.461 50.467 265.142 50.1971C265.733 49.9626 266.055 49.9473 266.055 50.1532C266.055 50.3281 266.335 50.4713 266.677 50.4713C267.019 50.4713 267.299 50.333 267.299 50.1639C267.299 49.9949 267.113 49.8566 266.885 49.8566C266.117 49.8566 266.462 48.9839 267.458 48.403C268.333 47.893 268.38 47.7606 267.873 47.2463C267.557 46.9267 267.299 46.4674 267.299 46.2252C267.299 45.8508 267.401 45.8484 267.986 46.2074C268.363 46.4391 268.742 46.5996 268.83 46.5634C269.213 46.4038 270.203 45.581 270.203 45.4214C270.203 45.0729 268.607 45.2551 268.378 45.6301C268.249 45.8416 268.189 45.7393 268.245 45.403C268.389 44.5316 269.696 44.4584 270.645 45.2693C271.089 45.6486 271.591 45.849 271.761 45.714C271.931 45.5794 271.836 45.4073 271.551 45.332C271.266 45.2564 271.033 45.0679 271.033 44.913C271.033 44.4145 272.093 44.6121 273.082 45.2951C273.9 45.86 274.168 45.9015 274.875 45.5739C275.518 45.2766 275.776 45.273 276.014 45.5579C276.234 45.822 276.402 45.8299 276.605 45.5862C276.761 45.399 276.691 45.2459 276.449 45.2459C276.208 45.2459 276.01 44.7762 276.01 44.2021C276.01 43.2907 276.264 43.0374 278.017 42.2041C280.816 40.8732 281.609 40.9368 282.157 42.5379C282.4 43.2461 282.504 43.9386 282.389 44.077C282.098 44.4258 283.277 45.2459 284.069 45.2459C284.83 45.2459 284.956 44.4329 284.224 44.2522C283.917 44.1766 284.006 44.0496 284.452 43.9227C284.889 43.7985 285.077 43.8378 284.924 44.0223C284.783 44.1904 284.976 44.4157 285.351 44.5224C285.817 44.6548 285.884 44.7857 285.561 44.9336C285.033 45.1752 285.412 46.7828 285.997 46.7828C286.193 46.7828 286.247 46.5753 286.115 46.3217C285.8 45.7122 286.271 45.7362 287.132 46.374C287.636 46.7471 287.684 46.9217 287.31 47.0142C286.7 47.1648 286.607 49.2418 287.21 49.2418C287.622 49.2418 287.784 48.8232 287.656 48.0892C287.618 47.878 287.783 47.7049 288.021 47.7049C288.259 47.7049 288.454 47.8977 288.454 48.1331C288.454 48.4903 289.277 48.9344 289.94 48.9344C290.035 48.9344 290.113 48.5886 290.113 48.166C290.113 47.7434 290.3 47.3976 290.528 47.3976C290.756 47.3976 290.943 47.1901 290.943 46.9365C290.943 46.6602 291.317 46.4794 291.876 46.4856L292.809 46.496L291.909 47.053C290.961 47.64 290.814 47.9634 290.894 49.2898C290.933 49.9479 291.104 50.0751 291.772 49.9457C292.62 49.7816 292.938 49.2418 292.187 49.2418C291.959 49.2418 291.772 48.9652 291.772 48.6271C291.772 48.2889 291.959 48.0123 292.187 48.0123C292.415 48.0123 292.602 47.8048 292.602 47.5512C292.602 47.2426 293.018 47.0902 293.861 47.0902C294.991 47.0902 295.075 47.0275 294.676 46.4754C294.281 45.928 294.361 45.8607 295.408 45.8607C296.055 45.8607 296.831 45.6879 297.134 45.4764C297.573 45.1691 297.721 45.1691 297.873 45.4764C297.984 45.7011 298.792 45.8607 299.817 45.8607C300.998 45.8607 301.862 46.0617 302.462 46.4754C303.621 47.2758 304.521 47.2528 305.489 46.3986C306.162 45.8053 306.334 45.7725 306.697 46.168C307.051 46.5538 307.18 46.5602 307.487 46.2071C307.765 45.8871 308.574 45.8247 310.833 45.9482C313.162 46.0755 313.861 46.0168 314.036 45.6784C314.291 45.1869 315.416 45.0849 315.416 45.5533C315.416 45.7224 315.802 45.8607 316.273 45.8607C316.971 45.8607 317.077 45.7316 316.845 45.1691C316.561 44.4827 316.565 44.483 317.442 45.2182C317.927 45.6258 318.435 45.877 318.571 45.7765C318.707 45.6763 318.428 45.2837 317.951 44.9044C317.474 44.5251 317.201 44.1357 317.343 44.0388C317.486 43.942 317.687 44.0358 317.788 44.2469C318.047 44.7839 318.734 44.728 318.734 44.1701C318.734 43.9165 318.921 43.709 319.149 43.709C319.377 43.709 319.564 43.9857 319.564 44.3238C319.564 44.6619 319.75 44.9385 319.979 44.9385C320.207 44.9385 320.393 44.5927 320.393 44.1701C320.393 43.7475 320.207 43.4017 319.979 43.4017C319.117 43.4017 319.612 42.8226 320.808 42.4304C321.493 42.2057 322.053 41.8724 322.053 41.6895C322.053 41.5067 322.483 41.0573 323.009 40.6909C323.751 40.1752 324.078 40.1075 324.461 40.3915C324.844 40.6755 324.956 40.6749 324.956 40.3893C324.956 40.1865 325.331 40.0205 325.789 40.0205C326.515 40.0205 326.556 40.0986 326.111 40.6276C325.707 41.1068 325.706 41.314 326.107 41.6112C326.508 41.9084 326.615 41.8451 326.615 41.3115C326.615 40.765 326.854 40.6353 327.86 40.6353C328.544 40.6353 329.104 40.4969 329.104 40.3279C329.104 40.1588 329.462 40.0205 329.899 40.0205C330.336 40.0205 330.788 39.8475 330.903 39.6363C331.071 39.3289 331.119 39.3289 331.145 39.6363C331.188 40.1355 332.297 40.1355 332.541 39.6363C332.691 39.3289 332.904 39.3289 333.607 39.6363C334.09 39.8475 335.034 40.0205 335.706 40.0205C336.377 40.0205 337.205 40.2277 337.547 40.4807C337.889 40.734 338.464 40.8566 338.826 40.7536C339.188 40.6506 339.739 40.7226 340.049 40.9135C340.736 41.3361 341.963 41.0383 341.963 40.4487C341.963 40.2133 342.32 40.0205 342.758 40.0205C343.195 40.0205 343.647 39.8475 343.762 39.6363C343.929 39.3289 343.978 39.3289 344.004 39.6363C344.022 39.8478 344.328 40.0205 344.683 40.0205C345.043 40.0205 345.206 40.1686 345.051 40.3546C344.871 40.571 344.63 40.5834 344.37 40.3903C343.844 40.0009 342.292 40.303 342.516 40.7511C342.611 40.9411 342.918 41.057 343.198 41.0091C343.478 40.9608 344.339 40.9039 345.111 40.8824C346.303 40.8492 346.438 40.7742 346.005 40.3875C345.573 40.0011 345.637 39.9651 346.425 40.1505C347.385 40.3764 347.781 39.8751 346.837 39.6295C346.552 39.5555 346.821 39.4921 347.436 39.4888C348.681 39.482 349.844 38.7843 349.844 38.0444C349.844 37.4638 350.502 37.402 350.789 37.9558C351.033 38.4261 349.93 39.5063 348.911 39.7952C347.905 40.0805 348.003 40.5274 349.118 40.749C350.52 41.0272 350.891 40.9811 350.368 40.5935C350.017 40.3331 350.053 40.1287 350.513 39.7885C350.851 39.5377 351.259 39.4371 351.419 39.565C351.579 39.6929 351.488 39.8564 351.215 39.929C350.564 40.1017 351.011 40.9426 351.755 40.9426C352.451 40.9426 352.491 40.5077 351.875 39.6539C351.524 39.1676 351.548 38.9579 351.979 38.752C352.34 38.5792 352.39 38.4016 352.12 38.2531C351.559 37.9454 351.475 36.332 352.02 36.332C352.255 36.332 352.669 36.1082 352.939 35.8347C353.304 35.4649 353.769 35.392 354.748 35.5515C355.473 35.6696 356.066 35.882 356.066 36.0234C356.066 36.3612 358.551 36.209 359.601 35.8073C360.486 35.4683 361.463 35.6066 362.004 36.1475C362.196 36.3396 362.238 36.2096 362.102 35.8469C361.905 35.3225 362.123 35.1486 363.319 34.8766C364.138 34.6906 364.776 34.6672 364.776 34.824C364.776 34.9771 364.403 35.1025 363.947 35.1025C363.491 35.1025 363.117 35.2408 363.117 35.4099C363.117 35.838 364.506 35.795 365.108 35.3484C365.495 35.0616 365.606 35.0868 365.606 35.4618C365.606 35.7799 366.129 36.0071 367.14 36.1285C368.783 36.3261 369.448 36.1469 368.566 35.7434C368.14 35.5479 368.165 35.4559 368.682 35.3087C369.468 35.0852 369.544 34.5849 368.821 34.4014C368.536 34.3291 368.701 34.3177 369.188 34.3758C369.675 34.4342 370.305 34.2756 370.587 34.0236C370.869 33.7718 371.453 33.5656 371.885 33.5656C373.259 33.5656 375.976 32.815 375.976 32.4354C375.976 32.234 375.463 32.0118 374.835 31.9414L373.695 31.8136L374.835 31.7674C375.463 31.7419 375.976 31.583 375.976 31.414C375.976 31.2449 376.334 31.1066 376.771 31.1066C377.208 31.1066 377.675 30.9338 377.808 30.7224C378.001 30.415 378.099 30.415 378.292 30.7224C378.425 30.9335 378.798 31.1066 379.121 31.1066C379.445 31.1066 379.709 31.2449 379.709 31.414C379.709 31.583 380.176 31.7213 380.746 31.7213C381.316 31.7213 381.783 31.6036 381.783 31.4597C381.783 31.3159 382.436 31.3497 383.235 31.5351C384.17 31.7521 384.687 32.0638 384.687 32.4114C384.687 32.7081 384.523 32.9508 384.324 32.9508C384.124 32.9508 383.961 33.2966 383.961 33.7193C383.961 34.2658 384.186 34.4877 384.739 34.4877C385.166 34.4877 385.516 34.2803 385.516 34.0267C385.516 33.7731 385.703 33.5656 385.931 33.5656C386.693 33.5656 386.358 34.2551 385.255 34.9574L384.163 35.6524L385.082 36.0173C385.588 36.2177 386.111 36.3016 386.243 36.2032C386.376 36.1049 386.266 36.0246 386 36.0246C385.156 36.0246 385.478 35.2091 386.45 34.8867C387.15 34.6543 387.634 34.6983 388.388 35.0638C389.14 35.4277 389.437 35.455 389.563 35.1729C389.657 34.9651 389.899 34.7951 390.101 34.7951C390.303 34.7951 390.36 35.0026 390.229 35.2562C389.966 35.7649 388.005 35.9004 388.005 35.4099C388.005 35.2408 387.725 35.1025 387.383 35.1025C387.041 35.1025 386.761 35.2408 386.761 35.4099C386.761 35.5789 387.041 35.7172 387.383 35.7172C387.725 35.7172 388.005 35.8556 388.005 36.0246C388.005 36.1937 388.658 36.332 389.457 36.332C390.729 36.332 390.909 36.2367 390.909 35.5635C390.909 34.7954 391.472 34.5348 391.934 35.089C392.069 35.2507 392.454 35.3051 392.788 35.2098C393.123 35.1148 393.397 35.1898 393.397 35.377C393.397 35.5642 393.024 35.7172 392.568 35.7172C392.112 35.7172 391.738 35.8457 391.738 36.0028C391.738 36.1595 392.801 36.288 394.101 36.288C396.006 36.288 396.617 36.1586 397.262 35.6186L398.062 34.9488L397.776 35.6404C397.478 36.359 398.141 36.6348 398.515 35.9478C398.682 35.6404 398.731 35.6404 398.757 35.9478C398.798 36.423 400.295 36.4571 400.684 35.9917C400.882 35.7538 401.07 35.7741 401.308 36.0597C401.495 36.2844 401.765 36.3814 401.907 36.276C402.186 36.0695 401.335 34.7939 400.656 34.4017C400.428 34.2695 400.749 34.2489 401.37 34.3559C402.133 34.4868 402.714 34.3903 403.163 34.0577C403.528 33.7869 404.187 33.5656 404.626 33.5656C405.176 33.5656 405.431 33.3489 405.44 32.874C405.452 32.1978 405.475 32.2012 406.457 33.0277C407.009 33.4928 407.634 33.873 407.847 33.873C408.537 33.873 408.669 35.0456 408.053 35.6973C407.485 36.2988 407.522 36.332 408.772 36.332C409.864 36.332 410.007 36.257 409.602 35.8958C409.218 35.5525 409.263 35.3979 409.812 35.1698C410.287 34.9731 410.36 34.8114 410.042 34.6657C409.176 34.2689 409.538 33.5656 410.608 33.5656C411.192 33.5656 411.867 33.2985 412.159 32.9508C412.5 32.547 413.106 32.3431 413.926 32.357C415.125 32.3769 415.137 32.3908 414.241 32.7111C413.727 32.8946 413.308 33.162 413.308 33.3053C413.308 33.7162 414.874 33.6083 415.107 33.1814C415.232 32.9518 415.329 33.0139 415.349 33.3351C415.367 33.6308 415.102 33.873 414.759 33.873C414.417 33.873 414.137 34.0113 414.137 34.1804C414.137 34.3494 414.686 34.4877 415.357 34.4877C416.028 34.4877 416.692 34.6261 416.833 34.7951C416.979 34.9694 416.63 35.1025 416.028 35.1025C415.445 35.1025 414.967 35.2586 414.967 35.4492C414.967 35.6797 415.506 35.732 416.577 35.605C417.745 35.4667 418.33 35.5405 418.702 35.8731C419.38 36.4783 419.944 36.4558 419.944 35.8239C419.944 35.4172 420.109 35.4566 420.769 36.0209C421.511 36.6544 421.816 36.703 423.777 36.5011C424.977 36.3775 426.366 36.2865 426.863 36.2991C427.39 36.312 427.846 36.099 427.956 35.7888C428.133 35.2881 428.147 35.2884 428.192 35.7941C428.219 36.0898 428.448 36.332 428.704 36.332C428.977 36.332 429.084 36.0095 428.964 35.5457C428.82 34.9884 428.917 34.8037 429.296 34.9116C429.59 34.9952 429.923 34.8864 430.035 34.6697C430.289 34.1785 432.766 34.2532 433.193 34.7653C433.387 34.9983 433.917 35.0613 434.605 34.9334C435.301 34.804 435.707 34.8538 435.707 35.0693C435.707 35.2565 435.893 35.4099 436.121 35.4099C436.35 35.4099 436.536 35.1599 436.536 34.8544C436.536 34.429 436.825 34.3138 437.768 34.362C438.871 34.4186 440.269 35.0782 440.269 35.5417C440.269 35.6382 439.896 35.7172 439.44 35.7172C438.984 35.7172 438.61 35.8556 438.61 36.0246C438.61 36.1937 439.077 36.332 439.647 36.332C440.218 36.332 440.684 36.1937 440.684 36.0246C440.684 35.8556 440.884 35.7172 441.128 35.7172C441.92 35.7172 442.758 34.8591 442.758 34.0485C442.758 33.4633 442.543 33.2582 441.929 33.2582C441.032 33.2582 440.79 33.7454 441.588 33.9428C442.285 34.1146 441.677 35.1025 440.875 35.1025C440.416 35.1025 440.25 34.8771 440.339 34.3743C440.41 33.9738 440.205 33.2822 439.884 32.8378C439.263 31.9777 439.561 31.3805 440.327 31.9485C440.579 32.1351 441.043 32.215 441.357 32.1255C441.686 32.0318 441.929 32.1585 441.929 32.424C441.929 33.0505 442.833 33.2604 444.609 33.0468C445.83 32.9001 446.05 32.9521 445.849 33.3397C445.715 33.5988 445.806 33.9028 446.052 34.0153C446.297 34.1278 446.644 33.9289 446.821 33.5736C447.14 32.9348 447.155 32.9364 448.062 33.7098C448.567 34.1404 448.98 34.6872 448.98 34.9255C448.98 35.1637 449.213 35.4283 449.499 35.5137C449.808 35.6062 449.725 35.6785 449.291 35.6929C448.523 35.7187 448.251 36.332 449.008 36.332C449.262 36.332 449.338 36.5942 449.187 36.9467C448.998 37.3881 449.113 37.5615 449.593 37.5615C450.445 37.5615 452.298 38.9207 452.298 39.5456C452.298 39.8684 452.697 40.0205 453.543 40.0205C454.372 40.0205 454.787 40.1742 454.787 40.4816C454.787 40.7352 455.061 40.9426 455.397 40.9426C455.79 40.9426 455.913 40.7647 455.745 40.4398C455.565 40.0915 455.665 39.9842 456.069 40.0906C456.95 40.323 458.109 39.7703 457.838 39.2474C457.48 38.5543 456.862 38.7022 456.855 39.4826C456.85 40.0316 456.769 40.0804 456.461 39.7196C456.208 39.423 455.56 39.2975 454.6 39.3587C453.515 39.4282 453.128 39.3323 453.128 38.9938C453.128 38.7415 452.895 38.4652 452.61 38.3798C452.236 38.2682 452.229 38.2181 452.585 38.2006C452.857 38.1873 453.194 38.3146 453.335 38.4836C453.807 39.0495 456.105 38.8217 456.916 38.1292C457.342 37.7653 457.691 37.6269 457.691 37.8218C457.691 38.0305 458.374 38.1763 459.35 38.1763C460.708 38.1763 461.009 38.2829 461.009 38.7655C461.009 39.0895 461.243 39.4242 461.528 39.5096C461.813 39.5948 461.649 39.6756 461.164 39.6888C460.678 39.702 460.049 39.5057 459.765 39.2521C459.009 38.5774 458.443 38.6893 458.595 39.4826C458.684 39.9443 458.969 40.1441 459.454 40.0838C459.853 40.0344 460.18 40.1379 460.18 40.3144C460.18 40.4908 459.962 40.6353 459.696 40.6353C459.43 40.6353 459.319 40.7146 459.45 40.8117C459.74 41.0265 462.344 40.0681 462.759 39.5932C462.973 39.3485 463.312 39.3689 463.956 39.6646C464.707 40.0098 464.911 40.0098 465.207 39.6646C465.484 39.3403 465.561 39.3594 465.566 39.754C465.569 40.0304 465.18 40.3322 464.701 40.425C464.185 40.5249 463.948 40.7364 464.121 40.9429C464.281 41.1347 464.719 41.1947 465.095 41.0758C465.472 40.9568 466.193 40.8763 466.697 40.8966C467.337 40.9227 467.546 40.7994 467.387 40.492C466.973 39.6925 467.705 39.2991 468.212 40.0485C468.608 40.6347 469.029 40.749 470.861 40.7681C472.53 40.7856 473.041 40.6829 473.052 40.3288C473.062 39.9685 473.194 39.9935 473.653 40.4423C474.195 40.9731 474.293 40.9789 474.914 40.5191C475.531 40.0614 475.531 40.0205 474.917 40.0205C474.549 40.0205 473.847 39.7439 473.358 39.4058C472.868 39.0676 472.678 38.791 472.935 38.791C473.193 38.791 473.519 38.9293 473.66 39.0984C473.801 39.2674 474.372 39.4058 474.929 39.4058C475.486 39.4058 475.942 39.5441 475.942 39.7131C475.942 39.8822 476.549 40.0227 477.29 40.0252C478.283 40.0289 478.477 40.105 478.028 40.3159C477.692 40.4733 477.546 40.6974 477.704 40.8139C477.861 40.9304 478.456 40.7997 479.025 40.5231C480.498 39.8084 481.102 39.9013 480.111 40.6897C479.648 41.0579 479.371 41.4341 479.495 41.526C479.619 41.6179 479.868 41.5165 480.048 41.3001C480.308 40.9891 480.7 41.0213 481.926 41.455C483.321 41.9478 483.461 42.1042 483.319 43.0098C483.173 43.9353 483.254 44.0164 484.321 44.0164C484.96 44.0164 485.482 44.1547 485.482 44.3238C485.482 44.4928 485.295 44.6312 485.067 44.6312C484.839 44.6312 484.653 44.779 484.653 44.9601C484.653 45.1408 485.072 45.2444 485.586 45.1906C486.209 45.1248 486.479 44.9133 486.397 44.5543C486.295 44.1012 486.605 44.0164 488.367 44.0164C489.518 44.0164 490.46 44.1547 490.46 44.3238C490.46 44.4928 490.273 44.6312 490.045 44.6312C489.817 44.6312 489.63 44.7695 489.63 44.9385C489.63 45.1076 490.19 45.2459 490.874 45.2459C492.346 45.2459 492.423 45.052 491.25 44.2983L490.38 43.7398L491.354 43.0328C492.428 42.2518 494.949 42.104 496.015 42.7596C496.493 43.0537 496.696 43.0211 497.013 42.6003C497.379 42.1162 497.435 42.1238 497.678 42.6928C497.877 43.1569 498.204 43.2772 498.972 43.1683L500 43.0227V0H254.856H0ZM52.4351 32.0287C52.4351 32.1978 52.2484 32.3361 52.0203 32.3361C51.7922 32.3361 51.6055 32.1978 51.6055 32.0287C51.6055 31.8597 51.7922 31.7213 52.0203 31.7213C52.2484 31.7213 52.4351 31.8597 52.4351 32.0287ZM373.375 32.5218C373.237 32.6238 372.879 32.6349 372.58 32.5461C372.249 32.448 372.347 32.3752 372.831 32.3604C373.268 32.3472 373.513 32.4197 373.375 32.5218ZM376.671 32.767C376.412 33.2677 376.76 33.6228 377.278 33.3855C377.749 33.1697 377.739 32.3361 377.265 32.3361C377.061 32.3361 376.794 32.53 376.671 32.767ZM32.1101 33.2582C31.3058 33.6434 30.8657 33.6434 30.8657 33.2582C30.8657 33.0892 31.2859 32.953 31.799 32.9555C32.5535 32.9595 32.6132 33.0172 32.1101 33.2582ZM39.6801 33.1679C39.167 33.241 38.7468 33.4298 38.7468 33.5871C38.7468 33.7442 38.3893 33.873 37.9517 33.873C37.5145 33.873 37.0627 34.046 36.9474 34.2572C36.8056 34.5179 36.728 34.4921 36.7056 34.1764C36.6662 33.6163 38.1479 33.0249 39.5764 33.0305C40.5263 33.0342 40.535 33.0458 39.6801 33.1679ZM439.44 33.6169C439.44 33.983 439.387 34.2252 439.322 34.1548C439.258 34.0844 438.955 33.7845 438.65 33.4888C438.174 33.0283 438.191 32.9508 438.767 32.9508C439.181 32.9508 439.44 33.2075 439.44 33.6169ZM54.6053 33.873C54.1731 34.3857 54.1909 34.4877 54.7132 34.4877C55.057 34.4877 55.3387 34.43 55.3387 34.3593C55.3387 34.2886 55.4519 34.0119 55.5905 33.7445C55.9509 33.048 55.2201 33.1436 54.6053 33.873ZM444.417 34.0448C444.417 34.3082 444.604 34.4386 444.832 34.334C445.06 34.2295 445.247 34.014 445.247 33.8548C445.247 33.6956 445.06 33.5656 444.832 33.5656C444.604 33.5656 444.417 33.7814 444.417 34.0448ZM372.06 34.2185C369.986 34.5787 369.841 34.6998 370.821 35.2497C371.274 35.5033 371.396 35.7019 371.102 35.7074C370.095 35.7265 370.598 36.332 371.621 36.332C372.191 36.332 372.658 36.1937 372.658 36.0246C372.658 35.8556 372.471 35.7172 372.243 35.7172C372.015 35.7172 371.828 35.4406 371.828 35.1025C371.828 34.1945 372.977 34.3466 374.351 35.4369C375.447 36.3061 375.603 36.3449 376.21 35.8952C376.816 35.4455 376.765 35.3883 375.594 35.215C374.713 35.0843 374.317 34.8471 374.317 34.4493C374.317 33.813 374.366 33.8183 372.06 34.2185ZM376.806 34.1804C376.806 34.3494 376.992 34.4877 377.22 34.4877C377.449 34.4877 377.635 34.3494 377.635 34.1804C377.635 34.0113 377.449 33.873 377.22 33.873C376.992 33.873 376.806 34.0113 376.806 34.1804ZM411.571 34.3903C411.87 34.4792 412.228 34.4681 412.366 34.366C412.503 34.264 412.259 34.1915 411.821 34.2047C411.338 34.2194 411.24 34.2923 411.571 34.3903ZM447.157 34.6156C447.296 34.8833 447.592 35.1025 447.814 35.1025C448.36 35.1025 448.019 34.4038 447.398 34.2507C447.095 34.1757 447.003 34.3165 447.157 34.6156ZM403.767 34.7951C403.767 34.9642 403.394 35.1025 402.938 35.1025C402.481 35.1025 402.108 35.2408 402.108 35.4099C402.108 35.5789 402.668 35.7172 403.353 35.7172C404.32 35.7172 404.597 35.5808 404.597 35.1025C404.597 34.7644 404.41 34.4877 404.182 34.4877C403.954 34.4877 403.767 34.6261 403.767 34.7951ZM406.256 35.1025C406.256 35.5122 406.533 35.7172 407.086 35.7172C408.068 35.7172 408.126 35.5223 407.323 34.927C406.519 34.3313 406.256 34.3743 406.256 35.1025ZM399.507 34.9808C399.369 35.0828 399.011 35.0939 398.712 35.0051C398.381 34.907 398.479 34.8342 398.963 34.8194C399.4 34.8062 399.645 34.8787 399.507 34.9808ZM412.063 35.2562C411.779 35.5098 411.676 35.7172 411.835 35.7172C411.993 35.7172 412.403 35.5098 412.745 35.2562C413.087 35.0026 413.19 34.7951 412.973 34.7951C412.757 34.7951 412.347 35.0026 412.063 35.2562ZM431.87 34.9986C432.155 35.0841 432.388 35.4188 432.388 35.7428C432.388 36.067 432.575 36.332 432.803 36.332C433.48 36.332 433.275 35.1842 432.562 34.9817C432.201 34.879 431.781 34.8062 431.628 34.8194C431.476 34.8326 431.585 34.9135 431.87 34.9986ZM27.2362 35.5623C26.5178 36.167 26.5846 36.332 27.5473 36.332C28.1003 36.332 28.3769 36.127 28.3769 35.7172C28.3769 35.0017 27.9683 34.9461 27.2362 35.5623ZM37.9172 35.7172C37.9172 36.127 38.1939 36.332 38.7468 36.332C39.2997 36.332 39.5764 36.127 39.5764 35.7172C39.5764 35.3075 39.2997 35.1025 38.7468 35.1025C38.1939 35.1025 37.9172 35.3075 37.9172 35.7172ZM50.7759 35.4099C50.7759 35.5789 50.9626 35.7172 51.1907 35.7172C51.4188 35.7172 51.6055 35.5789 51.6055 35.4099C51.6055 35.2408 51.4188 35.1025 51.1907 35.1025C50.9626 35.1025 50.7759 35.2408 50.7759 35.4099ZM53.9313 35.5888C53.5754 36.2758 53.6036 36.332 54.3017 36.332C54.6472 36.332 54.9239 36.0587 54.9239 35.7172C54.9239 34.9845 54.2868 34.9018 53.9313 35.5888ZM55.3387 35.4099C55.3387 35.5789 55.5253 35.7172 55.7535 35.7172C55.9816 35.7172 56.1683 35.5789 56.1683 35.4099C56.1683 35.2408 55.9816 35.1025 55.7535 35.1025C55.5253 35.1025 55.3387 35.2408 55.3387 35.4099ZM437.676 35.5457C436.803 36.019 436.744 36.332 437.529 36.332C437.847 36.332 438.224 36.1048 438.368 35.827C438.72 35.1483 438.543 35.0763 437.676 35.5457ZM443.289 35.3032C442.89 35.4228 442.89 35.5414 443.289 35.8614C443.877 36.3332 444.417 36.182 444.417 35.5454C444.417 35.0905 444.172 35.038 443.289 35.3032ZM18.2488 35.676C18.0701 35.8903 18.0361 36.1485 18.1729 36.2499C18.5442 36.525 18.949 36.1205 18.7483 35.6748C18.6081 35.3625 18.5102 35.3625 18.2488 35.676ZM434.566 35.6134C433.635 35.8919 434.02 36.2379 435.292 36.2647C436.622 36.2926 436.963 35.9044 435.88 35.5964C435.519 35.4938 435.193 35.421 435.154 35.4342C435.116 35.4474 434.851 35.5282 434.566 35.6134ZM29.2065 36.0246C29.2065 36.1937 29.3932 36.332 29.6213 36.332C29.8494 36.332 30.0361 36.1937 30.0361 36.0246C30.0361 35.8556 29.8494 35.7172 29.6213 35.7172C29.3932 35.7172 29.2065 35.8556 29.2065 36.0246ZM45.3836 36.0246C45.3836 36.1937 45.5702 36.332 45.7984 36.332C46.0265 36.332 46.2131 36.1937 46.2131 36.0246C46.2131 35.8556 46.0265 35.7172 45.7984 35.7172C45.5702 35.7172 45.3836 35.8556 45.3836 36.0246ZM353.577 36.0246C353.577 36.1937 353.857 36.332 354.199 36.332C354.541 36.332 354.821 36.1937 354.821 36.0246C354.821 35.8556 354.541 35.7172 354.199 35.7172C353.857 35.7172 353.577 35.8556 353.577 36.0246ZM413.308 36.0246C413.308 36.1937 413.494 36.332 413.722 36.332C413.951 36.332 414.137 36.1937 414.137 36.0246C414.137 35.8556 413.951 35.7172 413.722 35.7172C413.494 35.7172 413.308 35.8556 413.308 36.0246ZM417.248 36.0246C417.107 36.1937 417.283 36.332 417.638 36.332C417.994 36.332 418.285 36.1937 418.285 36.0246C418.285 35.8556 418.11 35.7172 417.895 35.7172C417.68 35.7172 417.389 35.8556 417.248 36.0246ZM429.899 36.0246C429.899 36.1937 430.086 36.332 430.314 36.332C430.542 36.332 430.729 36.1937 430.729 36.0246C430.729 35.8556 430.542 35.7172 430.314 35.7172C430.086 35.7172 429.899 35.8556 429.899 36.0246ZM404.934 36.2346C405.233 36.3234 405.591 36.3123 405.729 36.2103C405.867 36.1082 405.622 36.0357 405.185 36.0489C404.701 36.0637 404.603 36.1365 404.934 36.2346ZM447.321 37.2541C447.321 37.4232 447.496 37.5615 447.711 37.5615C447.926 37.5615 448.217 37.4232 448.358 37.2541C448.499 37.0851 448.323 36.9467 447.968 36.9467C447.612 36.9467 447.321 37.0851 447.321 37.2541ZM12.9258 38.2893C11.5598 39.1598 11.4043 39.6382 12.7072 38.9623C13.9802 38.3011 14.2784 38.3598 14.1789 39.2521C14.1316 39.6747 13.947 40.0205 13.7686 40.0205C13.5903 40.0205 13.4443 40.1601 13.4443 40.3304C13.4443 40.5139 13.7906 40.4825 14.2917 40.2535C14.8803 39.9849 15.0595 39.679 14.8782 39.2521C14.7347 38.914 14.6215 38.3951 14.6273 38.0994C14.6406 37.382 14.2875 37.4213 12.9258 38.2893ZM448 38.5178C447.16 39.2444 447.15 39.4058 447.943 39.4058C448.285 39.4058 448.565 39.2674 448.565 39.0984C448.565 38.9293 448.765 38.791 449.01 38.791C449.678 38.791 450.67 39.6252 450.543 40.0808C450.481 40.3042 450.799 40.4816 451.261 40.4816C451.718 40.4816 452.221 40.6159 452.38 40.78C452.538 40.9442 452.817 40.9685 452.998 40.8338C453.18 40.6992 452.993 40.4499 452.583 40.2799C452.173 40.11 451.675 39.6532 451.476 39.265C451.276 38.8768 450.565 38.4175 449.896 38.2445C448.881 37.9826 448.566 38.0281 448 38.5178ZM8.3543 38.3619C8.21659 38.464 7.85861 38.4751 7.55955 38.3862C7.22854 38.2882 7.32685 38.2153 7.81008 38.2006C8.24728 38.1873 8.49201 38.2599 8.3543 38.3619ZM67.3677 38.4836C67.3677 38.6527 67.7411 38.791 68.1973 38.791C68.6536 38.791 69.0269 38.6527 69.0269 38.4836C69.0269 38.3146 68.6536 38.1763 68.1973 38.1763C67.7411 38.1763 67.3677 38.3146 67.3677 38.4836ZM65.9201 39.1033C66.0636 39.2752 66.3544 39.3363 66.5668 39.2389C67.1421 38.9754 67.0351 38.791 66.3063 38.791C65.9508 38.791 65.777 38.9315 65.9201 39.1033ZM8.36301 39.6175C7.47037 39.7906 7.39156 40.9426 8.27217 40.9426C8.62185 40.9426 9.02793 40.7004 9.17518 40.4047C9.32285 40.109 9.64349 39.7651 9.88822 39.6409C10.3752 39.3941 9.58085 39.3818 8.36301 39.6175ZM472.209 39.5413C472.209 39.616 472.022 39.7623 471.794 39.8668C471.566 39.9713 471.379 39.9102 471.379 39.7313C471.379 39.5524 471.566 39.4058 471.794 39.4058C472.022 39.4058 472.209 39.4666 472.209 39.5413ZM5.25204 39.9167C4.96708 40.0021 4.73355 40.3537 4.73355 40.6986C4.73355 41.2125 4.84224 41.2584 5.33751 40.9537C5.66976 40.7497 6.12351 40.6657 6.34584 40.7674C6.56817 40.8695 6.88051 40.7966 7.03938 40.6061C7.19825 40.4152 7.07136 40.1386 6.75694 39.991C6.12811 39.6956 6.0107 39.6898 5.25204 39.9167ZM66.2702 40.4807C66.612 40.734 67.1852 40.8572 67.5445 40.7552C68.635 40.445 68.2758 40.0205 66.9235 40.0205C65.792 40.0205 65.7189 40.0722 66.2702 40.4807ZM462.357 40.224C461.525 40.473 461.761 41.25 462.668 41.25C463.221 41.25 463.498 41.045 463.498 40.6353C463.498 40.0141 463.299 39.9425 462.357 40.224ZM469.72 40.3279C469.72 40.4969 469.533 40.6353 469.305 40.6353C469.077 40.6353 468.89 40.4969 468.89 40.3279C468.89 40.1588 469.077 40.0205 469.305 40.0205C469.533 40.0205 469.72 40.1588 469.72 40.3279ZM330.556 40.6353C330.415 40.8043 330.695 40.9426 331.178 40.9426C331.661 40.9426 331.941 40.8043 331.8 40.6353C331.659 40.4662 331.379 40.3279 331.178 40.3279C330.977 40.3279 330.697 40.4662 330.556 40.6353ZM334.704 40.6353C334.554 40.8145 334.976 40.9426 335.716 40.9426C336.414 40.9426 336.985 40.8043 336.985 40.6353C336.985 40.4662 336.53 40.3279 335.973 40.3279C335.416 40.3279 334.845 40.4662 334.704 40.6353ZM449.187 40.6353C449.046 40.8043 449.129 40.9426 449.37 40.9426C449.612 40.9426 449.81 40.8043 449.81 40.6353C449.81 40.4662 449.728 40.3279 449.627 40.3279C449.526 40.3279 449.329 40.4662 449.187 40.6353ZM480.633 42.3053C480.236 42.6403 480.339 42.7506 481.161 42.8671C482.329 43.0325 482.97 42.5447 482.113 42.1427C481.367 41.7922 481.221 41.8082 480.633 42.3053ZM488.801 42.1721C488.801 42.3412 488.718 42.4795 488.618 42.4795C488.517 42.4795 488.319 42.3412 488.178 42.1721C488.037 42.0031 488.12 41.8648 488.361 41.8648C488.603 41.8648 488.801 42.0031 488.801 42.1721ZM490.61 42.9406C490.478 43.1942 489.831 43.4155 489.171 43.4324C488.511 43.4493 487.504 43.477 486.934 43.4939C484.825 43.5563 485.964 42.9344 488.274 42.7617C489.59 42.6633 490.708 42.5597 490.758 42.5312C490.808 42.5029 490.741 42.687 490.61 42.9406ZM492.119 43.0823C492.119 43.4315 493.786 44.6312 494.271 44.6312C494.456 44.6312 494.608 44.4928 494.608 44.3238C494.608 43.9018 496.821 43.935 497.402 44.3656C497.753 44.6259 498.037 44.5928 498.522 44.2337C498.878 43.9694 499.17 43.6958 499.17 43.626C499.17 43.5563 498.191 43.4739 496.993 43.4429C495.795 43.4118 494.753 43.2517 494.677 43.0866C494.498 42.6981 492.119 42.6941 492.119 43.0823ZM80.7449 43.2978C80.1518 43.4752 80.0402 44.0164 80.5969 44.0164C80.8005 44.0164 81.0747 43.8089 81.2062 43.5553C81.3373 43.3018 81.404 43.1054 81.3543 43.1186C81.3041 43.1318 81.0303 43.2127 80.7449 43.2978ZM480.09 43.709C480.09 43.8781 480.276 44.0164 480.505 44.0164C480.733 44.0164 480.919 43.8781 480.919 43.709C480.919 43.54 480.733 43.4017 480.505 43.4017C480.276 43.4017 480.09 43.54 480.09 43.709ZM481.749 43.709C481.749 43.8781 481.936 44.0164 482.164 44.0164C482.392 44.0164 482.579 43.8781 482.579 43.709C482.579 43.54 482.392 43.4017 482.164 43.4017C481.936 43.4017 481.749 43.54 481.749 43.709ZM75.2489 44.3238C75.2489 44.4928 75.6222 44.6312 76.0785 44.6312C76.5347 44.6312 76.9081 44.4928 76.9081 44.3238C76.9081 44.1547 76.5347 44.0164 76.0785 44.0164C75.6222 44.0164 75.2489 44.1547 75.2489 44.3238ZM77.7376 44.3238C77.7376 44.4928 77.9243 44.6312 78.1524 44.6312C78.3806 44.6312 78.5672 44.9078 78.5672 45.2459C78.5672 45.584 78.7539 45.8607 78.982 45.8607C79.2102 45.8607 79.3968 45.6532 79.3968 45.3996C79.3968 45.146 79.5835 44.9385 79.8116 44.9385C80.0398 44.9385 80.2264 44.791 80.2264 44.6106C80.2264 44.4222 79.8726 44.3656 79.3968 44.4775C78.9211 44.5894 78.5672 44.5328 78.5672 44.3443C78.5672 44.1639 78.3806 44.0164 78.1524 44.0164C77.9243 44.0164 77.7376 44.1547 77.7376 44.3238ZM82.7152 44.3419C82.7152 44.5208 82.9019 44.582 83.13 44.4775C83.3581 44.373 83.5448 44.2266 83.5448 44.1519C83.5448 44.0772 83.3581 44.0164 83.13 44.0164C82.9019 44.0164 82.7152 44.1631 82.7152 44.3419ZM274.558 44.9385C274.417 45.1076 274.127 45.2459 273.912 45.2459C273.697 45.2459 273.521 45.1076 273.521 44.9385C273.521 44.7695 273.813 44.6312 274.168 44.6312C274.524 44.6312 274.699 44.7695 274.558 44.9385ZM481.348 45.1623C480.804 45.616 480.819 45.6476 481.486 45.458C481.896 45.3415 482.31 45.2459 482.405 45.2459C482.501 45.2459 482.579 45.1076 482.579 44.9385C482.579 44.4864 482.041 44.5841 481.348 45.1623ZM483.408 45.2459C483.408 45.584 483.595 45.8607 483.823 45.8607C484.051 45.8607 484.238 45.584 484.238 45.2459C484.238 44.9078 484.051 44.6312 483.823 44.6312C483.595 44.6312 483.408 44.9078 483.408 45.2459ZM494.884 44.8362C494.255 45.3028 494.669 45.8607 495.645 45.8607C496.405 45.8607 496.682 45.6968 496.682 45.2459C496.682 44.6462 495.503 44.3776 494.884 44.8362ZM85.031 45.2047C84.8522 45.419 84.8182 45.6771 84.9551 45.7786C85.3263 46.0537 85.7312 45.6492 85.5304 45.2035C85.3902 44.8912 85.2923 44.8912 85.031 45.2047ZM487.651 45.3034C487.858 45.7629 488.801 46.0159 488.801 45.6117C488.801 45.4466 488.505 45.2278 488.143 45.1248C487.74 45.0101 487.55 45.0787 487.651 45.3034ZM76.0785 45.5533C76.0785 45.7224 76.4518 45.8607 76.9081 45.8607C77.3643 45.8607 77.7376 45.7224 77.7376 45.5533C77.7376 45.3842 77.3643 45.2459 76.9081 45.2459C76.4518 45.2459 76.0785 45.3842 76.0785 45.5533ZM479.26 45.5533C479.26 45.7224 479.447 45.8607 479.675 45.8607C479.903 45.8607 480.09 45.7224 480.09 45.5533C480.09 45.3842 479.903 45.2459 479.675 45.2459C479.447 45.2459 479.26 45.3842 479.26 45.5533ZM499.17 45.5533C499.17 45.7224 499.357 45.8607 499.585 45.8607C499.813 45.8607 500 45.7224 500 45.5533C500 45.3842 499.813 45.2459 499.585 45.2459C499.357 45.2459 499.17 45.3842 499.17 45.5533ZM237.817 45.6301C237.555 46.2655 237.583 46.8147 237.886 46.9534C238.094 47.0487 238.264 46.7724 238.264 46.3399C238.264 45.7144 237.973 45.2524 237.817 45.6301ZM91.4259 46.6291C91.4259 46.8827 91.6126 47.0902 91.8407 47.0902C92.0688 47.0902 92.2555 46.8827 92.2555 46.6291C92.2555 46.3755 92.0688 46.168 91.8407 46.168C91.6126 46.168 91.4259 46.3755 91.4259 46.6291ZM246.145 47.211C246.145 47.2774 245.865 47.4114 245.523 47.5088C245.18 47.606 244.9 47.5515 244.9 47.388C244.9 47.2242 245.18 47.0902 245.523 47.0902C245.865 47.0902 246.145 47.1446 246.145 47.211ZM293.339 47.9388C293.107 48.6003 293.374 49.2418 293.881 49.2418C294.369 49.2418 294.38 47.7956 293.894 47.5728C293.691 47.4803 293.442 47.645 293.339 47.9388ZM304.52 48.0019C305.002 48.3345 305.516 48.8877 305.664 49.2314C305.937 49.8701 306.705 50.1046 306.705 49.5492C306.705 49.3801 306.518 49.2418 306.29 49.2418C306.062 49.2418 305.875 48.9107 305.875 48.5062C305.875 48.1017 305.58 47.6868 305.219 47.5841C303.953 47.2242 303.653 47.4034 304.52 48.0019ZM266.055 48.166C266.055 48.4196 265.868 48.6271 265.64 48.6271C265.412 48.6271 265.225 48.4196 265.225 48.166C265.225 47.9124 265.412 47.7049 265.64 47.7049C265.868 47.7049 266.055 47.9124 266.055 48.166ZM282.79 48.4593C283.198 49.102 283.308 49.1361 283.528 48.6898C283.844 48.0511 283.612 47.7049 282.869 47.7049C282.422 47.7049 282.406 47.8559 282.79 48.4593ZM264.995 48.5994C265.295 48.9587 264.835 49.8566 264.352 49.8566C264.148 49.8566 263.981 49.5108 263.981 49.0881C263.981 48.3286 264.543 48.0575 264.995 48.5994ZM237.663 48.9083C237.53 49.0685 237.598 49.2802 237.814 49.3792C238.03 49.4782 238.316 49.4281 238.449 49.2679C238.583 49.1078 238.515 48.896 238.299 48.797C238.083 48.6981 237.797 48.7482 237.663 48.9083ZM285.136 49.2418C285.136 49.5833 285.412 49.8566 285.758 49.8566C286.103 49.8566 286.38 49.5833 286.38 49.2418C286.38 48.9003 286.103 48.6271 285.758 48.6271C285.412 48.6271 285.136 48.9003 285.136 49.2418ZM267.714 49.531C267.714 49.6903 267.901 49.9057 268.129 50.0103C268.357 50.1148 268.544 49.9845 268.544 49.721C268.544 49.4576 268.357 49.2418 268.129 49.2418C267.901 49.2418 267.714 49.3718 267.714 49.531ZM289.284 49.8566C289.284 50.1947 289.47 50.4713 289.698 50.4713C289.927 50.4713 290.113 50.1947 290.113 49.8566C290.113 49.5185 289.927 49.2418 289.698 49.2418C289.47 49.2418 289.284 49.5185 289.284 49.8566ZM302.846 49.67C302.677 49.99 302.636 50.3244 302.755 50.4129C303.133 50.6933 303.466 50.2338 303.307 49.65C303.162 49.1152 303.14 49.1161 302.846 49.67ZM91.4259 50.1639C91.4259 50.333 91.6126 50.4713 91.8407 50.4713C92.0688 50.4713 92.2555 50.333 92.2555 50.1639C92.2555 49.9949 92.0688 49.8566 91.8407 49.8566C91.6126 49.8566 91.4259 49.9949 91.4259 50.1639ZM95.9887 50.1639C95.9887 50.333 96.1753 50.4713 96.4035 50.4713C96.6316 50.4713 96.8183 50.333 96.8183 50.1639C96.8183 49.9949 96.6316 49.8566 96.4035 49.8566C96.1753 49.8566 95.9887 49.9949 95.9887 50.1639ZM225.405 50.1639C225.405 50.333 225.79 50.4713 226.259 50.4713C226.729 50.4713 226.998 50.333 226.857 50.1639C226.716 49.9949 226.332 49.8566 226.003 49.8566C225.674 49.8566 225.405 49.9949 225.405 50.1639ZM228.723 50.1639C228.723 50.333 228.91 50.4713 229.138 50.4713C229.366 50.4713 229.553 50.333 229.553 50.1639C229.553 49.9949 229.366 49.8566 229.138 49.8566C228.91 49.8566 228.723 49.9949 228.723 50.1639ZM283.062 50.1639C283.062 50.333 283.26 50.4713 283.501 50.4713C283.742 50.4713 283.825 50.333 283.684 50.1639C283.543 49.9949 283.345 49.8566 283.245 49.8566C283.144 49.8566 283.062 49.9949 283.062 50.1639ZM287.624 50.1639C287.624 50.333 287.811 50.4713 288.039 50.4713C288.267 50.4713 288.454 50.333 288.454 50.1639C288.454 49.9949 288.267 49.8566 288.039 49.8566C287.811 49.8566 287.624 49.9949 287.624 50.1639ZM223.331 51.0861C223.331 51.4242 223.518 51.7008 223.746 51.7008C223.974 51.7008 224.161 51.4242 224.161 51.0861C224.161 50.748 223.974 50.4713 223.746 50.4713C223.518 50.4713 223.331 50.748 223.331 51.0861ZM260.663 50.7787C260.663 50.9478 260.336 51.0839 259.937 51.0814C259.316 51.0774 259.301 51.0332 259.833 50.7787C260.616 50.4037 260.663 50.4037 260.663 50.7787ZM97.6479 52.1619C97.6479 52.5845 97.8345 52.9303 98.0627 52.9303C98.2908 52.9303 98.4774 52.5845 98.4774 52.1619C98.4774 51.7393 98.2908 51.3935 98.0627 51.3935C97.8345 51.3935 97.6479 51.7393 97.6479 52.1619ZM166.504 52.0082C166.504 52.1773 166.224 52.3156 165.882 52.3156C165.54 52.3156 165.26 52.1773 165.26 52.0082C165.26 51.8391 165.54 51.7008 165.882 51.7008C166.224 51.7008 166.504 51.8391 166.504 52.0082ZM183.511 52.0082C183.511 52.1773 183.324 52.3156 183.096 52.3156C182.868 52.3156 182.681 52.1773 182.681 52.0082C182.681 51.8391 182.868 51.7008 183.096 51.7008C183.324 51.7008 183.511 51.8391 183.511 52.0082ZM180.221 52.6998C180.238 52.9113 180.411 53.3607 180.607 53.6988C180.906 54.2139 180.968 54.1519 180.993 53.3146C181.009 52.765 180.835 52.3156 180.607 52.3156C180.379 52.3156 180.206 52.4886 180.221 52.6998ZM250.293 52.623C250.293 52.792 250.479 52.9303 250.708 52.9303C250.936 52.9303 251.122 53.207 251.122 53.5451C251.122 53.8832 251.309 54.1598 251.537 54.1598C251.765 54.1598 251.952 54.3673 251.952 54.6209C251.952 54.8745 252.139 55.082 252.367 55.082C252.595 55.082 252.782 54.8745 252.782 54.6209C252.782 54.3673 252.595 54.1598 252.367 54.1598C252.139 54.1598 251.952 53.9425 251.952 53.6769C251.952 53.211 251.017 52.3156 250.53 52.3156C250.399 52.3156 250.293 52.4539 250.293 52.623ZM253.914 52.5012C253.776 52.6033 253.418 52.6144 253.119 52.5256C252.788 52.4275 252.886 52.3546 253.369 52.3399C253.807 52.3267 254.051 52.3992 253.914 52.5012ZM259.004 52.9303C259.004 53.3401 259.28 53.5451 259.833 53.5451C260.442 53.5451 260.663 53.7501 260.663 54.3135C260.663 54.7362 260.849 55.082 261.077 55.082C261.306 55.082 261.492 54.62 261.492 54.0557C261.492 53.2537 261.261 52.951 260.436 52.6725C259.048 52.2037 259.004 52.2117 259.004 52.9303ZM186.286 53.4061C186.639 53.6677 186.817 53.964 186.681 54.0645C186.387 54.2825 185.17 53.5863 185.17 53.2002C185.17 52.7991 185.565 52.8719 186.286 53.4061ZM191.392 53.2559C191.392 53.4348 191.211 53.4984 190.989 53.3967C190.767 53.2952 190.114 53.4412 189.537 53.7212C188.416 54.2659 188.158 54.1049 189.007 53.3902C189.612 52.8803 191.392 52.7801 191.392 53.2559ZM209.643 53.2282C209.643 53.3917 209.363 53.4461 209.021 53.349C208.678 53.2516 208.398 53.1175 208.398 53.0512C208.398 52.9848 208.678 52.9303 209.021 52.9303C209.363 52.9303 209.643 53.0643 209.643 53.2282ZM221.672 53.2377C221.672 53.6229 222.112 53.6229 222.916 53.2377C223.419 52.9967 223.36 52.939 222.605 52.935C222.092 52.9325 221.672 53.0687 221.672 53.2377ZM219.408 53.5239C219.277 53.6813 219.359 53.8967 219.591 54.0031C219.823 54.1091 220.013 53.9804 220.013 53.7169C220.013 53.1769 219.764 53.0976 219.408 53.5239ZM224.161 53.6988C224.161 53.9524 224.347 54.1598 224.575 54.1598C224.804 54.1598 224.99 53.9524 224.99 53.6988C224.99 53.4452 224.804 53.2377 224.575 53.2377C224.347 53.2377 224.161 53.4452 224.161 53.6988ZM98.1664 53.7486C97.6582 53.9008 97.4185 54.7746 97.8847 54.7746C98.1929 54.7746 99.307 53.949 99.307 53.7206C99.307 53.5177 98.9055 53.5276 98.1664 53.7486ZM162.166 53.9751C162.663 54.3436 162.597 54.4328 161.702 54.5994C160.28 54.8637 159.631 54.513 160.568 53.9865C161.507 53.4587 161.47 53.459 162.166 53.9751ZM203.939 53.7486C203.654 53.8341 203.188 53.8341 202.902 53.7486C202.617 53.6635 202.85 53.5936 203.421 53.5936C203.991 53.5936 204.225 53.6635 203.939 53.7486ZM220.842 53.8525C220.842 54.0215 221.262 54.1576 221.776 54.1552C222.53 54.1512 222.59 54.0934 222.087 53.8525C221.282 53.4673 220.842 53.4673 220.842 53.8525ZM257.344 53.988C257.344 54.2317 257.531 54.5164 257.759 54.6209C257.987 54.7254 258.174 54.526 258.174 54.178C258.174 53.8301 257.987 53.5451 257.759 53.5451C257.531 53.5451 257.344 53.7442 257.344 53.988ZM262.322 54.178C262.322 54.526 262.509 54.7254 262.737 54.6209C262.965 54.5164 263.151 54.2317 263.151 53.988C263.151 53.7442 262.965 53.5451 262.737 53.5451C262.509 53.5451 262.322 53.8301 262.322 54.178ZM182.681 54.3135C182.681 54.5696 183.05 54.7746 183.511 54.7746C183.971 54.7746 184.34 54.5696 184.34 54.3135C184.34 54.0575 183.971 53.8525 183.511 53.8525C183.05 53.8525 182.681 54.0575 182.681 54.3135ZM202.591 54.4672C202.591 54.6363 202.509 54.7746 202.408 54.7746C202.308 54.7746 202.11 54.6363 201.969 54.4672C201.828 54.2982 201.911 54.1598 202.152 54.1598C202.393 54.1598 202.591 54.2982 202.591 54.4672ZM99.307 54.9283C99.307 55.1819 99.4937 55.3893 99.7218 55.3893C99.95 55.3893 100.137 55.1819 100.137 54.9283C100.137 54.6747 99.95 54.4672 99.7218 54.4672C99.4937 54.4672 99.307 54.6747 99.307 54.9283ZM100.966 54.7746C100.966 54.9437 101.257 55.082 101.613 55.082C101.968 55.082 102.144 54.9437 102.003 54.7746C101.862 54.6055 101.571 54.4672 101.357 54.4672C101.142 54.4672 100.966 54.6055 100.966 54.7746ZM154.89 54.7746C154.89 54.9437 155.076 55.082 155.305 55.082C155.533 55.082 155.719 54.9437 155.719 54.7746C155.719 54.6055 155.533 54.4672 155.305 54.4672C155.076 54.4672 154.89 54.6055 154.89 54.7746ZM250.5 54.7746C250.359 54.9437 250.442 55.082 250.683 55.082C250.924 55.082 251.122 54.9437 251.122 54.7746C251.122 54.6055 251.04 54.4672 250.939 54.4672C250.839 54.4672 250.641 54.6055 250.5 54.7746ZM222.813 54.9781C223.098 55.0636 223.565 55.0636 223.85 54.9781C224.135 54.893 223.901 54.8231 223.331 54.8231C222.761 54.8231 222.528 54.893 222.813 54.9781ZM151.874 56.1898C151.736 56.2918 151.378 56.3029 151.079 56.2141C150.748 56.116 150.846 56.0432 151.33 56.0284C151.767 56.0152 152.011 56.0877 151.874 56.1898ZM132.491 56.6189C132.491 56.7879 132.677 56.9262 132.906 56.9262C133.134 56.9262 133.32 56.7879 133.32 56.6189C133.32 56.4498 133.134 56.3115 132.906 56.3115C132.677 56.3115 132.491 56.4498 132.491 56.6189ZM107.188 57.541C107.188 57.8791 107.375 58.1557 107.603 58.1557C107.831 58.1557 108.018 57.8791 108.018 57.541C108.018 57.2029 107.831 56.9262 107.603 56.9262C107.375 56.9262 107.188 57.2029 107.188 57.541ZM138.298 57.4577C137.956 57.5542 137.536 57.7853 137.365 57.9713C137.15 58.2049 136.932 58.1696 136.661 57.8573C136.445 57.6086 136.119 57.5238 135.935 57.6689C135.752 57.8139 135.835 57.9944 136.12 58.0697C136.406 58.1453 136.639 58.4029 136.639 58.6423C136.639 59.2085 137.248 59.1971 138.031 58.6168C138.717 58.1087 139.957 57.9934 139.957 58.4376C139.957 58.5925 139.724 58.781 139.439 58.8566C139.137 58.9362 139.074 59.1077 139.288 59.2663C139.502 59.4249 139.733 59.3782 139.841 59.1547C140.061 58.6989 141.201 58.6343 141.201 59.0779C141.201 59.2469 141.657 59.3852 142.214 59.3852C142.771 59.3852 143.342 59.2469 143.483 59.0779C143.624 58.9088 143.352 58.7705 142.879 58.7705C141.986 58.7705 140.605 58.2802 139.632 57.6178C139.322 57.4067 139.035 57.2447 138.994 57.2579C138.953 57.2711 138.64 57.3612 138.298 57.4577ZM128.758 58.4631C128.758 58.6322 128.944 58.7705 129.172 58.7705C129.4 58.7705 129.587 58.6322 129.587 58.4631C129.587 58.2941 129.4 58.1557 129.172 58.1557C128.944 58.1557 128.758 58.2941 128.758 58.4631ZM147.838 58.4631C147.838 58.6322 147.545 58.7705 147.187 58.7705C146.39 58.7705 145.143 59.6422 145.53 59.929C145.684 60.0427 145.965 59.949 146.156 59.7206C146.367 59.4673 146.976 59.3569 147.719 59.4378C148.802 59.5555 148.916 59.4922 148.754 58.863C148.576 58.1733 147.838 57.8511 147.838 58.4631ZM154.06 58.7705C154.06 59.1086 154.247 59.3852 154.475 59.3852C154.703 59.3852 154.89 59.1086 154.89 58.7705C154.89 58.4324 154.703 58.1557 154.475 58.1557C154.247 58.1557 154.06 58.4324 154.06 58.7705ZM123.618 59.254C123.444 59.5909 123.577 59.7074 124.058 59.6382C124.438 59.5835 124.826 59.3662 124.921 59.1547C125.175 58.5894 123.913 58.6857 123.618 59.254ZM130.417 59.0265C130.417 59.1676 130.697 59.2829 131.039 59.2829C131.381 59.2829 131.661 59.1676 131.661 59.0265C131.661 58.8858 131.381 58.7705 131.039 58.7705C130.697 58.7705 130.417 58.8858 130.417 59.0265ZM133.528 59.0779C133.669 59.2469 134.053 59.3852 134.382 59.3852C134.711 59.3852 134.979 59.2469 134.979 59.0779C134.979 58.9088 134.595 58.7705 134.125 58.7705C133.656 58.7705 133.387 58.9088 133.528 59.0779ZM105.114 59.6926C105.114 59.8617 105.394 60 105.736 60C106.079 60 106.359 59.8617 106.359 59.6926C106.359 59.5236 106.079 59.3852 105.736 59.3852C105.394 59.3852 105.114 59.5236 105.114 59.6926ZM109.185 59.5952C109.484 59.684 109.842 59.673 109.979 59.5709C110.117 59.4689 109.872 59.3963 109.435 59.4096C108.952 59.4243 108.854 59.4972 109.185 59.5952ZM125.439 59.6926C125.439 59.8617 125.626 60 125.854 60C126.082 60 126.269 59.8617 126.269 59.6926C126.269 59.5236 126.082 59.3852 125.854 59.3852C125.626 59.3852 125.439 59.5236 125.439 59.6926ZM143.69 59.6926C143.69 59.8617 143.866 60 144.081 60C144.295 60 144.586 59.8617 144.727 59.6926C144.868 59.5236 144.692 59.3852 144.337 59.3852C143.981 59.3852 143.69 59.5236 143.69 59.6926Z" fill="#152517"/>
</svg>
