<svg width="100" height="178" viewBox="0 0 100 178" fill="none" xmlns="http://www.w3.org/2000/svg">
<path d="M80.1244 21.081V19.0521C80.1244 18.1821 79.4204 17.479 78.5489 17.479H22.3939C21.5259 17.479 20.8218 18.1821 20.8218 19.0521V21.081C20.8218 21.9519 21.5259 22.6555 22.3939 22.6555H78.5489C79.4204 22.6555 80.1244 21.9519 80.1244 21.081Z" fill="#6D6D6D"/>
<mask id="mask0_829_187" style="mask-type:luminance" maskUnits="userSpaceOnUse" x="10" y="5" width="81" height="11">
<path d="M10.9346 5H90.0086V15.1852H10.9346V5Z" fill="white"/>
</mask>
<g mask="url(#mask0_829_187)">
<path d="M86.9314 5.00781H14.0138C12.3148 5.00781 10.9375 6.38223 10.9375 8.08169V12.0521C10.9375 13.7487 12.3148 15.126 14.0138 15.126H86.9314C88.6304 15.126 90.0058 13.7487 90.0058 12.0521V8.08169C90.0058 6.38223 88.6304 5.00781 86.9314 5.00781Z" fill="#808080"/>
</g>
<mask id="mask1_829_187" style="mask-type:luminance" maskUnits="userSpaceOnUse" x="10" y="155" width="81" height="18">
<path d="M10.9346 155.679H90.0086V172.778H10.9346V155.679Z" fill="white"/>
</mask>
<g mask="url(#mask1_829_187)">
<path d="M85.6371 155.729H15.3086C12.8954 155.729 10.9375 157.684 10.9375 160.095V172.786H90.0058V160.095C90.0058 157.684 88.0498 155.729 85.6371 155.729Z" fill="#5D5D5D"/>
</g>
<path d="M73.0633 143.125V25.0083H27.881V143.125H73.0633Z" fill="#808080"/>
<path d="M81.699 153.478C78.6897 153.478 76.248 149.896 76.248 145.478H24.6971C24.6971 149.896 22.256 153.478 19.2457 153.478H81.699Z" fill="#6D6D6D"/>
</svg>
