<svg width="116" height="326" viewBox="0 0 116 326" fill="none" xmlns="http://www.w3.org/2000/svg">
<path fill-rule="evenodd" clip-rule="evenodd" d="M10.5274 309.568H105.613V301.702H10.5274V309.568ZM99.0461 299.767H17.0924V294.755H99.0461V299.767ZM36.5873 39.7844H79.4156C77.106 42.4695 75.7055 44.9705 75.7055 50.3525H40.2974C40.2992 44.9705 38.8969 42.4695 36.5873 39.7844ZM52.116 276.605H63.886C63.886 247.869 63.886 82.8624 63.886 54.13H52.116C52.116 82.8624 52.116 247.869 52.116 276.605ZM67.5611 276.605H75.5545C75.5545 247.869 75.5545 82.8624 75.5545 54.13H67.5611C67.5611 82.8624 67.5611 247.869 67.5611 276.605ZM40.4475 276.605H48.4409C48.4409 247.869 48.4409 82.8624 48.4409 54.13H40.4475C40.4475 82.8624 40.4475 247.869 40.4475 276.605ZM53.2084 27.859H29.1634C17.5353 27.859 6.93583 34.7762 8.0857 47.0448C8.96877 56.4675 15.9695 62.1782 25.6788 60.9825C28.3316 60.6564 30.599 59.5793 32.3552 58.0458V276.605H36.3645V50.6202C36.8209 47.2631 35.8192 43.6841 32.9733 40.8373C31.3185 39.1843 29.0332 38.1584 26.5115 38.1584C25.0338 38.1584 23.644 38.507 22.4178 39.1187C21.1413 39.7584 20.0363 40.6926 19.1883 41.8254V41.8281C17.9486 43.4865 17.4221 45.5877 17.5946 47.5326H17.5982C17.68 48.4561 17.9171 49.3436 18.3106 50.1252C18.6933 50.8852 19.2323 51.5571 19.9132 52.0638C20.949 52.8409 22.3585 53.2568 24.1363 53.1023C25.5826 52.972 26.7774 52.0117 27.4754 50.7459C29.0628 47.8632 27.9794 43.906 24.0564 44.0363C27.8051 41.8281 30.3187 45.5275 30.1202 48.6483C30.0501 49.712 29.7348 50.7747 29.2227 51.7063C28.2229 53.5119 26.4657 54.8972 24.3061 55.084C22.0064 55.2915 20.1396 54.7166 18.7211 53.6521C17.7842 52.9541 17.0547 52.0458 16.5391 51.0208C16.0234 50.0039 15.7135 48.8675 15.6138 47.7015H15.621C15.4018 45.2912 16.0531 42.6932 17.5928 40.6414H17.5982C18.6277 39.2598 19.977 38.1225 21.5275 37.3463C23.0341 36.5953 24.7292 36.1695 26.5124 36.1695C42.4714 36.1695 73.2692 36.1695 89.4923 36.1695C91.2791 36.1695 92.9688 36.5953 94.4753 37.3463C96.0259 38.1234 97.3761 39.2607 98.4092 40.6414H98.411C99.9453 42.6932 100.597 45.2912 100.387 47.7015H100.391C100.288 48.8675 99.9831 50.0039 99.4674 51.0208C98.9482 52.0458 98.2187 52.9541 97.2818 53.6521C95.8642 54.7166 93.9983 55.2915 91.6959 55.084C89.5327 54.8972 87.7818 53.5119 86.782 51.7063C86.2699 50.7747 85.9528 49.712 85.8818 48.6483C85.6797 45.5275 88.1995 41.8281 91.9465 44.0363C88.0244 43.906 86.941 47.8632 88.5274 50.7459C89.2246 52.0117 90.4193 52.972 91.8684 53.1023C93.6453 53.2568 95.0557 52.8409 96.0906 52.0638C96.7715 51.5571 97.3096 50.8852 97.695 50.1252C98.0849 49.3436 98.3238 48.4561 98.4038 47.5326H98.411C98.5816 45.5886 98.057 43.4865 96.82 41.8281V41.8254C95.9684 40.6926 94.8571 39.7584 93.5824 39.1187C92.3598 38.507 90.9691 38.1584 89.4923 38.1584C86.9733 38.1584 84.6852 39.1843 83.0287 40.8373C80.1819 43.6859 79.1775 47.2748 79.6402 50.6345V276.605H83.6468V58.0458C85.4057 59.5847 87.6722 60.6564 90.3232 60.9825C100.032 62.1845 107.033 56.4684 107.914 47.0448C109.063 34.7753 98.4721 27.859 86.8377 27.859H53.2084ZM24.4031 16H91.5998L87.3398 25.4317H28.6604L24.4031 16ZM94.8661 292.991C64.0684 292.991 52.0738 292.991 21.2733 292.991V289.948C26.0372 288.162 29.8291 284.044 31.5521 278.832C55.4982 278.832 60.6439 278.832 84.5891 278.832C86.3085 284.044 90.1004 288.162 94.8661 289.948V292.991Z" fill="#33353A"/>
</svg>
