<svg width="1080" height="1920" viewBox="0 0 1080 1920" fill="none" xmlns="http://www.w3.org/2000/svg">
<path d="M865.344 227.672V205.761C865.344 196.365 857.74 188.771 848.328 188.771H241.854C232.479 188.771 224.875 196.365 224.875 205.761V227.672C224.875 237.078 232.479 244.677 241.854 244.677H848.328C857.74 244.677 865.344 237.078 865.344 227.672Z" fill="white"/>
<mask id="mask0_829_187" style="mask-type:luminance" maskUnits="userSpaceOnUse" x="118" y="54" width="855" height="110">
<path d="M118.094 54H972.094V164H118.094V54Z" fill="white"/>
</mask>
<g mask="url(#mask0_829_187)">
<path d="M938.859 54.0835H151.349C133 54.0835 118.125 68.9272 118.125 87.2814V130.162C118.125 148.485 133 163.36 151.349 163.36H938.859C957.208 163.36 972.063 148.485 972.063 130.162V87.2814C972.063 68.9272 957.208 54.0835 938.859 54.0835Z" fill="white"/>
</g>
<mask id="mask1_829_187" style="mask-type:luminance" maskUnits="userSpaceOnUse" x="118" y="1681" width="855" height="185">
<path d="M118.094 1681.33H972.094V1866H118.094V1681.33Z" fill="white"/>
</mask>
<g mask="url(#mask1_829_187)">
<path d="M924.88 1681.86H165.333C139.271 1681.86 118.125 1702.98 118.125 1729.03V1866.09H972.063V1729.03C972.063 1702.98 950.938 1681.86 924.88 1681.86Z" fill="white"/>
</g>
<path d="M789.083 1545.74V270.088H301.115V1545.74H789.083Z" fill="white"/>
<path d="M882.349 1657.56C849.849 1657.56 823.479 1618.88 823.479 1571.16H266.729C266.729 1618.88 240.365 1657.56 207.854 1657.56H882.349Z" fill="white"/>
</svg>
