<svg width="32" height="32" viewBox="0 0 32 32" fill="none" xmlns="http://www.w3.org/2000/svg">
<path d="M15.8641 3.17034C15.9249 3.17034 15.9856 3.16984 16.0464 3.16934C16.3911 3.16809 16.3911 3.16809 16.5529 3.21259C16.6514 3.23859 16.7544 3.24384 16.8556 3.25309C17.0024 3.26884 17.1036 3.31909 17.2249 3.40009C17.2249 3.41659 17.2249 3.43309 17.2249 3.45009C17.2414 3.45009 17.2579 3.45009 17.2749 3.45009C17.2749 3.46659 17.2749 3.48309 17.2749 3.50009C17.3081 3.50634 17.3081 3.50634 17.3416 3.51284C17.3706 3.51884 17.3999 3.52509 17.4296 3.53134C17.4726 3.53984 17.4726 3.53984 17.5166 3.54884C17.5999 3.57509 17.5999 3.57509 17.6641 3.62659C17.7366 3.68434 17.7786 3.68934 17.8704 3.69384C17.8946 3.69509 17.9191 3.69659 17.9441 3.69809C17.9626 3.69859 17.9811 3.69934 17.9999 3.70009C17.9999 3.71659 17.9999 3.73309 17.9999 3.75009C18.0164 3.75834 18.0329 3.76659 18.0499 3.77509C18.0499 3.79159 18.0499 3.80809 18.0499 3.82509C18.0641 3.83184 18.0784 3.83859 18.0931 3.84559C18.1726 3.88684 18.2449 3.93709 18.3189 3.98734C18.3639 4.01759 18.4099 4.04659 18.4561 4.07509C18.5581 4.14909 18.6344 4.22834 18.6749 4.35009C18.7249 4.38009 18.7249 4.38009 18.7749 4.40009C18.7749 4.41659 18.7749 4.43309 18.7749 4.45009C18.7899 4.45634 18.8049 4.46259 18.8204 4.46909C18.8824 4.50409 18.9091 4.53734 18.9499 4.59534C18.9691 4.62209 18.9691 4.62209 18.9889 4.64934C19.0009 4.66609 19.0126 4.68284 19.0249 4.70009C19.0749 4.76459 19.1179 4.81909 19.1811 4.87034C19.2249 4.92509 19.2249 4.92509 19.2171 5.01884C19.2114 5.07209 19.2114 5.07209 19.2249 5.12509C19.2779 5.17959 19.3354 5.22384 19.3949 5.27109C19.4826 5.35684 19.5059 5.45634 19.5249 5.57509C19.5249 5.59159 19.5249 5.60809 19.5249 5.62509C19.5414 5.62509 19.5579 5.62509 19.5749 5.62509C19.5816 5.65034 19.5884 5.67559 19.5954 5.70159C19.6141 5.76884 19.6361 5.82459 19.6656 5.88909C19.7004 5.97609 19.7044 6.03284 19.6999 6.12509C19.7081 6.13334 19.7164 6.14159 19.7249 6.15009C19.7229 6.17684 19.7209 6.20359 19.7186 6.23134C19.7266 6.34959 19.7644 6.37259 19.8499 6.45009C19.8736 6.51809 19.8781 6.58134 19.8786 6.65309C19.8789 6.68309 19.8789 6.68309 19.8791 6.71384C19.8791 6.74584 19.8791 6.74584 19.8791 6.77859C19.8794 6.80084 19.8794 6.82309 19.8794 6.84609C19.8796 6.89309 19.8796 6.94009 19.8796 6.98709C19.8796 7.05884 19.8801 7.13059 19.8806 7.20234C19.8806 7.24809 19.8806 7.29384 19.8809 7.33959C19.8809 7.36084 19.8811 7.38234 19.8814 7.40434C19.8809 7.52134 19.8696 7.61484 19.8249 7.72509C19.7854 7.83834 19.7489 7.94934 19.7249 8.06709C19.7054 8.16184 19.6729 8.24034 19.6249 8.32509C19.6084 8.32509 19.5919 8.32509 19.5749 8.32509C19.5744 8.34759 19.5744 8.34759 19.5739 8.37084C19.5639 8.54809 19.5109 8.67159 19.4249 8.82509C19.4076 8.85934 19.3904 8.89359 19.3734 8.92809C19.3611 8.95209 19.3611 8.95209 19.3489 8.97659C19.3326 9.00959 19.3174 9.04284 19.3026 9.07659C19.2504 9.19359 19.1929 9.25834 19.0921 9.33709C19.0244 9.39809 18.9906 9.46884 18.9499 9.55009C18.9334 9.55009 18.9169 9.55009 18.8999 9.55009C18.8939 9.56809 18.8876 9.58609 18.8811 9.60459C18.8384 9.70109 18.7884 9.77559 18.6984 9.83284C18.6499 9.85009 18.6499 9.85009 18.5749 9.85009C18.5749 9.87484 18.5749 9.89959 18.5749 9.92509C18.5376 9.96334 18.5376 9.96334 18.4891 10.0016C18.4211 10.0541 18.4211 10.0541 18.3749 10.1251C18.3584 10.1251 18.3419 10.1251 18.3249 10.1251C18.3166 10.1498 18.3084 10.1746 18.2999 10.2001C18.1414 10.3358 17.9406 10.5001 17.7249 10.5001C17.7331 10.5248 17.7414 10.5496 17.7499 10.5751C17.7774 10.5826 17.8046 10.5903 17.8329 10.5983C17.9311 10.6266 17.9574 10.6528 18.0249 10.7251C18.0661 10.7428 18.1079 10.7596 18.1499 10.7751C18.1919 10.7998 18.2334 10.8248 18.2749 10.8501C18.3176 10.8731 18.3604 10.8961 18.4031 10.9188C18.4521 10.9458 18.5011 10.9728 18.5499 11.0001C18.5724 11.0118 18.5946 11.0238 18.6176 11.0363C18.8561 11.1743 19.0721 11.3943 19.2249 11.6251C19.2249 11.6416 19.2249 11.6581 19.2249 11.6751C19.2451 11.6843 19.2451 11.6843 19.2656 11.6938C19.2851 11.7041 19.3049 11.7143 19.3249 11.7251C19.3476 11.7368 19.3704 11.7486 19.3936 11.7608C19.5154 11.8426 19.6004 11.9761 19.6749 12.1001C19.6749 12.1248 19.6749 12.1496 19.6749 12.1751C19.6899 12.1808 19.7046 12.1868 19.7199 12.1931C19.7866 12.2318 19.8144 12.2716 19.8561 12.3358C19.8694 12.3556 19.8824 12.3751 19.8956 12.3951C19.9249 12.4501 19.9249 12.4501 19.9249 12.5251C19.9414 12.5251 19.9579 12.5251 19.9749 12.5251C19.9914 12.5641 20.0074 12.6031 20.0234 12.6421C20.0324 12.6638 20.0414 12.6856 20.0506 12.7081C20.0749 12.7751 20.0749 12.7751 20.0861 12.8426C20.0954 12.9091 20.0954 12.9091 20.1749 12.9501C20.3204 13.1503 20.3786 13.3846 20.4366 13.6208C20.4484 13.6688 20.4609 13.7163 20.4736 13.7641C20.5311 13.9998 20.5404 14.2346 20.5461 14.4761C20.5484 14.5303 20.5484 14.5303 20.5749 14.6001C20.5939 14.8813 20.5906 15.1666 20.4349 15.4133C20.3964 15.4813 20.3896 15.5256 20.3859 15.6031C20.3814 15.6943 20.3776 15.7208 20.3249 15.8001C20.3094 15.8468 20.3094 15.8468 20.2984 15.8968C20.2946 15.9133 20.2906 15.9298 20.2866 15.9466C20.2786 15.9831 20.2719 16.0196 20.2656 16.0563C20.2444 16.1501 20.2096 16.2371 20.1749 16.3266C20.1219 16.4638 20.0764 16.5886 20.0656 16.7358C20.0556 16.8338 20.0299 16.8926 19.9749 16.9751C19.9651 17.0163 19.9569 17.0581 19.9499 17.1001C19.9416 17.1268 19.9334 17.1536 19.9249 17.1813C19.9056 17.2543 19.8966 17.3091 19.8921 17.3828C19.8814 17.5013 19.8356 17.5893 19.7801 17.6933C19.7121 17.8213 19.6881 17.9541 19.6641 18.0956C19.6499 18.1501 19.6499 18.1501 19.5999 18.2001C19.5916 18.2248 19.5834 18.2496 19.5749 18.2751C19.5499 18.3501 19.5499 18.3501 19.4999 18.4001C19.4956 18.4531 19.4934 18.5061 19.4921 18.5593C19.4824 18.7431 19.4311 18.8863 19.3499 19.0501C19.3416 19.0253 19.3334 19.0006 19.3249 18.9751C19.3166 18.9833 19.3084 18.9916 19.2999 19.0001C19.3071 19.0418 19.3154 19.0836 19.3249 19.1251C19.3001 19.1416 19.2754 19.1581 19.2499 19.1751C19.2581 19.1998 19.2664 19.2246 19.2749 19.2501C19.2919 19.4596 19.2114 19.6331 19.1241 19.8191C19.0569 19.9753 19.0241 20.1368 18.9896 20.3026C18.9689 20.3993 18.9451 20.4921 18.9124 20.5856C18.8624 20.7301 18.8381 20.8786 18.8114 21.0288C18.8074 21.0501 18.8031 21.0716 18.7991 21.0936C18.7956 21.1128 18.7921 21.1321 18.7886 21.1521C18.7749 21.2001 18.7749 21.2001 18.7249 21.2501C18.7081 21.2998 18.6914 21.3498 18.6749 21.4001C18.6584 21.4248 18.6419 21.4496 18.6249 21.4751C18.6226 21.5503 18.6266 21.6243 18.6306 21.6998C18.6241 21.7871 18.5986 21.8283 18.5499 21.9001C18.5356 21.9308 18.5221 21.9621 18.5094 21.9938C18.4749 22.0751 18.4749 22.0751 18.4499 22.1001C18.4511 22.1323 18.4521 22.1648 18.4531 22.1983C18.4556 22.3163 18.4269 22.4091 18.3841 22.5183C18.3701 22.5758 18.3701 22.5758 18.3951 22.6316C18.4854 22.7028 18.5826 22.6873 18.6936 22.6843C18.7159 22.6843 18.7379 22.6843 18.7606 22.6843C18.8919 22.6826 18.9999 22.6633 19.1249 22.6251C19.1669 22.6408 19.2086 22.6576 19.2499 22.6751C19.3334 22.6796 19.4164 22.6778 19.4999 22.6751C19.4999 22.6586 19.4999 22.6421 19.4999 22.6251C19.6139 22.6203 19.7191 22.6196 19.8296 22.6501C19.9329 22.6771 20.0266 22.6991 20.1249 22.6501C20.2016 22.6468 20.2016 22.6468 20.2749 22.6501C20.2831 22.6583 20.2914 22.6666 20.2999 22.6751C20.3354 22.6771 20.3709 22.6776 20.4064 22.6773C20.4276 22.6773 20.4491 22.6773 20.4711 22.6771C20.4934 22.6768 20.5159 22.6768 20.5391 22.6766C20.5616 22.6763 20.5841 22.6763 20.6074 22.6761C20.6631 22.6758 20.7191 22.6756 20.7749 22.6751C20.7749 22.6586 20.7749 22.6421 20.7749 22.6251C20.8319 22.6236 20.8886 22.6226 20.9454 22.6218C20.9769 22.6213 21.0086 22.6206 21.0411 22.6201C21.1249 22.6251 21.1249 22.6251 21.1999 22.6751C21.2669 22.6726 21.2669 22.6726 21.3406 22.6608C21.5066 22.6446 21.6306 22.6586 21.7689 22.7558C21.9026 22.8766 21.9949 23.0366 22.0916 23.1868C22.1401 23.2618 22.1941 23.3303 22.2499 23.4001C22.2901 23.4581 22.3286 23.5173 22.3671 23.5766C22.4664 23.7278 22.5716 23.8716 22.6846 24.0128C22.7249 24.0751 22.7249 24.0751 22.7249 24.1751C22.7496 24.1833 22.7744 24.1916 22.7999 24.2001C22.8666 24.2853 22.9239 24.3711 22.9766 24.4656C23.0221 24.5503 23.0221 24.5503 23.0811 24.6188C23.1249 24.6751 23.1249 24.6751 23.1249 24.7501C23.1414 24.7501 23.1579 24.7501 23.1749 24.7501C23.2074 24.7866 23.2074 24.7866 23.2436 24.8376C23.2569 24.8558 23.2701 24.8741 23.2839 24.8928C23.3041 24.9211 23.3041 24.9211 23.3249 24.9501C23.3504 24.9833 23.3759 25.0166 23.4016 25.0501C23.5879 25.2991 23.5879 25.2991 23.6119 25.4001C23.6274 25.4586 23.6521 25.4931 23.6891 25.5406C23.7499 25.6196 23.7499 25.6196 23.7499 25.6751C23.7686 25.6806 23.7871 25.6863 23.8061 25.6921C23.9256 25.7491 23.9896 25.8601 24.0499 25.9751C24.0499 25.9998 24.0499 26.0246 24.0499 26.0501C24.0664 26.0501 24.0829 26.0501 24.0999 26.0501C24.0999 26.0748 24.0999 26.0996 24.0999 26.1251C24.1164 26.1251 24.1329 26.1251 24.1499 26.1251C24.1499 26.1416 24.1499 26.1581 24.1499 26.1751C24.1664 26.1751 24.1829 26.1751 24.1999 26.1751C24.2066 26.1901 24.2131 26.2053 24.2199 26.2208C24.2519 26.2783 24.2789 26.3021 24.3311 26.3406C24.4441 26.4333 24.5056 26.5483 24.5749 26.6751C24.5949 26.7083 24.6146 26.7416 24.6344 26.7751C24.6749 26.8501 24.6749 26.8501 24.6749 26.9001C24.6889 26.9051 24.7029 26.9103 24.7171 26.9156C24.8399 26.9886 24.9004 27.0956 24.9499 27.2251C24.9649 27.2436 24.9799 27.2621 24.9954 27.2813C25.0421 27.3401 25.0754 27.3936 25.1109 27.4593C25.1584 27.5471 25.2099 27.6278 25.2696 27.7073C25.2999 27.7501 25.2999 27.7501 25.3341 27.8098C25.3934 27.9043 25.4696 27.9796 25.5461 28.0601C25.6661 28.2046 25.6869 28.3206 25.6824 28.5036C25.6704 28.6193 25.6311 28.6938 25.5499 28.7751C25.4934 28.7813 25.4934 28.7813 25.4209 28.7813C25.3934 28.7813 25.3659 28.7816 25.3374 28.7818C25.3069 28.7816 25.2761 28.7816 25.2446 28.7813C25.2124 28.7816 25.1799 28.7816 25.1464 28.7816C25.0559 28.7818 24.9651 28.7818 24.8746 28.7816C24.7761 28.7816 24.6779 28.7818 24.5794 28.7821C24.4069 28.7823 24.2344 28.7823 24.0616 28.7823C23.8051 28.7821 23.5484 28.7823 23.2916 28.7826C22.8069 28.7831 22.3219 28.7833 21.8369 28.7833C21.4624 28.7833 21.0879 28.7833 20.7136 28.7836C20.6059 28.7836 20.4984 28.7836 20.3906 28.7838C20.3639 28.7838 20.3371 28.7838 20.3096 28.7838C19.5566 28.7841 18.8036 28.7843 18.0506 28.7843C18.0224 28.7843 17.9939 28.7843 17.9646 28.7843C17.8206 28.7843 17.6766 28.7843 17.5326 28.7843C17.4899 28.7843 17.4899 28.7843 17.4459 28.7843C17.3881 28.7843 17.3304 28.7843 17.2724 28.7843C16.3724 28.7841 15.4724 28.7846 14.5721 28.7853C13.5619 28.7861 12.5514 28.7863 11.5411 28.7863C11.4334 28.7863 11.3259 28.7863 11.2181 28.7863C11.1784 28.7863 11.1784 28.7863 11.1379 28.7863C10.7104 28.7863 10.2831 28.7868 9.85563 28.7871C9.42638 28.7876 8.99738 28.7876 8.56813 28.7873C8.31288 28.7871 8.05763 28.7871 7.80238 28.7876C7.63188 28.7881 7.46163 28.7878 7.29138 28.7876C7.19438 28.7873 7.09713 28.7873 6.99988 28.7878C6.89538 28.7881 6.79113 28.7878 6.68663 28.7873C6.65613 28.7876 6.62564 28.7878 6.59414 28.7881C6.55264 28.7878 6.55263 28.7878 6.51038 28.7873C6.47438 28.7873 6.47439 28.7873 6.43789 28.7873C6.35639 28.7713 6.32663 28.7388 6.27488 28.6751C6.22313 28.5351 6.21338 28.3938 6.24988 28.2501C6.26638 28.2418 6.28288 28.2336 6.29988 28.2251C6.32538 28.1788 6.34913 28.1318 6.37188 28.0843C6.38513 28.0571 6.39839 28.0301 6.41214 28.0021C6.42464 27.9766 6.43713 27.9511 6.44988 27.9251C6.50913 27.8066 6.56888 27.7308 6.67488 27.6501C6.71063 27.5998 6.71063 27.5998 6.72488 27.5501C6.71663 27.5336 6.70838 27.5171 6.69988 27.5001C6.84363 27.3751 6.84363 27.3751 6.89988 27.3751C6.89988 27.3586 6.89988 27.3421 6.89988 27.3251C6.91638 27.3251 6.93288 27.3251 6.94988 27.3251C6.96238 27.2631 6.96238 27.2631 6.97488 27.2001C7.00788 27.1918 7.04088 27.1836 7.07488 27.1751C7.08013 27.1503 7.08538 27.1256 7.09063 27.1001C7.12363 26.9831 7.19163 26.8873 7.27488 26.8001C7.29138 26.8001 7.30788 26.8001 7.32488 26.8001C7.33338 26.7798 7.33338 26.7798 7.34213 26.7593C7.37488 26.7001 7.37488 26.7001 7.43438 26.6328C7.52213 26.5308 7.58463 26.4036 7.61063 26.2713C7.62488 26.2251 7.62488 26.2251 7.69988 26.1751C7.72588 26.1476 7.75088 26.1193 7.77488 26.0906C7.78813 26.0751 7.80113 26.0598 7.81438 26.0438C7.84213 26.0098 7.86813 25.9746 7.89363 25.9391C7.90413 25.9261 7.91438 25.9133 7.92488 25.9001C7.94138 25.9001 7.95788 25.9001 7.97488 25.9001C7.97638 25.8833 7.97763 25.8666 7.97888 25.8493C8.00863 25.7441 8.06963 25.6716 8.13588 25.5858C8.16088 25.5531 8.18588 25.5203 8.21088 25.4873C8.22188 25.4731 8.23313 25.4586 8.24438 25.4438C8.27638 25.4003 8.27638 25.4003 8.29988 25.3491C8.32488 25.3001 8.32488 25.3001 8.39063 25.2266C8.52913 25.0693 8.63263 24.8816 8.72963 24.6968C8.77988 24.6171 8.82088 24.5973 8.89988 24.5501C8.92638 24.5078 8.95238 24.4653 8.97538 24.4213C9.01214 24.3523 9.05588 24.2893 9.09988 24.2251C9.09163 24.2086 9.08338 24.1921 9.07488 24.1751C9.08738 24.1653 9.09963 24.1556 9.11238 24.1456C9.12838 24.1326 9.14438 24.1196 9.16088 24.1063C9.18488 24.0871 9.18488 24.0871 9.20938 24.0676C9.25463 24.0201 9.26513 23.9891 9.27488 23.9251C9.29138 23.9251 9.30788 23.9251 9.32488 23.9251C9.32488 23.9003 9.32488 23.8756 9.32488 23.8501C9.34138 23.8418 9.35788 23.8336 9.37488 23.8251C9.38588 23.8011 9.38588 23.8011 9.39688 23.7766C9.43138 23.7133 9.46213 23.7063 9.52488 23.6751C9.54263 23.6421 9.55913 23.6086 9.57488 23.5751C9.61813 23.5031 9.66388 23.4328 9.70938 23.3626C9.72738 23.3341 9.72738 23.3341 9.74588 23.3048C9.80738 23.2093 9.86813 23.1293 9.94988 23.0501C9.96188 23.0216 9.97363 22.9933 9.98588 22.9641C10.0276 22.8688 10.0731 22.8188 10.1499 22.7501C10.1664 22.7336 10.1829 22.7171 10.1999 22.7001C10.4321 22.5953 10.7591 22.5946 10.9999 22.6751C11.0164 22.6668 11.0329 22.6586 11.0499 22.6501C11.1171 22.6453 11.1824 22.6478 11.2499 22.6501C11.2581 22.6583 11.2664 22.6666 11.2749 22.6751C11.3531 22.6768 11.4304 22.6773 11.5084 22.6766C11.5589 22.6763 11.6091 22.6761 11.6596 22.6758C11.6864 22.6758 11.7131 22.6756 11.7406 22.6753C12.1944 22.6728 12.6479 22.6756 13.1016 22.6876C13.1244 22.6881 13.1474 22.6886 13.1711 22.6893C13.2974 22.6926 13.4236 22.6961 13.5499 22.7001C13.5499 22.6836 13.5499 22.6671 13.5499 22.6501C13.5664 22.6418 13.5829 22.6336 13.5999 22.6251C13.5966 22.4281 13.5786 22.2748 13.4789 22.1031C13.4271 22.0078 13.4221 21.9261 13.4234 21.8188C13.4239 21.7853 13.4239 21.7853 13.4241 21.7511C13.4246 21.7258 13.4246 21.7258 13.4249 21.7001C13.4084 21.7001 13.3919 21.7001 13.3749 21.7001C13.3666 21.6506 13.3584 21.6011 13.3499 21.5501C13.3334 21.5501 13.3169 21.5501 13.2999 21.5501C13.2891 21.5106 13.2891 21.5106 13.2781 21.4703C13.2534 21.3798 13.2534 21.3798 13.2246 21.3156C13.1981 21.2451 13.1869 21.1806 13.1766 21.1063C13.1621 21.0136 13.1454 20.9273 13.1141 20.8391C13.0284 20.5966 12.9916 20.3608 12.9851 20.1053C12.9744 20.0193 12.9599 19.9861 12.8999 19.9251C12.8751 19.9086 12.8504 19.8921 12.8249 19.8751C12.6966 19.6728 12.7054 19.4308 12.6999 19.2001C12.6834 19.2001 12.6669 19.2001 12.6499 19.2001C12.5761 19.0516 12.5296 18.9071 12.4951 18.7448C12.4781 18.6738 12.4781 18.6738 12.4376 18.6146C12.3914 18.5351 12.3779 18.4636 12.3609 18.3733C12.3421 18.2733 12.3241 18.1893 12.2749 18.1001C12.2634 18.0591 12.2519 18.0183 12.2409 17.9773C12.2221 17.9156 12.1976 17.8568 12.1734 17.7968C12.1234 17.6633 12.1121 17.5406 12.1094 17.3986C12.0986 17.3141 12.0704 17.2713 12.0249 17.2001C12.0064 17.1463 11.9891 17.0921 11.9734 17.0376C11.9449 16.9391 11.9136 16.8448 11.8749 16.7501C11.8634 16.7096 11.8519 16.6693 11.8406 16.6288C11.7969 16.4791 11.7496 16.3301 11.6859 16.1876C11.6446 16.0868 11.6206 15.9866 11.5954 15.8811C11.5746 15.7988 11.5504 15.7183 11.5249 15.6376C11.4836 15.5066 11.4489 15.3751 11.4179 15.2413C11.4011 15.1738 11.4011 15.1738 11.3729 15.1076C11.3469 15.0418 11.3499 14.9953 11.3499 14.9251C11.3416 14.8988 11.3331 14.8726 11.3244 14.8458C11.2976 14.7403 11.2999 14.6593 11.3094 14.5516C11.3109 14.5343 11.3121 14.5173 11.3136 14.4998C11.3171 14.4581 11.3211 14.4166 11.3249 14.3751C11.3414 14.3751 11.3579 14.3751 11.3749 14.3751C11.3739 14.3591 11.3726 14.3433 11.3714 14.3271C11.3644 14.1526 11.3951 14.0093 11.4464 13.8433C11.4759 13.7471 11.5011 13.6506 11.5249 13.5531C11.5291 13.5366 11.5334 13.5201 11.5376 13.5031C11.5591 13.4161 11.5796 13.3293 11.5991 13.2418C11.6401 13.0611 11.6804 12.9211 11.7999 12.7751C11.7999 12.7421 11.7999 12.7091 11.7999 12.6751C11.8301 12.6406 11.8301 12.6406 11.8749 12.6001C11.9146 12.5503 11.9536 12.5006 11.9921 12.4501C12.0086 12.4283 12.0086 12.4283 12.0256 12.4066C12.0956 12.3151 12.1631 12.2221 12.2296 12.1281C12.2989 12.0321 12.3714 11.9483 12.4571 11.8668C12.5191 11.8063 12.5741 11.7403 12.6306 11.6748C12.6899 11.6083 12.7534 11.5471 12.8179 11.4861C12.8556 11.4518 12.8556 11.4518 12.8499 11.4001C12.8664 11.4001 12.8829 11.4001 12.8999 11.4001C12.9081 11.3671 12.9164 11.3341 12.9249 11.3001C12.9414 11.3001 12.9579 11.3001 12.9749 11.3001C13.0176 11.2716 13.0591 11.2416 13.0999 11.2108C13.2319 11.1133 13.3654 11.0186 13.4999 10.9251C13.4916 10.9086 13.4834 10.8921 13.4749 10.8751C13.5004 10.8688 13.5256 10.8626 13.5516 10.8563C13.6679 10.8228 13.7671 10.7626 13.8679 10.6971C13.9816 10.6261 14.0689 10.6091 14.1999 10.6001C14.1999 10.5836 14.1999 10.5671 14.1999 10.5501C14.2164 10.5501 14.2329 10.5501 14.2499 10.5501C14.1879 10.4833 14.1341 10.4361 14.0499 10.4001C14.0499 10.4166 14.0499 10.4331 14.0499 10.4501C13.9311 10.4281 13.9311 10.4281 13.8749 10.4001C13.8749 10.3836 13.8749 10.3671 13.8749 10.3501C13.8501 10.3418 13.8254 10.3336 13.7999 10.3251C13.7749 10.3001 13.7499 10.2751 13.7249 10.2501C13.6736 10.2173 13.6214 10.1871 13.5686 10.1571C13.5249 10.1251 13.5249 10.1251 13.4999 10.0501C13.4751 10.0418 13.4504 10.0336 13.4249 10.0251C13.4249 10.0086 13.4249 9.99209 13.4249 9.97509C13.4034 9.96559 13.4034 9.96559 13.3811 9.95634C13.3169 9.92034 13.2734 9.88034 13.2249 9.82509C13.2249 9.80859 13.2249 9.79209 13.2249 9.77509C13.2034 9.76559 13.2034 9.76559 13.1811 9.75634C13.0596 9.68859 12.9979 9.58684 12.9286 9.47009C12.8999 9.42134 12.8999 9.42134 12.8499 9.37509C12.7749 9.28259 12.7749 9.28259 12.7749 9.22509C12.7584 9.22509 12.7419 9.22509 12.7249 9.22509C12.7249 9.20859 12.7249 9.19209 12.7249 9.17509C12.7001 9.16684 12.6754 9.15859 12.6499 9.15009C12.6124 9.09359 12.6124 9.09359 12.5749 9.02184C12.5554 8.98459 12.5554 8.98459 12.5354 8.94634C12.5079 8.89084 12.4819 8.83534 12.4579 8.77809C12.4281 8.70134 12.4281 8.70134 12.3886 8.64184C12.3481 8.57159 12.3241 8.50534 12.2999 8.42809C12.2734 8.34509 12.2466 8.26709 12.2109 8.18759C12.1051 7.92959 12.0714 7.65984 12.0699 7.38334C12.0699 7.36034 12.0696 7.33759 12.0694 7.31384C12.0691 7.26559 12.0691 7.21734 12.0689 7.16884C12.0686 7.09584 12.0679 7.02284 12.0671 6.94984C12.0659 6.70459 12.0754 6.48584 12.1499 6.25009C12.1614 6.19159 12.1724 6.13334 12.1829 6.07509C12.2141 5.92359 12.2694 5.80259 12.3429 5.66734C12.3736 5.60309 12.3854 5.55759 12.3906 5.48759C12.4019 5.38259 12.4246 5.36884 12.4999 5.30009C12.5224 5.25434 12.5449 5.20834 12.5664 5.16234C12.6189 5.06509 12.6836 4.97659 12.7479 4.88709C12.7924 4.82459 12.8256 4.77334 12.8499 4.70009C12.8664 4.70009 12.8829 4.70009 12.8999 4.70009C12.9006 4.67834 12.9011 4.65659 12.9016 4.63434C12.9306 4.52959 12.9736 4.49959 13.0571 4.43459C13.1059 4.39534 13.1379 4.35009 13.1749 4.30009C13.2121 4.28759 13.2121 4.28759 13.2499 4.27509C13.2499 4.25034 13.2499 4.22559 13.2499 4.20009C13.2664 4.20009 13.2829 4.20009 13.2999 4.20009C13.3081 4.18359 13.3164 4.16709 13.3249 4.15009C13.3614 4.12609 13.3614 4.12609 13.3984 4.10159C13.4789 4.05434 13.4789 4.05434 13.5249 3.97509C13.5711 3.94459 13.5711 3.94459 13.6266 3.91559C13.6466 3.90484 13.6666 3.89434 13.6871 3.88334C13.7079 3.87234 13.7286 3.86134 13.7499 3.85009C13.7901 3.82759 13.8301 3.80534 13.8704 3.78284C13.9684 3.72784 14.0641 3.67734 14.1704 3.64059C14.2514 3.61059 14.3241 3.57409 14.3984 3.52934C14.4911 3.47659 14.5874 3.43109 14.6831 3.38409C14.7529 3.35009 14.7529 3.35009 14.8249 3.30009C14.8929 3.28534 14.9596 3.27234 15.0281 3.26084C15.1489 3.25034 15.1489 3.25034 15.2499 3.20009C15.4534 3.16734 15.6586 3.17034 15.8641 3.17034ZM14.7266 4.15259C14.6749 4.17509 14.6749 4.17509 14.5936 4.19834C14.5214 4.22059 14.5214 4.22059 14.4719 4.28134C14.4009 4.34934 14.3456 4.37984 14.2579 4.42184C13.8969 4.59534 13.6236 4.85234 13.4249 5.20009C13.3749 5.27509 13.3749 5.27509 13.2999 5.30009C13.2654 5.38109 13.2391 5.46359 13.2119 5.54734C13.1694 5.63659 13.1349 5.65459 13.0499 5.70009C13.0294 5.77534 13.0294 5.77534 13.0249 5.85009C13.0126 5.87484 13.0126 5.87484 12.9999 5.90009C12.9984 5.93434 12.9979 5.96884 12.9984 6.00309C12.9989 6.03509 12.9994 6.06709 12.9999 6.10009C12.9834 6.10009 12.9669 6.10009 12.9499 6.10009C12.9451 6.11584 12.9404 6.13184 12.9354 6.14834C12.9289 6.16909 12.9224 6.18959 12.9156 6.21084C12.9091 6.23159 12.9029 6.25209 12.8964 6.27334C12.8749 6.32509 12.8749 6.32509 12.8249 6.35009C12.8161 6.41084 12.8109 6.46859 12.8079 6.52959C12.8069 6.54784 12.8056 6.56584 12.8046 6.58434C12.7979 6.72734 12.8071 6.86609 12.8204 7.00859C12.8266 7.13284 12.8176 7.25459 12.8059 7.37859C12.7964 7.49084 12.8104 7.57009 12.8499 7.67509C12.8406 7.73434 12.8406 7.73434 12.8249 7.77509C12.8414 7.78334 12.8579 7.79159 12.8749 7.80009C12.8884 7.85434 12.8994 7.90909 12.9094 7.96409C12.9384 8.10959 12.9781 8.22109 13.0499 8.35009C13.0499 8.36659 13.0499 8.38309 13.0499 8.40009C13.0694 8.41384 13.0886 8.42759 13.1084 8.44184C13.1919 8.51484 13.2086 8.57434 13.2406 8.67959C13.2676 8.77209 13.2676 8.77209 13.2999 8.85009C13.3246 8.85834 13.3494 8.86659 13.3749 8.87509C13.3851 8.90284 13.3851 8.90284 13.3954 8.93134C13.4284 9.00784 13.4684 9.03834 13.5336 9.08834C13.5981 9.14559 13.6439 9.21484 13.6926 9.28559C13.7034 9.29859 13.7139 9.31159 13.7249 9.32509C13.7414 9.32509 13.7579 9.32509 13.7749 9.32509C13.7849 9.34734 13.7849 9.34734 13.7951 9.37009C13.9096 9.58034 14.1821 9.70434 14.3811 9.82334C14.4169 9.84509 14.4519 9.86784 14.4866 9.89109C14.5744 9.93809 14.6651 9.96159 14.7609 9.98759C14.7979 9.99759 14.8349 10.0076 14.8719 10.0178C14.8879 10.0223 14.9041 10.0266 14.9209 10.0311C14.9749 10.0501 14.9749 10.0501 15.0444 10.0876C15.1356 10.1298 15.2196 10.1443 15.3184 10.1543C15.3461 10.1573 15.3461 10.1573 15.3744 10.1603C15.5651 10.1793 15.7556 10.1826 15.9474 10.1816C16.0049 10.1813 16.0624 10.1816 16.1201 10.1818C16.5489 10.1838 16.5489 10.1838 16.9499 10.0501C17.0219 10.0328 17.0219 10.0328 17.0749 10.0251C17.0749 10.0168 17.0749 10.0086 17.0749 10.0001C17.0911 9.99609 17.1071 9.99209 17.1236 9.98784C17.2561 9.95209 17.3524 9.91184 17.4599 9.82684C17.5199 9.78684 17.5794 9.78009 17.6499 9.77509C17.6499 9.75859 17.6499 9.74209 17.6499 9.72509C17.6641 9.71859 17.6781 9.71209 17.6926 9.70534C17.7566 9.67134 17.8114 9.63184 17.8686 9.58759C17.8886 9.57234 17.9086 9.55709 17.9294 9.54134C17.9444 9.52759 17.9594 9.51409 17.9749 9.50009C17.9749 9.48359 17.9749 9.46709 17.9749 9.45009C17.9914 9.45009 18.0079 9.45009 18.0249 9.45009C18.0249 9.43359 18.0249 9.41709 18.0249 9.40009C18.0496 9.39184 18.0744 9.38359 18.0999 9.37509C18.1081 9.35859 18.1164 9.34209 18.1249 9.32509C18.1414 9.32509 18.1579 9.32509 18.1749 9.32509C18.1914 9.30034 18.2079 9.27559 18.2249 9.25009C18.4576 8.96984 18.4576 8.96984 18.5999 8.87509C18.6171 8.83359 18.6336 8.79184 18.6499 8.75009C18.6699 8.71909 18.6904 8.68834 18.7109 8.65784C18.7736 8.56109 18.8036 8.46659 18.8306 8.35484C18.8499 8.30009 18.8499 8.30009 18.8886 8.26159C18.9351 8.21484 18.9369 8.18509 18.9421 8.12034C18.9461 8.07309 18.9461 8.07309 18.9499 8.02509C18.9664 8.02509 18.9829 8.02509 18.9999 8.02509C19.0011 8.00634 19.0024 7.98734 19.0036 7.96809C19.0066 7.92984 19.0066 7.92984 19.0094 7.89059C19.0111 7.86559 19.0129 7.84059 19.0146 7.81509C19.0226 7.74509 19.0346 7.68334 19.0506 7.61534C19.0846 7.45084 19.0816 7.28584 19.0801 7.11884C19.0796 7.06434 19.0796 7.00984 19.0796 6.95509C19.0964 6.63109 19.0964 6.63109 19.0249 6.32509C19.0191 6.25309 19.0144 6.18134 19.0109 6.10934C19.0099 6.08934 19.0089 6.06934 19.0076 6.04859C19.0051 5.99909 19.0024 5.94959 18.9999 5.90009C18.9574 5.88584 18.9574 5.88584 18.9141 5.87159C18.8656 5.85084 18.8656 5.85084 18.8249 5.82509C18.8021 5.75634 18.8021 5.75634 18.7984 5.67809C18.7871 5.55134 18.7871 5.55134 18.7031 5.45634C18.6774 5.43759 18.6516 5.41909 18.6249 5.40009C18.5974 5.35259 18.5974 5.35259 18.5734 5.30009C18.5299 5.20459 18.4774 5.14709 18.3999 5.07509C18.3546 5.02434 18.3104 4.97309 18.2661 4.92159C18.2106 4.85834 18.2106 4.85834 18.1499 4.80009C18.1334 4.80009 18.1169 4.80009 18.0999 4.80009C18.0949 4.78609 18.0899 4.77209 18.0849 4.75784C18.0364 4.67759 17.9679 4.62984 17.8936 4.57509C17.8796 4.56434 17.8656 4.55359 17.8514 4.54284C17.7001 4.41284 17.7001 4.41284 17.5249 4.35009C17.5261 4.33084 17.5271 4.31184 17.5281 4.29209C17.5306 4.21934 17.5306 4.21934 17.4749 4.15009C17.4076 4.14759 17.4076 4.14759 17.3296 4.15634C17.1566 4.16134 17.0576 4.11184 16.9164 4.01559C16.6794 3.88809 16.3086 3.94534 16.0446 3.94534C15.9751 3.94534 15.9056 3.94484 15.8359 3.94434C15.4369 3.94309 15.0919 3.98359 14.7266 4.15259ZM16.2249 10.8751C16.2084 10.8916 16.1919 10.9081 16.1749 10.9251C16.1996 10.9251 16.2244 10.9251 16.2499 10.9251C16.2416 10.9086 16.2334 10.8921 16.2249 10.8751ZM15.3249 11.0501C15.2866 11.0556 15.2481 11.0603 15.2094 11.0643C14.8731 11.0993 14.8731 11.0993 14.5594 11.2186C14.4934 11.2536 14.4269 11.2773 14.3561 11.3016C14.2746 11.3301 14.2009 11.3606 14.1266 11.4046C14.0639 11.4416 14.0206 11.4636 13.9499 11.4751C13.9499 11.4916 13.9499 11.5081 13.9499 11.5251C13.9356 11.5318 13.9214 11.5386 13.9066 11.5456C13.8291 11.5858 13.7586 11.6346 13.6866 11.6836C13.6449 11.7116 13.6026 11.7393 13.5604 11.7663C13.5399 11.7796 13.5194 11.7926 13.4984 11.8063C13.4796 11.8181 13.4606 11.8301 13.4414 11.8426C13.4276 11.8533 13.4141 11.8638 13.3999 11.8751C13.3999 11.8916 13.3999 11.9081 13.3999 11.9251C13.3856 11.9316 13.3711 11.9383 13.3561 11.9453C13.2416 12.0058 13.1909 12.0643 13.1249 12.1751C13.0021 12.3136 13.0021 12.3136 12.8999 12.3251C12.8916 12.3828 12.8834 12.4406 12.8749 12.5001C12.8584 12.5001 12.8419 12.5001 12.8249 12.5001C12.7599 12.5871 12.7056 12.6813 12.6499 12.7751C12.6389 12.7936 12.6279 12.8123 12.6164 12.8316C12.5551 12.9428 12.5449 13.0211 12.5499 13.1501C12.4999 13.2251 12.4999 13.2251 12.4376 13.2441C12.3669 13.2703 12.3669 13.2703 12.3436 13.3521C12.3364 13.3828 12.3291 13.4136 12.3219 13.4453C12.2941 13.5623 12.2616 13.6476 12.1999 13.7501C12.1814 13.8201 12.1814 13.8201 12.1719 13.8938C12.1679 13.9201 12.1641 13.9466 12.1601 13.9736C12.1569 13.9988 12.1534 14.0241 12.1499 14.0501C12.1471 14.0698 12.1444 14.0896 12.1414 14.1098C12.1254 14.2338 12.1241 14.3553 12.1259 14.4803C12.1246 14.5698 12.1136 14.6568 12.1006 14.7451C12.0959 14.8003 12.0959 14.8003 12.1231 14.8451C12.1616 14.9238 12.1641 15.0046 12.1719 15.0906C12.1896 15.2578 12.2281 15.3971 12.2999 15.5501C12.3254 15.6263 12.3261 15.6736 12.3234 15.7531C12.3221 15.9483 12.3369 16.1033 12.4749 16.2501C12.5294 16.3313 12.5324 16.3641 12.5374 16.4593C12.5429 16.5593 12.5619 16.6328 12.5999 16.7251C12.5999 16.7498 12.5999 16.7746 12.5999 16.8001C12.6156 16.8153 12.6314 16.8308 12.6476 16.8468C12.7074 16.9073 12.7199 16.9446 12.7391 17.0266C12.7451 17.0506 12.7509 17.0748 12.7571 17.0998C12.7631 17.1246 12.7689 17.1493 12.7749 17.1751C12.7874 17.2223 12.7999 17.2698 12.8124 17.3171C12.8186 17.3401 12.8246 17.3628 12.8309 17.3863C12.8479 17.4428 12.8684 17.4943 12.8921 17.5483C12.9439 17.6773 12.9311 17.8136 12.9249 17.9501C12.9414 17.9583 12.9579 17.9666 12.9749 17.9751C12.9749 17.9998 12.9749 18.0246 12.9749 18.0501C12.9996 18.0583 13.0244 18.0666 13.0499 18.0751C13.0711 18.1168 13.0711 18.1168 13.0874 18.1718C13.0936 18.1923 13.0996 18.2126 13.1061 18.2338C13.1124 18.2556 13.1186 18.2773 13.1249 18.3001C13.1319 18.3213 13.1386 18.3426 13.1454 18.3646C13.1921 18.5188 13.2114 18.6656 13.2196 18.8263C13.2246 18.8953 13.2314 18.9583 13.2499 19.0251C13.2701 19.0421 13.2901 19.0591 13.3109 19.0766C13.4076 19.1873 13.4061 19.3078 13.4249 19.4501C13.4374 19.5121 13.4529 19.5651 13.4749 19.6251C13.4996 19.6416 13.5244 19.6581 13.5499 19.6751C13.6384 19.8613 13.6296 20.0968 13.6249 20.3001C13.6496 20.3083 13.6744 20.3166 13.6999 20.3251C13.8766 20.5368 13.9011 20.8323 13.8999 21.1001C13.9224 21.1576 13.9224 21.1576 13.9499 21.2001C13.9746 21.2001 13.9994 21.2001 14.0249 21.2001C14.0384 21.2566 14.0511 21.3136 14.0641 21.3703C14.0714 21.4018 14.0786 21.4336 14.0861 21.4661C14.0999 21.5501 14.0999 21.5501 14.0749 21.6251C14.0914 21.6333 14.1079 21.6416 14.1249 21.6501C14.1336 21.6916 14.1419 21.7333 14.1499 21.7751C14.1664 21.7916 14.1829 21.8081 14.1999 21.8251C14.2489 21.9346 14.2779 22.0256 14.2859 22.1453C14.2951 22.2673 14.3294 22.3693 14.3739 22.4831C14.4051 22.5628 14.4311 22.6438 14.4571 22.7256C14.4741 22.7761 14.4741 22.7761 14.5014 22.8246C14.5274 22.8798 14.5331 22.9221 14.5374 22.9828C14.5496 23.1103 14.5706 23.2261 14.6374 23.3376C14.7344 23.4988 14.7279 23.6416 14.7169 23.8253C14.7269 23.9176 14.7556 23.9411 14.8249 24.0001C14.8406 24.0468 14.8406 24.0468 14.8499 24.1001C14.8589 24.1216 14.8676 24.1433 14.8766 24.1656C14.8984 24.2438 14.9011 24.2938 14.8984 24.3733C14.8954 24.4943 14.9214 24.5676 14.9749 24.6751C14.9749 24.7083 14.9749 24.7416 14.9749 24.7751C14.9901 24.7791 15.0054 24.7828 15.0209 24.7871C15.1056 24.8466 15.1161 24.9353 15.1406 25.0313C15.1509 25.0688 15.1611 25.1066 15.1714 25.1441C15.1761 25.1621 15.1811 25.1801 15.1861 25.1988C15.2201 25.3478 15.2201 25.3478 15.3249 25.4501C15.3924 25.4591 15.3924 25.4591 15.4686 25.4603C15.4976 25.4613 15.5266 25.4623 15.5564 25.4633C15.5874 25.4641 15.6181 25.4648 15.6499 25.4656C15.6814 25.4666 15.7129 25.4673 15.7454 25.4683C15.8386 25.4708 15.9316 25.4731 16.0249 25.4751C16.0504 25.4756 16.0756 25.4761 16.1016 25.4768C16.1661 25.4781 16.2306 25.4791 16.2954 25.4796C16.3139 25.4801 16.3321 25.4803 16.3511 25.4806C16.5009 25.4808 16.6246 25.4586 16.7499 25.3751C16.7591 25.3418 16.7674 25.3086 16.7749 25.2751C16.7914 25.2668 16.8079 25.2586 16.8249 25.2501C16.8339 25.1896 16.8339 25.1896 16.8359 25.1171C16.8511 24.8961 16.8949 24.6948 17.0006 24.4996C17.0991 24.2996 17.1551 24.0473 17.1499 23.8251C17.1664 23.8251 17.1829 23.8251 17.1999 23.8251C17.2041 23.8091 17.2084 23.7931 17.2126 23.7766C17.2319 23.7026 17.2511 23.6286 17.2704 23.5546C17.2769 23.5296 17.2834 23.5043 17.2901 23.4786C17.3034 23.4278 17.3166 23.3771 17.3299 23.3263C17.3434 23.2751 17.3566 23.2236 17.3699 23.1723C17.3761 23.1478 17.3826 23.1236 17.3891 23.0983C17.3946 23.0766 17.4004 23.0546 17.4061 23.0321C17.4249 22.9751 17.4249 22.9751 17.4796 22.8953C17.5419 22.7988 17.5286 22.7383 17.5249 22.6251C17.5414 22.6003 17.5579 22.5756 17.5749 22.5501C17.5921 22.4918 17.6089 22.4333 17.6249 22.3751C17.6331 22.3668 17.6414 22.3586 17.6499 22.3501C17.6654 22.2746 17.6799 22.1991 17.6936 22.1233C17.7264 21.9526 17.7646 21.7861 17.8171 21.6203C17.8226 21.6033 17.8279 21.5866 17.8334 21.5691C17.8711 21.4538 17.8711 21.4538 17.8999 21.4251C17.9011 21.3833 17.9011 21.3416 17.8999 21.3001C17.9164 21.3001 17.9329 21.3001 17.9499 21.3001C17.9416 21.2506 17.9334 21.2011 17.9249 21.1501C17.9414 21.1501 17.9579 21.1501 17.9749 21.1501C17.9786 21.1298 17.9821 21.1098 17.9859 21.0891C17.9999 21.0251 17.9999 21.0251 18.0249 21.0001C18.0261 20.9501 18.0261 20.8998 18.0249 20.8501C18.0414 20.8501 18.0579 20.8501 18.0749 20.8501C18.1169 20.7343 18.1524 20.6213 18.1734 20.5001C18.1999 20.3566 18.2546 20.2296 18.3266 20.1031C18.3569 20.0343 18.3641 19.9698 18.3734 19.8953C18.3931 19.7553 18.4256 19.6321 18.4749 19.5001C18.4666 19.4918 18.4584 19.4836 18.4499 19.4751C18.4994 19.4421 18.5489 19.4091 18.5999 19.3751C18.5836 19.2891 18.5836 19.2891 18.5609 19.2046C18.5439 19.1196 18.5486 19.0366 18.5499 18.9501C18.5664 18.9501 18.5829 18.9501 18.5999 18.9501C18.6081 18.9006 18.6164 18.8511 18.6249 18.8001C18.6414 18.8001 18.6579 18.8001 18.6749 18.8001C18.7324 18.7138 18.7311 18.6766 18.7344 18.5751C18.7486 18.3516 18.8034 18.1711 18.9499 18.0001C18.9861 17.9143 19.0031 17.8338 19.0141 17.7421C19.0249 17.6501 19.0249 17.6501 19.0499 17.6251C19.0519 17.5786 19.0521 17.5323 19.0516 17.4858C19.0511 17.4478 19.0511 17.4478 19.0509 17.4093C19.0506 17.3896 19.0504 17.3701 19.0499 17.3501C19.0664 17.3501 19.0829 17.3501 19.0999 17.3501C19.1586 17.2038 19.2054 17.0608 19.2359 16.9063C19.2611 16.7796 19.2949 16.6608 19.3374 16.5391C19.3816 16.4123 19.4139 16.2898 19.4374 16.1578C19.5094 15.7656 19.5094 15.7656 19.6249 15.6501C19.6366 15.5966 19.6474 15.5428 19.6579 15.4891C19.6806 15.3786 19.7054 15.2781 19.7516 15.1751C19.8684 14.9036 19.8726 14.5886 19.8204 14.3016C19.8171 14.2833 19.8139 14.2653 19.8106 14.2466C19.7816 14.0936 19.7406 13.9453 19.6929 13.7971C19.6659 13.7121 19.6464 13.6328 19.6374 13.5441C19.6261 13.4578 19.6156 13.4163 19.5671 13.3468C19.5559 13.3303 19.5449 13.3138 19.5334 13.2966C19.5224 13.2813 19.5114 13.2658 19.4999 13.2501C19.4414 13.1673 19.3956 13.0936 19.3624 12.9983C19.3311 12.9081 19.2859 12.8491 19.2249 12.7751C19.2131 12.7456 19.2014 12.7161 19.1891 12.6858C19.1569 12.5973 19.1569 12.5973 19.0859 12.5501C19.0249 12.5001 19.0249 12.5001 18.9999 12.4093C18.9916 12.3816 18.9834 12.3536 18.9749 12.3251C18.9164 12.2968 18.9164 12.2968 18.8499 12.2751C18.8181 12.2383 18.7861 12.2013 18.7564 12.1628C18.7111 12.1083 18.6554 12.0688 18.5999 12.0251C18.5876 12.0078 18.5751 11.9908 18.5624 11.9733C18.5271 11.9216 18.5271 11.9216 18.4686 11.8923C18.3649 11.8283 18.2831 11.7433 18.1954 11.6593C18.1164 11.5928 18.0324 11.5251 17.9249 11.5251C17.9249 11.5086 17.9249 11.4921 17.9249 11.4751C17.8916 11.4596 17.8916 11.4596 17.8579 11.4438C17.7749 11.4001 17.7749 11.4001 17.7219 11.3501C17.6269 11.2838 17.5334 11.2681 17.4209 11.2451C17.3481 11.2243 17.3084 11.1968 17.2499 11.1501C17.2334 11.1501 17.2169 11.1501 17.1999 11.1501C17.1999 11.1171 17.1999 11.0841 17.1999 11.0501C17.1124 11.0668 17.1124 11.0668 17.0266 11.0906C16.9641 11.1021 16.9384 11.0906 16.8811 11.0641C16.7936 11.0281 16.7244 11.0213 16.6289 11.0256C16.5004 11.0241 16.3714 10.9903 16.2499 10.9501C15.9589 10.9348 15.5929 10.9161 15.3249 11.0501ZM12.3249 16.0751C12.3499 16.1251 12.3499 16.1251 12.3499 16.1251L12.3249 16.0751ZM12.4249 16.2001C12.4499 16.2501 12.4499 16.2501 12.4499 16.2501L12.4249 16.2001ZM12.8249 17.4501C12.8499 17.5001 12.8499 17.5001 12.8499 17.5001L12.8249 17.4501ZM19.4249 18.3751C19.4166 18.3998 19.4084 18.4246 19.3999 18.4501C19.4164 18.4501 19.4329 18.4501 19.4499 18.4501C19.4416 18.4253 19.4334 18.4006 19.4249 18.3751ZM19.3999 18.4751C19.4246 18.5121 19.4246 18.5121 19.4499 18.5501C19.4499 18.5253 19.4499 18.5006 19.4499 18.4751C19.4334 18.4751 19.4169 18.4751 19.3999 18.4751ZM19.2499 19.0251C19.2749 19.0751 19.2749 19.0751 19.2749 19.0751L19.2499 19.0251ZM19.0249 19.7501C19.0499 19.8001 19.0499 19.8001 19.0499 19.8001L19.0249 19.7501ZM18.1749 23.4001C18.1749 23.4083 18.1749 23.4166 18.1749 23.4251C18.2491 23.4251 18.3234 23.4251 18.3999 23.4251C18.3999 23.4168 18.3999 23.4086 18.3999 23.4001C18.3256 23.4001 18.2514 23.4001 18.1749 23.4001ZM11.4324 23.4003C11.3099 23.4013 11.1876 23.4028 11.0654 23.4053C11.0296 23.4061 10.9939 23.4066 10.9581 23.4068C10.7634 23.4088 10.6144 23.4156 10.4499 23.5251C10.3961 23.6073 10.3749 23.6518 10.3749 23.7501C10.3584 23.7501 10.3419 23.7501 10.3249 23.7501C10.2321 23.8243 10.1904 23.9338 10.1374 24.0376C10.0999 24.1001 10.0999 24.1001 10.0249 24.1501C10.0146 24.1768 10.0044 24.2036 9.99363 24.2313C9.96413 24.3063 9.93463 24.3423 9.87038 24.3906C9.75838 24.4788 9.69913 24.5926 9.62763 24.7138C9.56138 24.8251 9.48263 24.9263 9.40413 25.0291C9.27638 25.1966 9.16088 25.3686 9.05663 25.5516C9.02488 25.6001 9.02488 25.6001 8.97488 25.6251C8.97488 25.6416 8.97488 25.6581 8.97488 25.6751C8.95013 25.6833 8.92538 25.6916 8.89988 25.7001C8.88763 25.7371 8.88763 25.7371 8.87488 25.7751C8.85013 25.7873 8.85013 25.7873 8.82488 25.8001C8.80013 25.8466 8.77713 25.8943 8.75463 25.9421C8.69738 26.0598 8.63738 26.1518 8.54988 26.2501C8.49013 26.3321 8.43263 26.4161 8.37488 26.5001C8.36463 26.5148 8.35414 26.5296 8.34338 26.5451C8.30363 26.6023 8.27413 26.6523 8.25163 26.7188C8.21588 26.7943 8.17563 26.7958 8.09988 26.8251C8.08538 26.8713 8.08538 26.8713 8.07488 26.9251C8.02888 27.0381 7.98613 27.1391 7.87488 27.2001C7.85013 27.2083 7.82538 27.2166 7.79988 27.2251C7.79988 27.2663 7.79988 27.3076 7.79988 27.3501C7.78338 27.3501 7.76688 27.3501 7.74988 27.3501C7.74988 27.3666 7.74988 27.3831 7.74988 27.4001C7.73038 27.3988 7.71088 27.3978 7.69063 27.3968C7.62088 27.3928 7.62088 27.3928 7.57488 27.4501C7.55813 27.5106 7.55813 27.5106 7.54688 27.5781C7.54263 27.6008 7.53838 27.6236 7.53413 27.6471C7.53113 27.6646 7.52813 27.6821 7.52488 27.7001C7.50838 27.7001 7.49188 27.7001 7.47488 27.7001C7.44888 27.7408 7.42388 27.7826 7.39988 27.8251C7.39163 27.8333 7.38338 27.8416 7.37488 27.8501C7.37313 27.8838 7.37288 27.9176 7.37338 27.9516C7.37388 27.9841 7.37438 28.0166 7.37488 28.0501C7.70813 28.0726 8.03938 28.0786 8.37313 28.0781C8.42738 28.0781 8.48138 28.0781 8.53538 28.0781C8.68288 28.0781 8.83038 28.0781 8.97763 28.0778C9.13713 28.0778 9.29639 28.0778 9.45589 28.0778C9.73164 28.0778 10.0074 28.0778 10.2831 28.0776C10.5724 28.0776 10.8614 28.0773 11.1504 28.0773C11.1684 28.0773 11.1864 28.0773 11.2051 28.0773C11.2966 28.0773 11.3881 28.0773 11.4796 28.0773C12.1266 28.0773 12.7739 28.0771 13.4211 28.0768C14.0494 28.0766 14.6776 28.0763 15.3061 28.0763C15.3254 28.0763 15.3449 28.0763 15.3649 28.0763C15.5596 28.0763 15.7541 28.0763 15.9489 28.0763C16.3456 28.0761 16.7424 28.0761 17.1391 28.0761C17.1574 28.0761 17.1756 28.0761 17.1944 28.0761C18.3644 28.0758 19.5344 28.0753 20.7041 28.0751C20.8209 28.0751 20.9376 28.0751 21.0546 28.0753C21.3151 28.0758 21.5756 28.0761 21.8361 28.0763C21.9799 28.0763 22.1239 28.0766 22.2679 28.0768C23.0124 28.0783 23.7559 28.0718 24.4999 28.0501C24.5416 27.9253 24.4801 27.8148 24.4249 27.7001C24.3651 27.6323 24.3651 27.6323 24.2999 27.6001C24.2834 27.6001 24.2669 27.6001 24.2499 27.6001C24.2451 27.5831 24.2404 27.5661 24.2354 27.5488C24.2289 27.5266 24.2224 27.5041 24.2156 27.4813C24.2061 27.4481 24.2061 27.4481 24.1964 27.4143C24.1766 27.3551 24.1584 27.3031 24.1249 27.2501C24.1001 27.2423 24.0754 27.2346 24.0499 27.2266C24.0251 27.2178 24.0004 27.2091 23.9749 27.2001C23.9571 27.1588 23.9406 27.1171 23.9249 27.0751C23.8931 27.0203 23.8601 26.9661 23.8266 26.9126C23.7249 26.7501 23.7249 26.7501 23.6874 26.6851C23.6306 26.5938 23.5624 26.5143 23.4929 26.4328C23.4734 26.4101 23.4541 26.3873 23.4344 26.3641C23.4054 26.3301 23.4054 26.3301 23.3756 26.2953C23.3236 26.2231 23.2984 26.1606 23.2749 26.0751C23.2584 26.0751 23.2419 26.0751 23.2249 26.0751C23.2181 26.0533 23.2181 26.0533 23.2111 26.0311C23.1571 25.8593 23.1571 25.8593 23.0749 25.7001C23.0561 25.6941 23.0371 25.6881 23.0176 25.6821C22.9216 25.6366 22.8819 25.5608 22.8281 25.4733C22.8061 25.4391 22.7841 25.4048 22.7621 25.3708C22.7516 25.3543 22.7409 25.3376 22.7301 25.3206C22.6676 25.2258 22.5964 25.1381 22.5249 25.0501C22.4931 25.0106 22.4614 24.9708 22.4296 24.9313C22.4156 24.9138 22.4016 24.8963 22.3871 24.8786C22.3499 24.8251 22.3499 24.8251 22.3264 24.7628C22.2954 24.6888 22.2554 24.6451 22.1999 24.5876C22.1264 24.5106 22.0871 24.4491 22.0499 24.3501C22.0121 24.2941 21.9714 24.2498 21.9249 24.2001C21.9084 24.2001 21.8919 24.2001 21.8749 24.2001C21.8684 24.1818 21.8616 24.1638 21.8546 24.1453C21.8151 24.0513 21.7749 23.9733 21.6999 23.9031C21.6499 23.8501 21.6499 23.8501 21.6171 23.7656C21.5716 23.6678 21.5286 23.6261 21.4454 23.5613C21.3999 23.5251 21.3999 23.5251 21.3569 23.4736C21.2824 23.4098 21.2404 23.4116 21.1429 23.4098C21.1264 23.4093 21.1101 23.4088 21.0931 23.4086C21.0366 23.4073 20.9801 23.4068 20.9234 23.4063C20.8826 23.4056 20.8416 23.4048 20.8006 23.4041C20.0174 23.3916 19.2334 23.3978 18.4499 23.4001C18.4499 23.4083 18.4499 23.4166 18.4499 23.4251C18.4259 23.4261 18.4019 23.4273 18.3769 23.4286C18.3454 23.4306 18.3139 23.4323 18.2811 23.4343C18.2499 23.4361 18.2186 23.4378 18.1864 23.4396C18.0839 23.4491 18.0839 23.4491 17.9999 23.5001C17.9794 23.5748 17.9794 23.5748 17.9734 23.6626C17.9474 23.8843 17.8906 24.0708 17.7976 24.2731C17.7359 24.4141 17.7121 24.5628 17.6866 24.7136C17.6749 24.7751 17.6749 24.7751 17.6499 24.8501C17.6334 24.8583 17.6169 24.8666 17.5999 24.8751C17.5814 24.9333 17.5651 24.9908 17.5499 25.0501C17.5416 25.0763 17.5334 25.1026 17.5249 25.1296C17.5039 25.2101 17.4911 25.2851 17.4796 25.3671C17.4579 25.5071 17.4119 25.6236 17.3544 25.7521C17.3121 25.8571 17.2916 25.9633 17.2749 26.0751C17.2004 26.0998 17.1509 26.1031 17.0729 26.1033C17.0476 26.1033 17.0226 26.1033 16.9966 26.1033C16.9699 26.1033 16.9431 26.1031 16.9156 26.1031C16.8881 26.1031 16.8606 26.1031 16.8324 26.1028C16.7006 26.1023 16.5704 26.1001 16.4391 26.0876C16.2781 26.0723 16.1176 26.0721 15.9561 26.0718C15.9161 26.0716 15.9161 26.0716 15.8754 26.0716C15.7434 26.0718 15.6154 26.0776 15.4846 26.0941C15.3576 26.1066 15.2304 26.1056 15.1031 26.1063C15.0749 26.1068 15.0469 26.1073 15.0179 26.1078C14.9909 26.1078 14.9639 26.1081 14.9361 26.1081C14.9119 26.1083 14.8874 26.1086 14.8624 26.1088C14.7894 26.0983 14.7691 26.0826 14.7249 26.0251C14.5796 25.7626 14.5226 25.4796 14.4736 25.1871C14.4476 25.0911 14.4049 25.0321 14.3499 24.9501C14.3261 24.8851 14.3104 24.8191 14.2954 24.7516C14.2911 24.7346 14.2871 24.7176 14.2829 24.7003C14.2636 24.6191 14.2489 24.5406 14.2386 24.4576C14.2251 24.3753 14.2046 24.3238 14.1624 24.2531C14.1514 24.2341 14.1404 24.2151 14.1289 24.1956C14.1031 24.1513 14.1031 24.1513 14.0749 24.1251C14.0601 24.0438 14.0464 23.9628 14.0341 23.8813C14.0121 23.7508 13.9681 23.6631 13.8999 23.5501C13.8826 23.5003 13.8656 23.4503 13.8499 23.4001C13.5584 23.3993 13.2666 23.3988 12.9749 23.3986C12.8394 23.3986 12.7036 23.3983 12.5681 23.3981C12.1896 23.3973 11.8109 23.3978 11.4324 23.4003ZM7.79988 27.1501C7.80813 27.1666 7.81638 27.1831 7.82488 27.2001C7.83313 27.1836 7.84138 27.1671 7.84988 27.1501C7.83338 27.1501 7.81688 27.1501 7.79988 27.1501Z" fill="#F4F4F4"/>
<path d="M6.425 28.8C12.7198 28.8 19.0145 28.8 25.5 28.8C25.5 28.8082 25.5 28.8165 25.5 28.825C19.2053 28.825 12.9105 28.825 6.425 28.825C6.425 28.8167 6.425 28.8085 6.425 28.8Z" fill="#000101"/>
<path d="M15.9906 10.8234C16.0204 10.8237 16.0501 10.8239 16.0806 10.8242C16.1036 10.8244 16.1264 10.8247 16.1501 10.8249C16.1501 10.8414 16.1501 10.8579 16.1501 10.8749C16.1749 10.8667 16.1996 10.8584 16.2251 10.8499C16.2251 10.8664 16.2251 10.8829 16.2251 10.8999C16.0764 10.8999 15.9281 10.8999 15.7751 10.8999C15.7751 10.8834 15.7751 10.8669 15.7751 10.8499C15.8471 10.8139 15.9104 10.8227 15.9906 10.8234Z" fill="#0D0D0D"/>
<path d="M19 17.45C19.025 17.55 19.025 17.55 19.025 17.55L19 17.45Z" fill="#F5F5F5"/>
<path d="M14.95 3.22498C14.9583 3.24148 14.9665 3.25798 14.975 3.27498C14.9585 3.26673 14.942 3.25848 14.925 3.24998C14.9333 3.24173 14.9415 3.23348 14.95 3.22498Z" fill="#F5F5F5"/>
<path d="M23.025 25.725C23.075 25.75 23.075 25.75 23.075 25.75L23.025 25.725Z" fill="#000102"/>
<path d="M21.175 22.625C21.225 22.65 21.225 22.65 21.225 22.65L21.175 22.625Z" fill="#F5F5F5"/>
<path d="M19.325 22.625C19.375 22.65 19.375 22.65 19.375 22.65L19.325 22.625Z" fill="#F5F5F5"/>
<path d="M18.325 9C18.375 9.025 18.375 9.025 18.375 9.025L18.325 9Z" fill="#F5F5F5"/>
</svg>
