<svg width="400" height="286" viewBox="0 0 400 286" fill="none" xmlns="http://www.w3.org/2000/svg">
<mask id="mask0_815_188" style="mask-type:luminance" maskUnits="userSpaceOnUse" x="0" y="0" width="400" height="286">
<path d="M0.666504 0.40625H400V285.406H0.666504V0.40625Z" fill="white"/>
</mask>
<g mask="url(#mask0_815_188)">
<path d="M139.51 29.6876C135.609 30.4011 131.547 31.4584 127.412 32.8386C120.234 26.5886 112.188 22.2605 104.297 20.3751C107.042 18.1407 109.792 15.9063 112.537 13.6876C116.984 16.823 121.672 19.6928 126.203 22.474C127.745 23.4167 129.276 24.3595 130.802 25.3074C131.526 25.7605 133.896 26.9272 137.698 28.797C138.271 29.0782 138.885 29.3803 139.51 29.6876ZM119.698 35.7865C115.995 37.349 112.208 39.1772 108.214 41.323C105.943 40.4897 103.662 39.599 101.365 38.7084C96.9948 37.0053 92.5053 35.2605 87.9792 33.8542C91.1823 31.1615 94.5053 28.4011 97.9011 25.6042C106.005 28.573 113.037 31.8595 119.698 35.7865ZM97.9844 47.2761C96.8178 48.0053 95.6251 48.7657 94.3959 49.5626C89.4792 48.3074 84.7292 46.7605 81.0834 45.5365C80.0626 45.198 79.0469 44.823 78.0261 44.4532C77.4584 44.2449 76.8855 44.0365 76.3126 43.8282C77.3959 42.8855 78.474 41.948 79.5626 41.0105C85.323 44.0313 91.9636 45.8699 97.9844 47.2761ZM85.0105 55.9376C83.3178 57.1407 81.5365 58.4272 79.599 59.8386C75.2136 58.8647 70.974 57.7709 66.974 56.5886C66.1563 56.349 65.3386 56.0886 64.5209 55.823C64.1251 55.698 63.7292 55.573 63.323 55.448C65.1355 53.7813 66.9636 52.1251 68.7969 50.4845C73.5157 53.1303 79.224 54.7345 85.0105 55.9376ZM69.7136 67.2293C69.4011 67.1095 69.073 67.0261 68.7344 66.9897C65.1042 66.5678 61.2084 66.0938 57.3126 65.4949C55.9219 65.2813 54.5469 65.073 53.1407 65.0313C54.0209 64.1876 54.9115 63.349 55.7969 62.5105C60.1094 64.9115 65.3021 66.0053 70.2969 66.7865C70.1042 66.9324 69.9063 67.0834 69.7136 67.2293ZM47.2969 85.047C46.8594 84.823 46.3855 84.6772 45.8855 84.6199L44.9063 84.5105C42.6615 84.2553 40.3282 83.9897 37.9688 83.9897C37.2553 83.9897 36.5417 84.0157 35.823 84.073C35.4115 84.1042 35.0261 84.172 34.6667 84.2813C38.3855 79.948 42.3021 75.8074 46.2448 71.823C46.4792 72.1147 46.7605 72.3699 47.0886 72.5886C49.7032 74.2918 52.8803 74.5574 55.6823 74.797C56.3907 74.8543 57.0782 74.9115 57.7553 74.9949C58.2969 75.0574 58.8542 75.1251 59.4167 75.1876C58.8282 75.6511 58.2396 76.1147 57.6563 76.5782C56.9948 76.573 56.3438 76.5626 55.6823 76.5626C53.4948 76.5626 50.9115 76.6511 48.3907 77.297C47.1094 77.6251 46.2032 78.8074 46.2084 80.1615C46.2084 81.4532 47.0521 82.5365 48.2969 82.8595C48.7136 82.9636 49.1407 83.0574 49.5782 83.1459C48.8126 83.7709 48.0573 84.4063 47.2969 85.047ZM370.135 100.172C366.323 100.427 362.24 100.719 357.693 101.068C348.245 93.7293 334.464 88.1043 319.75 85.4793C321.219 85.3803 322.729 85.2449 324.297 85.099C327.313 84.823 330.427 84.5365 333.422 84.5365C338.13 84.5365 341.615 85.2449 344.385 86.7813C353.255 91.6876 361.891 96.1772 370.135 100.172ZM307.625 105.24C303.057 105.609 297.964 106.011 292.781 106.386L292.693 106.339C289.755 104.729 286.844 103.063 283.938 101.391C280.12 99.198 276.172 96.9376 272.198 94.8386C266.813 92.0001 261.146 89.2345 255.156 87.1407C264.667 86.948 273.344 86.7605 281.729 86.5522L289.537 86.3595C296.026 86.2032 302.677 86.0418 309.318 85.8543C308.745 86.5157 308.385 87.3907 308.318 88.3855C308.151 90.8386 309.833 92.9324 312.229 93.2553C321.339 94.4897 330.547 97.5678 339.594 102.417C339.651 102.448 339.714 102.474 339.771 102.516C336.141 102.818 332.505 103.125 328.875 103.438C324.432 101.375 319.729 99.5418 315.563 97.9272C313.797 97.2397 312.094 96.5782 310.484 95.9272C298.531 91.1043 288.208 88.9532 277.016 88.9532L275.755 88.9584C273.854 88.9897 272.385 90.4428 272.333 92.3438C272.281 94.1876 273.646 95.6824 275.5 95.8126C286.818 96.6043 297.964 100.87 307.625 105.24ZM272.104 107.677C269.833 107.792 267.557 107.891 265.287 107.99L262.875 108.094C256.792 104.198 250.104 101.141 243.625 98.1824C242.078 97.474 240.552 96.7761 239.057 96.0782C233.031 93.2605 226.714 90.5157 219.927 87.7605C221.917 87.724 228.234 87.6147 228.234 87.6147C228.255 87.823 228.287 88.0209 228.339 88.2188C228.729 89.7501 230.047 90.7397 231.688 90.7397H231.969C246.021 90.7397 259.568 98.7657 271.521 105.849L274.412 107.557C273.646 107.599 272.875 107.641 272.104 107.677ZM165.912 108.24C163.651 108.443 161.198 108.599 158.771 108.599C155.438 108.599 152.542 108.323 149.974 107.755C150.313 104.037 150.396 100.287 150.359 96.724C151.51 97.724 152.703 98.7605 154.031 99.6563L154.438 99.9272C157.854 102.24 161.385 104.625 164.641 107.224C165.068 107.563 165.49 107.901 165.912 108.24ZM238.859 109.026L237.38 108.333C235.333 107.391 233.224 106.406 231.287 105.333C227.677 103.328 224.037 101.214 220.521 99.1668C218.047 97.7293 215.578 96.2865 213.094 94.8751C220.38 97.9845 227.646 101.344 234.823 104.932C237.266 106.156 239.745 107.521 242.193 108.912C241.083 108.953 239.974 108.99 238.859 109.026ZM214.037 109.703C210.432 107.667 206.583 105.875 202.854 104.141C199.234 102.458 195.818 100.87 192.625 99.0834C186.203 95.4897 179.615 91.8022 172.839 88.3282L173.828 88.323C186.443 91.0834 197.953 98.1824 209.089 105.047C211 106.224 212.906 107.396 214.802 108.537C215.391 108.891 215.995 109.266 216.604 109.646C215.75 109.667 214.891 109.688 214.037 109.703ZM37.2813 93.7605C28.8594 101.365 21.5886 108.74 15.2657 116.099C15.8855 113.261 17.1094 110.125 18.9323 106.724C22.3959 100.255 26.573 94.2188 31.1355 88.5261C31.1146 88.7136 31.1042 88.9011 31.1042 89.0834C31.1042 91.5886 32.9271 93.4793 35.5365 93.6772C36.1146 93.724 36.698 93.7449 37.2813 93.7605ZM122.25 228.057C120.932 236.354 120.979 244.682 121.432 253.568C102.323 226.896 80.724 201.682 59.7917 177.25C46.8907 162.203 33.573 146.656 20.974 130.927C37.4323 109.912 59.5209 92.1668 77.0261 78.9949L77.4532 78.6772C94.8386 65.5886 114.464 50.823 135.537 44.7501C135.719 51.4011 136.037 58.1095 136.328 64.6147C136.5 68.2865 136.667 71.9584 136.818 75.6199C136.969 79.4688 137 83.474 137.026 87.3386C137.083 95.7553 137.151 104.453 138.479 112.771C138.87 115.214 141.229 117.276 143.635 117.276C143.672 117.276 143.828 117.276 143.865 117.276C145.656 117.177 147.599 117.136 149.99 117.136C150.531 117.136 151.068 117.141 151.604 117.141C151.646 118.448 152.042 119.74 152.766 120.813C153.813 122.375 155.417 123.328 157.318 123.516C157.464 123.552 157.615 123.573 157.771 123.573C178.031 123.531 197.792 123.266 216.505 122.776C217.547 122.969 218.406 123.089 219.208 123.156C219.26 123.162 219.469 123.167 219.521 123.167C220.208 123.167 220.891 122.984 221.516 122.63C228.115 122.443 234.714 122.193 241.307 121.943C243.057 122.302 244.755 122.49 246.365 122.49C246.953 122.49 247.547 122.464 248.13 122.412C248.828 122.359 249.474 122.078 250 121.625C255.208 121.406 260.417 121.162 265.625 120.901C267.052 121.417 268.26 121.823 269.412 122.151C269.729 122.245 270.057 122.292 270.391 122.292C271.354 122.292 272.302 121.88 272.99 121.167C273.193 120.958 273.365 120.729 273.51 120.49L294.245 119.354C301.266 122.891 307.026 124.547 312.344 124.547C314.365 124.531 315.958 123.323 316.479 121.531C316.844 120.281 316.594 119.021 315.844 118.047C321.234 117.688 326.318 117.307 331.255 116.906C334.667 118.172 337.703 118.87 340.516 119.026C340.552 119.031 340.677 119.031 340.714 119.031C342.24 119.031 343.672 118.031 344.271 116.537C344.38 116.261 344.458 115.984 344.505 115.708C358.547 114.307 371.063 112.615 382.583 110.547C382.365 110.859 382.172 111.193 382.021 111.563C381.448 112.927 381.469 114.505 382.052 115.787C382.057 115.912 382.057 116.052 382.063 116.214C382.073 117.609 382.089 119.005 382.057 120.396C382.005 122.766 381.964 125.125 381.922 127.49L381.813 133.391C381.615 143.271 381.219 153.313 380.849 163.031L380.641 168.349C380.354 175.896 380.005 183.443 379.656 190.99C379.078 203.568 378.474 216.552 378.172 229.38C372.266 228.901 366.354 228.448 360.448 227.99C344.953 226.797 328.932 225.568 313.203 223.88C308.839 223.417 304.474 222.943 300.109 222.464C280.818 220.354 260.87 218.177 241.151 216.958C225.953 216.016 210.76 215.891 197.896 215.891C193.208 215.891 188.516 215.912 183.823 215.927C179.141 215.948 174.458 215.964 169.781 215.964H166.859C162.016 215.953 157.151 215.865 152.276 215.781C147.208 215.688 141.974 215.599 136.818 215.599C132.958 215.599 129.5 215.646 126.25 215.755C124.229 215.755 122.505 216.5 121.307 217.849C120.021 219.292 119.396 221.359 119.635 223.38C119.75 225.359 120.719 227.052 122.25 228.057ZM130.323 285.573C132.26 285.573 134.005 284.886 135.234 283.646C136.438 282.432 137.063 280.776 137.042 278.859C136.984 273.359 136.557 267.688 136.151 262.203C135.328 251.24 134.49 239.922 136.484 229.287C139.792 229.328 143.094 229.349 146.406 229.349C156.479 229.349 166.724 229.167 176.63 228.984C186.521 228.807 196.75 228.62 206.797 228.62C219.677 228.62 230.385 228.917 240.484 229.563C256.802 230.599 273.573 232.484 289.792 234.313C314.646 237.109 340.339 240.005 365.552 240.005C373.401 240.005 381.016 239.719 388.177 239.156C390.396 238.984 392.12 237.427 392.464 235.287C392.708 233.792 392.203 232.37 391.172 231.417C391.281 217.896 391.75 204.156 392.203 190.859C392.578 179.75 392.969 168.255 393.151 156.943C393.162 156.5 393.203 155.578 393.271 154.276C394.583 127.734 393.443 114.089 389.578 110.031C389.052 109.484 388.516 109.13 388.005 108.912C388.162 108.781 388.307 108.646 388.448 108.495C390.198 109.234 391.948 109.958 393.688 110.656C394.182 110.849 394.693 110.948 395.208 110.948C396.974 110.948 398.63 109.766 399.339 107.995C400.01 106.333 399.656 104.557 398.417 103.37C390.063 95.3647 379.24 90.3386 368.776 85.4845C361.823 82.2605 354.63 78.922 348.412 74.7865C344.974 72.4949 340.505 71.4324 334.359 71.4324C331.162 71.4324 327.938 71.7084 324.823 71.974C322.349 72.1876 320.016 72.3907 317.906 72.4324C311.073 72.573 304.245 72.7501 297.417 72.9324C293.505 73.0417 289.599 73.1407 285.693 73.2397C248.448 74.1511 199.302 75.198 149.443 75.2188C149.401 74.2345 149.359 73.2553 149.333 72.2865C149 60.2084 149.01 48.1095 149.026 36.4115C149.026 35.4584 148.854 34.547 148.521 33.7032C148.891 33.5626 149.229 33.3386 149.521 33.047C150.401 32.1667 150.792 31.0313 150.646 29.7553C150.042 24.3334 138.854 16.2397 121.01 4.948C118.516 3.36466 116.354 2.00008 115.672 1.46362C114.776 0.765707 113.677 0.401123 112.495 0.401123C111.104 0.401123 109.646 0.916747 108.505 1.823C104.438 5.02612 100.354 8.20321 96.2709 11.3803C73.7761 28.8959 50.5157 47.0157 30.599 68.6147C20.0313 80.0678 6.88547 94.323 2.4688 110.854C4.99467e-05 120.083 1.46359 135.214 10.5053 140.068C22.9376 155.63 36.1094 171.026 48.849 185.917C74.8386 216.307 101.719 247.729 123.578 281.995C124.984 284.203 127.573 285.573 130.323 285.573Z" fill="#C49102"/>
</g>
</svg>
