<svg xmlns="http://www.w3.org/2000/svg" width="1619" height="1000" viewBox="0 0 1619 1000" version="1.1"><path d="M 1276.905 22.888 C 1265.211 25.445, 1253.505 30.387, 1236.129 40.103 C 1217.724 50.393, 1207.926 56.729, 1193.083 67.937 C 1176.944 80.124, 1168.803 87.410, 1163.232 94.650 C 1160.629 98.033, 1154.027 106.554, 1148.559 113.586 C 1134.417 131.775, 1123.690 148.074, 1113.736 166.500 C 1100.012 191.903, 1089.252 218.749, 1088.305 229.947 C 1087.636 237.862, 1090.147 247.520, 1093.881 251.396 L 1096.872 254.500 1089.436 262.891 C 1081.261 272.117, 1080.454 274.639, 1084.627 277.921 L 1087.254 279.988 1077.009 293.633 C 1062.601 312.823, 1061.114 316.813, 1066.609 321.527 L 1068.972 323.553 1063.237 331.467 C 1058.210 338.402, 1057.492 339.975, 1057.431 344.190 C 1057.367 348.625, 1057.017 349.284, 1052.931 352.668 C 1038.644 364.498, 1032.462 372.226, 1033.650 376.771 C 1034.079 378.408, 1031.914 381.225, 1023.598 389.852 C 1012.205 401.672, 1011.082 404.082, 1015.100 408.100 C 1016.255 409.255, 1016.817 410.514, 1016.350 410.897 C 1001.681 422.928, 998 427.319, 998 432.784 C 998 435.729, 996.917 437.408, 991 443.637 C 985.239 449.702, 984 451.590, 984 454.303 C 984 456.116, 984.464 458.064, 985.031 458.631 C 985.738 459.338, 984.825 461.214, 982.117 464.616 C 979.948 467.340, 977.024 471.731, 975.619 474.372 C 973.318 478.700, 973.193 479.487, 974.350 482.337 C 976.485 487.597, 984 487.003, 984 481.573 C 984 478.877, 988.149 472.386, 994.884 464.543 C 1000.056 458.521, 1001.282 454.682, 998.818 452.218 C 997.909 451.309, 999.199 449.418, 1004.405 444.026 C 1010.865 437.334, 1011.158 436.821, 1010.837 432.763 L 1010.500 428.511 1021.500 419.768 C 1033.933 409.886, 1036 407.715, 1036 404.544 C 1036 401.952, 1033.124 399, 1030.599 399 C 1029.425 399, 1031.573 396.039, 1037.178 389.928 C 1046.770 379.472, 1048.038 377.470, 1047.327 373.899 C 1046.881 371.658, 1047.821 370.410, 1054.104 364.899 C 1070.284 350.705, 1073 347.828, 1073 344.883 C 1073 343.076, 1072.271 341.680, 1070.961 340.979 C 1068.959 339.908, 1068.976 339.818, 1071.831 336.194 C 1078.343 327.928, 1083 320.545, 1083 318.489 C 1083 315.901, 1080.377 313.316, 1077.267 312.841 C 1075.218 312.528, 1075.578 311.803, 1081.656 304 C 1092.996 289.441, 1098 281.197, 1098 277.072 C 1098 275.052, 1097.492 272.892, 1096.871 272.271 C 1095.680 271.080, 1096.478 269.776, 1102.822 262.550 L 1105.898 259.047 1111.413 260.154 C 1116.272 261.130, 1118.384 260.938, 1129.162 258.545 C 1146.945 254.597, 1157.809 250.359, 1174.071 241.028 C 1195.886 228.509, 1221.375 215.598, 1232 211.684 C 1259.092 201.705, 1295.213 198.205, 1312 203.933 C 1326.054 208.728, 1340.118 216.483, 1348.500 224.057 C 1359.598 234.085, 1370.339 238.808, 1386.108 240.592 L 1392.147 241.275 1388.236 245.387 C 1386.084 247.649, 1381.510 253.003, 1378.069 257.285 C 1374.629 261.567, 1366.095 271.467, 1359.105 279.285 C 1352.116 287.103, 1339.246 301.825, 1330.506 312 C 1307.447 338.844, 1280.269 368.697, 1258.584 391 C 1234.124 416.156, 1183.637 467.265, 1164.806 485.933 C 1156.724 493.945, 1145.699 505.273, 1140.306 511.107 C 1130.375 521.848, 1088.540 562.895, 1063.721 586.250 C 1046.286 602.655, 1041.208 611.315, 1047.374 614.124 C 1050.629 615.608, 1053.484 613.931, 1055.958 609.083 C 1057.038 606.965, 1063.853 599.668, 1071.103 592.866 C 1094.673 570.753, 1137.261 528.972, 1147.306 518.107 C 1152.699 512.273, 1163.727 500.975, 1171.812 493 C 1179.898 485.025, 1208.169 456.450, 1234.637 429.500 C 1282.302 380.967, 1307.685 353.708, 1336.941 319.635 C 1345.260 309.945, 1358.190 295.151, 1365.674 286.759 C 1373.157 278.366, 1382.193 267.900, 1385.754 263.500 C 1395.880 250.988, 1406.769 240, 1409.043 240 C 1412.790 240, 1417.447 237.324, 1429.500 228.242 C 1441.534 219.174, 1465.013 196.366, 1476.482 182.601 C 1484.442 173.047, 1495.609 155.955, 1499.695 147.071 C 1504.691 136.210, 1507.817 124.404, 1509.493 110.063 C 1510.880 98.192, 1512.467 91.944, 1516.459 82.646 C 1519.734 75.019, 1516.132 69.231, 1504.808 63.925 C 1497.778 60.630, 1497.063 60.502, 1486 60.558 C 1475.342 60.612, 1472.926 61.028, 1453 66.241 C 1429.783 72.314, 1411.374 74.902, 1400.788 73.579 C 1389.742 72.199, 1373.712 62.794, 1357.837 48.378 C 1347.291 38.801, 1342.869 35.746, 1332.567 30.918 C 1313.869 22.156, 1293.611 19.234, 1276.905 22.888 M 1293.500 89.085 C 1274.883 91.618, 1257.333 98.291, 1236.247 110.853 C 1221.537 119.616, 1211.061 127.352, 1200.265 137.421 C 1193.714 143.532, 1187.036 152.639, 1187.009 155.500 C 1187.003 156.150, 1200.910 156.500, 1226.750 156.500 L 1266.500 156.500 1292 161.978 L 1317.500 167.456 1345 167.468 C 1369.353 167.478, 1373.907 167.220, 1384.797 165.208 C 1401.238 162.171, 1406.915 159.925, 1412.667 154.182 C 1418.048 148.809, 1425 138.523, 1425 135.934 C 1425 134.333, 1419.771 129.015, 1418.173 128.989 C 1414.189 128.927, 1391.225 124.651, 1387 123.185 C 1376.451 119.525, 1365.221 113.066, 1354.399 104.434 C 1342.734 95.130, 1336.282 91.566, 1328.427 90.088 C 1320.554 88.607, 1301.117 88.049, 1293.500 89.085 M 361 166.081 C 351.957 170.174, 347.063 177.341, 346.231 187.711 C 345.954 191.162, 345.124 194.482, 344.385 195.096 C 339.967 198.762, 291.028 195.960, 270.871 190.887 C 260.479 188.271, 258.083 187.971, 255.062 188.905 C 253.103 189.510, 245.875 190.924, 239 192.046 C 232.125 193.167, 223.177 195.007, 219.116 196.132 C 215.056 197.258, 210.423 198.345, 208.823 198.548 C 206.717 198.814, 201.989 202.620, 191.706 212.326 C 171.303 231.585, 157.241 243.306, 150.274 246.860 C 148.121 247.959, 140.666 250.461, 133.708 252.422 C 126.749 254.383, 118.740 256.867, 115.910 257.942 C 113.080 259.018, 106.549 261.093, 101.397 262.555 L 92.030 265.212 86.957 260.651 C 84.167 258.143, 79.323 254.833, 76.192 253.295 C 71.112 250.801, 69.424 250.500, 60.500 250.500 C 51.483 250.500, 49.916 250.787, 44.562 253.412 C 33.574 258.799, 26.682 268.455, 20.947 286.500 C 17.817 296.348, 17.046 321.531, 19.442 335.649 C 24.140 363.326, 38.043 388.471, 52.581 395.584 C 56.990 397.741, 59.977 398.382, 67.427 398.772 C 75.828 399.211, 77.286 399.014, 82.127 396.783 C 92.542 391.981, 103.752 379.283, 107.478 368.066 L 109.075 363.257 115.288 361.978 C 118.704 361.274, 122.711 360.093, 124.191 359.354 C 125.671 358.615, 131.460 356.830, 137.056 355.389 C 146.575 352.937, 147.790 352.840, 155.933 353.884 C 160.719 354.498, 171.130 354.985, 179.068 354.966 C 192.077 354.936, 200.368 354.432, 221.134 352.410 L 227.768 351.764 229.806 357.212 C 235.688 372.932, 243.099 411.639, 247.476 449.500 C 248.875 461.600, 250.918 478.925, 252.016 488 C 263.361 581.721, 263.482 582.639, 266.159 595 C 267.291 600.225, 268.554 606.459, 268.966 608.853 C 270.420 617.311, 271.992 617.553, 323.301 617.231 C 372.852 616.920, 387.035 616.090, 390.891 613.275 C 395.231 610.107, 397.500 604.385, 397.344 597 C 397 580.678, 387.978 548.326, 373.502 511.500 C 369.827 502.150, 363.666 485.500, 359.812 474.500 C 355.957 463.500, 350.877 449.550, 348.521 443.500 C 341.506 425.481, 335.312 407.318, 331.469 393.500 C 329.480 386.350, 325.218 372.625, 321.997 363 C 315.067 342.289, 314 337.486, 314 327.012 L 314 319.122 328.250 306.312 C 336.087 299.267, 347.675 288.494, 354 282.373 C 360.325 276.252, 366.602 270.675, 367.949 269.980 C 370.136 268.852, 370.565 268.966, 371.949 271.045 C 375.009 275.640, 382.346 282.022, 387.425 284.507 C 390.493 286.008, 395.253 287.286, 399.127 287.647 C 407.715 288.449, 412.038 286.495, 415.780 280.120 C 418.177 276.036, 418.471 274.572, 418.319 267.500 C 418.113 257.942, 413.976 241.307, 407.998 226 C 405.743 220.225, 401.713 209.875, 399.043 203 C 392.823 186.984, 387.441 175.391, 384.252 171.141 C 379.199 164.406, 369.407 162.275, 361 166.081 M 467 313.208 C 415.575 385.899, 372.769 446.133, 371.875 447.062 C 370.373 448.623, 370.488 450.157, 373.405 467.322 C 375.140 477.536, 376.908 486.241, 377.333 486.666 C 378.374 487.707, 520.170 496.890, 536.158 496.951 L 548.817 497 554.158 492.674 C 561.628 486.625, 574.801 478.349, 580.070 476.396 C 583.083 475.278, 589.444 474.553, 599.960 474.127 L 615.420 473.500 620.160 460.500 C 622.766 453.350, 625.158 446.477, 625.474 445.227 L 626.049 442.955 522.649 443.227 L 419.249 443.500 491.525 335.500 C 531.276 276.100, 566.883 222.904, 570.650 217.286 L 577.500 207.072 592 207.040 C 599.975 207.023, 654.200 206.529, 712.500 205.943 L 818.500 204.877 946 209.440 C 1016.125 211.949, 1076.464 214.002, 1080.086 214.001 L 1086.672 214 1088.363 207.918 C 1089.293 204.573, 1091.421 199.127, 1093.092 195.817 C 1094.764 192.506, 1095.989 189.670, 1095.815 189.515 C 1095.455 189.192, 585.778 180.927, 570.500 180.997 L 560.500 181.042 467 313.208 M 1140.500 195.950 C 1132.090 196.739, 1128.824 198.667, 1125.992 204.516 C 1124.143 208.335, 1124.027 209.392, 1125.036 213.183 C 1126.746 219.603, 1128.430 221.004, 1134.405 220.978 C 1141.795 220.946, 1148.781 217.371, 1152.441 211.749 C 1156.182 206, 1153.906 194.704, 1149.095 195.147 C 1148.218 195.227, 1144.350 195.589, 1140.500 195.950 M 1467.123 207.002 C 1464.685 207.578, 1461.626 210.103, 1456.123 216.083 C 1451.930 220.639, 1447.698 225.386, 1446.718 226.632 C 1444.950 228.879, 1444.963 228.901, 1448.218 229.400 C 1450.023 229.676, 1457.074 230.110, 1463.887 230.363 C 1475.493 230.795, 1478.002 231.444, 1477.961 234 C 1477.957 234.275, 1441.289 284.444, 1396.477 345.486 L 1315 456.471 1315 532.572 L 1315 608.672 1381.750 609.335 C 1418.463 609.700, 1458.648 609.999, 1471.051 609.999 L 1493.602 610 1549.051 542.361 C 1579.548 505.159, 1604.861 473.986, 1605.302 473.087 C 1605.871 471.927, 1588.745 435.570, 1546.368 347.976 C 1492.042 235.681, 1480.718 213.055, 1476.185 207.750 C 1474.594 205.888, 1472.554 205.720, 1467.123 207.002 M 355.270 217.250 C 355.917 221.207, 368.902 257.999, 370.269 259.750 C 371.690 261.571, 373.777 261.279, 374.447 259.167 C 374.948 257.588, 362.645 220.943, 359.878 215.773 C 359.357 214.798, 357.987 214, 356.834 214 C 355.027 214, 354.812 214.448, 355.270 217.250 M 945 217.579 C 931.910 219.459, 921.857 221.957, 919.632 223.883 C 917.969 225.322, 917.835 226.464, 918.418 234.257 C 918.778 239.073, 920.181 249.769, 921.536 258.025 C 922.891 266.281, 924 273.686, 924 274.480 C 924 276.102, 912.007 290.807, 902.506 300.837 C 896.497 307.179, 896.147 307.388, 893.538 306.199 C 892.044 305.519, 886.025 303.829, 880.161 302.443 C 874.298 301.058, 866.511 298.548, 862.858 296.864 L 856.217 293.804 855.551 286.152 C 855.185 281.943, 854.187 272.425, 853.334 265 C 852.481 257.575, 851.718 246.851, 851.639 241.168 C 851.446 227.275, 851.929 227.606, 833 228.394 C 815.927 229.106, 801.529 230.646, 798.925 232.040 C 797.904 232.587, 796.647 234.714, 796.134 236.767 C 793.624 246.793, 794.244 340.132, 796.852 344.816 C 798.729 348.188, 809.136 354.554, 829 364.480 C 843.678 371.815, 854.129 377.322, 855.885 378.647 C 856.747 379.296, 860.916 410.973, 860.956 417.175 C 860.980 420.846, 861.908 432.321, 863.019 442.675 C 864.129 453.029, 865.493 469.150, 866.049 478.500 C 866.606 487.850, 868.166 507.913, 869.517 523.084 C 870.867 538.256, 872.429 559.631, 872.987 570.584 C 874.322 596.767, 875.953 612.716, 877.422 613.935 C 881.722 617.504, 912.983 617.731, 952.500 614.480 C 962.950 613.620, 974.529 613.033, 978.232 613.177 C 982.379 613.337, 985.413 612.987, 986.135 612.265 C 987.761 610.639, 987.481 606.760, 985.108 598 C 981.477 584.600, 976.138 556.682, 973.997 539.900 C 972.846 530.880, 971.261 519.450, 970.474 514.500 C 969.687 509.550, 967.914 495.600, 966.533 483.500 C 965.152 471.400, 962.442 449.350, 960.511 434.500 C 958.580 419.650, 956.489 400.182, 955.864 391.238 L 954.728 374.976 961.114 364.386 C 964.626 358.561, 971.468 348.554, 976.319 342.148 C 985.815 329.604, 992.833 316.761, 993.646 310.439 C 994.184 306.248, 984.602 245.336, 980.913 229.500 C 977.703 215.720, 978.007 215.979, 965.227 216.107 C 959.327 216.167, 950.225 216.829, 945 217.579 M 200.636 231.846 C 184.707 245.963, 179.289 249.190, 161 255.455 C 149.515 259.388, 130.779 267.112, 131.346 267.679 C 132.240 268.574, 147.461 265.670, 156.467 262.887 C 179.915 255.641, 188.065 251.070, 205.287 235.506 C 214.472 227.205, 219 221.936, 219 219.550 C 219 219.247, 218.129 219, 217.065 219 C 216.001 219, 208.608 224.781, 200.636 231.846 M 590.713 232.621 C 586.970 236.364, 595.191 252.092, 614.928 278.947 C 620.853 287.008, 631.663 302.249, 638.951 312.816 C 646.239 323.382, 653.156 332.696, 654.323 333.514 C 658.556 336.478, 663.812 334.428, 662.364 330.377 C 661.460 327.851, 640.664 297.657, 624.673 275.655 C 617.539 265.840, 608.282 252.115, 604.101 245.155 C 597.885 234.805, 596.038 232.446, 593.963 232.204 C 592.567 232.041, 591.104 232.229, 590.713 232.621 M 1340.468 242.950 C 1336.944 244.379, 1331.153 251.665, 1330.415 255.600 C 1328.965 263.330, 1335.988 269.897, 1344.286 268.570 C 1353.071 267.165, 1357.224 262.290, 1356.900 253.761 C 1356.790 250.868, 1356.281 247.674, 1355.769 246.665 C 1353.926 243.031, 1345.385 240.957, 1340.468 242.950 M 708.634 243.982 C 704.277 245.361, 698.638 249.613, 694.266 254.816 C 682.888 268.356, 669 292.429, 669 298.610 C 669 300.026, 669.899 302.328, 670.998 303.725 C 672.098 305.123, 674.124 309.834, 675.501 314.194 L 678.006 322.122 671.934 336.311 C 668.594 344.115, 662.999 358.375, 659.501 368 C 656.002 377.625, 648.975 396.075, 643.886 409 C 638.796 421.925, 630.715 442.850, 625.927 455.500 L 617.221 478.500 609.861 478.162 C 596.317 477.540, 586.682 479.455, 575.500 484.990 C 561.352 491.994, 553.043 498.493, 546.378 507.770 C 532.822 526.636, 512.498 559.007, 503.560 575.967 C 493.527 595.004, 491.615 598.179, 486.814 603.785 C 483.978 607.096, 483.218 611.215, 484.941 613.939 C 485.896 615.447, 493.774 616.770, 502.667 616.916 L 507.835 617 509.588 612.250 C 517.744 590.157, 524.560 576.533, 539.784 551.893 C 560.148 518.934, 570.558 508.531, 581.410 510.292 C 592.527 512.096, 596.951 524.723, 594.023 546.287 C 592.805 555.257, 583.162 590.603, 577.105 608.299 C 574.829 614.950, 574.406 617.218, 575.372 617.589 C 576.075 617.859, 580.891 617.949, 586.075 617.790 L 595.500 617.500 597.621 609.500 C 598.788 605.100, 602.905 592.050, 606.771 580.500 C 610.637 568.950, 614.114 558, 614.498 556.166 L 615.196 552.833 617.137 554.916 C 618.204 556.062, 619.458 557, 619.923 557 C 620.387 557, 625.207 555.143, 630.634 552.874 C 636.060 550.605, 643.595 547.687, 647.378 546.390 C 655.225 543.700, 657 542.508, 657 539.927 C 657 536.863, 654.136 536.067, 648.803 537.651 C 640.770 540.037, 619.822 548.853, 617.711 550.736 C 615.790 552.450, 615.756 552.430, 616.495 550 C 621.709 532.855, 630.084 523.275, 640.753 522.250 C 649.153 521.443, 657.633 527.418, 659.956 535.781 C 662.392 544.554, 660.561 569.270, 655.424 596.952 C 653.541 607.100, 652 616.233, 652 617.247 C 652 618.885, 652.748 619.058, 658.682 618.796 C 664.997 618.516, 665.403 618.352, 666.083 615.793 C 666.480 614.305, 668.883 609.751, 671.424 605.674 C 681.809 589.012, 688.785 560.440, 686.849 542.500 C 685.337 528.490, 680.676 515.882, 673.239 505.678 C 669.996 501.229, 660.519 492.409, 653.613 487.414 L 650.729 485.327 655.750 470.914 C 658.512 462.986, 663.963 445.475, 667.864 432 C 671.764 418.525, 679.275 395.125, 684.553 380 C 689.832 364.875, 695.543 348.406, 697.244 343.401 L 700.336 334.302 715.622 326.678 C 732.973 318.024, 730.541 321.163, 735.517 301 C 738.643 288.336, 739.713 273.697, 738.084 265.883 C 736.435 257.969, 731.493 250.177, 726 246.829 C 721.045 243.810, 713.229 242.528, 708.634 243.982 M 700.500 278.719 C 697.868 279.360, 695 281.956, 695 283.697 C 695 284.816, 696.494 284.957, 702.750 284.427 C 707.013 284.066, 712.075 283.435, 714 283.024 L 717.500 282.278 713 280.161 C 708.680 278.129, 704.774 277.678, 700.500 278.719 M 92.516 281.974 C 92.185 282.510, 93.235 286.897, 94.849 291.724 C 98.529 302.726, 101.982 323.771, 102.721 339.698 C 103.291 351.986, 103.966 353.878, 107.091 351.942 C 109.344 350.545, 108.595 331.145, 105.599 313.288 C 103.059 298.150, 100.164 287.540, 97.402 283.250 C 95.894 280.907, 93.553 280.296, 92.516 281.974 M 283.500 330.439 C 272.586 334.359, 258.068 338.139, 242.693 341.062 C 238.138 341.927, 236.954 342.525, 237.202 343.833 C 238.058 348.344, 260.474 344.630, 285.675 335.801 C 298.858 331.182, 301.938 329.327, 300.444 326.910 C 299.436 325.279, 295.696 326.058, 283.500 330.439 M 1249.828 345.292 C 1247.447 347.103, 1238.582 356.891, 1230.126 367.042 C 1214.216 386.143, 1187.147 416.169, 1163.888 440.513 C 1141.890 463.537, 1109.150 498.946, 1101.949 507.500 C 1096.667 513.774, 1078 542.831, 1078 544.779 C 1078 545.868, 1101.771 522.294, 1110.045 513 C 1121.958 499.617, 1139.362 480.875, 1168.546 450 C 1203.232 413.304, 1216.823 398.305, 1232.884 379 C 1240.891 369.375, 1249.991 358.754, 1253.107 355.398 C 1259.329 348.695, 1260.808 345.678, 1258.960 343.452 C 1257.089 341.197, 1254.534 341.712, 1249.828 345.292 M 259.542 357.164 C 250.727 366.152, 249.581 368.045, 251.428 370.570 C 252.678 372.280, 253.434 371.726, 261.639 363.082 C 270.542 353.702, 272.094 350.834, 268.629 350.167 C 267.360 349.923, 264.436 352.174, 259.542 357.164 M 283.973 353.649 C 279.561 356.592, 273.975 362.323, 267.060 371 C 259.513 380.471, 257.620 383.576, 258.513 385.021 C 259.964 387.369, 262.512 385.322, 271.342 374.715 C 276.510 368.508, 282.898 361.606, 285.538 359.378 C 288.948 356.500, 290.154 354.844, 289.701 353.663 C 288.893 351.557, 287.115 351.553, 283.973 353.649 M 291.897 369.090 C 280.313 378.063, 266.380 393.414, 261.963 402.072 C 259.439 407.019, 259.489 408.213, 262.200 407.820 C 263.604 407.616, 266.844 404.278, 271.154 398.596 C 279.523 387.561, 282.350 384.583, 292.805 375.792 C 298.076 371.360, 300.994 368.209, 300.793 367.166 C 300.226 364.220, 297.393 364.833, 291.897 369.090 M 691.009 368.489 C 688.378 371.660, 692.019 380.006, 701.811 393.250 C 704.814 397.311, 706.730 399, 708.332 399 C 711.203 399, 713 397.227, 713 394.392 C 713 391.998, 702.434 375.717, 697.382 370.327 C 693.912 366.624, 692.818 366.309, 691.009 368.489 M 1452.909 371.416 C 1450.954 372.744, 1445.357 378.482, 1440.472 384.166 C 1435.586 389.850, 1423.324 402.906, 1413.221 413.180 C 1397.125 429.550, 1394.894 432.208, 1395.177 434.672 C 1395.844 440.477, 1398.523 438.827, 1415.201 422.340 C 1432.747 404.996, 1457.305 378.114, 1459.618 373.721 C 1462.317 368.595, 1458.826 367.396, 1452.909 371.416 M 1488.399 385.590 C 1485.705 387.015, 1481.925 389.360, 1480 390.802 C 1470.797 397.695, 1439.136 430.572, 1422.497 450.512 C 1412.271 462.767, 1403.839 478.030, 1407.320 477.984 C 1407.969 477.976, 1414.575 471.129, 1422 462.769 C 1449.097 432.260, 1465.287 414.896, 1474.656 406.294 C 1482.628 398.974, 1489.835 390.500, 1493.404 384.250 C 1494.388 382.528, 1493.989 382.635, 1488.399 385.590 M 894.898 386.289 C 886.597 391.880, 883.423 403.784, 881.908 435 C 880.789 458.051, 880.892 461.880, 884.534 532.500 C 888.277 605.085, 888.156 604, 892.491 604 C 893.753 604, 895.085 603.220, 895.451 602.268 C 895.816 601.315, 895.642 591.977, 895.063 581.518 C 894.483 571.058, 893.340 549.450, 892.523 533.500 C 891.705 517.550, 890.535 494.825, 889.923 483 C 888.768 460.676, 889.306 430.980, 891.144 415.605 C 892.301 405.924, 895.064 396.692, 897.663 393.820 C 900.154 391.068, 904.313 391.597, 909.172 395.283 C 917.803 401.831, 924.291 415.383, 928.666 436 C 931.853 451.021, 937.383 485.212, 939.987 506 C 942.216 523.791, 952.268 585.761, 954.423 595.002 C 956.133 602.331, 957.622 605, 960 605 C 963.635 605, 964.105 601.886, 961.955 592.035 C 960.853 586.988, 958.870 576.028, 957.547 567.679 C 956.225 559.331, 953.997 545.750, 952.597 537.500 C 951.197 529.250, 948.905 513.500, 947.504 502.500 C 944.750 480.873, 939.001 445.727, 935.953 431.889 C 931.856 413.284, 925.325 399.384, 917.037 391.631 C 908.619 383.757, 901.284 381.987, 894.898 386.289 M 295.223 396.748 C 275.772 417.017, 266.762 429.332, 268.353 433.477 C 269.395 436.192, 271.169 434.804, 276.736 426.918 C 279.616 422.838, 286.141 415.030, 291.236 409.567 C 307.149 392.503, 312 386.993, 312 385.980 C 312 385.441, 310.762 384.999, 309.250 384.998 C 307.045 384.997, 304.266 387.325, 295.223 396.748 M 757.823 392.637 C 754.258 393.279, 752.371 395.537, 753.880 397.356 C 755.487 399.292, 768.733 401.765, 781 402.419 C 786.775 402.726, 803.269 404.198, 817.653 405.689 C 847.148 408.746, 850.747 408.535, 852.460 403.645 C 853.899 399.537, 850.705 397.062, 844.786 397.699 C 842.429 397.953, 829.925 396.972, 817 395.519 C 795.071 393.053, 763.936 391.537, 757.823 392.637 M 972.607 408.868 C 968.902 409.677, 967.094 412.339, 968.612 414.750 C 970.072 417.070, 973.585 417.740, 985.027 417.882 C 995.518 418.012, 999 416.706, 999 412.643 C 999 408.602, 997.255 407.993, 986.050 408.118 C 980.247 408.183, 974.198 408.521, 972.607 408.868 M 693.348 411.765 C 691.855 412.717, 682.167 429.488, 681.442 432.375 C 680.675 435.431, 684.085 438.447, 687.374 437.621 C 689.177 437.169, 691.163 434.606, 694.858 427.965 C 701.348 416.302, 701.558 415.558, 699.051 413.051 C 696.902 410.902, 695.276 410.535, 693.348 411.765 M 1510.500 420.976 C 1505.103 422.363, 1502.545 423.711, 1497.020 428.079 C 1486.710 436.228, 1459.751 463.516, 1452.479 473.164 C 1445.178 482.849, 1437.439 496.817, 1438.166 498.997 C 1438.379 499.636, 1441.412 496.411, 1444.907 491.830 C 1448.401 487.248, 1464.365 470.450, 1480.381 454.500 C 1507.645 427.350, 1514.955 419.854, 1513.924 420.102 C 1513.691 420.159, 1512.150 420.552, 1510.500 420.976 M 308.329 426.214 C 299.244 435.501, 282.031 456.361, 279.981 460.566 C 278.892 462.802, 278 465.894, 278 467.438 C 278 469.897, 278.198 470.080, 279.599 468.918 C 280.478 468.188, 283.262 464.870, 285.784 461.545 C 291.509 453.998, 305.618 437.365, 312.763 429.740 C 318.229 423.907, 318.907 421.733, 315.422 421.214 C 314.191 421.031, 311.641 422.828, 308.329 426.214 M 1261.719 425.758 C 1260.774 426.803, 1260 428.354, 1260 429.206 C 1260 432.843, 1262.892 433.478, 1284.899 434.675 C 1313.370 436.224, 1318 435.570, 1318 430 C 1318 428.222, 1317.312 426.714, 1316.250 426.164 C 1315.287 425.665, 1303.011 424.943, 1288.969 424.558 C 1264.671 423.892, 1263.355 423.950, 1261.719 425.758 M 668.958 450.250 C 667.788 454.238, 665.082 463.325, 662.945 470.444 L 659.058 483.388 666.253 490.034 L 673.447 496.681 718.388 497.340 C 743.105 497.703, 785.588 498, 812.793 498 L 862.258 498 861.655 492.250 C 861.323 489.087, 860.303 478.175, 859.388 468 C 858.473 457.825, 857.448 449.193, 857.112 448.817 C 856.387 448.009, 709.546 442.991, 686.792 442.996 L 671.085 443 668.958 450.250 M 1533.135 453.432 C 1525.036 456.841, 1516.026 463.869, 1508.527 472.630 C 1499.981 482.613, 1497.576 486.117, 1490.551 498.813 C 1483.972 510.704, 1481.602 516, 1482.858 516 C 1483.344 516, 1488.028 510.488, 1493.266 503.750 C 1506.626 486.567, 1517.386 474.196, 1525.162 467.081 C 1530.228 462.445, 1540.355 450.523, 1538.748 451.087 C 1538.612 451.135, 1536.086 452.190, 1533.135 453.432 M 966.490 461.707 C 967.598 476.488, 967.761 476.639, 973.790 468.441 C 984.668 453.651, 984.630 452, 973.412 452 L 965.762 452 966.490 461.707 M 317.251 462.577 C 301.246 479.272, 289.705 495.963, 286.534 507 C 285.882 509.271, 286.031 509.210, 288.158 506.338 C 294.220 498.155, 313.104 475.511, 321.170 466.752 C 329.818 457.361, 331.386 454.294, 328.095 453.198 C 327.260 452.920, 322.863 456.722, 317.251 462.577 M 1195.689 479.250 L 1177.169 498.500 1181.334 498.786 C 1183.625 498.944, 1196.461 499.394, 1209.858 499.786 L 1234.215 500.500 1158.661 560.737 C 1106.782 602.098, 1081.758 621.443, 1078.803 622.472 C 1075.002 623.796, 1015.526 623.973, 568.705 623.985 L 62.909 624 63.542 620.250 C 63.890 618.188, 64.372 615.772, 64.613 614.882 C 65.184 612.774, 80.542 605.706, 100 598.597 C 127.778 588.448, 137.247 584.789, 153.971 577.738 C 163.031 573.919, 175.631 568.790, 181.971 566.339 C 188.312 563.889, 203.400 557.669, 215.500 552.518 C 227.600 547.366, 238.749 542.840, 240.276 542.460 C 244.590 541.388, 245.209 539.136, 243.479 530.816 C 240.140 514.760, 237.824 511, 231.273 511 C 227.535 511, 211.185 516.816, 196.024 523.538 C 176.183 532.334, 143.303 545.335, 123.500 552.213 C 97.538 561.230, 92.393 563.476, 62.254 578.955 C 48.368 586.086, 35.230 592.400, 33.057 592.985 C 28.450 594.225, 25.462 597.607, 23.873 603.381 C 22.435 608.603, 22.453 605.561, 22.750 800.250 L 23 964 550.750 963.979 L 1078.500 963.958 1188 867.419 C 1248.225 814.323, 1298.552 769.845, 1299.838 768.580 L 1302.175 766.279 1300.898 616.142 C 1300.196 533.566, 1299.358 465.580, 1299.037 465.060 C 1298.716 464.541, 1293.964 464.041, 1288.477 463.950 C 1282.990 463.858, 1264.325 462.937, 1247 461.902 C 1229.675 460.867, 1215.209 460.016, 1214.854 460.010 C 1214.499 460.005, 1205.875 468.663, 1195.689 479.250 M 1321.667 461.667 C 1319.365 463.968, 1321.833 467.675, 1335.629 482.636 C 1343.674 491.361, 1356.612 504.964, 1364.379 512.864 C 1378.808 527.542, 1427.619 572.585, 1443.091 585.500 C 1458.407 598.286, 1474.582 609, 1478.569 609 C 1481.336 609, 1483.435 606.584, 1482.329 604.672 C 1481.873 603.885, 1476.100 599.631, 1469.500 595.220 C 1455.171 585.643, 1449.935 581.308, 1418 552.588 C 1392.027 529.230, 1366.599 504.328, 1343.069 479.210 C 1335.192 470.801, 1327.476 463.263, 1325.923 462.460 C 1322.691 460.789, 1322.568 460.766, 1321.667 461.667 M 906.923 479.923 C 903.261 483.585, 903.275 484.428, 907.053 488.207 C 909.801 490.955, 910 491.560, 909.053 494.279 C 907.613 498.408, 907.789 503.006, 909.500 506 C 910.286 507.375, 910.945 510.711, 910.965 513.412 C 910.994 517.468, 913.290 527.681, 917.843 544 C 918.290 545.602, 919.390 546.621, 920.907 546.837 C 925.439 547.484, 926.103 542.773, 923.069 531.500 C 922.033 527.650, 920.694 523.233, 920.093 521.685 C 919.492 520.137, 919 516.433, 919 513.455 C 919 510.477, 918.263 506.199, 917.363 503.949 C 916.023 500.600, 915.932 499.170, 916.863 496.063 C 918.297 491.278, 918.320 486.720, 916.918 485.318 C 916.142 484.542, 916.195 483.660, 917.108 482.199 C 918.141 480.544, 918.134 479.866, 917.067 478.581 C 914.933 476.010, 910.212 476.635, 906.923 479.923 M 619.441 482.096 C 618.026 484.386, 621.998 486.112, 633.040 488.007 C 643.136 489.739, 644.634 489.794, 645.945 488.483 C 648.454 485.974, 645.421 484.363, 634.876 482.605 C 623.541 480.715, 620.359 480.610, 619.441 482.096 M 319.585 499.167 C 303.923 515.003, 294.366 528.136, 292.417 536.500 L 291.718 539.500 294.460 537 C 295.969 535.625, 300.842 529.775, 305.291 524 C 309.739 518.225, 318.482 508.364, 324.719 502.088 C 330.956 495.811, 335.897 490.186, 335.701 489.588 C 335.504 488.989, 334.320 488.350, 333.069 488.167 C 331.294 487.907, 328.331 490.324, 319.585 499.167 M 453.035 501.934 C 451.330 505.121, 451.785 506.512, 456.708 513.151 C 464.248 523.321, 491.968 551, 494.612 551 C 497.216 551, 500 548.561, 500 546.280 C 500 545.413, 493.330 537.908, 485.178 529.602 C 477.026 521.296, 467.781 511.238, 464.635 507.250 C 458.557 499.546, 455.149 497.984, 453.035 501.934 M 417.667 501.667 C 416.260 503.074, 417.110 506.782, 419.820 511.054 C 421.371 513.499, 430.034 523.277, 439.070 532.783 C 448.107 542.288, 459.624 554.663, 464.665 560.283 C 474.790 571.572, 477.757 573.435, 480.970 570.527 C 482.086 569.517, 483 568.096, 483 567.371 C 483 565.131, 458.458 538.121, 427.918 506.750 C 422.819 501.512, 419.478 499.856, 417.667 501.667 M 488.011 502.487 C 485.337 505.709, 489.720 512.428, 501.634 523.368 C 507.811 529.040, 511.292 530.308, 513.800 527.800 C 516.359 525.241, 514.707 522.513, 504.171 511.904 C 493.306 500.965, 490.588 499.381, 488.011 502.487 M 1173.571 509.571 C 1170.748 512.395, 1171.957 515.162, 1179.330 522.750 C 1184.678 528.253, 1186.823 529.035, 1189.429 526.429 C 1192.272 523.585, 1191.203 520.870, 1184.667 514.333 C 1178.073 507.740, 1176.205 506.938, 1173.571 509.571 M 805.012 510.977 C 803.181 514.398, 806.397 519.620, 816.324 529.344 C 846.972 559.364, 851.234 563.158, 853.633 562.556 C 855.031 562.205, 856.223 560.960, 856.601 559.456 C 857.505 555.853, 853.438 550.456, 842.034 540.125 C 836.798 535.381, 827.278 526.438, 820.878 520.250 C 814.478 514.063, 808.528 509, 807.656 509 C 806.784 509, 805.594 509.890, 805.012 510.977 M 392.590 511.553 C 391.289 512.854, 391.237 513.582, 392.269 516.043 C 393.767 519.618, 410.102 537.955, 430.987 559.509 C 439.519 568.314, 451.600 581.027, 457.834 587.761 C 469.100 599.931, 472.636 602.377, 475.513 599.989 C 479.775 596.452, 476.656 592.489, 438.500 552.977 C 430.250 544.434, 418.573 532.108, 412.551 525.586 C 402.935 515.171, 397.069 510.016, 394.821 510.004 C 394.448 510.002, 393.444 510.699, 392.590 511.553 M 336.008 519.716 C 324.241 529.117, 306.900 546.040, 302.628 552.289 C 300.669 555.155, 297.891 560.181, 296.454 563.457 L 293.842 569.414 300.577 561.957 C 312.089 549.211, 330.093 531.830, 339.797 524.095 C 345.655 519.425, 348.975 516.100, 348.783 515.095 C 348.128 511.653, 344.423 512.993, 336.008 519.716 M 755.667 513.667 C 755.300 514.033, 755 515.603, 755 517.155 C 755 519.417, 758.345 523.599, 771.861 538.238 C 781.134 548.282, 794.676 563.475, 801.954 572 C 821.506 594.903, 835.795 609.911, 838.758 610.654 C 840.721 611.147, 841.775 610.761, 843.169 609.040 C 844.176 607.796, 845 605.913, 845 604.856 C 845 602.980, 838.199 595.295, 836.904 595.708 C 836.192 595.935, 820.756 578.861, 805.979 561.500 C 794.072 547.512, 765.417 516.405, 762.655 514.471 C 760.466 512.938, 756.816 512.518, 755.667 513.667 M 786 518 C 784.131 521.493, 786.866 525.032, 816.517 557.500 C 835.487 578.273, 845.521 588.364, 850.291 591.468 C 854.129 593.965, 858 592.319, 858 588.190 C 858 585.910, 856.521 584.009, 850.640 578.724 C 843.993 572.751, 813.412 539.818, 798.663 522.750 C 793.979 517.329, 792.264 516, 789.951 516 C 788.094 516, 786.690 516.711, 786 518 M 720 519.250 C 720 521.465, 729.519 535.306, 735.645 542 C 738.917 545.575, 746.291 554.350, 752.033 561.500 C 764.048 576.463, 796.333 609.794, 799.606 610.616 C 802.690 611.390, 806 609.363, 806 606.700 C 806 605.149, 800.433 598.846, 787.705 585.985 C 777.643 575.818, 764.139 560.907, 757.696 552.849 C 745.534 537.639, 738.763 530.750, 728.085 522.723 C 721.549 517.810, 720 517.145, 720 519.250 M 568.533 525.425 C 555.835 530.574, 553.001 533.096, 556.577 536.064 C 558.451 537.619, 560.678 537.055, 575.500 531.274 C 585.011 527.564, 585.500 527.229, 585.500 524.436 C 585.500 521.898, 585.093 521.465, 582.500 521.239 C 580.741 521.086, 574.964 522.817, 568.533 525.425 M 635 530.260 C 626.155 534.672, 624.169 537.235, 627.470 539.975 C 628.789 541.070, 630.526 540.603, 638.457 537.020 C 648.222 532.608, 649.706 531.188, 647.961 527.928 C 646.477 525.154, 644.535 525.504, 635 530.260 M 1148.200 528.200 C 1145.586 530.814, 1146.992 534.432, 1153.332 541.407 C 1158.906 547.539, 1159.912 548.239, 1162.290 547.642 C 1166.355 546.622, 1166.861 542.818, 1163.516 538.432 C 1155.815 528.335, 1151.169 525.231, 1148.200 528.200 M 1325.939 531.061 C 1321.565 535.435, 1327.169 537.920, 1342.213 538.279 C 1348.566 538.430, 1352.255 538.070, 1353.890 537.140 L 1356.280 535.780 1353.173 533.813 C 1351.464 532.730, 1347.013 531.463, 1343.283 530.997 C 1327.843 529.065, 1327.935 529.065, 1325.939 531.061 M 701.360 532.505 C 699.876 536.371, 710.762 553.887, 725.905 572 C 736.876 585.123, 769.392 619.990, 771.192 620.561 C 774.037 621.464, 777.003 619.236, 776.977 616.215 C 776.960 614.165, 774.246 610.561, 765.900 601.500 C 741.201 574.688, 735.839 568.608, 726.488 556.817 C 716.792 544.588, 704.295 531, 702.745 531 C 702.301 531, 701.677 531.677, 701.360 532.505 M 567 538.861 C 549.319 545.156, 547 546.396, 547 549.557 C 547 553.021, 549.458 553.643, 554.894 551.557 C 557.427 550.585, 565.575 547.663, 573 545.064 C 586.170 540.453, 586.500 540.266, 586.500 537.419 C 586.500 534.892, 586.097 534.470, 583.500 534.277 C 581.850 534.155, 574.425 536.218, 567 538.861 M 342.846 547.237 C 338.294 550.667, 328.884 558.982, 321.936 565.714 C 309.134 578.117, 303.472 585.872, 305.636 588.036 C 306.436 588.836, 311.072 584.816, 322.618 573.314 C 331.353 564.612, 340.975 555.668, 344 553.437 C 347.025 551.207, 351.188 548.148, 353.250 546.640 C 357.828 543.293, 358.158 541, 354.062 541 C 352.009 541, 348.627 542.881, 342.846 547.237 M 1322.719 548.423 C 1320.595 550.548, 1320.569 551.426, 1322.571 553.429 C 1323.811 554.669, 1326.500 555.002, 1335.321 555.008 C 1341.470 555.013, 1350.550 555.482, 1355.500 556.051 C 1360.450 556.619, 1366.174 556.804, 1368.219 556.460 C 1371.889 555.843, 1371.917 555.803, 1370.358 553.423 C 1367.808 549.532, 1360.503 547.986, 1341.469 547.310 C 1326.199 546.767, 1324.261 546.882, 1322.719 548.423 M 398.040 549.452 C 396.051 551.849, 397.721 554.575, 406.172 562.732 C 410.599 567.004, 418.370 575.450, 423.440 581.500 C 436.978 597.654, 452.846 613.923, 455.784 614.661 C 457.717 615.146, 458.782 614.752, 460.169 613.040 C 461.176 611.796, 462 610.366, 462 609.862 C 462 609.358, 457.210 603.895, 451.355 597.723 C 445.500 591.550, 436.334 581.325, 430.985 575 C 412.310 552.915, 401.879 544.826, 398.040 549.452 M 1125.200 550.200 C 1122.850 552.550, 1123.955 556.038, 1128.637 561.043 C 1133.302 566.030, 1136.418 567.182, 1138.800 564.800 C 1141.150 562.450, 1140.045 558.962, 1135.363 553.957 C 1130.698 548.970, 1127.582 547.818, 1125.200 550.200 M 570.500 553.621 C 565 555.525, 555.557 558.594, 549.514 560.441 C 538.123 563.924, 535.643 565.660, 537.643 568.750 C 539.374 571.424, 543.221 570.772, 562.738 564.497 C 584.871 557.380, 586.218 556.720, 585.811 553.193 C 585.371 549.386, 582.498 549.466, 570.500 553.621 M 642.500 559.196 C 640.300 560.356, 634.276 563.062, 629.114 565.211 C 612.468 572.139, 611 572.979, 611 575.575 C 611 580.583, 613.624 580.202, 631.514 572.600 C 652.173 563.821, 653 563.381, 653 561.165 C 653 556.715, 648.728 555.914, 642.500 559.196 M 215.667 559.667 C 213.544 561.790, 215.595 566.316, 223.872 577.773 C 231.155 587.853, 244.760 604.450, 250.821 610.649 C 252.459 612.323, 256.196 612.404, 257.800 610.800 C 260.504 608.096, 258.912 604.947, 249.193 593.774 C 243.800 587.573, 236.547 578.450, 233.075 573.500 C 224.720 561.585, 222.207 559, 218.980 559 C 217.524 559, 216.033 559.300, 215.667 559.667 M 356.830 565.410 C 343.674 576.654, 331.443 593, 336.186 593 C 336.912 593, 344.204 586.285, 352.390 578.077 C 362.838 567.601, 367.093 562.684, 366.668 561.577 C 365.645 558.912, 363.417 559.780, 356.830 565.410 M 697.200 566.200 C 694.956 568.444, 695.964 572.004, 700.192 576.772 C 702.497 579.373, 710.704 587.913, 718.429 595.750 C 729.457 606.939, 733.041 610, 735.115 610 C 738.219 610, 740.287 607.891, 739.827 605.195 C 739.337 602.327, 702.667 565, 700.339 565 C 699.273 565, 697.860 565.540, 697.200 566.200 M 562.500 572.374 C 551.540 576.414, 537.058 582.420, 531.776 585.114 C 528.774 586.646, 527.947 587.611, 528.187 589.302 C 528.735 593.152, 533.475 592.585, 546.568 587.107 C 553.131 584.361, 562.550 580.626, 567.500 578.807 C 576.098 575.648, 576.500 575.366, 576.500 572.500 C 576.500 568.300, 573.620 568.274, 562.500 572.374 M 1099.011 572.487 C 1097.386 574.444, 1098.299 577.750, 1101.718 582.292 C 1104.731 586.294, 1108.374 587.881, 1110.905 586.295 C 1114.437 584.082, 1112.748 578.891, 1106.444 572.587 C 1104.446 570.589, 1100.628 570.538, 1099.011 572.487 M 1347 571.928 C 1327.188 572.481, 1326.490 572.570, 1326.202 574.588 C 1325.535 579.252, 1327.180 579.491, 1360.905 579.633 C 1378.622 579.708, 1395.794 580.265, 1400 580.901 C 1412.344 582.767, 1421.666 583.350, 1422.317 582.297 C 1423.504 580.376, 1419.829 577.027, 1414.943 575.576 C 1404.159 572.373, 1379.145 571.030, 1347 571.928 M 183.536 573.960 C 180.952 576.815, 181.945 579.147, 190.789 591 C 200.061 603.427, 209.335 613.654, 212.136 614.543 C 214.530 615.303, 218 612.543, 218 609.878 C 218 608.882, 215.093 604.839, 211.541 600.895 C 207.989 596.951, 202.476 590.104, 199.291 585.680 C 189.302 571.806, 187.021 570.109, 183.536 573.960 M 635 577.903 C 621.685 583.205, 611.262 588.642, 610.041 590.924 C 609.254 592.395, 609.390 593.247, 610.607 594.464 C 612.496 596.354, 613.957 596.004, 623 591.501 C 626.575 589.720, 634.122 586.556, 639.772 584.470 C 648.018 581.425, 650.156 580.227, 650.616 578.395 C 652.010 572.838, 648.034 572.713, 635 577.903 M 402.050 579.948 C 399.889 581.315, 400.451 587.407, 403.088 591.205 C 404.347 593.017, 409.425 598.663, 414.373 603.750 C 423.305 612.934, 426.104 614.496, 428.800 611.800 C 431.665 608.935, 430.075 605.703, 421.250 596.457 C 416.438 591.415, 410.820 585.425, 408.766 583.145 C 404.796 578.737, 404.321 578.511, 402.050 579.948 M 361.761 581.384 C 360.804 582.111, 359.299 584.459, 358.415 586.602 L 356.809 590.500 360.317 587.139 C 365.163 582.495, 366.308 577.932, 361.761 581.384 M 1247.314 584.208 C 1244.532 587.227, 1238.557 597.208, 1213.320 641 C 1175.306 706.962, 1167.616 722.210, 1146.755 773 C 1139.463 790.755, 1129.973 817.619, 1130.018 820.380 C 1130.028 820.996, 1131.521 817.900, 1133.335 813.500 C 1135.150 809.100, 1140.992 797.400, 1146.318 787.500 C 1151.644 777.600, 1159.261 762.300, 1163.244 753.500 C 1173.523 730.795, 1188.766 700.118, 1197.169 685.228 C 1209.454 663.460, 1240.923 609.027, 1247.700 597.824 C 1254.436 586.690, 1255.381 582.769, 1251.463 582.208 C 1250.328 582.046, 1248.492 582.931, 1247.314 584.208 M 154.980 587.038 C 154.380 588.159, 154.148 589.892, 154.465 590.890 C 155.388 593.798, 179.607 617, 181.719 617 C 184.822 617, 187.205 614.648, 186.836 611.951 C 186.620 610.375, 182.020 605.127, 173.951 597.250 C 160.692 584.307, 157.392 582.530, 154.980 587.038 M 562.781 590.523 C 559.085 591.782, 548.398 595.816, 539.031 599.488 C 523.874 605.429, 522 606.417, 522 608.460 C 522 609.722, 522.686 611.324, 523.524 612.020 C 524.787 613.068, 527.570 612.294, 539.774 607.503 C 547.873 604.323, 558.267 600.444, 562.870 598.883 C 567.474 597.323, 571.861 595.530, 572.620 594.900 C 574.494 593.345, 574.366 589.355, 572.418 588.607 C 570.454 587.853, 570.854 587.774, 562.781 590.523 M 1075.099 594.250 C 1074.084 596.982, 1074.508 598.277, 1078.211 603.742 C 1082.616 610.243, 1089 610.527, 1089 604.222 C 1089 601.757, 1085.267 595.769, 1082.160 593.250 C 1079.646 591.212, 1076.038 591.723, 1075.099 594.250 M 129.200 594.200 C 126.809 596.591, 128.139 599.362, 135.750 607.851 C 145.192 618.383, 145.844 618.928, 149.050 618.968 C 152.065 619.006, 154 617.339, 154 614.703 C 154 613.660, 149.888 608.350, 144.862 602.903 C 137.693 595.135, 135.149 593, 133.062 593 C 131.598 593, 129.860 593.540, 129.200 594.200 M 1359 594.941 C 1352.125 595.249, 1345.938 595.864, 1345.250 596.309 C 1344.563 596.754, 1344 597.976, 1344 599.024 C 1344 602.818, 1347.050 603.214, 1370.310 602.445 C 1388.334 601.849, 1393.165 601.381, 1396.444 599.912 L 1400.467 598.111 1395.984 596.078 C 1391.169 593.894, 1385.987 593.735, 1359 594.941 M 687.644 597.499 C 684.928 600.215, 685.574 603.860, 689.116 605.797 C 690.829 606.733, 693.989 608.935, 696.138 610.690 C 701.355 614.949, 703.687 615.593, 706.072 613.435 C 708.892 610.883, 708.458 608.839, 704.250 604.860 C 696.162 597.212, 690.459 594.684, 687.644 597.499 M 629.500 602.922 C 603.947 614.214, 602.313 615.262, 605.074 618.589 C 606.952 620.852, 611.159 619.785, 624.826 613.580 C 631.247 610.665, 638.615 607.489, 641.201 606.522 C 646.977 604.364, 649.415 601.883, 648.523 599.072 C 647.498 595.843, 643.850 596.581, 629.500 602.922 M 1170.237 599.250 C 1165.798 604.757, 1137.469 667.460, 1122.461 705 C 1106.032 746.091, 1103.855 753.750, 1108.876 752.787 C 1111.467 752.290, 1115.147 744.496, 1128.137 712 C 1140.603 680.814, 1153.612 651.233, 1168.682 619.803 C 1177.551 601.308, 1178.290 598, 1173.555 598 C 1172.284 598, 1170.791 598.563, 1170.237 599.250 M 108.750 601.080 C 105.544 602.947, 106.676 607.114, 111.920 612.750 C 117.139 618.360, 119.648 619.152, 122.435 616.072 C 124.788 613.472, 123.897 611.183, 118.152 605.063 C 113.303 599.899, 111.841 599.280, 108.750 601.080 M 87.223 607.557 C 84.229 609.654, 84.424 611.822, 88.048 616.751 C 91.720 621.744, 94.411 622.843, 97.072 620.435 C 99.979 617.804, 99.414 614.781, 95.154 610.166 C 90.855 605.510, 90.371 605.351, 87.223 607.557 M 1252.649 639.006 C 1241.419 652.351, 1206.766 729.211, 1191.560 774.500 C 1186.458 789.695, 1178.929 815.262, 1179.414 815.747 C 1179.579 815.913, 1180.738 813.225, 1181.990 809.774 C 1183.241 806.323, 1187.415 797.200, 1191.266 789.500 C 1195.117 781.800, 1203.553 762.675, 1210.013 747 C 1231.304 695.338, 1246.523 662.839, 1256.363 648.023 C 1260.147 642.325, 1260.841 639.241, 1258.800 637.200 C 1256.914 635.314, 1255.375 635.765, 1252.649 639.006 M 1077.534 652.126 C 1074.010 663.837, 1072.116 699.332, 1071.007 774.500 C 1070.512 808.050, 1069.640 849.450, 1069.070 866.500 C 1068.499 883.550, 1067.822 910.565, 1067.566 926.533 C 1067.058 958.092, 1067.375 960.500, 1072.030 960.500 C 1074.485 960.500, 1074.504 960.429, 1075.114 948.500 C 1075.452 941.900, 1075.790 925.128, 1075.864 911.228 C 1075.939 897.329, 1076.459 874.829, 1077.019 861.228 C 1077.579 847.628, 1078.482 808.150, 1079.024 773.500 C 1079.567 738.850, 1080.495 704.200, 1081.087 696.500 C 1082.434 678.992, 1081.972 649.571, 1080.326 647.925 C 1079.427 647.027, 1078.772 648.012, 1077.534 652.126 M 1031.750 652.115 C 1030.237 653.244, 1029 654.588, 1029 655.102 C 1029 656.292, 1033.791 655.205, 1036.782 653.337 C 1038.037 652.553, 1038.798 651.482, 1038.473 650.956 C 1037.524 649.420, 1034.712 649.905, 1031.750 652.115 M 1039.243 668.543 C 1037.127 670.025, 1028 682.079, 1028 683.391 C 1028 684.438, 1039.453 678.331, 1042.851 675.472 C 1046.255 672.607, 1047.051 668.617, 1044.418 667.607 C 1042.156 666.739, 1041.700 666.821, 1039.243 668.543 M 1283.500 674.132 C 1280.731 675.513, 1279.312 677.609, 1268.923 695.668 C 1252.907 723.507, 1238.389 755.142, 1231.597 777 C 1227.988 788.616, 1222.592 811.925, 1223.340 812.673 C 1223.562 812.896, 1224.518 810.713, 1225.463 807.824 C 1227.764 800.788, 1250.412 749.260, 1259.448 730.500 C 1263.422 722.250, 1270.866 708.300, 1275.991 699.500 C 1289.184 676.846, 1289.091 677.039, 1287.927 674.863 C 1286.812 672.780, 1286.362 672.706, 1283.500 674.132 M 1042 696.734 C 1041.175 697.050, 1033.067 704.102, 1023.983 712.405 C 1014.898 720.707, 1005.673 728.983, 1003.483 730.796 C 998.714 734.742, 1000.242 734.244, 1012.893 727.728 C 1032.192 717.789, 1047.873 703.324, 1045.645 697.518 C 1045.032 695.920, 1044.447 695.794, 1042 696.734 M 982.500 746.501 C 980.850 747.256, 976.948 748.986, 973.828 750.346 C 966.133 753.700, 917.664 782.530, 895.500 796.937 C 885.600 803.373, 865.770 815.913, 851.433 824.805 C 824.169 841.714, 817.150 846.815, 818.387 848.818 C 819.651 850.862, 822.661 850.133, 831.209 845.714 C 840.503 840.909, 878.389 817.568, 902.587 801.739 C 911.339 796.013, 927.950 785.775, 939.500 778.988 C 968.164 762.144, 975.694 757.022, 981.313 750.546 C 983.959 747.496, 985.984 745.029, 985.813 745.064 C 985.641 745.099, 984.150 745.746, 982.500 746.501 M 1001.406 779.384 C 994.978 784.887, 967.770 802.380, 932.500 823.688 C 892.919 847.601, 869.133 862.558, 830.500 887.827 C 814.550 898.260, 797.470 909.429, 792.544 912.648 C 783.864 918.320, 773.431 928.977, 775.789 929.763 C 778.239 930.580, 801.423 916.626, 843 889.311 C 878.345 866.091, 895.474 855.326, 935.500 831.175 C 970.299 810.178, 997.910 792.496, 1003.839 787.412 C 1008.701 783.243, 1010.205 780.342, 1008.847 777.750 C 1007.516 775.210, 1005.857 775.575, 1001.406 779.384 M 1026.004 798.802 C 1024.631 799.736, 1019.440 803.650, 1014.469 807.500 C 998.463 819.896, 888.776 892.754, 862.250 908.610 C 850.197 915.815, 848 917.501, 848 919.545 C 848 921.295, 848.696 922.137, 850.524 922.595 C 853.906 923.444, 866.933 915.645, 915.500 883.696 C 1024.423 812.042, 1029 808.687, 1029 800.497 C 1029 798.574, 1028.888 797.024, 1028.750 797.052 C 1028.612 797.081, 1027.377 797.869, 1026.004 798.802 M 1013 849.166 C 1011.625 849.678, 1008.025 852.483, 1005 855.398 C 994.790 865.237, 964.473 889.240, 937 909.236 C 929.025 915.040, 920.813 921.433, 918.750 923.443 C 912.889 929.153, 914.350 933.718, 920.906 930.179 C 926.532 927.143, 962.032 900.806, 982.458 884.517 C 1007.162 864.815, 1017 855.490, 1017 851.775 C 1017 848.494, 1016.202 847.973, 1013 849.166 M 768.825 874.266 C 754.038 883.252, 735.283 893.478, 709.344 906.697 C 692.759 915.150, 678.935 922.726, 678.626 923.533 C 677.859 925.532, 678.815 927.715, 680.789 928.473 C 684.557 929.919, 764.987 887.643, 773.189 879.905 C 780.109 873.376, 776.968 869.318, 768.825 874.266 M 1028.671 885.808 C 1016.032 895.621, 1010.919 899.176, 997.053 907.789 C 980.154 918.287, 965.491 928.936, 957.139 936.777 C 953.122 940.548, 951.911 942.339, 952.165 944.131 C 952.832 948.850, 956.273 947.599, 966.672 938.854 C 975.451 931.472, 987.810 922.991, 1014.343 906.140 C 1029.653 896.416, 1036.861 889.408, 1035.418 885.647 C 1034.403 883.001, 1032.219 883.053, 1028.671 885.808 M 676.682 898.440 C 656.680 909.051, 635.864 923.499, 633.962 928.091 C 631.269 934.593, 636.182 934.612, 644.358 928.131 C 651.534 922.443, 657.919 918.303, 673.305 909.364 C 687.173 901.305, 689.658 898.493, 685.074 896.040 C 683.551 895.224, 681.798 895.726, 676.682 898.440 M 617.779 913.920 C 614.942 915.723, 612.810 917.910, 612.435 919.403 C 610.985 925.180, 615.459 925.536, 622.500 920.203 C 631.753 913.195, 627.607 907.678, 617.779 913.920 M 1031.500 914.110 C 1029.300 915.789, 1020.645 921.868, 1012.266 927.618 C 1003.887 933.367, 996.577 938.923, 996.020 939.963 C 994.591 942.633, 995.795 945, 998.583 945 C 1001.603 945, 1038.877 919.363, 1040.256 916.338 C 1042.863 910.615, 1037.774 909.320, 1031.500 914.110 M 573.365 918.089 C 568.498 919.500, 560.537 925.244, 560.202 927.588 C 559.763 930.655, 562.484 932.582, 565.280 931.183 C 572.824 927.407, 587 918.445, 587 917.452 C 587 916.660, 576.622 917.145, 573.365 918.089 M 1034.770 939.449 C 1029.449 943.512, 1028.049 946.478, 1030.360 948.789 C 1032.291 950.719, 1035.030 949.669, 1040.429 944.928 C 1043.189 942.505, 1044.029 941.054, 1043.802 939.101 C 1043.351 935.217, 1040.152 935.340, 1034.770 939.449" stroke="none" fill="#fffcfc" fill-rule="evenodd"/><path d="" stroke="none" fill="#fcfcfc" fill-rule="evenodd"/></svg>