<svg width="250" height="250" viewBox="0 0 250 250" fill="none" xmlns="http://www.w3.org/2000/svg">
<path fill-rule="evenodd" clip-rule="evenodd" d="M197.175 51.3265C195.369 51.7213 193.562 52.4845 190.879 53.9848C188.037 55.5737 186.524 56.5521 184.232 58.2828C181.74 60.1647 180.482 61.2898 179.622 62.4077C179.22 62.9301 178.201 64.2459 177.356 65.3318C175.173 68.1404 173.516 70.6573 171.979 73.5025C169.86 77.4252 168.199 81.5706 168.052 83.2998C167.949 84.522 168.337 86.0133 168.913 86.6119L169.375 87.0912L168.227 88.3869C166.965 89.8115 166.84 90.201 167.484 90.7078L167.89 91.0269L166.308 93.1339C164.083 96.0972 163.854 96.7133 164.702 97.4412L165.067 97.7541L164.181 98.9761C163.405 100.047 163.294 100.29 163.285 100.941C163.275 101.626 163.221 101.727 162.59 102.25C160.384 104.077 159.429 105.27 159.613 105.972C159.679 106.225 159.345 106.66 158.06 107.992C156.301 109.817 156.128 110.189 156.748 110.81C156.927 110.988 157.013 111.182 156.941 111.241C154.676 113.099 154.108 113.777 154.108 114.621C154.108 115.076 153.94 115.335 153.027 116.297C152.137 117.234 151.946 117.525 151.946 117.944C151.946 118.224 152.018 118.525 152.105 118.612C152.214 118.721 152.073 119.011 151.655 119.537C151.32 119.957 150.869 120.635 150.652 121.043C150.296 121.711 150.277 121.833 150.456 122.273C150.785 123.085 151.946 122.993 151.946 122.155C151.946 121.739 152.587 120.736 153.627 119.525C154.425 118.595 154.614 118.003 154.234 117.622C154.094 117.482 154.293 117.19 155.097 116.357C156.094 115.324 156.14 115.245 156.09 114.618L156.038 113.961L157.736 112.611C159.656 111.085 159.976 110.75 159.976 110.26C159.976 109.86 159.531 109.404 159.142 109.404C158.96 109.404 159.292 108.947 160.157 108.003C161.639 106.389 161.834 106.08 161.725 105.528C161.656 105.182 161.801 104.99 162.771 104.139C165.27 101.947 165.689 101.503 165.689 101.048C165.689 100.769 165.576 100.553 165.374 100.445C165.065 100.28 165.068 100.266 165.508 99.7061C166.514 98.4296 167.233 97.2896 167.233 96.9721C167.233 96.5725 166.828 96.1733 166.348 96.1C166.031 96.0516 166.087 95.9397 167.026 94.7348C168.777 92.4866 169.549 91.2136 169.549 90.5767C169.549 90.2647 169.471 89.9312 169.375 89.8353C169.191 89.6514 169.314 89.45 170.294 88.3342L170.769 87.7933L171.62 87.9642C172.371 88.1149 172.697 88.0853 174.361 87.7158C177.107 87.1062 178.785 86.4517 181.296 85.0109C184.665 83.0777 188.6 81.0841 190.241 80.4797C194.425 78.9388 200.002 78.3983 202.594 79.2828C204.765 80.0232 206.936 81.2207 208.231 82.3903C209.944 83.9388 211.603 84.6681 214.038 84.9436L214.97 85.049L214.366 85.684C214.034 86.0333 213.328 86.86 212.797 87.5212C212.265 88.1824 210.948 89.7112 209.868 90.9184C208.789 92.1256 206.802 94.3989 205.452 95.9701C201.891 100.115 197.695 104.725 194.346 108.169C190.569 112.053 182.773 119.946 179.865 122.828C178.617 124.065 176.915 125.815 176.082 126.715C174.549 128.374 168.089 134.712 164.256 138.319C161.564 140.852 160.78 142.189 161.732 142.623C162.234 142.852 162.675 142.593 163.057 141.845C163.224 141.518 164.276 140.391 165.396 139.34C169.036 135.926 175.612 129.474 177.163 127.796C177.996 126.896 179.699 125.151 180.947 123.919C182.196 122.688 186.561 118.276 190.648 114.114C198.009 106.62 201.928 102.411 206.446 97.1491C207.73 95.6528 209.727 93.3683 210.883 92.0725C212.038 90.7765 213.433 89.1604 213.983 88.4809C215.547 86.5489 217.228 84.8521 217.579 84.8521C218.158 84.8521 218.877 84.4389 220.738 83.0365C222.597 81.6363 226.222 78.1143 227.993 75.9888C229.222 74.5135 230.947 71.8742 231.578 70.5024C232.349 68.8253 232.832 67.0022 233.091 64.7877C233.305 62.9547 233.55 61.9899 234.166 60.5541C234.672 59.3764 234.116 58.4826 232.367 57.6633C231.282 57.1545 231.171 57.1347 229.463 57.1434C227.817 57.1517 227.444 57.2159 224.367 58.0209C220.782 58.9587 217.939 59.3583 216.305 59.154C214.599 58.9409 212.124 57.4886 209.672 55.2626C208.044 53.7837 207.361 53.312 205.77 52.5665C202.883 51.2135 199.755 50.7623 197.175 51.3265ZM199.738 61.5484C196.863 61.9395 194.153 62.97 190.897 64.9097C188.625 66.2629 187.008 67.4574 185.341 69.0123C184.329 69.9559 183.298 71.3622 183.294 71.804C183.293 71.9043 185.44 71.9584 189.43 71.9584H195.568L199.506 72.8043L203.444 73.6502L207.69 73.652C211.451 73.6536 212.154 73.6137 213.835 73.303C216.374 72.8341 217.251 72.4873 218.139 71.6004C218.97 70.7708 220.043 69.1824 220.043 68.7826C220.043 68.5354 219.236 67.7142 218.989 67.7102C218.374 67.7007 214.828 67.0404 214.176 66.814C212.547 66.2488 210.813 65.2515 209.142 63.9185C207.34 62.4818 206.344 61.9315 205.131 61.7033C203.915 61.4746 200.914 61.3884 199.738 61.5484ZM55.7445 73.4378C54.3481 74.0699 53.5924 75.1766 53.4639 76.7779C53.4212 77.3108 53.293 77.8234 53.1789 77.9182C52.4967 78.4843 44.9397 78.0516 41.8271 77.2683C40.2224 76.8643 39.8524 76.818 39.386 76.9622C39.0835 77.0557 37.9673 77.274 36.9057 77.4473C35.8441 77.6204 34.4624 77.9045 33.8353 78.0782C33.2084 78.2521 32.493 78.4199 32.2459 78.4513C31.9207 78.4923 31.1906 79.0801 29.6028 80.5788C26.4522 83.5527 24.2808 85.3626 23.205 85.9114C22.8725 86.0811 21.7213 86.4675 20.6469 86.7703C19.5723 87.0731 18.3356 87.4567 17.8986 87.6227C17.4616 87.7888 16.4531 88.1092 15.6576 88.335L14.2112 88.7453L13.4278 88.041C12.997 87.6537 12.249 87.1426 11.7655 86.9051C10.9811 86.52 10.7204 86.4735 9.34241 86.4735C7.95004 86.4735 7.70807 86.5178 6.88132 86.9232C5.1846 87.755 4.12036 89.2461 3.23478 92.0325C2.75146 93.5532 2.6324 97.4418 3.00238 99.6219C3.72783 103.896 5.87468 107.778 8.11959 108.877C8.80041 109.21 9.26165 109.309 10.4121 109.369C11.7093 109.437 11.9344 109.406 12.682 109.062C14.2902 108.32 16.0212 106.36 16.5966 104.628L16.8432 103.885L17.8026 103.688C18.3301 103.579 18.9488 103.396 19.1773 103.282C19.4059 103.168 20.2998 102.893 21.1639 102.67C22.6338 102.291 22.8214 102.276 24.0788 102.438C24.8179 102.532 26.4255 102.608 27.6512 102.605C29.66 102.6 30.9403 102.522 34.1469 102.21L35.1713 102.11L35.486 102.952C36.3943 105.379 37.5387 111.356 38.2146 117.202C38.4306 119.071 38.7461 121.746 38.9156 123.147C40.6675 137.619 40.6861 137.761 41.0995 139.67C41.2743 140.477 41.4693 141.439 41.533 141.809C41.7575 143.115 42.0002 143.152 49.9232 143.103C57.5747 143.055 59.7647 142.927 60.3602 142.492C61.0303 142.003 61.3807 141.119 61.3566 139.979C61.3035 137.458 59.9104 132.463 57.675 126.776C57.1075 125.332 56.1562 122.761 55.5611 121.063C54.9658 119.364 54.1814 117.21 53.8176 116.276C52.7343 113.493 51.7779 110.689 51.1844 108.555C50.8773 107.451 50.2192 105.332 49.7218 103.845C48.6517 100.647 48.4869 99.9056 48.4869 98.2882V97.0699L50.6874 95.0918C51.8975 94.0039 53.6869 92.3404 54.6636 91.3952C55.6403 90.45 56.6096 89.5889 56.8176 89.4815C57.1553 89.3074 57.2215 89.325 57.4352 89.646C57.9077 90.3555 59.0407 91.341 59.825 91.7247C60.2987 91.9565 61.0337 92.1539 61.6319 92.2096C62.9581 92.3335 63.6256 92.0317 64.2034 91.0473C64.5736 90.4167 64.619 90.1906 64.5955 89.0986C64.5637 87.6227 63.9249 85.054 63.0018 82.6903C62.6536 81.7986 62.0313 80.2003 61.619 79.1387C60.6585 76.6656 59.8274 74.8755 59.335 74.2192C58.5547 73.1792 57.0427 72.8501 55.7445 73.4378ZM72.1126 96.1566C64.1718 107.381 57.5618 116.682 57.4238 116.826C57.1919 117.067 57.2096 117.304 57.66 119.954C57.928 121.532 58.201 122.876 58.2666 122.941C58.4273 123.102 80.323 124.52 82.7918 124.53L84.7465 124.537L85.5713 123.869C86.7247 122.935 88.7589 121.657 89.5725 121.356C90.0378 121.183 91.02 121.071 92.6438 121.005L95.0311 120.908L95.763 118.901C96.1654 117.797 96.5348 116.736 96.5836 116.543L96.6724 116.192L80.7057 116.234L64.7391 116.276L75.8997 99.5989C82.0379 90.4266 87.5362 82.2122 88.1179 81.3447L89.1756 79.7675L91.4147 79.7626C92.6461 79.7599 101.019 79.6837 110.022 79.5932L126.39 79.4286L146.078 80.1332C156.906 80.5206 166.224 80.8376 166.783 80.8375L167.8 80.8373L168.061 79.8982C168.205 79.3816 168.533 78.5407 168.791 78.0296C169.05 77.5183 169.239 77.0804 169.212 77.0564C169.156 77.0066 90.4539 75.7303 88.0947 75.7411L86.5506 75.7481L72.1126 96.1566ZM176.112 78.0501C174.813 78.1719 174.309 78.4696 173.872 79.3728C173.586 79.9625 173.568 80.1258 173.724 80.7112C173.988 81.7025 174.248 81.9188 175.171 81.9148C176.312 81.9099 177.391 81.3578 177.956 80.4897C178.534 79.602 178.182 77.8577 177.439 77.9261C177.304 77.9385 176.707 77.9944 176.112 78.0501ZM226.548 79.7567C226.171 79.8456 225.699 80.2355 224.849 81.159C224.202 81.8625 223.548 82.5955 223.397 82.7879C223.124 83.1349 223.126 83.1383 223.629 83.2153C223.907 83.2579 224.996 83.325 226.048 83.364C227.84 83.4307 228.228 83.5309 228.222 83.9256C228.221 83.9681 222.559 91.715 215.639 101.141L203.058 118.279V130.03V141.781L213.365 141.883C219.034 141.94 225.239 141.986 227.154 141.986L230.637 141.986L239.199 131.542C243.908 125.797 247.817 120.983 247.885 120.845C247.973 120.665 245.328 115.051 238.785 101.525C230.396 84.1852 228.647 80.6914 227.947 79.8722C227.702 79.5847 227.387 79.5587 226.548 79.7567ZM54.8597 81.3392C54.9596 81.9502 56.9647 87.6315 57.1758 87.9019C57.3952 88.183 57.7175 88.138 57.8209 87.8118C57.8983 87.568 55.9985 81.9094 55.5713 81.1111C55.4908 80.9605 55.2793 80.8373 55.1012 80.8373C54.8222 80.8373 54.789 80.9065 54.8597 81.3392ZM145.924 81.39C143.902 81.6803 142.35 82.066 142.006 82.3634C141.75 82.5856 141.729 82.762 141.819 83.9653C141.875 84.709 142.091 86.3606 142.3 87.6355C142.51 88.9103 142.681 90.0538 142.681 90.1764C142.681 90.4269 140.829 92.6976 139.362 94.2464C138.434 95.2257 138.38 95.2579 137.977 95.0743C137.746 94.9693 136.817 94.7084 135.911 94.4944C135.006 94.2805 133.804 93.8929 133.24 93.6329L132.214 93.1603L132.111 91.9788C132.055 91.3288 131.901 89.8591 131.769 88.7125C131.637 87.566 131.519 85.91 131.507 85.0325C131.477 82.8872 131.552 82.9383 128.629 83.06C125.993 83.1699 123.769 83.4077 123.367 83.623C123.21 83.7074 123.016 84.0359 122.936 84.3529C122.549 85.9011 122.644 100.314 123.047 101.037C123.337 101.558 124.944 102.541 128.011 104.074C130.278 105.207 131.892 106.057 132.163 106.261C132.296 106.362 132.94 111.253 132.946 112.211C132.95 112.778 133.093 114.55 133.264 116.148C133.436 117.747 133.646 120.237 133.732 121.68C133.818 123.124 134.059 126.222 134.268 128.565C134.476 130.908 134.717 134.208 134.804 135.9C135.01 139.943 135.262 142.406 135.488 142.594C136.152 143.145 140.98 143.18 147.082 142.678C148.695 142.545 150.483 142.455 151.055 142.477C151.696 142.501 152.164 142.447 152.276 142.336C152.527 142.085 152.483 141.486 152.117 140.133C151.556 138.064 150.732 133.753 150.401 131.162C150.224 129.769 149.979 128.004 149.857 127.239C149.736 126.475 149.462 124.321 149.249 122.452C149.035 120.584 148.617 117.179 148.319 114.886C148.021 112.593 147.698 109.587 147.601 108.206L147.426 105.695L148.412 104.059C148.954 103.16 150.011 101.615 150.76 100.625C152.226 98.6885 153.31 96.7053 153.435 95.7291C153.518 95.0819 152.039 85.6761 151.469 83.2308C150.974 81.1029 151.02 81.1429 149.047 81.1627C148.136 81.1719 146.73 81.2742 145.924 81.39ZM30.9817 83.593C28.522 85.7729 27.6854 86.2712 24.8612 87.2386C23.0878 87.846 20.1946 89.0387 20.2822 89.1262C20.4202 89.2644 22.7706 88.816 24.1613 88.3863C27.782 87.2674 29.0405 86.5615 31.6999 84.1582C33.1182 82.8764 33.8174 82.0628 33.8174 81.6943C33.8174 81.6475 33.6829 81.6094 33.5186 81.6094C33.3543 81.6094 32.2127 82.5021 30.9817 83.593ZM91.216 83.7127C90.638 84.2907 91.9074 86.7193 94.9551 90.8662C95.87 92.1109 97.5393 94.4644 98.6647 96.0961C99.7901 97.7277 100.858 99.1659 101.038 99.2922C101.692 99.7499 102.504 99.4334 102.28 98.8078C102.14 98.4178 98.9292 93.7553 96.4599 90.3578C95.3583 88.8423 93.9289 86.7229 93.2833 85.6482C92.3234 84.0499 92.0382 83.6857 91.7178 83.6483C91.5022 83.6231 91.2763 83.6522 91.216 83.7127ZM206.99 85.3077C206.446 85.5283 205.552 86.6534 205.438 87.261C205.214 88.4547 206.299 89.4687 207.58 89.2638C208.936 89.0469 209.578 88.2941 209.528 86.9771C209.511 86.5303 209.432 86.0371 209.353 85.8813C209.068 85.3202 207.75 84.9999 206.99 85.3077ZM109.425 85.467C108.752 85.68 107.881 86.3365 107.206 87.14C105.449 89.2308 103.305 92.948 103.305 93.9025C103.305 94.1211 103.444 94.4766 103.613 94.6923C103.783 94.9082 104.096 95.6356 104.309 96.3089L104.695 97.5331L103.758 99.7241C103.242 100.929 102.378 103.131 101.838 104.617C101.298 106.104 100.213 108.953 99.4267 110.948C98.6407 112.944 97.3929 116.175 96.6536 118.129L95.3092 121.68L94.1727 121.628C92.0813 121.532 90.5935 121.828 88.8668 122.683C86.6821 123.764 85.3991 124.768 84.3699 126.2C82.2766 129.113 79.1383 134.112 77.7581 136.731C76.2088 139.671 75.9136 140.161 75.1722 141.026C74.7343 141.538 74.617 142.174 74.883 142.594C75.0305 142.827 76.247 143.032 77.6202 143.054L78.4182 143.067L78.6889 142.334C79.9483 138.922 81.0008 136.818 83.3517 133.013C86.4962 127.924 88.1037 126.318 89.7794 126.59C91.4961 126.868 92.1792 128.818 91.7271 132.148C91.539 133.533 90.0499 138.991 89.1146 141.724C88.7632 142.751 88.6979 143.101 88.847 143.158C88.9556 143.2 89.6993 143.214 90.4998 143.189L91.9551 143.144L92.2826 141.909C92.4629 141.23 93.0986 139.214 93.6956 137.431C94.2925 135.647 94.8294 133.957 94.8887 133.673L94.9965 133.159L95.2962 133.48C95.461 133.657 95.6546 133.802 95.7264 133.802C95.7981 133.802 96.5424 133.515 97.3804 133.165C98.2183 132.815 99.3818 132.364 99.9659 132.164C101.178 131.748 101.452 131.564 101.452 131.166C101.452 130.693 101.009 130.57 100.186 130.814C98.9456 131.183 95.7108 132.544 95.3849 132.835C95.0882 133.1 95.083 133.096 95.1971 132.721C96.0022 130.074 97.2955 128.594 98.9429 128.436C100.24 128.312 101.549 129.234 101.908 130.526C102.284 131.88 102.002 135.697 101.208 139.971C100.918 141.538 100.68 142.949 100.68 143.105C100.68 143.358 100.795 143.385 101.711 143.344C102.687 143.301 102.749 143.276 102.854 142.881C102.916 142.651 103.287 141.948 103.679 141.318C105.283 138.745 106.36 134.333 106.061 131.563C105.827 129.4 105.108 127.453 103.959 125.877C103.459 125.19 101.995 123.828 100.929 123.057L100.483 122.735L101.259 120.509C101.685 119.285 102.527 116.581 103.129 114.5C103.732 112.419 104.891 108.806 105.706 106.47C106.522 104.135 107.403 101.592 107.666 100.819L108.144 99.4139L110.504 98.2366C113.183 96.9003 112.808 97.385 113.576 94.2715C114.059 92.316 114.224 90.0555 113.972 88.8489C113.718 87.6268 112.955 86.4236 112.106 85.9066C111.341 85.4405 110.134 85.2425 109.425 85.467ZM108.169 90.831C107.762 90.93 107.32 91.3308 107.32 91.5997C107.32 91.7725 107.55 91.7942 108.516 91.7124C109.175 91.6566 109.956 91.5592 110.253 91.4957L110.794 91.3806L110.099 91.0536C109.432 90.7399 108.829 90.6702 108.169 90.831ZM14.2862 91.3336C14.2351 91.4164 14.3972 92.0938 14.6465 92.8392C15.2147 94.5381 15.7479 97.7877 15.862 100.247C15.95 102.145 16.0543 102.437 16.5368 102.138C16.8847 101.922 16.7691 98.9264 16.3064 96.169C15.9142 93.8314 15.4672 92.1931 15.0407 91.5306C14.8078 91.1688 14.4463 91.0745 14.2862 91.3336ZM43.7772 98.8174C42.0919 99.4227 39.8501 100.006 37.476 100.458C36.7726 100.591 36.5898 100.684 36.6281 100.886C36.7603 101.582 40.2217 101.009 44.1131 99.6454C46.1488 98.9321 46.6244 98.6457 46.3937 98.2725C46.238 98.0206 45.6605 98.1409 43.7772 98.8174ZM192.994 101.111C192.626 101.391 191.257 102.902 189.952 104.469C187.495 107.419 183.315 112.056 179.723 115.815C176.327 119.37 171.271 124.838 170.159 126.158C169.343 127.127 166.461 131.614 166.461 131.915C166.461 132.083 170.132 128.443 171.409 127.008C173.249 124.941 175.936 122.047 180.443 117.28C185.799 111.613 187.898 109.297 190.378 106.316C191.614 104.83 193.019 103.19 193.5 102.671C194.461 101.636 194.69 101.171 194.404 100.827C194.115 100.479 193.721 100.558 192.994 101.111ZM40.0777 102.944C38.7166 104.332 38.5396 104.624 38.8248 105.014C39.0178 105.278 39.1346 105.193 40.4016 103.858C41.7763 102.41 42.016 101.967 41.4809 101.864C41.285 101.826 40.8335 102.174 40.0777 102.944ZM43.8503 102.401C43.169 102.856 42.3064 103.741 41.2386 105.081C40.0733 106.543 39.781 107.023 39.9188 107.246C40.1429 107.608 40.5364 107.292 41.8999 105.654C42.6979 104.696 43.6843 103.63 44.0919 103.286C44.6185 102.842 44.8047 102.586 44.7348 102.404C44.61 102.078 44.3355 102.078 43.8503 102.401ZM45.0739 104.786C43.2851 106.171 41.1336 108.542 40.4516 109.879C40.0618 110.643 40.0696 110.827 40.4882 110.766C40.705 110.735 41.2053 110.219 41.8708 109.342C43.1631 107.638 43.5997 107.178 45.2141 105.821C46.028 105.136 46.4786 104.65 46.4476 104.489C46.36 104.034 45.9226 104.128 45.0739 104.786ZM106.703 104.693C106.297 105.183 106.859 106.471 108.371 108.516C108.835 109.144 109.131 109.404 109.378 109.404C109.822 109.404 110.099 109.131 110.099 108.693C110.099 108.323 108.467 105.809 107.687 104.977C107.152 104.405 106.983 104.356 106.703 104.693ZM224.353 105.145C224.051 105.35 223.187 106.236 222.433 107.114C221.678 107.991 219.785 110.007 218.225 111.594C215.739 114.122 215.395 114.532 215.438 114.913C215.541 115.809 215.955 115.554 218.53 113.008C221.24 110.33 225.032 106.179 225.389 105.501C225.806 104.709 225.267 104.524 224.353 105.145ZM229.833 107.334C229.417 107.554 228.834 107.916 228.536 108.138C227.115 109.203 222.226 114.28 219.657 117.359C218.078 119.251 216.776 121.608 217.313 121.601C217.414 121.6 218.434 120.542 219.58 119.251C223.764 114.54 226.264 111.859 227.711 110.531C228.942 109.4 230.055 108.092 230.606 107.127C230.758 106.861 230.696 106.877 229.833 107.334ZM138.187 107.442C136.905 108.305 136.415 110.143 136.181 114.963C136.008 118.523 136.024 119.114 136.587 130.019C137.165 141.227 137.146 141.06 137.815 141.06C138.01 141.06 138.216 140.939 138.272 140.792C138.329 140.645 138.302 139.203 138.213 137.588C138.123 135.973 137.946 132.636 137.82 130.173C137.694 127.71 137.513 124.201 137.419 122.375C137.24 118.928 137.324 114.343 137.607 111.968C137.786 110.474 138.213 109.048 138.614 108.604C138.999 108.179 139.641 108.261 140.391 108.83C141.724 109.841 142.726 111.934 143.401 115.118C143.894 117.437 144.747 122.717 145.15 125.927C145.494 128.674 147.046 138.243 147.379 139.67C147.643 140.802 147.873 141.214 148.24 141.214C148.801 141.214 148.874 140.733 148.542 139.212C148.372 138.433 148.065 136.74 147.861 135.451C147.657 134.162 147.313 132.065 147.097 130.791C146.881 129.517 146.527 127.085 146.31 125.386C145.885 122.047 144.997 116.62 144.527 114.483C143.894 111.61 142.885 109.464 141.606 108.266C140.306 107.051 139.173 106.777 138.187 107.442ZM45.5875 109.057C42.5839 112.186 41.1926 114.088 41.4383 114.728C41.5992 115.147 41.8731 114.933 42.7328 113.715C43.1775 113.085 44.1851 111.88 44.9718 111.036C47.429 108.401 48.1781 107.55 48.1781 107.394C48.1781 107.311 47.9869 107.242 47.7535 107.242C47.413 107.242 46.9839 107.602 45.5875 109.057ZM117.02 108.422C116.47 108.521 116.179 108.87 116.412 109.15C116.66 109.449 118.705 109.831 120.599 109.932C121.491 109.98 124.038 110.207 126.259 110.437C130.814 110.909 131.369 110.877 131.634 110.122C131.856 109.487 131.363 109.105 130.449 109.203C130.085 109.243 128.154 109.091 126.158 108.867C122.772 108.486 117.964 108.252 117.02 108.422ZM150.187 110.928C149.614 111.053 149.335 111.464 149.57 111.836C149.795 112.195 150.338 112.298 152.104 112.32C153.724 112.34 154.262 112.138 154.262 111.511C154.262 110.887 153.993 110.793 152.262 110.812C151.366 110.822 150.432 110.875 150.187 110.928ZM107.064 111.375C106.834 111.522 105.338 114.112 105.226 114.558C105.108 115.03 105.634 115.496 106.142 115.368C106.42 115.298 106.727 114.902 107.298 113.877C108.3 112.076 108.332 111.961 107.945 111.574C107.613 111.242 107.362 111.186 107.064 111.375ZM233.246 112.798C232.413 113.012 232.018 113.22 231.165 113.895C229.572 115.153 225.41 119.367 224.287 120.856C223.159 122.352 221.964 124.509 222.077 124.845C222.109 124.944 222.578 124.446 223.117 123.739C223.657 123.031 226.122 120.437 228.595 117.974C232.805 113.782 233.934 112.625 233.775 112.663C233.739 112.672 233.501 112.732 233.246 112.798ZM47.6113 113.607C46.2084 115.041 43.5504 118.262 43.2339 118.911C43.0657 119.256 42.928 119.734 42.928 119.972C42.928 120.352 42.9585 120.38 43.1749 120.201C43.3106 120.088 43.7405 119.576 44.1299 119.062C45.014 117.897 47.1926 115.329 48.2959 114.151C49.14 113.25 49.2447 112.915 48.7065 112.835C48.5164 112.806 48.1227 113.084 47.6113 113.607ZM194.83 113.536C194.684 113.698 194.565 113.937 194.565 114.069C194.565 114.63 195.011 114.728 198.41 114.913C202.806 115.152 203.521 115.051 203.521 114.191C203.521 113.917 203.415 113.684 203.251 113.599C203.102 113.522 201.206 113.41 199.038 113.351C195.286 113.248 195.083 113.257 194.83 113.536ZM103.298 117.318C103.118 117.934 102.7 119.337 102.37 120.436L101.77 122.435L102.881 123.461L103.991 124.488L110.931 124.59C114.748 124.646 121.308 124.692 125.509 124.692H133.147L133.054 123.804C133.003 123.315 132.845 121.63 132.704 120.059C132.562 118.488 132.404 117.155 132.352 117.097C132.24 116.972 109.566 116.197 106.052 116.198L103.627 116.199L103.298 117.318ZM236.741 117.81C235.491 118.336 234.099 119.421 232.941 120.774C231.622 122.316 231.25 122.857 230.166 124.817C229.15 126.653 228.784 127.471 228.978 127.471C229.053 127.471 229.776 126.62 230.585 125.579C232.648 122.926 234.309 121.016 235.51 119.917C236.292 119.201 237.856 117.36 237.608 117.447C237.587 117.455 237.197 117.618 236.741 117.81ZM149.242 119.087C149.413 121.37 149.438 121.393 150.369 120.127C152.049 117.843 152.043 117.588 150.311 117.588H149.13L149.242 119.087ZM48.989 119.222C46.5175 121.8 44.7354 124.377 44.2457 126.081C44.1451 126.432 44.1681 126.423 44.4965 125.979C45.4326 124.715 48.3486 121.219 49.5941 119.866C50.9295 118.416 51.1716 117.943 50.6634 117.773C50.5345 117.73 49.8555 118.318 48.989 119.222ZM184.634 121.796L181.774 124.769L182.417 124.813C182.771 124.837 184.753 124.907 186.822 124.967L190.583 125.078L178.916 134.379C170.905 140.766 167.041 143.753 166.585 143.912C165.998 144.116 156.814 144.144 87.8176 144.146L9.7144 144.148L9.81214 143.569C9.86588 143.251 9.94031 142.877 9.97752 142.74C10.0657 142.415 12.4372 141.323 15.4419 140.225C19.7312 138.658 21.1934 138.093 23.7759 137.004C25.1749 136.415 27.1205 135.623 28.0995 135.244C29.0787 134.866 31.4085 133.905 33.2769 133.11C35.1454 132.314 36.867 131.616 37.1028 131.557C37.7689 131.391 37.8645 131.044 37.5974 129.759C37.0818 127.28 36.7241 126.699 35.7125 126.699C35.1353 126.699 32.6106 127.597 30.2695 128.635C27.2058 129.993 22.1285 132.001 19.0706 133.063C15.0617 134.455 14.2672 134.802 9.61326 137.192C7.46903 138.293 5.44031 139.268 5.10476 139.359C4.39337 139.55 3.93197 140.072 3.6866 140.964C3.46455 141.77 3.46733 141.301 3.51319 171.364L3.5518 196.65L85.045 196.646L166.538 196.643L183.447 181.736C192.747 173.537 200.518 166.669 200.716 166.474L201.077 166.118L200.88 142.935C200.772 130.184 200.642 119.685 200.593 119.605C200.543 119.525 199.809 119.448 198.962 119.434C198.115 119.419 195.233 119.277 192.557 119.117C189.882 118.958 187.648 118.826 187.593 118.825C187.539 118.824 186.207 120.161 184.634 121.796ZM204.087 119.081C203.732 119.436 204.113 120.009 206.243 122.319C207.485 123.666 209.483 125.767 210.683 126.987C212.911 129.253 220.448 136.209 222.837 138.203C225.202 140.177 227.7 141.832 228.315 141.832C228.743 141.832 229.067 141.459 228.896 141.163C228.826 141.042 227.934 140.385 226.915 139.704C224.702 138.225 223.894 137.556 218.963 133.121C214.952 129.514 211.025 125.669 207.392 121.79C206.176 120.492 204.984 119.328 204.744 119.204C204.245 118.946 204.226 118.942 204.087 119.081ZM140.044 121.9C139.478 122.466 139.481 122.596 140.064 123.179C140.488 123.604 140.519 123.697 140.373 124.117C140.15 124.755 140.178 125.465 140.442 125.927C140.563 126.139 140.665 126.654 140.668 127.071C140.673 127.698 141.027 129.275 141.73 131.795C141.799 132.042 141.969 132.199 142.203 132.233C142.903 132.333 143.006 131.605 142.537 129.864C142.377 129.27 142.17 128.588 142.078 128.349C141.985 128.11 141.909 127.538 141.909 127.078C141.909 126.618 141.795 125.958 141.656 125.61C141.449 125.093 141.435 124.872 141.579 124.392C141.8 123.654 141.804 122.95 141.587 122.733C141.467 122.613 141.476 122.477 141.617 122.252C141.776 121.996 141.775 121.891 141.61 121.693C141.281 121.296 140.552 121.392 140.044 121.9ZM95.652 122.236C95.4335 122.589 96.0469 122.856 97.7519 123.148C99.3109 123.416 99.5422 123.424 99.7447 123.222C100.132 122.835 99.6637 122.586 98.0354 122.314C96.2851 122.022 95.7938 122.006 95.652 122.236ZM49.3494 124.872C46.9309 127.317 45.4551 129.345 45.1542 130.637L45.0462 131.1L45.4697 130.714C45.7027 130.501 46.4551 129.598 47.1421 128.706C47.829 127.815 49.179 126.292 50.1421 125.323C51.1052 124.354 51.8682 123.485 51.8379 123.393C51.8075 123.3 51.6247 123.201 51.4315 123.173C51.1574 123.133 50.6999 123.506 49.3494 124.872ZM69.9562 125.299C69.6929 125.791 69.7632 126.006 70.5234 127.031C71.6877 128.602 75.9681 132.876 76.3764 132.876C76.7785 132.876 77.2084 132.499 77.2084 132.147C77.2084 132.013 76.1784 130.854 74.9196 129.571C73.6608 128.289 72.2332 126.736 71.7474 126.12C70.8089 124.93 70.2827 124.689 69.9562 125.299ZM64.4948 125.258C64.2776 125.475 64.4088 126.048 64.8273 126.707C65.0668 127.085 66.4045 128.595 67.7998 130.063C69.1953 131.53 70.9737 133.441 71.7521 134.309C73.3155 136.052 73.7737 136.34 74.2698 135.891C74.4422 135.735 74.5833 135.515 74.5833 135.404C74.5833 135.058 70.7936 130.887 66.0777 126.043C65.2904 125.234 64.7745 124.978 64.4948 125.258ZM75.3571 125.384C74.9442 125.882 75.621 126.919 77.4607 128.609C78.4145 129.485 78.952 129.68 79.3393 129.293C79.7345 128.898 79.4794 128.477 77.8524 126.839C76.1747 125.149 75.755 124.905 75.3571 125.384ZM181.219 126.478C180.783 126.914 180.969 127.342 182.108 128.513C182.934 129.363 183.265 129.484 183.667 129.081C184.106 128.642 183.941 128.223 182.932 127.214C181.914 126.196 181.625 126.072 181.219 126.478ZM124.307 126.695C124.024 127.224 124.521 128.03 126.054 129.532C130.787 134.167 131.445 134.753 131.815 134.66C132.031 134.606 132.215 134.414 132.273 134.181C132.413 133.625 131.785 132.792 130.024 131.196C129.215 130.464 127.745 129.083 126.757 128.127C125.769 127.172 124.85 126.39 124.715 126.39C124.581 126.39 124.397 126.528 124.307 126.695ZM60.6225 126.784C60.4216 126.985 60.4136 127.098 60.573 127.478C60.8043 128.03 63.3267 130.861 66.5516 134.19C67.8691 135.549 69.7346 137.512 70.6973 138.552C72.4369 140.431 72.9829 140.809 73.4272 140.44C74.0853 139.894 73.6037 139.282 67.7118 133.181C66.4378 131.862 64.6347 129.958 63.7048 128.951C62.22 127.343 61.3142 126.547 60.967 126.545C60.9094 126.545 60.7544 126.652 60.6225 126.784ZM51.8853 128.045C50.0683 129.497 47.3906 132.11 46.7309 133.075C46.4284 133.517 45.9995 134.293 45.7776 134.799L45.3742 135.719L46.4142 134.568C48.1919 132.599 50.972 129.915 52.4704 128.721C53.375 128 53.8877 127.486 53.858 127.331C53.7569 126.8 53.1848 127.007 51.8853 128.045ZM116.688 127.111C116.631 127.167 116.585 127.41 116.585 127.649C116.585 127.999 117.101 128.644 119.188 130.905C120.62 132.456 122.711 134.802 123.835 136.118C126.854 139.655 129.061 141.972 129.518 142.087C129.821 142.163 129.984 142.104 130.199 141.838C130.355 141.646 130.482 141.355 130.482 141.192C130.482 140.902 129.432 139.715 129.232 139.779C129.122 139.814 126.738 137.178 124.457 134.497C122.618 132.337 118.193 127.534 117.767 127.235C117.429 126.998 116.865 126.933 116.688 127.111ZM121.371 127.78C121.083 128.319 121.505 128.866 126.084 133.879C129.013 137.087 130.562 138.645 131.299 139.125C131.892 139.51 132.489 139.256 132.489 138.618C132.489 138.266 132.261 137.973 131.353 137.157C130.327 136.234 125.604 131.149 123.327 128.513C122.604 127.676 122.339 127.471 121.982 127.471C121.695 127.471 121.478 127.581 121.371 127.78ZM111.18 127.973C111.18 128.315 112.65 130.452 113.596 131.486C114.101 132.038 115.24 133.393 116.126 134.497C117.982 136.808 122.967 141.954 123.472 142.081C123.949 142.201 124.46 141.888 124.46 141.477C124.46 141.237 123.6 140.264 121.635 138.278C120.081 136.708 117.996 134.405 117.001 133.161C115.123 130.812 114.077 129.749 112.428 128.509C111.419 127.751 111.18 127.648 111.18 127.973ZM87.791 128.926C85.8302 129.721 85.3926 130.111 85.9448 130.569C86.2342 130.809 86.578 130.722 88.8668 129.83C90.3355 129.257 90.411 129.205 90.411 128.774C90.411 128.382 90.3481 128.315 89.9477 128.28C89.6761 128.256 88.784 128.524 87.791 128.926ZM98.0546 129.673C96.6888 130.354 96.3821 130.75 96.8918 131.173C97.0955 131.342 97.3637 131.27 98.5884 130.717C100.096 130.036 100.325 129.816 100.056 129.313C99.8268 128.885 99.5269 128.939 98.0546 129.673ZM177.301 129.355C176.897 129.759 177.114 130.317 178.093 131.394C178.954 132.341 179.11 132.449 179.477 132.357C180.104 132.2 180.183 131.612 179.666 130.935C178.477 129.376 177.759 128.896 177.301 129.355ZM204.747 129.797C204.071 130.472 204.937 130.856 207.26 130.911C208.241 130.935 208.81 130.879 209.063 130.735L209.432 130.525L208.952 130.222C208.688 130.054 208.001 129.859 207.425 129.787C205.041 129.488 205.055 129.488 204.747 129.797ZM108.302 130.02C108.072 130.617 109.753 133.321 112.092 136.118C113.786 138.145 118.807 143.529 119.085 143.617C119.524 143.756 119.982 143.412 119.978 142.946C119.976 142.629 119.556 142.073 118.268 140.674C114.454 136.533 113.626 135.595 112.182 133.774C110.685 131.885 108.755 129.787 108.516 129.787C108.447 129.787 108.351 129.892 108.302 130.02ZM87.5543 131.001C84.824 131.973 84.4659 132.165 84.4659 132.653C84.4659 133.188 84.8455 133.284 85.6849 132.962C86.076 132.812 87.3342 132.36 88.4808 131.959C90.5144 131.247 90.5654 131.218 90.5654 130.778C90.5654 130.388 90.5032 130.323 90.1021 130.293C89.8474 130.274 88.7008 130.593 87.5543 131.001ZM52.9412 132.295C52.2383 132.824 50.7853 134.108 49.7124 135.148C47.7356 137.063 46.8612 138.26 47.1954 138.595C47.3189 138.718 48.0348 138.097 49.8177 136.321C51.1665 134.978 52.6523 133.596 53.1194 133.252C53.5865 132.908 54.2294 132.435 54.5478 132.202C55.2547 131.686 55.3057 131.331 54.6732 131.331C54.3562 131.331 53.8339 131.622 52.9412 132.295ZM204.25 132.478C203.922 132.806 203.918 132.941 204.227 133.251C204.418 133.442 204.833 133.494 206.196 133.494C207.145 133.495 208.547 133.568 209.312 133.656C210.076 133.743 210.96 133.772 211.276 133.719C211.842 133.623 211.847 133.617 211.606 133.25C211.212 132.649 210.084 132.41 207.145 132.306C204.787 132.222 204.488 132.24 204.25 132.478ZM61.4641 132.637C61.157 133.007 61.4148 133.428 62.7198 134.687C63.4034 135.347 64.6034 136.651 65.3863 137.585C67.4768 140.08 69.927 142.592 70.3807 142.706C70.6792 142.781 70.8437 142.72 71.0578 142.456C71.2133 142.263 71.3406 142.043 71.3406 141.965C71.3406 141.887 70.6009 141.043 69.6968 140.09C68.7927 139.137 67.3773 137.558 66.5513 136.582C63.6676 133.171 62.0569 131.922 61.4641 132.637ZM173.749 132.752C173.387 133.115 173.557 133.654 174.28 134.426C175.001 135.196 175.482 135.374 175.85 135.007C176.212 134.644 176.042 134.105 175.319 133.332C174.598 132.562 174.117 132.384 173.749 132.752ZM88.0947 133.28C87.2454 133.574 85.7873 134.048 84.8541 134.333C83.0952 134.871 82.7122 135.139 83.0211 135.616C83.2884 136.029 83.8824 135.929 86.8961 134.96C90.3138 133.861 90.5218 133.759 90.459 133.214C90.3911 132.626 89.9474 132.639 88.0947 133.28ZM99.2127 134.141C98.873 134.32 97.9428 134.738 97.1457 135.07C94.5753 136.14 94.3486 136.27 94.3486 136.67C94.3486 137.444 94.7538 137.385 97.5163 136.211C100.706 134.855 100.834 134.787 100.834 134.445C100.834 133.758 100.174 133.634 99.2127 134.141ZM33.3027 134.214C32.9749 134.542 33.2916 135.241 34.5697 137.01C35.6943 138.566 37.7952 141.129 38.7311 142.086C38.984 142.345 39.5611 142.357 39.8087 142.11C40.2263 141.692 39.9805 141.206 38.4797 139.481C37.6469 138.523 36.5269 137.114 35.9908 136.35C34.7007 134.51 34.3126 134.111 33.8143 134.111C33.5895 134.111 33.3592 134.157 33.3027 134.214ZM55.1006 135.101C53.0691 136.837 51.1804 139.361 51.9128 139.361C52.0249 139.361 53.1509 138.324 54.415 137.057C56.0283 135.439 56.6854 134.68 56.6197 134.509C56.4618 134.097 56.1177 134.231 55.1006 135.101ZM107.659 135.223C107.313 135.569 107.468 136.119 108.121 136.855C108.477 137.257 109.745 138.576 110.937 139.786C112.64 141.513 113.194 141.986 113.514 141.986C113.993 141.986 114.313 141.66 114.242 141.244C114.166 140.801 108.503 135.037 108.144 135.037C107.979 135.037 107.761 135.121 107.659 135.223ZM86.8594 136.176C85.167 136.8 82.9307 137.727 82.1151 138.143C81.6516 138.38 81.5238 138.529 81.5609 138.79C81.6455 139.385 82.3775 139.297 84.3992 138.451C85.4127 138.027 86.8671 137.45 87.6315 137.169C88.9592 136.682 89.0212 136.638 89.0212 136.196C89.0212 135.547 88.5765 135.543 86.8594 136.176ZM169.705 136.194C169.455 136.496 169.595 137.006 170.123 137.708C170.589 138.326 171.151 138.571 171.542 138.326C172.087 137.984 171.827 137.182 170.853 136.209C170.545 135.9 169.955 135.893 169.705 136.194ZM207.999 136.107C204.94 136.193 204.832 136.206 204.787 136.518C204.684 137.238 204.938 137.275 210.146 137.297C212.882 137.309 215.534 137.395 216.183 137.493C218.089 137.781 219.529 137.871 219.629 137.708C219.812 137.412 219.245 136.895 218.49 136.671C216.825 136.176 212.963 135.969 207.999 136.107ZM28.3412 136.421C27.9422 136.862 28.0955 137.222 29.4612 139.052C30.8929 140.971 32.325 142.55 32.7575 142.688C33.1272 142.805 33.663 142.379 33.663 141.967C33.663 141.814 33.2141 141.189 32.6656 140.58C32.1171 139.971 31.2658 138.914 30.774 138.231C29.2315 136.088 28.8793 135.826 28.3412 136.421ZM98.0546 137.03C95.9985 137.849 94.389 138.688 94.2005 139.041C94.079 139.268 94.1 139.399 94.2879 139.587C94.5796 139.879 94.8052 139.825 96.2016 139.13C96.7536 138.855 97.919 138.366 98.7915 138.044C100.065 137.574 100.395 137.389 100.466 137.106C100.681 136.248 100.067 136.228 98.0546 137.03ZM62.0833 137.346C61.7496 137.557 61.8364 138.497 62.2436 139.084C62.438 139.364 63.2221 140.236 63.9862 141.021C65.3654 142.439 65.7976 142.68 66.2139 142.264C66.6563 141.822 66.4108 141.323 65.0481 139.895C64.305 139.116 63.4375 138.191 63.1204 137.839C62.5073 137.159 62.434 137.124 62.0833 137.346ZM55.862 137.567C55.7142 137.68 55.4818 138.042 55.3453 138.373L55.0974 138.975L55.639 138.456C56.3873 137.739 56.5642 137.034 55.862 137.567ZM192.606 138.003C192.176 138.47 191.254 140.011 187.357 146.773C181.487 156.959 180.299 159.313 177.078 167.156C175.952 169.898 174.486 174.046 174.493 174.472C174.495 174.567 174.726 174.089 175.006 173.41C175.286 172.73 176.188 170.924 177.01 169.395C177.833 167.866 179.009 165.504 179.624 164.145C181.211 160.639 183.565 155.902 184.863 153.603C186.76 150.241 191.619 141.836 192.665 140.106C193.706 138.387 193.852 137.781 193.247 137.695C193.071 137.67 192.788 137.806 192.606 138.003ZM23.9317 138.44C23.839 138.614 23.8032 138.881 23.8521 139.035C23.9947 139.484 27.7345 143.067 28.0606 143.067C28.5398 143.067 28.9077 142.704 28.8507 142.287C28.8174 142.044 28.1071 141.234 26.8611 140.017C24.8137 138.019 24.3041 137.744 23.9317 138.44ZM86.9028 138.979C86.3321 139.173 84.6818 139.796 83.2354 140.363C80.8949 141.28 80.6055 141.433 80.6055 141.748C80.6055 141.943 80.7115 142.191 80.8409 142.298C81.0359 142.46 81.4656 142.34 83.3501 141.601C84.6007 141.11 86.2057 140.511 86.9165 140.27C87.6275 140.029 88.3049 139.752 88.4221 139.654C88.7115 139.414 88.6917 138.798 88.3909 138.683C88.0876 138.566 88.1494 138.554 86.9028 138.979ZM166.013 139.554C165.856 139.976 165.922 140.176 166.494 141.02C167.174 142.024 168.16 142.068 168.16 141.094C168.16 140.713 167.583 139.789 167.103 139.4C166.715 139.085 166.158 139.164 166.013 139.554ZM19.9508 139.546C19.5816 139.916 19.787 140.343 20.9622 141.654C22.4202 143.281 22.5209 143.365 23.016 143.371C23.4815 143.377 23.7803 143.119 23.7803 142.712C23.7803 142.551 23.1454 141.731 22.3693 140.89C21.2623 139.691 20.8694 139.361 20.5472 139.361C20.3211 139.361 20.0527 139.444 19.9508 139.546ZM209.852 139.661C208.79 139.708 207.835 139.803 207.729 139.872C207.623 139.941 207.536 140.129 207.536 140.291C207.536 140.877 208.007 140.938 211.598 140.82C214.382 140.728 215.128 140.655 215.634 140.428L216.255 140.15L215.563 139.836C214.819 139.499 214.019 139.475 209.852 139.661ZM106.184 140.056C105.764 140.475 105.864 141.038 106.411 141.337C106.675 141.482 107.163 141.822 107.495 142.093C108.301 142.75 108.661 142.85 109.029 142.517C109.465 142.123 109.398 141.807 108.748 141.192C107.499 140.011 106.618 139.621 106.184 140.056ZM97.2053 140.893C93.2595 142.637 93.0072 142.799 93.4335 143.312C93.7235 143.662 94.3731 143.497 96.4835 142.539C97.4751 142.089 98.6128 141.598 99.0121 141.449C99.904 141.116 100.28 140.733 100.143 140.299C99.9845 139.8 99.4212 139.914 97.2053 140.893ZM180.704 140.326C180.018 141.177 175.644 150.859 173.327 156.656C170.79 163.001 170.453 164.184 171.229 164.035C171.629 163.958 172.197 162.755 174.203 157.737C176.128 152.921 178.137 148.353 180.464 143.5C181.833 140.644 181.947 140.133 181.216 140.133C181.02 140.133 180.789 140.22 180.704 140.326ZM16.793 140.609C16.2979 140.897 16.4727 141.541 17.2825 142.411C18.0884 143.277 18.4758 143.399 18.9062 142.924C19.2695 142.522 19.1319 142.169 18.2448 141.224C17.4961 140.426 17.2703 140.331 16.793 140.609ZM13.4689 141.609C13.0066 141.933 13.0367 142.268 13.5963 143.029C14.1633 143.8 14.5788 143.969 14.9897 143.597C15.4386 143.191 15.3514 142.724 14.6936 142.012C14.0297 141.293 13.955 141.268 13.4689 141.609ZM193.43 146.465C191.696 148.526 186.345 160.394 183.997 167.388C183.209 169.734 182.046 173.682 182.121 173.757C182.146 173.782 182.325 173.367 182.519 172.835C182.712 172.302 183.356 170.893 183.951 169.704C184.546 168.515 185.848 165.562 186.846 163.141C190.134 155.164 192.484 150.145 194.003 147.858C194.587 146.978 194.695 146.501 194.379 146.186C194.088 145.895 193.851 145.965 193.43 146.465ZM166.389 148.491C165.845 150.299 165.552 155.78 165.381 167.388C165.305 172.568 165.17 178.961 165.082 181.594C164.994 184.227 164.889 188.398 164.85 190.864C164.771 195.737 164.82 196.109 165.539 196.109C165.918 196.109 165.921 196.098 166.015 194.256C166.068 193.237 166.12 190.647 166.131 188.501C166.143 186.354 166.223 182.88 166.31 180.78C166.396 178.68 166.535 172.584 166.619 167.233C166.703 161.883 166.846 156.532 166.938 155.343C167.146 152.64 167.074 148.097 166.82 147.842C166.681 147.704 166.58 147.856 166.389 148.491ZM159.319 148.489C159.086 148.664 158.895 148.871 158.895 148.951C158.895 149.134 159.634 148.967 160.096 148.678C160.29 148.557 160.408 148.392 160.357 148.31C160.211 148.073 159.777 148.148 159.319 148.489ZM160.476 151.026C160.15 151.255 158.74 153.116 158.74 153.319C158.74 153.481 160.509 152.538 161.033 152.096C161.559 151.654 161.682 151.038 161.275 150.882C160.926 150.748 160.856 150.76 160.476 151.026ZM198.194 151.889C197.766 152.102 197.547 152.426 195.943 155.215C193.469 159.513 191.228 164.398 190.179 167.774C189.622 169.567 188.788 173.167 188.904 173.282C188.938 173.317 189.086 172.98 189.232 172.533C189.587 171.447 193.084 163.49 194.48 160.593C195.093 159.319 196.243 157.165 197.034 155.806C199.071 152.308 199.057 152.338 198.877 152.002C198.705 151.68 198.635 151.669 198.194 151.889ZM160.902 155.379C160.775 155.428 159.523 156.517 158.12 157.799C156.717 159.081 155.293 160.359 154.954 160.639C154.218 161.248 154.454 161.171 156.407 160.165C159.387 158.631 161.809 156.397 161.465 155.5C161.37 155.254 161.28 155.234 160.902 155.379ZM151.714 163.064C151.459 163.181 150.857 163.448 150.375 163.658C149.187 164.176 141.703 168.628 138.28 170.852C136.751 171.846 133.689 173.782 131.475 175.156C127.265 177.767 126.182 178.554 126.373 178.864C126.568 179.179 127.032 179.067 128.352 178.384C129.788 177.642 135.638 174.038 139.374 171.594C140.726 170.71 143.291 169.129 145.074 168.081C149.501 165.48 150.663 164.689 151.531 163.689C151.94 163.218 152.252 162.837 152.226 162.842C152.199 162.848 151.969 162.948 151.714 163.064ZM154.634 168.142C153.641 168.992 149.44 171.693 143.993 174.983C137.881 178.676 134.209 180.985 128.243 184.887C125.78 186.498 123.143 188.223 122.382 188.72C121.042 189.596 119.431 191.241 119.795 191.363C120.173 191.489 123.753 189.334 130.173 185.116C135.631 181.531 138.276 179.868 144.457 176.139C149.83 172.897 154.094 170.167 155.009 169.381C155.76 168.738 155.992 168.29 155.783 167.889C155.577 167.497 155.321 167.554 154.634 168.142ZM158.432 171.14C158.22 171.284 157.418 171.889 156.651 172.483C154.179 174.398 137.242 185.648 133.146 188.096C131.285 189.209 130.945 189.469 130.945 189.785C130.945 190.055 131.053 190.185 131.335 190.256C131.857 190.387 133.869 189.183 141.368 184.249C158.188 173.185 158.895 172.667 158.895 171.402C158.895 171.105 158.877 170.866 158.856 170.87C158.835 170.875 158.644 170.996 158.432 171.14ZM156.424 178.917C156.212 178.996 155.656 179.429 155.189 179.88C153.612 181.399 148.931 185.105 144.688 188.193C143.457 189.089 142.189 190.076 141.87 190.387C140.965 191.269 141.191 191.973 142.203 191.427C143.072 190.958 148.554 186.891 151.708 184.376C155.522 181.334 157.042 179.894 157.042 179.32C157.042 178.814 156.918 178.733 156.424 178.917ZM118.719 182.793C116.436 184.181 113.54 185.76 109.535 187.801C106.974 189.106 104.839 190.276 104.791 190.401C104.673 190.709 104.82 191.047 105.125 191.164C105.707 191.387 118.127 184.859 119.393 183.664C120.462 182.656 119.977 182.029 118.719 182.793ZM158.844 184.575C156.892 186.091 156.103 186.64 153.961 187.97C151.352 189.591 149.088 191.235 147.798 192.446C147.178 193.028 146.991 193.305 147.03 193.581C147.133 194.31 147.664 194.117 149.27 192.767C150.626 191.627 152.534 190.317 156.631 187.715C158.995 186.213 160.108 185.131 159.886 184.551C159.729 184.142 159.392 184.15 158.844 184.575ZM104.491 186.526C101.402 188.165 98.188 190.396 97.8943 191.105C97.4784 192.109 98.2371 192.112 99.4996 191.111C100.608 190.232 101.594 189.593 103.969 188.213C106.111 186.968 106.495 186.534 105.787 186.155C105.552 186.029 105.281 186.107 104.491 186.526ZM95.3954 188.916C94.9573 189.195 94.6281 189.532 94.5702 189.763C94.3463 190.655 95.0371 190.71 96.1244 189.887C97.5532 188.804 96.913 187.952 95.3954 188.916ZM159.281 188.946C158.941 189.205 157.604 190.144 156.311 191.032C155.017 191.919 153.888 192.777 153.802 192.938C153.581 193.35 153.767 193.716 154.198 193.716C154.664 193.716 160.42 189.757 160.633 189.29C161.035 188.406 160.249 188.206 159.281 188.946ZM88.5371 189.56C87.7856 189.778 86.5563 190.665 86.5046 191.027C86.4368 191.501 86.8569 191.798 87.2887 191.582C88.4536 190.999 90.6426 189.615 90.6426 189.462C90.6426 189.339 89.0401 189.414 88.5371 189.56ZM159.786 192.858C158.964 193.486 158.748 193.944 159.105 194.301C159.403 194.599 159.826 194.437 160.659 193.704C161.086 193.33 161.215 193.106 161.18 192.805C161.111 192.205 160.617 192.224 159.786 192.858Z" fill="#6F4524"/>
</svg>
