<svg width="1280" height="1073" viewBox="0 0 1280 1073" fill="none" xmlns="http://www.w3.org/2000/svg">
<path d="M865 471C888.1 471.33 911.2 471.66 935 472C937 478 937 478 937 482C948.88 482 960.76 482 973 482C973 481.67 973 481.34 973 481C982.57 479.84 992.07 479.88 1001.69 479.94C1003.28 479.94 1004.86 479.95 1006.45 479.95C1010.3 479.96 1014.15 479.98 1018 480C1018 479.34 1018 478.68 1018 478C1034.2 477.9 1050.4 477.87 1066.6 478.32C1067.98 478.36 1069.37 478.39 1070.75 478.42C1072.69 478.47 1074.63 478.53 1076.57 478.59C1077.67 478.62 1078.77 478.65 1079.91 478.68C1083 479 1083 479 1086.28 480.12C1087.63 480.55 1087.63 480.55 1089 481C1090.34 480.01 1091.67 479.01 1093 478C1096.22 478.23 1099 478.59 1102 479.81C1104.98 480.09 1106.7 478.44 1109.16 476.93C1113.64 474.66 1118.28 476.05 1122.94 477.06C1128.62 478.2 1133.88 477.89 1139.61 477.37C1142.8 477.08 1144.92 476.97 1148 478C1149.89 478.07 1151.79 478.08 1153.69 478.06C1154.68 478.05 1155.68 478.04 1156.7 478.04C1157.46 478.02 1158.22 478.01 1159 478C1159 477.67 1159 477.34 1159 477C1161.02 477.03 1163.04 477.07 1165.05 477.1C1167.08 477.13 1167.08 477.13 1169 476C1171.21 476.09 1173.42 476.24 1175.62 476.44C1176.81 476.54 1178 476.64 1179.23 476.75C1180.6 476.87 1180.6 476.87 1182 477C1182 477.66 1182 478.32 1182 479C1183.73 479.2 1185.46 479.38 1187.19 479.56C1188.15 479.67 1189.11 479.77 1190.11 479.88C1193.63 480.03 1196.61 479.35 1200 478.5C1208.03 476.49 1208.03 476.49 1212 477C1213.98 479.08 1213.98 479.08 1215.75 481.81C1216.64 483.15 1216.64 483.15 1217.55 484.52C1219 487 1219 487 1220 490C1223.34 491.19 1223.34 491.19 1227 492C1228.14 492.31 1228.14 492.31 1229.31 492.62C1231.04 493.07 1231.04 493.07 1233 493C1233 493.66 1233 494.32 1233 495C1233.55 494.67 1234.1 494.35 1234.67 494.01C1238.84 492.2 1243.23 492.81 1247.71 492.94C1250.43 493.01 1253.15 493.03 1255.86 493.05C1257.95 493.1 1260.04 493.14 1262.12 493.19C1263.15 493.19 1264.17 493.2 1265.22 493.2C1267.9 493.29 1270.38 493.41 1273 494C1275.04 496.28 1275.04 496.28 1276 499C1276.39 499.74 1276.77 500.48 1277.17 501.24C1277.5 501.92 1277.84 502.61 1278.19 503.31C1278.53 504.01 1278.88 504.71 1279.23 505.43C1279.48 505.95 1279.74 506.46 1280 507C1249.38 522.31 1191.26 512.08 1156.91 512.28C1156.1 512.29 1155.3 512.29 1154.46 512.3C1140.27 512.38 1126.08 512.45 1111.89 512.53C1102.6 512.57 1093.3 512.62 1084.01 512.68C1079.28 512.71 1074.54 512.73 1069.81 512.75C1066.9 512.76 1063.99 512.78 1061.08 512.8C1059.08 512.81 1057.09 512.82 1055.1 512.82C1053.33 512.84 1053.33 512.84 1051.53 512.85C1050.5 512.85 1049.48 512.86 1048.42 512.86C1045.99 512.84 1045.99 512.84 1044 514C1042.2 514.11 1040.4 514.16 1038.59 514.17C1037.45 514.19 1036.3 514.2 1035.12 514.21C1033.85 514.23 1032.59 514.24 1031.29 514.25C1029.95 514.26 1028.61 514.28 1027.27 514.29C1024.38 514.33 1021.49 514.36 1018.61 514.39C1010.91 514.47 1003.21 514.57 995.51 514.68C994.72 514.69 993.92 514.71 993.11 514.72C975.6 514.97 958.1 515.41 940.6 515.93C938.37 516 936.14 516.06 933.91 516.13C929.76 516.24 925.61 516.37 921.46 516.5C920.22 516.54 918.98 516.57 917.7 516.61C916.58 516.64 915.46 516.68 914.3 516.72C913.32 516.75 912.34 516.78 911.33 516.81C908.98 516.86 908.98 516.86 907 518C905.44 518.14 903.87 518.23 902.31 518.28C901.33 518.32 900.36 518.35 899.35 518.39C898.3 518.43 897.24 518.46 896.16 518.5C894.54 518.56 894.54 518.56 892.88 518.62C888.25 518.8 883.61 518.96 878.98 519.12C875.6 519.25 872.22 519.37 868.84 519.5C867.79 519.54 866.73 519.57 865.65 519.61C864.67 519.64 863.7 519.68 862.69 519.72C861.83 519.75 860.97 519.78 860.09 519.81C857.94 519.88 857.94 519.88 856 521C853.8 521.17 851.59 521.29 849.38 521.37C848.7 521.4 848.02 521.43 847.32 521.46C845.84 521.52 844.36 521.57 842.89 521.63C840.55 521.72 838.21 521.81 835.88 521.91C830.08 522.15 824.27 522.37 818.47 522.6C813.57 522.79 808.67 522.99 803.76 523.19C801.46 523.28 799.15 523.37 796.85 523.45C795.44 523.51 794.03 523.57 792.62 523.63C791.39 523.68 790.15 523.72 788.88 523.77C786.06 523.81 786.06 523.81 784 525C781.85 525.17 779.7 525.29 777.55 525.37C776.88 525.4 776.22 525.43 775.54 525.46C774.1 525.52 772.66 525.57 771.23 525.63C768.95 525.72 766.68 525.81 764.41 525.91C758.76 526.15 753.12 526.37 747.47 526.6C742.7 526.79 737.93 526.99 733.17 527.19C730.92 527.28 728.68 527.37 726.43 527.45C725.06 527.51 723.69 527.57 722.32 527.63C721.12 527.68 719.92 527.72 718.69 527.77C716.08 527.7 716.08 527.7 715 529C713.08 529.18 711.15 529.29 709.23 529.37C707.99 529.43 706.76 529.49 705.49 529.55C704.82 529.57 704.16 529.6 703.47 529.63C701.4 529.72 699.33 529.81 697.26 529.91C692.86 530.11 688.46 530.31 684.06 530.5C678.97 530.72 673.88 530.95 668.79 531.19C666.74 531.28 664.7 531.37 662.65 531.45C661.42 531.51 660.18 531.57 658.9 531.63C657.26 531.7 657.26 531.7 655.59 531.77C653.02 531.84 653.02 531.84 651 533C648.26 533.21 645.53 533.38 642.78 533.5C641.97 533.54 641.15 533.58 640.32 533.62C636.83 533.8 633.34 533.96 629.85 534.12C627.31 534.25 624.76 534.37 622.22 534.5C621.03 534.55 621.03 534.55 619.82 534.61C615.78 534.73 615.78 534.73 612 536C610.16 536.17 608.32 536.29 606.48 536.37C604.75 536.46 604.75 536.46 602.98 536.55C601.73 536.6 600.48 536.66 599.19 536.72C597.23 536.81 595.28 536.91 593.32 537.01C589.18 537.21 585.05 537.4 580.91 537.6C577.5 537.76 574.1 537.92 570.69 538.09C568.13 538.22 565.58 538.34 563.02 538.45C561.29 538.54 561.29 538.54 559.52 538.63C558.5 538.68 557.48 538.72 556.43 538.77C553.99 538.85 553.99 538.85 552 540C550.23 540.17 548.44 540.29 546.66 540.37C545.55 540.43 544.43 540.49 543.29 540.55C541.47 540.63 541.47 540.63 539.62 540.72C538.39 540.78 537.15 540.84 535.88 540.91C531.25 541.14 526.61 541.37 521.98 541.6C517.44 541.82 512.91 542.05 508.38 542.28C507.17 542.34 505.96 542.4 504.71 542.45C503.04 542.54 503.04 542.54 501.34 542.63C500.35 542.68 499.37 542.72 498.35 542.77C495.98 542.86 495.98 542.86 494 544C492.38 544.17 490.75 544.29 489.12 544.37C487.6 544.46 487.6 544.46 486.05 544.55C484.95 544.6 483.85 544.66 482.72 544.72C481.03 544.81 481.03 544.81 479.31 544.91C474.48 545.18 469.66 545.44 464.83 545.7C461.31 545.89 457.8 546.08 454.28 546.28C453.18 546.34 452.08 546.4 450.95 546.45C449.43 546.54 449.43 546.54 447.88 546.63C446.98 546.68 446.09 546.72 445.16 546.77C442.95 546.88 442.95 546.88 441 548C438.84 548.21 436.67 548.37 434.5 548.5C433.2 548.58 431.9 548.66 430.56 548.75C428.49 548.88 426.43 549 424.36 549.12C422.36 549.25 420.37 549.37 418.37 549.5C416.58 549.61 416.58 549.61 414.74 549.72C412.09 549.7 412.09 549.7 411 551C408.44 551.29 405.89 551.52 403.32 551.72C402.16 551.81 402.16 551.81 400.98 551.91C398.51 552.11 396.04 552.31 393.56 552.5C390.31 552.76 387.06 553.02 383.82 553.28C383.06 553.34 382.31 553.4 381.54 553.45C377.64 553.72 377.64 553.72 374 555C371.7 555.28 369.4 555.51 367.09 555.72C366.07 555.81 366.07 555.81 365.03 555.91C362.12 556.18 359.2 556.44 356.29 556.7C354.16 556.89 352.03 557.09 349.91 557.28C348.63 557.4 347.36 557.51 346.04 557.63C343.09 557.82 343.09 557.82 341 559C338.87 559.27 336.73 559.49 334.59 559.68C332.64 559.87 332.64 559.87 330.65 560.06C328.59 560.25 326.52 560.44 324.46 560.62C317.23 561.28 310.13 562.03 303.03 563.58C300.5 564.1 298.01 564.34 295.44 564.5C289.49 564.98 283.93 566.17 278.2 567.8C268.55 570.45 259.83 570.53 250 569C249.67 569.33 249.34 569.66 249 570C246.31 570.52 243.64 570.99 240.94 571.44C236.59 572.15 232.31 572.88 228.06 574.05C223.44 575.25 218.81 575.49 214.06 575.81C204.21 576.6 195.33 578.81 186 582C185.01 582.33 184.02 582.66 183 583C183.33 580.36 183.66 577.72 184 575C183.11 575.5 182.23 575.99 181.31 576.5C178.12 577.94 176.42 578.3 173 578C173 580.31 173 582.62 173 585C172.32 585.19 171.65 585.39 170.95 585.59C169.62 585.98 169.62 585.98 168.25 586.38C166.93 586.76 166.93 586.76 165.58 587.15C163.24 587.92 161.17 588.84 159 590C159.02 589.07 159.04 588.14 159.06 587.19C159.16 583.98 159.16 583.98 158 581C156.02 583.97 154.04 586.94 152 590C150.35 589.67 148.7 589.34 147 589C147 588.34 147 587.68 147 587C145.82 586.54 145.82 586.54 144.62 586.06C142 585 142 585 140 584C140 583.34 140 582.68 140 582C140.66 582 141.32 582 142 582C142.33 581.01 142.66 580.02 143 579C144.67 578.33 146.33 577.67 148 577C148.33 576.01 148.66 575.02 149 574C139.87 571.87 126.8 569.6 118 574C115.33 574.28 112.68 574.52 110 574.72C108.81 574.81 108.81 574.81 107.6 574.91C104.21 575.18 100.82 575.44 97.42 575.7C94.95 575.89 92.47 576.08 90 576.28C89.23 576.34 88.46 576.4 87.66 576.45C83.7 576.71 83.7 576.71 80 578C76.2 578.37 72.38 578.47 68.56 578.62C67.52 578.68 66.48 578.73 65.4 578.78C46.7 579.57 46.7 579.57 41 575C38.3 575.18 36.75 576.15 34.42 577.54C30.13 579.37 26.72 579.34 22.12 579.19C20.95 579.17 20.95 579.17 19.75 579.15C17.83 579.11 15.92 579.06 14 579C13 576 13 576 14 573C13.01 572.67 12.02 572.34 11 572C11.66 570.35 12.32 568.7 13 567C13.72 567.01 14.45 567.02 15.2 567.04C20.25 567.08 25.03 567.07 30 566C30 565.67 30 565.34 30 565C34.62 565 39.24 565 44 565C44 564.67 44 564.34 44 564C47.63 564.33 51.26 564.66 55 565C55 564.34 55 563.68 55 563C56.09 563.04 57.19 563.08 58.31 563.12C62.09 563.32 62.09 563.32 65 561C68.19 560.88 68.19 560.88 71 561C71 560.67 71 560.34 71 560C73.31 560 75.62 560 78 560C78 559.67 78 559.34 78 559C78.6 558.94 79.21 558.88 79.83 558.82C80.63 558.73 81.43 558.65 82.25 558.56C83.04 558.48 83.83 558.4 84.64 558.32C87.87 557.88 90.74 557.09 93.81 556C97.21 554.93 100.48 554.47 104 554C104.99 553.67 105.98 553.34 107 553C108.33 552.8 109.66 552.64 111 552.5C111.79 552.42 112.58 552.34 113.39 552.25C117.09 551.9 120.81 551.58 124.52 551.28C126.76 551.03 128.83 550.61 131 550C130.67 548.35 130.34 546.7 130 545C118.58 544.86 107.22 545.21 95.81 545.8C93.08 545.94 90.35 546.07 87.61 546.2C85.87 546.29 84.13 546.38 82.38 546.46C81.16 546.52 81.16 546.52 79.91 546.58C75.82 546.72 75.82 546.72 72 548C69.12 548.07 66.26 548.09 63.38 548.06C62.57 548.06 61.77 548.05 60.95 548.05C58.96 548.04 56.98 548.02 55 548C54.38 546.2 54.38 546.2 54 544C56.45 540.17 57.96 538.46 62.12 536.62C66.35 535.94 70.28 535.93 74.55 536.12C77.26 536.2 77.26 536.2 80 534C81.67 533.96 83.33 533.96 85 534C87.2 533.7 87.2 533.7 89 533C89.5 532.01 89.5 532.01 90 531C94.91 529.5 98.87 529 104 529C104.99 528.01 104.99 528.01 106 527C109.62 526.88 109.62 526.88 113 527C113 526.67 113 526.34 113 526C116.57 525.17 119.78 524.92 123.44 525C127.42 525.04 131.09 524.84 135 524C135 523.67 135 523.34 135 523C139.62 523 144.24 523 149 523C149 522.67 149 522.34 149 522C150.29 522.02 151.58 522.04 152.9 522.06C157.84 522.06 162.66 521.6 167.56 521C168.79 520.86 168.79 520.86 170.04 520.71C172.03 520.48 174.01 520.24 176 520C176 519.67 176 519.34 176 519C182.93 519.5 182.93 519.5 190 520C190 519.34 190 518.68 190 518C190.57 518.01 191.14 518.02 191.72 518.04C196.61 518.09 201.19 517.82 206 517C206 516.67 206 516.34 206 516C210.62 516 215.24 516 220 516C220 515.67 220 515.34 220 515C222.97 515 225.94 515 229 515C229 514.67 229 514.34 229 514C229.87 514.01 230.74 514.02 231.63 514.04C232.79 514.04 233.94 514.05 235.12 514.06C236.26 514.07 237.4 514.09 238.57 514.1C241.81 514.01 244.82 513.61 248 513C248 512.67 248 512.34 248 512C254.93 512 261.86 512 269 512C269 511.67 269 511.34 269 511C273.95 511.33 278.9 511.66 284 512C284 511.34 284 510.68 284 510C290.27 509.67 296.54 509.34 303 509C303 508.67 303 508.34 303 508C313.23 508 323.46 508 334 508C334 507.67 334 507.34 334 507C335.09 507.02 335.09 507.02 336.21 507.04C343.03 507.09 349.82 506.95 356.62 506.62C357.41 506.59 358.19 506.56 358.99 506.53C362.78 506.33 364.78 506.15 368 504C370.61 503.83 373.12 503.77 375.73 503.8C376.48 503.81 377.23 503.81 378 503.81C380.4 503.82 382.79 503.85 385.19 503.88C386.81 503.89 388.44 503.89 390.06 503.9C394.04 503.92 398.02 503.96 402 504C402 503.67 402 503.34 402 503C402.85 503.01 403.69 503.02 404.56 503.04C410.82 503.08 416.82 502.97 423 502C423 501.67 423 501.34 423 501C426.63 501 430.26 501 434 501C434 500.67 434 500.34 434 500C435.38 500.01 435.38 500.01 436.78 500.02C440.2 500.03 443.61 500.05 447.02 500.05C448.5 500.06 449.98 500.07 451.45 500.08C453.58 500.09 455.7 500.09 457.83 500.1C459.11 500.1 460.38 500.11 461.7 500.11C464.39 500.02 466.45 499.74 469 499C470.94 498.98 472.88 499.01 474.81 499.06C485.25 499.16 495.62 498.01 506 497C506 496.67 506 496.34 506 496C521.74 495.82 521.74 495.82 529 497C529 496.34 529 495.68 529 495C536.68 494.33 544.28 493.84 552 494C552 493.67 552 493.34 552 493C559.59 493 567.18 493 575 493C575 492.67 575 492.34 575 492C578.63 492 582.26 492 586 492C586 491.67 586 491.34 586 491C605.34 489.81 605.34 489.81 615 490C615 489.67 615 489.34 615 489C621.27 489 627.54 489 634 489C634 488.67 634 488.34 634 488C640.6 488 647.2 488 654 488C654.33 487.34 654.66 486.68 655 486C666.88 486 678.76 486 691 486C691 485.67 691 485.34 691 485C696.28 485 701.56 485 707 485C707 484.67 707 484.34 707 484C707.95 484.01 708.91 484.02 709.89 484.04C711.14 484.04 712.4 484.05 713.69 484.06C715.55 484.08 715.55 484.08 717.45 484.1C720.46 484.01 723.08 483.71 726 483C726 482.67 726 482.34 726 482C730.62 482 735.24 482 740 482C740 481.67 740 481.34 740 481C740.71 481.01 741.42 481.02 742.15 481.04C743.07 481.04 743.99 481.05 744.94 481.06C746.31 481.08 746.31 481.08 747.71 481.1C749.97 481.26 749.97 481.26 751 480C753.35 479.76 755.71 479.59 758.06 479.44C759.35 479.35 760.64 479.27 761.97 479.18C762.97 479.12 763.97 479.06 765 479C765 478.67 765 478.34 765 478C769.29 478 773.58 478 778 478C778 477.67 778 477.34 778 477C784.52 476.13 790.88 475.95 797.44 476C807.32 476.07 817.14 475.62 827 475C827 474.67 827 474.34 827 474C831.63 474.12 836.25 474.24 840.88 474.37C842.45 474.42 844.03 474.46 845.6 474.5C847.86 474.56 850.13 474.62 852.39 474.68C853.09 474.7 853.79 474.72 854.52 474.73C857.8 474.83 860.85 475.01 864 476C864.33 474.35 864.66 472.7 865 471ZM788 477C788 477.33 788 477.66 788 478C789.98 478 791.96 478 794 478C794 477.67 794 477.34 794 477C792.02 477 790.04 477 788 477ZM1131 479C1131 479.33 1131 479.66 1131 480C1133.97 480 1136.94 480 1140 480C1140 479.67 1140 479.34 1140 479C1137.03 479 1134.06 479 1131 479ZM984 481C984 481.33 984 481.66 984 482C989.28 482 994.56 482 1000 482C1000 481.67 1000 481.34 1000 481C994.72 481 989.44 481 984 481ZM154 573C154.33 574.32 154.66 575.64 155 577C156.05 576.69 157.1 576.38 158.19 576.06C162 575 162 575 164.69 574.62C167.68 573.82 169 572.3 171 570C164.54 569.6 159.94 570.41 154 573ZM171 571C171 571.66 171 572.32 171 573C172.65 573 174.3 573 176 573C175.34 572.34 174.68 571.68 174 571C173.01 571 172.02 571 171 571ZM150 575C151 577 151 577 151 577L150 575Z" fill="#F3ECD2"/>
<path d="M1099 538C1141.57 538 1184.14 538 1228 538C1228 538.33 1228 538.66 1228 539C1229.11 538.97 1229.11 538.97 1230.24 538.93C1248.31 538.61 1248.31 538.61 1252.8 542.6C1255.82 546.87 1256.54 550.86 1256.47 556.02C1255.88 558.49 1255 559.46 1253 561C1249.96 560.71 1248.61 559.74 1246 558C1239.25 558.34 1231.45 561.04 1226.19 565.25C1224 567 1224 567 1221.06 567.44C1218 567 1218 567 1215.19 565.38C1210.68 563.43 1207.51 564.34 1203 566C1201.81 566.66 1200.62 567.33 1199.43 568C1194.82 570.31 1190.64 570.75 1185.54 571.01C1184.67 571.07 1183.8 571.13 1182.9 571.19C1180.14 571.37 1177.38 571.53 1174.62 571.69C1171.85 571.86 1169.07 572.04 1166.29 572.22C1164.57 572.33 1162.84 572.43 1161.12 572.53C1156.93 572.69 1156.93 572.69 1153 574C1150.83 574.17 1148.65 574.29 1146.47 574.37C1145.8 574.4 1145.13 574.43 1144.44 574.46C1142.98 574.52 1141.53 574.57 1140.07 574.63C1137.77 574.72 1135.47 574.81 1133.16 574.91C1127.44 575.15 1121.73 575.37 1116.01 575.6C1111.17 575.79 1106.34 575.99 1101.51 576.19C1099.24 576.28 1096.97 576.37 1094.7 576.45C1093.31 576.51 1091.92 576.57 1090.53 576.63C1088.71 576.7 1088.71 576.7 1086.85 576.77C1084.05 576.82 1084.05 576.82 1082 578C1079.11 578.29 1076.24 578.52 1073.34 578.72C1072.49 578.78 1071.63 578.84 1070.74 578.91C1067.06 579.18 1063.38 579.44 1059.7 579.7C1057.02 579.89 1054.34 580.08 1051.66 580.28C1050.82 580.34 1049.98 580.4 1049.12 580.45C1044.93 580.67 1044.93 580.67 1041 582C1039.14 582.21 1037.27 582.37 1035.41 582.5C1034.29 582.58 1033.18 582.66 1032.04 582.75C1029.68 582.92 1027.32 583.08 1024.96 583.25C1023.85 583.33 1022.74 583.41 1021.59 583.5C1020.06 583.61 1020.06 583.61 1018.49 583.72C1016 583.86 1016 583.86 1014 585C1011.04 585.29 1008.09 585.52 1005.12 585.72C1004.24 585.78 1003.36 585.84 1002.46 585.91C998.68 586.18 994.91 586.44 991.13 586.7C988.38 586.89 985.63 587.08 982.88 587.28C982.02 587.34 981.16 587.4 980.27 587.45C976 587.66 976 587.66 972 589C969.04 589.29 966.09 589.52 963.12 589.72C962.24 589.78 961.36 589.84 960.46 589.91C956.68 590.18 952.91 590.44 949.13 590.7C946.38 590.89 943.63 591.08 940.88 591.28C940.02 591.34 939.16 591.4 938.27 591.45C934 591.66 934 591.66 930 593C926.95 593.29 923.92 593.52 920.87 593.72C919.97 593.78 919.06 593.84 918.13 593.91C914.25 594.18 910.37 594.44 906.48 594.7C903.65 594.89 900.82 595.08 898 595.28C897.11 595.34 896.23 595.4 895.31 595.45C891.33 595.36 891.33 595.36 888 597C885.88 597.22 883.76 597.37 881.63 597.5C880.33 597.58 879.04 597.66 877.7 597.75C876.32 597.83 874.94 597.92 873.56 598C870.88 598.16 868.19 598.33 865.5 598.5C864.31 598.57 863.11 598.64 861.87 598.72C859.06 598.82 859.06 598.82 857 600C855.35 600.17 853.69 600.29 852.03 600.37C851 600.43 849.96 600.49 848.9 600.55C847.78 600.6 846.65 600.66 845.5 600.72C844.35 600.78 843.21 600.84 842.03 600.91C837.1 601.18 832.18 601.44 827.26 601.7C823.67 601.89 820.09 602.08 816.5 602.28C815.38 602.34 814.26 602.4 813.1 602.45C812.07 602.51 811.03 602.57 809.97 602.63C809.06 602.68 808.14 602.72 807.2 602.77C804.96 602.87 804.96 602.87 803 604C801.41 604.17 799.81 604.29 798.21 604.37C796.72 604.46 796.72 604.46 795.2 604.55C794.12 604.6 793.05 604.66 791.94 604.72C790.28 604.81 790.28 604.81 788.6 604.91C783.87 605.18 779.13 605.44 774.4 605.7C770.96 605.89 767.51 606.08 764.06 606.28C762.99 606.34 761.91 606.4 760.8 606.45C759.31 606.54 759.31 606.54 757.79 606.63C756.91 606.68 756.03 606.72 755.13 606.77C752.95 606.88 752.95 606.88 751 608C748.04 608.29 745.09 608.52 742.12 608.72C740.8 608.81 740.8 608.81 739.46 608.91C735.68 609.18 731.91 609.44 728.13 609.7C725.38 609.89 722.63 610.08 719.88 610.28C718.59 610.37 718.59 610.37 717.27 610.45C713 610.66 713 610.66 709 612C707.06 612.21 705.1 612.37 703.15 612.5C701.99 612.58 700.83 612.66 699.63 612.75C697.16 612.92 694.7 613.08 692.23 613.25C691.07 613.33 689.91 613.41 688.71 613.5C687.64 613.57 686.57 613.64 685.47 613.72C683.06 613.73 683.06 613.73 682 615C680.48 615.18 678.95 615.29 677.42 615.37C676.45 615.43 675.47 615.49 674.47 615.55C673.41 615.6 672.35 615.66 671.25 615.72C670.17 615.78 669.09 615.84 667.98 615.91C664.51 616.11 661.03 616.31 657.56 616.5C653 616.76 648.44 617.02 643.88 617.28C642.29 617.37 642.29 617.37 640.67 617.45C639.69 617.51 638.72 617.57 637.71 617.63C636.85 617.68 635.98 617.72 635.09 617.77C632.94 617.88 632.94 617.88 631 619C628.23 619.18 625.48 619.3 622.71 619.37C621.43 619.41 621.43 619.41 620.11 619.46C618.25 619.52 616.39 619.57 614.52 619.63C611.58 619.72 608.63 619.81 605.69 619.91C598.37 620.15 591.06 620.37 583.75 620.6C577.57 620.79 571.39 620.99 565.21 621.19C562.3 621.28 559.39 621.37 556.48 621.45C554.71 621.51 552.93 621.57 551.16 621.63C550.34 621.65 549.53 621.67 548.69 621.7C545.04 621.49 545.04 621.49 542 623C539.4 623.18 536.81 623.3 534.21 623.37C533.39 623.4 532.57 623.43 531.73 623.46C529.96 623.52 528.18 623.57 526.4 623.63C523.59 623.72 520.78 623.81 517.97 623.91C512 624.11 506.03 624.31 500.06 624.5C493.15 624.72 486.24 624.95 479.33 625.19C476.56 625.28 473.78 625.37 471.01 625.45C469.31 625.51 467.62 625.57 465.92 625.63C465.15 625.65 464.37 625.67 463.57 625.7C459.66 625.77 459.66 625.77 456 627C454.59 627.14 453.17 627.23 451.75 627.28C450.87 627.32 449.99 627.35 449.09 627.39C448.14 627.43 447.19 627.46 446.21 627.5C445.24 627.54 444.27 627.58 443.27 627.62C439.1 627.8 434.93 627.96 430.76 628.12C427.73 628.25 424.69 628.37 421.65 628.5C420.7 628.54 419.75 628.57 418.77 628.61C417.9 628.64 417.02 628.68 416.12 628.72C415.35 628.75 414.57 628.78 413.78 628.81C411.98 628.81 411.98 628.81 411 630C409.54 630.18 408.07 630.29 406.6 630.37C405.2 630.46 405.2 630.46 403.77 630.55C402.76 630.6 401.74 630.66 400.69 630.72C399.14 630.81 399.14 630.81 397.55 630.91C394.22 631.11 390.89 631.31 387.56 631.5C383.19 631.76 378.81 632.02 374.44 632.28C373.43 632.34 372.41 632.4 371.37 632.45C369.96 632.54 369.96 632.54 368.53 632.63C367.7 632.68 366.87 632.72 366.02 632.77C363.93 632.89 363.93 632.89 362 634C360.65 634.17 359.3 634.28 357.95 634.37C356.7 634.46 356.7 634.46 355.42 634.55C354.52 634.6 353.62 634.66 352.69 634.72C351.3 634.81 351.3 634.81 349.89 634.91C345.92 635.18 341.95 635.44 337.99 635.7C335.09 635.89 332.2 636.08 329.31 636.28C328.41 636.34 327.51 636.4 326.58 636.45C325.33 636.54 325.33 636.54 324.05 636.63C323.32 636.68 322.58 636.72 321.82 636.77C319.9 636.91 319.9 636.91 318 638C315.04 638.29 312.09 638.52 309.12 638.72C308.24 638.78 307.36 638.84 306.46 638.91C302.68 639.18 298.91 639.44 295.13 639.7C292.38 639.89 289.63 640.08 286.88 640.28C286.02 640.34 285.16 640.4 284.27 640.45C280 640.66 280 640.66 276 642C274.59 642.17 273.18 642.28 271.77 642.37C270.45 642.46 270.45 642.46 269.12 642.55C268.17 642.6 267.22 642.66 266.25 642.72C264.8 642.81 264.8 642.81 263.31 642.91C259.16 643.18 255 643.44 250.84 643.7C247.81 643.89 244.78 644.08 241.75 644.28C240.8 644.34 239.86 644.4 238.88 644.45C237.57 644.54 237.57 644.54 236.23 644.63C235.46 644.68 234.69 644.72 233.9 644.77C231.91 644.9 231.91 644.9 230 646C227.77 646.21 225.54 646.37 223.31 646.5C222.65 646.54 222 646.58 221.32 646.62C218.5 646.8 215.68 646.96 212.86 647.12C210.8 647.25 208.74 647.37 206.69 647.5C204.84 647.61 204.84 647.61 202.95 647.72C200.07 647.81 200.07 647.81 198 649C196.47 649.17 194.93 649.29 193.4 649.37C192.44 649.43 191.49 649.49 190.51 649.55C189.47 649.6 188.44 649.66 187.38 649.72C185.79 649.81 185.79 649.81 184.17 649.91C179.63 650.18 175.09 650.44 170.55 650.7C167.24 650.89 163.93 651.08 160.62 651.28C159.59 651.34 158.56 651.4 157.49 651.45C156.06 651.54 156.06 651.54 154.6 651.63C153.76 651.68 152.92 651.72 152.05 651.77C149.94 651.89 149.94 651.89 148 653C146.29 653.17 144.57 653.29 142.85 653.37C141.24 653.46 141.24 653.46 139.59 653.55C138.43 653.6 137.26 653.66 136.06 653.72C134.28 653.81 134.28 653.81 132.45 653.91C127.34 654.18 122.23 654.44 117.11 654.7C113.39 654.89 109.66 655.08 105.94 655.28C104.77 655.34 103.61 655.4 102.41 655.45C100.8 655.54 100.8 655.54 99.1497 655.63C98.1997 655.68 97.2497 655.72 96.2797 655.77C93.9697 655.87 93.9696 655.87 91.9996 657C89.4896 657.25 87.0096 657.43 84.4996 657.56C83.6996 657.6 82.9097 657.65 82.0897 657.69C67.7397 658.34 53.3496 658.08 38.9996 658C37.7996 651.31 37.7996 651.31 39.6196 648.5C41.9996 647 41.9996 647 44.7496 647.25C45.8596 647.62 45.8596 647.62 46.9996 648C46.9996 647.34 46.9996 646.68 46.9996 646C49.9696 645.5 49.9696 645.5 52.9996 645C52.9996 645.33 52.9996 645.66 52.9996 646C55.1296 645.89 57.2497 645.76 59.3797 645.62C60.5597 645.56 61.7396 645.49 62.9596 645.41C66.1096 645.3 66.1096 645.3 67.9996 643C70.3296 642.96 72.6696 642.96 74.9996 643C76.3396 642.71 77.6796 642.37 78.9996 642C81.3296 641.65 83.6596 641.31 85.9996 641C85.9996 640.67 85.9996 640.34 85.9996 640C89.6296 640 93.2596 640 96.9996 640C96.9996 639.67 96.9996 639.34 96.9996 639C98.1296 639.02 99.2696 639.04 100.44 639.06C103.82 639.42 103.82 639.42 105 638C107.65 637.55 110.32 637.3 113 637C113 636.67 113 636.34 113 636C115.31 636 117.62 636 120 636C120 635.67 120 635.34 120 635C121.95 635.07 123.91 635.13 125.86 635.2C128.05 635.13 128.05 635.13 129.97 634C132.4 632.8 134.06 632.8 136.75 632.88C137.55 632.89 138.35 632.91 139.17 632.93C139.78 632.95 140.38 632.98 141 633C141 632.67 141 632.34 141 632C149.58 632 158.16 632 167 632C167 631.67 167 631.34 167 631C177.56 630.67 188.12 630.34 199 630C199 629.67 199 629.34 199 629C199.68 629.01 200.35 629.02 201.05 629.04C202.38 629.05 202.38 629.05 203.75 629.06C204.63 629.07 205.51 629.09 206.42 629.1C208.82 629.01 210.69 628.62 213 628C216.3 627.47 219.6 626.99 222.91 626.5C225.33 626.11 227.63 625.61 230 625C237.46 623.73 237.46 623.73 240 625C240 624.34 240 623.68 240 623C240.68 622.94 241.35 622.88 242.05 622.82C242.94 622.73 243.83 622.65 244.75 622.56C245.63 622.48 246.51 622.4 247.42 622.32C249.7 622.04 251.78 621.56 254 621C255.67 620.96 257.33 620.95 259 621C259 620.67 259 620.34 259 620C260.07 620.02 260.07 620.02 261.15 620.04C262.53 620.05 262.53 620.05 263.94 620.06C264.85 620.07 265.77 620.09 266.71 620.1C268.97 620.26 268.97 620.26 270 619C278.3 617.96 286.65 617.86 295 618C295 617.67 295 617.34 295 617C301.27 617 307.54 617 314 617C314 616.67 314 616.34 314 616C314.69 616.01 315.38 616.02 316.09 616.04C326.7 616.18 326.7 616.18 337 614C338.39 613.93 339.79 613.91 341.19 613.94C342.45 613.96 343.7 613.98 345 614C345 613.67 345 613.34 345 613C348.96 613 352.92 613 357 613C357 612.67 357 612.34 357 612C357.88 612.01 358.76 612.02 359.67 612.04C360.83 612.04 361.99 612.05 363.19 612.06C364.91 612.08 364.91 612.08 366.67 612.1C369.59 612.01 372.16 611.68 375 611C375 610.67 375 610.34 375 610C380.28 610 385.56 610 391 610C391 609.67 391 609.34 391 609C395.95 609 400.9 609 406 609C406 608.67 406 608.34 406 608C407.98 607.81 409.96 607.62 411.94 607.44C413.04 607.33 414.14 607.23 415.28 607.12C416.18 607.08 417.07 607.04 418 607C418.33 607.33 418.66 607.66 419 608C420.53 607.91 422.05 607.75 423.56 607.56C424.39 607.46 425.22 607.36 426.07 607.25C426.7 607.17 427.34 607.09 428 607C428 606.67 428 606.34 428 606C438.62 604.95 449.15 604.88 459.81 604.94C461.49 604.94 463.16 604.95 464.84 604.95C468.89 604.96 472.95 604.98 477 605C477 604.67 477 604.34 477 604C477.9 603.97 478.8 603.95 479.72 603.92C483.05 603.83 486.38 603.73 489.71 603.63C491.15 603.58 492.59 603.54 494.03 603.5C496.1 603.44 498.17 603.38 500.24 603.32C501.49 603.28 502.73 603.24 504.02 603.21C506.93 603.2 506.93 603.2 509 602C510.6 601.91 512.21 601.88 513.82 601.89C514.82 601.89 515.82 601.89 516.85 601.89C517.93 601.89 519.02 601.9 520.13 601.9C521.24 601.9 522.35 601.91 523.49 601.91C527.03 601.91 530.58 601.92 534.12 601.94C536.52 601.94 538.92 601.95 541.32 601.95C547.22 601.96 553.11 601.98 559 602C559 601.67 559 601.34 559 601C559.96 601.01 560.91 601.02 561.89 601.04C575.13 601.42 575.13 601.42 588 599C589.56 598.93 591.13 598.91 592.69 598.94C593.9 598.95 593.9 598.95 595.14 598.96C595.75 598.98 596.37 598.99 597 599C597 598.67 597 598.34 597 598C600.63 598 604.26 598 608 598C608 597.67 608 597.34 608 597C609.21 597.01 610.41 597.02 611.66 597.04C613.27 597.04 614.89 597.05 616.5 597.06C617.29 597.07 618.08 597.08 618.9 597.09C624.03 597.11 628.92 596.74 634 596C634 595.67 634 595.34 634 595C641.92 594.12 649.72 593.89 657.68 593.97C660.1 593.99 662.52 594 664.93 594.01C668.69 594.03 672.44 594.06 676.2 594.1C679.86 594.13 683.52 594.14 687.18 594.16C688.29 594.17 689.4 594.19 690.54 594.2C697.88 594.22 704.8 593.43 712 592C712 591.67 712 591.34 712 591C714.97 591 717.94 591 721 591C721 590.67 721 590.34 721 590C727.31 588.66 733.54 588.95 739.95 589.04C746.67 589.1 753.56 589.12 760.11 587.47C762.45 586.89 764.61 586.93 767 587C767 586.67 767 586.34 767 586C773.62 584.88 773.62 584.88 777 586C779.19 585.94 781.38 585.81 783.56 585.62C784.72 585.53 785.88 585.44 787.07 585.35C789.93 585.18 789.93 585.18 792 584C794 583.96 796 583.96 798 584C798 583.67 798 583.34 798 583C802.29 583.33 806.58 583.66 811 584C811 583.34 811 582.68 811 582C814.63 582 818.26 582 822 582C821.34 581.34 820.68 580.68 820 580C834.55 579.19 849.04 578.9 863.61 579.04C864.88 579.05 866.14 579.05 867.44 579.06C868.56 579.07 869.68 579.09 870.84 579.1C873.98 579 876.91 578.58 880 578C882.66 577.64 885.33 577.32 888 577C888 576.67 888 576.34 888 576C891.3 576 894.6 576 898 576C898 575.67 898 575.34 898 575C898.63 575.02 899.26 575.05 899.91 575.07C904.17 575.16 908.06 575.15 912.19 574C916.11 572.97 919 572.83 923 573C923 572.67 923 572.34 923 572C928.28 572 933.56 572 939 572C939 571.67 939 571.34 939 571C939.61 571.01 940.21 571.02 940.84 571.04C946.96 571.1 952.92 570.72 959 570C959 569.67 959 569.34 959 569C963.62 569 968.24 569 973 569C973 568.67 973 568.34 973 568C979.27 568 985.54 568 992 568C992 567.67 992 567.34 992 567C993.41 567.02 993.41 567.02 994.85 567.04C996.72 567.05 996.72 567.05 998.62 567.06C999.85 567.07 1001.08 567.09 1002.35 567.1C1005.68 567.01 1008.74 566.64 1012 566C1012 565.67 1012 565.34 1012 565C1018.27 565 1024.54 565 1031 565C1031 564.67 1031 564.34 1031 564C1036.94 564 1042.88 564 1049 564C1049 563.67 1049 563.34 1049 563C1050.07 563.01 1051.15 563.02 1052.25 563.04C1053.69 563.04 1055.13 563.05 1056.56 563.06C1057.62 563.08 1057.62 563.08 1058.7 563.09C1063.24 563.11 1067.52 562.75 1072 562C1072 561.67 1072 561.34 1072 561C1073.26 561.03 1074.53 561.07 1075.83 561.11C1077.49 561.13 1079.15 561.16 1080.81 561.19C1081.65 561.21 1082.48 561.24 1083.34 561.26C1084.14 561.27 1084.94 561.28 1085.77 561.29C1086.88 561.32 1086.88 561.32 1088.01 561.34C1090.53 560.91 1091.29 559.84 1093 558C1085.5 556.39 1078.44 555.74 1070.77 555.86C1069.74 555.87 1068.7 555.88 1067.63 555.89C1065.48 555.91 1063.32 555.93 1061.17 555.96C1058.18 556 1055.19 556.02 1052.2 556.04C1046.34 556.08 1040.48 556.13 1034.61 556.18C1032.43 556.2 1030.26 556.22 1028.08 556.24C1021.16 556.31 1014.23 556.37 1007.31 556.44C1006.14 556.45 1004.97 556.46 1003.76 556.47C961.31 556.87 961.31 556.87 918.87 557.44C916.3 557.48 913.73 557.52 911.17 557.55C907.72 557.6 904.26 557.66 900.81 557.72C899.83 557.73 898.84 557.75 897.82 557.76C896.5 557.78 896.5 557.78 895.14 557.81C894.39 557.82 893.63 557.84 892.84 557.85C890.9 557.89 890.9 557.89 889 559C887.23 559.13 885.46 559.19 883.69 559.23C882.56 559.25 881.43 559.28 880.27 559.3C879.03 559.33 877.78 559.35 876.5 559.37C874.5 559.42 872.5 559.46 870.5 559.5C868.34 559.55 866.19 559.59 864.03 559.63C859.55 559.72 855.06 559.81 850.57 559.91C840.24 560.13 829.9 560.34 819.57 560.55C810.1 560.74 800.63 560.94 791.16 561.14C786.69 561.23 782.23 561.33 777.77 561.41C775.66 561.45 773.55 561.5 771.45 561.54C768.88 561.6 766.3 561.65 763.73 561.7C762.6 561.72 761.48 561.75 760.31 561.77C758.84 561.8 758.84 561.8 757.33 561.83C754.98 561.85 754.98 561.85 753 563C750.63 563.15 748.29 563.23 745.92 563.28C745.19 563.3 744.46 563.32 743.71 563.34C742.13 563.37 740.54 563.41 738.96 563.45C736.46 563.5 733.95 563.56 731.45 563.62C725.23 563.78 719.01 563.92 712.79 564.06C707.53 564.18 702.28 564.31 697.03 564.44C694.55 564.5 692.08 564.55 689.61 564.61C688.1 564.64 686.59 564.68 685.08 564.72C684.04 564.74 684.04 564.74 682.99 564.76C679.37 564.82 679.37 564.82 676 566C674.56 566.12 673.12 566.19 671.67 566.23C670.76 566.25 669.86 566.28 668.92 566.3C667.92 566.33 666.92 566.35 665.89 566.37C664.84 566.4 663.79 566.43 662.71 566.46C660.42 566.52 658.13 566.57 655.85 566.63C652.24 566.72 648.62 566.81 645.01 566.91C636.03 567.15 627.06 567.37 618.09 567.6C610.51 567.79 602.93 567.99 595.35 568.19C591.78 568.28 588.21 568.37 584.64 568.45C582.46 568.51 580.29 568.57 578.11 568.63C577.11 568.65 576.11 568.67 575.08 568.7C574.17 568.72 573.26 568.75 572.33 568.77C571.14 568.8 571.14 568.8 569.93 568.83C567.92 568.89 567.92 568.89 566 570C563.08 570.15 560.18 570.24 557.26 570.28C556.36 570.3 555.45 570.32 554.52 570.34C551.5 570.39 548.49 570.45 545.47 570.5C543.37 570.54 541.26 570.58 539.16 570.62C533.6 570.73 528.03 570.84 522.47 570.94C513.62 571.1 504.78 571.27 495.93 571.44C492.87 571.5 489.8 571.55 486.74 571.61C477.55 571.78 468.38 572.02 459.2 572.47C458.4 572.51 457.6 572.54 456.77 572.58C452.75 572.73 452.75 572.73 449 574C446.46 574.28 443.94 574.52 441.4 574.72C440.65 574.78 439.9 574.84 439.13 574.91C435.92 575.18 432.71 575.44 429.49 575.7C427.15 575.89 424.81 576.08 422.46 576.28C421.73 576.34 421 576.4 420.25 576.45C416.83 576.47 416.83 576.47 414 578C411.51 578.29 409.03 578.52 406.54 578.72C405.79 578.78 405.04 578.84 404.27 578.91C401.87 579.11 399.46 579.31 397.06 579.5C393.91 579.76 390.75 580.02 387.6 580.28C386.87 580.34 386.14 580.4 385.38 580.45C381.57 580.73 381.57 580.73 378 582C375.04 582.22 372.09 582.38 369.12 582.5C367.8 582.56 367.8 582.56 366.46 582.62C362.68 582.8 358.91 582.96 355.13 583.12C352.38 583.25 349.63 583.37 346.88 583.5C346.02 583.54 345.16 583.57 344.27 583.61C340 583.7 340 583.7 336 585C333.4 585.28 330.82 585.52 328.22 585.72C327.45 585.78 326.68 585.84 325.89 585.91C322.59 586.18 319.29 586.44 315.99 586.7C313.59 586.89 311.19 587.08 308.78 587.28C308.03 587.34 307.28 587.4 306.51 587.45C302.63 587.72 302.63 587.72 299 589C296.85 589.28 294.69 589.51 292.53 589.72C291.24 589.85 289.95 589.97 288.61 590.11C286.55 590.3 284.49 590.5 282.43 590.7C280.44 590.89 278.46 591.09 276.47 591.28C274.68 591.45 274.68 591.45 272.86 591.63C270.06 591.83 270.06 591.83 268 593C265.85 593.28 263.69 593.51 261.53 593.72C260.24 593.85 258.95 593.97 257.61 594.11C255.55 594.3 253.49 594.5 251.43 594.7C249.44 594.89 247.46 595.09 245.47 595.28C243.68 595.45 243.68 595.45 241.86 595.63C239.06 595.83 239.06 595.83 237 597C234.88 597.32 232.75 597.61 230.62 597.88C225.98 598.5 221.62 599.32 217.12 600.62C207.54 603.16 197.43 603.06 188 600C187.67 601.32 187.34 602.64 187 604C186.37 604.09 185.75 604.17 185.1 604.26C182.28 604.65 179.45 605.04 176.62 605.44C175.15 605.64 175.15 605.64 173.64 605.85C172.7 605.98 171.76 606.11 170.79 606.25C169.92 606.37 169.05 606.49 168.15 606.61C165.96 606.9 165.96 606.9 164 608C161.07 608.13 158.18 608.19 155.25 608.19C154.05 608.21 154.05 608.21 152.83 608.22C148.15 608.24 144.4 607.8 140 606C140.5 604.02 140.5 604.02 141 602C142.49 602.5 142.49 602.5 144 603C144.5 602.01 144.5 602.01 145 601C146.65 601 148.3 601 150 601C150.5 600.01 150.5 600.01 151 599C153.31 598.44 153.31 598.44 156 598C158.98 597.4 159.78 597.22 162 595C163.67 594.96 165.33 594.96 167 595C167.72 594.81 168.44 594.63 169.19 594.44C171 594 171 594 173 595C173 594.34 173 593.68 173 593C179.03 593.42 181.96 594.48 187 598C187.99 597.67 188.98 597.34 190 597C190.27 596.4 190.54 595.8 190.81 595.19C192.59 591.91 194.74 590.75 198 589C200.7 588.41 203.23 588.19 206 588C206 587.67 206 587.34 206 587C207.07 587.02 208.14 587.04 209.25 587.06C212.3 587.01 214.15 586.74 217 586C219.08 585.63 221.16 585.28 223.25 584.94C224.33 584.76 225.41 584.58 226.52 584.4C227.34 584.27 228.16 584.14 229 584C229 583.67 229 583.34 229 583C231.93 583.05 231.93 583.05 234.86 583.1C237.06 583 238.87 582.55 241 582C243.41 581.63 245.83 581.27 248.25 580.94C249.51 580.76 250.78 580.58 252.08 580.4C253.04 580.27 254.01 580.14 255 580C255 579.67 255 579.34 255 579C257.64 579.33 260.28 579.66 263 580C263 579.34 263 578.68 263 578C267.45 577.5 267.45 577.5 272 577C272 576.67 272 576.34 272 576C274.97 576 277.94 576 281 576C281 575.67 281 575.34 281 575C282.22 575.02 283.43 575.04 284.69 575.06C287.94 575.06 290.82 574.73 294 574C296.33 573.66 298.66 573.32 301 573C301 572.67 301 572.34 301 572C304.3 572 307.6 572 311 572C311 571.67 311 571.34 311 571C313.33 570.62 315.66 570.29 318 570C318.33 570.33 318.66 570.66 319 571C321.54 570.74 324.04 570.43 326.56 570.06C327.27 569.96 327.98 569.86 328.72 569.76C330.48 569.51 332.24 569.26 334 569C334 568.67 334 568.34 334 568C337.96 568 341.92 568 346 568C346 567.67 346 567.34 346 567C347.2 567.02 348.39 567.04 349.62 567.06C353.18 567.07 356.51 566.7 360 566C360 565.67 360 565.34 360 565C363.63 565 367.26 565 371 565C371 564.67 371 564.34 371 564C375.29 564.33 379.58 564.66 384 565C384 564.34 384 563.68 384 563C384.59 563.01 385.18 563.02 385.79 563.04C390 563.08 393.89 563.06 398 562C398 561.67 398 561.34 398 561C403.94 561 409.88 561 416 561C416 560.67 416 560.34 416 560C418.64 560 421.28 560 424 560C424 559.67 424 559.34 424 559C440.34 558.17 456.64 557.86 473 558C473 557.67 473 557.34 473 557C481.58 557 490.16 557 499 557C499 556.67 499 556.34 499 556C502.63 556 506.26 556 510 556C510 555.67 510 555.34 510 555C521.68 554.37 533.3 553.82 545 554C545 553.67 545 553.34 545 553C552.59 553 560.18 553 568 553C568 552.67 568 552.34 568 552C569.17 552.01 569.17 552.01 570.36 552.02C585.61 552.1 600.78 552.06 616 551C616 550.67 616 550.34 616 550C629.53 550 643.06 550 657 550C657 549.67 657 549.34 657 549C668.55 549 680.1 549 692 549C692 548.67 692 548.34 692 548C700.91 547.67 709.82 547.34 719 547C719 547.33 719 547.66 719 548C722.63 548 726.26 548 730 548C729.67 547.34 729.34 546.68 729 546C751.11 546 773.22 546 796 546C796 545.67 796 545.34 796 545C812.17 545 828.34 545 845 545C845 544.67 845 544.34 845 544C846.11 543.97 847.22 543.95 848.36 543.92C852.48 543.83 856.59 543.73 860.7 543.63C862.48 543.58 864.26 543.54 866.04 543.5C868.6 543.45 871.15 543.38 873.71 543.32C874.91 543.29 874.91 543.29 876.13 543.27C880.2 543.25 880.2 543.25 884 542C886.99 541.91 889.96 541.88 892.95 541.9C893.83 541.9 894.72 541.91 895.63 541.91C898.46 541.91 901.29 541.92 904.12 541.94C906.04 541.94 907.96 541.95 909.88 541.95C914.59 541.96 919.29 541.98 924 542C924 541.67 924 541.34 924 541C926.97 541 929.94 541 933 541C933 540.67 933 540.34 933 540C933.64 540.01 934.28 540.02 934.94 540.04C939.04 540.08 943.01 540.1 947.06 539.44C948.03 539.29 949 539.15 950 539C950.33 539.33 950.66 539.66 951 540C952.88 540.09 954.77 540.11 956.65 540.11C957.85 540.1 959.05 540.1 960.29 540.1C961.6 540.09 962.91 540.08 964.27 540.08C965.63 540.07 967 540.07 968.37 540.06C972.58 540.05 976.79 540.03 981 540C982.23 539.99 983.45 539.99 984.72 539.98C993.06 539.93 1001.4 539.86 1009.74 539.78C1012.34 539.76 1014.95 539.74 1017.55 539.71C1023.61 539.66 1029.66 539.61 1035.72 539.55C1042.63 539.49 1049.55 539.43 1056.47 539.37C1070.64 539.25 1084.82 539.13 1099 539C1099 538.67 1099 538.34 1099 538ZM884 543C884 543.33 884 543.66 884 544C892.25 544 900.5 544 909 544C909 543.67 909 543.34 909 543C900.75 543 892.5 543 884 543ZM1203 555C1206.77 556.26 1208.37 555.37 1212 554C1211.67 553.34 1211.34 552.68 1211 552C1207.92 552 1205.69 553.6 1203 555ZM843 580C843 580.33 843 580.66 843 581C849.27 581 855.54 581 862 581C862 580.67 862 580.34 862 580C855.73 580 849.46 580 843 580ZM727 590C727 590.33 727 590.66 727 591C728.98 591 730.96 591 733 591C733 590.67 733 590.34 733 590C731.02 590 729.04 590 727 590ZM645 595C645 595.33 645 595.66 645 596C651.6 596 658.2 596 665 596C665 595.67 665 595.34 665 595C658.4 595 651.8 595 645 595ZM509 603C509 603.33 509 603.66 509 604C520.22 604 531.44 604 543 604C543 603.67 543 603.34 543 603C531.78 603 520.56 603 509 603ZM441 606C441 606.33 441 606.66 441 607C447.27 607 453.54 607 460 607C460 606.67 460 606.34 460 606C453.73 606 447.46 606 441 606Z" fill="#F3ECD2"/>
<path d="M996 414C1038.9 414 1081.8 414 1126 414C1126 414.33 1126 414.66 1126 415C1127.41 414.98 1127.41 414.98 1128.84 414.97C1132.34 414.93 1135.84 414.91 1139.34 414.89C1140.85 414.88 1142.36 414.87 1143.88 414.85C1146.06 414.82 1148.23 414.81 1150.41 414.8C1151.72 414.79 1153.03 414.78 1154.38 414.77C1160.39 415.15 1164.65 416.78 1169 421C1169 421.99 1169 422.98 1169 424C1168.15 424.13 1167.29 424.27 1166.41 424.4C1165.31 424.58 1164.2 424.76 1163.06 424.94C1161.96 425.11 1160.86 425.29 1159.72 425.46C1157.1 425.72 1157.1 425.72 1156 427C1153.64 427.4 1151.31 427.72 1148.94 428C1148.2 428.09 1147.47 428.18 1146.72 428.27C1138.75 429.14 1130.77 429.42 1122.76 429.66C1121.27 429.71 1121.27 429.71 1119.75 429.75C1118.86 429.78 1117.97 429.8 1117.05 429.83C1115.01 429.78 1115.01 429.78 1114 431C1111.86 431.12 1109.71 431.17 1107.56 431.19C1106.89 431.2 1106.21 431.21 1105.52 431.21C1104.05 431.23 1102.58 431.25 1101.11 431.26C1098.78 431.28 1096.44 431.31 1094.11 431.34C1089.13 431.4 1084.16 431.45 1079.19 431.5C1073.46 431.56 1067.73 431.62 1062 431.69C1059.72 431.72 1057.44 431.74 1055.16 431.76C1047.92 431.84 1040.75 432.1 1033.54 432.78C1030.27 433.06 1027.02 433.13 1023.73 433.13C1022.49 433.13 1021.25 433.14 1019.98 433.14C1018.73 433.13 1017.48 433.13 1016.19 433.12C1014.92 433.13 1013.65 433.13 1012.34 433.14C1011.11 433.14 1009.87 433.13 1008.61 433.13C1007.5 433.13 1006.4 433.13 1005.27 433.13C1002 433 1002 433 998.4 432.47C995.41 432.06 992.99 431.99 990.01 432.3C988.71 432.44 988.71 432.44 987.37 432.57C986.04 432.72 986.04 432.72 984.69 432.88C983.78 432.97 982.88 433.06 981.94 433.15C977.32 433.52 977.32 433.52 973 435C970.4 435.21 967.82 435.38 965.22 435.5C964.45 435.54 963.68 435.58 962.89 435.62C959.59 435.8 956.29 435.96 952.99 436.12C950.59 436.25 948.19 436.37 945.78 436.5C945.03 436.54 944.28 436.57 943.51 436.61C939.63 436.75 939.63 436.75 936 438C934.39 438.14 932.78 438.23 931.16 438.28C930.15 438.32 929.14 438.35 928.1 438.39C927 438.43 925.91 438.46 924.77 438.5C923.64 438.54 922.5 438.58 921.33 438.62C917.68 438.75 914.03 438.88 910.38 439C887.04 437.53 887.04 437.53 866 442C863.14 442.29 860.3 442.52 857.44 442.72C856.58 442.78 855.72 442.84 854.84 442.91C852.08 443.11 849.32 443.31 846.56 443.5C842.94 443.76 839.31 444.02 835.69 444.28C834.85 444.34 834.01 444.4 833.15 444.45C828.94 444.67 828.94 444.67 825 446C823.5 446.17 822 446.29 820.49 446.37C819.56 446.43 818.62 446.49 817.66 446.55C816.65 446.6 815.64 446.66 814.59 446.72C813.56 446.78 812.52 446.84 811.46 446.91C807.01 447.18 802.57 447.44 798.12 447.7C794.88 447.89 791.64 448.08 788.41 448.28C787.39 448.34 786.38 448.4 785.34 448.45C784.41 448.51 783.47 448.57 782.51 448.63C781.69 448.68 780.86 448.72 780.01 448.77C777.93 448.89 777.93 448.89 776 450C774.41 450.17 772.81 450.29 771.21 450.37C770.22 450.43 769.23 450.49 768.2 450.55C766.59 450.63 766.59 450.63 764.94 450.72C763.84 450.78 762.73 450.84 761.6 450.91C756.87 451.18 752.13 451.44 747.4 451.7C743.96 451.89 740.51 452.08 737.06 452.28C735.45 452.37 735.45 452.37 733.8 452.45C732.8 452.51 731.81 452.57 730.79 452.63C729.47 452.7 729.47 452.7 728.13 452.77C725.95 452.88 725.95 452.88 724 454C722.29 454.21 720.57 454.37 718.84 454.5C717.82 454.58 716.8 454.67 715.75 454.75C712.5 455 712.5 455 709.25 455.25C708.23 455.33 707.21 455.42 706.16 455.5C704.75 455.61 704.75 455.61 703.31 455.72C700.98 455.87 700.98 455.87 699 457C697.42 457.21 695.84 457.37 694.26 457.5C692.8 457.62 692.8 457.62 691.3 457.75C690.25 457.83 689.21 457.91 688.12 458C687.06 458.09 685.99 458.18 684.89 458.27C676.96 458.9 669.02 459.36 661.07 459.66C656.9 459.73 656.9 459.73 653 461C651.53 461.26 650.05 461.49 648.56 461.68C647.67 461.81 646.77 461.93 645.85 462.06C644.91 462.18 643.97 462.31 643 462.44C637.69 463.15 632.46 463.87 627.24 465.07C619.39 466.7 611.3 466.36 603.32 466.39C594.06 466.56 585.38 467.81 577 472C575.48 472.09 573.96 472.13 572.44 472.12C571.23 472.13 571.23 472.13 570 472.13C568 472 568 472 567 471C559.8 469.76 554.39 469.23 548.1 473.05C543.65 475.06 538.73 474.79 534 474C531.24 472.61 530.06 471.4 528 469C528 468.34 528 467.68 528 467C527.01 467 526.02 467 525 467C524.73 468.09 524.46 469.19 524.19 470.31C522.67 475.03 522.67 475.03 520 477C517.18 477.66 517.18 477.66 513.88 478.06C510.09 478.54 506.44 479.12 502.74 480.04C497.56 481.23 492.54 481.3 487.25 481.25C485.87 481.26 485.87 481.26 484.46 481.27C479.79 481.26 476.3 481 472 479C470.68 479 469.36 479 468 479C467.34 479.99 466.68 480.98 466 482C461.06 484.18 456 484.57 450.69 485.06C445.42 485.1 445.42 485.1 441 487C434.67 488.25 428.37 488.15 421.94 488.12C420.87 488.13 419.81 488.13 418.72 488.14C414.5 488.13 410.54 488.1 406.38 487.37C405.59 487.25 404.81 487.12 404 487C403.34 487.66 402.68 488.32 402 489C393.84 491.19 385.53 491.95 377.15 492.86C372.57 493.37 368.09 493.88 363.63 495.05C360.19 495.95 357.04 496.38 353.5 496.62C351.94 496.74 351.94 496.74 350.34 496.85C349.57 496.9 348.8 496.95 348 497C347.92 495.54 347.86 494.08 347.81 492.62C347.76 491.41 347.76 491.41 347.71 490.16C347.8 489.45 347.9 488.74 348 488C351 486 351 486 353.06 485C355.16 484.04 355.16 484.04 357 482C360.26 481.8 360.26 481.8 364.12 481.88C366.05 481.9 366.05 481.9 368.01 481.93C369.49 481.96 369.49 481.96 371 482C371 481.67 371 481.34 371 481C375.29 481.33 379.58 481.66 384 482C384 481.34 384 480.68 384 480C388.62 479.67 393.24 479.34 398 479C398 478.67 398 478.34 398 478C398.75 478.01 399.5 478.02 400.27 478.04C401.25 478.04 402.24 478.05 403.25 478.06C404.71 478.08 404.71 478.08 406.2 478.1C408.71 478.01 410.6 477.61 413 477C414.37 476.8 415.74 476.62 417.11 476.46C418.24 476.33 418.24 476.33 419.39 476.2C420.17 476.11 420.95 476.03 421.75 475.94C422.54 475.85 423.34 475.76 424.15 475.66C426.1 475.44 428.05 475.22 430 475C430 474.67 430 474.34 430 474C430.69 474.02 431.37 474.05 432.08 474.07C432.98 474.09 433.88 474.11 434.81 474.12C436.15 474.16 436.15 474.16 437.52 474.2C440.25 474.18 440.25 474.18 443 472C442.36 468.95 442.36 468.95 440.3 468.06C439.54 467.71 438.78 467.36 438 467C436.06 465.7 434.15 464.36 432.25 463C431.27 462.3 430.28 461.6 429.27 460.88C428.52 460.26 427.77 459.64 427 459C427 458.34 427 457.68 427 457C430.64 454.7 433.7 454.76 437.94 454.81C438.59 454.82 439.24 454.83 439.92 454.83C446.3 454.93 452.65 455.4 459 456C458.27 460.51 456.68 463.28 454 467C452.35 466.67 450.7 466.34 449 466C448.5 464.02 448.5 464.02 448 462C447.01 462.99 447.01 462.99 446 464C446.32 467.1 446.32 467.1 447 470C447.8 470.14 448.61 470.29 449.44 470.44C452 471 452 471 453 472C453.99 471.34 454.98 470.68 456 470C457.32 470 458.64 470 460 470C460 470.66 460 471.32 460 472C461.14 472.19 461.14 472.19 462.31 472.38C465 473 465 473 468 475C468.42 474.54 468.84 474.09 469.27 473.62C471.04 471.96 472.56 471.08 474.75 470.06C478.61 468.21 482.3 466.16 486 464C485.78 463.46 485.57 462.91 485.34 462.36C484.93 461.28 484.93 461.28 484.5 460.19C484.08 459.13 484.08 459.13 483.66 458.04C483 456 483 456 483 453C486.95 453.56 489.98 454.32 493 457C493.44 459.79 493.23 462.15 493 465C495.97 465.5 495.97 465.5 499 466C498.67 464.99 498.34 463.98 498 462.94C496.93 459.25 496.84 455.85 497 452C503.15 451.12 503.15 451.12 505 451C505.33 451.33 505.66 451.66 506 452C508.02 452.23 510.04 452.41 512.06 452.56C513.17 452.65 514.27 452.73 515.41 452.82C516.26 452.88 517.12 452.94 518 453C518 452.34 518 451.68 518 451C518.61 450.95 519.23 450.9 519.86 450.85C520.67 450.78 521.48 450.7 522.31 450.62C523.51 450.52 523.51 450.52 524.74 450.41C527.27 450.1 527.27 450.1 530 448C532.33 447.92 534.67 447.91 537 448C537 447.67 537 447.34 537 447C537.84 447 537.84 447 538.7 447.01C544.52 447.03 550.35 447.04 556.17 447.05C558.35 447.06 560.52 447.07 562.7 447.08C565.82 447.09 568.94 447.09 572.06 447.1C573.04 447.1 574.02 447.11 575.03 447.11C575.93 447.11 576.83 447.11 577.76 447.11C578.55 447.12 579.35 447.12 580.17 447.12C582.02 447.2 582.02 447.2 583 446C584.85 445.77 586.7 445.59 588.56 445.44C589.57 445.35 590.59 445.27 591.63 445.18C592.41 445.12 593.19 445.06 594 445C594 444.67 594 444.34 594 444C597.63 444 601.26 444 605 444C605 443.67 605 443.34 605 443C605.7 443.01 606.41 443.02 607.13 443.04C620.76 443.45 620.76 443.45 634 441C636.06 440.93 638.13 440.92 640.19 440.94C641.82 440.95 641.82 440.95 643.48 440.96C644.31 440.98 645.14 440.99 646 441C646 440.67 646 440.34 646 440C652.27 440 658.54 440 665 440C665 439.67 665 439.34 665 439C665.64 439.01 666.27 439.02 666.93 439.04C674.56 439.11 682.08 438.63 689.69 438C690.88 437.9 692.07 437.81 693.29 437.71C696.2 437.48 699.1 437.24 702 437C702 436.67 702 436.34 702 436C707.28 436 712.56 436 718 436C718 435.67 718 435.34 718 435C719.63 435.02 719.63 435.02 721.29 435.04C722.73 435.04 724.18 435.05 725.62 435.06C726.34 435.07 727.05 435.08 727.79 435.09C731.97 435.11 735.87 434.83 740 434C740 433.67 740 433.34 740 433C745.94 433 751.88 433 758 433C758 432.67 758 432.34 758 432C759.05 432.01 760.1 432.02 761.18 432.04C768.54 432.09 775.7 432 783 431C784.85 430.81 786.71 430.62 788.56 430.44C789.41 430.35 790.26 430.27 791.13 430.18C791.75 430.12 792.36 430.06 793 430C793 429.67 793 429.34 793 429C797.95 429 802.9 429 808 429C808 428.67 808 428.34 808 428C808.78 428.01 809.56 428.02 810.37 428.04C811.38 428.04 812.39 428.05 813.44 428.06C814.95 428.08 814.95 428.08 816.5 428.1C818.94 428.29 818.94 428.29 820 427C822.14 427 824.29 427 826.43 427.03C830.33 426.98 834.13 426.49 838 426C838 425.67 838 425.34 838 425C842.29 425 846.58 425 851 425C851 424.67 851 424.34 851 424C851.71 424.01 852.43 424.02 853.16 424.04C858.56 424.09 863.68 423.95 869 423C869 422.67 869 422.34 869 422C873.95 422 878.9 422 884 422C884 421.67 884 421.34 884 421C889.94 421 895.88 421 902 421C902 420.67 902 420.34 902 420C910.41 419.5 910.41 419.5 919 419C919 419.33 919 419.66 919 420C929.39 419.5 929.39 419.5 940 419C940 418.67 940 418.34 940 418C946.93 418 953.86 418 961 418C961 417.67 961 417.34 961 417C966.61 417 972.22 417 978 417C978 416.67 978 416.34 978 416C983.94 415.67 989.88 415.34 996 415C996 414.67 996 414.34 996 414ZM498 456C499 459 499 459 499 459L498 456ZM508 458C508.74 463.55 508.74 463.55 510 469C510.66 469 511.32 469 512 469C511.86 467.54 511.71 466.08 511.56 464.62C511.44 463.41 511.44 463.41 511.32 462.16C511.11 459.96 511.11 459.96 510 458C509.34 458 508.68 458 508 458Z" fill="#F3ECD2"/>
<path d="M341 484.999C339.89 488.209 339.01 488.989 336 490.749C333 491.999 333 491.999 331 491.999C331 493.319 331 494.639 331 495.999C330.34 495.949 329.67 495.909 328.99 495.859C323.1 495.619 320.49 495.899 316 499.999C313.94 500.059 313.94 500.059 312 498.999C309.75 496.439 309.75 496.439 308 493.999C304.18 494.279 304.18 494.279 301 495.999C299.19 496.269 297.38 496.519 295.56 496.749C291.11 497.429 287.83 498.429 283.94 500.689C277.76 504.089 272.06 503.059 265.44 501.329C262.54 500.939 261.35 501.419 258.81 502.809C257.8 503.349 257.8 503.349 256.77 503.889C254.85 504.999 254.85 504.999 253 506.999C245.93 509.359 238.21 508.069 231.13 506.439C227.26 505.639 225.34 506.269 221.94 507.999C216.78 510.149 212.07 510.419 206.56 510.439C205.37 510.449 205.37 510.449 204.16 510.469C198.48 510.379 198.48 510.379 196.24 508.599C195 506.999 195 506.999 195.25 504.939C196 502.999 196 502.999 197 500.999C199.57 500.359 202.14 499.979 204.75 499.559C205.86 499.279 205.86 499.279 207 498.999C207.33 498.339 207.66 497.679 208 496.999C210.25 497.109 212.5 497.239 214.75 497.379C216 497.439 217.26 497.509 218.55 497.589C221.66 497.959 223.33 498.509 226 499.999C228.2 499.699 228.2 499.699 230 498.999C230 498.339 230 497.679 230 496.999C239.91 494.309 239.91 494.309 243 494.999C245.31 497.999 245.31 497.999 247 500.999C247.19 499.549 247.19 499.549 247.38 498.059C247.58 497.049 247.79 496.039 248 494.999C251.55 493.229 253.61 492.889 257.62 492.939C259.13 492.949 259.13 492.949 260.66 492.959C261.43 492.979 262.21 492.989 263 492.999C263 492.669 263 492.339 263 491.999C266.95 491.699 269.89 492.209 273.56 493.559C277.09 494.839 279.35 495.299 283 493.999C283 493.339 283 492.679 283 491.999C286.3 491.339 289.6 490.679 293 489.999C293 489.669 293 489.339 293 488.999C293.91 489.029 293.91 489.029 294.84 489.069C301.15 489.209 306.86 488.459 313 486.999C313 486.669 313 486.339 313 485.999C315.97 485.999 318.94 485.999 322 485.999C322 485.669 322 485.339 322 484.999C322.64 485.009 323.28 485.019 323.94 485.039C328.02 485.079 331.97 485.099 336 484.439C339 483.999 339 483.999 341 484.999Z" fill="#D8C171"/>
<path d="M173 593C179.65 593.35 182.84 594.8 188 599C187.67 600.65 187.34 602.3 187 604C186.06 604.13 186.06 604.13 185.1 604.26C182.28 604.65 179.45 605.04 176.62 605.44C175.64 605.57 174.66 605.71 173.64 605.85C172.7 605.98 171.76 606.11 170.79 606.25C169.92 606.37 169.05 606.49 168.15 606.61C165.96 606.9 165.96 606.9 164 608C161.07 608.13 158.18 608.19 155.25 608.19C154.45 608.2 153.65 608.21 152.83 608.22C148.15 608.24 144.4 607.8 140 606C140.33 604.68 140.66 603.36 141 602C141.99 602.33 142.98 602.66 144 603C144.33 602.34 144.66 601.68 145 601C146.65 601 148.3 601 150 601C150.33 600.34 150.66 599.68 151 599C153.31 598.44 153.31 598.44 156 598C158.98 597.4 159.78 597.22 162 595C163.67 594.96 165.33 594.96 167 595C167.72 594.81 168.44 594.63 169.19 594.44C171 594 171 594 173 595C173 594.34 173 593.68 173 593Z" fill="#D8C171"/>
<path d="M130.188 498.751C131.298 498.721 131.298 498.721 132.438 498.691C137.708 498.651 141.348 499.491 145.998 502.001C149.048 506.321 149.308 509.791 148.998 515.001C140.478 514.191 135.618 508.921 129.998 503.001C126.118 506.161 122.498 509.401 118.998 513.001C117.998 514.001 116.998 515.001 115.998 516.001C115.308 506.321 115.308 506.321 117.878 502.441C121.518 498.261 124.958 498.791 130.188 498.751Z" fill="#D8C171"/>
<path d="M202 481C203.81 480.97 205.62 480.95 207.44 480.94C208.45 480.93 209.46 480.91 210.5 480.9C213 481 213 481 214 482C214.5 484.75 214.5 484.75 214 488C211.98 490.31 209.8 491.75 207 493C201.21 493.38 196.38 489.48 192 486C191.67 485.34 191.34 484.68 191 484C194.09 481.94 194.71 481.76 198.19 481.88C200.07 481.94 200.07 481.94 202 482C202 481.67 202 481.34 202 481Z" fill="#D8C171"/>
<path d="M133.125 581.938C134.035 581.948 134.945 581.958 135.885 581.968C136.935 581.978 136.935 581.978 138.005 581.998C138.005 584.998 138.005 584.998 135.005 589.998C123.615 589.508 123.615 589.508 112.005 588.998C114.165 585.758 114.345 585.608 117.875 584.878C118.555 584.728 119.235 584.578 119.925 584.428C120.615 584.288 121.295 584.148 122.005 583.998C131.055 581.908 131.055 581.908 133.125 581.938Z" fill="#D8C171"/>
<path d="M48 538C48.66 538.33 49.32 538.66 50 539C47.82 543.02 45.56 546.1 42 549C39.16 549.37 36.98 549.49 34.19 549.31C33.49 549.29 32.8 549.27 32.09 549.24C30.39 549.19 28.7 549.1 27 549C28.69 545.15 28.69 545.15 31.5 543.81C32.33 543.54 33.15 543.28 34 543C35.28 542.36 36.56 541.69 37.81 541C40.21 539.91 42.42 539.46 45 539C45.99 538.67 46.98 538.34 48 538Z" fill="#D8C171"/>
<path d="M296.062 470.5C297.512 471.24 297.512 471.24 299.002 472C298.672 472.66 298.342 473.32 298.002 474C296.542 474.03 295.082 474.05 293.622 474.06C292.812 474.07 292.002 474.09 291.162 474.1C289.002 474 289.002 474 287.002 473C287.002 472.34 287.002 471.68 287.002 471C286.012 471 285.022 471 284.002 471C284.022 471.8 284.042 472.61 284.062 473.44C284.002 476 284.002 476 283.002 477C281.482 477.07 279.962 477.08 278.442 477.06C277.612 477.05 276.782 477.04 275.932 477.04C275.292 477.02 274.652 477.01 274.002 477C274.182 474.62 274.182 474.62 275.002 472C277.372 470.75 277.372 470.75 280.002 470C285.392 468.2 290.812 468.23 296.062 470.5Z" fill="#D8C171"/>
<path d="M478 453C478.03 454.6 478.05 456.21 478.06 457.81C478.07 458.71 478.09 459.6 478.1 460.52C478 463 478 463 477 466C473.51 465.35 470.97 463.9 468 462C468.26 458.55 469.29 457.73 471.88 455.25C475 453 475 453 478 453Z" fill="#FBF9EF"/>
<path d="M1241 479.999C1241.33 481.649 1241.66 483.299 1242 484.999C1240.75 485.089 1240.75 485.089 1239.48 485.179C1237.85 485.309 1237.85 485.309 1236.19 485.439C1235.11 485.519 1234.03 485.599 1232.92 485.679C1229.94 485.899 1229.94 485.899 1227 486.999C1226.34 485.679 1225.68 484.359 1225 482.999C1230.03 479.649 1235.09 479.879 1241 479.999Z" fill="#D8C171"/>
<path d="M174 500.999C175 502.999 175 502.999 174.22 505.379C173.84 506.289 173.46 507.189 173.06 508.119C172.68 509.039 172.3 509.949 171.91 510.879C171.46 511.929 171.46 511.929 171 512.999C170.01 512.999 169.02 512.999 168 512.999C165.69 505.719 165.69 505.719 167.06 502.499C169.52 500.599 170.96 500.669 174 500.999Z" fill="#D8C171"/>
<path d="M1046 513C1067.12 513 1088.24 513 1110 513C1110 513.33 1110 513.66 1110 514C1088.88 514 1067.76 514 1046 514C1046 513.67 1046 513.34 1046 513Z" fill="#E9DEAF"/>
<path d="M312 467C321.81 467.62 321.81 467.62 326 471C326 471.66 326 472.32 326 473C320.39 472.67 314.78 472.34 309 472C309.99 470.35 310.98 468.7 312 467Z" fill="#D8C171"/>
<path d="M869 470C889.13 470 909.26 470 930 470C930 470.33 930 470.66 930 471C909.87 471 889.74 471 869 471C869 470.67 869 470.34 869 470Z" fill="#D8C171"/>
<path d="M383 460C384.65 460.33 386.3 460.66 388 461C388 461.66 388 462.32 388 463C390.48 463.99 390.48 463.99 393 465C393 466.32 393 467.64 393 469C388.49 468.47 385.65 466.63 382 464C382.33 462.68 382.66 461.36 383 460Z" fill="#D8C171"/>
<path d="M1017 413C1035.15 413 1053.3 413 1072 413C1072 413.33 1072 413.66 1072 414C1053.85 414 1035.7 414 1017 414C1017 413.67 1017 413.34 1017 413Z" fill="#D8C171"/>
<path d="M190 500.001C192.44 502.061 192.44 502.061 194 504.001C190.99 505.501 188.65 504.611 185.38 504.061C184.19 503.871 183 503.671 181.77 503.471C180.86 503.321 179.94 503.161 179 503.001C179 502.341 179 501.681 179 501.001C182.78 498.431 185.68 498.921 190 500.001Z" fill="#D8C171"/>
<path d="M175 491C180.28 491 185.56 491 191 491C191 491.66 191 492.32 191 493C185.55 494.39 180.63 495.24 175 495C175 493.68 175 492.36 175 491Z" fill="#D8C171"/>
<path d="M1178 417C1178.36 421.45 1178.36 421.45 1176.81 423.81C1174.44 425.37 1172.78 425.23 1170 425C1170.12 422.69 1170.12 422.69 1171 420C1175.97 417 1175.97 417 1178 417Z" fill="#D8C171"/>
<path d="M2 568C3.32 568.99 4.64 569.98 6 571C5.67 572.32 5.34 573.64 5 575C3.68 575.33 2.36 575.66 1 576C0 571.25 0 571.25 0 569C0.66 568.67 1.32 568.34 2 568Z" fill="#D8C171"/>
<path d="M404 457.999C409.75 457.879 409.75 457.879 412 458.999C412 459.989 412 460.979 412 461.999C409.03 461.999 406.06 461.999 403 461.999C403.33 460.679 403.66 459.359 404 457.999Z" fill="#D8C171"/>
<path d="M940 481C950.56 481 961.12 481 972 481C972 481.33 972 481.66 972 482C961.44 482 950.88 482 940 482C940 481.67 940 481.34 940 481Z" fill="#D8C171"/>
<path d="M545 446C555.56 446 566.12 446 577 446C577 446.33 577 446.66 577 447C566.44 447 555.88 447 545 447C545 446.67 545 446.34 545 446Z" fill="#D8C171"/>
<path d="M629 549C637.91 549 646.82 549 656 549C656 549.33 656 549.66 656 550C647.09 550 638.18 550 629 550C629 549.67 629 549.34 629 549Z" fill="#D8C171"/>
<path d="M422 464C424.97 464.5 424.97 464.5 428 465C428.33 466.32 428.66 467.64 429 469C426.04 468.39 424.62 467.75 422 466C422 465.34 422 464.68 422 464Z" fill="#D8C171"/>
<path d="M1169 537C1176.26 537 1183.52 537 1191 537C1191 537.33 1191 537.66 1191 538C1183.74 538 1176.48 538 1169 538C1169 537.67 1169 537.34 1169 537Z" fill="#D8C171"/>
<path d="M83 612C85.69 612.88 85.69 612.88 88 614C88 614.66 88 615.32 88 616C85.69 616 83.38 616 81 616C80.67 615.34 80.34 614.68 80 614C80.99 613.34 81.98 612.68 83 612Z" fill="#D8C171"/>
<path d="M1192 537C1198.93 537 1205.86 537 1213 537C1213 537.33 1213 537.66 1213 538C1206.07 538 1199.14 538 1192 538C1192 537.67 1192 537.34 1192 537Z" fill="#D8C171"/>
<path d="M1250 492C1256.93 492 1263.86 492 1271 492C1271 492.33 1271 492.66 1271 493C1264.07 493 1257.14 493 1250 493C1250 492.67 1250 492.34 1250 492Z" fill="#D8C171"/>
<path d="M680 593C685.94 593 691.88 593 698 593C698 593.33 698 593.66 698 594C692.06 594 686.12 594 680 594C680 593.67 680 593.34 680 593Z" fill="#D8C171"/>
<path d="M755 562C760.94 562 766.88 562 773 562C773 562.33 773 562.66 773 563C767.06 563 761.12 563 755 563C755 562.67 755 562.34 755 562Z" fill="#E9DEAF"/>
<path d="M1080 538C1085.61 538 1091.22 538 1097 538C1097 538.33 1097 538.66 1097 539C1091.39 539 1085.78 539 1080 539C1080 538.67 1080 538.34 1080 538Z" fill="#D8C171"/>
<path d="M1129 414C1134.61 414 1140.22 414 1146 414C1146 414.33 1146 414.66 1146 415C1140.39 415 1134.78 415 1129 415C1129 414.67 1129 414.34 1129 414Z" fill="#D8C171"/>
<path d="M448 557C453.28 557 458.56 557 464 557C464 557.33 464 557.66 464 558C458.72 558 453.44 558 448 558C448 557.67 448 557.34 448 557Z" fill="#D8C171"/>
<path d="M1267 555C1270.3 555 1273.6 555 1277 555C1277 555.66 1277 556.32 1277 557C1273.7 556.67 1270.4 556.34 1267 556C1267 555.67 1267 555.34 1267 555Z" fill="#D8C171"/>
<path d="M1060 477C1064.95 477 1069.9 477 1075 477C1075 477.33 1075 477.66 1075 478C1070.05 478 1065.1 478 1060 478C1060 477.67 1060 477.34 1060 477Z" fill="#D8C171"/>
<path d="M1077 413C1081.95 413 1086.9 413 1092 413C1092 413.33 1092 413.66 1092 414C1087.05 414 1082.1 414 1077 414C1077 413.67 1077 413.34 1077 413Z" fill="#D8C171"/>
<path d="M781 545C785.62 545 790.24 545 795 545C795 545.33 795 545.66 795 546C790.38 546 785.76 546 781 546C781 545.67 781 545.34 781 545Z" fill="#D8C171"/>
<path d="M675 485C679.62 485 684.24 485 689 485C689 485.33 689 485.66 689 486C684.38 486 679.76 486 675 486C675 485.67 675 485.34 675 485Z" fill="#D8C171"/>
<path d="M831 544C835.29 544 839.58 544 844 544C844 544.33 844 544.66 844 545C839.71 545 835.42 545 831 545C831 544.67 831 544.34 831 544Z" fill="#D8C171"/>
<path d="M909 517C912.96 517 916.92 517 921 517C921 517.33 921 517.66 921 518C917.04 518 913.08 518 909 518C909 517.67 909 517.34 909 517Z" fill="#E9DEAF"/>
<path d="M458 626C461.63 626 465.26 626 469 626C469 626.33 469 626.66 469 627C465.37 627 461.74 627 458 627C458 626.67 458 626.34 458 626Z" fill="#E9DEAF"/>
<path d="M891 558C894.63 558 898.26 558 902 558C902 558.33 902 558.66 902 559C898.37 559 894.74 559 891 559C891 558.67 891 558.34 891 558Z" fill="#E9DEAF"/>
<path d="M484 556C487.63 556 491.26 556 495 556C495 556.33 495 556.66 495 557C491.37 557 487.74 557 484 557C484 556.67 484 556.34 484 556Z" fill="#D8C171"/>
<path d="M555 552C558.63 552 562.26 552 566 552C566 552.33 566 552.66 566 553C562.37 553 558.74 553 555 553C555 552.67 555 552.34 555 552Z" fill="#D8C171"/>
<path d="M680 548C683.63 548 687.26 548 691 548C691 548.33 691 548.66 691 549C687.37 549 683.74 549 680 549C680 548.67 680 548.34 680 548Z" fill="#D8C171"/>
<path d="M769 545C772.63 545 776.26 545 780 545C780 545.33 780 545.66 780 546C776.37 546 772.74 546 769 546C769 545.67 769 545.34 769 545Z" fill="#D8C171"/>
<path d="M180 629C183.3 629 186.6 629 190 629C190 629.33 190 629.66 190 630C186.7 630 183.4 630 180 630C180 629.67 180 629.34 180 629Z" fill="#D8C171"/>
<path d="M605 550C608.3 550 611.6 550 615 550C615 550.33 615 550.66 615 551C611.7 551 608.4 551 605 551C605 550.67 605 550.34 605 550Z" fill="#D8C171"/>
<path d="M670 548C672.97 548 675.94 548 679 548C679 548.33 679 548.66 679 549C676.03 549 673.06 549 670 549C670 548.67 670 548.34 670 548Z" fill="#D8C171"/>
<path d="M74 547C76.97 547 79.94 547 83 547C83 547.33 83 547.66 83 548C80.03 548 77.06 548 74 548C74 547.67 74 547.34 74 547Z" fill="#E9DEAF"/>
<path d="M838 473C840.97 473 843.94 473 847 473C847 473.33 847 473.66 847 474C844.03 474 841.06 474 838 474C838 473.67 838 473.34 838 473Z" fill="#D8C171"/>
<path d="M94 656C96.64 656 99.28 656 102 656C102 656.33 102 656.66 102 657C99.36 657 96.72 657 94 657C94 656.67 94 656.34 94 656Z" fill="#E9DEAF"/>
<path d="M544 601C546.64 601 549.28 601 552 601C552 601.33 552 601.66 552 602C549.36 602 546.72 602 544 602C544 601.67 544 601.34 544 601Z" fill="#D8C171"/>
<path d="M716 528C718.64 528 721.28 528 724 528C724 528.33 724 528.66 724 529C721.36 529 718.72 529 716 529C716 528.67 716 528.34 716 528Z" fill="#E9DEAF"/>
<path d="M1051 477C1053.64 477 1056.28 477 1059 477C1059 477.33 1059 477.66 1059 478C1056.36 478 1053.72 478 1051 478C1051 477.67 1051 477.34 1051 477Z" fill="#D8C171"/>
<path d="M1010 434C1012.64 434 1015.28 434 1018 434C1018 434.33 1018 434.66 1018 435C1015.36 435 1012.72 435 1010 435C1010 434.67 1010 434.34 1010 434Z" fill="#E9DEAF"/>
<path d="M1115 430C1117.64 430 1120.28 430 1123 430C1123 430.33 1123 430.66 1123 431C1120.36 431 1117.72 431 1115 431C1115 430.67 1115 430.34 1115 430Z" fill="#E9DEAF"/>
<path d="M191 629C193.31 629 195.62 629 198 629C198 629.33 198 629.66 198 630C195.69 630 193.38 630 191 630C191 629.67 191 629.34 191 629Z" fill="#D8C171"/>
<path d="M469 604C471.31 604 473.62 604 476 604C476 604.33 476 604.66 476 605C473.69 605 471.38 605 469 605C469 604.67 469 604.34 469 604Z" fill="#D8C171"/>
<path d="M568 569C570.31 569 572.62 569 575 569C575 569.33 575 569.66 575 570C572.69 570 570.38 570 568 570C568 569.67 568 569.34 568 569Z" fill="#E9DEAF"/>
<path d="M465 557C467.31 557 469.62 557 472 557C472 557.33 472 557.66 472 558C469.69 558 467.38 558 465 558C465 557.67 465 557.34 465 557Z" fill="#D8C171"/>
<path d="M595 550C597.31 550 599.62 550 602 550C602 550.33 602 550.66 602 551C599.69 551 597.38 551 595 551C595 550.67 595 550.34 595 550Z" fill="#D8C171"/>
<path d="M653 532C655.31 532 657.62 532 660 532C660 532.33 660 532.66 660 533C657.69 533 655.38 533 653 533C653 532.67 653 532.34 653 532Z" fill="#E9DEAF"/>
<path d="M492 497C494.31 497 496.62 497 499 497C499 497.33 499 497.66 499 498C496.69 498 494.38 498 492 498C492 497.67 492 497.34 492 497Z" fill="#D8C171"/>
<path d="M726 453C728.31 453 730.62 453 733 453C733 453.33 733 453.66 733 454C730.69 454 728.38 454 726 454C726 453.67 726 453.34 726 453Z" fill="#E9DEAF"/>
<path d="M684 437C686.31 437 688.62 437 691 437C691 437.33 691 437.66 691 438C688.69 438 686.38 438 684 438C684 437.67 684 437.34 684 437Z" fill="#D8C171"/>
<path d="M932 418C934.31 418 936.62 418 939 418C939 418.33 939 418.66 939 419C936.69 419 934.38 419 932 419C932 418.67 932 418.34 932 418Z" fill="#D8C171"/>
<path d="M232 645C233.98 645 235.96 645 238 645C238 645.33 238 645.66 238 646C236.02 646 234.04 646 232 646C232 645.67 232 645.34 232 645Z" fill="#E9DEAF"/>
<path d="M543 622C544.98 622 546.96 622 549 622C549 622.33 549 622.66 549 623C547.02 623 545.04 623 543 623C543 622.67 543 622.34 543 622Z" fill="#E9DEAF"/>
<path d="M889 596C890.98 596 892.96 596 895 596C895 596.33 895 596.66 895 597C893.02 597 891.04 597 889 597C889 596.67 889 596.34 889 596Z" fill="#E9DEAF"/>
<path d="M380 581C381.98 581 383.96 581 386 581C386 581.33 386 581.66 386 582C384.02 582 382.04 582 380 582C380 581.67 380 581.34 380 581Z" fill="#E9DEAF"/>
<path d="M1084 577C1085.98 577 1087.96 577 1090 577C1090 577.33 1090 577.66 1090 578C1088.02 578 1086.04 578 1084 578C1084 577.67 1084 577.34 1084 577Z" fill="#E9DEAF"/>
<path d="M119 550C120.98 550 122.96 550 125 550C125 550.33 125 550.66 125 551C123.02 551 121.04 551 119 551C119 550.67 119 550.34 119 550Z" fill="#D8C171"/>
<path d="M443 547C444.98 547 446.96 547 449 547C449 547.33 449 547.66 449 548C447.02 548 445.04 548 443 548C443 547.67 443 547.34 443 547Z" fill="#E9DEAF"/>
<path d="M496 543C497.98 543 499.96 543 502 543C502 543.33 502 543.66 502 544C500.02 544 498.04 544 496 544C496 543.67 496 543.34 496 543Z" fill="#E9DEAF"/>
<path d="M959 538C960.98 538 962.96 538 965 538C965 538.33 965 538.66 965 539C963.02 539 961.04 539 959 539C959 538.67 959 538.34 959 538Z" fill="#D8C171"/>
<path d="M1214 537C1215.98 537 1217.96 537 1220 537C1220 537.33 1220 537.66 1220 538C1218.02 538 1216.04 538 1214 538C1214 537.67 1214 537.34 1214 537Z" fill="#D8C171"/>
<path d="M482 497C483.98 497 485.96 497 488 497C488 497.33 488 497.66 488 498C486.02 498 484.04 498 482 498C482 497.67 482 497.34 482 497Z" fill="#D8C171"/>
<path d="M450 454C451.98 454 453.96 454 456 454C456 454.33 456 454.66 456 455C454.02 455 452.04 455 450 455C450 454.67 450 454.34 450 454Z" fill="#D8C171"/>
<path d="M778 449C779.98 449 781.96 449 784 449C784 449.33 784 449.66 784 450C782.02 450 780.04 450 778 450C778 449.67 778 449.34 778 449Z" fill="#E9DEAF"/>
<path d="M278 641C279.65 641 281.3 641 283 641C283 641.33 283 641.66 283 642C281.35 642 279.7 642 278 642C278 641.67 278 641.34 278 641Z" fill="#E9DEAF"/>
<path d="M711 611C712.65 611 714.3 611 716 611C716 611.33 716 611.66 716 612C714.35 612 712.7 612 711 612C711 611.67 711 611.34 711 611Z" fill="#E9DEAF"/>
<path d="M1043 581C1044.65 581 1046.3 581 1048 581C1048 581.33 1048 581.66 1048 582C1046.35 582 1044.7 582 1043 582C1043 581.67 1043 581.34 1043 581Z" fill="#E9DEAF"/>
<path d="M1155 573C1156.65 573 1158.3 573 1160 573C1160 573.33 1160 573.66 1160 574C1158.35 574 1156.7 574 1155 574C1155 573.67 1155 573.34 1155 573Z" fill="#E9DEAF"/>
<path d="M250 569C251.65 569 253.3 569 255 569C255 569.33 255 569.66 255 570C253.35 570 251.7 570 250 570C250 569.67 250 569.34 250 569Z" fill="#E9DEAF"/>
<path d="M66 535C67.65 535 69.3 535 71 535C71 535.33 71 535.66 71 536C69.35 536 67.7 536 66 536C66 535.67 66 535.34 66 535Z" fill="#D8C171"/>
<path d="M346 505C347.65 505 349.3 505 351 505C351 505.33 351 505.66 351 506C349.35 506 347.7 506 346 506C346 505.67 346 505.34 346 505Z" fill="#D8C171"/>
<path d="M252 492C253.65 492 255.3 492 257 492C257 492.33 257 492.66 257 493C255.35 493 253.7 493 252 493C252 492.67 252 492.34 252 492Z" fill="#D8C171"/>
<path d="M975 434C976.65 434 978.3 434 980 434C980 434.33 980 434.66 980 435C978.35 435 976.7 435 975 435C975 434.67 975 434.34 975 434Z" fill="#E9DEAF"/>
<path d="M284 617C288 618 288 618 288 618L284 617Z" fill="#D8C171"/>
<path d="M805 603C809 604 809 604 809 604L805 603Z" fill="#E9DEAF"/>
<path d="M778 584C782 585 782 585 782 585L778 584Z" fill="#D8C171"/>
<path d="M246 580C250 581 250 581 250 581L246 580Z" fill="#D8C171"/>
<path d="M954 569C958 570 958 570 958 570L954 569Z" fill="#D8C171"/>
<path d="M25 565C29 566 29 566 29 566L25 565Z" fill="#D8C171"/>
<path d="M1026 564C1030 565 1030 565 1030 565L1026 564Z" fill="#D8C171"/>
<path d="M1041 563C1045 564 1045 564 1045 564L1041 563Z" fill="#D8C171"/>
<path d="M1067 561C1071 562 1071 562 1071 562L1067 561Z" fill="#D8C171"/>
<path d="M916 541C920 542 920 542 920 542L916 541Z" fill="#D8C171"/>
<path d="M554 539C558 540 558 540 558 540L554 539Z" fill="#E9DEAF"/>
<path d="M786 524C790 525 790 525 790 525L786 524Z" fill="#E9DEAF"/>
<path d="M165 520C169 521 169 521 169 521L165 520Z" fill="#D8C171"/>
<path d="M276 510C280 511 280 511 280 511L276 510Z" fill="#D8C171"/>
<path d="M457 499C461 500 461 500 461 500L457 499Z" fill="#D8C171"/>
<path d="M228 498C228.66 498.33 229.32 498.66 230 499C229.01 499 228.02 499 227 499C227.33 498.67 227.66 498.34 228 498Z" fill="#D8C171"/>
<path d="M521 495C525 496 525 496 525 496L521 495Z" fill="#D8C171"/>
<path d="M562 492C566 493 566 493 566 493L562 492Z" fill="#D8C171"/>
<path d="M604 489C608 490 608 490 608 490L604 489Z" fill="#D8C171"/>
<path d="M462 483C466 484 466 484 466 484L462 483Z" fill="#E9DEAF"/>
<path d="M757 478C761 479 761 479 761 479L757 478Z" fill="#D8C171"/>
<path d="M655 460C659 461 659 461 659 461L655 460Z" fill="#E9DEAF"/>
<path d="M479 453C480 457 480 457 480 457L479 453Z" fill="#E9DEAF"/>
<path d="M623 441C627 442 627 442 627 442L623 441Z" fill="#D8C171"/>
<path d="M634 440C638 441 638 441 638 441L634 440Z" fill="#D8C171"/>
<path d="M653 439C657 440 657 440 657 440L653 439Z" fill="#D8C171"/>
<path d="M894 420C898 421 898 421 898 421L894 420Z" fill="#D8C171"/>
<path d="M925 418C929 419 929 419 929 419L925 418Z" fill="#D8C171"/>
<path d="M950 417C954 418 954 418 954 418L950 417Z" fill="#D8C171"/>
<path d="M150 652C153 653 153 653 153 653L150 652Z" fill="#E9DEAF"/>
<path d="M63 644C66 645 66 645 66 645L63 644Z" fill="#D8C171"/>
<path d="M320 637C323 638 323 638 323 638L320 637Z" fill="#E9DEAF"/>
<path d="M633 618C636 619 636 619 636 619L633 618Z" fill="#E9DEAF"/>
<path d="M330 614C333 615 333 615 333 615L330 614Z" fill="#D8C171"/>
<path d="M387 609C390 610 390 610 390 610L387 609Z" fill="#D8C171"/>
<path d="M753 607C756 608 756 608 756 608L753 607Z" fill="#E9DEAF"/>
<path d="M424 606C427 607 427 607 427 607L424 606Z" fill="#D8C171"/>
<path d="M604 597C607 598 607 598 607 598L604 597Z" fill="#D8C171"/>
<path d="M239 596C242 597 242 597 242 597L239 596Z" fill="#E9DEAF"/>
<path d="M932 592C935 593 935 593 935 593L932 592Z" fill="#E9DEAF"/>
<path d="M415 577C418 578 418 578 418 578L415 577Z" fill="#E9DEAF"/>
<path d="M82 577C85 578 85 578 85 578L82 577Z" fill="#E9DEAF"/>
<path d="M950 569C953 570 953 570 953 570L950 569Z" fill="#D8C171"/>
<path d="M969 568C972 569 972 569 972 569L969 568Z" fill="#D8C171"/>
<path d="M988 567C991 568 991 568 991 568L988 567Z" fill="#D8C171"/>
<path d="M1007 565C1010 566 1010 566 1010 566L1007 565Z" fill="#D8C171"/>
<path d="M1022 564C1025 565 1025 565 1025 565L1022 564Z" fill="#D8C171"/>
<path d="M311 562C314 563 314 563 314 563L311 562Z" fill="#E9DEAF"/>
<path d="M1082 560C1085 561 1085 561 1085 561L1082 560Z" fill="#D8C171"/>
<path d="M1270 553C1273 554 1273 554 1273 554L1270 553Z" fill="#D8C171"/>
<path d="M912 541C915 542 915 542 915 542L912 541Z" fill="#D8C171"/>
<path d="M1233 538C1236 539 1236 539 1236 539L1233 538Z" fill="#D8C171"/>
<path d="M1229 538C1232 539 1232 539 1232 539L1229 538Z" fill="#D8C171"/>
<path d="M244 512C247 513 247 513 247 513L244 512Z" fill="#D8C171"/>
<path d="M262 511C265 512 265 512 265 512L262 511Z" fill="#D8C171"/>
<path d="M258 511C261 512 261 512 261 512L258 511Z" fill="#D8C171"/>
<path d="M1276 509C1279 510 1279 510 1279 510L1276 509Z" fill="#E9DEAF"/>
<path d="M867 441C870 442 870 442 870 442L867 441Z" fill="#E9DEAF"/>
<path d="M614 441C617 442 617 442 617 442L614 441Z" fill="#D8C171"/>
<path d="M639 440C642 441 642 441 642 441L639 440Z" fill="#D8C171"/>
<path d="M658 439C661 440 661 440 661 440L658 439Z" fill="#D8C171"/>
<path d="M692 436C695 437 695 437 695 437L692 436Z" fill="#D8C171"/>
<path d="M736 433C739 434 739 434 739 434L736 433Z" fill="#D8C171"/>
<path d="M754 432C757 433 757 433 757 433L754 432Z" fill="#D8C171"/>
<path d="M767 431C770 432 770 432 770 432L767 431Z" fill="#D8C171"/>
<path d="M879 421C882 422 882 422 882 422L879 421Z" fill="#D8C171"/>
<path d="M875 421C878 422 878 422 878 422L875 421Z" fill="#D8C171"/>
<path d="M1151 414C1154 415 1154 415 1154 415L1151 414Z" fill="#D8C171"/>
<path d="M292 617C294 618 294 618 294 618L292 617Z" fill="#D8C171"/>
<path d="M289 617C291 618 291 618 291 618L289 617Z" fill="#D8C171"/>
<path d="M311 616C313 617 313 617 313 617L311 616Z" fill="#D8C171"/>
<path d="M326 614C328 615 328 615 328 615L326 614Z" fill="#D8C171"/>
<path d="M341 613C343 614 343 614 343 614L341 613Z" fill="#D8C171"/>
<path d="M371 610C373 611 373 611 373 611L371 610Z" fill="#D8C171"/>
<path d="M400 608C402 609 402 609 402 609L400 608Z" fill="#D8C171"/>
<path d="M556 601C558 602 558 602 558 602L556 601Z" fill="#D8C171"/>
<path d="M553 601C555 602 555 602 555 602L553 601Z" fill="#D8C171"/>
<path d="M582 599C584 600 584 600 584 600L582 599Z" fill="#D8C171"/>
<path d="M579 599C581 600 581 600 581 600L579 599Z" fill="#D8C171"/>
<path d="M575 599C577 600 577 600 577 600L575 599Z" fill="#D8C171"/>
<path d="M628 595C630 596 630 596 630 596L628 595Z" fill="#D8C171"/>
<path d="M625 595C627 596 627 596 627 596L625 595Z" fill="#D8C171"/>
<path d="M270 592C272 593 272 593 272 593L270 592Z" fill="#E9DEAF"/>
<path d="M786 584C788 585 788 585 788 585L786 584Z" fill="#D8C171"/>
<path d="M783 584C785 585 785 585 785 585L783 584Z" fill="#D8C171"/>
<path d="M775 584C777 585 777 585 777 585L775 584Z" fill="#D8C171"/>
<path d="M203 577C205 578 205 578 205 578L203 577Z" fill="#E9DEAF"/>
<path d="M451 573C453 574 453 574 453 574L451 573Z" fill="#E9DEAF"/>
<path d="M120 573C122 574 122 574 122 574L120 573Z" fill="#E9DEAF"/>
<path d="M947 569C949 570 949 570 949 570L947 569Z" fill="#D8C171"/>
<path d="M325 569C327 570 327 570 327 570L325 569Z" fill="#D8C171"/>
<path d="M966 568C968 569 968 569 968 569L966 568Z" fill="#D8C171"/>
<path d="M985 567C987 568 987 568 987 568L985 567Z" fill="#D8C171"/>
<path d="M1004 565C1006 566 1006 566 1006 566L1004 565Z" fill="#D8C171"/>
<path d="M22 565C24 566 24 566 24 566L22 565Z" fill="#D8C171"/>
<path d="M1046 563C1048 564 1048 564 1048 564L1046 563Z" fill="#D8C171"/>
<path d="M1064 561C1066 562 1066 562 1066 562L1064 561Z" fill="#D8C171"/>
<path d="M394 561C396 562 396 562 396 562L394 561Z" fill="#D8C171"/>
<path d="M406 560C408 561 408 561 408 561L406 560Z" fill="#D8C171"/>
<path d="M343 558C345 559 345 559 345 559L343 558Z" fill="#E9DEAF"/>
<path d="M496 556C498 557 498 557 498 557L496 556Z" fill="#D8C171"/>
<path d="M537 553C539 554 539 554 539 554L537 553Z" fill="#D8C171"/>
<path d="M534 553C536 554 536 554 536 554L534 553Z" fill="#D8C171"/>
<path d="M34 542C36 543 36 543 36 543L34 542Z" fill="#D8C171"/>
<path d="M921 541C923 542 923 542 923 542L921 541Z" fill="#D8C171"/>
<path d="M969 538C971 539 971 539 971 539L969 538Z" fill="#D8C171"/>
<path d="M966 538C968 539 968 539 968 539L966 538Z" fill="#D8C171"/>
<path d="M951 538C953 539 953 539 953 539L951 538Z" fill="#D8C171"/>
<path d="M74 535C76 536 76 536 76 536L74 535Z" fill="#D8C171"/>
<path d="M172 519C174 520 174 520 174 520L172 519Z" fill="#D8C171"/>
<path d="M281 510C283 511 283 511 283 511L281 510Z" fill="#D8C171"/>
<path d="M300 508C302 509 302 509 302 509L300 508Z" fill="#D8C171"/>
<path d="M326 507C328 508 328 508 328 508L326 507Z" fill="#D8C171"/>
<path d="M323 507C325 508 325 508 325 508L323 507Z" fill="#D8C171"/>
<path d="M320 507C322 508 322 508 322 508L320 507Z" fill="#D8C171"/>
<path d="M363 505C365 506 365 506 365 506L363 505Z" fill="#D8C171"/>
<path d="M360 505C362 506 362 506 362 506L360 505Z" fill="#D8C171"/>
<path d="M357 505C359 506 359 506 359 506L357 505Z" fill="#D8C171"/>
<path d="M394 503C396 504 396 504 396 504L394 503Z" fill="#D8C171"/>
<path d="M391 503C393 504 393 504 393 504L391 503Z" fill="#D8C171"/>
<path d="M420 501C422 502 422 502 422 502L420 501Z" fill="#D8C171"/>
<path d="M417 501C419 502 419 502 419 502L417 501Z" fill="#D8C171"/>
<path d="M414 501C416 502 416 502 416 502L414 501Z" fill="#D8C171"/>
<path d="M462 499C464 500 464 500 464 500L462 499Z" fill="#D8C171"/>
<path d="M503 496C505 497 505 497 505 497L503 496Z" fill="#D8C171"/>
<path d="M500 496C502 497 502 497 502 497L500 496Z" fill="#D8C171"/>
<path d="M216 496C218 497 218 497 218 497L216 496Z" fill="#D8C171"/>
<path d="M213 496C215 497 215 497 215 497L213 496Z" fill="#D8C171"/>
<path d="M526 495C528 496 528 496 528 496L526 495Z" fill="#D8C171"/>
<path d="M184 494C186 495 186 495 186 495L184 494Z" fill="#E9DEAF"/>
<path d="M1234 493C1236 494 1236 494 1236 494L1234 493Z" fill="#D8C171"/>
<path d="M549 493C551 494 551 494 551 494L549 493Z" fill="#D8C171"/>
<path d="M567 492C569 493 569 493 569 493L567 492Z" fill="#D8C171"/>
<path d="M583 491C585 492 585 492 585 492L583 491Z" fill="#D8C171"/>
<path d="M395 490C397 491 397 491 397 491L395 490Z" fill="#E9DEAF"/>
<path d="M612 489C614 490 614 490 614 490L612 489Z" fill="#D8C171"/>
<path d="M609 489C611 490 611 490 611 490L609 489Z" fill="#D8C171"/>
<path d="M631 488C633 489 633 489 633 489L631 488Z" fill="#D8C171"/>
<path d="M628 488C630 489 630 489 630 489L628 488Z" fill="#D8C171"/>
<path d="M625 488C627 489 627 489 627 489L625 488Z" fill="#D8C171"/>
<path d="M699 484C701 485 701 485 701 485L699 484Z" fill="#D8C171"/>
<path d="M722 482C724 483 724 483 724 483L722 482Z" fill="#D8C171"/>
<path d="M1155 477C1157 478 1157 478 1157 478L1155 477Z" fill="#D8C171"/>
<path d="M1152 477C1154 478 1154 478 1154 478L1152 477Z" fill="#D8C171"/>
<path d="M1076 477C1078 478 1078 478 1078 478L1076 477Z" fill="#D8C171"/>
<path d="M774 477C776 478 776 478 776 478L774 477Z" fill="#D8C171"/>
<path d="M835 473C837 474 837 474 837 474L835 473Z" fill="#D8C171"/>
<path d="M832 473C834 474 834 474 834 474L832 473Z" fill="#D8C171"/>
<path d="M316 466C318 467 318 467 318 467L316 466Z" fill="#D8C171"/>
<path d="M447 454C449 455 449 455 449 455L447 454Z" fill="#D8C171"/>
<path d="M509 451C511 452 511 452 511 452L509 451Z" fill="#D8C171"/>
<path d="M500 450C502 451 502 451 502 451L500 450Z" fill="#D8C171"/>
<path d="M827 445C829 446 829 446 829 446L827 445Z" fill="#E9DEAF"/>
<path d="M601 443C603 444 603 444 603 444L601 443Z" fill="#D8C171"/>
<path d="M628 441C630 442 630 442 630 442L628 441Z" fill="#D8C171"/>
<path d="M620 441C622 442 622 442 622 442L620 441Z" fill="#D8C171"/>
<path d="M643 440C645 441 645 441 645 441L643 440Z" fill="#D8C171"/>
<path d="M662 439C664 440 664 440 664 440L662 439Z" fill="#D8C171"/>
<path d="M677 437C679 438 679 438 679 438L677 437Z" fill="#D8C171"/>
<path d="M674 437C676 438 676 438 676 438L674 437Z" fill="#D8C171"/>
<path d="M699 436C701 437 701 437 701 437L699 436Z" fill="#D8C171"/>
<path d="M696 436C698 437 698 437 698 437L696 436Z" fill="#D8C171"/>
<path d="M771 431C773 432 773 432 773 432L771 431Z" fill="#D8C171"/>
<path d="M804 428C806 429 806 429 806 429L804 428Z" fill="#D8C171"/>
<path d="M1227 420C1229 421 1229 421 1229 421L1227 420Z" fill="#D8C171"/>
<path d="M899 420C901 421 901 421 901 421L899 420Z" fill="#D8C171"/>
<path d="M955 417C957 418 957 418 957 418L955 417Z" fill="#D8C171"/>
<path d="M970 416C972 417 972 417 972 417L970 416Z" fill="#D8C171"/>
<path d="M993 414C995 415 995 415 995 415L993 414Z" fill="#D8C171"/>
</svg>
