<svg width="1280" height="237" viewBox="0 0 1280 237" fill="none" xmlns="http://www.w3.org/2000/svg">
<path d="M865 56.3203C888.1 56.6386 911.2 56.9569 935 57.2849C937 63.0724 937 63.0724 937 66.9308C948.88 66.9308 960.76 66.9308 973 66.9308C973 66.6124 973 66.2941 973 65.9662C982.57 64.8472 992.07 64.8858 1001.69 64.9437C1003.28 64.9437 1004.86 64.9534 1006.45 64.9534C1010.3 64.963 1014.15 64.9823 1018 65.0016C1018 64.365 1018 63.7283 1018 63.0724C1034.2 62.976 1050.4 62.947 1066.6 63.3811C1067.98 63.4197 1069.37 63.4486 1070.75 63.4775C1072.69 63.5258 1074.63 63.5836 1076.57 63.6415C1077.67 63.6705 1078.77 63.6994 1079.91 63.7283C1083 64.037 1083 64.037 1086.28 65.1173C1087.63 65.5321 1087.63 65.5321 1089 65.9662C1090.34 65.0112 1091.67 64.0466 1093 63.0724C1096.22 63.2943 1099 63.6415 1102 64.8183C1104.98 65.0884 1106.7 63.4968 1109.16 62.0403C1113.64 59.8507 1118.28 61.1915 1122.94 62.1657C1128.62 63.2653 1133.88 62.9663 1139.61 62.4647C1142.8 62.185 1144.92 62.0789 1148 63.0724C1149.89 63.1399 1151.79 63.1496 1153.69 63.1303C1154.68 63.1206 1155.68 63.111 1156.7 63.111C1157.46 63.0917 1158.22 63.0821 1159 63.0724C1159 62.7541 1159 62.4358 1159 62.1078C1161.02 62.1368 1163.04 62.1753 1165.05 62.2043C1167.08 62.2332 1167.08 62.2332 1169 61.1432C1171.21 61.2301 1173.42 61.3747 1175.62 61.5677C1176.81 61.6641 1178 61.7606 1179.23 61.8667C1180.6 61.9824 1180.6 61.9824 1182 62.1078C1182 62.7445 1182 63.3811 1182 64.037C1183.73 64.2299 1185.46 64.4035 1187.19 64.5772C1188.15 64.6833 1189.11 64.7797 1190.11 64.8858C1193.63 65.0305 1196.61 64.3746 1200 63.5547C1208.03 61.6159 1208.03 61.6159 1212 62.1078C1213.98 64.1142 1213.98 64.1142 1215.75 66.7475C1216.64 68.04 1216.64 68.04 1217.55 69.3615C1219 71.7537 1219 71.7537 1220 74.6474C1223.34 75.7953 1223.34 75.7953 1227 76.5766C1228.14 76.8756 1228.14 76.8756 1229.31 77.1746C1231.04 77.6087 1231.04 77.6087 1233 77.5412C1233 78.1778 1233 78.8144 1233 79.4704C1233.55 79.152 1234.1 78.8434 1234.67 78.5154C1238.84 76.7695 1243.23 77.3579 1247.71 77.4833C1250.43 77.5508 1253.15 77.5701 1255.86 77.5894C1257.95 77.6376 1260.04 77.6762 1262.12 77.7245C1263.15 77.7245 1264.17 77.7341 1265.22 77.7341C1267.9 77.8209 1270.38 77.9367 1273 78.5058C1275.04 80.705 1275.04 80.705 1276 83.3287C1276.39 84.0425 1276.77 84.7563 1277.17 85.4894C1277.5 86.1453 1277.84 86.8109 1278.19 87.4861C1278.53 88.1613 1278.88 88.8365 1279.23 89.531C1279.48 90.0326 1279.74 90.5245 1280 91.0454C1249.38 105.813 1191.26 95.9455 1156.91 96.1384C1156.1 96.148 1155.3 96.148 1154.46 96.1577C1140.27 96.2348 1126.08 96.3024 1111.89 96.3795C1102.6 96.4181 1093.3 96.4664 1084.01 96.5242C1079.28 96.5532 1074.54 96.5725 1069.81 96.5917C1066.9 96.6014 1063.99 96.6207 1061.08 96.64C1059.08 96.6496 1057.09 96.6593 1055.1 96.6593C1053.33 96.6786 1053.33 96.6786 1051.53 96.6882C1050.5 96.6882 1049.48 96.6979 1048.42 96.6979C1045.99 96.6786 1045.99 96.6786 1044 97.7975C1042.2 97.9036 1040.4 97.9518 1038.59 97.9615C1037.45 97.9807 1036.3 97.9904 1035.12 98C1033.85 98.0193 1032.59 98.029 1031.29 98.0386C1029.95 98.0483 1028.61 98.0676 1027.27 98.0772C1024.38 98.1158 1021.49 98.1447 1018.61 98.1737C1010.91 98.2508 1003.21 98.3473 995.51 98.4534C994.72 98.463 993.92 98.4823 993.11 98.492C975.6 98.7331 958.1 99.1575 940.6 99.6591C938.37 99.7266 936.14 99.7845 933.91 99.852C929.76 99.9581 925.61 100.084 921.46 100.209C920.22 100.248 918.98 100.276 917.7 100.315C916.58 100.344 915.46 100.383 914.3 100.421C913.32 100.45 912.34 100.479 911.33 100.508C908.98 100.556 908.98 100.556 907 101.656C905.44 101.791 903.87 101.878 902.31 101.926C901.33 101.964 900.36 101.993 899.35 102.032C898.3 102.071 897.24 102.1 896.16 102.138C894.54 102.196 894.54 102.196 892.88 102.254C888.25 102.427 883.61 102.582 878.98 102.736C875.6 102.862 872.22 102.977 868.84 103.103C867.79 103.141 866.73 103.17 865.65 103.209C864.67 103.238 863.7 103.276 862.69 103.315C861.83 103.344 860.97 103.373 860.09 103.402C857.94 103.469 857.94 103.469 856 104.55C853.8 104.714 851.59 104.829 849.38 104.906C848.7 104.935 848.02 104.964 847.32 104.993C845.84 105.051 844.36 105.099 842.89 105.157C840.55 105.244 838.21 105.331 835.88 105.427C830.08 105.659 824.27 105.871 818.47 106.093C813.57 106.276 808.67 106.469 803.76 106.662C801.46 106.749 799.15 106.836 796.85 106.913C795.44 106.971 794.03 107.029 792.62 107.086C791.39 107.135 790.15 107.173 788.88 107.221C786.06 107.26 786.06 107.26 784 108.408C781.85 108.572 779.7 108.688 777.55 108.765C776.88 108.794 776.22 108.823 775.54 108.852C774.1 108.909 772.66 108.958 771.23 109.016C768.95 109.102 766.68 109.189 764.41 109.286C758.76 109.517 753.12 109.729 747.47 109.951C742.7 110.135 737.93 110.327 733.17 110.52C730.92 110.607 728.68 110.694 726.43 110.771C725.06 110.829 723.69 110.887 722.32 110.945C721.12 110.993 719.92 111.032 718.69 111.08C716.08 111.012 716.08 111.012 715 112.266C713.08 112.44 711.15 112.546 709.23 112.623C707.99 112.681 706.76 112.739 705.49 112.797C704.82 112.816 704.16 112.845 703.47 112.874C701.4 112.961 699.33 113.048 697.26 113.144C692.86 113.337 688.46 113.53 684.06 113.713C678.97 113.925 673.88 114.147 668.79 114.379C666.74 114.466 664.7 114.552 662.65 114.629C661.42 114.687 660.18 114.745 658.9 114.803C657.26 114.871 657.26 114.871 655.59 114.938C653.02 115.006 653.02 115.006 651 116.125C648.26 116.327 645.53 116.491 642.78 116.607C641.97 116.645 641.15 116.684 640.32 116.723C636.83 116.896 633.34 117.051 629.85 117.205C627.31 117.33 624.76 117.446 622.22 117.571C621.03 117.62 621.03 117.62 619.82 117.678C615.78 117.793 615.78 117.793 612 119.018C610.16 119.182 608.32 119.298 606.48 119.375C604.75 119.462 604.75 119.462 602.98 119.549C601.73 119.597 600.48 119.655 599.19 119.713C597.23 119.8 595.28 119.896 593.32 119.993C589.18 120.186 585.05 120.369 580.91 120.562C577.5 120.716 574.1 120.87 570.69 121.034C568.13 121.16 565.58 121.275 563.02 121.382C561.29 121.468 561.29 121.468 559.52 121.555C558.5 121.603 557.48 121.642 556.43 121.69C553.99 121.767 553.99 121.767 552 122.877C550.23 123.041 548.44 123.156 546.66 123.234C545.55 123.291 544.43 123.349 543.29 123.407C541.47 123.484 541.47 123.484 539.62 123.571C538.39 123.629 537.15 123.687 535.88 123.754C531.25 123.976 526.61 124.198 521.98 124.42C517.44 124.632 512.91 124.854 508.38 125.076C507.17 125.134 505.96 125.192 504.71 125.24C503.04 125.327 503.04 125.327 501.34 125.414C500.35 125.462 499.37 125.5 498.35 125.549C495.98 125.635 495.98 125.635 494 126.735C492.38 126.899 490.75 127.015 489.12 127.092C487.6 127.179 487.6 127.179 486.05 127.266C484.95 127.314 483.85 127.372 482.72 127.43C481.03 127.516 481.03 127.516 479.31 127.613C474.48 127.873 469.66 128.124 464.83 128.375C461.31 128.558 457.8 128.741 454.28 128.934C453.18 128.992 452.08 129.05 450.95 129.098C449.43 129.185 449.43 129.185 447.88 129.272C446.98 129.32 446.09 129.359 445.16 129.407C442.95 129.513 442.95 129.513 441 130.593C438.84 130.796 436.67 130.95 434.5 131.076C433.2 131.153 431.9 131.23 430.56 131.317C428.49 131.442 426.43 131.558 424.36 131.674C422.36 131.799 420.37 131.915 418.37 132.04C416.58 132.146 416.58 132.146 414.74 132.252C412.09 132.233 412.09 132.233 411 133.487C408.44 133.767 405.89 133.989 403.32 134.182C402.16 134.268 402.16 134.268 400.98 134.365C398.51 134.558 396.04 134.751 393.56 134.934C390.31 135.185 387.06 135.436 383.82 135.686C383.06 135.744 382.31 135.802 381.54 135.85C377.64 136.111 377.64 136.111 374 137.345C371.7 137.616 369.4 137.837 367.09 138.04C366.07 138.127 366.07 138.127 365.03 138.223C362.12 138.484 359.2 138.734 356.29 138.985C354.16 139.169 352.03 139.361 349.91 139.545C348.63 139.66 347.36 139.767 346.04 139.882C343.09 140.066 343.09 140.066 341 141.204C338.87 141.464 336.73 141.676 334.59 141.86C332.64 142.043 332.64 142.043 330.65 142.226C328.59 142.41 326.52 142.593 324.46 142.766C317.23 143.403 310.13 144.127 303.03 145.622C300.5 146.123 298.01 146.355 295.44 146.509C289.49 146.972 283.93 148.12 278.2 149.692C268.55 152.248 259.83 152.325 250 150.85C249.67 151.168 249.34 151.486 249 151.814C246.31 152.316 243.64 152.769 240.94 153.203C236.59 153.888 232.31 154.592 228.06 155.721C223.44 156.878 218.81 157.11 214.06 157.418C204.21 158.181 195.33 160.312 186 163.389C185.01 163.708 184.02 164.026 183 164.354C183.33 161.807 183.66 159.261 184 156.637C183.11 157.119 182.23 157.592 181.31 158.084C178.12 159.473 176.42 159.82 173 159.531C173 161.759 173 163.987 173 166.283C172.32 166.466 171.65 166.659 170.95 166.852C169.62 167.228 169.62 167.228 168.25 167.614C166.93 167.981 166.93 167.981 165.58 168.357C163.24 169.1 161.17 169.987 159 171.106C159.02 170.209 159.04 169.312 159.06 168.395C159.16 165.299 159.16 165.299 158 162.425C156.02 165.29 154.04 168.154 152 171.106C150.35 170.788 148.7 170.469 147 170.141C147 169.505 147 168.868 147 168.212C145.82 167.768 145.82 167.768 144.62 167.305C142 166.283 142 166.283 140 165.318C140 164.682 140 164.045 140 163.389C140.66 163.389 141.32 163.389 142 163.389C142.33 162.434 142.66 161.479 143 160.496C144.67 159.849 146.33 159.213 148 158.566C148.33 157.611 148.66 156.656 149 155.673C139.87 153.618 126.8 151.428 118 155.673C115.33 155.943 112.68 156.174 110 156.367C108.81 156.454 108.81 156.454 107.6 156.55C104.21 156.811 100.82 157.062 97.42 157.312C94.95 157.496 92.47 157.679 90 157.872C89.23 157.93 88.46 157.988 87.66 158.036C83.7 158.287 83.7 158.287 80 159.531C76.2 159.888 72.38 159.984 68.56 160.129C67.52 160.187 66.48 160.235 65.4 160.283C46.7 161.045 46.7 161.045 41 156.637C38.3 156.811 36.75 157.746 34.42 159.087C30.13 160.852 26.72 160.823 22.12 160.679C20.95 160.66 20.95 160.659 19.75 160.64C17.83 160.602 15.92 160.553 14 160.496C13 157.602 13 157.602 14 154.708C13.01 154.39 12.02 154.071 11 153.743C11.66 152.152 12.32 150.56 13 148.92C13.72 148.93 14.45 148.94 15.2 148.959C20.25 148.998 25.03 148.988 30 147.956C30 147.638 30 147.319 30 146.991C34.62 146.991 39.24 146.991 44 146.991C44 146.673 44 146.355 44 146.027C47.63 146.345 51.26 146.663 55 146.991C55 146.355 55 145.718 55 145.062C56.09 145.101 57.19 145.139 58.31 145.178C62.09 145.371 62.09 145.371 65 143.133C68.19 143.017 68.19 143.017 71 143.133C71 142.815 71 142.496 71 142.168C73.31 142.168 75.62 142.168 78 142.168C78 141.85 78 141.532 78 141.204C78.6 141.146 79.21 141.088 79.83 141.03C80.63 140.943 81.43 140.866 82.25 140.779C83.04 140.702 83.83 140.625 84.64 140.548C87.87 140.123 90.74 139.361 93.81 138.31C97.21 137.278 100.48 136.834 104 136.381C104.99 136.063 105.98 135.744 107 135.416C108.33 135.223 109.66 135.069 111 134.934C111.79 134.857 112.58 134.78 113.39 134.693C117.09 134.355 120.81 134.047 124.52 133.757C126.76 133.516 128.83 133.111 131 132.523C130.67 130.931 130.34 129.339 130 127.7C118.58 127.565 107.22 127.902 95.81 128.471C93.08 128.606 90.35 128.732 87.61 128.857C85.87 128.944 84.13 129.031 82.38 129.108C81.16 129.166 81.16 129.166 79.91 129.224C75.82 129.359 75.82 129.359 72 130.593C69.12 130.661 66.26 130.68 63.38 130.651C62.57 130.651 61.77 130.642 60.95 130.642C58.96 130.632 56.98 130.613 55 130.593C54.38 128.857 54.38 128.857 54 126.735C56.45 123.041 57.96 121.391 62.12 119.616C66.35 118.96 70.28 118.951 74.55 119.134C77.26 119.211 77.26 119.211 80 117.089C81.67 117.051 83.33 117.051 85 117.089C87.2 116.8 87.2 116.8 89 116.125C89.5 115.17 89.5 115.17 90 114.195C94.91 112.749 98.87 112.266 104 112.266C104.99 111.311 104.99 111.311 106 110.337C109.62 110.221 109.62 110.221 113 110.337C113 110.019 113 109.7 113 109.373C116.57 108.572 119.78 108.331 123.44 108.408C127.42 108.446 131.09 108.254 135 107.443C135 107.125 135 106.807 135 106.479C139.62 106.479 144.24 106.479 149 106.479C149 106.16 149 105.842 149 105.514C150.29 105.533 151.58 105.553 152.9 105.572C157.84 105.572 162.66 105.128 167.56 104.55C168.79 104.415 168.79 104.415 170.04 104.27C172.03 104.048 174.01 103.816 176 103.585C176 103.267 176 102.948 176 102.62C182.93 103.103 182.93 103.103 190 103.585C190 102.948 190 102.312 190 101.656C190.57 101.665 191.14 101.675 191.72 101.694C196.61 101.743 201.19 101.482 206 100.691C206 100.373 206 100.055 206 99.7266C210.62 99.7266 215.24 99.7266 220 99.7266C220 99.4083 220 99.09 220 98.7621C222.97 98.7621 225.94 98.7621 229 98.7621C229 98.4438 229 98.1254 229 97.7975C229.87 97.8071 230.74 97.8168 231.63 97.8361C232.79 97.8361 233.94 97.8457 235.12 97.8554C236.26 97.865 237.4 97.8843 238.57 97.8939C241.81 97.8071 244.82 97.4213 248 96.8329C248 96.5146 248 96.1963 248 95.8683C254.93 95.8683 261.86 95.8683 269 95.8683C269 95.55 269 95.2317 269 94.9037C273.95 95.222 278.9 95.5403 284 95.8683C284 95.2317 284 94.5951 284 93.9391C290.27 93.6208 296.54 93.3025 303 92.9746C303 92.6562 303 92.3379 303 92.01C313.23 92.01 323.46 92.01 334 92.01C334 91.6917 334 91.3733 334 91.0454C335.09 91.0647 335.09 91.0647 336.21 91.084C343.03 91.1322 349.82 90.9972 356.62 90.6788C357.41 90.6499 358.19 90.621 358.99 90.592C362.78 90.3991 364.78 90.2255 368 88.1516C370.61 87.9876 373.12 87.9298 375.73 87.9587C376.48 87.9684 377.23 87.9684 378 87.9684C380.4 87.978 382.79 88.0069 385.19 88.0359C386.81 88.0455 388.44 88.0455 390.06 88.0552C394.04 88.0745 398.02 88.113 402 88.1516C402 87.8333 402 87.515 402 87.187C402.85 87.1967 403.69 87.2063 404.56 87.2256C410.82 87.2642 416.82 87.1581 423 86.2225C423 85.9041 423 85.5858 423 85.2579C426.63 85.2579 430.26 85.2579 434 85.2579C434 84.9396 434 84.6212 434 84.2933C435.38 84.3029 435.38 84.3029 436.78 84.3126C440.2 84.3222 443.61 84.3415 447.02 84.3415C448.5 84.3512 449.98 84.3608 451.45 84.3705C453.58 84.3801 455.7 84.3801 457.83 84.3897C459.11 84.3897 460.38 84.3994 461.7 84.3994C464.39 84.3126 466.45 84.0425 469 83.3287C470.94 83.3094 472.88 83.3383 474.81 83.3866C485.25 83.483 495.62 82.3738 506 81.3995C506 81.0812 506 80.7629 506 80.4349C521.74 80.2613 521.74 80.2613 529 81.3995C529 80.7629 529 80.1263 529 79.4704C536.68 78.8241 544.28 78.3514 552 78.5058C552 78.1875 552 77.8691 552 77.5412C559.59 77.5412 567.18 77.5412 575 77.5412C575 77.2229 575 76.9046 575 76.5766C578.63 76.5766 582.26 76.5766 586 76.5766C586 76.2583 586 75.94 586 75.612C605.34 74.4642 605.34 74.4642 615 74.6474C615 74.3291 615 74.0108 615 73.6828C621.27 73.6828 627.54 73.6828 634 73.6828C634 73.3645 634 73.0462 634 72.7183C640.6 72.7183 647.2 72.7183 654 72.7183C654.33 72.0816 654.66 71.445 655 70.7891C666.88 70.7891 678.76 70.7891 691 70.7891C691 70.4708 691 70.1525 691 69.8245C696.28 69.8245 701.56 69.8245 707 69.8245C707 69.5062 707 69.1879 707 68.8599C707.95 68.8696 708.91 68.8792 709.89 68.8985C711.14 68.8985 712.4 68.9082 713.69 68.9178C715.55 68.9371 715.55 68.9371 717.45 68.9564C720.46 68.8696 723.08 68.5802 726 67.8953C726 67.577 726 67.2587 726 66.9308C730.62 66.9308 735.24 66.9308 740 66.9308C740 66.6124 740 66.2941 740 65.9662C740.71 65.9758 741.42 65.9855 742.15 66.0047C743.07 66.0047 743.99 66.0144 744.94 66.024C746.31 66.0433 746.31 66.0433 747.71 66.0626C749.97 66.217 749.97 66.217 751 65.0016C753.35 64.7701 755.71 64.6061 758.06 64.4614C759.35 64.3746 760.64 64.2974 761.97 64.2106C762.97 64.1527 763.97 64.0949 765 64.037C765 63.7187 765 63.4004 765 63.0724C769.29 63.0724 773.58 63.0724 778 63.0724C778 62.7541 778 62.4358 778 62.1078C784.52 61.2686 790.88 61.095 797.44 61.1432C807.32 61.2108 817.14 60.7767 827 60.1787C827 59.8603 827 59.542 827 59.2141C831.63 59.3298 836.25 59.4456 840.88 59.571C842.45 59.6192 844.03 59.6578 845.6 59.6964C847.86 59.7542 850.13 59.8121 852.39 59.87C853.09 59.8893 853.79 59.9086 854.52 59.9182C857.8 60.0147 860.85 60.1883 864 61.1432C864.33 59.5517 864.66 57.9601 865 56.3203ZM788 62.1078C788 62.4261 788 62.7445 788 63.0724C789.98 63.0724 791.96 63.0724 794 63.0724C794 62.7541 794 62.4358 794 62.1078C792.02 62.1078 790.04 62.1078 788 62.1078ZM1131 64.037C1131 64.3553 1131 64.6736 1131 65.0016C1133.97 65.0016 1136.94 65.0016 1140 65.0016C1140 64.6833 1140 64.365 1140 64.037C1137.03 64.037 1134.06 64.037 1131 64.037ZM984 65.9662C984 66.2845 984 66.6028 984 66.9308C989.28 66.9308 994.56 66.9308 1000 66.9308C1000 66.6124 1000 66.2941 1000 65.9662C994.72 65.9662 989.44 65.9662 984 65.9662ZM154 154.708C154.33 155.981 154.66 157.255 155 158.566C156.05 158.267 157.1 157.968 158.19 157.66C162 156.637 162 156.637 164.69 156.271C167.68 155.499 169 154.033 171 151.814C164.54 151.428 159.94 152.21 154 154.708ZM171 152.779C171 153.415 171 154.052 171 154.708C172.65 154.708 174.3 154.708 176 154.708C175.34 154.071 174.68 153.435 174 152.779C173.01 152.779 172.02 152.779 171 152.779ZM150 156.637C151 158.566 151 158.566 151 158.566L150 156.637Z" fill="#C49102"/>
<path d="M1099 120.947C1141.57 120.947 1184.14 120.947 1228 120.947C1228 121.266 1228 121.584 1228 121.912C1229.11 121.883 1229.11 121.883 1230.24 121.844C1248.31 121.536 1248.31 121.536 1252.8 125.384C1255.82 129.503 1256.54 133.352 1256.47 138.329C1255.88 140.712 1255 141.647 1253 143.133C1249.96 142.853 1248.61 141.917 1246 140.239C1239.25 140.567 1231.45 143.171 1226.19 147.232C1224 148.92 1224 148.92 1221.06 149.345C1218 148.92 1218 148.92 1215.19 147.358C1210.68 145.477 1207.51 146.354 1203 147.956C1201.81 148.592 1200.62 149.239 1199.43 149.885C1194.82 152.113 1190.64 152.537 1185.54 152.788C1184.67 152.846 1183.8 152.904 1182.9 152.962C1180.14 153.135 1177.38 153.29 1174.62 153.444C1171.85 153.608 1169.07 153.782 1166.29 153.955C1164.57 154.061 1162.84 154.158 1161.12 154.254C1156.93 154.409 1156.93 154.409 1153 155.672C1150.83 155.836 1148.65 155.952 1146.47 156.029C1145.8 156.058 1145.13 156.087 1144.44 156.116C1142.98 156.174 1141.53 156.222 1140.07 156.28C1137.77 156.367 1135.47 156.454 1133.16 156.55C1127.44 156.782 1121.73 156.994 1116.01 157.216C1111.17 157.399 1106.34 157.592 1101.51 157.785C1099.24 157.872 1096.97 157.958 1094.7 158.036C1093.31 158.093 1091.92 158.151 1090.53 158.209C1088.71 158.277 1088.71 158.277 1086.85 158.344C1084.05 158.392 1084.05 158.392 1082 159.531C1079.11 159.81 1076.24 160.032 1073.34 160.225C1072.49 160.283 1071.63 160.341 1070.74 160.408C1067.06 160.669 1063.38 160.92 1059.7 161.17C1057.02 161.354 1054.34 161.537 1051.66 161.73C1050.82 161.788 1049.98 161.846 1049.12 161.894C1044.93 162.106 1044.93 162.106 1041 163.389C1039.14 163.592 1037.27 163.746 1035.41 163.871C1034.29 163.948 1033.18 164.026 1032.04 164.112C1029.68 164.276 1027.32 164.431 1024.96 164.595C1023.85 164.672 1022.74 164.749 1021.59 164.836C1020.06 164.942 1020.06 164.942 1018.49 165.048C1016 165.183 1016 165.183 1014 166.283C1011.04 166.563 1008.09 166.784 1005.12 166.977C1004.24 167.035 1003.36 167.093 1002.46 167.161C998.68 167.421 994.91 167.672 991.13 167.923C988.38 168.106 985.63 168.289 982.88 168.482C982.02 168.54 981.16 168.598 980.27 168.646C976 168.849 976 168.849 972 170.141C969.04 170.421 966.09 170.643 963.12 170.836C962.24 170.893 961.36 170.951 960.46 171.019C956.68 171.279 952.91 171.53 949.13 171.781C946.38 171.964 943.63 172.147 940.88 172.34C940.02 172.398 939.16 172.456 938.27 172.504C934 172.707 934 172.707 930 173.999C926.95 174.279 923.92 174.501 920.87 174.694C919.97 174.752 919.06 174.81 918.13 174.877C914.25 175.138 910.37 175.388 906.48 175.639C903.65 175.823 900.82 176.006 898 176.199C897.11 176.257 896.23 176.314 895.31 176.363C891.33 176.276 891.33 176.276 888 177.858C885.88 178.07 883.76 178.215 881.63 178.34C880.33 178.417 879.04 178.494 877.7 178.581C876.32 178.658 874.94 178.745 873.56 178.822C870.88 178.977 868.19 179.141 865.5 179.305C864.31 179.372 863.11 179.44 861.87 179.517C859.06 179.613 859.06 179.613 857 180.752C855.35 180.916 853.69 181.031 852.03 181.108C851 181.166 849.96 181.224 848.9 181.282C847.78 181.33 846.65 181.388 845.5 181.446C844.35 181.504 843.21 181.562 842.03 181.629C837.1 181.89 832.18 182.141 827.26 182.391C823.67 182.575 820.09 182.758 816.5 182.951C815.38 183.009 814.26 183.067 813.1 183.115C812.07 183.173 811.03 183.231 809.97 183.288C809.06 183.337 808.14 183.375 807.2 183.423C804.96 183.52 804.96 183.52 803 184.61C801.41 184.774 799.81 184.89 798.21 184.967C796.72 185.054 796.72 185.054 795.2 185.14C794.12 185.189 793.05 185.247 791.94 185.304C790.28 185.391 790.28 185.391 788.6 185.488C783.87 185.748 779.13 185.999 774.4 186.25C770.96 186.433 767.51 186.616 764.06 186.809C762.99 186.867 761.91 186.925 760.8 186.973C759.31 187.06 759.31 187.06 757.79 187.147C756.91 187.195 756.03 187.234 755.13 187.282C752.95 187.388 752.95 187.388 751 188.468C748.04 188.748 745.09 188.97 742.12 189.163C740.8 189.25 740.8 189.25 739.46 189.346C735.68 189.606 731.91 189.857 728.13 190.108C725.38 190.291 722.63 190.475 719.88 190.667C718.59 190.754 718.59 190.754 717.27 190.831C713 191.034 713 191.034 709 192.327C707.06 192.529 705.1 192.683 703.15 192.809C701.99 192.886 700.83 192.963 699.63 193.05C697.16 193.214 694.7 193.368 692.23 193.532C691.07 193.609 689.91 193.687 688.71 193.773C687.64 193.841 686.57 193.908 685.47 193.986C683.06 193.995 683.06 193.995 682 195.22C680.48 195.394 678.95 195.5 677.42 195.577C676.45 195.635 675.47 195.693 674.47 195.751C673.41 195.799 672.35 195.857 671.25 195.915C670.17 195.973 669.09 196.031 667.98 196.098C664.51 196.291 661.03 196.484 657.56 196.667C653 196.918 648.44 197.169 643.88 197.42C642.29 197.506 642.29 197.506 640.67 197.584C639.69 197.641 638.72 197.699 637.71 197.757C636.85 197.805 635.98 197.844 635.09 197.892C632.94 197.998 632.94 197.998 631 199.079C628.23 199.252 625.48 199.368 622.71 199.436C621.43 199.474 621.43 199.474 620.11 199.522C618.25 199.58 616.39 199.628 614.52 199.686C611.58 199.773 608.63 199.86 605.69 199.956C598.37 200.188 591.06 200.4 583.75 200.622C577.57 200.805 571.39 200.998 565.21 201.191C562.3 201.278 559.39 201.365 556.48 201.442C554.71 201.5 552.93 201.558 551.16 201.616C550.34 201.635 549.53 201.654 548.69 201.683C545.04 201.48 545.04 201.48 542 202.937C539.4 203.111 536.81 203.226 534.21 203.294C533.39 203.323 532.57 203.352 531.73 203.381C529.96 203.439 528.18 203.487 526.4 203.545C523.59 203.632 520.78 203.718 517.97 203.815C512 204.008 506.03 204.201 500.06 204.384C493.15 204.596 486.24 204.818 479.33 205.049C476.56 205.136 473.78 205.223 471.01 205.3C469.31 205.358 467.62 205.416 465.92 205.474C465.15 205.493 464.37 205.512 463.57 205.541C459.66 205.609 459.66 205.609 456 206.795C454.59 206.93 453.17 207.017 451.75 207.065C450.87 207.104 449.99 207.133 449.09 207.172C448.14 207.21 447.19 207.239 446.21 207.278C445.24 207.316 444.27 207.355 443.27 207.393C439.1 207.567 434.93 207.721 430.76 207.876C427.73 208.001 424.69 208.117 421.65 208.242C420.7 208.281 419.75 208.31 418.77 208.348C417.9 208.377 417.02 208.416 416.12 208.454C415.35 208.483 414.57 208.512 413.78 208.541C411.98 208.541 411.98 208.541 411 209.689C409.54 209.863 408.07 209.969 406.6 210.046C405.2 210.133 405.2 210.133 403.77 210.22C402.76 210.268 401.74 210.326 400.69 210.384C399.14 210.47 399.14 210.47 397.55 210.567C394.22 210.76 390.89 210.953 387.56 211.136C383.19 211.387 378.81 211.638 374.44 211.888C373.43 211.946 372.41 212.004 371.37 212.052C369.96 212.139 369.96 212.139 368.53 212.226C367.7 212.274 366.87 212.313 366.02 212.361C363.93 212.477 363.93 212.477 362 213.547C360.65 213.711 359.3 213.818 357.95 213.904C356.7 213.991 356.7 213.991 355.42 214.078C354.52 214.126 353.62 214.184 352.69 214.242C351.3 214.329 351.3 214.329 349.89 214.425C345.92 214.686 341.95 214.936 337.99 215.187C335.09 215.371 332.2 215.554 329.31 215.747C328.41 215.805 327.51 215.862 326.58 215.911C325.33 215.997 325.33 215.997 324.05 216.084C323.32 216.133 322.58 216.171 321.82 216.219C319.9 216.354 319.9 216.354 318 217.406C315.04 217.686 312.09 217.907 309.12 218.1C308.24 218.158 307.36 218.216 306.46 218.284C302.68 218.544 298.91 218.795 295.13 219.046C292.38 219.229 289.63 219.412 286.88 219.605C286.02 219.663 285.16 219.721 284.27 219.769C280 219.972 280 219.972 276 221.264C274.59 221.428 273.18 221.534 271.77 221.621C270.45 221.708 270.45 221.708 269.12 221.795C268.17 221.843 267.22 221.901 266.25 221.959C264.8 222.045 264.8 222.045 263.31 222.142C259.16 222.402 255 222.653 250.84 222.904C247.81 223.087 244.78 223.27 241.75 223.463C240.8 223.521 239.86 223.579 238.88 223.627C237.57 223.714 237.57 223.714 236.23 223.801C235.46 223.849 234.69 223.888 233.9 223.936C231.91 224.061 231.91 224.061 230 225.122C227.77 225.325 225.54 225.479 223.31 225.605C222.65 225.643 222 225.682 221.32 225.721C218.5 225.894 215.68 226.048 212.86 226.203C210.8 226.328 208.74 226.444 206.69 226.569C204.84 226.675 204.84 226.675 202.95 226.782C200.07 226.868 200.07 226.868 198 228.016C196.47 228.18 194.93 228.296 193.4 228.373C192.44 228.431 191.49 228.489 190.51 228.547C189.47 228.595 188.44 228.653 187.38 228.711C185.79 228.798 185.79 228.798 184.17 228.894C179.63 229.154 175.09 229.405 170.55 229.656C167.24 229.839 163.93 230.023 160.62 230.215C159.59 230.273 158.56 230.331 157.49 230.379C156.06 230.466 156.06 230.466 154.6 230.553C153.76 230.601 152.92 230.64 152.05 230.688C149.94 230.804 149.94 230.804 148 231.875C146.29 232.039 144.57 232.154 142.85 232.231C141.24 232.318 141.24 232.318 139.59 232.405C138.43 232.453 137.26 232.511 136.06 232.569C134.28 232.656 134.28 232.656 132.45 232.752C127.34 233.013 122.23 233.264 117.11 233.514C113.39 233.698 109.66 233.881 105.94 234.074C104.77 234.132 103.61 234.19 102.41 234.238C100.8 234.325 100.8 234.325 99.1501 234.411C98.2001 234.46 97.2501 234.498 96.2801 234.546C93.9701 234.643 93.97 234.643 92 235.733C89.49 235.974 87.01 236.148 84.5 236.273C83.7 236.312 82.9101 236.36 82.0901 236.398C67.7401 237.025 53.35 236.775 39 236.698C37.8 230.244 37.8 230.244 39.62 227.534C42 226.087 42 226.087 44.75 226.328C45.86 226.685 45.86 226.685 47 227.052C47 226.415 47 225.778 47 225.122C49.97 224.64 49.97 224.64 53 224.158C53 224.476 53 224.795 53 225.122C55.13 225.016 57.2501 224.891 59.3801 224.756C60.5601 224.698 61.74 224.631 62.96 224.553C66.11 224.447 66.11 224.447 68 222.229C70.33 222.19 72.67 222.19 75 222.229C76.34 221.949 77.68 221.621 79 221.264C81.33 220.927 83.66 220.599 86 220.3C86 219.981 86 219.663 86 219.335C89.63 219.335 93.26 219.335 97 219.335C97 219.017 97 218.698 97 218.37C98.13 218.39 99.27 218.409 100.44 218.428C103.82 218.776 103.82 218.776 105 217.406C107.65 216.972 110.32 216.731 113 216.441C113 216.123 113 215.805 113 215.477C115.31 215.477 117.62 215.477 120 215.477C120 215.158 120 214.84 120 214.512C121.95 214.58 123.91 214.637 125.86 214.705C128.05 214.637 128.05 214.637 129.97 213.547C132.4 212.39 134.06 212.39 136.75 212.467C137.55 212.477 138.35 212.496 139.17 212.515C139.78 212.535 140.38 212.564 141 212.583C141 212.265 141 211.946 141 211.618C149.58 211.618 158.16 211.618 167 211.618C167 211.3 167 210.982 167 210.654C177.56 210.335 188.12 210.017 199 209.689C199 209.371 199 209.052 199 208.725C199.68 208.734 200.35 208.744 201.05 208.763C202.38 208.773 202.38 208.773 203.75 208.782C204.63 208.792 205.51 208.811 206.42 208.821C208.82 208.734 210.69 208.358 213 207.76C216.3 207.249 219.6 206.786 222.91 206.313C225.33 205.937 227.63 205.455 230 204.866C237.46 203.641 237.46 203.641 240 204.866C240 204.23 240 203.593 240 202.937C240.68 202.879 241.35 202.821 242.05 202.763C242.94 202.677 243.83 202.599 244.75 202.513C245.63 202.435 246.51 202.358 247.42 202.281C249.7 202.011 251.78 201.548 254 201.008C255.67 200.969 257.33 200.96 259 201.008C259 200.69 259 200.371 259 200.043C260.07 200.063 260.07 200.063 261.15 200.082C262.53 200.091 262.53 200.091 263.94 200.101C264.85 200.111 265.77 200.13 266.71 200.14C268.97 200.294 268.97 200.294 270 199.079C278.3 198.076 286.65 197.979 295 198.114C295 197.796 295 197.477 295 197.15C301.27 197.15 307.54 197.15 314 197.15C314 196.831 314 196.513 314 196.185C314.69 196.195 315.38 196.204 316.09 196.224C326.7 196.359 326.7 196.359 337 194.256C338.39 194.188 339.79 194.169 341.19 194.198C342.45 194.217 343.7 194.236 345 194.256C345 193.937 345 193.619 345 193.291C348.96 193.291 352.92 193.291 357 193.291C357 192.973 357 192.655 357 192.327C357.88 192.336 358.76 192.346 359.67 192.365C360.83 192.365 361.99 192.375 363.19 192.384C364.91 192.404 364.91 192.404 366.67 192.423C369.59 192.336 372.16 192.018 375 191.362C375 191.044 375 190.725 375 190.397C380.28 190.397 385.56 190.397 391 190.397C391 190.079 391 189.761 391 189.433C395.95 189.433 400.9 189.433 406 189.433C406 189.115 406 188.796 406 188.468C407.98 188.285 409.96 188.102 411.94 187.928C413.04 187.822 414.14 187.726 415.28 187.619C416.18 187.581 417.07 187.542 418 187.504C418.33 187.822 418.66 188.14 419 188.468C420.53 188.381 422.05 188.227 423.56 188.044C424.39 187.947 425.22 187.851 426.07 187.745C426.7 187.668 427.34 187.59 428 187.504C428 187.185 428 186.867 428 186.539C438.62 185.526 449.15 185.459 459.81 185.517C461.49 185.517 463.16 185.526 464.84 185.526C468.89 185.536 472.95 185.555 477 185.574C477 185.256 477 184.938 477 184.61C477.9 184.581 478.8 184.562 479.72 184.533C483.05 184.446 486.38 184.349 489.71 184.253C491.15 184.205 492.59 184.166 494.03 184.128C496.1 184.07 498.17 184.012 500.24 183.954C501.49 183.915 502.73 183.877 504.02 183.848C506.93 183.838 506.93 183.838 509 182.681C510.6 182.594 512.21 182.565 513.82 182.575C514.82 182.575 515.82 182.575 516.85 182.575C517.93 182.575 519.02 182.584 520.13 182.584C521.24 182.584 522.35 182.594 523.49 182.594C527.03 182.594 530.58 182.604 534.12 182.623C536.52 182.623 538.92 182.632 541.32 182.632C547.22 182.642 553.11 182.661 559 182.681C559 182.362 559 182.044 559 181.716C559.96 181.726 560.91 181.735 561.89 181.755C575.13 182.121 575.13 182.121 588 179.787C589.56 179.719 591.13 179.7 592.69 179.729C593.9 179.739 593.9 179.739 595.14 179.748C595.75 179.768 596.37 179.777 597 179.787C597 179.469 597 179.15 597 178.822C600.63 178.822 604.26 178.822 608 178.822C608 178.504 608 178.186 608 177.858C609.21 177.867 610.41 177.877 611.66 177.896C613.27 177.896 614.89 177.906 616.5 177.916C617.29 177.925 618.08 177.935 618.9 177.945C624.03 177.964 628.92 177.607 634 176.893C634 176.575 634 176.257 634 175.929C641.92 175.08 649.72 174.858 657.68 174.935C660.1 174.954 662.52 174.964 664.93 174.974C668.69 174.993 672.44 175.022 676.2 175.06C679.86 175.089 683.52 175.099 687.18 175.118C688.29 175.128 689.4 175.147 690.54 175.157C697.88 175.176 704.8 174.414 712 173.035C712 172.717 712 172.398 712 172.07C714.97 172.07 717.94 172.07 721 172.07C721 171.752 721 171.434 721 171.106C727.31 169.813 733.54 170.093 739.95 170.18C746.67 170.238 753.56 170.257 760.11 168.665C762.45 168.106 764.61 168.144 767 168.212C767 167.894 767 167.575 767 167.247C773.62 166.167 773.62 166.167 777 167.247C779.19 167.189 781.38 167.064 783.56 166.881C784.72 166.794 785.88 166.707 787.07 166.62C789.93 166.456 789.93 166.456 792 165.318C794 165.28 796 165.28 798 165.318C798 165 798 164.682 798 164.354C802.29 164.672 806.58 164.99 811 165.318C811 164.682 811 164.045 811 163.389C814.63 163.389 818.26 163.389 822 163.389C821.34 162.752 820.68 162.116 820 161.46C834.55 160.679 849.04 160.399 863.61 160.534C864.88 160.543 866.14 160.543 867.44 160.553C868.56 160.563 869.68 160.582 870.84 160.592C873.98 160.495 876.91 160.09 880 159.531C882.66 159.183 885.33 158.875 888 158.566C888 158.248 888 157.929 888 157.602C891.3 157.602 894.6 157.602 898 157.602C898 157.283 898 156.965 898 156.637C898.63 156.656 899.26 156.685 899.91 156.704C904.17 156.791 908.06 156.782 912.19 155.672C916.11 154.679 919 154.544 923 154.708C923 154.389 923 154.071 923 153.743C928.28 153.743 933.56 153.743 939 153.743C939 153.425 939 153.107 939 152.779C939.61 152.788 940.21 152.798 940.84 152.817C946.96 152.875 952.92 152.508 959 151.814C959 151.496 959 151.177 959 150.849C963.62 150.849 968.24 150.849 973 150.849C973 150.531 973 150.213 973 149.885C979.27 149.885 985.54 149.885 992 149.885C992 149.567 992 149.248 992 148.92C993.41 148.94 993.41 148.94 994.85 148.959C996.72 148.968 996.72 148.968 998.62 148.978C999.85 148.988 1001.08 149.007 1002.35 149.017C1005.68 148.93 1008.74 148.573 1012 147.956C1012 147.637 1012 147.319 1012 146.991C1018.27 146.991 1024.54 146.991 1031 146.991C1031 146.673 1031 146.354 1031 146.026C1036.94 146.026 1042.88 146.026 1049 146.026C1049 145.708 1049 145.39 1049 145.062C1050.07 145.072 1051.15 145.081 1052.25 145.1C1053.69 145.1 1055.13 145.11 1056.56 145.12C1057.62 145.139 1057.62 145.139 1058.7 145.149C1063.24 145.168 1067.52 144.821 1072 144.097C1072 143.779 1072 143.461 1072 143.133C1073.26 143.162 1074.53 143.2 1075.83 143.239C1077.49 143.258 1079.15 143.287 1080.81 143.316C1081.65 143.335 1082.48 143.364 1083.34 143.384C1084.14 143.393 1084.94 143.403 1085.77 143.412C1086.88 143.441 1086.88 143.441 1088.01 143.461C1090.53 143.046 1091.29 142.014 1093 140.239C1085.5 138.686 1078.44 138.059 1070.77 138.175C1069.74 138.184 1068.7 138.194 1067.63 138.204C1065.48 138.223 1063.32 138.242 1061.17 138.271C1058.18 138.31 1055.19 138.329 1052.2 138.348C1046.34 138.387 1040.48 138.435 1034.61 138.483C1032.43 138.503 1030.26 138.522 1028.08 138.541C1021.16 138.609 1014.23 138.667 1007.31 138.734C1006.14 138.744 1004.97 138.754 1003.76 138.763C961.31 139.149 961.31 139.149 918.87 139.699C916.3 139.737 913.73 139.776 911.17 139.805C907.72 139.853 904.26 139.911 900.81 139.969C899.83 139.979 898.84 139.998 897.82 140.007C896.5 140.027 896.5 140.027 895.14 140.056C894.39 140.065 893.63 140.085 892.84 140.094C890.9 140.133 890.9 140.133 889 141.204C887.23 141.329 885.46 141.387 883.69 141.425C882.56 141.445 881.43 141.474 880.27 141.493C879.03 141.522 877.78 141.541 876.5 141.56C874.5 141.609 872.5 141.647 870.5 141.686C868.34 141.734 866.19 141.773 864.03 141.811C859.55 141.898 855.06 141.985 850.57 142.081C840.24 142.294 829.9 142.496 819.57 142.699C810.1 142.882 800.63 143.075 791.16 143.268C786.69 143.355 782.23 143.451 777.77 143.528C775.66 143.567 773.55 143.615 771.45 143.654C768.88 143.711 766.3 143.76 763.73 143.808C762.6 143.827 761.48 143.856 760.31 143.875C758.84 143.904 758.84 143.904 757.33 143.933C754.98 143.953 754.98 143.953 753 145.062C750.63 145.207 748.29 145.284 745.92 145.332C745.19 145.351 744.46 145.371 743.71 145.39C742.13 145.419 740.54 145.457 738.96 145.496C736.46 145.544 733.95 145.602 731.45 145.66C725.23 145.814 719.01 145.949 712.79 146.084C707.53 146.2 702.28 146.326 697.03 146.451C694.55 146.509 692.08 146.557 689.61 146.615C688.1 146.644 686.59 146.682 685.08 146.721C684.04 146.74 684.04 146.74 682.99 146.76C679.37 146.817 679.37 146.817 676 147.956C674.56 148.071 673.12 148.139 671.67 148.178C670.76 148.197 669.86 148.226 668.92 148.245C667.92 148.274 666.92 148.293 665.89 148.313C664.84 148.341 663.79 148.37 662.71 148.399C660.42 148.457 658.13 148.505 655.85 148.563C652.24 148.65 648.62 148.737 645.01 148.833C636.03 149.065 627.06 149.277 618.09 149.499C610.51 149.682 602.93 149.875 595.35 150.068C591.78 150.155 588.21 150.242 584.64 150.319C582.46 150.377 580.29 150.435 578.11 150.493C577.11 150.512 576.11 150.531 575.08 150.56C574.17 150.579 573.26 150.608 572.33 150.628C571.14 150.656 571.14 150.656 569.93 150.685C567.92 150.743 567.92 150.743 566 151.814C563.08 151.959 560.18 152.045 557.26 152.084C556.36 152.103 555.45 152.123 554.52 152.142C551.5 152.19 548.49 152.248 545.47 152.296C543.37 152.335 541.26 152.373 539.16 152.412C533.6 152.518 528.03 152.624 522.47 152.721C513.62 152.875 504.78 153.039 495.93 153.203C492.87 153.261 489.8 153.309 486.74 153.367C477.55 153.531 468.38 153.762 459.2 154.197C458.4 154.235 457.6 154.264 456.77 154.303C452.75 154.447 452.75 154.447 449 155.672C446.46 155.942 443.94 156.174 441.4 156.367C440.65 156.425 439.9 156.483 439.13 156.55C435.92 156.811 432.71 157.061 429.49 157.312C427.15 157.495 424.81 157.679 422.46 157.872C421.73 157.929 421 157.987 420.25 158.036C416.83 158.055 416.83 158.055 414 159.531C411.51 159.81 409.03 160.032 406.54 160.225C405.79 160.283 405.04 160.341 404.27 160.408C401.87 160.601 399.46 160.794 397.06 160.978C393.91 161.228 390.75 161.479 387.6 161.73C386.87 161.788 386.14 161.846 385.38 161.894C381.57 162.164 381.57 162.164 378 163.389C375.04 163.601 372.09 163.756 369.12 163.871C367.8 163.929 367.8 163.929 366.46 163.987C362.68 164.161 358.91 164.315 355.13 164.469C352.38 164.595 349.63 164.711 346.88 164.836C346.02 164.874 345.16 164.903 344.27 164.942C340 165.029 340 165.029 336 166.283C333.4 166.553 330.82 166.784 328.22 166.977C327.45 167.035 326.68 167.093 325.89 167.161C322.59 167.421 319.29 167.672 315.99 167.923C313.59 168.106 311.19 168.289 308.78 168.482C308.03 168.54 307.28 168.598 306.51 168.646C302.63 168.906 302.63 168.906 299 170.141C296.85 170.411 294.69 170.633 292.53 170.836C291.24 170.961 289.95 171.077 288.61 171.212C286.55 171.395 284.49 171.588 282.43 171.781C280.44 171.964 278.46 172.157 276.47 172.34C274.68 172.504 274.68 172.504 272.86 172.678C270.06 172.871 270.06 172.871 268 173.999C265.85 174.27 263.69 174.491 261.53 174.694C260.24 174.819 258.95 174.935 257.61 175.07C255.55 175.253 253.49 175.446 251.43 175.639C249.44 175.823 247.46 176.015 245.47 176.199C243.68 176.363 243.68 176.363 241.86 176.536C239.06 176.729 239.06 176.729 237 177.858C234.88 178.166 232.75 178.446 230.62 178.707C225.98 179.305 221.62 180.096 217.12 181.35C207.54 183.8 197.43 183.703 188 180.752C187.67 182.025 187.34 183.298 187 184.61C186.37 184.697 185.75 184.774 185.1 184.861C182.28 185.237 179.45 185.613 176.62 185.999C175.15 186.192 175.15 186.192 173.64 186.394C172.7 186.52 171.76 186.645 170.79 186.78C169.92 186.896 169.05 187.012 168.15 187.127C165.96 187.407 165.96 187.407 164 188.468C161.07 188.594 158.18 188.652 155.25 188.652C154.05 188.671 154.05 188.671 152.83 188.68C148.15 188.7 144.4 188.275 140 186.539C140.5 184.629 140.5 184.629 141 182.681C142.49 183.163 142.49 183.163 144 183.645C144.5 182.69 144.5 182.69 145 181.716C146.65 181.716 148.3 181.716 150 181.716C150.5 180.761 150.5 180.761 151 179.787C153.31 179.247 153.31 179.247 156 178.822C158.98 178.244 159.78 178.07 162 175.929C163.67 175.89 165.33 175.89 167 175.929C167.72 175.745 168.44 175.572 169.19 175.388C171 174.964 171 174.964 173 175.929C173 175.292 173 174.655 173 173.999C179.03 174.405 181.96 175.427 187 178.822C187.99 178.504 188.98 178.186 190 177.858C190.27 177.279 190.54 176.7 190.81 176.112C192.59 172.948 194.74 171.829 198 170.141C200.7 169.572 203.23 169.36 206 169.177C206 168.858 206 168.54 206 168.212C207.07 168.231 208.14 168.251 209.25 168.27C212.3 168.222 214.15 167.961 217 167.247C219.08 166.89 221.16 166.553 223.25 166.225C224.33 166.051 225.41 165.878 226.52 165.704C227.34 165.579 228.16 165.453 229 165.318C229 165 229 164.682 229 164.354C231.93 164.402 231.93 164.402 234.86 164.45C237.06 164.354 238.87 163.92 241 163.389C243.41 163.032 245.83 162.685 248.25 162.367C249.51 162.193 250.78 162.019 252.08 161.846C253.04 161.72 254.01 161.595 255 161.46C255 161.142 255 160.823 255 160.495C257.64 160.814 260.28 161.132 263 161.46C263 160.823 263 160.187 263 159.531C267.45 159.048 267.45 159.048 272 158.566C272 158.248 272 157.929 272 157.602C274.97 157.602 277.94 157.602 281 157.602C281 157.283 281 156.965 281 156.637C282.22 156.656 283.43 156.676 284.69 156.695C287.94 156.695 290.82 156.376 294 155.672C296.33 155.344 298.66 155.016 301 154.708C301 154.389 301 154.071 301 153.743C304.3 153.743 307.6 153.743 311 153.743C311 153.425 311 153.107 311 152.779C313.33 152.412 315.66 152.094 318 151.814C318.33 152.132 318.66 152.451 319 152.779C321.54 152.528 324.04 152.229 326.56 151.872C327.27 151.775 327.98 151.679 328.72 151.582C330.48 151.341 332.24 151.1 334 150.849C334 150.531 334 150.213 334 149.885C337.96 149.885 341.92 149.885 346 149.885C346 149.567 346 149.248 346 148.92C347.2 148.94 348.39 148.959 349.62 148.978C353.18 148.988 356.51 148.631 360 147.956C360 147.637 360 147.319 360 146.991C363.63 146.991 367.26 146.991 371 146.991C371 146.673 371 146.354 371 146.026C375.29 146.345 379.58 146.663 384 146.991C384 146.354 384 145.718 384 145.062C384.59 145.072 385.18 145.081 385.79 145.1C390 145.139 393.89 145.12 398 144.097C398 143.779 398 143.461 398 143.133C403.94 143.133 409.88 143.133 416 143.133C416 142.814 416 142.496 416 142.168C418.64 142.168 421.28 142.168 424 142.168C424 141.85 424 141.532 424 141.204C440.34 140.403 456.64 140.104 473 140.239C473 139.921 473 139.602 473 139.274C481.58 139.274 490.16 139.274 499 139.274C499 138.956 499 138.638 499 138.31C502.63 138.31 506.26 138.31 510 138.31C510 137.991 510 137.673 510 137.345C521.68 136.738 533.3 136.207 545 136.381C545 136.062 545 135.744 545 135.416C552.59 135.416 560.18 135.416 568 135.416C568 135.098 568 134.779 568 134.451C569.17 134.461 569.17 134.461 570.36 134.471C585.61 134.548 600.78 134.509 616 133.487C616 133.169 616 132.85 616 132.522C629.53 132.522 643.06 132.522 657 132.522C657 132.204 657 131.886 657 131.558C668.55 131.558 680.1 131.558 692 131.558C692 131.239 692 130.921 692 130.593C700.91 130.275 709.82 129.956 719 129.629C719 129.947 719 130.265 719 130.593C722.63 130.593 726.26 130.593 730 130.593C729.67 129.956 729.34 129.32 729 128.664C751.11 128.664 773.22 128.664 796 128.664C796 128.346 796 128.027 796 127.699C812.17 127.699 828.34 127.699 845 127.699C845 127.381 845 127.063 845 126.735C846.11 126.706 847.22 126.687 848.36 126.658C852.48 126.571 856.59 126.474 860.7 126.378C862.48 126.33 864.26 126.291 866.04 126.252C868.6 126.204 871.15 126.137 873.71 126.079C874.91 126.05 874.91 126.05 876.13 126.031C880.2 126.011 880.2 126.011 884 124.806C886.99 124.719 889.96 124.69 892.95 124.709C893.83 124.709 894.72 124.719 895.63 124.719C898.46 124.719 901.29 124.728 904.12 124.748C906.04 124.748 907.96 124.757 909.88 124.757C914.59 124.767 919.29 124.786 924 124.806C924 124.487 924 124.169 924 123.841C926.97 123.841 929.94 123.841 933 123.841C933 123.523 933 123.204 933 122.876C933.64 122.886 934.28 122.896 934.94 122.915C939.04 122.954 943.01 122.973 947.06 122.336C948.03 122.192 949 122.057 950 121.912C950.33 122.23 950.66 122.548 951 122.876C952.88 122.963 954.77 122.983 956.65 122.983C957.85 122.973 959.05 122.973 960.29 122.973C961.6 122.963 962.91 122.954 964.27 122.954C965.63 122.944 967 122.944 968.37 122.934C972.58 122.925 976.79 122.905 981 122.876C982.23 122.867 983.45 122.867 984.72 122.857C993.06 122.809 1001.4 122.741 1009.74 122.664C1012.34 122.645 1014.95 122.626 1017.55 122.597C1023.61 122.548 1029.66 122.5 1035.72 122.442C1042.63 122.384 1049.55 122.327 1056.47 122.269C1070.64 122.153 1084.82 122.037 1099 121.912C1099 121.594 1099 121.275 1099 120.947ZM884 125.77C884 126.089 884 126.407 884 126.735C892.25 126.735 900.5 126.735 909 126.735C909 126.416 909 126.098 909 125.77C900.75 125.77 892.5 125.77 884 125.77ZM1203 137.345C1206.77 138.561 1208.37 137.702 1212 136.381C1211.67 135.744 1211.34 135.107 1211 134.451C1207.92 134.451 1205.69 135.995 1203 137.345ZM843 161.46C843 161.778 843 162.096 843 162.424C849.27 162.424 855.54 162.424 862 162.424C862 162.106 862 161.788 862 161.46C855.73 161.46 849.46 161.46 843 161.46ZM727 171.106C727 171.424 727 171.742 727 172.07C728.98 172.07 730.96 172.07 733 172.07C733 171.752 733 171.434 733 171.106C731.02 171.106 729.04 171.106 727 171.106ZM645 175.929C645 176.247 645 176.565 645 176.893C651.6 176.893 658.2 176.893 665 176.893C665 176.575 665 176.257 665 175.929C658.4 175.929 651.8 175.929 645 175.929ZM509 183.645C509 183.964 509 184.282 509 184.61C520.22 184.61 531.44 184.61 543 184.61C543 184.292 543 183.973 543 183.645C531.78 183.645 520.56 183.645 509 183.645ZM441 186.539C441 186.857 441 187.176 441 187.504C447.27 187.504 453.54 187.504 460 187.504C460 187.185 460 186.867 460 186.539C453.73 186.539 447.46 186.539 441 186.539Z" fill="#C49102"/>
<path d="M996 1.33789C1038.9 1.33789 1081.8 1.33789 1126 1.33789C1126 1.6562 1126 1.97452 1126 2.30248C1127.41 2.28318 1127.41 2.28318 1128.84 2.27354C1132.34 2.23495 1135.84 2.21566 1139.34 2.19637C1140.85 2.18673 1142.36 2.17708 1143.88 2.15779C1146.06 2.12885 1148.23 2.1192 1150.41 2.10956C1151.72 2.09991 1153.03 2.09027 1154.38 2.08062C1160.39 2.44716 1164.65 4.01944 1169 8.08999C1169 9.04493 1169 9.99987 1169 10.9837C1168.15 11.1091 1167.29 11.2442 1166.41 11.3696C1165.31 11.5432 1164.2 11.7168 1163.06 11.8905C1161.96 12.0544 1160.86 12.2281 1159.72 12.392C1157.1 12.6428 1157.1 12.6428 1156 13.8775C1153.64 14.2633 1151.31 14.572 1148.94 14.8421C1148.2 14.9289 1147.47 15.0157 1146.72 15.1025C1138.75 15.9417 1130.77 16.2118 1122.76 16.4433C1121.27 16.4915 1121.27 16.4915 1119.75 16.5301C1118.86 16.559 1117.97 16.5783 1117.05 16.6073C1115.01 16.559 1115.01 16.559 1114 17.7358C1111.86 17.8516 1109.71 17.8998 1107.56 17.9191C1106.89 17.9288 1106.21 17.9384 1105.52 17.9384C1104.05 17.9577 1102.58 17.977 1101.11 17.9866C1098.78 18.0059 1096.44 18.0349 1094.11 18.0638C1089.13 18.1217 1084.16 18.1699 1079.19 18.2181C1073.46 18.276 1067.73 18.3339 1062 18.4014C1059.72 18.4303 1057.44 18.4496 1055.16 18.4689C1047.92 18.5461 1040.75 18.7969 1033.54 19.4528C1030.27 19.7229 1027.02 19.7904 1023.73 19.7904C1022.49 19.7904 1021.25 19.8001 1019.98 19.8001C1018.73 19.7904 1017.48 19.7904 1016.19 19.7808C1014.92 19.7904 1013.65 19.7904 1012.34 19.8001C1011.11 19.8001 1009.87 19.7904 1008.61 19.7904C1007.5 19.7904 1006.4 19.7904 1005.27 19.7904C1002 19.665 1002 19.665 998.4 19.1538C995.41 18.7583 992.99 18.6908 990.01 18.9898C988.71 19.1248 988.71 19.1248 987.37 19.2502C986.04 19.3949 986.04 19.3949 984.69 19.5493C983.78 19.6361 982.88 19.7229 981.94 19.8097C977.32 20.1666 977.32 20.1666 973 21.5942C970.4 21.7967 967.82 21.9607 965.22 22.0765C964.45 22.1151 963.68 22.1536 962.89 22.1922C959.59 22.3658 956.29 22.5202 952.99 22.6745C950.59 22.7999 948.19 22.9157 945.78 23.0411C945.03 23.0796 944.28 23.1086 943.51 23.1472C939.63 23.2822 939.63 23.2822 936 24.4879C934.39 24.623 932.78 24.7098 931.16 24.758C930.15 24.7966 929.14 24.8255 928.1 24.8641C927 24.9027 925.91 24.9316 924.77 24.9702C923.64 25.0088 922.5 25.0474 921.33 25.086C917.68 25.2114 914.03 25.3368 910.38 25.4525C887.04 24.0346 887.04 24.0346 866 28.3463C863.14 28.626 860.3 28.8479 857.44 29.0408C856.58 29.0987 855.72 29.1565 854.84 29.224C852.08 29.417 849.32 29.6099 846.56 29.7932C842.94 30.0439 839.31 30.2947 835.69 30.5455C834.85 30.6034 834.01 30.6613 833.15 30.7095C828.94 30.9217 828.94 30.9217 825 32.2046C823.5 32.3686 822 32.4843 820.49 32.5615C819.56 32.6194 818.62 32.6773 817.66 32.7351C816.65 32.7834 815.64 32.8412 814.59 32.8991C813.56 32.957 812.52 33.0149 811.46 33.0824C807.01 33.3428 802.57 33.5936 798.12 33.8444C794.88 34.0277 791.64 34.211 788.41 34.4039C787.39 34.4617 786.38 34.5196 785.34 34.5679C784.41 34.6257 783.47 34.6836 782.51 34.7415C781.69 34.7897 780.86 34.8283 780.01 34.8765C777.93 34.9923 777.93 34.9923 776 36.063C774.41 36.2269 772.81 36.3427 771.21 36.4199C770.22 36.4777 769.23 36.5356 768.2 36.5935C766.59 36.6706 766.59 36.6706 764.94 36.7575C763.84 36.8153 762.73 36.8732 761.6 36.9407C756.87 37.2012 752.13 37.452 747.4 37.7028C743.96 37.886 740.51 38.0693 737.06 38.2622C735.45 38.349 735.45 38.349 733.8 38.4262C732.8 38.4841 731.81 38.5419 730.79 38.5998C729.47 38.6673 729.47 38.6673 728.13 38.7349C725.95 38.841 725.95 38.841 724 39.9213C722.29 40.1239 720.57 40.2782 718.84 40.4036C717.82 40.4808 716.8 40.5676 715.75 40.6447C712.5 40.8859 712.5 40.8859 709.25 41.127C708.23 41.2042 707.21 41.291 706.16 41.3682C704.75 41.4743 704.75 41.4743 703.31 41.5804C700.98 41.7251 700.98 41.7251 699 42.8151C697.42 43.0176 695.84 43.172 694.26 43.2973C692.8 43.4131 692.8 43.4131 691.3 43.5385C690.25 43.6157 689.21 43.6928 688.12 43.7796C687.06 43.8665 685.99 43.9533 684.89 44.0401C676.96 44.6478 669.02 45.0915 661.07 45.3809C656.9 45.4484 656.9 45.4484 653 46.6734C651.53 46.9242 650.05 47.146 648.56 47.3293C647.67 47.4547 646.77 47.5705 645.85 47.6959C644.91 47.8116 643.97 47.937 643 48.0624C637.69 48.7473 632.46 49.4418 627.24 50.5993C619.39 52.1715 611.3 51.8436 603.32 51.8725C594.06 52.0365 585.38 53.2422 577 57.2838C575.48 57.3706 573.96 57.4092 572.44 57.3996C571.23 57.4092 571.23 57.4092 570 57.4092C568 57.2838 568 57.2838 567 56.3192C559.8 55.1232 554.39 54.6119 548.1 58.2966C543.65 60.2355 538.73 59.975 534 59.213C531.24 57.8722 530.06 56.7051 528 54.3901C528 53.7535 528 53.1168 528 52.4609C527.01 52.4609 526.02 52.4609 525 52.4609C524.73 53.5123 524.46 54.5734 524.19 55.6537C522.67 60.2065 522.67 60.2065 520 62.1068C517.18 62.7434 517.18 62.7434 513.88 63.1292C510.09 63.5922 506.44 64.1517 502.74 65.0391C497.56 66.187 492.54 66.2545 487.25 66.2062C485.87 66.2159 485.87 66.2159 484.46 66.2255C479.79 66.2159 476.3 65.9651 472 64.0359C470.68 64.0359 469.36 64.0359 468 64.0359C467.34 64.9909 466.68 65.9458 466 66.9297C461.06 69.0325 456 69.4087 450.69 69.8813C445.42 69.9199 445.42 69.9199 441 71.7526C434.67 72.9583 428.37 72.8619 421.94 72.833C420.87 72.8426 419.81 72.8426 418.72 72.8522C414.5 72.8426 410.54 72.8137 406.38 72.1095C405.59 71.9938 404.81 71.8684 404 71.7526C403.34 72.3892 402.68 73.0259 402 73.6818C393.84 75.7942 385.53 76.5273 377.15 77.4051C372.57 77.897 368.09 78.389 363.63 79.5175C360.19 80.3857 357.04 80.8004 353.5 81.0319C351.94 81.1477 351.94 81.1477 350.34 81.2538C349.57 81.302 348.8 81.3502 348 81.3985C347.92 79.9902 347.86 78.5819 347.81 77.1736C347.76 76.0064 347.76 76.0064 347.71 74.8007C347.8 74.1159 347.9 73.431 348 72.7172C351 70.788 351 70.788 353.06 69.8234C355.16 68.8974 355.16 68.8974 357 66.9297C360.26 66.7368 360.26 66.7368 364.12 66.8139C366.05 66.8332 366.05 66.8332 368.01 66.8622C369.49 66.8911 369.49 66.8911 371 66.9297C371 66.6114 371 66.2931 371 65.9651C375.29 66.2834 379.58 66.6017 384 66.9297C384 66.2931 384 65.6564 384 65.0005C388.62 64.6822 393.24 64.3639 398 64.0359C398 63.7176 398 63.3993 398 63.0713C398.75 63.081 399.5 63.0906 400.27 63.1099C401.25 63.1099 402.24 63.1196 403.25 63.1292C404.71 63.1485 404.71 63.1485 406.2 63.1678C408.71 63.081 410.6 62.6952 413 62.1068C414.37 61.9138 415.74 61.7402 417.11 61.5859C418.24 61.4605 418.24 61.4605 419.39 61.3351C420.17 61.2483 420.95 61.1711 421.75 61.0843C422.54 60.9975 423.34 60.9107 424.15 60.8142C426.1 60.602 428.05 60.3898 430 60.1776C430 59.8593 430 59.541 430 59.213C430.69 59.2323 431.37 59.2612 432.08 59.2805C432.98 59.2998 433.88 59.3191 434.81 59.3288C436.15 59.3673 436.15 59.3673 437.52 59.4059C440.25 59.3866 440.25 59.3866 443 57.2838C442.36 54.3418 442.36 54.3419 440.3 53.4834C439.54 53.1458 438.78 52.8082 438 52.4609C436.06 51.2069 434.15 49.9144 432.25 48.6026C431.27 47.9274 430.28 47.2521 429.27 46.5576C428.52 45.9596 427.77 45.3616 427 44.7442C427 44.1076 427 43.471 427 42.8151C430.64 40.5965 433.7 40.6544 437.94 40.7026C438.59 40.7123 439.24 40.7219 439.92 40.7219C446.3 40.8184 452.65 41.2717 459 41.8505C458.27 46.2008 456.68 48.8727 454 52.4609C452.35 52.1426 450.7 51.8243 449 51.4963C448.5 49.5864 448.5 49.5864 448 47.638C447.01 48.5929 447.01 48.5929 446 49.5672C446.32 52.5574 446.32 52.5574 447 55.3547C447.8 55.4897 448.61 55.6344 449.44 55.7791C452 56.3192 452 56.3192 453 57.2838C453.99 56.6472 454.98 56.0106 456 55.3547C457.32 55.3547 458.64 55.3547 460 55.3547C460 55.9913 460 56.6279 460 57.2838C461.14 57.4671 461.14 57.4671 462.31 57.6504C465 58.2484 465 58.2484 468 60.1776C468.42 59.7339 468.84 59.2998 469.27 58.8465C471.04 57.2453 472.56 56.3964 474.75 55.4125C478.61 53.6281 482.3 51.6507 486 49.5672C485.78 49.0463 485.57 48.5158 485.34 47.9852C484.93 46.9435 484.93 46.9435 484.5 45.8921C484.08 44.8696 484.08 44.8696 483.66 43.8182C483 41.8505 483 41.8505 483 38.9567C486.95 39.4969 489.98 40.23 493 42.8151C493.44 45.5062 493.23 47.7827 493 50.5317C495.97 51.014 495.97 51.014 499 51.4963C498.67 50.5221 498.34 49.5479 498 48.5447C496.93 44.9854 496.84 41.7058 497 37.9921C503.15 37.1433 503.15 37.1433 505 37.0275C505.33 37.3459 505.66 37.6642 506 37.9921C508.02 38.214 510.04 38.3876 512.06 38.5323C513.17 38.6191 514.27 38.6963 515.41 38.7831C516.26 38.841 517.12 38.8988 518 38.9567C518 38.3201 518 37.6835 518 37.0275C518.61 36.9793 519.23 36.9311 519.86 36.8829C520.67 36.8153 521.48 36.7382 522.31 36.661C523.51 36.5645 523.51 36.5645 524.74 36.4584C527.27 36.1594 527.27 36.1594 530 34.1338C532.33 34.0566 534.67 34.047 537 34.1338C537 33.8155 537 33.4972 537 33.1692C537.84 33.1692 537.84 33.1692 538.7 33.1788C544.52 33.1981 550.35 33.2078 556.17 33.2174C558.35 33.2271 560.52 33.2367 562.7 33.2464C565.82 33.256 568.94 33.256 572.06 33.2657C573.04 33.2657 574.02 33.2753 575.03 33.2753C575.93 33.2753 576.83 33.2753 577.76 33.2753C578.55 33.285 579.35 33.285 580.17 33.285C582.02 33.3621 582.02 33.3621 583 32.2046C584.85 31.9828 586.7 31.8091 588.56 31.6645C589.57 31.5776 590.59 31.5005 591.63 31.4137C592.41 31.3558 593.19 31.2979 594 31.24C594 30.9217 594 30.6034 594 30.2754C597.63 30.2754 601.26 30.2754 605 30.2754C605 29.9571 605 29.6388 605 29.3109C605.7 29.3205 606.41 29.3302 607.13 29.3494C620.76 29.7449 620.76 29.7449 634 27.3817C636.06 27.3142 638.13 27.3045 640.19 27.3238C641.82 27.3335 641.82 27.3335 643.48 27.3431C644.31 27.3624 645.14 27.372 646 27.3817C646 27.0634 646 26.7451 646 26.4171C652.27 26.4171 658.54 26.4171 665 26.4171C665 26.0988 665 25.7805 665 25.4525C665.64 25.4622 666.27 25.4718 666.93 25.4911C674.56 25.5586 682.08 25.0956 689.69 24.4879C690.88 24.3915 692.07 24.3047 693.29 24.2082C696.2 23.9864 699.1 23.7549 702 23.5234C702 23.205 702 22.8867 702 22.5588C707.28 22.5588 712.56 22.5588 718 22.5588C718 22.2405 718 21.9221 718 21.5942C719.63 21.6135 719.63 21.6135 721.29 21.6328C722.73 21.6328 724.18 21.6424 725.62 21.6521C726.34 21.6617 727.05 21.6713 727.79 21.681C731.97 21.7003 735.87 21.4302 740 20.6296C740 20.3113 740 19.993 740 19.665C745.94 19.665 751.88 19.665 758 19.665C758 19.3467 758 19.0284 758 18.7004C759.05 18.7101 760.1 18.7197 761.18 18.739C768.54 18.7872 775.7 18.7004 783 17.7358C784.85 17.5526 786.71 17.3693 788.56 17.1957C789.41 17.1089 790.26 17.0317 791.13 16.9449C791.75 16.887 792.36 16.8291 793 16.7713C793 16.4529 793 16.1346 793 15.8067C797.95 15.8067 802.9 15.8067 808 15.8067C808 15.4884 808 15.17 808 14.8421C808.78 14.8517 809.56 14.8614 810.37 14.8807C811.38 14.8807 812.39 14.8903 813.44 14.9C814.95 14.9193 814.95 14.9193 816.5 14.9385C818.94 15.1218 818.94 15.1218 820 13.8775C822.14 13.8775 824.29 13.8775 826.43 13.9064C830.33 13.8582 834.13 13.3856 838 12.9129C838 12.5946 838 12.2763 838 11.9483C842.29 11.9483 846.58 11.9483 851 11.9483C851 11.63 851 11.3117 851 10.9837C851.71 10.9934 852.43 11.003 853.16 11.0223C858.56 11.0706 863.68 10.9355 869 10.0192C869 9.70084 869 9.38253 869 9.05457C873.95 9.05457 878.9 9.05457 884 9.05457C884 8.73626 884 8.41795 884 8.08999C889.94 8.08999 895.88 8.08999 902 8.08999C902 7.77167 902 7.45336 902 7.1254C910.41 6.64311 910.41 6.64311 919 6.16082C919 6.47913 919 6.79744 919 7.1254C929.39 6.64311 929.39 6.64311 940 6.16082C940 5.8425 940 5.52419 940 5.19623C946.93 5.19623 953.86 5.19623 961 5.19623C961 4.87792 961 4.55961 961 4.23165C966.61 4.23165 972.22 4.23165 978 4.23165C978 3.91333 978 3.59502 978 3.26706C983.94 2.94875 989.88 2.63043 996 2.30248C996 1.98416 996 1.66585 996 1.33789ZM498 41.8505C499 44.7442 499 44.7442 499 44.7442L498 41.8505ZM508 43.7796C508.74 49.1331 508.74 49.1331 510 54.3901C510.66 54.3901 511.32 54.3901 512 54.3901C511.86 52.9818 511.71 51.5735 511.56 50.1652C511.44 48.998 511.44 48.998 511.32 47.7923C511.11 45.6702 511.11 45.6702 510 43.7796C509.34 43.7796 508.68 43.7796 508 43.7796Z" fill="#C49102"/>
<path d="M341 69.8229C339.89 72.9192 339.01 73.6716 336 75.3693C333 76.575 333 76.575 331 76.575C331 77.8482 331 79.1215 331 80.4333C330.34 80.3851 329.67 80.3465 328.99 80.2983C323.1 80.0668 320.49 80.3369 316 84.2917C313.94 84.3496 313.94 84.3496 312 83.3271C309.75 80.8578 309.75 80.8578 308 78.5042C304.18 78.7743 304.18 78.7743 301 80.4333C299.19 80.6938 297.38 80.9349 295.56 81.1568C291.11 81.8127 287.83 82.7773 283.94 84.9572C277.76 88.2368 272.06 87.2433 265.44 85.5746C262.54 85.1984 261.35 85.6614 258.81 87.0022C257.8 87.523 257.8 87.523 256.77 88.0439C254.85 89.1146 254.85 89.1146 253 91.0438C245.93 93.3202 238.21 92.0759 231.13 90.5036C227.26 89.7319 225.34 90.3396 221.94 92.0084C216.78 94.0822 212.07 94.3427 206.56 94.3619C205.37 94.3716 205.37 94.3716 204.16 94.3909C198.48 94.3041 198.48 94.3041 196.24 92.5871C195 91.0438 195 91.0438 195.25 89.0567C196 87.1854 196 87.1854 197 85.2563C199.57 84.6389 202.14 84.2724 204.75 83.8673C205.86 83.5972 205.86 83.5972 207 83.3271C207.33 82.6905 207.66 82.0538 208 81.3979C210.25 81.504 212.5 81.6294 214.75 81.7645C216 81.8223 217.26 81.8899 218.55 81.967C221.66 82.3239 223.33 82.8544 226 84.2917C228.2 84.0023 228.2 84.0023 230 83.3271C230 82.6905 230 82.0538 230 81.3979C239.91 78.8032 239.91 78.8032 243 79.4688C245.31 82.3625 245.31 82.3625 247 85.2563C247.19 83.8576 247.19 83.8576 247.38 82.4204C247.58 81.4462 247.79 80.4719 248 79.4688C251.55 77.7614 253.61 77.4335 257.62 77.4817C259.13 77.4914 259.13 77.4914 260.66 77.501C261.43 77.5203 262.21 77.5299 263 77.5396C263 77.2213 263 76.903 263 76.575C266.95 76.2856 269.89 76.7776 273.56 78.0797C277.09 79.3144 279.35 79.7581 283 78.5042C283 77.8675 283 77.2309 283 76.575C286.3 75.9384 289.6 75.3017 293 74.6458C293 74.3275 293 74.0092 293 73.6812C293.91 73.7102 293.91 73.7102 294.84 73.7488C301.15 73.8838 306.86 73.1604 313 71.7521C313 71.4338 313 71.1154 313 70.7875C315.97 70.7875 318.94 70.7875 322 70.7875C322 70.4692 322 70.1509 322 69.8229C322.64 69.8325 323.28 69.8422 323.94 69.8615C328.02 69.9001 331.97 69.9194 336 69.2827C339 68.8583 339 68.8583 341 69.8229Z" fill="#A26B06"/>
<path d="M173 174C179.65 174.338 182.84 175.736 188 179.788C187.67 181.379 187.34 182.971 187 184.61C186.06 184.736 186.06 184.736 185.1 184.861C182.28 185.237 179.45 185.614 176.62 185.999C175.64 186.125 174.66 186.26 173.64 186.395C172.7 186.52 171.76 186.646 170.79 186.781C169.92 186.897 169.05 187.012 168.15 187.128C165.96 187.408 165.96 187.408 164 188.469C161.07 188.594 158.18 188.652 155.25 188.652C154.45 188.662 153.65 188.671 152.83 188.681C148.15 188.7 144.4 188.276 140 186.54C140.33 185.266 140.66 183.993 141 182.681C141.99 183 142.98 183.318 144 183.646C144.33 183.009 144.66 182.373 145 181.717C146.65 181.717 148.3 181.717 150 181.717C150.33 181.08 150.66 180.443 151 179.788C153.31 179.247 153.31 179.247 156 178.823C158.98 178.244 159.78 178.071 162 175.929C163.67 175.891 165.33 175.891 167 175.929C167.72 175.746 168.44 175.572 169.19 175.389C171 174.965 171 174.965 173 175.929C173 175.293 173 174.656 173 174Z" fill="#A26B06"/>
<path d="M130.188 83.0865C131.298 83.0576 131.298 83.0576 132.438 83.0287C137.708 82.9901 141.348 83.8003 145.998 86.2214C149.048 90.3884 149.308 93.7355 148.998 98.761C140.478 97.9797 135.618 92.8964 129.998 87.186C126.118 90.2341 122.498 93.3594 118.998 96.8319C117.998 97.7965 116.998 98.761 115.998 99.7256C115.308 90.3884 115.308 90.3884 117.878 86.6458C121.518 82.6139 124.958 83.1251 130.188 83.0865Z" fill="#A26B06"/>
<path d="M202 65.9656C203.81 65.9367 205.62 65.9174 207.44 65.9077C208.45 65.8981 209.46 65.8788 210.5 65.8691C213 65.9656 213 65.9656 214 66.9302C214.5 69.5828 214.5 69.5828 214 72.7177C211.98 74.9459 209.8 76.3349 207 77.5406C201.21 77.9072 196.38 74.1453 192 70.7885C191.67 70.1519 191.34 69.5153 191 68.8594C194.09 66.8723 194.71 66.6987 198.19 66.8144C200.07 66.8723 200.07 66.8723 202 66.9302C202 66.6119 202 66.2936 202 65.9656Z" fill="#A26B06"/>
<path d="M133.125 163.328C134.035 163.338 134.945 163.347 135.885 163.357C136.935 163.367 136.935 163.367 138.005 163.386C138.005 166.28 138.005 166.28 135.005 171.103C123.615 170.63 123.615 170.63 112.005 170.138C114.165 167.013 114.345 166.868 117.875 166.164C118.555 166.019 119.235 165.875 119.925 165.73C120.615 165.595 121.295 165.46 122.005 165.315C131.055 163.299 131.055 163.299 133.125 163.328Z" fill="#A26B06"/>
<path d="M48 120.947C48.66 121.266 49.32 121.584 50 121.912C47.82 125.789 45.56 128.76 42 131.558C39.16 131.915 36.98 132.03 34.19 131.857C33.49 131.837 32.8 131.818 32.09 131.789C30.39 131.741 28.7 131.654 27 131.558C28.69 127.844 28.69 127.844 31.5 126.552C32.33 126.291 33.15 126.04 34 125.77C35.28 125.153 36.56 124.507 37.81 123.841C40.21 122.79 42.42 122.356 45 121.912C45.99 121.594 46.98 121.275 48 120.947Z" fill="#A26B06"/>
<path d="M296.062 55.8368C297.512 56.5506 297.512 56.5506 299.002 57.2837C298.672 57.9203 298.342 58.5569 298.002 59.2128C296.542 59.2418 295.082 59.2611 293.622 59.2707C292.812 59.2804 292.002 59.2996 291.162 59.3093C289.002 59.2128 289.002 59.2128 287.002 58.2483C287.002 57.6116 287.002 56.975 287.002 56.3191C286.012 56.3191 285.022 56.3191 284.002 56.3191C284.022 57.0907 284.042 57.8721 284.062 58.6727C284.002 61.142 284.002 61.142 283.002 62.1066C281.482 62.1741 279.962 62.1838 278.442 62.1645C277.612 62.1548 276.782 62.1452 275.932 62.1452C275.292 62.1259 274.652 62.1162 274.002 62.1066C274.182 59.8109 274.182 59.8109 275.002 57.2837C277.372 56.0779 277.372 56.0779 280.002 55.3545C285.392 53.6182 290.812 53.6472 296.062 55.8368Z" fill="#A26B06"/>
<path d="M478 38.957C478.03 40.5004 478.05 42.0533 478.06 43.5967C478.07 44.4648 478.09 45.3233 478.1 46.2107C478 48.6029 478 48.6029 477 51.4966C473.51 50.8697 470.97 49.471 468 47.6383C468.26 44.3105 469.29 43.5195 471.88 41.1273C475 38.957 475 38.957 478 38.957Z" fill="#FCDB13"/>
<path d="M1241 65.0013C1241.33 66.5928 1241.66 68.1844 1242 69.8242C1240.75 69.911 1240.75 69.911 1239.48 69.9978C1237.85 70.1232 1237.85 70.1232 1236.19 70.2486C1235.11 70.3258 1234.03 70.403 1232.92 70.4801C1229.94 70.6923 1229.94 70.6923 1227 71.7534C1226.34 70.4801 1225.68 69.2069 1225 67.895C1230.03 64.6637 1235.09 64.8855 1241 65.0013Z" fill="#A26B06"/>
<path d="M174 85.2566C175 87.1858 175 87.1858 174.22 89.4815C173.84 90.3593 173.46 91.2274 173.06 92.1245C172.68 93.0119 172.3 93.8897 171.91 94.7867C171.46 95.7996 171.46 95.7996 171 96.8317C170.01 96.8317 169.02 96.8317 168 96.8317C165.69 89.8095 165.69 89.8095 167.06 86.7035C169.52 84.8708 170.96 84.9383 174 85.2566Z" fill="#A26B06"/>
<path d="M1046 96.832C1067.12 96.832 1088.24 96.832 1110 96.832C1110 97.1511 1110 97.4702 1110 97.7989C1088.88 97.7989 1067.76 97.7989 1046 97.7989C1046 97.4799 1046 97.1608 1046 96.832Z" fill="#ECC206"/>
<path d="M312 52.4609C321.81 53.059 321.81 53.059 326 56.3193C326 56.9559 326 57.5925 326 58.2484C320.39 57.9301 314.78 57.6118 309 57.2839C309.99 55.6923 310.98 54.1007 312 52.4609Z" fill="#A26B06"/>
<path d="M869 55.3555C889.13 55.3555 909.26 55.3555 930 55.3555C930 55.6745 930 55.9936 930 56.3224C909.87 56.3224 889.74 56.3224 869 56.3224C869 56.0033 869 55.6842 869 55.3555Z" fill="#A26B06"/>
<path d="M383 45.709C384.65 46.0273 386.3 46.3456 388 46.6736C388 47.3102 388 47.9468 388 48.6027C390.48 49.5577 390.48 49.5577 393 50.5319C393 51.8052 393 53.0784 393 54.3903C388.49 53.879 385.65 52.1042 382 49.5673C382.33 48.2941 382.66 47.0208 383 45.709Z" fill="#A26B06"/>
<path d="M1017 0.373047C1035.15 0.373047 1053.3 0.373047 1072 0.373047C1072 0.692127 1072 1.01121 1072 1.33996C1053.85 1.33996 1035.7 1.33996 1017 1.33996C1017 1.02088 1017 0.701796 1017 0.373047Z" fill="#A26B06"/>
<path d="M190 84.2918C192.44 86.2788 192.44 86.2788 194 88.1501C190.99 89.597 188.65 88.7385 185.38 88.208C184.19 88.0247 183 87.8318 181.77 87.6389C180.86 87.4942 179.94 87.3399 179 87.1856C179 86.5489 179 85.9123 179 85.2564C182.78 82.7774 185.68 83.25 190 84.2918Z" fill="#A26B06"/>
<path d="M175 75.6113C180.28 75.6113 185.56 75.6113 191 75.6113C191 76.248 191 76.8846 191 77.5405C185.55 78.8813 180.63 79.7012 175 79.4697C175 78.1964 175 76.9232 175 75.6113Z" fill="#A26B06"/>
<path d="M1178 4.23242C1178.36 8.52483 1178.36 8.52483 1176.81 10.8012C1174.44 12.306 1172.78 12.171 1170 11.9491C1170.12 9.72091 1170.12 9.72091 1171 7.12618C1175.97 4.23242 1175.97 4.23242 1178 4.23242Z" fill="#A26B06"/>
<path d="M2 149.885C3.32 150.84 4.64 151.795 6 152.779C5.67 154.052 5.34 155.325 5 156.637C3.68 156.955 2.36 157.273 1 157.601C0 153.02 0 153.02 0 150.849C0.66 150.531 1.32 150.213 2 149.885Z" fill="#A26B06"/>
<path d="M404 43.7805C409.75 43.6648 409.75 43.6648 412 44.7451C412 45.7 412 46.655 412 47.6389C409.03 47.6389 406.06 47.6389 403 47.6389C403.33 46.3656 403.66 45.0924 404 43.7805Z" fill="#A26B06"/>
<path d="M940 65.9648C950.56 65.9648 961.12 65.9648 972 65.9648C972 66.2839 972 66.603 972 66.9318C961.44 66.9318 950.88 66.9318 940 66.9318C940 66.6127 940 66.2936 940 65.9648Z" fill="#A26B06"/>
<path d="M545 32.2051C555.56 32.2051 566.12 32.2051 577 32.2051C577 32.5242 577 32.8432 577 33.172C566.44 33.172 555.88 33.172 545 33.172C545 32.8529 545 32.5338 545 32.2051Z" fill="#A26B06"/>
<path d="M629 131.557C637.91 131.557 646.82 131.557 656 131.557C656 131.876 656 132.195 656 132.524C647.09 132.524 638.18 132.524 629 132.524C629 132.204 629 131.885 629 131.557Z" fill="#A26B06"/>
<path d="M422 49.5684C424.97 50.0507 424.97 50.0507 428 50.5329C428.33 51.8062 428.66 53.0794 429 54.3913C426.04 53.8029 424.62 53.1856 422 51.4975C422 50.8609 422 50.2243 422 49.5684Z" fill="#A26B06"/>
<path d="M1169 119.982C1176.26 119.982 1183.52 119.982 1191 119.982C1191 120.302 1191 120.621 1191 120.949C1183.74 120.949 1176.48 120.949 1169 120.949C1169 120.63 1169 120.311 1169 119.982Z" fill="#A26B06"/>
<path d="M83 192.326C85.69 193.175 85.69 193.175 88 194.255C88 194.892 88 195.529 88 196.185C85.69 196.185 83.38 196.185 81 196.185C80.67 195.548 80.34 194.911 80 194.255C80.99 193.619 81.98 192.982 83 192.326Z" fill="#A26B06"/>
<path d="M1192 119.982C1198.93 119.982 1205.86 119.982 1213 119.982C1213 120.302 1213 120.621 1213 120.949C1206.07 120.949 1199.14 120.949 1192 120.949C1192 120.63 1192 120.311 1192 119.982Z" fill="#A26B06"/>
<path d="M1250 76.5762C1256.93 76.5762 1263.86 76.5762 1271 76.5762C1271 76.8953 1271 77.2143 1271 77.5431C1264.07 77.5431 1257.14 77.5431 1250 77.5431C1250 77.224 1250 76.9049 1250 76.5762Z" fill="#A26B06"/>
<path d="M680 174C685.94 174 691.88 174 698 174C698 174.319 698 174.638 698 174.967C692.06 174.967 686.12 174.967 680 174.967C680 174.648 680 174.329 680 174Z" fill="#A26B06"/>
<path d="M755 144.098C760.94 144.098 766.88 144.098 773 144.098C773 144.417 773 144.736 773 145.065C767.06 145.065 761.12 145.065 755 145.065C755 144.745 755 144.426 755 144.098Z" fill="#ECC206"/>
<path d="M1080 120.947C1085.61 120.947 1091.22 120.947 1097 120.947C1097 121.266 1097 121.585 1097 121.914C1091.39 121.914 1085.78 121.914 1080 121.914C1080 121.595 1080 121.276 1080 120.947Z" fill="#A26B06"/>
<path d="M1129 1.33789C1134.61 1.33789 1140.22 1.33789 1146 1.33789C1146 1.65697 1146 1.97605 1146 2.3048C1140.39 2.3048 1134.78 2.3048 1129 2.3048C1129 1.98572 1129 1.66664 1129 1.33789Z" fill="#A26B06"/>
<path d="M448 139.273C453.28 139.273 458.56 139.273 464 139.273C464 139.593 464 139.912 464 140.24C458.72 140.24 453.44 140.24 448 140.24C448 139.921 448 139.602 448 139.273Z" fill="#A26B06"/>
<path d="M1267 137.346C1270.3 137.346 1273.6 137.346 1277 137.346C1277 137.982 1277 138.619 1277 139.275C1273.7 138.957 1270.4 138.638 1267 138.31C1267 137.992 1267 137.674 1267 137.346Z" fill="#A26B06"/>
<path d="M1060 62.1074C1064.95 62.1074 1069.9 62.1074 1075 62.1074C1075 62.4265 1075 62.7456 1075 63.0743C1070.05 63.0743 1065.1 63.0743 1060 63.0743C1060 62.7553 1060 62.4362 1060 62.1074Z" fill="#A26B06"/>
<path d="M1077 0.373047C1081.95 0.373047 1086.9 0.373047 1092 0.373047C1092 0.692127 1092 1.01121 1092 1.33996C1087.05 1.33996 1082.1 1.33996 1077 1.33996C1077 1.02088 1077 0.701796 1077 0.373047Z" fill="#A26B06"/>
<path d="M781 127.699C785.62 127.699 790.24 127.699 795 127.699C795 128.018 795 128.337 795 128.666C790.38 128.666 785.76 128.666 781 128.666C781 128.347 781 128.028 781 127.699Z" fill="#A26B06"/>
<path d="M675 69.8242C679.62 69.8242 684.24 69.8242 689 69.8242C689 70.1433 689 70.4624 689 70.7911C684.38 70.7911 679.76 70.7911 675 70.7911C675 70.472 675 70.153 675 69.8242Z" fill="#A26B06"/>
<path d="M831 126.734C835.29 126.734 839.58 126.734 844 126.734C844 127.053 844 127.373 844 127.701C839.71 127.701 835.42 127.701 831 127.701C831 127.382 831 127.063 831 126.734Z" fill="#A26B06"/>
<path d="M909 100.691C912.96 100.691 916.92 100.691 921 100.691C921 101.01 921 101.33 921 101.658C917.04 101.658 913.08 101.658 909 101.658C909 101.339 909 101.02 909 100.691Z" fill="#ECC206"/>
<path d="M458 205.83C461.63 205.83 465.26 205.83 469 205.83C469 206.149 469 206.468 469 206.797C465.37 206.797 461.74 206.797 458 206.797C458 206.478 458 206.159 458 205.83Z" fill="#ECC206"/>
<path d="M891 140.238C894.63 140.238 898.26 140.238 902 140.238C902 140.557 902 140.876 902 141.205C898.37 141.205 894.74 141.205 891 141.205C891 140.886 891 140.567 891 140.238Z" fill="#ECC206"/>
<path d="M484 138.309C487.63 138.309 491.26 138.309 495 138.309C495 138.628 495 138.947 495 139.276C491.37 139.276 487.74 139.276 484 139.276C484 138.956 484 138.637 484 138.309Z" fill="#A26B06"/>
<path d="M555 134.451C558.63 134.451 562.26 134.451 566 134.451C566 134.77 566 135.089 566 135.418C562.37 135.418 558.74 135.418 555 135.418C555 135.099 555 134.78 555 134.451Z" fill="#A26B06"/>
<path d="M680 130.594C683.63 130.594 687.26 130.594 691 130.594C691 130.913 691 131.232 691 131.561C687.37 131.561 683.74 131.561 680 131.561C680 131.242 680 130.922 680 130.594Z" fill="#A26B06"/>
<path d="M769 127.699C772.63 127.699 776.26 127.699 780 127.699C780 128.018 780 128.337 780 128.666C776.37 128.666 772.74 128.666 769 128.666C769 128.347 769 128.028 769 127.699Z" fill="#A26B06"/>
<path d="M180 208.725C183.3 208.725 186.6 208.725 190 208.725C190 209.044 190 209.363 190 209.692C186.7 209.692 183.4 209.692 180 209.692C180 209.372 180 209.053 180 208.725Z" fill="#A26B06"/>
<path d="M605 132.521C608.3 132.521 611.6 132.521 615 132.521C615 132.841 615 133.16 615 133.488C611.7 133.488 608.4 133.488 605 133.488C605 133.169 605 132.85 605 132.521Z" fill="#A26B06"/>
<path d="M670 130.594C672.97 130.594 675.94 130.594 679 130.594C679 130.913 679 131.232 679 131.561C676.03 131.561 673.06 131.561 670 131.561C670 131.242 670 130.922 670 130.594Z" fill="#A26B06"/>
<path d="M74 129.629C76.97 129.629 79.94 129.629 83 129.629C83 129.948 83 130.267 83 130.596C80.03 130.596 77.06 130.596 74 130.596C74 130.277 74 129.958 74 129.629Z" fill="#ECC206"/>
<path d="M838 58.248C840.97 58.248 843.94 58.248 847 58.248C847 58.5671 847 58.8862 847 59.215C844.03 59.215 841.06 59.215 838 59.215C838 58.8959 838 58.5768 838 58.248Z" fill="#A26B06"/>
<path d="M94 234.768C96.64 234.768 99.28 234.768 102 234.768C102 235.087 102 235.406 102 235.734C99.36 235.734 96.72 235.734 94 235.734C94 235.415 94 235.096 94 234.768Z" fill="#ECC206"/>
<path d="M544 181.715C546.64 181.715 549.28 181.715 552 181.715C552 182.034 552 182.353 552 182.682C549.36 182.682 546.72 182.682 544 182.682C544 182.363 544 182.044 544 181.715Z" fill="#A26B06"/>
<path d="M716 111.301C718.64 111.301 721.28 111.301 724 111.301C724 111.62 724 111.939 724 112.268C721.36 112.268 718.72 112.268 716 112.268C716 111.949 716 111.63 716 111.301Z" fill="#ECC206"/>
<path d="M1051 62.1074C1053.64 62.1074 1056.28 62.1074 1059 62.1074C1059 62.4265 1059 62.7456 1059 63.0743C1056.36 63.0743 1053.72 63.0743 1051 63.0743C1051 62.7553 1051 62.4362 1051 62.1074Z" fill="#A26B06"/>
<path d="M1010 20.6309C1012.64 20.6309 1015.28 20.6309 1018 20.6309C1018 20.9499 1018 21.269 1018 21.5978C1015.36 21.5978 1012.72 21.5978 1010 21.5978C1010 21.2787 1010 20.9596 1010 20.6309Z" fill="#ECC206"/>
<path d="M1115 16.7715C1117.64 16.7715 1120.28 16.7715 1123 16.7715C1123 17.0906 1123 17.4096 1123 17.7384C1120.36 17.7384 1117.72 17.7384 1115 17.7384C1115 17.4193 1115 17.1002 1115 16.7715Z" fill="#ECC206"/>
<path d="M191 208.725C193.31 208.725 195.62 208.725 198 208.725C198 209.044 198 209.363 198 209.692C195.69 209.692 193.38 209.692 191 209.692C191 209.372 191 209.053 191 208.725Z" fill="#A26B06"/>
<path d="M469 184.609C471.31 184.609 473.62 184.609 476 184.609C476 184.928 476 185.248 476 185.576C473.69 185.576 471.38 185.576 469 185.576C469 185.257 469 184.938 469 184.609Z" fill="#A26B06"/>
<path d="M568 150.85C570.31 150.85 572.62 150.85 575 150.85C575 151.169 575 151.488 575 151.817C572.69 151.817 570.38 151.817 568 151.817C568 151.497 568 151.178 568 150.85Z" fill="#ECC206"/>
<path d="M465 139.273C467.31 139.273 469.62 139.273 472 139.273C472 139.593 472 139.912 472 140.24C469.69 140.24 467.38 140.24 465 140.24C465 139.921 465 139.602 465 139.273Z" fill="#A26B06"/>
<path d="M595 132.521C597.31 132.521 599.62 132.521 602 132.521C602 132.841 602 133.16 602 133.488C599.69 133.488 597.38 133.488 595 133.488C595 133.169 595 132.85 595 132.521Z" fill="#A26B06"/>
<path d="M653 115.16C655.31 115.16 657.62 115.16 660 115.16C660 115.479 660 115.798 660 116.127C657.69 116.127 655.38 116.127 653 116.127C653 115.808 653 115.489 653 115.16Z" fill="#ECC206"/>
<path d="M492 81.3984C494.31 81.3984 496.62 81.3984 499 81.3984C499 81.7175 499 82.0366 499 82.3653C496.69 82.3653 494.38 82.3653 492 82.3653C492 82.0463 492 81.7272 492 81.3984Z" fill="#A26B06"/>
<path d="M726 38.957C728.31 38.957 730.62 38.957 733 38.957C733 39.2761 733 39.5952 733 39.9239C730.69 39.9239 728.38 39.9239 726 39.9239C726 39.6049 726 39.2858 726 38.957Z" fill="#ECC206"/>
<path d="M684 23.5234C686.31 23.5234 688.62 23.5234 691 23.5234C691 23.8425 691 24.1616 691 24.4903C688.69 24.4903 686.38 24.4903 684 24.4903C684 24.1713 684 23.8522 684 23.5234Z" fill="#A26B06"/>
<path d="M932 5.19727C934.31 5.19727 936.62 5.19727 939 5.19727C939 5.51635 939 5.83543 939 6.16418C936.69 6.16418 934.38 6.16418 932 6.16418C932 5.8451 932 5.52601 932 5.19727Z" fill="#A26B06"/>
<path d="M232 224.158C233.98 224.158 235.96 224.158 238 224.158C238 224.477 238 224.796 238 225.125C236.02 225.125 234.04 225.125 232 225.125C232 224.806 232 224.487 232 224.158Z" fill="#ECC206"/>
<path d="M543 201.973C544.98 201.973 546.96 201.973 549 201.973C549 202.292 549 202.611 549 202.94C547.02 202.94 545.04 202.94 543 202.94C543 202.62 543 202.301 543 201.973Z" fill="#ECC206"/>
<path d="M889 176.893C890.98 176.893 892.96 176.893 895 176.893C895 177.212 895 177.531 895 177.859C893.02 177.859 891.04 177.859 889 177.859C889 177.54 889 177.221 889 176.893Z" fill="#ECC206"/>
<path d="M380 162.424C381.98 162.424 383.96 162.424 386 162.424C386 162.743 386 163.062 386 163.391C384.02 163.391 382.04 163.391 380 163.391C380 163.072 380 162.753 380 162.424Z" fill="#ECC206"/>
<path d="M1084 158.566C1085.98 158.566 1087.96 158.566 1090 158.566C1090 158.885 1090 159.205 1090 159.533C1088.02 159.533 1086.04 159.533 1084 159.533C1084 159.214 1084 158.895 1084 158.566Z" fill="#ECC206"/>
<path d="M119 132.521C120.98 132.521 122.96 132.521 125 132.521C125 132.841 125 133.16 125 133.488C123.02 133.488 121.04 133.488 119 133.488C119 133.169 119 132.85 119 132.521Z" fill="#A26B06"/>
<path d="M443 129.629C444.98 129.629 446.96 129.629 449 129.629C449 129.948 449 130.267 449 130.596C447.02 130.596 445.04 130.596 443 130.596C443 130.277 443 129.958 443 129.629Z" fill="#ECC206"/>
<path d="M496 125.77C497.98 125.77 499.96 125.77 502 125.77C502 126.089 502 126.408 502 126.736C500.02 126.736 498.04 126.736 496 126.736C496 126.417 496 126.098 496 125.77Z" fill="#ECC206"/>
<path d="M959 120.947C960.98 120.947 962.96 120.947 965 120.947C965 121.266 965 121.585 965 121.914C963.02 121.914 961.04 121.914 959 121.914C959 121.595 959 121.276 959 120.947Z" fill="#A26B06"/>
<path d="M1214 119.982C1215.98 119.982 1217.96 119.982 1220 119.982C1220 120.302 1220 120.621 1220 120.949C1218.02 120.949 1216.04 120.949 1214 120.949C1214 120.63 1214 120.311 1214 119.982Z" fill="#A26B06"/>
<path d="M482 81.3984C483.98 81.3984 485.96 81.3984 488 81.3984C488 81.7175 488 82.0366 488 82.3653C486.02 82.3653 484.04 82.3653 482 82.3653C482 82.0463 482 81.7272 482 81.3984Z" fill="#A26B06"/>
<path d="M450 39.9219C451.98 39.9219 453.96 39.9219 456 39.9219C456 40.241 456 40.56 456 40.8888C454.02 40.8888 452.04 40.8888 450 40.8888C450 40.5697 450 40.2506 450 39.9219Z" fill="#A26B06"/>
<path d="M778 35.0996C779.98 35.0996 781.96 35.0996 784 35.0996C784 35.4187 784 35.7378 784 36.0665C782.02 36.0665 780.04 36.0665 778 36.0665C778 35.7474 778 35.4284 778 35.0996Z" fill="#ECC206"/>
<path d="M278 220.299C279.65 220.299 281.3 220.299 283 220.299C283 220.618 283 220.937 283 221.266C281.35 221.266 279.7 221.266 278 221.266C278 220.947 278 220.628 278 220.299Z" fill="#ECC206"/>
<path d="M711 191.361C712.65 191.361 714.3 191.361 716 191.361C716 191.68 716 191.999 716 192.328C714.35 192.328 712.7 192.328 711 192.328C711 192.009 711 191.69 711 191.361Z" fill="#ECC206"/>
<path d="M1043 162.424C1044.65 162.424 1046.3 162.424 1048 162.424C1048 162.743 1048 163.062 1048 163.391C1046.35 163.391 1044.7 163.391 1043 163.391C1043 163.072 1043 162.753 1043 162.424Z" fill="#ECC206"/>
<path d="M1155 154.707C1156.65 154.707 1158.3 154.707 1160 154.707C1160 155.026 1160 155.345 1160 155.674C1158.35 155.674 1156.7 155.674 1155 155.674C1155 155.355 1155 155.036 1155 154.707Z" fill="#ECC206"/>
<path d="M250 150.85C251.65 150.85 253.3 150.85 255 150.85C255 151.169 255 151.488 255 151.817C253.35 151.817 251.7 151.817 250 151.817C250 151.497 250 151.178 250 150.85Z" fill="#ECC206"/>
<path d="M66 118.053C67.65 118.053 69.3 118.053 71 118.053C71 118.372 71 118.691 71 119.02C69.35 119.02 67.7 119.02 66 119.02C66 118.701 66 118.381 66 118.053Z" fill="#A26B06"/>
<path d="M346 89.1152C347.65 89.1152 349.3 89.1152 351 89.1152C351 89.4343 351 89.7534 351 90.0821C349.35 90.0821 347.7 90.0821 346 90.0821C346 89.7631 346 89.444 346 89.1152Z" fill="#A26B06"/>
<path d="M252 76.5762C253.65 76.5762 255.3 76.5762 257 76.5762C257 76.8953 257 77.2143 257 77.5431C255.35 77.5431 253.7 77.5431 252 77.5431C252 77.224 252 76.9049 252 76.5762Z" fill="#A26B06"/>
<path d="M975 20.6309C976.65 20.6309 978.3 20.6309 980 20.6309C980 20.9499 980 21.269 980 21.5978C978.35 21.5978 976.7 21.5978 975 21.5978C975 21.2787 975 20.9596 975 20.6309Z" fill="#ECC206"/>
<path d="M284 197.148C288 198.115 288 198.115 288 198.115L284 197.148Z" fill="#A26B06"/>
<path d="M805 183.645C809 184.611 809 184.611 809 184.611L805 183.645Z" fill="#ECC206"/>
<path d="M778 165.318C782 166.285 782 166.285 782 166.285L778 165.318Z" fill="#A26B06"/>
<path d="M246 161.459C250 162.426 250 162.426 250 162.426L246 161.459Z" fill="#A26B06"/>
<path d="M954 150.85C958 151.817 958 151.817 958 151.817L954 150.85Z" fill="#A26B06"/>
<path d="M25 146.99C29 147.957 29 147.957 29 147.957L25 146.99Z" fill="#A26B06"/>
<path d="M1026 146.025C1030 146.992 1030 146.992 1030 146.992L1026 146.025Z" fill="#A26B06"/>
<path d="M1041 145.062C1045 146.029 1045 146.029 1045 146.029L1041 145.062Z" fill="#A26B06"/>
<path d="M1067 143.133C1071 144.1 1071 144.1 1071 144.1L1067 143.133Z" fill="#A26B06"/>
<path d="M916 123.84C920 124.807 920 124.807 920 124.807L916 123.84Z" fill="#A26B06"/>
<path d="M554 121.912C558 122.879 558 122.879 558 122.879L554 121.912Z" fill="#ECC206"/>
<path d="M786 107.443C790 108.41 790 108.41 790 108.41L786 107.443Z" fill="#ECC206"/>
<path d="M165 103.584C169 104.551 169 104.551 169 104.551L165 103.584Z" fill="#A26B06"/>
<path d="M276 93.9395C280 94.9064 280 94.9064 280 94.9064L276 93.9395Z" fill="#A26B06"/>
<path d="M457 83.3281C461 84.295 461 84.295 461 84.295L457 83.3281Z" fill="#A26B06"/>
<path d="M228 82.3633C228.66 82.6824 229.32 83.0014 230 83.3302C229.01 83.3302 228.02 83.3302 227 83.3302C227.33 83.0111 227.66 82.692 228 82.3633Z" fill="#A26B06"/>
<path d="M521 79.4688C525 80.4357 525 80.4357 525 80.4357L521 79.4688Z" fill="#A26B06"/>
<path d="M562 76.5762C566 77.5431 566 77.5431 566 77.5431L562 76.5762Z" fill="#A26B06"/>
<path d="M604 73.6816C608 74.6486 608 74.6486 608 74.6486L604 73.6816Z" fill="#A26B06"/>
<path d="M462 67.8945C466 68.8614 466 68.8614 466 68.8614L462 67.8945Z" fill="#ECC206"/>
<path d="M757 63.0723C761 64.0392 761 64.0392 761 64.0392L757 63.0723Z" fill="#A26B06"/>
<path d="M655 45.709C659 46.6759 659 46.6759 659 46.6759L655 45.709Z" fill="#ECC206"/>
<path d="M479 38.957C480 42.8154 480 42.8154 480 42.8154L479 38.957Z" fill="#ECC206"/>
<path d="M623 27.3828C627 28.3497 627 28.3497 627 28.3497L623 27.3828Z" fill="#A26B06"/>
<path d="M634 26.418C638 27.3849 638 27.3849 638 27.3849L634 26.418Z" fill="#A26B06"/>
<path d="M653 25.4531C657 26.42 657 26.42 657 26.42L653 25.4531Z" fill="#A26B06"/>
<path d="M894 7.125C898 8.09191 898 8.09191 898 8.09191L894 7.125Z" fill="#A26B06"/>
<path d="M925 5.19727C929 6.16418 929 6.16418 929 6.16418L925 5.19727Z" fill="#A26B06"/>
<path d="M950 4.23242C954 5.19933 954 5.19933 954 5.19933L950 4.23242Z" fill="#A26B06"/>
<path d="M150 230.91C153 231.877 153 231.877 153 231.877L150 230.91Z" fill="#ECC206"/>
<path d="M63 223.193C66 224.16 66 224.16 66 224.16L63 223.193Z" fill="#A26B06"/>
<path d="M320 216.441C323 217.408 323 217.408 323 217.408L320 216.441Z" fill="#ECC206"/>
<path d="M633 198.113C636 199.08 636 199.08 636 199.08L633 198.113Z" fill="#ECC206"/>
<path d="M330 194.256C333 195.223 333 195.223 333 195.223L330 194.256Z" fill="#A26B06"/>
<path d="M387 189.432C390 190.399 390 190.399 390 190.399L387 189.432Z" fill="#A26B06"/>
<path d="M753 187.504C756 188.471 756 188.471 756 188.471L753 187.504Z" fill="#ECC206"/>
<path d="M424 186.539C427 187.506 427 187.506 427 187.506L424 186.539Z" fill="#A26B06"/>
<path d="M604 177.857C607 178.824 607 178.824 607 178.824L604 177.857Z" fill="#A26B06"/>
<path d="M239 176.893C242 177.859 242 177.859 242 177.859L239 176.893Z" fill="#ECC206"/>
<path d="M932 173.035C935 174.002 935 174.002 935 174.002L932 173.035Z" fill="#ECC206"/>
<path d="M415 158.566C418 159.533 418 159.533 418 159.533L415 158.566Z" fill="#ECC206"/>
<path d="M82 158.566C85 159.533 85 159.533 85 159.533L82 158.566Z" fill="#ECC206"/>
<path d="M950 150.85C953 151.817 953 151.817 953 151.817L950 150.85Z" fill="#A26B06"/>
<path d="M969 149.885C972 150.852 972 150.852 972 150.852L969 149.885Z" fill="#A26B06"/>
<path d="M988 148.92C991 149.887 991 149.887 991 149.887L988 148.92Z" fill="#A26B06"/>
<path d="M1007 146.99C1010 147.957 1010 147.957 1010 147.957L1007 146.99Z" fill="#A26B06"/>
<path d="M1022 146.025C1025 146.992 1025 146.992 1025 146.992L1022 146.025Z" fill="#A26B06"/>
<path d="M311 144.098C314 145.065 314 145.065 314 145.065L311 144.098Z" fill="#ECC206"/>
<path d="M1082 142.168C1085 143.135 1085 143.135 1085 143.135L1082 142.168Z" fill="#A26B06"/>
<path d="M1270 135.416C1273 136.383 1273 136.383 1273 136.383L1270 135.416Z" fill="#A26B06"/>
<path d="M912 123.84C915 124.807 915 124.807 915 124.807L912 123.84Z" fill="#A26B06"/>
<path d="M1233 120.947C1236 121.914 1236 121.914 1236 121.914L1233 120.947Z" fill="#A26B06"/>
<path d="M1229 120.947C1232 121.914 1232 121.914 1232 121.914L1229 120.947Z" fill="#A26B06"/>
<path d="M244 95.8672C247 96.8341 247 96.8341 247 96.8341L244 95.8672Z" fill="#A26B06"/>
<path d="M262 94.9023C265 95.8693 265 95.8693 265 95.8693L262 94.9023Z" fill="#A26B06"/>
<path d="M258 94.9023C261 95.8693 261 95.8693 261 95.8693L258 94.9023Z" fill="#A26B06"/>
<path d="M1276 92.9746C1279 93.9415 1279 93.9415 1279 93.9415L1276 92.9746Z" fill="#ECC206"/>
<path d="M867 27.3828C870 28.3497 870 28.3497 870 28.3497L867 27.3828Z" fill="#ECC206"/>
<path d="M614 27.3828C617 28.3497 617 28.3497 617 28.3497L614 27.3828Z" fill="#A26B06"/>
<path d="M639 26.418C642 27.3849 642 27.3849 642 27.3849L639 26.418Z" fill="#A26B06"/>
<path d="M658 25.4531C661 26.42 661 26.42 661 26.42L658 25.4531Z" fill="#A26B06"/>
<path d="M692 22.5586C695 23.5255 695 23.5255 695 23.5255L692 22.5586Z" fill="#A26B06"/>
<path d="M736 19.666C739 20.6329 739 20.6329 739 20.6329L736 19.666Z" fill="#A26B06"/>
<path d="M754 18.7012C757 19.6681 757 19.6681 757 19.6681L754 18.7012Z" fill="#A26B06"/>
<path d="M767 17.7363C770 18.7032 770 18.7032 770 18.7032L767 17.7363Z" fill="#A26B06"/>
<path d="M879 8.08984C882 9.05675 882 9.05675 882 9.05675L879 8.08984Z" fill="#A26B06"/>
<path d="M875 8.08984C878 9.05675 878 9.05675 878 9.05675L875 8.08984Z" fill="#A26B06"/>
<path d="M1151 1.33789C1154 2.3048 1154 2.3048 1154 2.3048L1151 1.33789Z" fill="#A26B06"/>
<path d="M292 197.148C294 198.115 294 198.115 294 198.115L292 197.148Z" fill="#A26B06"/>
<path d="M289 197.148C291 198.115 291 198.115 291 198.115L289 197.148Z" fill="#A26B06"/>
<path d="M311 196.184C313 197.151 313 197.151 313 197.151L311 196.184Z" fill="#A26B06"/>
<path d="M326 194.256C328 195.223 328 195.223 328 195.223L326 194.256Z" fill="#A26B06"/>
<path d="M341 193.291C343 194.258 343 194.258 343 194.258L341 193.291Z" fill="#A26B06"/>
<path d="M371 190.396C373 191.363 373 191.363 373 191.363L371 190.396Z" fill="#A26B06"/>
<path d="M400 188.469C402 189.436 402 189.436 402 189.436L400 188.469Z" fill="#A26B06"/>
<path d="M556 181.715C558 182.682 558 182.682 558 182.682L556 181.715Z" fill="#A26B06"/>
<path d="M553 181.715C555 182.682 555 182.682 555 182.682L553 181.715Z" fill="#A26B06"/>
<path d="M582 179.787C584 180.754 584 180.754 584 180.754L582 179.787Z" fill="#A26B06"/>
<path d="M579 179.787C581 180.754 581 180.754 581 180.754L579 179.787Z" fill="#A26B06"/>
<path d="M575 179.787C577 180.754 577 180.754 577 180.754L575 179.787Z" fill="#A26B06"/>
<path d="M628 175.928C630 176.895 630 176.895 630 176.895L628 175.928Z" fill="#A26B06"/>
<path d="M625 175.928C627 176.895 627 176.895 627 176.895L625 175.928Z" fill="#A26B06"/>
<path d="M270 173.035C272 174.002 272 174.002 272 174.002L270 173.035Z" fill="#ECC206"/>
<path d="M786 165.318C788 166.285 788 166.285 788 166.285L786 165.318Z" fill="#A26B06"/>
<path d="M783 165.318C785 166.285 785 166.285 785 166.285L783 165.318Z" fill="#A26B06"/>
<path d="M775 165.318C777 166.285 777 166.285 777 166.285L775 165.318Z" fill="#A26B06"/>
<path d="M203 158.566C205 159.533 205 159.533 205 159.533L203 158.566Z" fill="#ECC206"/>
<path d="M451 154.707C453 155.674 453 155.674 453 155.674L451 154.707Z" fill="#ECC206"/>
<path d="M120 154.707C122 155.674 122 155.674 122 155.674L120 154.707Z" fill="#ECC206"/>
<path d="M947 150.85C949 151.817 949 151.817 949 151.817L947 150.85Z" fill="#A26B06"/>
<path d="M325 150.85C327 151.817 327 151.817 327 151.817L325 150.85Z" fill="#A26B06"/>
<path d="M966 149.885C968 150.852 968 150.852 968 150.852L966 149.885Z" fill="#A26B06"/>
<path d="M985 148.92C987 149.887 987 149.887 987 149.887L985 148.92Z" fill="#A26B06"/>
<path d="M1004 146.99C1006 147.957 1006 147.957 1006 147.957L1004 146.99Z" fill="#A26B06"/>
<path d="M22 146.99C24 147.957 24 147.957 24 147.957L22 146.99Z" fill="#A26B06"/>
<path d="M1046 145.062C1048 146.029 1048 146.029 1048 146.029L1046 145.062Z" fill="#A26B06"/>
<path d="M1064 143.133C1066 144.1 1066 144.1 1066 144.1L1064 143.133Z" fill="#A26B06"/>
<path d="M394 143.133C396 144.1 396 144.1 396 144.1L394 143.133Z" fill="#A26B06"/>
<path d="M406 142.168C408 143.135 408 143.135 408 143.135L406 142.168Z" fill="#A26B06"/>
<path d="M343 140.238C345 141.205 345 141.205 345 141.205L343 140.238Z" fill="#ECC206"/>
<path d="M496 138.309C498 139.276 498 139.276 498 139.276L496 138.309Z" fill="#A26B06"/>
<path d="M537 135.416C539 136.383 539 136.383 539 136.383L537 135.416Z" fill="#A26B06"/>
<path d="M534 135.416C536 136.383 536 136.383 536 136.383L534 135.416Z" fill="#A26B06"/>
<path d="M34 124.805C36 125.772 36 125.772 36 125.772L34 124.805Z" fill="#A26B06"/>
<path d="M921 123.84C923 124.807 923 124.807 923 124.807L921 123.84Z" fill="#A26B06"/>
<path d="M969 120.947C971 121.914 971 121.914 971 121.914L969 120.947Z" fill="#A26B06"/>
<path d="M966 120.947C968 121.914 968 121.914 968 121.914L966 120.947Z" fill="#A26B06"/>
<path d="M951 120.947C953 121.914 953 121.914 953 121.914L951 120.947Z" fill="#A26B06"/>
<path d="M74 118.053C76 119.02 76 119.02 76 119.02L74 118.053Z" fill="#A26B06"/>
<path d="M172 102.619C174 103.586 174 103.586 174 103.586L172 102.619Z" fill="#A26B06"/>
<path d="M281 93.9395C283 94.9064 283 94.9064 283 94.9064L281 93.9395Z" fill="#A26B06"/>
<path d="M300 92.0098C302 92.9767 302 92.9767 302 92.9767L300 92.0098Z" fill="#A26B06"/>
<path d="M326 91.0449C328 92.0118 328 92.0118 328 92.0118L326 91.0449Z" fill="#A26B06"/>
<path d="M323 91.0449C325 92.0118 325 92.0118 325 92.0118L323 91.0449Z" fill="#A26B06"/>
<path d="M320 91.0449C322 92.0118 322 92.0118 322 92.0118L320 91.0449Z" fill="#A26B06"/>
<path d="M363 89.1152C365 90.0821 365 90.0821 365 90.0821L363 89.1152Z" fill="#A26B06"/>
<path d="M360 89.1152C362 90.0821 362 90.0821 362 90.0821L360 89.1152Z" fill="#A26B06"/>
<path d="M357 89.1152C359 90.0821 359 90.0821 359 90.0821L357 89.1152Z" fill="#A26B06"/>
<path d="M394 87.1855C396 88.1525 396 88.1525 396 88.1525L394 87.1855Z" fill="#A26B06"/>
<path d="M391 87.1855C393 88.1525 393 88.1525 393 88.1525L391 87.1855Z" fill="#A26B06"/>
<path d="M420 85.2578C422 86.2247 422 86.2247 422 86.2247L420 85.2578Z" fill="#A26B06"/>
<path d="M417 85.2578C419 86.2247 419 86.2247 419 86.2247L417 85.2578Z" fill="#A26B06"/>
<path d="M414 85.2578C416 86.2247 416 86.2247 416 86.2247L414 85.2578Z" fill="#A26B06"/>
<path d="M462 83.3281C464 84.295 464 84.295 464 84.295L462 83.3281Z" fill="#A26B06"/>
<path d="M503 80.4336C505 81.4005 505 81.4005 505 81.4005L503 80.4336Z" fill="#A26B06"/>
<path d="M500 80.4336C502 81.4005 502 81.4005 502 81.4005L500 80.4336Z" fill="#A26B06"/>
<path d="M216 80.4336C218 81.4005 218 81.4005 218 81.4005L216 80.4336Z" fill="#A26B06"/>
<path d="M213 80.4336C215 81.4005 215 81.4005 215 81.4005L213 80.4336Z" fill="#A26B06"/>
<path d="M526 79.4688C528 80.4357 528 80.4357 528 80.4357L526 79.4688Z" fill="#A26B06"/>
<path d="M184 78.5059C186 79.4728 186 79.4728 186 79.4728L184 78.5059Z" fill="#ECC206"/>
<path d="M1234 77.541C1236 78.5079 1236 78.5079 1236 78.5079L1234 77.541Z" fill="#A26B06"/>
<path d="M549 77.541C551 78.5079 551 78.5079 551 78.5079L549 77.541Z" fill="#A26B06"/>
<path d="M567 76.5762C569 77.5431 569 77.5431 569 77.5431L567 76.5762Z" fill="#A26B06"/>
<path d="M583 75.6113C585 76.5782 585 76.5782 585 76.5782L583 75.6113Z" fill="#A26B06"/>
<path d="M395 74.6465C397 75.6134 397 75.6134 397 75.6134L395 74.6465Z" fill="#ECC206"/>
<path d="M612 73.6816C614 74.6486 614 74.6486 614 74.6486L612 73.6816Z" fill="#A26B06"/>
<path d="M609 73.6816C611 74.6486 611 74.6486 611 74.6486L609 73.6816Z" fill="#A26B06"/>
<path d="M631 72.7168C633 73.6837 633 73.6837 633 73.6837L631 72.7168Z" fill="#A26B06"/>
<path d="M628 72.7168C630 73.6837 630 73.6837 630 73.6837L628 72.7168Z" fill="#A26B06"/>
<path d="M625 72.7168C627 73.6837 627 73.6837 627 73.6837L625 72.7168Z" fill="#A26B06"/>
<path d="M699 68.8594C701 69.8263 701 69.8263 701 69.8263L699 68.8594Z" fill="#A26B06"/>
<path d="M722 66.9297C724 67.8966 724 67.8966 724 67.8966L722 66.9297Z" fill="#A26B06"/>
<path d="M1155 62.1074C1157 63.0743 1157 63.0743 1157 63.0743L1155 62.1074Z" fill="#A26B06"/>
<path d="M1152 62.1074C1154 63.0743 1154 63.0743 1154 63.0743L1152 62.1074Z" fill="#A26B06"/>
<path d="M1076 62.1074C1078 63.0743 1078 63.0743 1078 63.0743L1076 62.1074Z" fill="#A26B06"/>
<path d="M774 62.1074C776 63.0743 776 63.0743 776 63.0743L774 62.1074Z" fill="#A26B06"/>
<path d="M835 58.248C837 59.215 837 59.215 837 59.215L835 58.248Z" fill="#A26B06"/>
<path d="M832 58.248C834 59.215 834 59.215 834 59.215L832 58.248Z" fill="#A26B06"/>
<path d="M316 51.4961C318 52.463 318 52.463 318 52.463L316 51.4961Z" fill="#A26B06"/>
<path d="M447 39.9219C449 40.8888 449 40.8888 449 40.8888L447 39.9219Z" fill="#A26B06"/>
<path d="M509 37.0273C511 37.9943 511 37.9943 511 37.9943L509 37.0273Z" fill="#A26B06"/>
<path d="M500 36.0625C502 37.0294 502 37.0294 502 37.0294L500 36.0625Z" fill="#A26B06"/>
<path d="M827 31.2402C829 32.2071 829 32.2071 829 32.2071L827 31.2402Z" fill="#ECC206"/>
<path d="M601 29.3105C603 30.2775 603 30.2775 603 30.2775L601 29.3105Z" fill="#A26B06"/>
<path d="M628 27.3828C630 28.3497 630 28.3497 630 28.3497L628 27.3828Z" fill="#A26B06"/>
<path d="M620 27.3828C622 28.3497 622 28.3497 622 28.3497L620 27.3828Z" fill="#A26B06"/>
<path d="M643 26.418C645 27.3849 645 27.3849 645 27.3849L643 26.418Z" fill="#A26B06"/>
<path d="M662 25.4531C664 26.42 664 26.42 664 26.42L662 25.4531Z" fill="#A26B06"/>
<path d="M677 23.5234C679 24.4903 679 24.4903 679 24.4903L677 23.5234Z" fill="#A26B06"/>
<path d="M674 23.5234C676 24.4903 676 24.4903 676 24.4903L674 23.5234Z" fill="#A26B06"/>
<path d="M699 22.5586C701 23.5255 701 23.5255 701 23.5255L699 22.5586Z" fill="#A26B06"/>
<path d="M696 22.5586C698 23.5255 698 23.5255 698 23.5255L696 22.5586Z" fill="#A26B06"/>
<path d="M771 17.7363C773 18.7032 773 18.7032 773 18.7032L771 17.7363Z" fill="#A26B06"/>
<path d="M804 14.8418C806 15.8087 806 15.8087 806 15.8087L804 14.8418Z" fill="#A26B06"/>
<path d="M1227 7.125C1229 8.09191 1229 8.09191 1229 8.09191L1227 7.125Z" fill="#A26B06"/>
<path d="M899 7.125C901 8.09191 901 8.09191 901 8.09191L899 7.125Z" fill="#A26B06"/>
<path d="M955 4.23242C957 5.19933 957 5.19933 957 5.19933L955 4.23242Z" fill="#A26B06"/>
<path d="M970 3.26758C972 4.23449 972 4.23449 972 4.23449L970 3.26758Z" fill="#A26B06"/>
<path d="M993 1.33789C995 2.3048 995 2.3048 995 2.3048L993 1.33789Z" fill="#A26B06"/>
</svg>
