<?xml version="1.0" encoding="UTF-8"?>
<!-- Generator: visioncortex VTracer 0.6.3 -->
<svg version="1.1" xmlns="http://www.w3.org/2000/svg" width="1280" height="1073">
<path d="M0 0 C23.1 0.33 46.2 0.66 70 1 C72 7 72 7 72 11 C83.88 11 95.76 11 108 11 C108 10.67 108 10.34 108 10 C117.57 8.84 127.07 8.88 136.69 8.94 C138.28 8.94 139.86 8.95 141.45 8.95 C145.3 8.96 149.15 8.98 153 9 C153 8.34 153 7.68 153 7 C169.2 6.9 185.4 6.87 201.6 7.32 C202.98 7.36 204.37 7.39 205.75 7.42 C207.69 7.47 209.63 7.53 211.57 7.59 C212.67 7.62 213.77 7.65 214.91 7.68 C218 8 218 8 221.28 9.12 C222.63 9.55 222.63 9.55 224 10 C225.34 9.01 226.67 8.01 228 7 C231.22 7.23 234 7.59 237 8.81 C239.98 9.09 241.7 7.44 244.16 5.93 C248.64 3.66 253.28 5.05 257.94 6.06 C263.62 7.2 268.88 6.89 274.61 6.37 C277.8 6.08 279.92 5.97 283 7 C284.89 7.07 286.79 7.08 288.69 7.06 C289.68 7.05 290.68 7.04 291.7 7.04 C292.46 7.02 293.22 7.01 294 7 C294 6.67 294 6.34 294 6 C296.02 6.03 298.04 6.07 300.05 6.1 C302.08 6.13 302.08 6.13 304 5 C306.21 5.09 308.42 5.24 310.62 5.44 C311.81 5.54 313 5.64 314.23 5.75 C315.6 5.87 315.6 5.87 317 6 C317 6.66 317 7.32 317 8 C318.73 8.2 320.46 8.38 322.19 8.56 C323.15 8.67 324.11 8.77 325.11 8.88 C328.63 9.03 331.61 8.35 335 7.5 C343.03 5.49 343.03 5.49 347 6 C348.98 8.08 348.98 8.08 350.75 10.81 C351.64 12.15 351.64 12.15 352.55 13.52 C354 16 354 16 355 19 C358.34 20.19 358.34 20.19 362 21 C363.14 21.31 363.14 21.31 364.31 21.62 C366.04 22.07 366.04 22.07 368 22 C368 22.66 368 23.32 368 24 C368.55 23.67 369.1 23.35 369.67 23.01 C373.84 21.2 378.23 21.81 382.71 21.94 C385.43 22.01 388.15 22.03 390.86 22.05 C392.95 22.1 395.04 22.14 397.12 22.19 C398.15 22.19 399.17 22.2 400.22 22.2 C402.9 22.29 405.38 22.41 408 23 C410.04 25.28 410.04 25.28 411 28 C411.39 28.74 411.77 29.48 412.17 30.24 C412.5 30.92 412.84 31.61 413.19 32.31 C413.53 33.01 413.88 33.71 414.23 34.43 C414.48 34.95 414.74 35.46 415 36 C384.38 51.31 326.26 41.08 291.91 41.28 C291.1 41.29 290.3 41.29 289.46 41.3 C275.27 41.38 261.08 41.45 246.89 41.53 C237.6 41.57 228.3 41.62 219.01 41.68 C214.28 41.71 209.54 41.73 204.81 41.75 C201.9 41.76 198.99 41.78 196.08 41.8 C194.08 41.81 192.09 41.82 190.1 41.82 C188.33 41.84 188.33 41.84 186.53 41.85 C185.5 41.85 184.48 41.86 183.42 41.86 C180.99 41.84 180.99 41.84 179 43 C177.2 43.11 175.4 43.16 173.59 43.17 C172.45 43.19 171.3 43.2 170.12 43.21 C168.85 43.23 167.59 43.24 166.29 43.25 C164.95 43.26 163.61 43.28 162.27 43.29 C159.38 43.33 156.49 43.36 153.61 43.39 C145.91 43.47 138.21 43.57 130.51 43.68 C129.72 43.69 128.92 43.71 128.11 43.72 C110.6 43.97 93.1 44.41 75.6 44.93 C73.37 45 71.14 45.06 68.91 45.13 C64.76 45.24 60.61 45.37 56.46 45.5 C55.22 45.54 53.98 45.57 52.7 45.61 C51.58 45.64 50.46 45.68 49.3 45.72 C48.32 45.75 47.34 45.78 46.33 45.81 C43.98 45.86 43.98 45.86 42 47 C40.44 47.14 38.87 47.23 37.31 47.28 C36.33 47.32 35.36 47.35 34.35 47.39 C33.3 47.43 32.24 47.46 31.16 47.5 C29.54 47.56 29.54 47.56 27.88 47.62 C23.25 47.8 18.61 47.96 13.98 48.12 C10.6 48.25 7.22 48.37 3.84 48.5 C2.79 48.54 1.73 48.57 0.65 48.61 C-0.33 48.64 -1.3 48.68 -2.31 48.72 C-3.17 48.75 -4.03 48.78 -4.91 48.81 C-7.06 48.88 -7.06 48.88 -9 50 C-11.2 50.17 -13.41 50.29 -15.62 50.37 C-16.3 50.4 -16.98 50.43 -17.68 50.46 C-19.16 50.52 -20.64 50.57 -22.11 50.63 C-24.45 50.72 -26.79 50.81 -29.12 50.91 C-34.92 51.15 -40.73 51.37 -46.53 51.6 C-51.43 51.79 -56.33 51.99 -61.24 52.19 C-63.54 52.28 -65.85 52.37 -68.15 52.45 C-69.56 52.51 -70.97 52.57 -72.38 52.63 C-73.61 52.68 -74.85 52.72 -76.12 52.77 C-78.94 52.81 -78.94 52.81 -81 54 C-83.15 54.17 -85.3 54.29 -87.45 54.37 C-88.12 54.4 -88.78 54.43 -89.46 54.46 C-90.9 54.52 -92.34 54.57 -93.77 54.63 C-96.05 54.72 -98.32 54.81 -100.59 54.91 C-106.24 55.15 -111.88 55.37 -117.53 55.6 C-122.3 55.79 -127.07 55.99 -131.83 56.19 C-134.08 56.28 -136.32 56.37 -138.57 56.45 C-139.94 56.51 -141.31 56.57 -142.68 56.63 C-143.88 56.68 -145.08 56.72 -146.31 56.77 C-148.92 56.7 -148.92 56.7 -150 58 C-151.92 58.18 -153.85 58.29 -155.77 58.37 C-157.01 58.43 -158.24 58.49 -159.51 58.55 C-160.18 58.57 -160.84 58.6 -161.53 58.63 C-163.6 58.72 -165.67 58.81 -167.74 58.91 C-172.14 59.11 -176.54 59.31 -180.94 59.5 C-186.03 59.72 -191.12 59.95 -196.21 60.19 C-198.26 60.28 -200.3 60.37 -202.35 60.45 C-203.58 60.51 -204.82 60.57 -206.1 60.63 C-207.74 60.7 -207.74 60.7 -209.41 60.77 C-211.98 60.84 -211.98 60.84 -214 62 C-216.74 62.21 -219.47 62.38 -222.22 62.5 C-223.03 62.54 -223.85 62.58 -224.68 62.62 C-228.17 62.8 -231.66 62.96 -235.15 63.12 C-237.69 63.25 -240.24 63.37 -242.78 63.5 C-243.97 63.55 -243.97 63.55 -245.18 63.61 C-249.22 63.73 -249.22 63.73 -253 65 C-254.84 65.17 -256.68 65.29 -258.52 65.37 C-260.25 65.46 -260.25 65.46 -262.02 65.55 C-263.27 65.6 -264.52 65.66 -265.81 65.72 C-267.77 65.81 -269.72 65.91 -271.68 66.01 C-275.82 66.21 -279.95 66.4 -284.09 66.6 C-287.5 66.76 -290.9 66.92 -294.31 67.09 C-296.87 67.22 -299.42 67.34 -301.98 67.45 C-303.71 67.54 -303.71 67.54 -305.48 67.63 C-306.5 67.68 -307.52 67.72 -308.57 67.77 C-311.01 67.85 -311.01 67.85 -313 69 C-314.77 69.17 -316.56 69.29 -318.34 69.37 C-319.45 69.43 -320.57 69.49 -321.71 69.55 C-323.53 69.63 -323.53 69.63 -325.38 69.72 C-326.61 69.78 -327.85 69.84 -329.12 69.91 C-333.75 70.14 -338.39 70.37 -343.02 70.6 C-347.56 70.82 -352.09 71.05 -356.62 71.28 C-357.83 71.34 -359.04 71.4 -360.29 71.45 C-361.96 71.54 -361.96 71.54 -363.66 71.63 C-364.65 71.68 -365.63 71.72 -366.65 71.77 C-369.02 71.86 -369.02 71.86 -371 73 C-372.62 73.17 -374.25 73.29 -375.88 73.37 C-377.4 73.46 -377.4 73.46 -378.95 73.55 C-380.05 73.6 -381.15 73.66 -382.28 73.72 C-383.97 73.81 -383.97 73.81 -385.69 73.91 C-390.52 74.18 -395.34 74.44 -400.17 74.7 C-403.69 74.89 -407.2 75.08 -410.72 75.28 C-411.82 75.34 -412.92 75.4 -414.05 75.45 C-415.57 75.54 -415.57 75.54 -417.12 75.63 C-418.02 75.68 -418.91 75.72 -419.84 75.77 C-422.05 75.88 -422.05 75.88 -424 77 C-426.16 77.21 -428.33 77.37 -430.5 77.5 C-431.8 77.58 -433.1 77.66 -434.44 77.75 C-436.51 77.88 -438.57 78 -440.64 78.12 C-442.64 78.25 -444.63 78.37 -446.63 78.5 C-448.42 78.61 -448.42 78.61 -450.26 78.72 C-452.91 78.7 -452.91 78.7 -454 80 C-456.56 80.29 -459.11 80.52 -461.68 80.72 C-462.84 80.81 -462.84 80.81 -464.02 80.91 C-466.49 81.11 -468.96 81.31 -471.44 81.5 C-474.69 81.76 -477.94 82.02 -481.18 82.28 C-481.94 82.34 -482.69 82.4 -483.46 82.45 C-487.36 82.72 -487.36 82.72 -491 84 C-493.3 84.28 -495.6 84.51 -497.91 84.72 C-498.93 84.81 -498.93 84.81 -499.97 84.91 C-502.88 85.18 -505.8 85.44 -508.71 85.7 C-510.84 85.89 -512.97 86.09 -515.09 86.28 C-516.37 86.4 -517.64 86.51 -518.96 86.63 C-521.91 86.82 -521.91 86.82 -524 88 C-526.13 88.27 -528.27 88.49 -530.41 88.68 C-532.36 88.87 -532.36 88.87 -534.35 89.06 C-536.41 89.25 -538.48 89.44 -540.54 89.62 C-547.77 90.28 -554.87 91.03 -561.97 92.58 C-564.5 93.1 -566.99 93.34 -569.56 93.5 C-575.51 93.98 -581.07 95.17 -586.8 96.8 C-596.45 99.45 -605.17 99.53 -615 98 C-615.33 98.33 -615.66 98.66 -616 99 C-618.69 99.52 -621.36 99.99 -624.06 100.44 C-628.41 101.15 -632.69 101.88 -636.94 103.05 C-641.56 104.25 -646.19 104.49 -650.94 104.81 C-660.79 105.6 -669.67 107.81 -679 111 C-679.99 111.33 -680.98 111.66 -682 112 C-681.67 109.36 -681.34 106.72 -681 104 C-681.89 104.5 -682.77 104.99 -683.69 105.5 C-686.88 106.94 -688.58 107.3 -692 107 C-692 109.31 -692 111.62 -692 114 C-692.68 114.19 -693.35 114.39 -694.05 114.59 C-695.38 114.98 -695.38 114.98 -696.75 115.38 C-698.07 115.76 -698.07 115.76 -699.42 116.15 C-701.76 116.92 -703.83 117.84 -706 119 C-705.98 118.07 -705.96 117.14 -705.94 116.19 C-705.84 112.98 -705.84 112.98 -707 110 C-708.98 112.97 -710.96 115.94 -713 119 C-714.65 118.67 -716.3 118.34 -718 118 C-718 117.34 -718 116.68 -718 116 C-719.18 115.54 -719.18 115.54 -720.38 115.06 C-723 114 -723 114 -725 113 C-725 112.34 -725 111.68 -725 111 C-724.34 111 -723.68 111 -723 111 C-722.67 110.01 -722.34 109.02 -722 108 C-720.33 107.33 -718.67 106.67 -717 106 C-716.67 105.01 -716.34 104.02 -716 103 C-725.13 100.87 -738.2 98.6 -747 103 C-749.67 103.28 -752.32 103.52 -755 103.72 C-756.19 103.81 -756.19 103.81 -757.4 103.91 C-760.79 104.18 -764.18 104.44 -767.58 104.7 C-770.05 104.89 -772.53 105.08 -775 105.28 C-775.77 105.34 -776.54 105.4 -777.34 105.45 C-781.3 105.71 -781.3 105.71 -785 107 C-788.8 107.37 -792.62 107.47 -796.44 107.62 C-797.48 107.68 -798.52 107.73 -799.6 107.78 C-818.3 108.57 -818.3 108.57 -824 104 C-826.7 104.18 -828.25 105.15 -830.58 106.54 C-834.87 108.37 -838.28 108.34 -842.88 108.19 C-844.05 108.17 -844.05 108.17 -845.25 108.15 C-847.17 108.11 -849.08 108.06 -851 108 C-852 105 -852 105 -851 102 C-851.99 101.67 -852.98 101.34 -854 101 C-853.34 99.35 -852.68 97.7 -852 96 C-851.28 96.01 -850.55 96.02 -849.8 96.04 C-844.75 96.08 -839.97 96.07 -835 95 C-835 94.67 -835 94.34 -835 94 C-830.38 94 -825.76 94 -821 94 C-821 93.67 -821 93.34 -821 93 C-817.37 93.33 -813.74 93.66 -810 94 C-810 93.34 -810 92.68 -810 92 C-808.91 92.04 -807.81 92.08 -806.69 92.12 C-802.91 92.32 -802.91 92.32 -800 90 C-796.81 89.88 -796.81 89.88 -794 90 C-794 89.67 -794 89.34 -794 89 C-791.69 89 -789.38 89 -787 89 C-787 88.67 -787 88.34 -787 88 C-786.4 87.94 -785.79 87.88 -785.17 87.82 C-784.37 87.73 -783.57 87.65 -782.75 87.56 C-781.96 87.48 -781.17 87.4 -780.36 87.32 C-777.13 86.88 -774.26 86.09 -771.19 85 C-767.79 83.93 -764.52 83.47 -761 83 C-760.01 82.67 -759.02 82.34 -758 82 C-756.67 81.8 -755.34 81.64 -754 81.5 C-753.21 81.42 -752.42 81.34 -751.61 81.25 C-747.91 80.9 -744.19 80.58 -740.48 80.28 C-738.24 80.03 -736.17 79.61 -734 79 C-734.33 77.35 -734.66 75.7 -735 74 C-746.42 73.86 -757.78 74.21 -769.19 74.8 C-771.92 74.94 -774.65 75.07 -777.39 75.2 C-779.13 75.29 -780.87 75.38 -782.62 75.46 C-783.84 75.52 -783.84 75.52 -785.09 75.58 C-789.18 75.72 -789.18 75.72 -793 77 C-795.88 77.07 -798.74 77.09 -801.62 77.06 C-802.43 77.06 -803.23 77.05 -804.05 77.05 C-806.04 77.04 -808.02 77.02 -810 77 C-810.62 75.2 -810.62 75.2 -811 73 C-808.55 69.17 -807.04 67.46 -802.88 65.62 C-798.65 64.94 -794.72 64.93 -790.45 65.12 C-787.74 65.2 -787.74 65.2 -785 63 C-783.33 62.96 -781.67 62.96 -780 63 C-777.8 62.7 -777.8 62.7 -776 62 C-775.5 61.01 -775.5 61.01 -775 60 C-770.09 58.5 -766.13 58 -761 58 C-760.01 57.01 -760.01 57.01 -759 56 C-755.38 55.88 -755.38 55.88 -752 56 C-752 55.67 -752 55.34 -752 55 C-748.43 54.17 -745.22 53.92 -741.56 54 C-737.58 54.04 -733.91 53.84 -730 53 C-730 52.67 -730 52.34 -730 52 C-725.38 52 -720.76 52 -716 52 C-716 51.67 -716 51.34 -716 51 C-714.71 51.02 -713.42 51.04 -712.1 51.06 C-707.16 51.06 -702.34 50.6 -697.44 50 C-696.21 49.86 -696.21 49.86 -694.96 49.71 C-692.97 49.48 -690.99 49.24 -689 49 C-689 48.67 -689 48.34 -689 48 C-682.07 48.5 -682.07 48.5 -675 49 C-675 48.34 -675 47.68 -675 47 C-674.43 47.01 -673.86 47.02 -673.28 47.04 C-668.39 47.09 -663.81 46.82 -659 46 C-659 45.67 -659 45.34 -659 45 C-654.38 45 -649.76 45 -645 45 C-645 44.67 -645 44.34 -645 44 C-642.03 44 -639.06 44 -636 44 C-636 43.67 -636 43.34 -636 43 C-635.13 43.01 -634.26 43.02 -633.37 43.04 C-632.21 43.04 -631.06 43.05 -629.88 43.06 C-628.74 43.07 -627.6 43.09 -626.43 43.1 C-623.19 43.01 -620.18 42.61 -617 42 C-617 41.67 -617 41.34 -617 41 C-610.07 41 -603.14 41 -596 41 C-596 40.67 -596 40.34 -596 40 C-591.05 40.33 -586.1 40.66 -581 41 C-581 40.34 -581 39.68 -581 39 C-574.73 38.67 -568.46 38.34 -562 38 C-562 37.67 -562 37.34 -562 37 C-551.77 37 -541.54 37 -531 37 C-531 36.67 -531 36.34 -531 36 C-529.91 36.02 -529.91 36.02 -528.79 36.04 C-521.97 36.09 -515.18 35.95 -508.38 35.62 C-507.59 35.59 -506.81 35.56 -506.01 35.53 C-502.22 35.33 -500.22 35.15 -497 33 C-494.39 32.83 -491.88 32.77 -489.27 32.8 C-488.52 32.81 -487.77 32.81 -487 32.81 C-484.6 32.82 -482.21 32.85 -479.81 32.88 C-478.19 32.89 -476.56 32.89 -474.94 32.9 C-470.96 32.92 -466.98 32.96 -463 33 C-463 32.67 -463 32.34 -463 32 C-462.15 32.01 -461.31 32.02 -460.44 32.04 C-454.18 32.08 -448.18 31.97 -442 31 C-442 30.67 -442 30.34 -442 30 C-438.37 30 -434.74 30 -431 30 C-431 29.67 -431 29.34 -431 29 C-429.62 29.01 -429.62 29.01 -428.22 29.02 C-424.8 29.03 -421.39 29.05 -417.98 29.05 C-416.5 29.06 -415.02 29.07 -413.55 29.08 C-411.42 29.09 -409.3 29.09 -407.17 29.1 C-405.89 29.1 -404.62 29.11 -403.3 29.11 C-400.61 29.02 -398.55 28.74 -396 28 C-394.06 27.98 -392.12 28.01 -390.19 28.06 C-379.75 28.16 -369.38 27.01 -359 26 C-359 25.67 -359 25.34 -359 25 C-343.26 24.82 -343.26 24.82 -336 26 C-336 25.34 -336 24.68 -336 24 C-328.32 23.33 -320.72 22.84 -313 23 C-313 22.67 -313 22.34 -313 22 C-305.41 22 -297.82 22 -290 22 C-290 21.67 -290 21.34 -290 21 C-286.37 21 -282.74 21 -279 21 C-279 20.67 -279 20.34 -279 20 C-259.66 18.81 -259.66 18.81 -250 19 C-250 18.67 -250 18.34 -250 18 C-243.73 18 -237.46 18 -231 18 C-231 17.67 -231 17.34 -231 17 C-224.4 17 -217.8 17 -211 17 C-210.67 16.34 -210.34 15.68 -210 15 C-198.12 15 -186.24 15 -174 15 C-174 14.67 -174 14.34 -174 14 C-168.72 14 -163.44 14 -158 14 C-158 13.67 -158 13.34 -158 13 C-157.05 13.01 -156.09 13.02 -155.11 13.04 C-153.86 13.04 -152.6 13.05 -151.31 13.06 C-149.45 13.08 -149.45 13.08 -147.55 13.1 C-144.54 13.01 -141.92 12.71 -139 12 C-139 11.67 -139 11.34 -139 11 C-134.38 11 -129.76 11 -125 11 C-125 10.67 -125 10.34 -125 10 C-124.29 10.01 -123.58 10.02 -122.85 10.04 C-121.93 10.04 -121.01 10.05 -120.06 10.06 C-118.69 10.08 -118.69 10.08 -117.29 10.1 C-115.03 10.26 -115.03 10.26 -114 9 C-111.65 8.76 -109.29 8.59 -106.94 8.44 C-105.65 8.35 -104.36 8.27 -103.03 8.18 C-102.03 8.12 -101.03 8.06 -100 8 C-100 7.67 -100 7.34 -100 7 C-95.71 7 -91.42 7 -87 7 C-87 6.67 -87 6.34 -87 6 C-80.48 5.13 -74.12 4.95 -67.56 5 C-57.68 5.07 -47.86 4.62 -38 4 C-38 3.67 -38 3.34 -38 3 C-33.37 3.12 -28.75 3.24 -24.12 3.37 C-22.55 3.42 -20.97 3.46 -19.4 3.5 C-17.14 3.56 -14.87 3.62 -12.61 3.68 C-11.91 3.7 -11.21 3.72 -10.48 3.73 C-7.2 3.83 -4.15 4.01 -1 5 C-0.67 3.35 -0.34 1.7 0 0 Z M-77 6 C-77 6.33 -77 6.66 -77 7 C-75.02 7 -73.04 7 -71 7 C-71 6.67 -71 6.34 -71 6 C-72.98 6 -74.96 6 -77 6 Z M266 8 C266 8.33 266 8.66 266 9 C268.97 9 271.94 9 275 9 C275 8.67 275 8.34 275 8 C272.03 8 269.06 8 266 8 Z M119 10 C119 10.33 119 10.66 119 11 C124.28 11 129.56 11 135 11 C135 10.67 135 10.34 135 10 C129.72 10 124.44 10 119 10 Z M-711 102 C-710.67 103.32 -710.34 104.64 -710 106 C-708.95 105.69 -707.9 105.38 -706.81 105.06 C-703 104 -703 104 -700.31 103.62 C-697.32 102.82 -696 101.3 -694 99 C-700.46 98.6 -705.06 99.41 -711 102 Z M-694 100 C-694 100.66 -694 101.32 -694 102 C-692.35 102 -690.7 102 -689 102 C-689.66 101.34 -690.32 100.68 -691 100 C-691.99 100 -692.98 100 -694 100 Z M-715 104 C-714 106 -714 106 -714 106 Z " fill="#CB8506" transform="translate(865,471)"/>
<path d="M0 0 C42.57 0 85.14 0 129 0 C129 0.33 129 0.66 129 1 C130.11 0.97 130.11 0.97 131.24 0.93 C149.31 0.61 149.31 0.61 153.8 4.6 C156.82 8.87 157.54 12.86 157.47 18.02 C156.88 20.49 156 21.46 154 23 C150.96 22.71 149.61 21.74 147 20 C140.25 20.34 132.45 23.04 127.19 27.25 C125 29 125 29 122.06 29.44 C119 29 119 29 116.19 27.38 C111.68 25.43 108.51 26.34 104 28 C102.81 28.66 101.62 29.33 100.43 30 C95.82 32.31 91.64 32.75 86.54 33.01 C85.67 33.07 84.8 33.13 83.9 33.19 C81.14 33.37 78.38 33.53 75.62 33.69 C72.85 33.86 70.07 34.04 67.29 34.22 C65.57 34.33 63.84 34.43 62.12 34.53 C57.93 34.69 57.93 34.69 54 36 C51.83 36.17 49.65 36.29 47.47 36.37 C46.8 36.4 46.13 36.43 45.44 36.46 C43.98 36.52 42.53 36.57 41.07 36.63 C38.77 36.72 36.47 36.81 34.16 36.91 C28.44 37.15 22.73 37.37 17.01 37.6 C12.17 37.79 7.34 37.99 2.51 38.19 C0.24 38.28 -2.03 38.37 -4.3 38.45 C-5.69 38.51 -7.08 38.57 -8.47 38.63 C-10.29 38.7 -10.29 38.7 -12.15 38.77 C-14.95 38.82 -14.95 38.82 -17 40 C-19.89 40.29 -22.76 40.52 -25.66 40.72 C-26.51 40.78 -27.37 40.84 -28.26 40.91 C-31.94 41.18 -35.62 41.44 -39.3 41.7 C-41.98 41.89 -44.66 42.08 -47.34 42.28 C-48.18 42.34 -49.02 42.4 -49.88 42.45 C-54.07 42.67 -54.07 42.67 -58 44 C-59.86 44.21 -61.73 44.37 -63.59 44.5 C-64.71 44.58 -65.82 44.66 -66.96 44.75 C-69.32 44.92 -71.68 45.08 -74.04 45.25 C-75.15 45.33 -76.26 45.41 -77.41 45.5 C-78.94 45.61 -78.94 45.61 -80.51 45.72 C-83 45.86 -83 45.86 -85 47 C-87.96 47.29 -90.91 47.52 -93.88 47.72 C-94.76 47.78 -95.64 47.84 -96.54 47.91 C-100.32 48.18 -104.09 48.44 -107.87 48.7 C-110.62 48.89 -113.37 49.08 -116.12 49.28 C-116.98 49.34 -117.84 49.4 -118.73 49.45 C-123 49.66 -123 49.66 -127 51 C-129.96 51.29 -132.91 51.52 -135.88 51.72 C-136.76 51.78 -137.64 51.84 -138.54 51.91 C-142.32 52.18 -146.09 52.44 -149.87 52.7 C-152.62 52.89 -155.37 53.08 -158.12 53.28 C-158.98 53.34 -159.84 53.4 -160.73 53.45 C-165 53.66 -165 53.66 -169 55 C-172.05 55.29 -175.08 55.52 -178.13 55.72 C-179.03 55.78 -179.94 55.84 -180.87 55.91 C-184.75 56.18 -188.63 56.44 -192.52 56.7 C-195.35 56.89 -198.18 57.08 -201 57.28 C-201.89 57.34 -202.77 57.4 -203.69 57.45 C-207.67 57.36 -207.67 57.36 -211 59 C-213.12 59.22 -215.24 59.37 -217.37 59.5 C-218.67 59.58 -219.96 59.66 -221.3 59.75 C-222.68 59.83 -224.06 59.92 -225.44 60 C-228.12 60.16 -230.81 60.33 -233.5 60.5 C-234.69 60.57 -235.89 60.64 -237.13 60.72 C-239.94 60.82 -239.94 60.82 -242 62 C-243.65 62.17 -245.31 62.29 -246.97 62.37 C-248 62.43 -249.04 62.49 -250.1 62.55 C-251.22 62.6 -252.35 62.66 -253.5 62.72 C-254.65 62.78 -255.79 62.84 -256.97 62.91 C-261.9 63.18 -266.82 63.44 -271.74 63.7 C-275.33 63.89 -278.91 64.08 -282.5 64.28 C-283.62 64.34 -284.74 64.4 -285.9 64.45 C-286.93 64.51 -287.97 64.57 -289.03 64.63 C-289.94 64.68 -290.86 64.72 -291.8 64.77 C-294.04 64.87 -294.04 64.87 -296 66 C-297.59 66.17 -299.19 66.29 -300.79 66.37 C-302.28 66.46 -302.28 66.46 -303.8 66.55 C-304.88 66.6 -305.95 66.66 -307.06 66.72 C-308.72 66.81 -308.72 66.81 -310.4 66.91 C-315.13 67.18 -319.87 67.44 -324.6 67.7 C-328.04 67.89 -331.49 68.08 -334.94 68.28 C-336.01 68.34 -337.09 68.4 -338.2 68.45 C-339.69 68.54 -339.69 68.54 -341.21 68.63 C-342.09 68.68 -342.97 68.72 -343.87 68.77 C-346.05 68.88 -346.05 68.88 -348 70 C-350.96 70.29 -353.91 70.52 -356.88 70.72 C-358.2 70.81 -358.2 70.81 -359.54 70.91 C-363.32 71.18 -367.09 71.44 -370.87 71.7 C-373.62 71.89 -376.37 72.08 -379.12 72.28 C-380.41 72.37 -380.41 72.37 -381.73 72.45 C-386 72.66 -386 72.66 -390 74 C-391.94 74.21 -393.9 74.37 -395.85 74.5 C-397.01 74.58 -398.17 74.66 -399.37 74.75 C-401.84 74.92 -404.3 75.08 -406.77 75.25 C-407.93 75.33 -409.09 75.41 -410.29 75.5 C-411.36 75.57 -412.43 75.64 -413.53 75.72 C-415.94 75.73 -415.94 75.73 -417 77 C-418.52 77.18 -420.05 77.29 -421.58 77.37 C-422.55 77.43 -423.53 77.49 -424.53 77.55 C-425.59 77.6 -426.65 77.66 -427.75 77.72 C-428.83 77.78 -429.91 77.84 -431.02 77.91 C-434.49 78.11 -437.97 78.31 -441.44 78.5 C-446 78.76 -450.56 79.02 -455.12 79.28 C-456.71 79.37 -456.71 79.37 -458.33 79.45 C-459.31 79.51 -460.28 79.57 -461.29 79.63 C-462.15 79.68 -463.02 79.72 -463.91 79.77 C-466.06 79.88 -466.06 79.88 -468 81 C-470.77 81.18 -473.52 81.3 -476.29 81.37 C-477.57 81.41 -477.57 81.41 -478.89 81.46 C-480.75 81.52 -482.61 81.57 -484.48 81.63 C-487.42 81.72 -490.37 81.81 -493.31 81.91 C-500.63 82.15 -507.94 82.37 -515.25 82.6 C-521.43 82.79 -527.61 82.99 -533.79 83.19 C-536.7 83.28 -539.61 83.37 -542.52 83.45 C-544.29 83.51 -546.07 83.57 -547.84 83.63 C-548.66 83.65 -549.47 83.67 -550.31 83.7 C-553.96 83.49 -553.96 83.49 -557 85 C-559.6 85.18 -562.19 85.3 -564.79 85.37 C-565.61 85.4 -566.43 85.43 -567.27 85.46 C-569.04 85.52 -570.82 85.57 -572.6 85.63 C-575.41 85.72 -578.22 85.81 -581.03 85.91 C-587 86.11 -592.97 86.31 -598.94 86.5 C-605.85 86.72 -612.76 86.95 -619.67 87.19 C-622.44 87.28 -625.22 87.37 -627.99 87.45 C-629.69 87.51 -631.38 87.57 -633.08 87.63 C-633.85 87.65 -634.63 87.67 -635.43 87.7 C-639.34 87.77 -639.34 87.77 -643 89 C-644.41 89.14 -645.83 89.23 -647.25 89.28 C-648.13 89.32 -649.01 89.35 -649.91 89.39 C-650.86 89.43 -651.81 89.46 -652.79 89.5 C-653.76 89.54 -654.73 89.58 -655.73 89.62 C-659.9 89.8 -664.07 89.96 -668.24 90.12 C-671.27 90.25 -674.31 90.37 -677.35 90.5 C-678.3 90.54 -679.25 90.57 -680.23 90.61 C-681.1 90.64 -681.98 90.68 -682.88 90.72 C-683.65 90.75 -684.43 90.78 -685.22 90.81 C-687.02 90.81 -687.02 90.81 -688 92 C-689.46 92.18 -690.93 92.29 -692.4 92.37 C-693.8 92.46 -693.8 92.46 -695.23 92.55 C-696.24 92.6 -697.26 92.66 -698.31 92.72 C-699.86 92.81 -699.86 92.81 -701.45 92.91 C-704.78 93.11 -708.11 93.31 -711.44 93.5 C-715.81 93.76 -720.19 94.02 -724.56 94.28 C-725.57 94.34 -726.59 94.4 -727.63 94.45 C-729.04 94.54 -729.04 94.54 -730.47 94.63 C-731.3 94.68 -732.13 94.72 -732.98 94.77 C-735.07 94.89 -735.07 94.89 -737 96 C-738.35 96.17 -739.7 96.28 -741.05 96.37 C-742.3 96.46 -742.3 96.46 -743.58 96.55 C-744.48 96.6 -745.38 96.66 -746.31 96.72 C-747.7 96.81 -747.7 96.81 -749.11 96.91 C-753.08 97.18 -757.05 97.44 -761.01 97.7 C-763.91 97.89 -766.8 98.08 -769.69 98.28 C-770.59 98.34 -771.49 98.4 -772.42 98.45 C-773.67 98.54 -773.67 98.54 -774.95 98.63 C-775.68 98.68 -776.42 98.72 -777.18 98.77 C-779.1 98.91 -779.1 98.91 -781 100 C-783.96 100.29 -786.91 100.52 -789.88 100.72 C-790.76 100.78 -791.64 100.84 -792.54 100.91 C-796.32 101.18 -800.09 101.44 -803.87 101.7 C-806.62 101.89 -809.37 102.08 -812.12 102.28 C-812.98 102.34 -813.84 102.4 -814.73 102.45 C-819 102.66 -819 102.66 -823 104 C-824.41 104.17 -825.82 104.28 -827.23 104.37 C-828.55 104.46 -828.55 104.46 -829.88 104.55 C-830.83 104.6 -831.78 104.66 -832.75 104.72 C-834.2 104.81 -834.2 104.81 -835.69 104.91 C-839.84 105.18 -844 105.44 -848.16 105.7 C-851.19 105.89 -854.22 106.08 -857.25 106.28 C-858.2 106.34 -859.14 106.4 -860.12 106.45 C-861.43 106.54 -861.43 106.54 -862.77 106.63 C-863.54 106.68 -864.31 106.72 -865.1 106.77 C-867.09 106.9 -867.09 106.9 -869 108 C-871.23 108.21 -873.46 108.37 -875.69 108.5 C-876.35 108.54 -877 108.58 -877.68 108.62 C-880.5 108.8 -883.32 108.96 -886.14 109.12 C-888.2 109.25 -890.26 109.37 -892.31 109.5 C-894.16 109.61 -894.16 109.61 -896.05 109.72 C-898.93 109.81 -898.93 109.81 -901 111 C-902.53 111.17 -904.07 111.29 -905.6 111.37 C-906.56 111.43 -907.51 111.49 -908.49 111.55 C-909.53 111.6 -910.56 111.66 -911.62 111.72 C-913.21 111.81 -913.21 111.81 -914.83 111.91 C-919.37 112.18 -923.91 112.44 -928.45 112.7 C-931.76 112.89 -935.07 113.08 -938.38 113.28 C-939.41 113.34 -940.44 113.4 -941.51 113.45 C-942.94 113.54 -942.94 113.54 -944.4 113.63 C-945.24 113.68 -946.08 113.72 -946.95 113.77 C-949.06 113.89 -949.06 113.89 -951 115 C-952.71 115.17 -954.43 115.29 -956.15 115.37 C-957.76 115.46 -957.76 115.46 -959.41 115.55 C-960.57 115.6 -961.74 115.66 -962.94 115.72 C-964.72 115.81 -964.72 115.81 -966.55 115.91 C-971.66 116.18 -976.77 116.44 -981.89 116.7 C-985.61 116.89 -989.34 117.08 -993.06 117.28 C-994.23 117.34 -995.39 117.4 -996.59 117.45 C-998.2 117.54 -998.2 117.54 -999.85 117.63 C-1000.8 117.68 -1001.75 117.72 -1002.72 117.77 C-1005.03 117.87 -1005.03 117.87 -1007 119 C-1009.51 119.25 -1011.99 119.43 -1014.5 119.56 C-1015.3 119.6 -1016.09 119.65 -1016.91 119.69 C-1031.26 120.34 -1045.65 120.08 -1060 120 C-1061.2 113.31 -1061.2 113.31 -1059.38 110.5 C-1057 109 -1057 109 -1054.25 109.25 C-1053.14 109.62 -1053.14 109.62 -1052 110 C-1052 109.34 -1052 108.68 -1052 108 C-1049.03 107.5 -1049.03 107.5 -1046 107 C-1046 107.33 -1046 107.66 -1046 108 C-1043.87 107.89 -1041.75 107.76 -1039.62 107.62 C-1038.44 107.56 -1037.26 107.49 -1036.04 107.41 C-1032.89 107.3 -1032.89 107.3 -1031 105 C-1028.67 104.96 -1026.33 104.96 -1024 105 C-1022.66 104.71 -1021.32 104.37 -1020 104 C-1017.67 103.65 -1015.34 103.31 -1013 103 C-1013 102.67 -1013 102.34 -1013 102 C-1009.37 102 -1005.74 102 -1002 102 C-1002 101.67 -1002 101.34 -1002 101 C-1000.87 101.02 -999.73 101.04 -998.56 101.06 C-995.18 101.42 -995.18 101.42 -994 100 C-991.35 99.55 -988.68 99.3 -986 99 C-986 98.67 -986 98.34 -986 98 C-983.69 98 -981.38 98 -979 98 C-979 97.67 -979 97.34 -979 97 C-977.05 97.07 -975.09 97.13 -973.14 97.2 C-970.95 97.13 -970.95 97.13 -969.03 96 C-966.6 94.8 -964.94 94.8 -962.25 94.88 C-961.45 94.89 -960.65 94.91 -959.83 94.93 C-959.22 94.95 -958.62 94.98 -958 95 C-958 94.67 -958 94.34 -958 94 C-949.42 94 -940.84 94 -932 94 C-932 93.67 -932 93.34 -932 93 C-921.44 92.67 -910.88 92.34 -900 92 C-900 91.67 -900 91.34 -900 91 C-899.32 91.01 -898.65 91.02 -897.95 91.04 C-896.62 91.05 -896.62 91.05 -895.25 91.06 C-894.37 91.07 -893.49 91.09 -892.58 91.1 C-890.18 91.01 -888.31 90.62 -886 90 C-882.7 89.47 -879.4 88.99 -876.09 88.5 C-873.67 88.11 -871.37 87.61 -869 87 C-861.54 85.73 -861.54 85.73 -859 87 C-859 86.34 -859 85.68 -859 85 C-858.32 84.94 -857.65 84.88 -856.95 84.82 C-856.06 84.73 -855.17 84.65 -854.25 84.56 C-853.37 84.48 -852.49 84.4 -851.58 84.32 C-849.3 84.04 -847.22 83.56 -845 83 C-843.33 82.96 -841.67 82.95 -840 83 C-840 82.67 -840 82.34 -840 82 C-838.93 82.02 -838.93 82.02 -837.85 82.04 C-836.47 82.05 -836.47 82.05 -835.06 82.06 C-834.15 82.07 -833.23 82.09 -832.29 82.1 C-830.03 82.26 -830.03 82.26 -829 81 C-820.7 79.96 -812.35 79.86 -804 80 C-804 79.67 -804 79.34 -804 79 C-797.73 79 -791.46 79 -785 79 C-785 78.67 -785 78.34 -785 78 C-784.31 78.01 -783.62 78.02 -782.91 78.04 C-772.3 78.18 -772.3 78.18 -762 76 C-760.61 75.93 -759.21 75.91 -757.81 75.94 C-756.55 75.96 -755.3 75.98 -754 76 C-754 75.67 -754 75.34 -754 75 C-750.04 75 -746.08 75 -742 75 C-742 74.67 -742 74.34 -742 74 C-741.12 74.01 -740.24 74.02 -739.33 74.04 C-738.17 74.04 -737.01 74.05 -735.81 74.06 C-734.09 74.08 -734.09 74.08 -732.33 74.1 C-729.41 74.01 -726.84 73.68 -724 73 C-724 72.67 -724 72.34 -724 72 C-718.72 72 -713.44 72 -708 72 C-708 71.67 -708 71.34 -708 71 C-703.05 71 -698.1 71 -693 71 C-693 70.67 -693 70.34 -693 70 C-691.02 69.81 -689.04 69.62 -687.06 69.44 C-685.96 69.33 -684.86 69.23 -683.72 69.12 C-682.82 69.08 -681.93 69.04 -681 69 C-680.67 69.33 -680.34 69.66 -680 70 C-678.47 69.91 -676.95 69.75 -675.44 69.56 C-674.61 69.46 -673.78 69.36 -672.93 69.25 C-672.3 69.17 -671.66 69.09 -671 69 C-671 68.67 -671 68.34 -671 68 C-660.38 66.95 -649.85 66.88 -639.19 66.94 C-637.51 66.94 -635.84 66.95 -634.16 66.95 C-630.11 66.96 -626.05 66.98 -622 67 C-622 66.67 -622 66.34 -622 66 C-621.1 65.97 -620.2 65.95 -619.28 65.92 C-615.95 65.83 -612.62 65.73 -609.29 65.63 C-607.85 65.58 -606.41 65.54 -604.97 65.5 C-602.9 65.44 -600.83 65.38 -598.76 65.32 C-597.51 65.28 -596.27 65.24 -594.98 65.21 C-592.07 65.2 -592.07 65.2 -590 64 C-588.4 63.91 -586.79 63.88 -585.18 63.89 C-584.18 63.89 -583.18 63.89 -582.15 63.89 C-581.07 63.89 -579.98 63.9 -578.87 63.9 C-577.76 63.9 -576.65 63.91 -575.51 63.91 C-571.97 63.91 -568.42 63.92 -564.88 63.94 C-562.48 63.94 -560.08 63.95 -557.68 63.95 C-551.78 63.96 -545.89 63.98 -540 64 C-540 63.67 -540 63.34 -540 63 C-539.04 63.01 -538.09 63.02 -537.11 63.04 C-523.87 63.42 -523.87 63.42 -511 61 C-509.44 60.93 -507.87 60.91 -506.31 60.94 C-505.1 60.95 -505.1 60.95 -503.86 60.96 C-503.25 60.98 -502.63 60.99 -502 61 C-502 60.67 -502 60.34 -502 60 C-498.37 60 -494.74 60 -491 60 C-491 59.67 -491 59.34 -491 59 C-489.79 59.01 -488.59 59.02 -487.34 59.04 C-485.73 59.04 -484.11 59.05 -482.5 59.06 C-481.71 59.07 -480.92 59.08 -480.1 59.09 C-474.97 59.11 -470.08 58.74 -465 58 C-465 57.67 -465 57.34 -465 57 C-457.08 56.12 -449.28 55.89 -441.32 55.97 C-438.9 55.99 -436.48 56 -434.07 56.01 C-430.31 56.03 -426.56 56.06 -422.8 56.1 C-419.14 56.13 -415.48 56.14 -411.82 56.16 C-410.71 56.17 -409.6 56.19 -408.46 56.2 C-401.12 56.22 -394.2 55.43 -387 54 C-387 53.67 -387 53.34 -387 53 C-384.03 53 -381.06 53 -378 53 C-378 52.67 -378 52.34 -378 52 C-371.69 50.66 -365.46 50.95 -359.05 51.04 C-352.33 51.1 -345.44 51.12 -338.89 49.47 C-336.55 48.89 -334.39 48.93 -332 49 C-332 48.67 -332 48.34 -332 48 C-325.38 46.88 -325.38 46.88 -322 48 C-319.81 47.94 -317.62 47.81 -315.44 47.62 C-314.28 47.53 -313.12 47.44 -311.93 47.35 C-309.07 47.18 -309.07 47.18 -307 46 C-305 45.96 -303 45.96 -301 46 C-301 45.67 -301 45.34 -301 45 C-296.71 45.33 -292.42 45.66 -288 46 C-288 45.34 -288 44.68 -288 44 C-284.37 44 -280.74 44 -277 44 C-277.66 43.34 -278.32 42.68 -279 42 C-264.45 41.19 -249.96 40.9 -235.39 41.04 C-234.12 41.05 -232.86 41.05 -231.56 41.06 C-230.44 41.07 -229.32 41.09 -228.16 41.1 C-225.02 41 -222.09 40.58 -219 40 C-216.34 39.64 -213.67 39.32 -211 39 C-211 38.67 -211 38.34 -211 38 C-207.7 38 -204.4 38 -201 38 C-201 37.67 -201 37.34 -201 37 C-200.37 37.02 -199.74 37.05 -199.09 37.07 C-194.83 37.16 -190.94 37.15 -186.81 36 C-182.89 34.97 -180 34.83 -176 35 C-176 34.67 -176 34.34 -176 34 C-170.72 34 -165.44 34 -160 34 C-160 33.67 -160 33.34 -160 33 C-159.39 33.01 -158.79 33.02 -158.16 33.04 C-152.04 33.1 -146.08 32.72 -140 32 C-140 31.67 -140 31.34 -140 31 C-135.38 31 -130.76 31 -126 31 C-126 30.67 -126 30.34 -126 30 C-119.73 30 -113.46 30 -107 30 C-107 29.67 -107 29.34 -107 29 C-105.59 29.02 -105.59 29.02 -104.15 29.04 C-102.28 29.05 -102.28 29.05 -100.38 29.06 C-99.15 29.07 -97.92 29.09 -96.65 29.1 C-93.32 29.01 -90.26 28.64 -87 28 C-87 27.67 -87 27.34 -87 27 C-80.73 27 -74.46 27 -68 27 C-68 26.67 -68 26.34 -68 26 C-62.06 26 -56.12 26 -50 26 C-50 25.67 -50 25.34 -50 25 C-48.93 25.01 -47.85 25.02 -46.75 25.04 C-45.31 25.04 -43.87 25.05 -42.44 25.06 C-41.38 25.08 -41.38 25.08 -40.3 25.09 C-35.76 25.11 -31.48 24.75 -27 24 C-27 23.67 -27 23.34 -27 23 C-25.74 23.03 -24.47 23.07 -23.17 23.11 C-21.51 23.13 -19.85 23.16 -18.19 23.19 C-17.35 23.21 -16.52 23.24 -15.66 23.26 C-14.86 23.27 -14.06 23.28 -13.23 23.29 C-12.12 23.32 -12.12 23.32 -10.99 23.34 C-8.47 22.91 -7.71 21.84 -6 20 C-13.5 18.39 -20.56 17.74 -28.23 17.86 C-29.26 17.87 -30.3 17.88 -31.37 17.89 C-33.52 17.91 -35.68 17.93 -37.83 17.96 C-40.82 18 -43.81 18.02 -46.8 18.04 C-52.66 18.08 -58.52 18.13 -64.39 18.18 C-66.57 18.2 -68.74 18.22 -70.92 18.24 C-77.84 18.31 -84.77 18.37 -91.69 18.44 C-92.86 18.45 -94.03 18.46 -95.24 18.47 C-137.69 18.87 -137.69 18.87 -180.13 19.44 C-182.7 19.48 -185.27 19.52 -187.83 19.55 C-191.28 19.6 -194.74 19.66 -198.19 19.72 C-199.17 19.73 -200.16 19.75 -201.18 19.76 C-202.5 19.78 -202.5 19.78 -203.86 19.81 C-204.61 19.82 -205.37 19.84 -206.16 19.85 C-208.1 19.89 -208.1 19.89 -210 21 C-211.77 21.13 -213.54 21.19 -215.31 21.23 C-216.44 21.25 -217.57 21.28 -218.73 21.3 C-219.97 21.33 -221.22 21.35 -222.5 21.37 C-224.5 21.42 -226.5 21.46 -228.5 21.5 C-230.66 21.55 -232.81 21.59 -234.97 21.63 C-239.45 21.72 -243.94 21.81 -248.43 21.91 C-258.76 22.13 -269.1 22.34 -279.43 22.55 C-288.9 22.74 -298.37 22.94 -307.84 23.14 C-312.31 23.23 -316.77 23.33 -321.23 23.41 C-323.34 23.45 -325.45 23.5 -327.55 23.54 C-330.12 23.6 -332.7 23.65 -335.27 23.7 C-336.4 23.72 -337.52 23.75 -338.69 23.77 C-340.16 23.8 -340.16 23.8 -341.67 23.83 C-344.02 23.85 -344.02 23.85 -346 25 C-348.37 25.15 -350.71 25.23 -353.08 25.28 C-353.81 25.3 -354.54 25.32 -355.29 25.34 C-356.87 25.37 -358.46 25.41 -360.04 25.45 C-362.54 25.5 -365.05 25.56 -367.55 25.62 C-373.77 25.78 -379.99 25.92 -386.21 26.06 C-391.47 26.18 -396.72 26.31 -401.97 26.44 C-404.45 26.5 -406.92 26.55 -409.39 26.61 C-410.9 26.64 -412.41 26.68 -413.92 26.72 C-414.96 26.74 -414.96 26.74 -416.01 26.76 C-419.63 26.82 -419.63 26.82 -423 28 C-424.44 28.12 -425.88 28.19 -427.33 28.23 C-428.24 28.25 -429.14 28.28 -430.08 28.3 C-431.08 28.33 -432.08 28.35 -433.11 28.37 C-434.16 28.4 -435.21 28.43 -436.29 28.46 C-438.58 28.52 -440.87 28.57 -443.15 28.63 C-446.76 28.72 -450.38 28.81 -453.99 28.91 C-462.97 29.15 -471.94 29.37 -480.91 29.6 C-488.49 29.79 -496.07 29.99 -503.65 30.19 C-507.22 30.28 -510.79 30.37 -514.36 30.45 C-516.54 30.51 -518.71 30.57 -520.89 30.63 C-521.89 30.65 -522.89 30.67 -523.92 30.7 C-524.83 30.72 -525.74 30.75 -526.67 30.77 C-527.86 30.8 -527.86 30.8 -529.07 30.83 C-531.08 30.89 -531.08 30.89 -533 32 C-535.92 32.15 -538.82 32.24 -541.74 32.28 C-542.64 32.3 -543.55 32.32 -544.48 32.34 C-547.5 32.39 -550.51 32.45 -553.53 32.5 C-555.63 32.54 -557.74 32.58 -559.84 32.62 C-565.4 32.73 -570.97 32.84 -576.53 32.94 C-585.38 33.1 -594.22 33.27 -603.07 33.44 C-606.13 33.5 -609.2 33.55 -612.26 33.61 C-621.45 33.78 -630.62 34.02 -639.8 34.47 C-640.6 34.51 -641.4 34.54 -642.23 34.58 C-646.25 34.73 -646.25 34.73 -650 36 C-652.54 36.28 -655.06 36.52 -657.6 36.72 C-658.35 36.78 -659.1 36.84 -659.87 36.91 C-663.08 37.18 -666.29 37.44 -669.51 37.7 C-671.85 37.89 -674.19 38.08 -676.54 38.28 C-677.27 38.34 -678 38.4 -678.75 38.45 C-682.17 38.47 -682.17 38.47 -685 40 C-687.49 40.29 -689.97 40.52 -692.46 40.72 C-693.21 40.78 -693.96 40.84 -694.73 40.91 C-697.13 41.11 -699.54 41.31 -701.94 41.5 C-705.09 41.76 -708.25 42.02 -711.4 42.28 C-712.13 42.34 -712.86 42.4 -713.62 42.45 C-717.43 42.73 -717.43 42.73 -721 44 C-723.96 44.22 -726.91 44.38 -729.88 44.5 C-731.2 44.56 -731.2 44.56 -732.54 44.62 C-736.32 44.8 -740.09 44.96 -743.87 45.12 C-746.62 45.25 -749.37 45.37 -752.12 45.5 C-752.98 45.54 -753.84 45.57 -754.73 45.61 C-759 45.7 -759 45.7 -763 47 C-765.6 47.28 -768.18 47.52 -770.78 47.72 C-771.55 47.78 -772.32 47.84 -773.11 47.91 C-776.41 48.18 -779.71 48.44 -783.01 48.7 C-785.41 48.89 -787.81 49.08 -790.22 49.28 C-790.97 49.34 -791.72 49.4 -792.49 49.45 C-796.37 49.72 -796.37 49.72 -800 51 C-802.15 51.28 -804.31 51.51 -806.47 51.72 C-807.76 51.85 -809.05 51.97 -810.39 52.11 C-812.45 52.3 -814.51 52.5 -816.57 52.7 C-818.56 52.89 -820.54 53.09 -822.53 53.28 C-824.32 53.45 -824.32 53.45 -826.14 53.63 C-828.94 53.83 -828.94 53.83 -831 55 C-833.15 55.28 -835.31 55.51 -837.47 55.72 C-838.76 55.85 -840.05 55.97 -841.39 56.11 C-843.45 56.3 -845.51 56.5 -847.57 56.7 C-849.56 56.89 -851.54 57.09 -853.53 57.28 C-855.32 57.45 -855.32 57.45 -857.14 57.63 C-859.94 57.83 -859.94 57.83 -862 59 C-864.12 59.32 -866.25 59.61 -868.38 59.88 C-873.02 60.5 -877.38 61.32 -881.88 62.62 C-891.46 65.16 -901.57 65.06 -911 62 C-911.33 63.32 -911.66 64.64 -912 66 C-912.63 66.09 -913.25 66.17 -913.9 66.26 C-916.72 66.65 -919.55 67.04 -922.38 67.44 C-923.85 67.64 -923.85 67.64 -925.36 67.85 C-926.3 67.98 -927.24 68.11 -928.21 68.25 C-929.08 68.37 -929.95 68.49 -930.85 68.61 C-933.04 68.9 -933.04 68.9 -935 70 C-937.93 70.13 -940.82 70.19 -943.75 70.19 C-944.95 70.21 -944.95 70.21 -946.17 70.22 C-950.85 70.24 -954.6 69.8 -959 68 C-958.5 66.02 -958.5 66.02 -958 64 C-956.51 64.5 -956.51 64.5 -955 65 C-954.5 64.01 -954.5 64.01 -954 63 C-952.35 63 -950.7 63 -949 63 C-948.5 62.01 -948.5 62.01 -948 61 C-945.69 60.44 -945.69 60.44 -943 60 C-940.02 59.4 -939.22 59.22 -937 57 C-935.33 56.96 -933.67 56.96 -932 57 C-931.28 56.81 -930.56 56.63 -929.81 56.44 C-928 56 -928 56 -926 57 C-926 56.34 -926 55.68 -926 55 C-919.97 55.42 -917.04 56.48 -912 60 C-911.01 59.67 -910.02 59.34 -909 59 C-908.73 58.4 -908.46 57.8 -908.19 57.19 C-906.41 53.91 -904.26 52.75 -901 51 C-898.3 50.41 -895.77 50.19 -893 50 C-893 49.67 -893 49.34 -893 49 C-891.93 49.02 -890.86 49.04 -889.75 49.06 C-886.7 49.01 -884.85 48.74 -882 48 C-879.92 47.63 -877.84 47.28 -875.75 46.94 C-874.67 46.76 -873.59 46.58 -872.48 46.4 C-871.66 46.27 -870.84 46.14 -870 46 C-870 45.67 -870 45.34 -870 45 C-867.07 45.05 -867.07 45.05 -864.14 45.1 C-861.94 45 -860.13 44.55 -858 44 C-855.59 43.63 -853.17 43.27 -850.75 42.94 C-849.49 42.76 -848.22 42.58 -846.92 42.4 C-845.96 42.27 -844.99 42.14 -844 42 C-844 41.67 -844 41.34 -844 41 C-841.36 41.33 -838.72 41.66 -836 42 C-836 41.34 -836 40.68 -836 40 C-831.55 39.5 -831.55 39.5 -827 39 C-827 38.67 -827 38.34 -827 38 C-824.03 38 -821.06 38 -818 38 C-818 37.67 -818 37.34 -818 37 C-816.78 37.02 -815.57 37.04 -814.31 37.06 C-811.06 37.06 -808.18 36.73 -805 36 C-802.67 35.66 -800.34 35.32 -798 35 C-798 34.67 -798 34.34 -798 34 C-794.7 34 -791.4 34 -788 34 C-788 33.67 -788 33.34 -788 33 C-785.67 32.62 -783.34 32.29 -781 32 C-780.67 32.33 -780.34 32.66 -780 33 C-777.46 32.74 -774.96 32.43 -772.44 32.06 C-771.73 31.96 -771.02 31.86 -770.28 31.76 C-768.52 31.51 -766.76 31.26 -765 31 C-765 30.67 -765 30.34 -765 30 C-761.04 30 -757.08 30 -753 30 C-753 29.67 -753 29.34 -753 29 C-751.8 29.02 -750.61 29.04 -749.38 29.06 C-745.82 29.07 -742.49 28.7 -739 28 C-739 27.67 -739 27.34 -739 27 C-735.37 27 -731.74 27 -728 27 C-728 26.67 -728 26.34 -728 26 C-723.71 26.33 -719.42 26.66 -715 27 C-715 26.34 -715 25.68 -715 25 C-714.41 25.01 -713.82 25.02 -713.21 25.04 C-709 25.08 -705.11 25.06 -701 24 C-701 23.67 -701 23.34 -701 23 C-695.06 23 -689.12 23 -683 23 C-683 22.67 -683 22.34 -683 22 C-680.36 22 -677.72 22 -675 22 C-675 21.67 -675 21.34 -675 21 C-658.66 20.17 -642.36 19.86 -626 20 C-626 19.67 -626 19.34 -626 19 C-617.42 19 -608.84 19 -600 19 C-600 18.67 -600 18.34 -600 18 C-596.37 18 -592.74 18 -589 18 C-589 17.67 -589 17.34 -589 17 C-577.32 16.37 -565.7 15.82 -554 16 C-554 15.67 -554 15.34 -554 15 C-546.41 15 -538.82 15 -531 15 C-531 14.67 -531 14.34 -531 14 C-529.83 14.01 -529.83 14.01 -528.64 14.02 C-513.39 14.1 -498.22 14.06 -483 13 C-483 12.67 -483 12.34 -483 12 C-469.47 12 -455.94 12 -442 12 C-442 11.67 -442 11.34 -442 11 C-430.45 11 -418.9 11 -407 11 C-407 10.67 -407 10.34 -407 10 C-398.09 9.67 -389.18 9.34 -380 9 C-380 9.33 -380 9.66 -380 10 C-376.37 10 -372.74 10 -369 10 C-369.33 9.34 -369.66 8.68 -370 8 C-347.89 8 -325.78 8 -303 8 C-303 7.67 -303 7.34 -303 7 C-286.83 7 -270.66 7 -254 7 C-254 6.67 -254 6.34 -254 6 C-252.89 5.97 -251.78 5.95 -250.64 5.92 C-246.52 5.83 -242.41 5.73 -238.3 5.63 C-236.52 5.58 -234.74 5.54 -232.96 5.5 C-230.4 5.45 -227.85 5.38 -225.29 5.32 C-224.09 5.29 -224.09 5.29 -222.87 5.27 C-218.8 5.25 -218.8 5.25 -215 4 C-212.01 3.91 -209.04 3.88 -206.05 3.9 C-205.17 3.9 -204.28 3.91 -203.37 3.91 C-200.54 3.91 -197.71 3.92 -194.88 3.94 C-192.96 3.94 -191.04 3.95 -189.12 3.95 C-184.41 3.96 -179.71 3.98 -175 4 C-175 3.67 -175 3.34 -175 3 C-172.03 3 -169.06 3 -166 3 C-166 2.67 -166 2.34 -166 2 C-165.36 2.01 -164.72 2.02 -164.06 2.04 C-159.96 2.08 -155.99 2.1 -151.94 1.44 C-150.97 1.29 -150 1.15 -149 1 C-148.67 1.33 -148.34 1.66 -148 2 C-146.12 2.09 -144.23 2.11 -142.35 2.11 C-141.15 2.1 -139.95 2.1 -138.71 2.1 C-137.4 2.09 -136.09 2.08 -134.73 2.08 C-133.37 2.07 -132 2.07 -130.63 2.06 C-126.42 2.05 -122.21 2.03 -118 2 C-116.77 1.99 -115.55 1.99 -114.28 1.98 C-105.94 1.93 -97.6 1.86 -89.26 1.78 C-86.66 1.76 -84.05 1.74 -81.45 1.71 C-75.39 1.66 -69.34 1.61 -63.28 1.55 C-56.37 1.49 -49.45 1.43 -42.53 1.37 C-28.36 1.25 -14.18 1.13 0 1 C0 0.67 0 0.34 0 0 Z M-215 5 C-215 5.33 -215 5.66 -215 6 C-206.75 6 -198.5 6 -190 6 C-190 5.67 -190 5.34 -190 5 C-198.25 5 -206.5 5 -215 5 Z M104 17 C107.77 18.26 109.37 17.37 113 16 C112.67 15.34 112.34 14.68 112 14 C108.92 14 106.69 15.6 104 17 Z M-256 42 C-256 42.33 -256 42.66 -256 43 C-249.73 43 -243.46 43 -237 43 C-237 42.67 -237 42.34 -237 42 C-243.27 42 -249.54 42 -256 42 Z M-372 52 C-372 52.33 -372 52.66 -372 53 C-370.02 53 -368.04 53 -366 53 C-366 52.67 -366 52.34 -366 52 C-367.98 52 -369.96 52 -372 52 Z M-454 57 C-454 57.33 -454 57.66 -454 58 C-447.4 58 -440.8 58 -434 58 C-434 57.67 -434 57.34 -434 57 C-440.6 57 -447.2 57 -454 57 Z M-590 65 C-590 65.33 -590 65.66 -590 66 C-578.78 66 -567.56 66 -556 66 C-556 65.67 -556 65.34 -556 65 C-567.22 65 -578.44 65 -590 65 Z M-658 68 C-658 68.33 -658 68.66 -658 69 C-651.73 69 -645.46 69 -639 69 C-639 68.67 -639 68.34 -639 68 C-645.27 68 -651.54 68 -658 68 Z " fill="#CB8506" transform="translate(1099,538)"/>
<path d="M0 0 C42.9 0 85.8 0 130 0 C130 0.33 130 0.66 130 1 C131.41 0.98 131.41 0.98 132.84 0.97 C136.34 0.93 139.84 0.91 143.34 0.89 C144.85 0.88 146.36 0.87 147.88 0.85 C150.06 0.82 152.23 0.81 154.41 0.8 C155.72 0.79 157.03 0.78 158.38 0.77 C164.39 1.15 168.65 2.78 173 7 C173 7.99 173 8.98 173 10 C172.15 10.13 171.29 10.27 170.41 10.4 C169.31 10.58 168.2 10.76 167.06 10.94 C165.96 11.11 164.86 11.29 163.72 11.46 C161.1 11.72 161.1 11.72 160 13 C157.64 13.4 155.31 13.72 152.94 14 C152.2 14.09 151.47 14.18 150.72 14.27 C142.75 15.14 134.77 15.42 126.76 15.66 C125.27 15.71 125.27 15.71 123.75 15.75 C122.86 15.78 121.97 15.8 121.05 15.83 C119.01 15.78 119.01 15.78 118 17 C115.86 17.12 113.71 17.17 111.56 17.19 C110.89 17.2 110.21 17.21 109.52 17.21 C108.05 17.23 106.58 17.25 105.11 17.26 C102.78 17.28 100.44 17.31 98.11 17.34 C93.13 17.4 88.16 17.45 83.19 17.5 C77.46 17.56 71.73 17.62 66 17.69 C63.72 17.72 61.44 17.74 59.16 17.76 C51.92 17.84 44.75 18.1 37.54 18.78 C34.27 19.06 31.02 19.13 27.73 19.13 C26.49 19.13 25.25 19.14 23.98 19.14 C22.73 19.13 21.48 19.13 20.19 19.12 C18.92 19.13 17.65 19.13 16.34 19.14 C15.11 19.14 13.87 19.13 12.61 19.13 C11.5 19.13 10.4 19.13 9.27 19.13 C6 19 6 19 2.4 18.47 C-0.59 18.06 -3.01 17.99 -5.99 18.3 C-7.29 18.44 -7.29 18.44 -8.63 18.57 C-9.96 18.72 -9.96 18.72 -11.31 18.88 C-12.22 18.97 -13.12 19.06 -14.06 19.15 C-18.68 19.52 -18.68 19.52 -23 21 C-25.6 21.21 -28.18 21.38 -30.78 21.5 C-31.55 21.54 -32.32 21.58 -33.11 21.62 C-36.41 21.8 -39.71 21.96 -43.01 22.12 C-45.41 22.25 -47.81 22.37 -50.22 22.5 C-50.97 22.54 -51.72 22.57 -52.49 22.61 C-56.37 22.75 -56.37 22.75 -60 24 C-61.61 24.14 -63.22 24.23 -64.84 24.28 C-65.85 24.32 -66.86 24.35 -67.9 24.39 C-69 24.43 -70.09 24.46 -71.23 24.5 C-72.36 24.54 -73.5 24.58 -74.67 24.62 C-78.32 24.75 -81.97 24.88 -85.62 25 C-108.96 23.53 -108.96 23.53 -130 28 C-132.86 28.29 -135.7 28.52 -138.56 28.72 C-139.42 28.78 -140.28 28.84 -141.16 28.91 C-143.92 29.11 -146.68 29.31 -149.44 29.5 C-153.06 29.76 -156.69 30.02 -160.31 30.28 C-161.15 30.34 -161.99 30.4 -162.85 30.45 C-167.06 30.67 -167.06 30.67 -171 32 C-172.5 32.17 -174 32.29 -175.51 32.37 C-176.44 32.43 -177.38 32.49 -178.34 32.55 C-179.35 32.6 -180.36 32.66 -181.41 32.72 C-182.44 32.78 -183.48 32.84 -184.54 32.91 C-188.99 33.18 -193.43 33.44 -197.88 33.7 C-201.12 33.89 -204.36 34.08 -207.59 34.28 C-208.61 34.34 -209.62 34.4 -210.66 34.45 C-211.59 34.51 -212.53 34.57 -213.49 34.63 C-214.31 34.68 -215.14 34.72 -215.99 34.77 C-218.07 34.89 -218.07 34.89 -220 36 C-221.59 36.17 -223.19 36.29 -224.79 36.37 C-225.78 36.43 -226.77 36.49 -227.8 36.55 C-229.41 36.63 -229.41 36.63 -231.06 36.72 C-232.16 36.78 -233.27 36.84 -234.4 36.91 C-239.13 37.18 -243.87 37.44 -248.6 37.7 C-252.04 37.89 -255.49 38.08 -258.94 38.28 C-260.55 38.37 -260.55 38.37 -262.2 38.45 C-263.2 38.51 -264.19 38.57 -265.21 38.63 C-266.53 38.7 -266.53 38.7 -267.87 38.77 C-270.05 38.88 -270.05 38.88 -272 40 C-273.71 40.21 -275.43 40.37 -277.16 40.5 C-278.18 40.58 -279.2 40.67 -280.25 40.75 C-283.5 41 -283.5 41 -286.75 41.25 C-287.77 41.33 -288.79 41.42 -289.84 41.5 C-291.25 41.61 -291.25 41.61 -292.69 41.72 C-295.02 41.87 -295.02 41.87 -297 43 C-298.58 43.21 -300.16 43.37 -301.74 43.5 C-303.2 43.62 -303.2 43.62 -304.7 43.75 C-305.75 43.83 -306.79 43.91 -307.88 44 C-308.94 44.09 -310.01 44.18 -311.11 44.27 C-319.04 44.9 -326.98 45.36 -334.93 45.66 C-339.1 45.73 -339.1 45.73 -343 47 C-344.47 47.26 -345.95 47.49 -347.44 47.68 C-348.33 47.81 -349.23 47.93 -350.15 48.06 C-351.09 48.18 -352.03 48.31 -353 48.44 C-358.31 49.15 -363.54 49.87 -368.76 51.07 C-376.61 52.7 -384.7 52.36 -392.68 52.39 C-401.94 52.56 -410.62 53.81 -419 58 C-420.52 58.09 -422.04 58.13 -423.56 58.12 C-424.77 58.13 -424.77 58.13 -426 58.13 C-428 58 -428 58 -429 57 C-436.2 55.76 -441.61 55.23 -447.9 59.05 C-452.35 61.06 -457.27 60.79 -462 60 C-464.76 58.61 -465.94 57.4 -468 55 C-468 54.34 -468 53.68 -468 53 C-468.99 53 -469.98 53 -471 53 C-471.27 54.09 -471.54 55.19 -471.81 56.31 C-473.33 61.03 -473.33 61.03 -476 63 C-478.82 63.66 -478.82 63.66 -482.12 64.06 C-485.91 64.54 -489.56 65.12 -493.26 66.04 C-498.44 67.23 -503.46 67.3 -508.75 67.25 C-510.13 67.26 -510.13 67.26 -511.54 67.27 C-516.21 67.26 -519.7 67 -524 65 C-525.32 65 -526.64 65 -528 65 C-528.66 65.99 -529.32 66.98 -530 68 C-534.94 70.18 -540 70.57 -545.31 71.06 C-550.58 71.1 -550.58 71.1 -555 73 C-561.33 74.25 -567.63 74.15 -574.06 74.12 C-575.13 74.13 -576.19 74.13 -577.28 74.14 C-581.5 74.13 -585.46 74.1 -589.62 73.37 C-590.41 73.25 -591.19 73.12 -592 73 C-592.66 73.66 -593.32 74.32 -594 75 C-602.16 77.19 -610.47 77.95 -618.85 78.86 C-623.43 79.37 -627.91 79.88 -632.37 81.05 C-635.81 81.95 -638.96 82.38 -642.5 82.62 C-644.06 82.74 -644.06 82.74 -645.66 82.85 C-646.43 82.9 -647.2 82.95 -648 83 C-648.08 81.54 -648.14 80.08 -648.19 78.62 C-648.24 77.41 -648.24 77.41 -648.29 76.16 C-648.2 75.45 -648.1 74.74 -648 74 C-645 72 -645 72 -642.94 71 C-640.84 70.04 -640.84 70.04 -639 68 C-635.74 67.8 -635.74 67.8 -631.88 67.88 C-629.95 67.9 -629.95 67.9 -627.99 67.93 C-626.51 67.96 -626.51 67.96 -625 68 C-625 67.67 -625 67.34 -625 67 C-620.71 67.33 -616.42 67.66 -612 68 C-612 67.34 -612 66.68 -612 66 C-607.38 65.67 -602.76 65.34 -598 65 C-598 64.67 -598 64.34 -598 64 C-597.25 64.01 -596.5 64.02 -595.73 64.04 C-594.75 64.04 -593.76 64.05 -592.75 64.06 C-591.29 64.08 -591.29 64.08 -589.8 64.1 C-587.29 64.01 -585.4 63.61 -583 63 C-581.63 62.8 -580.26 62.62 -578.89 62.46 C-577.76 62.33 -577.76 62.33 -576.61 62.2 C-575.83 62.11 -575.05 62.03 -574.25 61.94 C-573.46 61.85 -572.66 61.76 -571.85 61.66 C-569.9 61.44 -567.95 61.22 -566 61 C-566 60.67 -566 60.34 -566 60 C-565.31 60.02 -564.63 60.05 -563.92 60.07 C-563.02 60.09 -562.12 60.11 -561.19 60.12 C-559.85 60.16 -559.85 60.16 -558.48 60.2 C-555.75 60.18 -555.75 60.18 -553 58 C-553.64 54.95 -553.64 54.95 -555.7 54.06 C-556.46 53.71 -557.22 53.36 -558 53 C-559.94 51.7 -561.85 50.36 -563.75 49 C-564.73 48.3 -565.72 47.6 -566.73 46.88 C-567.48 46.26 -568.23 45.64 -569 45 C-569 44.34 -569 43.68 -569 43 C-565.36 40.7 -562.3 40.76 -558.06 40.81 C-557.41 40.82 -556.76 40.83 -556.08 40.83 C-549.7 40.93 -543.35 41.4 -537 42 C-537.73 46.51 -539.32 49.28 -542 53 C-543.65 52.67 -545.3 52.34 -547 52 C-547.5 50.02 -547.5 50.02 -548 48 C-548.99 48.99 -548.99 48.99 -550 50 C-549.68 53.1 -549.68 53.1 -549 56 C-548.2 56.14 -547.39 56.29 -546.56 56.44 C-544 57 -544 57 -543 58 C-542.01 57.34 -541.02 56.68 -540 56 C-538.68 56 -537.36 56 -536 56 C-536 56.66 -536 57.32 -536 58 C-534.86 58.19 -534.86 58.19 -533.69 58.38 C-531 59 -531 59 -528 61 C-527.58 60.54 -527.16 60.09 -526.73 59.62 C-524.96 57.96 -523.44 57.08 -521.25 56.06 C-517.39 54.21 -513.7 52.16 -510 50 C-510.22 49.46 -510.43 48.91 -510.66 48.36 C-511.07 47.28 -511.07 47.28 -511.5 46.19 C-511.92 45.13 -511.92 45.13 -512.34 44.04 C-513 42 -513 42 -513 39 C-509.05 39.56 -506.02 40.32 -503 43 C-502.56 45.79 -502.77 48.15 -503 51 C-500.03 51.5 -500.03 51.5 -497 52 C-497.33 50.99 -497.66 49.98 -498 48.94 C-499.07 45.25 -499.16 41.85 -499 38 C-492.85 37.12 -492.85 37.12 -491 37 C-490.67 37.33 -490.34 37.66 -490 38 C-487.98 38.23 -485.96 38.41 -483.94 38.56 C-482.83 38.65 -481.73 38.73 -480.59 38.82 C-479.74 38.88 -478.88 38.94 -478 39 C-478 38.34 -478 37.68 -478 37 C-477.39 36.95 -476.77 36.9 -476.14 36.85 C-475.33 36.78 -474.52 36.7 -473.69 36.62 C-472.49 36.52 -472.49 36.52 -471.26 36.41 C-468.73 36.1 -468.73 36.1 -466 34 C-463.67 33.92 -461.33 33.91 -459 34 C-459 33.67 -459 33.34 -459 33 C-458.16 33 -458.16 33 -457.3 33.01 C-451.48 33.03 -445.65 33.04 -439.83 33.05 C-437.65 33.06 -435.48 33.07 -433.3 33.08 C-430.18 33.09 -427.06 33.09 -423.94 33.1 C-422.96 33.1 -421.98 33.11 -420.97 33.11 C-420.07 33.11 -419.17 33.11 -418.24 33.11 C-417.45 33.12 -416.65 33.12 -415.83 33.12 C-413.98 33.2 -413.98 33.2 -413 32 C-411.15 31.77 -409.3 31.59 -407.44 31.44 C-406.43 31.35 -405.41 31.27 -404.37 31.18 C-403.59 31.12 -402.81 31.06 -402 31 C-402 30.67 -402 30.34 -402 30 C-398.37 30 -394.74 30 -391 30 C-391 29.67 -391 29.34 -391 29 C-390.3 29.01 -389.59 29.02 -388.87 29.04 C-375.24 29.45 -375.24 29.45 -362 27 C-359.94 26.93 -357.87 26.92 -355.81 26.94 C-354.18 26.95 -354.18 26.95 -352.52 26.96 C-351.69 26.98 -350.86 26.99 -350 27 C-350 26.67 -350 26.34 -350 26 C-343.73 26 -337.46 26 -331 26 C-331 25.67 -331 25.34 -331 25 C-330.36 25.01 -329.73 25.02 -329.07 25.04 C-321.44 25.11 -313.92 24.63 -306.31 24 C-305.12 23.9 -303.93 23.81 -302.71 23.71 C-299.8 23.48 -296.9 23.24 -294 23 C-294 22.67 -294 22.34 -294 22 C-288.72 22 -283.44 22 -278 22 C-278 21.67 -278 21.34 -278 21 C-276.37 21.02 -276.37 21.02 -274.71 21.04 C-273.27 21.04 -271.82 21.05 -270.38 21.06 C-269.66 21.07 -268.95 21.08 -268.21 21.09 C-264.03 21.11 -260.13 20.83 -256 20 C-256 19.67 -256 19.34 -256 19 C-250.06 19 -244.12 19 -238 19 C-238 18.67 -238 18.34 -238 18 C-236.95 18.01 -235.9 18.02 -234.82 18.04 C-227.46 18.09 -220.3 18 -213 17 C-211.15 16.81 -209.29 16.62 -207.44 16.44 C-206.59 16.35 -205.74 16.27 -204.87 16.18 C-204.25 16.12 -203.64 16.06 -203 16 C-203 15.67 -203 15.34 -203 15 C-198.05 15 -193.1 15 -188 15 C-188 14.67 -188 14.34 -188 14 C-187.22 14.01 -186.44 14.02 -185.63 14.04 C-184.62 14.04 -183.61 14.05 -182.56 14.06 C-181.05 14.08 -181.05 14.08 -179.5 14.1 C-177.06 14.29 -177.06 14.29 -176 13 C-173.86 13 -171.71 13 -169.57 13.03 C-165.67 12.98 -161.87 12.49 -158 12 C-158 11.67 -158 11.34 -158 11 C-153.71 11 -149.42 11 -145 11 C-145 10.67 -145 10.34 -145 10 C-144.29 10.01 -143.57 10.02 -142.84 10.04 C-137.44 10.09 -132.32 9.95 -127 9 C-127 8.67 -127 8.34 -127 8 C-122.05 8 -117.1 8 -112 8 C-112 7.67 -112 7.34 -112 7 C-106.06 7 -100.12 7 -94 7 C-94 6.67 -94 6.34 -94 6 C-85.59 5.5 -85.59 5.5 -77 5 C-77 5.33 -77 5.66 -77 6 C-66.61 5.5 -66.61 5.5 -56 5 C-56 4.67 -56 4.34 -56 4 C-49.07 4 -42.14 4 -35 4 C-35 3.67 -35 3.34 -35 3 C-29.39 3 -23.78 3 -18 3 C-18 2.67 -18 2.34 -18 2 C-12.06 1.67 -6.12 1.34 0 1 C0 0.67 0 0.34 0 0 Z M-498 42 C-497 45 -497 45 -497 45 Z M-488 44 C-487.26 49.55 -487.26 49.55 -486 55 C-485.34 55 -484.68 55 -484 55 C-484.14 53.54 -484.29 52.08 -484.44 50.62 C-484.56 49.41 -484.56 49.41 -484.68 48.16 C-484.89 45.96 -484.89 45.96 -486 44 C-486.66 44 -487.32 44 -488 44 Z " fill="#CB8506" transform="translate(996,414)"/>
<path d="M0 0 C-1.11 3.21 -1.99 3.99 -5 5.75 C-8 7 -8 7 -10 7 C-10 8.32 -10 9.64 -10 11 C-10.66 10.95 -11.33 10.91 -12.01 10.86 C-17.9 10.62 -20.51 10.9 -25 15 C-27.06 15.06 -27.06 15.06 -29 14 C-31.25 11.44 -31.25 11.44 -33 9 C-36.82 9.28 -36.82 9.28 -40 11 C-41.81 11.27 -43.62 11.52 -45.44 11.75 C-49.89 12.43 -53.17 13.43 -57.06 15.69 C-63.24 19.09 -68.94 18.06 -75.56 16.33 C-78.46 15.94 -79.65 16.42 -82.19 17.81 C-83.2 18.35 -83.2 18.35 -84.23 18.89 C-86.15 20 -86.15 20 -88 22 C-95.07 24.36 -102.79 23.07 -109.87 21.44 C-113.74 20.64 -115.66 21.27 -119.06 23 C-124.22 25.15 -128.93 25.42 -134.44 25.44 C-135.63 25.45 -135.63 25.45 -136.84 25.47 C-142.52 25.38 -142.52 25.38 -144.76 23.6 C-146 22 -146 22 -145.75 19.94 C-145 18 -145 18 -144 16 C-141.43 15.36 -138.86 14.98 -136.25 14.56 C-135.14 14.28 -135.14 14.28 -134 14 C-133.67 13.34 -133.34 12.68 -133 12 C-130.75 12.11 -128.5 12.24 -126.25 12.38 C-125 12.44 -123.74 12.51 -122.45 12.59 C-119.34 12.96 -117.67 13.51 -115 15 C-112.8 14.7 -112.8 14.7 -111 14 C-111 13.34 -111 12.68 -111 12 C-101.09 9.31 -101.09 9.31 -98 10 C-95.69 13 -95.69 13 -94 16 C-93.81 14.55 -93.81 14.55 -93.62 13.06 C-93.42 12.05 -93.21 11.04 -93 10 C-89.45 8.23 -87.39 7.89 -83.38 7.94 C-81.87 7.95 -81.87 7.95 -80.34 7.96 C-79.57 7.98 -78.79 7.99 -78 8 C-78 7.67 -78 7.34 -78 7 C-74.05 6.7 -71.11 7.21 -67.44 8.56 C-63.91 9.84 -61.65 10.3 -58 9 C-58 8.34 -58 7.68 -58 7 C-54.7 6.34 -51.4 5.68 -48 5 C-48 4.67 -48 4.34 -48 4 C-47.09 4.03 -47.09 4.03 -46.16 4.07 C-39.85 4.21 -34.14 3.46 -28 2 C-28 1.67 -28 1.34 -28 1 C-25.03 1 -22.06 1 -19 1 C-19 0.67 -19 0.34 -19 0 C-18.36 0.01 -17.72 0.02 -17.06 0.04 C-12.98 0.08 -9.03 0.1 -5 -0.56 C-2 -1 -2 -1 0 0 Z " fill="#CC8607" transform="translate(341,485)"/>
<path d="M0 0 C6.65 0.35 9.84 1.8 15 6 C14.67 7.65 14.34 9.3 14 11 C13.06 11.13 13.06 11.13 12.1 11.26 C9.28 11.65 6.45 12.04 3.62 12.44 C2.64 12.57 1.66 12.71 0.64 12.85 C-0.3 12.98 -1.24 13.11 -2.21 13.25 C-3.08 13.37 -3.95 13.49 -4.85 13.61 C-7.04 13.9 -7.04 13.9 -9 15 C-11.93 15.13 -14.82 15.19 -17.75 15.19 C-18.55 15.2 -19.35 15.21 -20.17 15.22 C-24.85 15.24 -28.6 14.8 -33 13 C-32.67 11.68 -32.34 10.36 -32 9 C-31.01 9.33 -30.02 9.66 -29 10 C-28.67 9.34 -28.34 8.68 -28 8 C-26.35 8 -24.7 8 -23 8 C-22.67 7.34 -22.34 6.68 -22 6 C-19.69 5.44 -19.69 5.44 -17 5 C-14.02 4.4 -13.22 4.22 -11 2 C-9.33 1.96 -7.67 1.96 -6 2 C-5.28 1.81 -4.56 1.63 -3.81 1.44 C-2 1 -2 1 0 2 C0 1.34 0 0.68 0 0 Z " fill="#CC8607" transform="translate(173,593)"/>
<path d="M0 0 C1.11 -0.03 1.11 -0.03 2.25 -0.06 C7.52 -0.1 11.16 0.74 15.81 3.25 C18.86 7.57 19.12 11.04 18.81 16.25 C10.29 15.44 5.43 10.17 -0.19 4.25 C-4.07 7.41 -7.69 10.65 -11.19 14.25 C-12.19 15.25 -13.19 16.25 -14.19 17.25 C-14.88 7.57 -14.88 7.57 -12.31 3.69 C-8.67 -0.49 -5.23 0.04 0 0 Z " fill="#CC8607" transform="translate(130.1875,498.75)"/>
<path d="M0 0 C1.81 -0.03 3.62 -0.05 5.44 -0.06 C6.45 -0.07 7.46 -0.09 8.5 -0.1 C11 0 11 0 12 1 C12.5 3.75 12.5 3.75 12 7 C9.98 9.31 7.8 10.75 5 12 C-0.79 12.38 -5.62 8.48 -10 5 C-10.33 4.34 -10.66 3.68 -11 3 C-7.91 0.94 -7.29 0.76 -3.81 0.88 C-1.93 0.94 -1.93 0.94 0 1 C0 0.67 0 0.34 0 0 Z " fill="#CC8607" transform="translate(202,481)"/>
<path d="M0 0 C0.91 0.01 1.82 0.02 2.76 0.03 C3.81 0.04 3.81 0.04 4.88 0.06 C4.88 3.06 4.88 3.06 1.88 8.06 C-9.51 7.57 -9.51 7.57 -21.12 7.06 C-18.96 3.82 -18.78 3.67 -15.25 2.94 C-14.57 2.79 -13.89 2.64 -13.2 2.49 C-12.51 2.35 -11.83 2.21 -11.12 2.06 C-2.07 -0.03 -2.07 -0.03 0 0 Z " fill="#CC8607" transform="translate(133.125,581.9375)"/>
<path d="M0 0 C0.66 0.33 1.32 0.66 2 1 C-0.18 5.02 -2.44 8.1 -6 11 C-8.84 11.37 -11.02 11.49 -13.81 11.31 C-14.51 11.29 -15.2 11.27 -15.91 11.24 C-17.61 11.19 -19.3 11.1 -21 11 C-19.31 7.15 -19.31 7.15 -16.5 5.81 C-15.67 5.54 -14.85 5.28 -14 5 C-12.72 4.36 -11.44 3.69 -10.19 3 C-7.79 1.91 -5.58 1.46 -3 1 C-2.01 0.67 -1.02 0.34 0 0 Z " fill="#CC8607" transform="translate(48,538)"/>
<path d="M0 0 C1.45 0.74 1.45 0.74 2.94 1.5 C2.61 2.16 2.28 2.82 1.94 3.5 C0.48 3.53 -0.98 3.55 -2.44 3.56 C-3.25 3.57 -4.06 3.59 -4.9 3.6 C-7.06 3.5 -7.06 3.5 -9.06 2.5 C-9.06 1.84 -9.06 1.18 -9.06 0.5 C-10.05 0.5 -11.04 0.5 -12.06 0.5 C-12.04 1.3 -12.02 2.11 -12 2.94 C-12.06 5.5 -12.06 5.5 -13.06 6.5 C-14.58 6.57 -16.1 6.58 -17.62 6.56 C-18.45 6.55 -19.28 6.54 -20.13 6.54 C-20.77 6.52 -21.41 6.51 -22.06 6.5 C-21.88 4.12 -21.88 4.12 -21.06 1.5 C-18.69 0.25 -18.69 0.25 -16.06 -0.5 C-10.67 -2.3 -5.25 -2.27 0 0 Z " fill="#CC8607" transform="translate(296.0625,470.5)"/>
<path d="M0 0 C0.03 1.6 0.05 3.21 0.06 4.81 C0.07 5.71 0.09 6.6 0.1 7.52 C0 10 0 10 -1 13 C-4.49 12.35 -7.03 10.9 -10 9 C-9.74 5.55 -8.71 4.73 -6.12 2.25 C-3 0 -3 0 0 0 Z " fill="#C78206" transform="translate(478,453)"/>
<path d="M0 0 C0.33 1.65 0.66 3.3 1 5 C-0.25 5.09 -0.25 5.09 -1.52 5.18 C-3.15 5.31 -3.15 5.31 -4.81 5.44 C-5.89 5.52 -6.97 5.6 -8.08 5.68 C-11.06 5.9 -11.06 5.9 -14 7 C-14.66 5.68 -15.32 4.36 -16 3 C-10.97 -0.35 -5.91 -0.12 0 0 Z " fill="#CC8607" transform="translate(1241,480)"/>
<path d="M0 0 C1 2 1 2 0.22 4.38 C-0.16 5.29 -0.54 6.19 -0.94 7.12 C-1.32 8.04 -1.7 8.95 -2.09 9.88 C-2.54 10.93 -2.54 10.93 -3 12 C-3.99 12 -4.98 12 -6 12 C-8.31 4.72 -8.31 4.72 -6.94 1.5 C-4.48 -0.4 -3.04 -0.33 0 0 Z " fill="#CC8607" transform="translate(174,501)"/>
<path d="M0 0 C21.12 0 42.24 0 64 0 C64 0.33 64 0.66 64 1 C42.88 1 21.76 1 0 1 C0 0.67 0 0.34 0 0 Z " fill="#000000" transform="translate(1046,513)"/>
<path d="M0 0 C9.81 0.62 9.81 0.62 14 4 C14 4.66 14 5.32 14 6 C8.39 5.67 2.78 5.34 -3 5 C-2.01 3.35 -1.02 1.7 0 0 Z " fill="#CC8607" transform="translate(312,467)"/>
<path d="M0 0 C20.13 0 40.26 0 61 0 C61 0.33 61 0.66 61 1 C40.87 1 20.74 1 0 1 C0 0.67 0 0.34 0 0 Z " fill="#CC8607" transform="translate(869,470)"/>
<path d="M0 0 C1.65 0.33 3.3 0.66 5 1 C5 1.66 5 2.32 5 3 C7.48 3.99 7.48 3.99 10 5 C10 6.32 10 7.64 10 9 C5.49 8.47 2.65 6.63 -1 4 C-0.67 2.68 -0.34 1.36 0 0 Z " fill="#CC8607" transform="translate(383,460)"/>
<path d="M0 0 C18.15 0 36.3 0 55 0 C55 0.33 55 0.66 55 1 C36.85 1 18.7 1 0 1 C0 0.67 0 0.34 0 0 Z " fill="#CC8607" transform="translate(1017,413)"/>
<path d="M0 0 C2.44 2.06 2.44 2.06 4 4 C0.99 5.5 -1.35 4.61 -4.62 4.06 C-5.81 3.87 -7 3.67 -8.23 3.47 C-9.14 3.32 -10.06 3.16 -11 3 C-11 2.34 -11 1.68 -11 1 C-7.22 -1.57 -4.32 -1.08 0 0 Z " fill="#CC8607" transform="translate(190,500)"/>
<path d="M0 0 C5.28 0 10.56 0 16 0 C16 0.66 16 1.32 16 2 C10.55 3.39 5.63 4.24 0 4 C0 2.68 0 1.36 0 0 Z " fill="#CC8607" transform="translate(175,491)"/>
<path d="M0 0 C0.36 4.45 0.36 4.45 -1.19 6.81 C-3.56 8.37 -5.22 8.23 -8 8 C-7.88 5.69 -7.88 5.69 -7 3 C-2.03 0 -2.03 0 0 0 Z " fill="#CC8607" transform="translate(1178,417)"/>
<path d="M0 0 C1.32 0.99 2.64 1.98 4 3 C3.67 4.32 3.34 5.64 3 7 C1.68 7.33 0.36 7.66 -1 8 C-2 3.25 -2 3.25 -2 1 C-1.34 0.67 -0.68 0.34 0 0 Z " fill="#CC8607" transform="translate(2,568)"/>
<path d="M0 0 C5.75 -0.12 5.75 -0.12 8 1 C8 1.99 8 2.98 8 4 C5.03 4 2.06 4 -1 4 C-0.67 2.68 -0.34 1.36 0 0 Z " fill="#CC8607" transform="translate(404,458)"/>
<path d="M0 0 C10.56 0 21.12 0 32 0 C32 0.33 32 0.66 32 1 C21.44 1 10.88 1 0 1 C0 0.67 0 0.34 0 0 Z " fill="#CC8607" transform="translate(940,481)"/>
<path d="M0 0 C10.56 0 21.12 0 32 0 C32 0.33 32 0.66 32 1 C21.44 1 10.88 1 0 1 C0 0.67 0 0.34 0 0 Z " fill="#CC8607" transform="translate(545,446)"/>
<path d="M0 0 C8.91 0 17.82 0 27 0 C27 0.33 27 0.66 27 1 C18.09 1 9.18 1 0 1 C0 0.67 0 0.34 0 0 Z " fill="#CC8607" transform="translate(629,549)"/>
<path d="M0 0 C2.97 0.5 2.97 0.5 6 1 C6.33 2.32 6.66 3.64 7 5 C4.04 4.39 2.62 3.75 0 2 C0 1.34 0 0.68 0 0 Z " fill="#CC8607" transform="translate(422,464)"/>
<path d="M0 0 C7.26 0 14.52 0 22 0 C22 0.33 22 0.66 22 1 C14.74 1 7.48 1 0 1 C0 0.67 0 0.34 0 0 Z " fill="#CC8607" transform="translate(1169,537)"/>
<path d="M0 0 C2.69 0.88 2.69 0.88 5 2 C5 2.66 5 3.32 5 4 C2.69 4 0.38 4 -2 4 C-2.33 3.34 -2.66 2.68 -3 2 C-2.01 1.34 -1.02 0.68 0 0 Z " fill="#CC8607" transform="translate(83,612)"/>
<path d="M0 0 C6.93 0 13.86 0 21 0 C21 0.33 21 0.66 21 1 C14.07 1 7.14 1 0 1 C0 0.67 0 0.34 0 0 Z " fill="#CC8607" transform="translate(1192,537)"/>
<path d="M0 0 C6.93 0 13.86 0 21 0 C21 0.33 21 0.66 21 1 C14.07 1 7.14 1 0 1 C0 0.67 0 0.34 0 0 Z " fill="#CC8607" transform="translate(1250,492)"/>
<path d="M0 0 C5.94 0 11.88 0 18 0 C18 0.33 18 0.66 18 1 C12.06 1 6.12 1 0 1 C0 0.67 0 0.34 0 0 Z " fill="#CC8607" transform="translate(680,593)"/>
<path d="M0 0 C5.94 0 11.88 0 18 0 C18 0.33 18 0.66 18 1 C12.06 1 6.12 1 0 1 C0 0.67 0 0.34 0 0 Z " fill="#000000" transform="translate(755,562)"/>
<path d="M0 0 C5.61 0 11.22 0 17 0 C17 0.33 17 0.66 17 1 C11.39 1 5.78 1 0 1 C0 0.67 0 0.34 0 0 Z " fill="#CC8607" transform="translate(1080,538)"/>
<path d="M0 0 C5.61 0 11.22 0 17 0 C17 0.33 17 0.66 17 1 C11.39 1 5.78 1 0 1 C0 0.67 0 0.34 0 0 Z " fill="#CC8607" transform="translate(1129,414)"/>
<path d="M0 0 C5.28 0 10.56 0 16 0 C16 0.33 16 0.66 16 1 C10.72 1 5.44 1 0 1 C0 0.67 0 0.34 0 0 Z " fill="#CC8607" transform="translate(448,557)"/>
<path d="M0 0 C3.3 0 6.6 0 10 0 C10 0.66 10 1.32 10 2 C6.7 1.67 3.4 1.34 0 1 C0 0.67 0 0.34 0 0 Z " fill="#CC8607" transform="translate(1267,555)"/>
<path d="M0 0 C4.95 0 9.9 0 15 0 C15 0.33 15 0.66 15 1 C10.05 1 5.1 1 0 1 C0 0.67 0 0.34 0 0 Z " fill="#CC8607" transform="translate(1060,477)"/>
<path d="M0 0 C4.95 0 9.9 0 15 0 C15 0.33 15 0.66 15 1 C10.05 1 5.1 1 0 1 C0 0.67 0 0.34 0 0 Z " fill="#CC8607" transform="translate(1077,413)"/>
<path d="M0 0 C4.62 0 9.24 0 14 0 C14 0.33 14 0.66 14 1 C9.38 1 4.76 1 0 1 C0 0.67 0 0.34 0 0 Z " fill="#CC8607" transform="translate(781,545)"/>
<path d="M0 0 C4.62 0 9.24 0 14 0 C14 0.33 14 0.66 14 1 C9.38 1 4.76 1 0 1 C0 0.67 0 0.34 0 0 Z " fill="#CC8607" transform="translate(675,485)"/>
<path d="M0 0 C4.29 0 8.58 0 13 0 C13 0.33 13 0.66 13 1 C8.71 1 4.42 1 0 1 C0 0.67 0 0.34 0 0 Z " fill="#CC8607" transform="translate(831,544)"/>
<path d="M0 0 C3.96 0 7.92 0 12 0 C12 0.33 12 0.66 12 1 C8.04 1 4.08 1 0 1 C0 0.67 0 0.34 0 0 Z " fill="#000000" transform="translate(909,517)"/>
<path d="M0 0 C3.63 0 7.26 0 11 0 C11 0.33 11 0.66 11 1 C7.37 1 3.74 1 0 1 C0 0.67 0 0.34 0 0 Z " fill="#000000" transform="translate(458,626)"/>
<path d="M0 0 C3.63 0 7.26 0 11 0 C11 0.33 11 0.66 11 1 C7.37 1 3.74 1 0 1 C0 0.67 0 0.34 0 0 Z " fill="#000000" transform="translate(891,558)"/>
<path d="M0 0 C3.63 0 7.26 0 11 0 C11 0.33 11 0.66 11 1 C7.37 1 3.74 1 0 1 C0 0.67 0 0.34 0 0 Z " fill="#CC8607" transform="translate(484,556)"/>
<path d="M0 0 C3.63 0 7.26 0 11 0 C11 0.33 11 0.66 11 1 C7.37 1 3.74 1 0 1 C0 0.67 0 0.34 0 0 Z " fill="#CC8607" transform="translate(555,552)"/>
<path d="M0 0 C3.63 0 7.26 0 11 0 C11 0.33 11 0.66 11 1 C7.37 1 3.74 1 0 1 C0 0.67 0 0.34 0 0 Z " fill="#CC8607" transform="translate(680,548)"/>
<path d="M0 0 C3.63 0 7.26 0 11 0 C11 0.33 11 0.66 11 1 C7.37 1 3.74 1 0 1 C0 0.67 0 0.34 0 0 Z " fill="#CC8607" transform="translate(769,545)"/>
<path d="M0 0 C3.3 0 6.6 0 10 0 C10 0.33 10 0.66 10 1 C6.7 1 3.4 1 0 1 C0 0.67 0 0.34 0 0 Z " fill="#CC8607" transform="translate(180,629)"/>
<path d="M0 0 C3.3 0 6.6 0 10 0 C10 0.33 10 0.66 10 1 C6.7 1 3.4 1 0 1 C0 0.67 0 0.34 0 0 Z " fill="#CC8607" transform="translate(605,550)"/>
<path d="M0 0 C2.97 0 5.94 0 9 0 C9 0.33 9 0.66 9 1 C6.03 1 3.06 1 0 1 C0 0.67 0 0.34 0 0 Z " fill="#CC8607" transform="translate(670,548)"/>
<path d="M0 0 C2.97 0 5.94 0 9 0 C9 0.33 9 0.66 9 1 C6.03 1 3.06 1 0 1 C0 0.67 0 0.34 0 0 Z " fill="#000000" transform="translate(74,547)"/>
<path d="M0 0 C2.97 0 5.94 0 9 0 C9 0.33 9 0.66 9 1 C6.03 1 3.06 1 0 1 C0 0.67 0 0.34 0 0 Z " fill="#CC8607" transform="translate(838,473)"/>
<path d="M0 0 C2.64 0 5.28 0 8 0 C8 0.33 8 0.66 8 1 C5.36 1 2.72 1 0 1 C0 0.67 0 0.34 0 0 Z " fill="#000000" transform="translate(94,656)"/>
<path d="M0 0 C2.64 0 5.28 0 8 0 C8 0.33 8 0.66 8 1 C5.36 1 2.72 1 0 1 C0 0.67 0 0.34 0 0 Z " fill="#CC8607" transform="translate(544,601)"/>
<path d="M0 0 C2.64 0 5.28 0 8 0 C8 0.33 8 0.66 8 1 C5.36 1 2.72 1 0 1 C0 0.67 0 0.34 0 0 Z " fill="#000000" transform="translate(716,528)"/>
<path d="M0 0 C2.64 0 5.28 0 8 0 C8 0.33 8 0.66 8 1 C5.36 1 2.72 1 0 1 C0 0.67 0 0.34 0 0 Z " fill="#CC8607" transform="translate(1051,477)"/>
<path d="M0 0 C2.64 0 5.28 0 8 0 C8 0.33 8 0.66 8 1 C5.36 1 2.72 1 0 1 C0 0.67 0 0.34 0 0 Z " fill="#000000" transform="translate(1010,434)"/>
<path d="M0 0 C2.64 0 5.28 0 8 0 C8 0.33 8 0.66 8 1 C5.36 1 2.72 1 0 1 C0 0.67 0 0.34 0 0 Z " fill="#000000" transform="translate(1115,430)"/>
<path d="M0 0 C2.31 0 4.62 0 7 0 C7 0.33 7 0.66 7 1 C4.69 1 2.38 1 0 1 C0 0.67 0 0.34 0 0 Z " fill="#CC8607" transform="translate(191,629)"/>
<path d="M0 0 C2.31 0 4.62 0 7 0 C7 0.33 7 0.66 7 1 C4.69 1 2.38 1 0 1 C0 0.67 0 0.34 0 0 Z " fill="#CC8607" transform="translate(469,604)"/>
<path d="M0 0 C2.31 0 4.62 0 7 0 C7 0.33 7 0.66 7 1 C4.69 1 2.38 1 0 1 C0 0.67 0 0.34 0 0 Z " fill="#000000" transform="translate(568,569)"/>
<path d="M0 0 C2.31 0 4.62 0 7 0 C7 0.33 7 0.66 7 1 C4.69 1 2.38 1 0 1 C0 0.67 0 0.34 0 0 Z " fill="#CC8607" transform="translate(465,557)"/>
<path d="M0 0 C2.31 0 4.62 0 7 0 C7 0.33 7 0.66 7 1 C4.69 1 2.38 1 0 1 C0 0.67 0 0.34 0 0 Z " fill="#CC8607" transform="translate(595,550)"/>
<path d="M0 0 C2.31 0 4.62 0 7 0 C7 0.33 7 0.66 7 1 C4.69 1 2.38 1 0 1 C0 0.67 0 0.34 0 0 Z " fill="#000000" transform="translate(653,532)"/>
<path d="M0 0 C2.31 0 4.62 0 7 0 C7 0.33 7 0.66 7 1 C4.69 1 2.38 1 0 1 C0 0.67 0 0.34 0 0 Z " fill="#CC8607" transform="translate(492,497)"/>
<path d="M0 0 C2.31 0 4.62 0 7 0 C7 0.33 7 0.66 7 1 C4.69 1 2.38 1 0 1 C0 0.67 0 0.34 0 0 Z " fill="#000000" transform="translate(726,453)"/>
<path d="M0 0 C2.31 0 4.62 0 7 0 C7 0.33 7 0.66 7 1 C4.69 1 2.38 1 0 1 C0 0.67 0 0.34 0 0 Z " fill="#CC8607" transform="translate(684,437)"/>
<path d="M0 0 C2.31 0 4.62 0 7 0 C7 0.33 7 0.66 7 1 C4.69 1 2.38 1 0 1 C0 0.67 0 0.34 0 0 Z " fill="#CC8607" transform="translate(932,418)"/>
<path d="M0 0 C1.98 0 3.96 0 6 0 C6 0.33 6 0.66 6 1 C4.02 1 2.04 1 0 1 C0 0.67 0 0.34 0 0 Z " fill="#000000" transform="translate(232,645)"/>
<path d="M0 0 C1.98 0 3.96 0 6 0 C6 0.33 6 0.66 6 1 C4.02 1 2.04 1 0 1 C0 0.67 0 0.34 0 0 Z " fill="#000000" transform="translate(543,622)"/>
<path d="M0 0 C1.98 0 3.96 0 6 0 C6 0.33 6 0.66 6 1 C4.02 1 2.04 1 0 1 C0 0.67 0 0.34 0 0 Z " fill="#000000" transform="translate(889,596)"/>
<path d="M0 0 C1.98 0 3.96 0 6 0 C6 0.33 6 0.66 6 1 C4.02 1 2.04 1 0 1 C0 0.67 0 0.34 0 0 Z " fill="#000000" transform="translate(380,581)"/>
<path d="M0 0 C1.98 0 3.96 0 6 0 C6 0.33 6 0.66 6 1 C4.02 1 2.04 1 0 1 C0 0.67 0 0.34 0 0 Z " fill="#000000" transform="translate(1084,577)"/>
<path d="M0 0 C1.98 0 3.96 0 6 0 C6 0.33 6 0.66 6 1 C4.02 1 2.04 1 0 1 C0 0.67 0 0.34 0 0 Z " fill="#CC8607" transform="translate(119,550)"/>
<path d="M0 0 C1.98 0 3.96 0 6 0 C6 0.33 6 0.66 6 1 C4.02 1 2.04 1 0 1 C0 0.67 0 0.34 0 0 Z " fill="#000000" transform="translate(443,547)"/>
<path d="M0 0 C1.98 0 3.96 0 6 0 C6 0.33 6 0.66 6 1 C4.02 1 2.04 1 0 1 C0 0.67 0 0.34 0 0 Z " fill="#000000" transform="translate(496,543)"/>
<path d="M0 0 C1.98 0 3.96 0 6 0 C6 0.33 6 0.66 6 1 C4.02 1 2.04 1 0 1 C0 0.67 0 0.34 0 0 Z " fill="#CC8607" transform="translate(959,538)"/>
<path d="M0 0 C1.98 0 3.96 0 6 0 C6 0.33 6 0.66 6 1 C4.02 1 2.04 1 0 1 C0 0.67 0 0.34 0 0 Z " fill="#CC8607" transform="translate(1214,537)"/>
<path d="M0 0 C1.98 0 3.96 0 6 0 C6 0.33 6 0.66 6 1 C4.02 1 2.04 1 0 1 C0 0.67 0 0.34 0 0 Z " fill="#CC8607" transform="translate(482,497)"/>
<path d="M0 0 C1.98 0 3.96 0 6 0 C6 0.33 6 0.66 6 1 C4.02 1 2.04 1 0 1 C0 0.67 0 0.34 0 0 Z " fill="#CC8607" transform="translate(450,454)"/>
<path d="M0 0 C1.98 0 3.96 0 6 0 C6 0.33 6 0.66 6 1 C4.02 1 2.04 1 0 1 C0 0.67 0 0.34 0 0 Z " fill="#000000" transform="translate(778,449)"/>
<path d="M0 0 C1.65 0 3.3 0 5 0 C5 0.33 5 0.66 5 1 C3.35 1 1.7 1 0 1 C0 0.67 0 0.34 0 0 Z " fill="#000000" transform="translate(278,641)"/>
<path d="M0 0 C1.65 0 3.3 0 5 0 C5 0.33 5 0.66 5 1 C3.35 1 1.7 1 0 1 C0 0.67 0 0.34 0 0 Z " fill="#000000" transform="translate(711,611)"/>
<path d="M0 0 C1.65 0 3.3 0 5 0 C5 0.33 5 0.66 5 1 C3.35 1 1.7 1 0 1 C0 0.67 0 0.34 0 0 Z " fill="#000000" transform="translate(1043,581)"/>
<path d="M0 0 C1.65 0 3.3 0 5 0 C5 0.33 5 0.66 5 1 C3.35 1 1.7 1 0 1 C0 0.67 0 0.34 0 0 Z " fill="#000000" transform="translate(1155,573)"/>
<path d="M0 0 C1.65 0 3.3 0 5 0 C5 0.33 5 0.66 5 1 C3.35 1 1.7 1 0 1 C0 0.67 0 0.34 0 0 Z " fill="#000000" transform="translate(250,569)"/>
<path d="M0 0 C1.65 0 3.3 0 5 0 C5 0.33 5 0.66 5 1 C3.35 1 1.7 1 0 1 C0 0.67 0 0.34 0 0 Z " fill="#CC8607" transform="translate(66,535)"/>
<path d="M0 0 C1.65 0 3.3 0 5 0 C5 0.33 5 0.66 5 1 C3.35 1 1.7 1 0 1 C0 0.67 0 0.34 0 0 Z " fill="#CC8607" transform="translate(346,505)"/>
<path d="M0 0 C1.65 0 3.3 0 5 0 C5 0.33 5 0.66 5 1 C3.35 1 1.7 1 0 1 C0 0.67 0 0.34 0 0 Z " fill="#CC8607" transform="translate(252,492)"/>
<path d="M0 0 C1.65 0 3.3 0 5 0 C5 0.33 5 0.66 5 1 C3.35 1 1.7 1 0 1 C0 0.67 0 0.34 0 0 Z " fill="#000000" transform="translate(975,434)"/>
<path d="M0 0 C4 1 4 1 4 1 Z " fill="#CC8607" transform="translate(284,617)"/>
<path d="M0 0 C4 1 4 1 4 1 Z " fill="#000000" transform="translate(805,603)"/>
<path d="M0 0 C4 1 4 1 4 1 Z " fill="#CC8607" transform="translate(778,584)"/>
<path d="M0 0 C4 1 4 1 4 1 Z " fill="#CC8607" transform="translate(246,580)"/>
<path d="M0 0 C4 1 4 1 4 1 Z " fill="#CC8607" transform="translate(954,569)"/>
<path d="M0 0 C4 1 4 1 4 1 Z " fill="#CC8607" transform="translate(25,565)"/>
<path d="M0 0 C4 1 4 1 4 1 Z " fill="#CC8607" transform="translate(1026,564)"/>
<path d="M0 0 C4 1 4 1 4 1 Z " fill="#CC8607" transform="translate(1041,563)"/>
<path d="M0 0 C4 1 4 1 4 1 Z " fill="#CC8607" transform="translate(1067,561)"/>
<path d="M0 0 C4 1 4 1 4 1 Z " fill="#CC8607" transform="translate(916,541)"/>
<path d="M0 0 C4 1 4 1 4 1 Z " fill="#000000" transform="translate(554,539)"/>
<path d="M0 0 C4 1 4 1 4 1 Z " fill="#000000" transform="translate(786,524)"/>
<path d="M0 0 C4 1 4 1 4 1 Z " fill="#CC8607" transform="translate(165,520)"/>
<path d="M0 0 C4 1 4 1 4 1 Z " fill="#CC8607" transform="translate(276,510)"/>
<path d="M0 0 C4 1 4 1 4 1 Z " fill="#CC8607" transform="translate(457,499)"/>
<path d="M0 0 C0.66 0.33 1.32 0.66 2 1 C1.01 1 0.02 1 -1 1 C-0.67 0.67 -0.34 0.34 0 0 Z " fill="#CC8607" transform="translate(228,498)"/>
<path d="M0 0 C4 1 4 1 4 1 Z " fill="#CC8607" transform="translate(521,495)"/>
<path d="M0 0 C4 1 4 1 4 1 Z " fill="#CC8607" transform="translate(562,492)"/>
<path d="M0 0 C4 1 4 1 4 1 Z " fill="#CC8607" transform="translate(604,489)"/>
<path d="M0 0 C4 1 4 1 4 1 Z " fill="#000000" transform="translate(462,483)"/>
<path d="M0 0 C4 1 4 1 4 1 Z " fill="#CC8607" transform="translate(757,478)"/>
<path d="M0 0 C4 1 4 1 4 1 Z " fill="#000000" transform="translate(655,460)"/>
<path d="M0 0 C1 4 1 4 1 4 Z " fill="#000000" transform="translate(479,453)"/>
<path d="M0 0 C4 1 4 1 4 1 Z " fill="#CC8607" transform="translate(623,441)"/>
<path d="M0 0 C4 1 4 1 4 1 Z " fill="#CC8607" transform="translate(634,440)"/>
<path d="M0 0 C4 1 4 1 4 1 Z " fill="#CC8607" transform="translate(653,439)"/>
<path d="M0 0 C4 1 4 1 4 1 Z " fill="#CC8607" transform="translate(894,420)"/>
<path d="M0 0 C4 1 4 1 4 1 Z " fill="#CC8607" transform="translate(925,418)"/>
<path d="M0 0 C4 1 4 1 4 1 Z " fill="#CC8607" transform="translate(950,417)"/>
<path d="M0 0 C3 1 3 1 3 1 Z " fill="#000000" transform="translate(150,652)"/>
<path d="M0 0 C3 1 3 1 3 1 Z " fill="#CC8607" transform="translate(63,644)"/>
<path d="M0 0 C3 1 3 1 3 1 Z " fill="#000000" transform="translate(320,637)"/>
<path d="M0 0 C3 1 3 1 3 1 Z " fill="#000000" transform="translate(633,618)"/>
<path d="M0 0 C3 1 3 1 3 1 Z " fill="#CC8607" transform="translate(330,614)"/>
<path d="M0 0 C3 1 3 1 3 1 Z " fill="#CC8607" transform="translate(387,609)"/>
<path d="M0 0 C3 1 3 1 3 1 Z " fill="#000000" transform="translate(753,607)"/>
<path d="M0 0 C3 1 3 1 3 1 Z " fill="#CC8607" transform="translate(424,606)"/>
<path d="M0 0 C3 1 3 1 3 1 Z " fill="#CC8607" transform="translate(604,597)"/>
<path d="M0 0 C3 1 3 1 3 1 Z " fill="#000000" transform="translate(239,596)"/>
<path d="M0 0 C3 1 3 1 3 1 Z " fill="#000000" transform="translate(932,592)"/>
<path d="M0 0 C3 1 3 1 3 1 Z " fill="#000000" transform="translate(415,577)"/>
<path d="M0 0 C3 1 3 1 3 1 Z " fill="#000000" transform="translate(82,577)"/>
<path d="M0 0 C3 1 3 1 3 1 Z " fill="#CC8607" transform="translate(950,569)"/>
<path d="M0 0 C3 1 3 1 3 1 Z " fill="#CC8607" transform="translate(969,568)"/>
<path d="M0 0 C3 1 3 1 3 1 Z " fill="#CC8607" transform="translate(988,567)"/>
<path d="M0 0 C3 1 3 1 3 1 Z " fill="#CC8607" transform="translate(1007,565)"/>
<path d="M0 0 C3 1 3 1 3 1 Z " fill="#CC8607" transform="translate(1022,564)"/>
<path d="M0 0 C3 1 3 1 3 1 Z " fill="#000000" transform="translate(311,562)"/>
<path d="M0 0 C3 1 3 1 3 1 Z " fill="#CC8607" transform="translate(1082,560)"/>
<path d="M0 0 C3 1 3 1 3 1 Z " fill="#CC8607" transform="translate(1270,553)"/>
<path d="M0 0 C3 1 3 1 3 1 Z " fill="#CC8607" transform="translate(912,541)"/>
<path d="M0 0 C3 1 3 1 3 1 Z " fill="#CC8607" transform="translate(1233,538)"/>
<path d="M0 0 C3 1 3 1 3 1 Z " fill="#CC8607" transform="translate(1229,538)"/>
<path d="M0 0 C3 1 3 1 3 1 Z " fill="#CC8607" transform="translate(244,512)"/>
<path d="M0 0 C3 1 3 1 3 1 Z " fill="#CC8607" transform="translate(262,511)"/>
<path d="M0 0 C3 1 3 1 3 1 Z " fill="#CC8607" transform="translate(258,511)"/>
<path d="M0 0 C3 1 3 1 3 1 Z " fill="#000000" transform="translate(1276,509)"/>
<path d="M0 0 C3 1 3 1 3 1 Z " fill="#000000" transform="translate(867,441)"/>
<path d="M0 0 C3 1 3 1 3 1 Z " fill="#CC8607" transform="translate(614,441)"/>
<path d="M0 0 C3 1 3 1 3 1 Z " fill="#CC8607" transform="translate(639,440)"/>
<path d="M0 0 C3 1 3 1 3 1 Z " fill="#CC8607" transform="translate(658,439)"/>
<path d="M0 0 C3 1 3 1 3 1 Z " fill="#CC8607" transform="translate(692,436)"/>
<path d="M0 0 C3 1 3 1 3 1 Z " fill="#CC8607" transform="translate(736,433)"/>
<path d="M0 0 C3 1 3 1 3 1 Z " fill="#CC8607" transform="translate(754,432)"/>
<path d="M0 0 C3 1 3 1 3 1 Z " fill="#CC8607" transform="translate(767,431)"/>
<path d="M0 0 C3 1 3 1 3 1 Z " fill="#CC8607" transform="translate(879,421)"/>
<path d="M0 0 C3 1 3 1 3 1 Z " fill="#CC8607" transform="translate(875,421)"/>
<path d="M0 0 C3 1 3 1 3 1 Z " fill="#CC8607" transform="translate(1151,414)"/>
<path d="" fill="#CC8607" transform="translate(0,0)"/>
<path d="M0 0 C2 1 2 1 2 1 Z " fill="#CC8607" transform="translate(292,617)"/>
<path d="M0 0 C2 1 2 1 2 1 Z " fill="#CC8607" transform="translate(289,617)"/>
<path d="M0 0 C2 1 2 1 2 1 Z " fill="#CC8607" transform="translate(311,616)"/>
<path d="M0 0 C2 1 2 1 2 1 Z " fill="#CC8607" transform="translate(326,614)"/>
<path d="M0 0 C2 1 2 1 2 1 Z " fill="#CC8607" transform="translate(341,613)"/>
<path d="M0 0 C2 1 2 1 2 1 Z " fill="#CC8607" transform="translate(371,610)"/>
<path d="M0 0 C2 1 2 1 2 1 Z " fill="#CC8607" transform="translate(400,608)"/>
<path d="M0 0 C2 1 2 1 2 1 Z " fill="#CC8607" transform="translate(556,601)"/>
<path d="M0 0 C2 1 2 1 2 1 Z " fill="#CC8607" transform="translate(553,601)"/>
<path d="M0 0 C2 1 2 1 2 1 Z " fill="#CC8607" transform="translate(582,599)"/>
<path d="M0 0 C2 1 2 1 2 1 Z " fill="#CC8607" transform="translate(579,599)"/>
<path d="M0 0 C2 1 2 1 2 1 Z " fill="#CC8607" transform="translate(575,599)"/>
<path d="M0 0 C2 1 2 1 2 1 Z " fill="#CC8607" transform="translate(628,595)"/>
<path d="M0 0 C2 1 2 1 2 1 Z " fill="#CC8607" transform="translate(625,595)"/>
<path d="M0 0 C2 1 2 1 2 1 Z " fill="#000000" transform="translate(270,592)"/>
<path d="M0 0 C2 1 2 1 2 1 Z " fill="#CC8607" transform="translate(786,584)"/>
<path d="M0 0 C2 1 2 1 2 1 Z " fill="#CC8607" transform="translate(783,584)"/>
<path d="M0 0 C2 1 2 1 2 1 Z " fill="#CC8607" transform="translate(775,584)"/>
<path d="M0 0 C2 1 2 1 2 1 Z " fill="#000000" transform="translate(203,577)"/>
<path d="M0 0 C2 1 2 1 2 1 Z " fill="#000000" transform="translate(451,573)"/>
<path d="M0 0 C2 1 2 1 2 1 Z " fill="#000000" transform="translate(120,573)"/>
<path d="M0 0 C2 1 2 1 2 1 Z " fill="#CC8607" transform="translate(947,569)"/>
<path d="M0 0 C2 1 2 1 2 1 Z " fill="#CC8607" transform="translate(325,569)"/>
<path d="M0 0 C2 1 2 1 2 1 Z " fill="#CC8607" transform="translate(966,568)"/>
<path d="M0 0 C2 1 2 1 2 1 Z " fill="#CC8607" transform="translate(985,567)"/>
<path d="M0 0 C2 1 2 1 2 1 Z " fill="#CC8607" transform="translate(1004,565)"/>
<path d="M0 0 C2 1 2 1 2 1 Z " fill="#CC8607" transform="translate(22,565)"/>
<path d="M0 0 C2 1 2 1 2 1 Z " fill="#CC8607" transform="translate(1046,563)"/>
<path d="M0 0 C2 1 2 1 2 1 Z " fill="#CC8607" transform="translate(1064,561)"/>
<path d="M0 0 C2 1 2 1 2 1 Z " fill="#CC8607" transform="translate(394,561)"/>
<path d="M0 0 C2 1 2 1 2 1 Z " fill="#CC8607" transform="translate(406,560)"/>
<path d="M0 0 C2 1 2 1 2 1 Z " fill="#000000" transform="translate(343,558)"/>
<path d="M0 0 C2 1 2 1 2 1 Z " fill="#CC8607" transform="translate(496,556)"/>
<path d="M0 0 C2 1 2 1 2 1 Z " fill="#CC8607" transform="translate(537,553)"/>
<path d="M0 0 C2 1 2 1 2 1 Z " fill="#CC8607" transform="translate(534,553)"/>
<path d="M0 0 C2 1 2 1 2 1 Z " fill="#CC8607" transform="translate(34,542)"/>
<path d="M0 0 C2 1 2 1 2 1 Z " fill="#CC8607" transform="translate(921,541)"/>
<path d="M0 0 C2 1 2 1 2 1 Z " fill="#CC8607" transform="translate(969,538)"/>
<path d="M0 0 C2 1 2 1 2 1 Z " fill="#CC8607" transform="translate(966,538)"/>
<path d="M0 0 C2 1 2 1 2 1 Z " fill="#CC8607" transform="translate(951,538)"/>
<path d="M0 0 C2 1 2 1 2 1 Z " fill="#CC8607" transform="translate(74,535)"/>
<path d="M0 0 C2 1 2 1 2 1 Z " fill="#CC8607" transform="translate(172,519)"/>
<path d="M0 0 C2 1 2 1 2 1 Z " fill="#CC8607" transform="translate(281,510)"/>
<path d="M0 0 C2 1 2 1 2 1 Z " fill="#CC8607" transform="translate(300,508)"/>
<path d="M0 0 C2 1 2 1 2 1 Z " fill="#CC8607" transform="translate(326,507)"/>
<path d="M0 0 C2 1 2 1 2 1 Z " fill="#CC8607" transform="translate(323,507)"/>
<path d="M0 0 C2 1 2 1 2 1 Z " fill="#CC8607" transform="translate(320,507)"/>
<path d="M0 0 C2 1 2 1 2 1 Z " fill="#CC8607" transform="translate(363,505)"/>
<path d="M0 0 C2 1 2 1 2 1 Z " fill="#CC8607" transform="translate(360,505)"/>
<path d="M0 0 C2 1 2 1 2 1 Z " fill="#CC8607" transform="translate(357,505)"/>
<path d="M0 0 C2 1 2 1 2 1 Z " fill="#CC8607" transform="translate(394,503)"/>
<path d="M0 0 C2 1 2 1 2 1 Z " fill="#CC8607" transform="translate(391,503)"/>
<path d="M0 0 C2 1 2 1 2 1 Z " fill="#CC8607" transform="translate(420,501)"/>
<path d="M0 0 C2 1 2 1 2 1 Z " fill="#CC8607" transform="translate(417,501)"/>
<path d="M0 0 C2 1 2 1 2 1 Z " fill="#CC8607" transform="translate(414,501)"/>
<path d="M0 0 C2 1 2 1 2 1 Z " fill="#CC8607" transform="translate(462,499)"/>
<path d="M0 0 C2 1 2 1 2 1 Z " fill="#CC8607" transform="translate(503,496)"/>
<path d="M0 0 C2 1 2 1 2 1 Z " fill="#CC8607" transform="translate(500,496)"/>
<path d="M0 0 C2 1 2 1 2 1 Z " fill="#CC8607" transform="translate(216,496)"/>
<path d="M0 0 C2 1 2 1 2 1 Z " fill="#CC8607" transform="translate(213,496)"/>
<path d="M0 0 C2 1 2 1 2 1 Z " fill="#CC8607" transform="translate(526,495)"/>
<path d="M0 0 C2 1 2 1 2 1 Z " fill="#000000" transform="translate(184,494)"/>
<path d="M0 0 C2 1 2 1 2 1 Z " fill="#CC8607" transform="translate(1234,493)"/>
<path d="M0 0 C2 1 2 1 2 1 Z " fill="#CC8607" transform="translate(549,493)"/>
<path d="M0 0 C2 1 2 1 2 1 Z " fill="#CC8607" transform="translate(567,492)"/>
<path d="M0 0 C2 1 2 1 2 1 Z " fill="#CC8607" transform="translate(583,491)"/>
<path d="M0 0 C2 1 2 1 2 1 Z " fill="#000000" transform="translate(395,490)"/>
<path d="M0 0 C2 1 2 1 2 1 Z " fill="#CC8607" transform="translate(612,489)"/>
<path d="M0 0 C2 1 2 1 2 1 Z " fill="#CC8607" transform="translate(609,489)"/>
<path d="M0 0 C2 1 2 1 2 1 Z " fill="#CC8607" transform="translate(631,488)"/>
<path d="M0 0 C2 1 2 1 2 1 Z " fill="#CC8607" transform="translate(628,488)"/>
<path d="M0 0 C2 1 2 1 2 1 Z " fill="#CC8607" transform="translate(625,488)"/>
<path d="M0 0 C2 1 2 1 2 1 Z " fill="#CC8607" transform="translate(699,484)"/>
<path d="M0 0 C2 1 2 1 2 1 Z " fill="#CC8607" transform="translate(722,482)"/>
<path d="M0 0 C2 1 2 1 2 1 Z " fill="#CC8607" transform="translate(1155,477)"/>
<path d="M0 0 C2 1 2 1 2 1 Z " fill="#CC8607" transform="translate(1152,477)"/>
<path d="M0 0 C2 1 2 1 2 1 Z " fill="#CC8607" transform="translate(1076,477)"/>
<path d="M0 0 C2 1 2 1 2 1 Z " fill="#CC8607" transform="translate(774,477)"/>
<path d="M0 0 C2 1 2 1 2 1 Z " fill="#CC8607" transform="translate(835,473)"/>
<path d="M0 0 C2 1 2 1 2 1 Z " fill="#CC8607" transform="translate(832,473)"/>
<path d="M0 0 C2 1 2 1 2 1 Z " fill="#CC8607" transform="translate(316,466)"/>
<path d="M0 0 C2 1 2 1 2 1 Z " fill="#CC8607" transform="translate(447,454)"/>
<path d="M0 0 C2 1 2 1 2 1 Z " fill="#CC8607" transform="translate(509,451)"/>
<path d="M0 0 C2 1 2 1 2 1 Z " fill="#CC8607" transform="translate(500,450)"/>
<path d="M0 0 C2 1 2 1 2 1 Z " fill="#000000" transform="translate(827,445)"/>
<path d="M0 0 C2 1 2 1 2 1 Z " fill="#CC8607" transform="translate(601,443)"/>
<path d="M0 0 C2 1 2 1 2 1 Z " fill="#CC8607" transform="translate(628,441)"/>
<path d="M0 0 C2 1 2 1 2 1 Z " fill="#CC8607" transform="translate(620,441)"/>
<path d="M0 0 C2 1 2 1 2 1 Z " fill="#CC8607" transform="translate(643,440)"/>
<path d="M0 0 C2 1 2 1 2 1 Z " fill="#CC8607" transform="translate(662,439)"/>
<path d="M0 0 C2 1 2 1 2 1 Z " fill="#CC8607" transform="translate(677,437)"/>
<path d="M0 0 C2 1 2 1 2 1 Z " fill="#CC8607" transform="translate(674,437)"/>
<path d="M0 0 C2 1 2 1 2 1 Z " fill="#CC8607" transform="translate(699,436)"/>
<path d="M0 0 C2 1 2 1 2 1 Z " fill="#CC8607" transform="translate(696,436)"/>
<path d="M0 0 C2 1 2 1 2 1 Z " fill="#CC8607" transform="translate(771,431)"/>
<path d="M0 0 C2 1 2 1 2 1 Z " fill="#CC8607" transform="translate(804,428)"/>
<path d="M0 0 C2 1 2 1 2 1 Z " fill="#CC8607" transform="translate(1227,420)"/>
<path d="M0 0 C2 1 2 1 2 1 Z " fill="#CC8607" transform="translate(899,420)"/>
<path d="M0 0 C2 1 2 1 2 1 Z " fill="#CC8607" transform="translate(955,417)"/>
<path d="M0 0 C2 1 2 1 2 1 Z " fill="#CC8607" transform="translate(970,416)"/>
<path d="M0 0 C2 1 2 1 2 1 Z " fill="#CC8607" transform="translate(993,414)"/>
<path d="" fill="#CC8607" transform="translate(0,0)"/>
<path d="" fill="#CC8607" transform="translate(0,0)"/>
<path d="" fill="#CC8607" transform="translate(0,0)"/>
<path d="" fill="#CC8607" transform="translate(0,0)"/>
<path d="" fill="#CC8607" transform="translate(0,0)"/>
<path d="" fill="#CC8607" transform="translate(0,0)"/>
<path d="" fill="#CC8607" transform="translate(0,0)"/>
<path d="" fill="#CC8607" transform="translate(0,0)"/>
<path d="" fill="#CC8607" transform="translate(0,0)"/>
<path d="" fill="#CC8607" transform="translate(0,0)"/>
<path d="" fill="#CC8607" transform="translate(0,0)"/>
<path d="" fill="#000000" transform="translate(0,0)"/>
<path d="" fill="#CC8607" transform="translate(0,0)"/>
<path d="" fill="#CC8607" transform="translate(0,0)"/>
<path d="" fill="#CC8607" transform="translate(0,0)"/>
<path d="" fill="#CC8607" transform="translate(0,0)"/>
<path d="" fill="#CC8607" transform="translate(0,0)"/>
<path d="" fill="#CC8607" transform="translate(0,0)"/>
<path d="" fill="#000000" transform="translate(0,0)"/>
<path d="" fill="#000000" transform="translate(0,0)"/>
<path d="" fill="#CC8607" transform="translate(0,0)"/>
<path d="" fill="#000000" transform="translate(0,0)"/>
<path d="" fill="#CC8607" transform="translate(0,0)"/>
<path d="" fill="#CC8607" transform="translate(0,0)"/>
<path d="" fill="#CC8607" transform="translate(0,0)"/>
<path d="" fill="#CC8607" transform="translate(0,0)"/>
<path d="" fill="#CC8607" transform="translate(0,0)"/>
<path d="" fill="#CC8607" transform="translate(0,0)"/>
<path d="" fill="#CC8607" transform="translate(0,0)"/>
<path d="" fill="#CC8607" transform="translate(0,0)"/>
<path d="" fill="#CC8607" transform="translate(0,0)"/>
<path d="" fill="#CC8607" transform="translate(0,0)"/>
<path d="" fill="#CC8607" transform="translate(0,0)"/>
<path d="" fill="#CC8607" transform="translate(0,0)"/>
<path d="" fill="#CC8607" transform="translate(0,0)"/>
<path d="" fill="#CC8607" transform="translate(0,0)"/>
<path d="" fill="#CC8607" transform="translate(0,0)"/>
<path d="" fill="#000000" transform="translate(0,0)"/>
<path d="" fill="#CC8607" transform="translate(0,0)"/>
<path d="" fill="#CC8607" transform="translate(0,0)"/>
<path d="" fill="#CC8607" transform="translate(0,0)"/>
<path d="" fill="#CC8607" transform="translate(0,0)"/>
<path d="" fill="#CC8607" transform="translate(0,0)"/>
<path d="" fill="#CC8607" transform="translate(0,0)"/>
<path d="" fill="#CC8607" transform="translate(0,0)"/>
<path d="" fill="#CC8607" transform="translate(0,0)"/>
<path d="" fill="#CC8607" transform="translate(0,0)"/>
<path d="" fill="#CC8607" transform="translate(0,0)"/>
<path d="" fill="#CC8607" transform="translate(0,0)"/>
<path d="" fill="#CC8607" transform="translate(0,0)"/>
<path d="" fill="#CC8607" transform="translate(0,0)"/>
<path d="" fill="#CC8607" transform="translate(0,0)"/>
<path d="" fill="#CC8607" transform="translate(0,0)"/>
<path d="" fill="#CC8607" transform="translate(0,0)"/>
<path d="" fill="#CC8607" transform="translate(0,0)"/>
<path d="" fill="#000000" transform="translate(0,0)"/>
<path d="" fill="#CC8607" transform="translate(0,0)"/>
<path d="" fill="#CC8607" transform="translate(0,0)"/>
<path d="" fill="#CC8607" transform="translate(0,0)"/>
<path d="" fill="#CC8607" transform="translate(0,0)"/>
<path d="" fill="#CC8607" transform="translate(0,0)"/>
<path d="" fill="#CC8607" transform="translate(0,0)"/>
<path d="" fill="#CC8607" transform="translate(0,0)"/>
<path d="" fill="#CC8607" transform="translate(0,0)"/>
<path d="" fill="#000000" transform="translate(0,0)"/>
<path d="" fill="#CC8607" transform="translate(0,0)"/>
<path d="" fill="#CC8607" transform="translate(0,0)"/>
<path d="" fill="#CC8607" transform="translate(0,0)"/>
<path d="" fill="#CC8607" transform="translate(0,0)"/>
<path d="" fill="#CC8607" transform="translate(0,0)"/>
<path d="" fill="#CC8607" transform="translate(0,0)"/>
<path d="" fill="#CC8607" transform="translate(0,0)"/>
<path d="" fill="#CC8607" transform="translate(0,0)"/>
<path d="" fill="#CC8607" transform="translate(0,0)"/>
<path d="" fill="#CC8607" transform="translate(0,0)"/>
<path d="" fill="#CC8607" transform="translate(0,0)"/>
<path d="" fill="#CC8607" transform="translate(0,0)"/>
<path d="" fill="#CC8607" transform="translate(0,0)"/>
<path d="" fill="#CC8607" transform="translate(0,0)"/>
<path d="" fill="#CC8607" transform="translate(0,0)"/>
<path d="" fill="#CC8607" transform="translate(0,0)"/>
<path d="" fill="#CC8607" transform="translate(0,0)"/>
<path d="" fill="#CC8607" transform="translate(0,0)"/>
<path d="" fill="#CC8607" transform="translate(0,0)"/>
<path d="" fill="#CC8607" transform="translate(0,0)"/>
<path d="" fill="#CC8607" transform="translate(0,0)"/>
<path d="" fill="#000000" transform="translate(0,0)"/>
<path d="" fill="#000000" transform="translate(0,0)"/>
<path d="" fill="#CC8607" transform="translate(0,0)"/>
<path d="" fill="#CC8607" transform="translate(0,0)"/>
<path d="" fill="#CC8607" transform="translate(0,0)"/>
<path d="" fill="#CC8607" transform="translate(0,0)"/>
<path d="" fill="#CC8607" transform="translate(0,0)"/>
<path d="" fill="#CC8607" transform="translate(0,0)"/>
<path d="" fill="#CC8607" transform="translate(0,0)"/>
<path d="" fill="#CC8607" transform="translate(0,0)"/>
<path d="" fill="#CC8607" transform="translate(0,0)"/>
<path d="" fill="#CC8607" transform="translate(0,0)"/>
<path d="" fill="#CC8607" transform="translate(0,0)"/>
<path d="" fill="#CC8607" transform="translate(0,0)"/>
<path d="" fill="#CC8607" transform="translate(0,0)"/>
<path d="" fill="#000000" transform="translate(0,0)"/>
<path d="" fill="#CC8607" transform="translate(0,0)"/>
<path d="" fill="#CC8607" transform="translate(0,0)"/>
<path d="" fill="#CC8607" transform="translate(0,0)"/>
<path d="" fill="#CC8607" transform="translate(0,0)"/>
<path d="" fill="#CC8607" transform="translate(0,0)"/>
<path d="" fill="#CC8607" transform="translate(0,0)"/>
<path d="" fill="#CC8607" transform="translate(0,0)"/>
<path d="" fill="#CC8607" transform="translate(0,0)"/>
</svg>
