<svg width="500" height="500" viewBox="0 0 500 500" fill="none" xmlns="http://www.w3.org/2000/svg">
<path d="M247.526 15.1465C239.341 15.1465 232.705 22.6432 232.705 31.8906V344.448C232.705 372.19 212.799 394.682 188.243 394.682C163.688 394.682 143.781 372.19 143.781 344.448C143.781 316.708 163.688 294.216 188.243 294.216C196.428 294.216 203.064 286.72 203.064 277.472V210.496C203.064 201.248 196.428 193.751 188.243 193.751C114.576 193.751 54.8574 261.222 54.8574 344.448C54.8574 427.676 114.576 495.146 188.243 495.146C261.909 495.146 321.629 427.676 321.629 344.448V215.342C351.577 237 387.185 249.566 425.373 249.566C433.559 249.566 440.195 242.068 440.195 232.82V165.844C440.195 156.597 433.559 149.1 425.373 149.1C368.077 149.1 321.629 96.6236 321.629 31.8906C321.629 22.6432 314.993 15.1465 306.809 15.1465H247.526Z" fill="white"/>
</svg>
