<svg width="15" height="15" viewBox="0 0 20 25" fill="none" xmlns="http://www.w3.org/2000/svg">
<path d="M9.87635 0.757324C9.4671 0.757324 9.13531 1.13216 9.13531 1.59453V17.2224C9.13531 18.6095 8.14 19.7341 6.91221 19.7341C5.68443 19.7341 4.68912 18.6095 4.68912 17.2224C4.68912 15.8354 5.68443 14.7108 6.91221 14.7108C7.32147 14.7108 7.65325 14.336 7.65325 13.8736V10.5248C7.65325 10.0624 7.32147 9.68756 6.91221 9.68756C3.22887 9.68756 0.24292 13.0611 0.24292 17.2224C0.24292 21.3838 3.22887 24.7573 6.91221 24.7573C10.5955 24.7573 13.5815 21.3838 13.5815 17.2224V10.7671C15.0789 11.85 16.8593 12.4783 18.7687 12.4783C19.178 12.4783 19.5098 12.1034 19.5098 11.641V8.29221C19.5098 7.82983 19.178 7.455 18.7687 7.455C15.9039 7.455 13.5815 4.83118 13.5815 1.59453C13.5815 1.13216 13.2497 0.757324 12.8405 0.757324H9.87635Z" fill="white"/>
</svg>
