<svg width="16" height="35" viewBox="0 0 16 35" fill="none" xmlns="http://www.w3.org/2000/svg">
<path d="M1.88686 0.0104364C1.92241 0.0100967 1.95796 0.00975698 1.99459 0.00940697C2.1119 0.00844765 2.22919 0.00824862 2.34651 0.00813981C2.42826 0.00781467 2.51002 0.00747438 2.59178 0.00711961C2.76311 0.00651423 2.93444 0.00632653 3.10577 0.00638648C3.32493 0.00639675 3.54406 0.0050161 3.76321 0.00327387C3.93208 0.00214721 4.10094 0.00194411 4.26981 0.00199755C4.35059 0.00187846 4.43136 0.00143253 4.51213 0.000648986C4.62532 -0.000346177 4.73843 -4.97929e-05 4.85162 0.000558503C4.94808 0.000342292 4.94808 0.000342292 5.04648 0.000121713C5.31884 0.0389779 5.46592 0.151629 5.6336 0.365953C5.73843 0.550029 5.7529 0.650821 5.75312 0.860687C5.75368 0.926527 5.75424 0.992366 5.75481 1.0602C5.75441 1.13291 5.75399 1.20563 5.75355 1.27834C5.75382 1.35585 5.75418 1.43336 5.75462 1.51088C5.75556 1.72374 5.75524 1.93658 5.75471 2.14944C5.75436 2.37905 5.75516 2.60865 5.75582 2.83826C5.75692 3.28797 5.75691 3.73768 5.7565 4.18739C5.75618 4.55278 5.75624 4.91817 5.75656 5.28356C5.75661 5.33554 5.75665 5.38752 5.7567 5.44107C5.75679 5.54665 5.75689 5.65223 5.75698 5.75781C5.75782 6.74807 5.75738 7.73832 5.75653 8.72858C5.75579 9.63515 5.75653 10.5417 5.75798 11.4483C5.75947 12.3787 5.76003 13.3091 5.75954 14.2396C5.75949 14.3447 5.75944 14.4499 5.75939 14.5551C5.75936 14.6327 5.75936 14.6327 5.75932 14.7119C5.75921 15.077 5.75971 15.4421 5.76044 15.8072C5.76133 16.2519 5.76133 16.6966 5.76017 17.1413C5.75961 17.3683 5.75945 17.5953 5.76039 17.8223C5.76124 18.03 5.76092 18.2376 5.75967 18.4452C5.75942 18.5205 5.7596 18.5958 5.76025 18.6711C5.76106 18.7731 5.76018 18.8751 5.7592 18.9771C5.75919 19.0339 5.75918 19.0906 5.75916 19.1491C5.72752 19.2942 5.72752 19.2942 5.60996 19.4106C5.44651 19.5144 5.28294 19.5782 5.0985 19.6324C5.04393 19.6487 5.04393 19.6487 4.98827 19.6653C4.50316 19.7962 4.0018 19.7964 3.50222 19.8C3.59549 20.0615 3.69876 20.2995 3.83412 20.5428C4.0049 20.8547 4.16032 21.1723 4.31142 21.4942C4.46938 21.8303 4.63299 22.16 4.81131 22.4857C4.99645 22.8278 5.16068 23.18 5.32577 23.5321C5.55026 24.052 5.55026 24.052 5.87925 24.5034C6.1061 24.5311 6.27706 24.4738 6.48931 24.3989C7.05115 24.2204 7.61483 24.1046 8.2057 24.1494C8.2401 24.1519 8.27451 24.1544 8.30996 24.157C8.79091 24.1941 9.24371 24.2697 9.70615 24.4072C9.87995 24.4543 10.0501 24.4814 10.2287 24.5034C10.7697 23.4651 10.7697 23.4651 11.2963 22.4196C11.3751 22.2605 11.4547 22.1018 11.5342 21.9431C11.5674 21.8766 11.6007 21.81 11.6339 21.7435C11.8143 21.3828 11.9947 21.022 12.175 20.6613C12.1965 20.6182 12.2179 20.5751 12.2399 20.5307C12.2804 20.4503 12.3216 20.3704 12.3638 20.2909C12.4589 20.1101 12.5046 20.0083 12.5046 19.8C12.4766 19.7992 12.4486 19.7985 12.4197 19.7977C11.3882 19.7673 11.3882 19.7673 10.9873 19.5977C10.9453 19.5801 10.9032 19.5626 10.8599 19.5445C10.7149 19.4817 10.5723 19.4154 10.431 19.3448C10.4252 16.9613 10.4208 14.5779 10.4181 12.1944C10.4178 11.9131 10.4174 11.6318 10.4171 11.3504C10.417 11.2664 10.417 11.2664 10.4169 11.1807C10.4158 10.2736 10.4138 9.3665 10.4115 8.45939C10.4091 7.52875 10.4077 6.59812 10.4072 5.66747C10.4069 5.09312 10.4058 4.51878 10.4037 3.94443C10.4024 3.55069 10.402 3.15696 10.4023 2.76321C10.4025 2.53597 10.4022 2.30874 10.4009 2.08151C10.3996 1.8734 10.3996 1.66533 10.4004 1.45723C10.4005 1.38201 10.4002 1.30678 10.3994 1.23156C10.392 0.481994 10.392 0.481994 10.6839 0.176855C10.9042 0.0250684 11.0832 0.00600881 11.3474 0.00549747C11.3994 0.00509866 11.3994 0.00509866 11.4524 0.0046918C11.5661 0.00402805 11.6798 0.00446469 11.7936 0.00497887C11.873 0.00487658 11.9525 0.00472925 12.032 0.004539C12.1981 0.00431582 12.3643 0.00463888 12.5305 0.0053493C12.7432 0.00621441 12.9558 0.00571525 13.1685 0.00480727C13.3325 0.00425832 13.4965 0.0044338 13.6604 0.00482665C13.7388 0.00492764 13.8173 0.00480445 13.8957 0.00445044C14.0053 0.0040639 14.115 0.00465414 14.2246 0.00549747C14.3181 0.00567853 14.3181 0.00567853 14.4135 0.00586326C14.6361 0.0319132 14.7502 0.0821429 14.897 0.254173C15.1609 0.65078 15.1186 1.09457 15.115 1.55131C15.1152 1.64566 15.1155 1.74 15.1159 1.83435C15.1166 2.09307 15.1158 2.35177 15.1147 2.61049C15.1138 2.88975 15.1144 3.16901 15.1148 3.44828C15.1154 3.99532 15.1145 4.54235 15.1133 5.08938C15.1119 5.72705 15.1118 6.36471 15.1118 7.00237C15.1117 8.17533 15.1104 9.34829 15.1084 10.5212C15.1065 11.5901 15.1056 12.659 15.1054 13.7279C15.1054 13.7789 15.1054 13.7789 15.1054 13.8308C15.1054 13.9335 15.1054 14.0362 15.1054 14.1389C15.1053 14.2753 15.1053 14.4118 15.1053 14.5482C15.1053 14.5819 15.1053 14.6155 15.1053 14.6502C15.1051 15.7372 15.1042 16.8242 15.1032 17.9111C15.1028 18.292 15.1026 18.6728 15.1024 19.0536C15.1021 19.6583 15.1016 20.263 15.1003 20.8677C15.0997 21.1438 15.0993 21.4199 15.0994 21.696C15.0994 21.9494 15.0989 22.2029 15.0981 22.4564C15.0979 22.5474 15.0978 22.6383 15.098 22.7293C15.0986 23.2088 15.0826 23.6829 15.0384 24.1605C15.0344 24.2038 15.0304 24.2472 15.0264 24.2919C14.923 25.313 14.5362 26.2453 13.8195 26.9816C13.7867 27.0176 13.7538 27.0536 13.72 27.0907C12.993 27.8653 11.7528 28.2656 10.7059 28.3009C10.5589 28.3024 10.412 28.3022 10.265 28.3015C10.1851 28.3014 10.1851 28.3014 10.1035 28.3013C9.9345 28.301 9.76551 28.3004 9.59651 28.2997C9.4814 28.2995 9.36629 28.2992 9.25118 28.299C8.97012 28.2985 8.68906 28.2976 8.408 28.2965C8.4441 28.05 8.51444 27.8555 8.62926 27.6359C8.6466 27.6017 8.66395 27.5675 8.68181 27.5323C8.78886 27.3225 8.90029 27.1155 9.01371 26.9091C9.03905 26.8624 9.06438 26.8157 9.09049 26.7676C9.1403 26.676 9.19084 26.5848 9.24216 26.494C9.39186 26.218 9.44859 26.0314 9.4195 25.7172C9.36526 25.711 9.31101 25.7047 9.25513 25.6983C9.07848 25.6769 8.90522 25.646 8.73041 25.6129C8.09027 25.507 7.51726 25.5858 6.89075 25.7172C6.78969 25.7346 6.68857 25.7517 6.5873 25.7678C6.56085 26.0438 6.64949 26.221 6.78328 26.4537C7.04007 26.918 7.2672 27.3943 7.49179 27.8748C7.55931 28.0163 7.62949 28.1565 7.69995 28.2965C7.36533 28.2991 7.03072 28.3009 6.6961 28.3021C6.58251 28.3026 6.46891 28.3033 6.35531 28.3042C6.19109 28.3054 6.02688 28.306 5.86265 28.3064C5.81268 28.3069 5.76272 28.3075 5.71123 28.308C4.51675 28.3082 3.28708 27.9337 2.38957 27.1333C2.34961 27.1005 2.30964 27.0677 2.26847 27.034C1.43433 26.3354 1.06369 25.1548 0.958647 24.1019C0.919819 23.598 0.915513 23.0968 0.915795 22.5915C0.915665 22.4969 0.915512 22.4022 0.91534 22.3075C0.914935 22.049 0.914842 21.7906 0.914804 21.5321C0.91471 21.2527 0.914328 20.9734 0.913988 20.694C0.913304 20.0842 0.912997 19.4744 0.912774 18.8646C0.912634 18.4838 0.912419 18.1031 0.912192 17.7223C0.911576 16.6677 0.911053 15.613 0.910883 14.5584C0.910872 14.4903 0.910861 14.4223 0.91085 14.3542C0.910838 14.286 0.910827 14.2177 0.910816 14.1495C0.910794 14.0127 0.910771 13.8758 0.910748 13.739C0.910743 13.705 0.910737 13.6711 0.910732 13.6361C0.910548 12.5342 0.909741 11.4323 0.908564 10.3304C0.907321 9.16444 0.906627 7.99843 0.906566 6.83242C0.906519 6.19715 0.906228 5.56188 0.905311 4.92661C0.904533 4.3862 0.904272 3.84579 0.90469 3.30538C0.904888 3.0296 0.904839 2.75382 0.904131 2.47804C0.90349 2.22575 0.903545 1.97346 0.904161 1.72116C0.904261 1.62976 0.904102 1.53836 0.903663 1.44696C0.903105 1.32296 0.903479 1.19898 0.904088 1.07498C0.903703 1.0393 0.903319 1.00363 0.902924 0.966869C0.906177 0.661093 0.997168 0.46654 1.1979 0.240074C1.4282 0.0378615 1.57953 0.0122815 1.88686 0.0104364Z" fill="white"/>
<path d="M0.227699 31.4702C0.275721 31.4702 0.323742 31.4702 0.37322 31.4702C0.456188 31.4698 0.456188 31.4698 0.540832 31.4695C0.632729 31.4699 0.632729 31.4699 0.726482 31.4703C0.791176 31.4701 0.855869 31.47 0.922522 31.4699C1.10268 31.4696 1.28284 31.4699 1.463 31.4703C1.65707 31.4706 1.85113 31.4704 2.04519 31.4702C2.42558 31.4699 2.80596 31.4702 3.18635 31.4707C3.62888 31.4712 4.07141 31.4712 4.51394 31.4712C5.30324 31.4712 6.09254 31.4716 6.88184 31.4724C7.6486 31.4731 8.41535 31.4734 9.18211 31.4734C9.22934 31.4734 9.27657 31.4734 9.32523 31.4734C9.37237 31.4734 9.41952 31.4734 9.46809 31.4734C10.3398 31.4734 11.2115 31.4737 12.0833 31.4741C12.3921 31.4743 12.7009 31.4743 13.0098 31.4743C13.3858 31.4744 13.7619 31.4746 14.138 31.4751C14.33 31.4753 14.5221 31.4754 14.7141 31.4754C14.9219 31.4753 15.1296 31.4756 15.3373 31.476C15.4294 31.4759 15.4294 31.4759 15.5233 31.4758C15.6061 31.476 15.6061 31.476 15.6905 31.4763C15.7625 31.4763 15.7625 31.4763 15.836 31.4764C15.9437 31.4828 15.9437 31.4828 15.9942 31.5333C15.999 31.6327 16.0002 31.7321 16 31.8316C16 31.8954 16 31.9592 16 32.0249C15.9997 32.095 15.9994 32.1651 15.9992 32.2353C15.9991 32.3066 15.999 32.378 15.999 32.4494C15.9988 32.6375 15.9983 32.8257 15.9977 33.0138C15.9972 33.2057 15.997 33.3976 15.9967 33.5894C15.9962 33.9662 15.9953 34.3429 15.9942 34.7196C13.9656 34.7207 11.9369 34.7216 9.90823 34.7222C9.66899 34.7222 9.42975 34.7223 9.19051 34.7224C9.14288 34.7224 9.09525 34.7224 9.04617 34.7224C8.27389 34.7226 7.50161 34.723 6.72933 34.7235C5.93751 34.7239 5.14569 34.7242 4.35387 34.7243C3.86487 34.7244 3.37587 34.7246 2.88686 34.725C2.55201 34.7253 2.21715 34.7254 1.8823 34.7253C1.68881 34.7253 1.49532 34.7253 1.30182 34.7256C1.09255 34.7259 0.883279 34.7258 0.674006 34.7257C0.581246 34.7259 0.581246 34.7259 0.486612 34.7261C0.431017 34.726 0.375422 34.7259 0.318142 34.7258C0.269767 34.7258 0.221391 34.7258 0.171549 34.7259C0.063117 34.7196 0.063117 34.7196 0.012542 34.669C0.00726189 34.5733 0.0055349 34.4775 0.0051953 34.3817C0.00487264 34.3202 0.00454998 34.2588 0.00421754 34.1955C0.00414023 34.1279 0.00408389 34.0603 0.00404699 33.9928C0.00388459 33.9239 0.00371446 33.855 0.00353689 33.7862C0.00323357 33.6417 0.00314041 33.4972 0.00317032 33.3527C0.00317546 33.1672 0.00248504 32.9818 0.00161402 32.7963C0.00105247 32.6541 0.000949083 32.5118 0.00097586 32.3696C0.000916046 32.3012 0.000691603 32.2328 0.000301576 32.1644C-0.000192307 32.0689 1.49889e-05 31.9733 0.000256334 31.8778C0.000184264 31.8234 0.000112194 31.7689 3.79394e-05 31.7129C0.0164359 31.5438 0.0560447 31.4892 0.227699 31.4702Z" fill="#D18807"/>
</svg>
