<svg width="16" height="35" viewBox="0 0 16 35" fill="none" xmlns="http://www.w3.org/2000/svg">
<g clip-path="url(#clip0_667_5593)">
<path d="M1.88677 0.0104364C1.92232 0.0100967 1.95787 0.00975698 1.9945 0.00940697C2.11181 0.00844765 2.2291 0.00824862 2.34642 0.00813981C2.42817 0.00781467 2.50993 0.00747438 2.59169 0.00711961C2.76302 0.00651423 2.93435 0.00632653 3.10568 0.00638648C3.32484 0.00639675 3.54397 0.0050161 3.76312 0.00327387C3.93199 0.00214721 4.10085 0.00194411 4.26972 0.00199755C4.3505 0.00187846 4.43127 0.00143253 4.51204 0.000648986C4.62523 -0.000346177 4.73834 -4.97931e-05 4.85153 0.000558503C4.94799 0.000342292 4.94799 0.000342292 5.04639 0.000121713C5.31875 0.0389779 5.46583 0.151629 5.63351 0.365953C5.73834 0.550029 5.75281 0.650821 5.75303 0.860687C5.75359 0.926527 5.75415 0.992366 5.75472 1.0602C5.75432 1.13291 5.7539 1.20563 5.75346 1.27834C5.75373 1.35585 5.75409 1.43336 5.75453 1.51088C5.75547 1.72374 5.75515 1.93658 5.75462 2.14944C5.75427 2.37905 5.75507 2.60865 5.75573 2.83826C5.75683 3.28797 5.75682 3.73768 5.75641 4.18739C5.75609 4.55278 5.75615 4.91817 5.75647 5.28356C5.75652 5.33554 5.75656 5.38752 5.75661 5.44107C5.7567 5.54665 5.7568 5.65223 5.75689 5.75781C5.75773 6.74807 5.75729 7.73832 5.75644 8.72858C5.7557 9.63515 5.75644 10.5417 5.75789 11.4483C5.75938 12.3787 5.75994 13.3091 5.75945 14.2396C5.7594 14.3447 5.75935 14.4499 5.7593 14.5551C5.75927 14.6327 5.75927 14.6327 5.75923 14.7119C5.75912 15.077 5.75962 15.4421 5.76035 15.8072C5.76124 16.2519 5.76124 16.6966 5.76008 17.1413C5.75952 17.3683 5.75936 17.5953 5.7603 17.8223C5.76115 18.03 5.76083 18.2376 5.75958 18.4452C5.75933 18.5205 5.75951 18.5958 5.76016 18.6711C5.76097 18.7731 5.76009 18.8751 5.75911 18.9771C5.7591 19.0339 5.75909 19.0906 5.75907 19.1491C5.72743 19.2942 5.72743 19.2942 5.60987 19.4106C5.44642 19.5144 5.28285 19.5782 5.09841 19.6324C5.04384 19.6487 5.04384 19.6487 4.98818 19.6653C4.50307 19.7962 4.00171 19.7964 3.50213 19.8C3.5954 20.0615 3.69867 20.2995 3.83403 20.5428C4.00481 20.8547 4.16023 21.1723 4.31133 21.4942C4.46929 21.8303 4.6329 22.16 4.81122 22.4857C4.99636 22.8278 5.16059 23.18 5.32568 23.5321C5.55017 24.052 5.55017 24.052 5.87916 24.5034C6.10601 24.5311 6.27697 24.4738 6.48922 24.3989C7.05106 24.2204 7.61474 24.1046 8.20561 24.1494C8.24001 24.1519 8.27442 24.1544 8.30987 24.157C8.79082 24.1941 9.24362 24.2697 9.70606 24.4072C9.87986 24.4543 10.05 24.4814 10.2286 24.5034C10.7696 23.4651 10.7696 23.4651 11.2962 22.4196C11.375 22.2605 11.4546 22.1018 11.5341 21.9431C11.5673 21.8766 11.6006 21.81 11.6338 21.7435C11.8142 21.3828 11.9946 21.022 12.1749 20.6613C12.1964 20.6182 12.2178 20.5751 12.2398 20.5307C12.2803 20.4503 12.3215 20.3704 12.3637 20.2909C12.4588 20.1101 12.5045 20.0083 12.5045 19.8C12.4765 19.7992 12.4485 19.7985 12.4196 19.7977C11.3881 19.7673 11.3881 19.7673 10.9872 19.5977C10.9452 19.5801 10.9031 19.5626 10.8598 19.5445C10.7148 19.4817 10.5722 19.4154 10.4309 19.3448C10.4251 16.9613 10.4207 14.5779 10.418 12.1944C10.4177 11.9131 10.4173 11.6318 10.417 11.3504C10.4169 11.2664 10.4169 11.2664 10.4168 11.1807C10.4157 10.2736 10.4137 9.3665 10.4114 8.45939C10.409 7.52875 10.4076 6.59812 10.4071 5.66747C10.4068 5.09312 10.4057 4.51878 10.4036 3.94443C10.4023 3.55069 10.4019 3.15696 10.4022 2.76321C10.4024 2.53597 10.4021 2.30874 10.4008 2.08151C10.3995 1.8734 10.3995 1.66533 10.4003 1.45723C10.4004 1.38201 10.4001 1.30678 10.3993 1.23156C10.3919 0.481994 10.3919 0.481994 10.6838 0.176855C10.9041 0.0250684 11.0831 0.00600881 11.3473 0.00549747C11.3993 0.00509866 11.3993 0.00509866 11.4523 0.0046918C11.566 0.00402805 11.6797 0.00446469 11.7935 0.00497887C11.8729 0.00487658 11.9524 0.00472925 12.0319 0.004539C12.198 0.00431582 12.3642 0.00463888 12.5304 0.0053493C12.7431 0.00621441 12.9557 0.00571525 13.1684 0.00480727C13.3324 0.00425832 13.4964 0.0044338 13.6603 0.00482665C13.7387 0.00492764 13.8172 0.00480445 13.8956 0.00445044C14.0052 0.0040639 14.1149 0.00465414 14.2245 0.00549747C14.318 0.00567853 14.318 0.00567853 14.4134 0.00586326C14.636 0.0319132 14.7501 0.0821429 14.8969 0.254173C15.1608 0.65078 15.1185 1.09457 15.1149 1.55131C15.1151 1.64566 15.1154 1.74 15.1158 1.83435C15.1165 2.09307 15.1157 2.35177 15.1146 2.61049C15.1137 2.88975 15.1143 3.16901 15.1147 3.44828C15.1153 3.99532 15.1144 4.54235 15.1132 5.08938C15.1118 5.72705 15.1117 6.36471 15.1117 7.00237C15.1116 8.17533 15.1103 9.34829 15.1083 10.5212C15.1064 11.5901 15.1055 12.659 15.1053 13.7279C15.1053 13.7789 15.1053 13.7789 15.1053 13.8308C15.1053 13.9335 15.1053 14.0362 15.1053 14.1389C15.1052 14.2753 15.1052 14.4118 15.1052 14.5482C15.1052 14.5819 15.1052 14.6155 15.1052 14.6502C15.105 15.7372 15.1041 16.8242 15.1031 17.9111C15.1027 18.292 15.1025 18.6728 15.1023 19.0536C15.102 19.6583 15.1015 20.263 15.1002 20.8677C15.0996 21.1438 15.0992 21.4199 15.0993 21.696C15.0993 21.9494 15.0988 22.2029 15.098 22.4564C15.0978 22.5474 15.0977 22.6383 15.0979 22.7293C15.0985 23.2088 15.0825 23.6829 15.0383 24.1605C15.0343 24.2038 15.0303 24.2472 15.0263 24.2919C14.9229 25.313 14.5361 26.2453 13.8194 26.9816C13.7866 27.0176 13.7537 27.0536 13.7199 27.0907C12.9929 27.8653 11.7527 28.2656 10.7058 28.3009C10.5588 28.3024 10.4119 28.3022 10.2649 28.3015C10.185 28.3014 10.185 28.3014 10.1034 28.3013C9.93441 28.301 9.76542 28.3004 9.59642 28.2997C9.48131 28.2995 9.3662 28.2992 9.25109 28.299C8.97003 28.2985 8.68897 28.2976 8.40791 28.2965C8.44401 28.05 8.51435 27.8555 8.62917 27.6359C8.64651 27.6017 8.66386 27.5675 8.68172 27.5323C8.78877 27.3225 8.9002 27.1155 9.01362 26.9091C9.03896 26.8624 9.06429 26.8157 9.0904 26.7676C9.14021 26.676 9.19075 26.5848 9.24207 26.494C9.39177 26.218 9.4485 26.0314 9.41941 25.7172C9.36517 25.711 9.31092 25.7047 9.25504 25.6983C9.07839 25.6769 8.90513 25.646 8.73032 25.6129C8.09018 25.507 7.51717 25.5858 6.89066 25.7172C6.7896 25.7346 6.68848 25.7517 6.58721 25.7678C6.56076 26.0438 6.6494 26.221 6.78319 26.4537C7.03998 26.918 7.26711 27.3943 7.4917 27.8748C7.55922 28.0163 7.6294 28.1565 7.69986 28.2965C7.36524 28.2991 7.03063 28.3009 6.69601 28.3021C6.58242 28.3026 6.46882 28.3033 6.35522 28.3042C6.191 28.3054 6.02679 28.306 5.86256 28.3064C5.81259 28.3069 5.76263 28.3075 5.71114 28.308C4.51666 28.3082 3.28699 27.9337 2.38948 27.1333C2.34952 27.1005 2.30955 27.0677 2.26838 27.034C1.43424 26.3354 1.0636 25.1548 0.958555 24.1019C0.919727 23.598 0.915421 23.0968 0.915703 22.5915C0.915573 22.4969 0.91542 22.4022 0.915248 22.3075C0.914843 22.049 0.91475 21.7906 0.914712 21.5321C0.914618 21.2527 0.914236 20.9734 0.913896 20.694C0.913212 20.0842 0.912905 19.4744 0.912682 18.8646C0.912542 18.4838 0.912327 18.1031 0.9121 17.7223C0.911484 16.6677 0.910961 15.613 0.910791 14.5584C0.91078 14.4903 0.910769 14.4223 0.910758 14.3542C0.910746 14.286 0.910735 14.2177 0.910724 14.1495C0.910702 14.0127 0.910679 13.8758 0.910656 13.739C0.910651 13.705 0.910645 13.6711 0.91064 13.6361C0.910456 12.5342 0.909649 11.4323 0.908472 10.3304C0.907229 9.16444 0.906535 7.99843 0.906474 6.83242C0.906427 6.19715 0.906136 5.56188 0.905219 4.92661C0.904441 4.3862 0.90418 3.84579 0.904598 3.30538C0.904796 3.0296 0.904747 2.75382 0.904039 2.47804C0.903398 2.22575 0.903453 1.97346 0.904069 1.72116C0.904169 1.62976 0.90401 1.53836 0.903571 1.44696C0.903013 1.32296 0.903387 1.19898 0.903996 1.07498C0.903611 1.0393 0.903227 1.00363 0.902832 0.966869C0.906085 0.661093 0.997076 0.46654 1.19781 0.240074C1.42811 0.0378615 1.57944 0.0122815 1.88677 0.0104364Z" fill="#152517"/>
<path d="M0.227699 31.4694C0.275721 31.4694 0.323742 31.4694 0.37322 31.4694C0.456188 31.469 0.456188 31.4691 0.540832 31.4688C0.632729 31.4691 0.632729 31.4692 0.726482 31.4696C0.791176 31.4694 0.855869 31.4693 0.922522 31.4692C1.10268 31.4689 1.28284 31.4692 1.463 31.4696C1.65707 31.4699 1.85113 31.4696 2.04519 31.4694C2.42558 31.4691 2.80596 31.4694 3.18635 31.4699C3.62888 31.4704 4.07141 31.4705 4.51394 31.4705C5.30324 31.4705 6.09254 31.4709 6.88184 31.4717C7.6486 31.4724 8.41535 31.4727 9.18211 31.4727C9.22934 31.4727 9.27657 31.4727 9.32523 31.4727C9.37237 31.4727 9.41952 31.4727 9.46809 31.4727C10.3398 31.4727 11.2115 31.473 12.0833 31.4734C12.3921 31.4736 12.7009 31.4736 13.0098 31.4736C13.3858 31.4737 13.7619 31.4738 14.138 31.4743C14.33 31.4745 14.5221 31.4747 14.7141 31.4747C14.9219 31.4746 15.1296 31.4749 15.3373 31.4753C15.4294 31.4752 15.4294 31.4751 15.5233 31.475C15.6061 31.4752 15.6061 31.4752 15.6905 31.4755C15.7625 31.4755 15.7625 31.4756 15.836 31.4757C15.9437 31.4821 15.9437 31.4821 15.9942 31.5326C15.999 31.632 16.0002 31.7314 16 31.8309C16 31.8947 16 31.9584 16 32.0241C15.9997 32.0942 15.9994 32.1643 15.9992 32.2345C15.9991 32.3058 15.999 32.3773 15.999 32.4487C15.9988 32.6368 15.9983 32.825 15.9977 33.0131C15.9972 33.205 15.997 33.3969 15.9967 33.5887C15.9962 33.9655 15.9953 34.3422 15.9942 34.7189C13.9656 34.72 11.9369 34.7208 9.90823 34.7214C9.66899 34.7214 9.42975 34.7216 9.19051 34.7217C9.14288 34.7217 9.09525 34.7217 9.04617 34.7217C8.27389 34.7219 7.50161 34.7222 6.72933 34.7227C5.93751 34.7231 5.14569 34.7235 4.35387 34.7236C3.86487 34.7237 3.37587 34.7238 2.88686 34.7242C2.55201 34.7245 2.21715 34.7247 1.8823 34.7246C1.68881 34.7246 1.49532 34.7246 1.30182 34.7249C1.09255 34.7252 0.883279 34.7251 0.674006 34.725C0.581246 34.7252 0.581246 34.7252 0.486612 34.7254C0.431017 34.7253 0.375422 34.7251 0.318142 34.725C0.269767 34.725 0.221391 34.725 0.171549 34.7251C0.063117 34.7188 0.063117 34.7188 0.012542 34.6682C0.00726189 34.5725 0.0055349 34.4767 0.0051953 34.3809C0.00487264 34.3194 0.00454998 34.258 0.00421754 34.1947C0.00414023 34.1271 0.00408389 34.0596 0.00404699 33.9921C0.00388459 33.9232 0.00371446 33.8543 0.00353689 33.7855C0.00323357 33.641 0.00314041 33.4964 0.00317032 33.3519C0.00317546 33.1664 0.00248504 32.981 0.00161402 32.7955C0.00105247 32.6533 0.000949083 32.511 0.00097586 32.3688C0.000916046 32.3004 0.000691603 32.232 0.000301576 32.1636C-0.000192307 32.0681 1.49891e-05 31.9726 0.000256334 31.8771C0.000184264 31.8227 0.000112194 31.7682 3.79396e-05 31.7122C0.0164359 31.5431 0.0560447 31.4884 0.227699 31.4694Z" fill="#DA9305"/>
</g>
<defs>
<clipPath id="clip0_667_5593">
<rect width="16" height="35" fill="white"/>
</clipPath>
</defs>
</svg>
