<svg width="10" height="22" viewBox="0 0 10 22" fill="none" xmlns="http://www.w3.org/2000/svg">
<g clip-path="url(#clip0_1470_239)">
<path fill-rule="evenodd" clip-rule="evenodd" d="M0.73371 0.121528C0.665162 0.205866 0.646936 2.25328 0.663307 8.00759L0.685484 15.7798L0.911858 16.274C1.43048 17.4065 2.30412 17.8771 3.89113 17.8791C4.32363 17.8797 4.67742 17.8621 4.67742 17.8401C4.67742 17.8181 4.52323 17.4818 4.33468 17.0927C4.01419 16.4311 4.00121 16.3784 4.13452 16.2783C4.45339 16.0391 5.66831 16.0588 5.91145 16.3071C5.97903 16.3762 5.91492 16.5804 5.6625 17.1001C5.47557 17.4851 5.32258 17.822 5.32258 17.8488C5.32258 17.8755 5.74895 17.8814 6.27016 17.862C7.0104 17.8342 7.32258 17.7847 7.69686 17.6356C8.32548 17.385 8.86542 16.8359 9.1215 16.1868L9.3145 15.6974L9.33667 7.96642C9.35308 2.24257 9.33483 0.205866 9.26625 0.121528C9.14258 -0.030758 6.77662 -0.0441835 6.62903 0.106537C6.55557 0.181569 6.53226 1.64809 6.53226 6.20331V12.2013L6.75403 12.2894C6.87597 12.3379 7.18443 12.3977 7.43952 12.4223C7.6946 12.4469 7.90323 12.4809 7.90323 12.4977C7.90323 12.5311 6.4475 15.5169 6.41138 15.5577C6.39919 15.5715 6.08919 15.5207 5.72242 15.4447C5.15492 15.3273 4.97638 15.3218 4.52379 15.4076C3.53048 15.5957 3.68081 15.7177 2.85073 14.0503C2.44484 13.2349 2.12943 12.54 2.14984 12.506C2.17024 12.472 2.30524 12.4443 2.44984 12.4443C2.59436 12.4443 2.90073 12.3872 3.13048 12.3174L3.54838 12.1908V6.19804C3.54838 1.64694 3.52508 0.181569 3.45162 0.106537C3.30379 -0.0444305 0.857583 -0.0309227 0.73371 0.121528ZM0 20.9686V21.9981H5H10V20.9686V19.9391H5H0V20.9686Z" fill="white"/>
<path fill-rule="evenodd" clip-rule="evenodd" d="M0.733704 0.121528C0.665156 0.205866 0.64693 2.25328 0.663301 8.00759L0.685478 15.7798L0.911852 16.274C1.43048 17.4065 2.30411 17.8771 3.89113 17.8791C4.32363 17.8797 4.67741 17.8621 4.67741 17.8401C4.67741 17.8181 4.52322 17.4817 4.33467 17.0927C4.01419 16.4311 4.0012 16.3784 4.13451 16.2783C4.45339 16.0391 5.6683 16.0588 5.91144 16.3071C5.97903 16.3762 5.91491 16.5804 5.66249 17.1001C5.47556 17.4851 5.32258 17.822 5.32258 17.8488C5.32258 17.8755 5.74894 17.8814 6.27015 17.862C7.01039 17.8342 7.32258 17.7847 7.69685 17.6356C8.32548 17.385 8.86541 16.8359 9.12149 16.1868L9.31449 15.6974L9.33666 7.96642C9.35308 2.24257 9.33483 0.205866 9.26624 0.121528C9.14258 -0.030758 6.77661 -0.0441835 6.62903 0.106537C6.55556 0.181568 6.53225 1.64808 6.53225 6.20331V12.2013L6.75403 12.2894C6.87596 12.3379 7.18443 12.3977 7.43951 12.4223C7.69459 12.4469 7.90322 12.4809 7.90322 12.4977C7.90322 12.5311 6.44749 15.5169 6.41137 15.5577C6.39918 15.5715 6.08918 15.5207 5.72241 15.4447C5.15491 15.3273 4.97637 15.3218 4.52378 15.4076C3.53048 15.5957 3.6808 15.7177 2.85072 14.0502C2.44484 13.2349 2.12943 12.54 2.14984 12.506C2.17024 12.472 2.30524 12.4443 2.44984 12.4443C2.59435 12.4443 2.90072 12.3872 3.13048 12.3174L3.54838 12.1908V6.19804C3.54838 1.64694 3.52508 0.181568 3.45161 0.106537C3.30379 -0.0444305 0.857577 -0.0309227 0.733704 0.121528ZM2.47984 20.0008C3.86588 20.0134 6.13403 20.0134 7.52015 20.0008C8.90624 19.9882 7.77217 19.9778 4.99999 19.9778C2.22782 19.9778 1.09379 19.9882 2.47984 20.0008Z" fill="white"/>
<path fill-rule="evenodd" clip-rule="evenodd" d="M0.733704 0.121528C0.665156 0.205866 0.64693 2.25328 0.663301 8.00759L0.685478 15.7798L0.911852 16.274C1.43048 17.4065 2.30411 17.8771 3.89113 17.8791C4.32363 17.8797 4.67741 17.8621 4.67741 17.8401C4.67741 17.8181 4.52322 17.4818 4.33467 17.0927C4.01419 16.4311 4.0012 16.3784 4.13451 16.2783C4.45339 16.0391 5.6683 16.0588 5.91144 16.3071C5.97903 16.3762 5.91491 16.5804 5.66249 17.1001C5.47556 17.4851 5.32258 17.822 5.32258 17.8488C5.32258 17.8755 5.74894 17.8814 6.27015 17.862C7.01039 17.8342 7.32258 17.7847 7.69685 17.6356C8.32548 17.385 8.86541 16.8359 9.12149 16.1868L9.31449 15.6974L9.33666 7.96642C9.35308 2.24257 9.33483 0.205866 9.26624 0.121528C9.14258 -0.030758 6.77661 -0.0441835 6.62903 0.106537C6.55556 0.181569 6.53225 1.64809 6.53225 6.20331V12.2013L6.75403 12.2894C6.87596 12.3379 7.18443 12.3977 7.43951 12.4223C7.69459 12.4469 7.90322 12.4809 7.90322 12.4977C7.90322 12.5311 6.44749 15.5169 6.41137 15.5577C6.39918 15.5715 6.08918 15.5207 5.72241 15.4447C5.15491 15.3273 4.97637 15.3218 4.52378 15.4076C3.53048 15.5957 3.6808 15.7177 2.85072 14.0503C2.44484 13.2349 2.12943 12.54 2.14984 12.506C2.17024 12.472 2.30524 12.4443 2.44984 12.4443C2.59435 12.4443 2.90072 12.3872 3.13048 12.3174L3.54838 12.1908V6.19804C3.54838 1.64694 3.52508 0.181569 3.45161 0.106537C3.30379 -0.0444305 0.857577 -0.0309227 0.733704 0.121528Z" fill="white"/>
</g>
<defs>
<clipPath id="clip0_1470_239">
<rect width="10" height="22" fill="white"/>
</clipPath>
</defs>
</svg>
