<svg width="250" height="250" viewBox="0 0 250 250" fill="none" xmlns="http://www.w3.org/2000/svg">
<path fill-rule="evenodd" clip-rule="evenodd" d="M8.57208 47.853L2.25366 47.8951V125.244V202.592H98.9818H195.71L195.81 202.089C195.866 201.812 195.911 201.205 195.911 200.739V199.891L193.757 197.74C192.572 196.557 191.488 195.498 191.348 195.387C191.144 195.225 172.952 195.185 100.215 195.185L9.33673 195.185V125.804V56.4233H9.81966H10.3026V125.23C10.3026 187.567 10.3264 194.061 10.5555 194.29C10.8895 194.624 11.141 194.609 11.6278 194.226C11.9612 193.964 12.1244 193.936 12.5742 194.065C13.1749 194.238 189.225 194.293 190.478 194.121C191.149 194.029 191.214 193.98 191.292 193.496C191.339 193.206 191.242 191.893 191.076 190.577C190.583 186.666 190.291 181.268 190.109 172.73C189.836 159.945 189.602 149.799 189.552 148.664C189.527 148.089 189.451 144.72 189.384 141.179C189.27 135.167 189.287 134.464 189.636 130.582C189.958 126.99 189.982 126.286 189.806 125.405C189.665 124.696 189.64 123.831 189.725 122.56C189.791 121.556 189.857 117.004 189.871 112.444C189.903 101.906 189.911 101.862 192.108 99.3422C193.304 97.9705 193.335 97.9475 193.335 98.4502C193.335 98.8271 193.164 99.1516 192.702 99.6538C191.955 100.463 191.934 100.556 191.669 104.234C191.517 106.329 191.506 107.853 191.626 110.182C191.794 113.46 191.649 118.916 191.141 128.461C190.865 133.647 190.897 144.599 191.221 156.15C191.32 159.691 191.476 166.899 191.568 172.167C191.787 184.763 192.001 188.836 192.624 192.262C193.211 195.491 194.552 197.076 198.282 198.948C203.897 201.767 209.042 202.743 215.872 202.283C218.697 202.093 221.662 201.742 222.207 201.533C222.367 201.471 222.566 201.239 222.651 201.016C222.775 200.69 222.727 200.493 222.403 200.003C222.049 199.469 221.837 199.345 220.655 198.985C219.485 198.628 219.148 198.434 218.055 197.484C216.027 195.724 215.961 195.69 214.585 195.678C213.921 195.672 212.762 195.599 212.009 195.515C211.256 195.432 209.663 195.288 208.467 195.195C206.495 195.042 200.698 194.079 198.216 193.493C197.669 193.363 196.601 193.033 195.842 192.758C194.531 192.284 194.462 192.235 194.462 191.78C194.462 191.399 194.52 191.319 194.744 191.387C195.647 191.662 198.213 192.177 200.085 192.461C201.273 192.641 202.305 192.825 202.376 192.869C202.448 192.913 203.172 192.982 203.985 193.022C205.035 193.074 205.547 193.169 205.749 193.352C206.007 193.586 206.324 193.639 207.019 193.564C207.151 193.55 208.364 193.728 209.714 193.96C212.55 194.448 213.25 194.478 213.744 194.131C214.393 193.677 214.202 193.201 212.635 191.358C211.828 190.409 210.858 189.267 210.479 188.819C209.631 187.817 209.245 187.689 206.375 187.461C205.179 187.366 203.598 187.146 202.861 186.972C202.123 186.798 201.342 186.655 201.125 186.655C200.682 186.655 199.521 186.211 199.643 186.089C199.687 186.045 200.586 186.16 201.64 186.345C202.695 186.529 204.753 186.74 206.214 186.814C208.862 186.947 208.871 186.946 209.256 186.572C209.629 186.21 209.635 186.169 209.423 185.42C209.301 184.993 209.215 184.534 209.231 184.401C209.281 183.973 208.311 183.392 207.042 183.09C206.365 182.929 204.652 182.579 203.236 182.312C199.864 181.678 197.257 180.969 196.822 180.568C196.432 180.207 195.213 179.437 194.181 178.899C193.777 178.688 193.496 178.428 193.496 178.263C193.496 178.015 193.571 178.027 194.181 178.365C194.557 178.575 195.444 178.937 196.153 179.17C196.861 179.404 197.875 179.764 198.406 179.971C199.389 180.354 200.021 180.469 204.079 181.006C206.368 181.309 206.814 181.292 208.025 180.853C208.619 180.638 208.833 180.377 208.415 180.377C208.271 180.377 208.224 180.225 208.27 179.909C208.315 179.602 208.222 179.284 208.001 178.984C207.782 178.685 207.598 178.057 207.475 177.182C207.196 175.198 207.177 175.184 204.584 175.049C201.708 174.898 197.811 173.873 196.401 172.896C195.549 172.306 194.611 171.298 195.026 171.419C195.203 171.47 195.746 171.62 196.233 171.752C197.253 172.028 199.242 172.738 199.648 172.97C200.294 173.341 201.347 173.428 203.513 173.292C206.854 173.081 207.441 172.685 207.263 170.759C207.192 169.988 207.231 169.662 207.43 169.359C207.739 168.887 207.621 168.385 207.127 168.077C206.904 167.937 205.988 167.821 204.604 167.755C203.409 167.698 201.924 167.54 201.304 167.404C200.684 167.268 199.199 166.979 198.004 166.763C194.558 166.137 194.411 166.05 196.957 166.141C198.197 166.184 200.002 166.301 200.969 166.4C201.991 166.505 203.798 166.54 205.289 166.485C208.237 166.375 208.514 166.274 208.797 165.205C209.007 164.413 210.236 162.025 210.434 162.025C210.508 162.025 210.639 161.84 210.725 161.612C211.114 160.59 210.118 160.052 207.341 159.783C205.15 159.571 202.027 158.966 200.499 158.459C199.577 158.153 196.025 156.539 196.111 156.466C196.134 156.446 196.788 156.561 197.565 156.72C200.445 157.31 203.578 157.574 208.065 157.607C210.456 157.624 212.593 157.688 212.814 157.749C213.144 157.84 213.376 157.722 214.102 157.099C215.744 155.687 216.91 154.911 218.851 153.939C219.913 153.406 221.507 152.557 222.392 152.05C223.277 151.544 224.437 150.966 224.968 150.765C225.499 150.565 226.151 150.305 226.417 150.187C226.682 150.07 227.064 149.927 227.266 149.87C227.953 149.676 228.122 149.179 227.953 147.848C227.87 147.19 227.836 146.253 227.877 145.767C227.979 144.584 228.551 131.531 228.749 125.886C228.836 123.407 228.909 119.238 228.91 116.623C228.911 112.971 228.966 111.658 229.148 110.962C229.28 110.455 229.465 108.463 229.569 106.432C229.825 101.4 229.606 100.279 228.08 98.8172C227.345 98.1138 225.845 97.1052 225.092 96.8092C222.55 95.8087 220.568 95.536 214.665 95.3742C211.832 95.2966 209.007 95.1598 208.387 95.0704C206.5 94.7981 204.217 94.8757 202.072 95.2852C200.989 95.4919 199.925 95.7773 199.708 95.9195C199.491 96.0616 198.947 96.3174 198.498 96.488L197.682 96.7981V72.3448V47.8914H106.501C56.3509 47.8914 15.2228 47.8733 15.1049 47.851C14.9869 47.8288 12.0473 47.8298 8.57208 47.853ZM178.606 62.1453C174.677 63.5962 170.475 65.4149 170.36 65.7142C170.222 66.0751 170.416 66.1216 170.936 65.8525C171.206 65.7131 171.784 65.5991 172.221 65.5991C172.659 65.5991 173.728 65.4528 174.596 65.2741C176.159 64.9525 176.179 64.9523 176.488 65.261C176.797 65.5696 176.795 65.5822 176.315 66.4312C176.048 66.9032 172.573 72.3602 168.593 78.5579C160.377 91.3539 127.971 141.91 127.247 143.063C126.649 144.015 122.06 151.119 121.124 152.543C120.077 154.133 120.082 154.131 119.102 153.309C118.643 152.923 117.971 152.282 117.609 151.884C117.247 151.485 114.45 148.639 111.393 145.559L105.836 139.96L94.4101 151.421C81.1473 164.725 79.2587 166.579 79.0455 166.506C78.9592 166.476 73.6677 161.24 67.2868 154.869L55.6851 143.286L33.517 165.413L11.349 187.541L11.314 190.036L11.2793 192.531L16.5458 187.214C19.4427 184.289 29.4971 174.238 38.8894 164.878C52.112 151.7 56.0539 147.859 56.3551 147.859C56.6555 147.859 59.3142 150.428 68.013 159.125L79.282 170.39L81.2942 168.611C82.401 167.633 88.4206 161.724 94.6712 155.481C105.039 145.126 106.077 144.135 106.502 144.184C106.808 144.219 107.035 144.375 107.164 144.64C107.375 145.074 120.199 157.955 120.299 157.833C120.966 157.019 140.622 126.051 140.705 125.682C140.852 125.03 141.093 124.657 142.551 122.827C143.185 122.03 147.528 115.402 152.2 108.097C156.873 100.793 161.351 93.8026 162.151 92.563C168.328 82.9937 173.674 74.5698 173.973 73.9357C174.169 73.5185 174.572 72.9027 174.868 72.5674C175.298 72.0796 177.232 69.1421 178.475 67.0882C178.853 66.4629 179.652 66.7182 179.652 67.4642C179.652 67.9254 180.9 71.9542 181.272 72.693C181.43 73.0088 181.681 73.3671 181.828 73.4895C182.074 73.6934 182.087 73.6477 181.98 72.9365C181.817 71.848 181.798 63.5082 181.956 62.0978C182.028 61.456 182.028 60.9365 181.956 60.9434C181.884 60.9505 180.377 61.4912 178.606 62.1453ZM63.2646 77.6123C61.9808 77.7313 59.554 77.9758 57.8718 78.1556C53.1307 78.6627 51.1136 78.7823 44.2785 78.9623C40.7863 79.0542 37.914 79.1456 37.8955 79.1656C37.877 79.1855 37.9335 80.1798 38.0212 81.375C38.3292 85.5714 37.9391 89.7487 36.9238 93.1265C36.4396 94.7375 33.9747 101.01 33.3021 102.343C32.9454 103.049 32.8907 103.268 33.0705 103.268C33.8963 103.268 37.4166 103.845 39.7116 104.356L42.4179 104.958L46.9253 104.937C51.6566 104.913 57.1893 104.602 62.4594 104.063C67.1487 103.583 66.7556 103.7 66.9662 102.726C67.7709 99.002 68.358 92.4108 68.1941 88.941C68.1033 87.0181 67.3356 80.4771 66.9518 78.3567L66.7698 77.3506L66.1843 77.3733C65.8623 77.3856 64.5484 77.4933 63.2646 77.6123ZM60.1255 78.7255C55.3527 79.2881 52.2611 79.5289 46.7643 79.7665C44.905 79.8468 42.7318 79.9867 41.9349 80.0775C41.1381 80.1682 40.0695 80.2437 39.5605 80.2453C38.8979 80.2474 38.6349 80.3092 38.6349 80.4628C38.6349 80.5809 38.6762 80.7189 38.7269 80.7696C38.7776 80.8201 38.8577 82.0819 38.9047 83.5732C39.135 90.8716 37.9179 96.6461 35.3079 100.637C34.8358 101.359 34.4494 102.09 34.4494 102.262C34.4494 103.007 35.2252 103.241 38.9568 103.62C40.2842 103.754 43.7081 103.825 49.018 103.828C56.9702 103.832 57.0998 103.826 59.8036 103.4C62.96 102.902 65.1085 102.323 65.4315 101.882C65.5605 101.706 65.6944 100.967 65.749 100.129C65.8012 99.3322 65.9604 97.0141 66.1031 94.9777C66.4721 89.715 66.3491 80.2319 65.8966 79.0408C65.6283 78.3346 65.532 78.2334 65.1118 78.2152C64.8485 78.2037 62.6046 78.4333 60.1255 78.7255ZM4.54294 82.5421L4.58785 84.6751H6.27813H7.96841L8.01332 82.5421L8.05823 80.4091H6.27813H4.49803L4.54294 82.5421ZM45.528 87.1548C44.6701 87.9455 44.5151 88.4724 45.3287 87.8325C45.5666 87.6453 45.8939 87.4922 46.056 87.4922C46.6044 87.4922 47.8665 88.0056 48.9277 88.6601C51.2427 90.0882 51.3123 90.117 52.2191 90.0234C52.7888 89.9647 53.5355 89.6883 54.537 89.1656L56.0143 88.3947L56.8063 88.6479C57.5365 88.8815 57.6464 88.8799 58.2179 88.6274L58.8377 88.3536L57.6859 88.0033C56.1502 87.5365 55.8205 87.5564 54.102 88.2202C52.1033 88.9921 51.441 89.0664 50.4513 88.6298C50.0172 88.4384 49.3721 88.0073 49.018 87.672C47.31 86.0545 46.8031 85.9793 45.528 87.1548ZM4.50736 95.9436V97.9558H6.27813H8.0489V95.9436V93.9314H6.27813H4.50736V95.9436ZM50.7888 94.9269C50.5231 95.0061 49.433 95.1715 48.3662 95.2947C46.4576 95.5151 45.5569 95.7638 45.5569 96.0704C45.5569 96.2665 46.5138 96.1266 48.2469 95.6773C49.849 95.2622 50.4771 95.3815 51.8351 96.3592C54.0177 97.9304 54.7773 97.978 56.8235 96.6715C57.9031 95.9824 58.2395 95.9455 59.1295 96.4188C59.8591 96.8066 60.3763 96.927 60.5534 96.7499C60.6566 96.6466 59.1954 95.1318 58.776 94.9074C58.3754 94.693 57.5333 94.9594 55.399 95.9761C54.3105 96.4945 53.7794 96.6656 53.4869 96.5922C53.2641 96.5363 52.6745 96.1063 52.1767 95.6368C51.3456 94.8526 51.2323 94.7947 50.7888 94.9269ZM211.473 97.5399C211.38 97.7813 211.604 99.6297 211.788 100.146C211.982 100.688 212.37 101.014 212.823 101.014C213.591 101.014 213.839 99.7203 213.371 98.1461L213.123 97.3119H212.342C211.816 97.3119 211.532 97.3866 211.473 97.5399ZM200.815 98.3454C200.678 99.2522 200.849 100.275 201.273 101.095L201.606 101.739L201.745 101.014C201.986 99.7538 201.605 97.6339 201.137 97.6339C201.005 97.6339 200.88 97.9108 200.815 98.3454ZM221.988 98.7662C221.752 99.7514 221.855 100.949 222.207 101.3C222.436 101.53 222.475 101.511 222.633 101.096C222.729 100.845 222.786 100.055 222.76 99.3398C222.723 98.287 222.664 98.0304 222.45 97.9895C222.253 97.9518 222.137 98.1456 221.988 98.7662ZM209.836 103.199C208.331 103.317 205.252 103.486 202.994 103.575C198.733 103.743 195.647 104.036 195.865 104.25C196.12 104.501 199.286 105.036 201.601 105.22C205.122 105.499 217.615 105.024 221.635 104.458C224.512 104.053 224.561 104.02 222.872 103.62C219.977 102.934 215.201 102.78 209.836 103.199ZM222.454 106.269C222.273 106.32 222.162 106.608 222.092 107.206C221.975 108.199 222.059 108.486 222.678 109.215C223.07 109.678 223.191 109.729 223.673 109.639C224.288 109.523 224.276 109.676 223.85 107.293C223.671 106.293 223.641 106.245 223.188 106.221C222.928 106.207 222.597 106.229 222.454 106.269ZM198.339 107.964C198.346 108.613 198.436 109.47 198.54 109.868L198.728 110.593L200.123 110.673L201.518 110.754L201.612 110.159C201.664 109.832 201.627 109.025 201.529 108.365L201.35 107.165L200.281 107.061C199.692 107.004 199.012 106.918 198.768 106.871L198.326 106.784L198.339 107.964ZM211.901 107.225C211.757 107.601 211.953 109.784 212.166 110.184C212.324 110.479 212.47 110.521 213.18 110.48L214.008 110.432L214.212 109.725C214.374 109.163 214.376 108.806 214.222 107.994L214.028 106.971H213.014C212.237 106.971 211.976 107.03 211.901 107.225ZM4.54214 110.311L4.58785 112.041L5.55373 111.965C6.08496 111.922 6.86377 111.886 7.28425 111.884L8.0489 111.88V110.23V108.58H6.27266H4.49642L4.54214 110.311ZM221.024 111.8C212.199 112.63 205.132 112.858 198.085 112.54C195.141 112.408 194.884 112.417 195.079 112.653C195.197 112.795 195.595 112.949 195.965 112.996C196.334 113.042 197.505 113.191 198.567 113.326C205.462 114.204 207.845 114.404 212.411 114.488C216.68 114.567 217.252 114.545 219.09 114.23C221.835 113.761 225.538 112.474 226.98 111.487C227.336 111.244 226.455 111.29 221.024 111.8ZM222.937 115.312L222.194 115.545L221.991 116.62C221.88 117.21 221.819 118.224 221.855 118.871C221.915 119.923 221.97 120.09 222.377 120.441C222.693 120.712 222.985 120.817 223.331 120.783C223.767 120.74 223.845 120.656 223.969 120.09C224.116 119.416 223.98 115.837 223.79 115.357C223.689 115.102 223.619 115.098 222.937 115.312ZM198.561 116.742C198.499 117.56 198.496 118.503 198.554 118.838C198.823 120.4 198.782 120.332 199.462 120.332C200.242 120.332 200.34 120.057 200.19 118.275C199.935 115.237 199.978 115.379 199.287 115.314L198.672 115.255L198.561 116.742ZM210.175 116.723C209.95 117.31 210.09 118.377 210.493 119.141C211.005 120.112 211.005 120.112 211.647 120.247L212.17 120.357V119.06C212.17 118.244 212.074 117.523 211.911 117.116C211.665 116.501 211.617 116.468 210.962 116.468C210.482 116.468 210.243 116.546 210.175 116.723ZM199.985 122.256C198.374 122.309 197.016 122.393 196.967 122.442C196.844 122.565 200.321 123.35 202.203 123.624C207.763 124.435 213.789 124.349 219.704 123.373C220.793 123.193 221.952 122.947 222.28 122.827C222.843 122.62 222.776 122.608 221.024 122.595C220.006 122.588 217.289 122.475 214.987 122.345C210.781 122.107 205.424 122.075 199.985 122.256ZM4.50736 125.322V126.932H6.27813H8.0489V125.322V123.712H6.27813H4.50736V125.322ZM222.956 124.611L221.909 124.982L221.94 126.67C221.965 128 222.046 128.533 222.322 129.175C222.684 130.015 222.822 130.095 223.48 129.845C223.777 129.732 223.905 129.505 224.05 128.838C224.448 127.005 224.491 124.147 224.12 124.218C224.055 124.23 223.531 124.407 222.956 124.611ZM198.402 126.535C198.281 128.314 198.404 129.722 198.702 129.968C198.805 130.053 199.215 130.145 199.614 130.173L200.338 130.223V129.097C200.338 128.362 200.202 127.525 199.946 126.687C199.488 125.189 199.41 125.06 198.898 124.963C198.52 124.89 198.513 124.912 198.402 126.535ZM211.464 126.086L210.355 126.143L210.442 127.463C210.491 128.189 210.696 129.272 210.899 129.87L211.267 130.956H211.944H212.62L212.797 129.937C213.088 128.271 213.014 125.895 212.676 125.998C212.619 126.015 212.073 126.055 211.464 126.086ZM224.324 131.616C222.694 132.118 217.032 132.684 212.17 132.831C208.496 132.942 204.537 132.692 198.831 131.987C197.028 131.765 195.523 131.612 195.487 131.649C195.318 131.818 197.915 132.79 199.672 133.215C204.282 134.332 207.852 134.735 212.072 134.615C215.384 134.521 217.771 134.182 220.264 133.452C221.664 133.043 224.504 131.875 224.799 131.588C224.975 131.417 224.968 131.417 224.324 131.616ZM223.036 134.539C222.593 134.725 222.216 134.884 222.198 134.895C222.153 134.92 222.556 136.833 222.787 137.691C222.954 138.309 223.019 138.376 223.407 138.331L223.841 138.281L223.921 136.228C223.966 135.099 223.966 134.181 223.921 134.189C223.877 134.196 223.479 134.354 223.036 134.539ZM198.703 136.389C198.759 137.164 198.882 138.07 198.976 138.402L199.146 139.005L200.064 139.006L200.982 139.006L200.901 137.275L200.821 135.545L200.258 135.366C199.948 135.268 199.448 135.141 199.147 135.083L198.599 134.979L198.703 136.389ZM210.565 137.355C210.573 138.549 210.758 138.683 212.389 138.683H213.78V137.892C213.78 136.587 213.785 136.591 212.072 136.591H210.56L210.565 137.355ZM4.50736 138.764V139.971H6.27813H8.0489V138.764V137.557H6.27813H4.50736V138.764ZM217.643 140.461C209.964 140.78 198.68 140.962 197.165 140.791C196.305 140.695 195.146 140.622 194.589 140.63L193.577 140.644L195.428 141.031C198.775 141.73 209.366 141.928 215.631 141.408C217.542 141.249 222.464 140.517 222.611 140.37C222.701 140.279 221.463 140.302 217.643 140.461ZM165.325 142.557C163.156 142.9 159.86 143.33 158.001 143.515C156.141 143.699 153.606 144.023 152.366 144.234C151.127 144.445 149.062 144.733 147.778 144.873C144.327 145.249 143.123 145.408 142.199 145.607L141.369 145.787L141.191 146.809C141.064 147.537 141.06 148.564 141.176 150.38C141.265 151.783 141.338 153.628 141.339 154.482C141.34 157.196 142.231 160.769 143.601 163.555C144.697 165.782 146.603 167.937 148.1 168.643C149.838 169.463 151.698 169.811 154.379 169.82C156.627 169.827 156.809 169.802 159.327 169.136C164.181 167.853 166.617 166.97 170.074 165.242C172.015 164.271 173.747 163.519 174.436 163.346L175.578 163.061L174.551 161.955C173.434 160.753 172.597 159.209 172.181 157.584C171.728 155.814 170.989 151.685 170.715 149.389C170.217 145.222 170.172 144.725 170.163 143.312L170.154 141.903L169.712 141.919C169.468 141.928 167.494 142.215 165.325 142.557ZM223.519 142.144C223.43 142.173 223.151 142.243 222.898 142.299C222.451 142.398 222.441 142.422 222.548 143.158C222.788 144.815 222.968 145.284 223.366 145.284C223.683 145.284 223.765 145.16 223.924 144.438C224.133 143.49 224.086 142.19 223.841 142.13C223.752 142.109 223.607 142.115 223.519 142.144ZM166.417 142.961C165.822 143.079 163.758 143.326 161.829 143.509C159.9 143.692 157.2 144.022 155.827 144.243C150.285 145.134 147.793 145.472 145.329 145.665L142.744 145.867L142.283 146.383L141.822 146.899V149.759C141.822 153.432 142.119 155.812 142.861 158.081C143.886 161.217 145.288 163.62 147.342 165.764C149.789 168.318 152.6 168.938 157.819 168.077C159.595 167.783 162.155 166.98 167.74 164.963C169.82 164.212 172.063 163.436 172.722 163.239C173.382 163.042 173.99 162.772 174.074 162.639C174.328 162.237 174.061 161.557 173.613 161.464C173.393 161.419 173.044 161.347 172.838 161.305C171.747 161.082 170.459 156.244 170.159 151.24C170.038 149.223 169.739 146.234 169.422 143.877C169.372 143.502 169.221 143.085 169.087 142.951C168.794 142.659 167.919 142.662 166.417 142.961ZM199.294 143.634C199.301 144.098 199.799 145.491 200.107 145.907C200.823 146.876 201.152 146.484 201.471 144.277L201.582 143.513H200.437C199.807 143.513 199.292 143.567 199.294 143.634ZM210.882 144.549C210.882 145.118 210.953 145.77 211.039 145.998C211.18 146.369 211.281 146.41 212.045 146.408C213.641 146.404 213.596 146.456 214.027 144.116L214.138 143.513H212.51H210.882V144.549ZM193.496 147.549C193.496 147.895 194.192 148.345 195.218 148.662C199.629 150.025 207.426 150.744 212.894 150.291C217.507 149.909 224.833 148.803 225.652 148.364C225.852 148.257 226.014 148.018 226.014 147.83C226.014 147.444 226.62 147.435 219.058 147.938C208.827 148.619 197.099 148.432 193.984 147.539C193.69 147.454 193.496 147.458 193.496 147.549ZM150.298 149.316C149.483 149.453 148.641 149.928 147.909 150.667C147.187 151.395 147.709 151.891 148.86 151.572C149.195 151.479 149.888 151.402 150.401 151.402C151.789 151.4 152.387 151.776 153.329 153.239C154.007 154.293 154.178 154.459 154.577 154.459C155.201 154.459 155.834 154.108 156.266 153.522C156.692 152.942 157.443 152.762 160.042 152.616C161.89 152.512 163.079 152.233 163.57 151.789C164.068 151.338 163.936 151.128 163.083 151.015C162.646 150.957 161.804 150.666 161.211 150.367L160.134 149.825L159.47 150.126C159.104 150.292 158.624 150.43 158.403 150.433C158.182 150.436 157.645 150.546 157.21 150.678C155.569 151.176 154.451 150.869 153.745 149.727L153.386 149.147L152.232 149.166C151.598 149.176 150.727 149.244 150.298 149.316ZM4.54117 152.568L4.58785 153.896H6.27813H7.96841L8.01509 152.568L8.06194 151.24H6.27813H4.49433L4.54117 152.568ZM200.574 152.464C200.221 153.534 200.775 155.425 201.442 155.425H201.818L201.526 154.58C201.196 153.626 201.15 152.902 201.38 152.297C201.522 151.925 201.499 151.884 201.151 151.884C200.851 151.884 200.723 152.012 200.574 152.464ZM228.848 152.532C228.415 152.714 227.546 153.16 226.917 153.523C225.225 154.5 220.362 158.187 219.588 159.078C218.147 160.739 216.809 164.544 216.588 167.611C216.465 169.318 216.732 173.498 217.084 175.387C218.481 182.877 219.991 187.895 221.525 190.152C222.807 192.038 226.259 196.357 227.112 197.141C228.416 198.342 230.75 199.692 231.525 199.693C232.109 199.694 235.36 198.493 236.94 197.693C237.868 197.222 240.811 194.871 242.038 193.62C243.519 192.109 244.739 190.366 245.866 188.149C247.158 185.608 247.678 184.103 248.007 181.945C248.3 180.02 248.335 176.754 248.079 175.145C247.901 174.031 246.078 167.636 245.144 164.853C244.529 163.021 243.644 161.263 242.666 159.933C241.642 158.54 238.327 155.316 237.241 154.658C236.764 154.369 235.354 153.737 234.107 153.252C231.351 152.182 230.096 152.01 228.848 152.532ZM210.077 153.976V155.586H210.727C211.293 155.586 211.358 155.55 211.232 155.305C210.97 154.791 210.895 154.019 211.026 153.187L211.156 152.367H210.617H210.077V153.976ZM220.219 155.536C217.969 156.87 215.773 158.936 213.998 161.39C212.197 163.88 211.251 165.932 210.406 169.19C209.261 173.598 209.361 175.988 210.882 180.618C211.967 183.921 212.261 184.932 212.488 186.145C212.634 186.919 212.867 187.266 214.865 189.68C217.429 192.778 219.129 194.642 219.822 195.117C220.091 195.302 221.134 196.083 222.139 196.854C223.662 198.022 224.064 198.256 224.548 198.254C224.867 198.253 225.381 198.269 225.688 198.289C226.483 198.342 226.545 197.875 225.802 197.437C225.496 197.256 225.066 196.839 224.848 196.51C224.629 196.181 224.024 195.434 223.502 194.852C222.98 194.269 222.324 193.526 222.044 193.201C221.486 192.555 221.069 192.469 220.455 192.871L220.058 193.131V192.23C220.058 191.734 220.144 191.006 220.249 190.612C220.465 189.807 220.522 189.974 219.251 187.701C218.805 186.905 218.288 185.911 218.103 185.493C217.917 185.075 217.634 184.691 217.475 184.64C217.119 184.528 216.306 184.857 215.04 185.625C214.513 185.945 214.042 186.166 213.993 186.117C213.943 186.067 214.041 185.789 214.211 185.498C214.508 184.989 215.26 184.359 216.386 183.675C217.116 183.231 217.127 182.775 216.445 181.224C216.131 180.51 215.722 179.285 215.536 178.501C215.351 177.718 215.12 176.981 215.023 176.863C214.81 176.606 213.2 176.745 212.352 177.095C211.636 177.389 211.635 177.389 211.763 176.876C211.944 176.148 212.286 175.906 213.301 175.789C213.822 175.728 214.334 175.575 214.44 175.448C214.582 175.276 214.594 174.772 214.488 173.491C214.409 172.541 214.36 171.167 214.379 170.437C214.412 169.18 214.393 169.096 214.011 168.846C213.712 168.65 213.403 168.606 212.808 168.677L212.007 168.772L212.104 168.336C212.268 167.601 213.034 167.016 213.832 167.016C214.735 167.016 214.944 166.821 215.386 165.567C215.937 164.007 217.855 160.14 218.751 158.787C219.183 158.133 220.013 157.083 220.596 156.452C221.179 155.822 221.61 155.26 221.554 155.205C221.357 155.007 220.934 155.112 220.219 155.536ZM154.275 157.429C153.603 157.721 152.495 158.736 152.012 159.501C151.704 159.989 151.662 160.166 151.813 160.347C152.072 160.659 152.343 160.636 153.126 160.237C154.224 159.677 154.99 159.86 156.143 160.96C156.665 161.457 157.223 161.863 157.385 161.861C157.983 161.854 159.027 161.244 159.281 160.753C159.664 160.012 160.365 159.715 161.448 159.837C162.054 159.905 162.921 159.832 164.109 159.613C165.077 159.435 166.074 159.289 166.322 159.289C166.931 159.289 166.892 159.111 166.13 158.422C165.358 157.725 164.869 157.685 162.906 158.154C161.806 158.416 161.452 158.439 160.722 158.292C159.962 158.14 159.714 158.162 158.788 158.466L157.726 158.814L156.898 158.407C156.442 158.183 155.823 157.819 155.522 157.598C154.891 157.135 154.937 157.141 154.275 157.429ZM232.936 159.573C232.936 159.65 233.051 160.05 233.19 160.46C233.407 161.095 233.412 161.272 233.229 161.655C232.857 162.432 231.118 162.762 229.955 162.276C229.391 162.04 229.084 161.552 228.805 160.448C228.68 159.954 228.648 159.933 228.355 160.148C228.042 160.378 228.043 160.392 228.41 161.565C228.943 163.267 228.869 163.561 227.712 164.35C226.994 164.84 226.637 165.225 226.289 165.889C225.855 166.714 225.828 166.874 225.885 168.24C225.939 169.523 226.016 169.844 226.504 170.816C227.026 171.856 227.146 171.978 228.421 172.758C229.169 173.217 229.981 173.859 230.225 174.187C230.873 175.055 231.384 176.756 232.303 181.101C233.7 187.701 233.697 187.67 232.876 188.074C232.639 188.191 231.793 188.328 230.997 188.38L229.548 188.474L230.236 188.792C230.745 189.027 231.322 189.119 232.453 189.143C234.513 189.186 234.676 189.284 234.949 190.639C235.031 191.044 235.137 191.163 235.417 191.163C235.968 191.163 235.994 191.049 235.659 190.078C235.307 189.052 235.267 188.413 235.539 188.141C235.683 187.997 235.632 187.877 235.321 187.632C235.008 187.386 234.894 187.116 234.824 186.46C234.774 185.992 234.469 184.413 234.145 182.953C233.776 181.291 233.522 179.655 233.464 178.582C233.374 176.895 233.379 176.861 233.791 176.449C234.333 175.907 235.16 175.882 235.623 176.393C236.218 177.048 238.731 184.819 238.731 186.003C238.731 186.497 238.482 186.757 237.486 187.304C237.11 187.51 236.827 187.702 236.855 187.73C236.884 187.759 237.316 187.7 237.815 187.6C238.601 187.442 238.779 187.454 239.143 187.693C239.374 187.844 239.667 188.216 239.793 188.519C239.92 188.822 240.07 189.07 240.126 189.07C240.237 189.07 240.066 185.965 239.912 185.193C239.827 184.766 239.913 184.623 240.682 183.916L241.549 183.119L241.545 181.869C241.543 181.1 241.433 180.301 241.258 179.794C240.87 178.672 239.466 177.139 238.336 176.604C237.588 176.25 237.414 176.077 237.075 175.347C236.359 173.804 235.664 170.581 235.423 167.687C235.31 166.332 235.538 165.889 236.345 165.889C236.738 165.889 236.795 165.835 236.731 165.527C236.69 165.328 236.612 164.821 236.558 164.402C236.447 163.553 236.053 163.152 235.328 163.152C235.09 163.152 234.777 163.107 234.633 163.052C234.282 162.917 233.851 162.02 233.498 160.691C233.247 159.748 232.936 159.129 232.936 159.573ZM200.363 161.354C200.159 161.58 200.097 161.97 200.097 163.029V164.409L200.905 164.465C201.692 164.519 201.712 164.509 201.64 164.118C201.599 163.897 201.518 163.286 201.46 162.76C201.277 161.108 200.956 160.698 200.363 161.354ZM4.50736 165.164V167.016H6.27813H8.0489V165.164V163.313H6.27813H4.50736V165.164ZM231.384 164.761C230.858 164.973 230.522 165.569 230.522 166.287C230.523 167.479 231.014 169.984 231.422 170.879C231.842 171.802 233.184 173.314 233.934 173.709C234.594 174.056 235.307 174.006 235.435 173.603C235.573 173.169 235.277 171.044 234.69 168.254C234.189 165.872 233.949 165.248 233.384 164.852C232.999 164.582 231.946 164.534 231.384 164.761ZM228.146 166.505C227.916 166.651 227.461 168.263 227.466 168.915C227.471 169.538 228.02 170.66 228.425 170.877C228.92 171.142 229.697 170.931 229.805 170.502C229.854 170.309 229.781 169.72 229.644 169.193C229.507 168.667 229.395 167.929 229.395 167.555C229.395 167.033 229.311 166.814 229.037 166.622C228.637 166.342 228.443 166.317 228.146 166.505ZM201.867 170.205C201.867 170.65 201.823 171.128 201.77 171.268C201.688 171.481 201.813 171.523 202.534 171.521C203.736 171.517 203.839 171.421 203.707 170.422L203.597 169.591H202.987C202.651 169.591 202.262 169.547 202.122 169.494C201.911 169.413 201.867 169.533 201.867 170.205ZM199.533 177.176C199.598 177.741 199.713 178.322 199.788 178.466C199.955 178.784 201.654 179.045 201.906 178.792C201.996 178.702 202.079 178.211 202.089 177.701L202.109 176.774L201.223 176.585C200.736 176.481 200.131 176.34 199.877 176.272L199.416 176.147L199.533 177.176ZM4.61989 178.225C4.55807 178.287 4.50736 178.797 4.50736 179.357V180.377H6.28554H8.06355L8.01606 179.29L7.96841 178.204L6.35041 178.158C5.46068 178.133 4.68187 178.163 4.61989 178.225ZM239.375 181.496C239.375 182.612 240.196 183.27 240.314 182.248C240.405 181.447 240.218 181.021 239.775 181.021C239.44 181.021 239.375 181.097 239.375 181.496ZM201.314 183.502C201.366 183.687 201.531 184.146 201.679 184.522C201.914 185.119 202.01 185.205 202.443 185.206C202.898 185.206 202.933 185.168 202.87 184.742C202.833 184.486 202.876 184.139 202.966 183.97C203.114 183.694 203.036 183.639 202.174 183.415C201.226 183.168 201.219 183.168 201.314 183.502ZM4.50736 189.633V190.68H6.27813H8.0489V189.633V188.587H6.27813H4.50736V189.633ZM202.438 189.507C202.569 189.93 202.717 190.433 202.768 190.624C202.868 191.001 203.255 191.157 204.1 191.16C204.589 191.162 204.63 191.128 204.524 190.8C204.459 190.601 204.371 190.17 204.328 189.842C204.252 189.263 204.225 189.242 203.34 189.06C202.84 188.957 202.379 188.842 202.316 188.805C202.253 188.767 202.308 189.083 202.438 189.507ZM13.2002 198.085V200.016H14.3271H15.4539V198.085V196.153H14.3271H13.2002V198.085ZM23.5029 198.085V200.016H24.2273H24.9517V198.085V196.153H24.2273H23.5029V198.085ZM33.4835 198.085V200.016H34.2079H34.9323V198.085V196.153H34.2079H33.4835V198.085ZM42.6593 198.085V200.016H43.4642H44.2691V198.085V196.153H43.4642H42.6593V198.085ZM52.1571 198.085V200.016H52.962H53.7669V198.085V196.153H52.962H52.1571V198.085ZM62.7817 198.085V200.016H63.5061H64.2305V198.085V196.153H63.5061H62.7817V198.085ZM72.2794 198.085V200.016H73.0843H73.8892V198.085V196.153H73.0843H72.2794V198.085ZM81.6162 198.085V200.016H82.4211H83.226V198.085V196.153H82.4211H81.6162V198.085ZM91.5969 198.085V200.016H92.2408H92.8847V198.085V196.153H92.2408H91.5969V198.085ZM100.451 198.085V200.016H101.497H102.543V198.085V196.153H101.497H100.451V198.085ZM110.592 198.085V200.016H111.317H112.041V198.085V196.153H111.317H110.592V198.085ZM121.434 197.481C121.49 198.211 121.537 199.081 121.538 199.413L121.539 200.016H122.505H123.471V198.085V196.153H122.4H121.33L121.434 197.481ZM133.29 198.085V200.016H134.337H135.383V198.085V196.153H134.337H133.29V198.085ZM143.754 198.085V200.016H144.398H145.042V198.085V196.153H144.398H143.754V198.085ZM154.379 198.085V200.016H155.183H155.988V198.085V196.153H155.183H154.379V198.085ZM165.486 198.085V200.016H166.532H167.579V198.085V196.153H166.532H165.486V198.085ZM175.628 198.085V200.016H176.996H178.364V198.085V196.153H176.996H175.628V198.085ZM187.218 198.085V200.016H188.909H190.599V198.085V196.153H188.909H187.218V198.085Z" fill="#623C25"/>
</svg>
