<svg xmlns="http://www.w3.org/2000/svg" width="1553" height="1000" viewBox="0 0 1553 1000" version="1.1"><path d="M 53.250 20.761 L 14 21.023 14 501.512 L 14 982 614.875 982 L 1215.750 982 1216.375 978.875 C 1216.719 977.156, 1217 973.381, 1217 970.486 L 1217 965.223 1203.619 951.861 C 1196.259 944.513, 1189.525 937.934, 1188.653 937.243 C 1187.385 936.237, 1074.377 935.986, 622.535 935.987 L 58 935.988 58 504.994 L 58 74 61 74 L 64 74 64 501.429 C 64 888.667, 64.148 929.005, 65.571 930.429 C 67.646 932.504, 69.208 932.411, 72.232 930.032 C 74.303 928.403, 75.317 928.230, 78.111 929.032 C 81.843 930.102, 1175.465 930.446, 1183.249 929.379 C 1187.420 928.808, 1187.819 928.500, 1188.307 925.493 C 1188.599 923.696, 1187.995 915.538, 1186.965 907.363 C 1183.903 883.069, 1182.086 849.535, 1180.955 796.500 C 1179.263 717.078, 1177.805 654.047, 1177.498 647 C 1177.342 643.425, 1176.873 622.500, 1176.455 600.500 C 1175.747 563.155, 1175.851 558.786, 1178.017 534.674 C 1180.021 512.358, 1180.166 507.987, 1179.078 502.516 C 1178.202 498.107, 1178.047 492.739, 1178.570 484.842 C 1178.983 478.604, 1179.392 450.325, 1179.479 422 C 1179.680 356.537, 1179.727 356.264, 1193.374 340.612 C 1200.804 332.091, 1201 331.948, 1201 335.071 C 1201 337.412, 1199.938 339.428, 1197.062 342.548 C 1192.427 347.577, 1192.297 348.154, 1190.645 371 C 1189.704 384.016, 1189.636 393.484, 1190.379 407.950 C 1191.424 428.312, 1190.526 462.202, 1187.370 521.500 C 1185.656 553.716, 1185.850 621.750, 1187.862 693.500 C 1188.479 715.500, 1189.450 760.275, 1190.019 793 C 1191.380 871.246, 1192.710 896.549, 1196.579 917.827 C 1200.227 937.886, 1208.558 947.732, 1231.730 959.366 C 1266.609 976.878, 1298.568 982.936, 1341 980.080 C 1358.545 978.899, 1376.966 976.718, 1380.347 975.420 C 1381.341 975.039, 1382.583 973.596, 1383.109 972.212 C 1383.880 970.186, 1383.579 968.963, 1381.565 965.919 C 1379.368 962.599, 1378.051 961.832, 1370.711 959.593 C 1363.440 957.375, 1361.347 956.168, 1354.556 950.272 C 1341.959 939.339, 1341.548 939.124, 1333 939.049 C 1328.875 939.013, 1321.675 938.559, 1317 938.040 C 1312.325 937.521, 1302.425 936.625, 1295 936.049 C 1282.745 935.098, 1246.734 929.118, 1231.320 925.474 C 1227.921 924.670, 1221.283 922.617, 1216.570 920.912 C 1208.427 917.965, 1208 917.663, 1208 914.838 C 1208 912.471, 1208.357 911.974, 1209.750 912.397 C 1215.359 914.101, 1231.297 917.305, 1242.926 919.066 C 1250.311 920.185, 1256.716 921.325, 1257.161 921.599 C 1257.606 921.874, 1262.104 922.302, 1267.158 922.551 C 1273.679 922.872, 1276.859 923.467, 1278.114 924.604 C 1279.717 926.054, 1281.683 926.381, 1286 925.917 C 1286.825 925.828, 1294.359 926.936, 1302.741 928.378 C 1320.361 931.409, 1324.707 931.594, 1327.777 929.443 C 1331.807 926.621, 1330.624 923.664, 1320.888 912.215 C 1315.877 906.322, 1309.850 899.223, 1307.495 896.440 C 1302.230 890.219, 1299.830 889.425, 1282 888.006 C 1274.575 887.416, 1264.752 886.048, 1260.171 884.966 C 1255.590 883.885, 1250.738 883, 1249.389 883 C 1246.635 883, 1239.424 880.243, 1240.185 879.481 C 1240.456 879.211, 1246.038 879.927, 1252.589 881.072 C 1259.140 882.218, 1271.925 883.529, 1281 883.986 C 1297.453 884.813, 1297.507 884.809, 1299.901 882.484 C 1302.216 880.236, 1302.253 879.978, 1300.934 875.326 C 1300.181 872.672, 1299.644 869.825, 1299.741 869 C 1300.051 866.341, 1294.027 862.731, 1286.146 860.853 C 1281.941 859.851, 1271.300 857.677, 1262.500 856.022 C 1241.557 852.084, 1225.359 847.677, 1222.660 845.184 C 1220.237 842.945, 1212.662 838.159, 1206.250 834.817 C 1203.741 833.509, 1202 831.893, 1202 830.871 C 1202 829.330, 1202.465 829.399, 1206.250 831.504 C 1208.588 832.804, 1214.100 835.054, 1218.500 836.504 C 1222.900 837.955, 1229.200 840.193, 1232.500 841.479 C 1238.606 843.857, 1242.528 844.573, 1267.739 847.910 C 1281.956 849.791, 1284.731 849.684, 1292.250 846.958 C 1295.942 845.619, 1297.269 844, 1294.673 844 C 1293.777 844, 1293.485 843.056, 1293.773 841.094 C 1294.053 839.189, 1293.478 837.210, 1292.105 835.344 C 1290.740 833.491, 1289.601 829.591, 1288.836 824.151 C 1287.101 811.828, 1286.983 811.742, 1270.878 810.900 C 1253.013 809.966, 1228.800 803.598, 1220.044 797.531 C 1214.749 793.861, 1208.922 787.602, 1211.500 788.352 C 1212.600 788.673, 1215.975 789.604, 1219 790.422 C 1225.334 792.135, 1237.694 796.544, 1240.216 797.990 C 1244.226 800.290, 1250.769 800.834, 1264.223 799.986 C 1284.976 798.677, 1288.621 796.217, 1287.520 784.256 C 1287.079 779.466, 1287.320 777.441, 1288.556 775.555 C 1290.477 772.623, 1289.740 769.503, 1286.674 767.590 C 1285.289 766.726, 1279.600 766.001, 1271 765.593 C 1263.575 765.241, 1254.350 764.260, 1250.500 763.415 C 1246.650 762.569, 1237.425 760.775, 1230 759.428 C 1208.593 755.544, 1207.684 755.004, 1223.500 755.564 C 1231.200 755.836, 1242.413 756.562, 1248.418 757.178 C 1254.769 757.828, 1265.995 758.048, 1275.258 757.704 C 1293.568 757.023, 1295.289 756.395, 1297.047 749.753 C 1298.350 744.830, 1305.986 730, 1307.217 730 C 1307.675 730, 1308.488 728.846, 1309.025 727.435 C 1311.439 721.084, 1305.255 717.741, 1288 716.069 C 1274.392 714.751, 1254.995 710.997, 1245.500 707.844 C 1239.775 705.943, 1217.705 695.918, 1218.243 695.463 C 1218.384 695.344, 1222.447 696.054, 1227.272 697.043 C 1245.167 700.707, 1264.625 702.351, 1292.500 702.552 C 1307.350 702.659, 1320.625 703.056, 1322 703.435 C 1324.048 704, 1325.495 703.269, 1330 699.396 C 1340.202 690.626, 1347.447 685.804, 1359.500 679.765 C 1366.100 676.458, 1376 671.180, 1381.500 668.036 C 1387 664.891, 1394.200 661.299, 1397.500 660.053 C 1400.800 658.807, 1404.850 657.191, 1406.500 656.462 C 1408.150 655.733, 1410.524 654.847, 1411.777 654.493 C 1416.047 653.284, 1417.097 650.197, 1416.047 641.932 C 1415.528 637.845, 1415.316 632.025, 1415.575 629 C 1416.204 621.653, 1419.760 540.569, 1420.991 505.500 C 1421.532 490.100, 1421.980 464.207, 1421.987 447.960 C 1421.997 425.275, 1422.340 417.115, 1423.465 412.795 C 1424.286 409.643, 1425.436 397.269, 1426.080 384.654 C 1427.675 353.397, 1426.313 346.430, 1416.833 337.351 C 1412.268 332.981, 1402.948 326.716, 1398.273 324.877 C 1382.479 318.662, 1370.171 316.968, 1333.500 315.963 C 1315.900 315.481, 1298.350 314.631, 1294.500 314.076 C 1282.779 312.384, 1268.599 312.866, 1255.270 315.410 C 1248.543 316.694, 1241.937 318.467, 1240.589 319.350 C 1239.241 320.233, 1235.857 321.822, 1233.069 322.882 L 1228 324.808 1228 172.904 L 1228 21 661.582 21 C 350.052 21, 94.564 20.887, 93.832 20.749 C 93.099 20.611, 74.838 20.617, 53.250 20.761 M 1109.500 109.545 C 1085.095 118.558, 1058.992 129.856, 1058.279 131.715 C 1057.419 133.957, 1058.624 134.246, 1061.857 132.574 C 1063.531 131.708, 1067.123 131, 1069.840 131 C 1072.557 131, 1079.196 130.091, 1084.593 128.981 C 1094.302 126.983, 1094.427 126.982, 1096.344 128.900 C 1098.262 130.817, 1098.250 130.895, 1095.268 136.169 C 1093.610 139.101, 1072.026 173, 1047.303 211.500 C 996.260 290.989, 794.957 605.041, 790.456 612.207 C 786.743 618.119, 758.240 662.248, 752.421 671.093 C 745.921 680.973, 745.949 680.963, 739.863 675.853 C 737.012 673.459, 732.839 669.475, 730.590 667 C 728.340 664.525, 710.964 646.846, 691.976 627.714 L 657.452 592.929 586.476 664.125 C 504.087 746.770, 492.355 758.288, 491.031 757.834 C 490.495 757.650, 457.624 725.121, 417.986 685.547 L 345.916 613.594 208.208 751.047 L 70.500 888.500 70.283 904 L 70.067 919.500 102.783 886.469 C 120.778 868.302, 183.236 805.864, 241.581 747.719 C 323.720 665.861, 348.207 642, 350.078 642 C 351.944 642, 368.460 657.960, 422.497 711.980 L 492.500 781.960 505 770.909 C 511.875 764.832, 549.269 728.129, 588.098 689.348 C 652.505 625.020, 658.949 618.867, 661.590 619.169 C 663.490 619.386, 664.903 620.359, 665.700 622 C 667.011 624.696, 746.675 704.712, 747.295 703.956 C 751.442 698.902, 873.543 506.528, 874.060 504.233 C 874.973 500.184, 876.469 497.870, 885.526 486.500 C 889.468 481.550, 916.443 440.375, 945.469 395 C 974.495 349.625, 1002.311 306.200, 1007.281 298.500 C 1045.654 239.055, 1078.864 186.726, 1080.719 182.787 C 1081.939 180.195, 1084.441 176.370, 1086.278 174.287 C 1088.950 171.257, 1100.963 153.009, 1108.684 140.250 C 1111.035 136.366, 1116 137.952, 1116 142.586 C 1116 145.451, 1123.751 170.478, 1126.060 175.067 C 1127.046 177.029, 1128.603 179.255, 1129.518 180.015 C 1131.045 181.282, 1131.122 180.998, 1130.460 176.580 C 1129.446 169.818, 1129.331 118.011, 1130.311 109.250 C 1130.756 105.263, 1130.756 102.036, 1130.311 102.079 C 1129.865 102.123, 1120.500 105.482, 1109.500 109.545 M 393 205.626 C 385.025 206.365, 369.950 207.884, 359.500 209.001 C 330.048 212.151, 317.518 212.894, 275.058 214.012 C 253.365 214.583, 235.522 215.151, 235.407 215.275 C 235.292 215.399, 235.643 221.575, 236.188 229 C 238.101 255.068, 235.678 281.017, 229.371 302 C 226.363 312.008, 211.051 350.972, 206.873 359.250 C 204.657 363.641, 204.317 365, 205.434 365 C 210.564 365, 232.432 368.581, 246.689 371.756 L 263.500 375.500 291.500 375.364 C 320.891 375.221, 355.260 373.289, 387.998 369.939 C 417.128 366.959, 414.686 367.683, 415.994 361.631 C 420.993 338.499, 424.640 297.554, 423.622 276 C 423.058 264.055, 418.289 223.422, 415.905 210.250 L 414.774 204 411.137 204.141 C 409.137 204.218, 400.975 204.887, 393 205.626 M 373.500 212.541 C 343.851 216.036, 324.646 217.532, 290.500 219.008 C 278.950 219.507, 265.450 220.376, 260.500 220.940 C 255.550 221.503, 248.912 221.972, 245.750 221.982 C 241.634 221.995, 240 222.379, 240 223.333 C 240 224.067, 240.257 224.924, 240.572 225.239 C 240.887 225.553, 241.384 233.391, 241.676 242.655 C 243.107 287.993, 235.546 323.864, 219.333 348.654 C 216.400 353.139, 214 357.682, 214 358.749 C 214 363.380, 218.819 364.831, 242 367.184 C 250.246 368.021, 271.515 368.461, 304.500 368.476 C 353.899 368.500, 354.704 368.468, 371.500 365.819 C 391.108 362.726, 404.454 359.126, 406.461 356.389 C 407.262 355.297, 408.094 350.704, 408.433 345.500 C 408.757 340.550, 409.746 326.150, 410.633 313.500 C 412.925 280.808, 412.161 221.899, 409.350 214.500 C 407.683 210.113, 407.085 209.484, 404.475 209.371 C 402.839 209.300, 388.900 210.726, 373.500 212.541 M 28.221 236.250 L 28.500 249.500 39 249.500 L 49.500 249.500 49.779 236.250 L 50.058 223 39 223 L 27.942 223 28.221 236.250 M 282.820 264.904 C 277.491 269.816, 276.528 273.089, 281.582 269.114 C 283.060 267.951, 285.093 267, 286.100 267 C 289.507 267, 297.347 270.189, 303.939 274.255 C 318.320 283.126, 318.752 283.305, 324.385 282.724 C 327.924 282.359, 332.563 280.642, 338.784 277.395 L 347.961 272.606 352.881 274.179 C 357.417 275.630, 358.100 275.620, 361.650 274.052 L 365.500 272.351 358.345 270.175 C 348.805 267.275, 346.757 267.399, 336.082 271.522 C 323.666 276.317, 319.552 276.779, 313.404 274.067 C 310.707 272.878, 306.700 270.200, 304.500 268.117 C 293.890 258.069, 290.741 257.602, 282.820 264.904 M 28 319.500 L 28 332 39 332 L 50 332 50 319.500 L 50 307 39 307 L 28 307 28 319.500 M 315.500 313.184 C 313.850 313.676, 307.078 314.704, 300.451 315.469 C 288.595 316.838, 283 318.383, 283 320.288 C 283 321.506, 288.944 320.637, 299.710 317.846 C 309.662 315.267, 313.564 316.008, 322 322.082 C 335.558 331.842, 340.277 332.138, 352.988 324.022 C 359.694 319.741, 361.784 319.512, 367.313 322.452 C 371.845 324.861, 375.058 325.609, 376.158 324.509 C 376.799 323.867, 367.722 314.457, 365.117 313.063 C 362.628 311.731, 357.397 313.386, 344.139 319.702 C 337.377 322.922, 334.078 323.985, 332.261 323.529 C 330.877 323.182, 327.214 320.511, 324.122 317.594 C 318.959 312.723, 318.255 312.363, 315.500 313.184 M 1313.671 329.416 C 1313.095 330.916, 1314.483 342.398, 1315.627 345.604 C 1316.830 348.973, 1319.245 351, 1322.057 351 C 1326.830 351, 1328.366 342.961, 1325.461 333.182 L 1323.923 328 1319.068 328 C 1315.804 328, 1314.036 328.464, 1313.671 329.416 M 1247.460 334.420 C 1246.615 340.053, 1247.675 346.408, 1250.309 351.500 L 1252.378 355.500 1253.239 351 C 1254.737 343.169, 1252.370 330, 1249.463 330 C 1248.644 330, 1247.865 331.720, 1247.460 334.420 M 1378.992 337.034 C 1377.524 343.154, 1378.165 350.593, 1380.348 352.776 C 1381.775 354.203, 1382.016 354.087, 1382.997 351.509 C 1383.590 349.948, 1383.946 345.038, 1383.788 340.597 C 1383.555 334.057, 1383.189 332.463, 1381.862 332.209 C 1380.633 331.975, 1379.917 333.179, 1378.992 337.034 M 1303.500 364.571 C 1294.150 365.301, 1275.025 366.351, 1261 366.905 C 1234.527 367.951, 1215.357 369.767, 1216.715 371.102 C 1218.297 372.658, 1237.963 375.981, 1252.347 377.123 C 1274.218 378.859, 1351.824 375.909, 1376.798 372.392 C 1394.668 369.876, 1394.973 369.669, 1384.481 367.185 C 1366.500 362.927, 1336.829 361.970, 1303.500 364.571 M 1381.882 383.642 C 1380.761 383.956, 1380.070 385.746, 1379.633 389.464 C 1378.909 395.629, 1379.430 397.416, 1383.275 401.945 C 1385.712 404.815, 1386.465 405.135, 1389.457 404.574 C 1393.276 403.858, 1393.205 404.804, 1390.556 390 C 1389.446 383.792, 1389.261 383.493, 1386.447 383.344 C 1384.826 383.258, 1382.772 383.392, 1381.882 383.642 M 1232.080 394.171 C 1232.125 398.202, 1232.687 403.525, 1233.330 406 L 1234.500 410.500 1243.164 411 L 1251.829 411.500 1252.417 407.808 C 1252.740 405.777, 1252.506 400.762, 1251.897 396.663 L 1250.788 389.210 1244.144 388.563 C 1240.490 388.207, 1236.263 387.674, 1234.750 387.378 L 1232 386.841 1232.080 394.171 M 1316.330 389.581 C 1315.434 391.916, 1316.650 405.478, 1317.978 407.959 C 1318.959 409.792, 1319.864 410.057, 1324.273 409.800 L 1329.421 409.500 1330.688 405.107 C 1331.694 401.621, 1331.707 399.402, 1330.750 394.357 L 1329.544 388 1323.241 388 C 1318.416 388, 1316.795 388.371, 1316.330 389.581 M 28.216 408.750 L 28.500 419.500 34.500 419.022 C 37.800 418.760, 42.638 418.535, 45.250 418.522 L 50 418.500 50 408.250 L 50 398 38.966 398 L 27.932 398 28.216 408.750 M 1373 418.003 C 1318.182 423.155, 1274.281 424.571, 1230.502 422.599 C 1212.214 421.776, 1210.619 421.835, 1211.834 423.300 C 1212.565 424.181, 1215.039 425.138, 1217.332 425.427 C 1219.624 425.716, 1226.900 426.640, 1233.500 427.480 C 1276.332 432.934, 1291.136 434.176, 1319.500 434.698 C 1346.019 435.186, 1349.569 435.049, 1360.990 433.096 C 1378.039 430.182, 1401.040 422.185, 1410 416.057 C 1412.212 414.544, 1406.736 414.832, 1373 418.003 M 1384.885 439.818 L 1380.270 441.267 1379.011 447.940 C 1378.319 451.609, 1377.938 457.904, 1378.166 461.927 C 1378.535 468.462, 1378.880 469.500, 1381.409 471.675 C 1383.371 473.363, 1385.186 474.016, 1387.330 473.804 C 1390.044 473.537, 1390.528 473.012, 1391.294 469.500 C 1392.206 465.313, 1391.367 443.077, 1390.184 440.094 C 1389.556 438.509, 1389.123 438.486, 1384.885 439.818 M 1233.459 448.702 C 1233.078 453.784, 1233.059 459.642, 1233.417 461.721 C 1235.089 471.422, 1234.832 471, 1239.060 471 C 1243.906 471, 1244.511 469.290, 1243.581 458.224 C 1241.994 439.352, 1242.263 440.235, 1237.973 439.826 L 1234.152 439.462 1233.459 448.702 M 1305.607 448.582 C 1304.209 452.226, 1305.081 458.856, 1307.583 463.601 C 1310.765 469.635, 1310.765 469.634, 1314.750 470.474 L 1318 471.159 1318 463.100 C 1318 458.027, 1317.404 453.551, 1316.391 451.020 C 1314.864 447.202, 1314.567 447, 1310.498 447 C 1307.514 447, 1306.030 447.480, 1305.607 448.582 M 1242.306 482.951 C 1232.299 483.283, 1223.862 483.805, 1223.558 484.109 C 1222.795 484.871, 1244.397 489.749, 1256.084 491.453 C 1290.622 496.491, 1328.058 495.952, 1364.802 489.889 C 1371.568 488.773, 1378.768 487.248, 1380.802 486.500 C 1384.303 485.214, 1383.886 485.137, 1373 485.059 C 1366.675 485.014, 1349.800 484.314, 1335.500 483.505 C 1309.370 482.026, 1276.096 481.828, 1242.306 482.951 M 28 502 L 28 512 39 512 L 50 512 50 502 L 50 492 39 492 L 28 492 28 502 M 1385 497.582 L 1378.500 499.884 1378.693 510.375 C 1378.845 518.633, 1379.350 521.944, 1381.066 525.933 C 1383.311 531.150, 1384.169 531.647, 1388.255 530.093 C 1390.103 529.391, 1390.901 527.983, 1391.800 523.843 C 1394.272 512.453, 1394.539 494.697, 1392.231 495.140 C 1391.829 495.218, 1388.575 496.316, 1385 497.582 M 1232.475 509.531 C 1231.721 520.587, 1232.485 529.331, 1234.337 530.859 C 1234.977 531.386, 1237.525 531.959, 1240 532.131 L 1244.500 532.444 1244.500 525.449 C 1244.500 520.884, 1243.653 515.684, 1242.062 510.477 C 1239.219 501.172, 1238.734 500.373, 1235.555 499.766 C 1233.204 499.316, 1233.162 499.449, 1232.475 509.531 M 1313.612 506.745 L 1306.724 507.098 1307.268 515.299 C 1307.568 519.809, 1308.843 526.538, 1310.103 530.250 L 1312.393 537 1316.594 537 L 1320.795 537 1321.897 530.668 C 1323.700 520.315, 1323.245 505.556, 1321.143 506.196 C 1320.789 506.304, 1317.400 506.551, 1313.612 506.745 M 1393.500 541.096 C 1383.374 544.215, 1348.200 547.732, 1318 548.646 C 1295.175 549.336, 1270.582 547.780, 1235.138 543.404 C 1223.939 542.021, 1214.592 541.075, 1214.366 541.301 C 1213.317 542.350, 1229.449 548.388, 1240.361 551.032 C 1269 557.969, 1291.177 560.472, 1317.392 559.726 C 1337.963 559.141, 1352.793 557.036, 1368.280 552.504 C 1376.976 549.959, 1394.620 542.707, 1396.450 540.925 C 1397.543 539.860, 1397.504 539.863, 1393.500 541.096 M 1385.500 559.255 C 1382.750 560.407, 1380.407 561.400, 1380.294 561.464 C 1380.015 561.620, 1382.521 573.506, 1383.955 578.833 C 1384.989 582.674, 1385.392 583.090, 1387.805 582.811 L 1390.500 582.500 1391 569.748 C 1391.275 562.734, 1391.275 557.033, 1391 557.079 C 1390.725 557.125, 1388.250 558.104, 1385.500 559.255 M 1234.341 570.745 C 1234.693 575.560, 1235.457 581.188, 1236.038 583.250 L 1237.094 587 1242.797 587.002 L 1248.500 587.005 1248 576.253 L 1247.500 565.501 1244 564.393 C 1242.075 563.784, 1238.970 562.993, 1237.100 562.637 L 1233.700 561.990 1234.341 570.745 M 1308.032 576.750 C 1308.081 584.164, 1309.229 585, 1319.360 585 L 1328 585 1328 580.082 C 1328 571.977, 1328.030 572, 1317.393 572 L 1308 572 1308.032 576.750 M 28 585.500 L 28 593 39 593 L 50 593 50 585.500 L 50 578 39 578 L 28 578 28 585.500 M 1352 596.040 C 1304.294 598.025, 1234.200 599.157, 1224.789 598.095 C 1219.449 597.493, 1212.249 597.041, 1208.789 597.090 L 1202.500 597.181 1214 599.584 C 1234.793 603.928, 1300.583 605.154, 1339.500 601.922 C 1351.369 600.936, 1381.944 596.389, 1382.860 595.474 C 1383.421 594.912, 1375.726 595.054, 1352 596.040 M 1027 609.065 C 1013.525 611.191, 993.050 613.867, 981.500 615.011 C 969.950 616.156, 954.200 618.167, 946.500 619.480 C 938.800 620.793, 925.975 622.578, 918 623.448 C 896.560 625.787, 889.078 626.772, 883.342 628.012 L 878.183 629.126 877.078 635.475 C 876.290 639.998, 876.263 646.378, 876.983 657.662 C 877.538 666.373, 877.995 677.838, 877.996 683.140 C 878.003 700.001, 883.538 722.195, 892.052 739.500 C 898.861 753.338, 910.695 766.723, 920 771.111 C 930.796 776.202, 942.349 778.367, 959 778.420 C 972.966 778.465, 974.098 778.309, 989.739 774.172 C 1019.892 766.199, 1035.027 760.714, 1056.500 749.979 C 1068.558 743.951, 1079.318 739.276, 1083.595 738.206 L 1090.690 736.433 1084.309 729.564 C 1077.371 722.095, 1072.170 712.502, 1069.586 702.408 C 1066.773 691.416, 1062.185 665.767, 1060.481 651.500 C 1057.388 625.617, 1057.108 622.531, 1057.054 613.750 L 1057 605 1054.250 605.100 C 1052.737 605.155, 1040.475 606.939, 1027 609.065 M 1388.500 606.496 C 1387.950 606.677, 1386.214 607.110, 1384.643 607.458 C 1381.866 608.074, 1381.806 608.222, 1382.467 612.796 C 1383.957 623.088, 1385.077 626, 1387.547 626 C 1389.519 626, 1390.026 625.234, 1391.014 620.750 C 1392.313 614.860, 1392.023 606.783, 1390.500 606.411 C 1389.950 606.277, 1389.050 606.315, 1388.500 606.496 M 1033.783 611.571 C 1030.088 612.307, 1017.263 613.839, 1005.283 614.975 C 993.302 616.111, 976.525 618.162, 968 619.533 C 933.571 625.071, 918.090 627.168, 902.781 628.367 L 886.724 629.625 883.862 632.828 L 881 636.032 881 653.804 C 881 676.621, 882.845 691.401, 887.454 705.500 C 893.820 724.976, 902.528 739.907, 915.290 753.227 C 930.489 769.089, 947.949 772.943, 980.371 767.591 C 991.406 765.769, 1007.307 760.779, 1042 748.249 C 1054.925 743.581, 1068.853 738.760, 1072.950 737.537 C 1077.048 736.313, 1080.827 734.636, 1081.348 733.811 C 1082.923 731.313, 1081.267 727.092, 1078.485 726.515 C 1077.118 726.232, 1074.952 725.786, 1073.672 725.524 C 1066.891 724.138, 1058.892 694.088, 1057.028 663 C 1056.276 650.469, 1054.418 631.903, 1052.451 617.262 C 1052.137 614.931, 1051.201 612.344, 1050.369 611.512 C 1048.550 609.693, 1043.114 609.713, 1033.783 611.571 M 1238.012 615.750 C 1238.058 618.635, 1241.153 627.287, 1243.064 629.873 C 1247.515 635.893, 1249.555 633.457, 1251.539 619.750 L 1252.227 615 1245.114 615 C 1241.201 615, 1238.005 615.337, 1238.012 615.750 M 1310 621.435 C 1310 624.974, 1310.439 629.024, 1310.975 630.435 C 1311.853 632.744, 1312.477 632.999, 1317.225 632.986 C 1327.138 632.961, 1326.861 633.281, 1329.533 618.750 L 1330.223 615 1320.111 615 L 1310 615 1310 621.435 M 1202 640.070 C 1202 642.222, 1206.324 645.020, 1212.692 646.987 C 1240.094 655.455, 1288.530 659.918, 1322.500 657.107 C 1351.155 654.735, 1396.661 647.861, 1401.750 645.135 C 1402.992 644.470, 1404 642.984, 1404 641.819 C 1404 639.423, 1407.765 639.365, 1360.786 642.490 C 1297.233 646.718, 1224.377 645.557, 1205.028 640.008 C 1203.205 639.485, 1202 639.510, 1202 640.070 M 933.654 651.049 C 928.586 651.899, 923.361 654.853, 918.810 659.440 C 914.325 663.962, 917.566 667.047, 924.716 665.062 C 926.797 664.484, 931.105 664.009, 934.290 664.006 C 942.911 663.997, 946.631 666.332, 952.480 675.418 C 956.694 681.965, 957.752 683, 960.230 683 C 964.111 683, 968.042 680.818, 970.723 677.174 C 973.373 673.574, 978.036 672.455, 994.181 671.547 C 1005.663 670.901, 1013.049 669.171, 1016.095 666.414 C 1019.190 663.613, 1018.369 662.307, 1013.071 661.604 C 1010.359 661.244, 1005.128 659.433, 1001.445 657.580 L 994.750 654.210 990.625 656.083 C 988.356 657.113, 985.375 657.971, 984 657.989 C 982.625 658.007, 979.291 658.692, 976.591 659.511 C 966.393 662.604, 959.449 660.699, 955.064 653.603 L 952.837 650 945.668 650.118 C 941.726 650.182, 936.319 650.601, 933.654 651.049 M 28.210 671.250 L 28.500 679.500 39 679.500 L 49.500 679.500 49.790 671.250 L 50.081 663 39 663 L 27.919 663 28.210 671.250 M 1245.966 670.603 C 1243.771 677.254, 1247.214 689, 1251.360 689 L 1253.693 689 1251.879 683.750 C 1249.831 677.822, 1249.545 673.327, 1250.975 669.565 C 1251.854 667.254, 1251.713 667, 1249.553 667 C 1247.686 667, 1246.892 667.798, 1245.966 670.603 M 1421.607 671.030 C 1418.915 672.157, 1413.515 674.927, 1409.607 677.185 C 1399.098 683.255, 1368.887 706.156, 1364.080 711.694 C 1355.128 722.008, 1346.818 745.644, 1345.446 764.699 C 1344.682 775.304, 1346.338 801.265, 1348.527 813 C 1357.207 859.530, 1366.583 890.705, 1376.114 904.722 C 1384.080 916.437, 1405.524 943.267, 1410.817 948.140 C 1418.921 955.601, 1433.419 963.985, 1438.234 963.993 C 1441.862 964, 1462.057 956.538, 1471.869 951.567 C 1477.636 948.644, 1495.916 934.040, 1503.540 926.263 C 1512.740 916.879, 1520.318 906.050, 1527.319 892.282 C 1535.346 876.496, 1538.573 867.144, 1540.618 853.741 C 1542.442 841.782, 1542.657 821.493, 1541.065 811.500 C 1539.963 804.579, 1528.635 764.855, 1522.833 747.564 C 1519.016 736.185, 1513.517 725.267, 1507.442 717 C 1501.082 708.346, 1480.486 688.322, 1473.744 684.236 C 1470.781 682.441, 1462.019 678.511, 1454.273 675.502 C 1437.153 668.852, 1429.357 667.785, 1421.607 671.030 M 1305 680 L 1305 690 1309.035 690 C 1312.552 690, 1312.956 689.775, 1312.176 688.250 C 1310.547 685.061, 1310.079 680.262, 1310.895 675.098 L 1311.701 670 1308.351 670 L 1305 670 1305 680 M 1368 689.687 C 1354.022 697.976, 1340.383 710.811, 1329.356 726.053 C 1318.168 741.518, 1312.294 754.271, 1307.040 774.509 C 1299.931 801.888, 1300.550 816.737, 1309.998 845.500 C 1316.737 866.016, 1318.563 872.297, 1319.978 879.833 C 1320.881 884.642, 1322.330 886.797, 1334.740 901.789 C 1350.672 921.036, 1361.227 932.613, 1365.536 935.567 C 1367.205 936.712, 1373.682 941.567, 1379.928 946.357 C 1389.388 953.610, 1391.887 955.063, 1394.892 955.054 C 1396.877 955.049, 1400.064 955.147, 1401.975 955.272 C 1406.912 955.596, 1407.299 952.699, 1402.682 949.975 C 1400.779 948.852, 1398.112 946.261, 1396.755 944.217 C 1395.398 942.172, 1391.636 937.537, 1388.394 933.916 C 1385.152 930.295, 1381.076 925.683, 1379.335 923.666 C 1375.869 919.651, 1373.283 919.113, 1369.465 921.615 L 1367 923.230 1367 917.629 C 1367 914.549, 1367.536 910.026, 1368.190 907.579 C 1369.527 902.582, 1369.881 903.616, 1361.986 889.500 C 1359.217 884.550, 1356.008 878.375, 1354.854 875.779 C 1353.701 873.182, 1351.945 870.800, 1350.952 870.485 C 1348.743 869.784, 1343.692 871.827, 1335.829 876.604 C 1332.558 878.591, 1329.630 879.964, 1329.322 879.655 C 1329.013 879.347, 1329.624 877.617, 1330.678 875.812 C 1332.523 872.653, 1337.193 868.738, 1344.187 864.486 C 1348.722 861.730, 1348.791 858.895, 1344.555 849.262 C 1342.605 844.826, 1340.066 837.215, 1338.912 832.349 C 1337.759 827.482, 1336.323 822.903, 1335.722 822.173 C 1334.402 820.573, 1324.397 821.439, 1319.128 823.610 C 1314.685 825.441, 1314.674 825.437, 1315.470 822.250 C 1316.598 817.729, 1318.722 816.229, 1325.029 815.497 C 1328.263 815.121, 1331.445 814.168, 1332.100 813.379 C 1332.984 812.314, 1333.061 809.180, 1332.400 801.222 C 1331.910 795.325, 1331.606 786.789, 1331.725 782.254 C 1331.930 774.447, 1331.808 773.921, 1329.439 772.368 C 1327.580 771.150, 1325.659 770.880, 1321.961 771.318 L 1316.985 771.908 1317.589 769.204 C 1318.609 764.636, 1323.367 761, 1328.325 761 C 1333.936 761, 1335.232 759.792, 1337.980 752 C 1341.398 742.310, 1353.317 718.289, 1358.879 709.881 C 1361.565 705.821, 1366.724 699.296, 1370.344 695.379 C 1373.964 691.463, 1376.642 687.976, 1376.296 687.629 C 1375.068 686.402, 1372.443 687.053, 1368 689.687 M 958.355 701.447 C 954.181 703.263, 947.300 709.564, 944.298 714.320 C 942.386 717.349, 942.127 718.449, 943.062 719.575 C 944.670 721.512, 946.353 721.371, 951.216 718.890 C 958.037 715.410, 962.800 716.551, 969.961 723.381 C 973.201 726.471, 976.672 728.990, 977.676 728.978 C 981.391 728.933, 987.874 725.144, 989.451 722.096 C 991.831 717.491, 996.187 715.651, 1002.914 716.405 C 1006.679 716.828, 1012.067 716.375, 1019.443 715.016 C 1025.461 713.907, 1031.649 713, 1033.193 713 C 1036.978 713, 1036.732 711.894, 1031.997 707.616 C 1027.207 703.289, 1024.164 703.036, 1011.971 705.948 C 1005.139 707.580, 1002.937 707.719, 998.403 706.809 C 993.686 705.862, 992.142 706, 986.393 707.888 L 979.796 710.053 974.648 707.524 C 971.817 706.133, 967.971 703.871, 966.102 702.497 C 962.184 699.618, 962.469 699.656, 958.355 701.447 M 1447 714.763 C 1447 715.247, 1447.710 717.727, 1448.578 720.274 C 1449.922 724.218, 1449.957 725.318, 1448.816 727.702 C 1446.506 732.529, 1435.705 734.575, 1428.478 731.555 C 1424.975 730.092, 1423.067 727.059, 1421.334 720.199 C 1420.559 717.132, 1420.361 717, 1418.540 718.339 C 1416.599 719.766, 1416.603 719.856, 1418.884 727.140 C 1422.193 737.711, 1421.735 739.541, 1414.548 744.441 C 1410.089 747.482, 1407.872 749.879, 1405.707 754 C 1403.013 759.125, 1402.842 760.121, 1403.198 768.605 C 1403.532 776.574, 1404.012 778.571, 1407.040 784.605 C 1410.283 791.067, 1411.030 791.825, 1418.951 796.674 C 1423.599 799.520, 1428.643 803.513, 1430.160 805.547 C 1434.183 810.943, 1437.357 821.505, 1443.069 848.500 C 1451.743 889.500, 1451.727 889.306, 1446.626 891.817 C 1445.154 892.541, 1439.900 893.395, 1434.951 893.716 L 1425.952 894.299 1430.226 896.275 C 1433.388 897.737, 1436.972 898.304, 1444 898.452 C 1456.795 898.723, 1457.810 899.332, 1459.505 907.750 C 1460.010 910.262, 1460.671 911, 1462.413 911 C 1465.835 911, 1465.993 910.293, 1463.917 904.260 C 1461.727 897.892, 1461.480 893.920, 1463.171 892.229 C 1464.066 891.334, 1463.747 890.589, 1461.815 889.069 C 1459.871 887.540, 1459.159 885.861, 1458.727 881.791 C 1458.418 878.881, 1456.520 869.075, 1454.508 860 C 1452.219 849.676, 1450.637 839.513, 1450.280 832.849 C 1449.720 822.368, 1449.752 822.157, 1452.310 819.599 C 1455.677 816.232, 1460.812 816.075, 1463.693 819.250 C 1467.387 823.321, 1483 871.597, 1483 878.949 C 1483 882.015, 1481.451 883.632, 1475.261 887.029 C 1472.930 888.309, 1471.167 889.501, 1471.345 889.678 C 1471.522 889.855, 1474.205 889.490, 1477.306 888.867 C 1482.192 887.886, 1483.295 887.963, 1485.557 889.445 C 1486.992 890.386, 1488.811 892.696, 1489.597 894.578 C 1490.383 896.460, 1491.312 898, 1491.661 898 C 1492.355 898, 1491.292 878.711, 1490.333 873.917 C 1489.803 871.266, 1490.341 870.375, 1495.118 865.983 L 1500.500 861.035 1500.480 853.267 C 1500.467 848.489, 1499.779 843.529, 1498.692 840.379 C 1496.286 833.407, 1487.566 823.886, 1480.544 820.564 C 1475.896 818.365, 1474.815 817.288, 1472.712 812.757 C 1468.262 803.170, 1463.944 783.148, 1462.448 765.168 C 1461.748 756.754, 1463.160 754, 1468.174 754 C 1470.615 754, 1470.970 753.668, 1470.574 751.750 C 1470.318 750.513, 1469.833 747.369, 1469.496 744.765 C 1468.812 739.489, 1466.364 737, 1461.859 737 C 1460.377 737, 1458.433 736.719, 1457.539 736.377 C 1455.362 735.541, 1452.682 729.968, 1450.487 721.711 C 1448.929 715.853, 1447 712.008, 1447 714.763 M 1244.655 725.829 C 1243.386 727.231, 1243 729.657, 1243 736.232 L 1243 744.807 1248.025 745.153 C 1252.911 745.490, 1253.037 745.431, 1252.587 743 C 1252.333 741.625, 1251.829 737.829, 1251.467 734.565 C 1250.331 724.304, 1248.342 721.754, 1244.655 725.829 M 28 749.500 L 28 761 39 761 L 50 761 50 749.500 L 50 738 39 738 L 28 738 28 749.500 M 1437.357 746.992 C 1434.088 748.311, 1432 752.010, 1432.004 756.473 C 1432.011 763.881, 1435.059 779.441, 1437.592 785 C 1440.202 790.731, 1448.542 800.122, 1453.200 802.577 C 1457.298 804.736, 1461.730 804.425, 1462.525 801.922 C 1463.380 799.226, 1461.541 786.026, 1457.894 768.690 C 1454.782 753.897, 1453.294 750.020, 1449.783 747.561 C 1447.388 745.883, 1440.846 745.584, 1437.357 746.992 M 1417.244 757.828 C 1415.812 758.737, 1412.989 768.746, 1413.022 772.799 C 1413.053 776.667, 1416.458 783.640, 1418.974 784.986 C 1422.052 786.634, 1426.881 785.322, 1427.550 782.657 C 1427.851 781.456, 1427.401 777.798, 1426.549 774.527 C 1425.697 771.256, 1425 766.675, 1425 764.347 C 1425 761.106, 1424.479 759.748, 1422.777 758.557 C 1420.294 756.817, 1419.087 756.658, 1417.244 757.828 M 1254 780.811 C 1254 783.575, 1253.727 786.548, 1253.393 787.418 C 1252.886 788.740, 1253.665 788.997, 1258.143 788.985 C 1265.610 788.963, 1266.250 788.364, 1265.426 782.157 L 1264.742 777 1260.953 777 C 1258.869 777, 1256.452 776.727, 1255.582 776.393 C 1254.269 775.889, 1254 776.640, 1254 780.811 M 1239.501 824.113 C 1239.901 827.626, 1240.615 831.234, 1241.086 832.131 C 1242.122 834.103, 1252.673 835.727, 1254.243 834.157 C 1254.802 833.598, 1255.313 830.548, 1255.379 827.379 L 1255.500 821.617 1250 820.445 C 1246.975 819.800, 1243.211 818.924, 1241.636 818.499 L 1238.772 817.726 1239.501 824.113 M 28.699 830.634 C 28.315 831.019, 28 834.183, 28 837.667 L 28 844 39.046 844 L 50.091 844 49.796 837.250 L 49.500 830.500 39.449 830.217 C 33.922 830.062, 29.084 830.249, 28.699 830.634 M 1487 850.953 C 1487 857.885, 1492.100 861.970, 1492.828 855.621 C 1493.398 850.647, 1492.235 848, 1489.481 848 C 1487.400 848, 1487 848.476, 1487 850.953 M 1250.561 863.411 C 1250.888 864.560, 1251.908 867.411, 1252.828 869.746 C 1254.289 873.457, 1254.888 873.993, 1257.577 873.996 C 1260.400 874, 1260.619 873.762, 1260.230 871.115 C 1259.997 869.528, 1260.266 867.372, 1260.827 866.323 C 1261.746 864.607, 1261.257 864.264, 1255.907 862.870 C 1250.017 861.335, 1249.972 861.340, 1250.561 863.411 M 28 901.500 L 28 908 39 908 L 50 908 50 901.500 L 50 895 39 895 L 28 895 28 901.500 M 1257.548 900.714 C 1258.359 903.346, 1259.280 906.470, 1259.596 907.656 C 1260.219 909.998, 1262.621 910.965, 1267.867 910.986 C 1270.910 910.999, 1271.163 910.784, 1270.503 908.750 C 1270.102 907.513, 1269.554 904.835, 1269.286 902.800 C 1268.813 899.201, 1268.646 899.069, 1263.150 897.939 C 1260.042 897.300, 1257.179 896.587, 1256.787 896.353 C 1256.395 896.119, 1256.737 898.081, 1257.548 900.714 M 82 954 L 82 966 89 966 L 96 966 96 954 L 96 942 89 942 L 82 942 82 954 M 146 954 L 146 966 150.500 966 L 155 966 155 954 L 155 942 150.500 942 L 146 942 146 954 M 208 954 L 208 966 212.500 966 L 217 966 217 954 L 217 942 212.500 942 L 208 942 208 954 M 265 954 L 265 966 270 966 L 275 966 275 954 L 275 942 270 942 L 265 942 265 954 M 324 954 L 324 966 329 966 L 334 966 334 954 L 334 942 329 942 L 324 942 324 954 M 390 954 L 390 966 394.500 966 L 399 966 399 954 L 399 942 394.500 942 L 390 942 390 954 M 449 954 L 449 966 454 966 L 459 966 459 954 L 459 942 454 942 L 449 942 449 954 M 507 954 L 507 966 512 966 L 517 966 517 954 L 517 942 512 942 L 507 942 507 954 M 569 954 L 569 966 573 966 L 577 966 577 954 L 577 942 573 942 L 569 942 569 954 M 624 954 L 624 966 630.500 966 L 637 966 637 954 L 637 942 630.500 942 L 624 942 624 954 M 687 954 L 687 966 691.500 966 L 696 966 696 954 L 696 942 691.500 942 L 687 942 687 954 M 754.346 950.250 C 754.699 954.788, 754.991 960.188, 754.994 962.250 L 755 966 761 966 L 767 966 767 954 L 767 942 760.352 942 L 753.704 942 754.346 950.250 M 828 954 L 828 966 834.500 966 L 841 966 841 954 L 841 942 834.500 942 L 828 942 828 954 M 893 954 L 893 966 897 966 L 901 966 901 954 L 901 942 897 942 L 893 942 893 954 M 959 954 L 959 966 964 966 L 969 966 969 954 L 969 942 964 942 L 959 942 959 954 M 1028 954 L 1028 966 1034.500 966 L 1041 966 1041 954 L 1041 942 1034.500 942 L 1028 942 1028 954 M 1091 954 L 1091 966 1099.500 966 L 1108 966 1108 954 L 1108 942 1099.500 942 L 1091 942 1091 954 M 1163 954 L 1163 966 1173.500 966 L 1184 966 1184 954 L 1184 942 1173.500 942 L 1163 942 1163 954" stroke="none" fill="#fffcfc" fill-rule="evenodd"/><path d="" stroke="none" fill="#fcfcfc" fill-rule="evenodd"/></svg>