<svg width="120" height="64" viewBox="0 0 120 64" fill="none" xmlns="http://www.w3.org/2000/svg">
<path d="M118.589 29.35C117.525 28.1578 92.1298 0.212524 60.0001 0.212524C27.8704 0.212524 2.4751 28.1578 1.41104 29.35C1.24854 29.5297 1.10479 29.7235 0.978223 29.9313C0.853223 30.1375 0.74541 30.3547 0.659473 30.5813C0.573535 30.8078 0.50791 31.0406 0.46416 31.2782C0.42041 31.5172 0.396973 31.7578 0.396973 32C0.396973 32.2422 0.42041 32.4828 0.46416 32.7219C0.50791 32.9594 0.573535 33.1922 0.659473 33.4188C0.74541 33.6453 0.853223 33.8625 0.978223 34.0688C1.10479 34.2766 1.24854 34.4703 1.41104 34.65C2.4751 35.8422 27.8704 63.7875 60.0001 63.7875C92.1298 63.7875 117.525 35.8422 118.589 34.65C118.752 34.4703 118.895 34.2766 119.022 34.0688C119.147 33.8625 119.255 33.6453 119.341 33.4188C119.427 33.1922 119.492 32.9594 119.536 32.7219C119.58 32.4828 119.603 32.2422 119.603 32C119.603 31.7578 119.58 31.5172 119.536 31.2782C119.492 31.0406 119.427 30.8078 119.341 30.5813C119.255 30.3547 119.147 30.1375 119.022 29.9313C118.895 29.7235 118.752 29.5297 118.589 29.35ZM60.0001 55.8406C36.9532 55.8406 16.9032 38.7078 9.93447 32C16.8876 25.2844 36.8782 8.1594 60.0001 8.1594C83.122 8.1594 103.097 25.2922 110.066 32C103.113 38.7156 83.122 55.8406 60.0001 55.8406Z" fill="#D18807"/>
<path d="M40.1328 32C40.1328 32.65 40.1641 33.3 40.2281 33.9469C40.2922 34.5953 40.3875 35.2375 40.5141 35.8766C40.6406 36.5141 40.7984 37.1453 40.9875 37.7672C41.1766 38.3906 41.3953 39.0016 41.6453 39.6031C41.8938 40.2047 42.1719 40.7922 42.4781 41.3656C42.7844 41.9391 43.1188 42.4969 43.4813 43.0375C43.8422 43.5781 44.2297 44.1016 44.6422 44.6031C45.0547 45.1063 45.4922 45.5891 45.9516 46.0484C46.4109 46.5078 46.8937 46.9453 47.3969 47.3578C47.8984 47.7703 48.4219 48.1578 48.9625 48.5187C49.5031 48.8812 50.0609 49.2156 50.6344 49.5219C51.2078 49.8281 51.7953 50.1063 52.3969 50.3547C52.9984 50.6047 53.6094 50.8234 54.2328 51.0125C54.8547 51.2016 55.4859 51.3594 56.1234 51.4859C56.7625 51.6125 57.4047 51.7078 58.0531 51.7719C58.7 51.8359 59.35 51.8672 60 51.8672C60.65 51.8672 61.3 51.8359 61.9469 51.7719C62.5953 51.7078 63.2375 51.6125 63.8766 51.4859C64.5141 51.3594 65.1453 51.2016 65.7672 51.0125C66.3906 50.8234 67.0016 50.6047 67.6031 50.3547C68.2047 50.1063 68.7922 49.8281 69.3656 49.5219C69.9391 49.2156 70.4969 48.8812 71.0375 48.5187C71.5781 48.1578 72.1016 47.7703 72.6031 47.3578C73.1063 46.9453 73.5891 46.5078 74.0484 46.0484C74.5078 45.5891 74.9453 45.1063 75.3578 44.6031C75.7703 44.1016 76.1578 43.5781 76.5187 43.0375C76.8812 42.4969 77.2156 41.9391 77.5219 41.3656C77.8281 40.7922 78.1063 40.2047 78.3547 39.6031C78.6047 39.0016 78.8234 38.3906 79.0125 37.7672C79.2016 37.1453 79.3594 36.5141 79.4859 35.8766C79.6125 35.2375 79.7078 34.5953 79.7719 33.9469C79.8359 33.3 79.8672 32.65 79.8672 32C79.8672 31.35 79.8359 30.7 79.7719 30.0531C79.7078 29.4047 79.6125 28.7625 79.4859 28.1234C79.3594 27.4859 79.2016 26.8547 79.0125 26.2328C78.8234 25.6094 78.6047 24.9984 78.3547 24.3969C78.1063 23.7953 77.8281 23.2078 77.5219 22.6344C77.2156 22.0609 76.8812 21.5031 76.5187 20.9625C76.1578 20.4219 75.7703 19.8984 75.3578 19.3969C74.9453 18.8937 74.5078 18.4109 74.0484 17.9516C73.5891 17.4922 73.1063 17.0547 72.6031 16.6422C72.1016 16.2297 71.5781 15.8422 71.0375 15.4813C70.4969 15.1188 69.9391 14.7844 69.3656 14.4781C68.7922 14.1719 68.2047 13.8938 67.6031 13.6453C67.0016 13.3953 66.3906 13.1766 65.7672 12.9875C65.1453 12.7984 64.5141 12.6406 63.8766 12.5141C63.2375 12.3875 62.5953 12.2922 61.9469 12.2281C61.3 12.1641 60.65 12.1328 60 12.1328C59.35 12.1328 58.7 12.1656 58.0531 12.2297C57.4062 12.2953 56.7641 12.3906 56.125 12.5188C55.4875 12.6453 54.8578 12.8047 54.2359 12.9938C53.6125 13.1828 53.0016 13.4016 52.4 13.6516C51.8 13.9 51.2125 14.1781 50.6391 14.4859C50.0656 14.7922 49.5078 15.1266 48.9672 15.4875C48.4266 15.85 47.9047 16.2359 47.4031 16.65C46.9 17.0625 46.4188 17.4984 45.9578 17.9578C45.4984 18.4188 45.0625 18.9 44.65 19.4031C44.2375 19.9047 43.85 20.4266 43.4875 20.9672C43.1266 21.5078 42.7922 22.0656 42.4859 22.6391C42.1781 23.2125 41.9 23.8 41.6516 24.4C41.4016 25.0016 41.1828 25.6125 40.9938 26.2359C40.8047 26.8578 40.6453 27.4875 40.5188 28.125C40.3906 28.7641 40.2953 29.4062 40.2297 30.0531C40.1656 30.7 40.1328 31.35 40.1328 32ZM71.9203 32C71.9203 32.3906 71.9016 32.7797 71.8625 33.1688C71.825 33.5563 71.7672 33.9422 71.6922 34.325C71.6156 34.7078 71.5203 35.0875 71.4078 35.4609C71.2937 35.8344 71.1625 36.2016 71.0125 36.5625C70.8641 36.9219 70.6969 37.275 70.5125 37.6187C70.3281 37.9641 70.1281 38.2984 69.9109 38.6234C69.6953 38.9469 69.4625 39.2609 69.2141 39.5625C68.9672 39.8641 68.7047 40.1531 68.4297 40.4297C68.1531 40.7047 67.8641 40.9672 67.5625 41.2141C67.2609 41.4625 66.9469 41.6953 66.6234 41.9109C66.2984 42.1281 65.9641 42.3281 65.6187 42.5125C65.275 42.6969 64.9219 42.8641 64.5625 43.0125C64.2016 43.1625 63.8344 43.2937 63.4609 43.4078C63.0875 43.5203 62.7078 43.6156 62.325 43.6922C61.9422 43.7672 61.5563 43.825 61.1688 43.8625C60.7797 43.9016 60.3906 43.9203 60 43.9203C59.6094 43.9203 59.2203 43.9016 58.8313 43.8625C58.4438 43.825 58.0578 43.7672 57.675 43.6922C57.2922 43.6156 56.9125 43.5203 56.5391 43.4078C56.1656 43.2937 55.7984 43.1625 55.4375 43.0125C55.0781 42.8641 54.725 42.6969 54.3813 42.5125C54.0359 42.3281 53.7016 42.1281 53.3766 41.9109C53.0531 41.6953 52.7391 41.4625 52.4375 41.2141C52.1359 40.9672 51.8469 40.7047 51.5703 40.4297C51.2953 40.1531 51.0328 39.8641 50.7859 39.5625C50.5375 39.2609 50.3047 38.9469 50.0891 38.6234C49.8719 38.2984 49.6703 37.9641 49.4875 37.6187C49.3031 37.275 49.1359 36.9219 48.9875 36.5625C48.8375 36.2016 48.7063 35.8344 48.5922 35.4609C48.4797 35.0875 48.3844 34.7078 48.3078 34.325C48.2328 33.9422 48.175 33.5563 48.1375 33.1688C48.0984 32.7797 48.0797 32.3906 48.0797 32C48.0797 31.6094 48.0984 31.2203 48.1375 30.8313C48.175 30.4438 48.2328 30.0578 48.3078 29.675C48.3844 29.2922 48.4797 28.9125 48.5922 28.5391C48.7063 28.1656 48.8375 27.7984 48.9875 27.4375C49.1359 27.0781 49.3031 26.725 49.4875 26.3813C49.6703 26.0359 49.8719 25.7016 50.0891 25.3766C50.3047 25.0531 50.5375 24.7391 50.7859 24.4375C51.0328 24.1359 51.2953 23.8469 51.5703 23.5703C51.8469 23.2953 52.1359 23.0328 52.4375 22.7859C52.7391 22.5375 53.0531 22.3047 53.3766 22.0891C53.7016 21.8719 54.0359 21.6703 54.3813 21.4875C54.725 21.3031 55.0781 21.1359 55.4375 20.9875C55.7984 20.8375 56.1656 20.7063 56.5391 20.5922C56.9125 20.4797 57.2922 20.3844 57.675 20.3078C58.0578 20.2328 58.4438 20.175 58.8313 20.1375C59.2203 20.0984 59.6094 20.0797 60 20.0797C60.3906 20.0797 60.7797 20.0984 61.1688 20.1375C61.5563 20.175 61.9422 20.2328 62.325 20.3078C62.7078 20.3844 63.0875 20.4797 63.4609 20.5922C63.8344 20.7063 64.2016 20.8375 64.5625 20.9875C64.9219 21.1359 65.275 21.3031 65.6187 21.4875C65.9641 21.6703 66.2984 21.8719 66.6234 22.0891C66.9469 22.3047 67.2609 22.5375 67.5625 22.7859C67.8641 23.0328 68.1531 23.2953 68.4297 23.5703C68.7047 23.8469 68.9672 24.1359 69.2141 24.4375C69.4625 24.7391 69.6953 25.0531 69.9109 25.3766C70.1281 25.7016 70.3281 26.0359 70.5125 26.3813C70.6969 26.725 70.8641 27.0781 71.0125 27.4375C71.1625 27.7984 71.2937 28.1656 71.4078 28.5391C71.5203 28.9125 71.6156 29.2922 71.6922 29.675C71.7672 30.0578 71.825 30.4438 71.8625 30.8313C71.9016 31.2203 71.9203 31.6094 71.9203 32Z" fill="#D18807"/>
</svg>
