<svg width="15" height="15" viewBox="0 0 24 25" fill="none" xmlns="http://www.w3.org/2000/svg">
<g clip-path="url(#clip0_4972_6348)">
<path d="M21.593 7.96033C21.4791 7.53773 21.2565 7.15234 20.9474 6.8425C20.6382 6.53266 20.2533 6.30919 19.831 6.19433C18.265 5.76433 12 5.75733 12 5.75733C12 5.75733 5.73599 5.75033 4.16899 6.16133C3.74692 6.28148 3.36282 6.50811 3.05356 6.81947C2.7443 7.13082 2.52028 7.51645 2.40299 7.93933C1.98999 9.50533 1.98599 12.7533 1.98599 12.7533C1.98599 12.7533 1.98199 16.0173 2.39199 17.5673C2.62199 18.4243 3.29699 19.1013 4.15499 19.3323C5.73699 19.7623 11.985 19.7693 11.985 19.7693C11.985 19.7693 18.25 19.7763 19.816 19.3663C20.2385 19.2517 20.6237 19.0287 20.9336 18.7195C21.2436 18.4103 21.4674 18.0256 21.583 17.6033C21.997 16.0383 22 12.7913 22 12.7913C22 12.7913 22.02 9.52633 21.593 7.96033ZM9.99599 15.7623L10.001 9.76233L15.208 12.7673L9.99599 15.7623Z" fill="white"/>
</g>
<defs>
<clipPath id="clip0_4972_6348">
<rect width="24" height="24" fill="white" transform="translate(0 0.757324)"/>
</clipPath>
</defs>
</svg>
