<svg width="15" height="11" viewBox="0 0 15 11" fill="none" xmlns="http://www.w3.org/2000/svg">
<path fill-rule="evenodd" clip-rule="evenodd" d="M13.3602 0.313631C14.006 0.486499 14.5135 0.993992 14.6864 1.63978C14.9987 2.8091 15 5.25025 15 5.25025C15 5.25025 15 7.6914 14.6864 8.86073C14.5135 9.50651 14.006 10.014 13.3602 10.1868C12.1909 10.5005 7.49997 10.5005 7.49997 10.5005C7.49997 10.5005 2.8091 10.5005 1.63977 10.1868C0.993992 10.014 0.486499 9.50651 0.313631 8.86073C8.58303e-08 7.6914 0 5.25025 0 5.25025C0 5.25025 8.58303e-08 2.8091 0.313631 1.63978C0.486499 0.993992 0.993992 0.486499 1.63977 0.313631C2.8091 8.58303e-08 7.49997 0 7.49997 0C7.49997 0 12.1909 8.58303e-08 13.3602 0.313631ZM9.89549 5.25046L5.99857 7.50018V3.00068L9.89549 5.25046Z" fill="white"/>
</svg>
