<svg width="500" height="351" viewBox="0 0 500 351" fill="none" xmlns="http://www.w3.org/2000/svg">
<path fill-rule="evenodd" clip-rule="evenodd" d="M445.341 10.4544C466.867 16.2167 483.785 33.1332 489.547 54.6594C499.96 93.637 500.002 175.009 500.002 175.009C500.002 175.009 500.002 256.381 489.547 295.359C483.785 316.885 466.867 333.801 445.341 339.562C406.365 350.017 250 350.018 250 350.018C250 350.018 93.637 350.017 54.6593 339.562C33.1332 333.801 16.2167 316.885 10.4544 295.359C2.86102e-06 256.381 0 175.009 0 175.009C0 175.009 2.86102e-06 93.637 10.4544 54.6594C16.2167 33.1332 33.1332 16.2167 54.6593 10.4544C93.637 2.86102e-06 250 0 250 0C250 0 406.365 2.86102e-06 445.341 10.4544ZM329.851 175.016L199.953 250.007V100.023L329.851 175.016Z" fill="white"/>
</svg>
